<?xml version="1.0" encoding="utf-8"?>
<svg version="1.1" xmlns:xlink="http://www.w3.org/1999/xlink" width="7px" height="4px" xmlns="http://www.w3.org/2000/svg">
  <g transform="matrix(1 0 0 1 -237 -289 )">
    <path d="M 6.80821917808219 0.967441860465117  C 7.07671232876712 0.706976744186048  7.03835616438356 0.372093023255815  6.84657534246575 0.148837209302326  C 6.73150684931507 0.0372093023255813  6.57808219178082 0  6.42465753424658 0  L 0.671232876712329 0.0372093023255813  C 0.517808219178082 0.0372093023255813  0.364383561643836 0.0744186046511625  0.249315068493151 0.186046511627907  C 0.0191780821917811 0.409302325581395  0.0191780821917811 0.744186046511628  0.249315068493151 0.967441860465116  L 3.12602739726027 3.75813953488372  C 3.16438356164384 3.7953488372093  3.24109589041096 3.83255813953488  3.27945205479452 3.86976744186047  L 3.31780821917808 3.90697674418605  C 3.50958904109589 3.98139534883721  3.77808219178082 3.94418604651163  3.93150684931507 3.7953488372093  L 6.80821917808219 0.967441860465117  Z " fill-rule="nonzero" fill="#ffffff" stroke="none" transform="matrix(1 0 0 1 237 289 )" />
  </g>
</svg>