<?xml version="1.0" encoding="utf-8"?>
<svg version="1.1" xmlns:xlink="http://www.w3.org/1999/xlink" width="22px" height="22px" xmlns="http://www.w3.org/2000/svg">
  <g transform="matrix(1 0 0 1 -365 -284 )">
    <path d="M 21.9639344262295 9.16498360655738  C 21.871606557377 6.79908196721312  20.8790819672131 4.54859016393443  19.1940983606557 2.87514754098361  L 19.1479344262295 2.87514754098361  C 17.5552786885246 1.28249180327869  15.4432786885246 0.313049180327869  13.1927868852459 0.163016393442623  L 13.1927868852459 9.16498360655738  L 21.9639344262295 9.16498360655738  Z M 11.5770491803279 11  L 11.5770491803279 0.347672131147541  L 10.9192131147541 0.347672131147541  C 4.96406557377049 0.347672131147541  0.12839344262295 5.17180327868852  0.12839344262295 11.1269508196721  C 0.12839344262295 17.0936393442623  4.96406557377049 21.9177704918033  10.9192131147541 21.9177704918033  C 16.8166557377049 21.9408524590164  21.6292459016393 17.2090491803279  21.7100327868852 11.3116065573771  L 21.7100327868852 11  L 11.5770491803279 11  Z M 10.2613770491803 12  L 20.3481967213115 12  C 20.152 14.2776393442623  19.1594754098361 16.4011803278689  17.5321967213115 17.9822950819672  L 17.4860327868852 17.9822950819672  C 15.7318032786885 19.7019016393443  13.3774426229508 20.6598032786885  10.9192131147541 20.6598032786885  C 5.67960655737705 20.6598032786885  1.44406557377049 16.424262295082  1.44406557377049 11.1846557377049  C 1.40944262295082 6.19895081967213  5.27567213114754 2.03265573770492  10.2613770491803 1.70950819672131  L 10.2613770491803 12  Z " fill-rule="nonzero" fill="#5b5b5b" stroke="none" transform="matrix(1 0 0 1 365 284 )" />
  </g>
</svg>