<?xml version="1.0" encoding="utf-8"?>
<svg version="1.1" xmlns:xlink="http://www.w3.org/1999/xlink" width="21px" height="13px" xmlns="http://www.w3.org/2000/svg">
  <g transform="matrix(1 0 0 1 -967 -336 )">
    <path d="M 20.5638136360887 10.5804501788194  C 20.7951711441532 10.2894480677083  20.8933247842742 9.90652622916667  20.8344022772177 9.53060229513889  L 20.3444139344758 6.43944385590278  C 20.3141078225806 5.39405339236111  19.4988975393145 4.55217964409722  18.5010707479839 4.55217962152778  L 18.2579070695565 4.55217962152778  L 17.3623715322581 2.6699733125  C 17.1530449717742 2.22935914409722  16.7332653870968 1.95616360243056  16.26706265625 1.95616357986111  L 12.9353844586694 1.95616357986111  L 12.9353844586694 1.30632813368056  C 12.9353844586694 0.591225081597225  12.388943141129 0.0086203541666691  11.717573077621 0.0086203541666691  L 3.19332672580645 0.0086203541666691  C 2.52195668346774 0.0086203541666691  1.97551534475806 0.591225081597225  1.97551536592742 1.30632813368056  L 1.97551536592742 2.605283078125  L 3.19332672580645 2.605283078125  L 3.19332672580645 1.30632813368056  L 11.717573077621 1.30632813368056  L 11.717573077621 9.745505046875  L 8.58688130745968 9.745505046875  C 8.31481959677419 8.62911930381945  7.36969814818548 7.79863159201389  6.23782266229839 7.79863159201389  C 5.10594717641129 7.79863159201389  4.16073908165322 8.62911930381945  3.8886990483871 9.745505046875  L 3.19332672580645 9.745505046875  L 3.19332672580645 7.79863159201389  L 1.97551536592742 7.79863159201389  L 1.97551536592742 11.0445292795139  L 3.88867737096774 11.0445292795139  C 4.16073908165323 12.1608688454861  5.10592552016129 12.991402734375  6.23780100604839 12.991402734375  C 7.36965483568548 12.991402734375  8.31479794052419 12.1608688229167  8.58685965120968 11.0445292795139  L 14.2393916733871 11.0445292795139  C 14.51171334375 12.1608688454861  15.4571813770161 12.991402734375  16.5887535907258 12.991402734375  C 17.7203474606855 12.991402734375  18.6657721814516 12.1608688229167  18.9380938306452 11.0445292795139  L 19.624302828629 11.0445292795139  C 19.9876077822581 11.0445292795139  20.3301165544355 10.8752399618056  20.5638136360887 10.5804501788194  Z M 7.45563404334677 10.3946938333333  C 7.45563404334677 11.1104204791667  6.9091277358871 11.6936256666667  6.23782266229839 11.6936256666667  C 5.56649593245968 11.6936256666667  5.02001128125 11.1104204791667  5.02001130241935 10.3946938333333  C 5.02001132358871 9.6789671875  5.56649595362903 9.09638557118056  6.23782266229839 9.09638557118056  C 6.90910605846774 9.09638557118056  7.45563404334677 9.6789671875  7.45563404334677 10.3946938333333  Z M 15.3709638659274 3.25638877777778  L 16.2765725655242 3.25763592013889  L 16.8926161179435 4.55217962152778  L 15.3709638659274 4.55217962152778  L 15.3709638659274 3.25638877777778  Z M 17.8066082842742 10.3946938333333  C 17.8066082842742 11.1104204791667  17.2601236330645 11.6936256666667  16.5887969032258 11.6936256666667  C 15.9174268608871 11.6936256666667  15.3709855221774 11.1104204791667  15.3709855433468 10.3946938333333  C 15.3709855645161 9.6789671875  15.9174268608871 9.09638557118056  16.5887969032258 9.09638557118056  C 17.2601236330645 9.09638557118056  17.8066082842742 9.6789671875  17.8066082842742 10.3946938333333  Z M 19.6243461622984 9.745505046875  L 18.9381371643145 9.745505046875  C 18.6658154939516 8.62911930381944  17.7203907731855 7.79863159201389  16.5887969032258 7.79863159201389  C 15.4572246895161 7.79863159201389  14.5117566350806 8.62911930381944  14.2394349858871 9.745505046875  L 12.9354061149194 9.745505046875  L 12.9354061149194 3.90236728645833  L 14.1532174959677 3.90301394618056  L 14.1532174959677 4.55217962152778  C 14.1532174959677 5.26790626736111  14.6997021471774 5.85115765451389  15.3710071995968 5.85115765451389  L 18.5010924254032 5.85115765451389  C 18.8465906491936 5.85115765451389  19.127252452621 6.14149001736111  19.1272524314516 6.49967667013889  L 19.6243461622984 9.745505046875  Z M 0.148852466733871 4.55217962152778  L 0.148852466733871 3.25384827083333  L 5.02001130241935 3.25384827083333  L 5.02001130241935 4.55217962152778  L 0.148852466733871 4.55217962152778  Z M 0.757747318548387 7.14884234548611  L 0.757747318548387 5.85115765451389  L 5.62888449798387 5.85115765451389  L 5.62888449798387 7.14884234548611  L 0.757747318548387 7.14884234548611  Z " fill-rule="nonzero" fill="#434343" stroke="none" transform="matrix(1 0 0 1 967 336 )" />
  </g>
</svg>