<?xml version="1.0" encoding="utf-8"?>
<svg version="1.1" xmlns:xlink="http://www.w3.org/1999/xlink" width="19px" height="19px" xmlns="http://www.w3.org/2000/svg">
  <g transform="matrix(1 0 0 1 -969 -372 )">
    <path d="M 18.8642857142857 7.40703125  C 18.834126984127 7.52578125  18.6984126984127 7.61484375  18.5626984126984 7.61484375  L 0.437301587301587 7.61484375  C 0.301587301587302 7.61484375  0.196031746031746 7.540625  0.150793650793651 7.40703125  C 0.105555555555556 7.2734375  0.150793650793651 7.1546875  0.256349206349206 7.08046875  L 9.31904761904762 0.13359375  C 9.42460317460317 0.04453125  9.57539682539683 0.04453125  9.69603174603175 0.13359375  L 18.7587301587302 7.08046875  C 18.8642857142857 7.1546875  18.8944444444444 7.28828125  18.8642857142857 7.40703125  Z M 9.5 0.7421875  L 1.31190476190476 7  L 17.6880952380952 7  L 9.5 0.7421875  Z M 12.7873015873016 5.44765625  C 12.7722222222222 5.50703125  12.7269841269841 5.5515625  12.6515873015873 5.5515625  L 6.3484126984127 5.5515625  C 6.28809523809524 5.5515625  6.22777777777778 5.50703125  6.21269841269841 5.44765625  C 6.19761904761905 5.38828125  6.21269841269841 5.3140625  6.25793650793651 5.284375  L 9.40952380952381 2.86484375  C 9.46984126984127 2.8203125  9.54523809523809 2.8203125  9.59047619047619 2.86484375  L 12.7420634920635 5.284375  C 12.7873015873016 5.32890625  12.8174603174603 5.38828125  12.7873015873016 5.44765625  Z M 9.5 3.1765625  L 6.78571428571429 5.2546875  L 12.2142857142857 5.2546875  L 9.5 3.1765625  Z M 17.4015873015873 18.62890625  C 17.4166666666667 18.7921875  17.2809523809524 18.92578125  17.1150793650794 19  L 1.88492063492063 19  C 1.71904761904762 18.92578125  1.58333333333333 18.7921875  1.58333333333333 18.62890625  L 1.58333333333333 7.31796875  C 1.58333333333333 7.1546875  1.71904761904762 7.02109375  1.88492063492063 7  L 17.1 7  C 17.265873015873 7.02109375  17.4015873015873 7.1546875  17.4015873015873 7.31796875  L 17.4015873015873 18.62890625  Z M 2.18650793650794 7.61484375  L 2.18650793650794 18  L 16.7984126984127 18  L 16.7984126984127 7.61484375  L 2.18650793650794 7.61484375  Z M 7.93174603174603 18.62890625  C 7.93174603174603 18.71796875  7.85634920634921 18.77734375  7.78095238095238 18.77734375  L 4.34285714285714 18.77734375  C 4.25238095238095 18.77734375  4.19206349206349 18.71796875  4.19206349206349 18.62890625  L 4.19206349206349 15.378125  C 4.19206349206349 15.2890625  4.25238095238095 15.2296875  4.34285714285714 15.2296875  L 7.78095238095238 15.2296875  C 7.87142857142857 15.2296875  7.93174603174603 15.2890625  7.93174603174603 15.378125  L 7.93174603174603 18.62890625  Z M 4.49365079365079 15.5265625  L 4.49365079365079 18.48046875  L 7.63015873015873 18.48046875  L 7.63015873015873 15.5265625  L 4.49365079365079 15.5265625  Z M 11.3698412698413 18.62890625  C 11.3698412698413 18.71796875  11.3095238095238 18.77734375  11.2190476190476 18.77734375  L 7.78095238095238 18.77734375  C 7.69047619047619 18.77734375  7.63015873015873 18.71796875  7.63015873015873 18.62890625  L 7.63015873015873 15.378125  C 7.63015873015873 15.2890625  7.69047619047619 15.2296875  7.78095238095238 15.2296875  L 11.2190476190476 15.2296875  C 11.3095238095238 15.2296875  11.3698412698413 15.2890625  11.3698412698413 15.378125  L 11.3698412698413 18.62890625  Z M 7.93174603174603 15.5265625  L 7.93174603174603 18.48046875  L 11.068253968254 18.48046875  L 11.068253968254 15.5265625  L 7.93174603174603 15.5265625  Z M 14.8079365079365 18.62890625  C 14.8079365079365 18.71796875  14.747619047619 18.77734375  14.6571428571429 18.77734375  L 11.2190476190476 18.77734375  C 11.1285714285714 18.77734375  11.068253968254 18.71796875  11.068253968254 18.62890625  L 11.068253968254 15.378125  C 11.068253968254 15.2890625  11.1285714285714 15.2296875  11.2190476190476 15.2296875  L 14.6571428571429 15.2296875  C 14.747619047619 15.2296875  14.8079365079365 15.2890625  14.8079365079365 15.378125  L 14.8079365079365 18.62890625  Z M 11.3698412698413 15.5265625  L 11.3698412698413 18.48046875  L 14.5063492063492 18.48046875  L 14.5063492063492 15.5265625  L 11.3698412698413 15.5265625  Z M 9.65079365079365 15.39296875  C 9.65079365079365 15.4671875  9.59047619047619 15.5265625  9.5 15.5265625  L 6.06190476190476 15.5265625  C 5.97142857142857 15.5265625  5.91111111111111 15.4671875  5.91111111111111 15.378125  L 5.91111111111111 12.1421875  C 5.91111111111111 12.053125  5.97142857142857 11.99375  6.06190476190476 11.99375  L 9.5 11.99375  C 9.59047619047619 11.99375  9.65079365079365 12.053125  9.65079365079365 12.1421875  L 9.65079365079365 15.39296875  Z M 6.21269841269841 12.290625  L 6.21269841269841 15.2296875  L 9.34920634920635 15.2296875  L 9.34920634920635 12.290625  L 6.21269841269841 12.290625  Z M 13.0888888888889 15.39296875  C 13.0888888888889 15.4671875  13.0285714285714 15.5265625  12.9380952380952 15.5265625  L 9.5 15.5265625  C 9.40952380952381 15.5265625  9.34920634920635 15.4671875  9.34920634920635 15.378125  L 9.34920634920635 12.1421875  C 9.34920634920635 12.053125  9.40952380952381 11.99375  9.5 11.99375  L 12.9380952380952 11.99375  C 13.0285714285714 11.99375  13.0888888888889 12.053125  13.0888888888889 12.1421875  L 13.0888888888889 15.39296875  Z M 9.65079365079365 12.290625  L 9.65079365079365 15.2296875  L 12.7873015873016 15.2296875  L 12.7873015873016 12.290625  L 9.65079365079365 12.290625  Z M 11.3698412698413 12.1421875  C 11.3698412698413 12.21640625  11.3095238095238 12.290625  11.2190476190476 12.290625  L 7.78095238095238 12.290625  C 7.69047619047619 12.290625  7.63015873015873 12.23125  7.63015873015873 12.1421875  L 7.63015873015873 8.89140625  C 7.63015873015873 8.80234375  7.69047619047619 8.74296875  7.78095238095238 8.74296875  L 11.2190476190476 8.74296875  C 11.3095238095238 8.74296875  11.3698412698413 8.80234375  11.3698412698413 8.89140625  L 11.3698412698413 12.1421875  Z M 7.93174603174603 9.03984375  L 7.93174603174603 11.99375  L 11.068253968254 11.99375  L 11.068253968254 9.03984375  L 7.93174603174603 9.03984375  Z " fill-rule="nonzero" fill="#434343" stroke="none" transform="matrix(1 0 0 1 969 372 )" />
  </g>
</svg>