<?xml version="1.0" encoding="utf-8"?>
<svg version="1.1" xmlns:xlink="http://www.w3.org/1999/xlink" width="22px" height="13px" xmlns="http://www.w3.org/2000/svg">
  <g transform="matrix(1 0 0 1 -968 -670 )">
    <path d="M 21.896875 8.20405405405405  C 21.9140625 8.39729729729729  21.759375 8.5554054054054  21.5703125 8.55540540540541  L 14.64375 8.55540540540541  C 14.4546875 8.55540540540541  14.3 8.3972972972973  14.3 8.20405405405405  L 14.3 2.19594594594595  C 14.3 2.0027027027027  14.4546875 1.84459459459459  14.64375 1.84459459459459  L 15.8640625 1.84459459459459  C 19.1984375 1.84459459459459  21.896875 4.62027027027027  21.896875 8.01081081081081  L 21.896875 8.20405405405405  Z M 15.0046875 7.8527027027027  L 14.9875 7.8527027027027  L 21.2265625 7.8527027027027  C 21.140625 4.91891891891892  18.76875 2.5472972972973  15.88125 2.5472972972973  L 15.0046875 2.5472972972973  L 15.0046875 7.8527027027027  Z M 20.178125 6.71081081081081  C 20.1265625 6.76351351351351  20.075 6.79864864864865  20.0234375 6.79864864864865  L 16.190625 6.79864864864865  C 16.0875 6.79864864864865  16.01875 6.72837837837838  16.01875 6.62297297297297  L 16.01875 3.53108108108108  C 16.01875 3.47837837837838  16.0359375 3.44324324324324  16.0703125 3.40810810810811  C 16.1046875 3.37297297297297  16.15625 3.35540540540541  16.2078125 3.35540540540541  C 18.046875 3.51351351351351  19.6109375 4.77837837837838  20.1953125 6.5527027027027  C 20.2125 6.6054054054054  20.2125 6.65810810810811  20.178125 6.71081081081081  Z M 16.3625 3.72432432432432  L 16.3625 6.4472972972973  L 19.7828125 6.4472972972973  C 19.215625 4.97162162162162  17.8921875 3.93513513513514  16.3625 3.72432432432432  Z M 21.9140625 11.1378378378378  C 21.9140625 11.3310810810811  21.759375 11.4891891891892  21.5703125 11.4891891891892  L 19.971875 11.4891891891892  C 19.7828125 11.4891891891892  19.628125 11.3310810810811  19.628125 11.1378378378378  C 19.6109375 10.5932432432432  19.1640625 10.1364864864865  18.63125 10.1364864864865  C 18.0984375 10.1364864864865  17.6515625 10.5932432432432  17.634375 11.1378378378378  C 17.634375 11.3310810810811  17.4796875 11.4891891891892  17.290625 11.4891891891892  L 9.384375 11.4891891891892  C 9.1953125 11.4891891891892  9.040625 11.3310810810811  9.040625 11.1378378378378  C 9.0234375 10.5932432432432  8.5765625 10.1364864864865  8.04375 10.1364864864865  C 7.5109375 10.1364864864865  7.0640625 10.5932432432432  7.046875 11.1378378378378  C 7.046875 11.3310810810811  6.8921875 11.4891891891892  6.703125 11.4891891891892  L 5.1046875 11.4891891891892  C 4.915625 11.4891891891892  4.7609375 11.3310810810811  4.7609375 11.1378378378378  C 4.74375 10.5932432432432  4.296875 10.1364864864865  3.7640625 10.1364864864865  C 3.23125 10.1364864864865  2.784375 10.5932432432432  2.7671875 11.1378378378378  C 2.7671875 11.3310810810811  2.6125 11.4891891891892  2.4234375 11.4891891891892  L 0.4296875 11.4891891891892  C 0.240625 11.4891891891892  0.0859375 11.3310810810811  0.0859375 11.1378378378378  L 0.0859375 8.20405405405405  C 0.0859375 8.01081081081081  0.240625 7.8527027027027  0.4296875 7.8527027027027  L 21.5703125 7.8527027027027  C 21.759375 7.8527027027027  21.9140625 8.01081081081081  21.9140625 8.20405405405405  L 21.9140625 11.1378378378378  Z M 18.6828125 9.43378378378378  C 19.490625 9.43378378378378  20.0921875 10.0135135135135  20.2640625 10.7864864864865  L 21.2265625 10.7864864864865  L 21.2265625 8.55540540540541  L 0.7734375 8.55540540540541  L 0.7734375 10.7864864864865  L 2.13125 10.7864864864865  C 2.303125 10.0135135135135  2.9734375 9.43378378378378  3.78125 9.43378378378378  C 4.5890625 9.43378378378378  5.259375 10.0135135135135  5.43125 10.7864864864865  L 6.428125 10.7864864864865  C 6.6 10.0135135135135  7.2703125 9.43378378378378  8.078125 9.43378378378378  C 8.8859375 9.43378378378378  9.55625 10.0135135135135  9.728125 10.7864864864865  L 17.0328125 10.7864864864865  C 17.2046875 10.0135135135135  17.875 9.43378378378378  18.6828125 9.43378378378378  Z M 20.315625 11.1554054054054  C 20.315625 12.1040540540541  19.559375 12.877027027027  18.63125 12.877027027027  C 17.703125 12.877027027027  16.946875 12.1040540540541  16.946875 11.1554054054054  C 16.946875 10.2067567567568  17.703125 9.43378378378378  18.63125 9.43378378378378  C 19.559375 9.43378378378378  20.315625 10.2067567567568  20.315625 11.1554054054054  Z M 19.628125 11.1554054054054  C 19.628125 10.5932432432432  19.18125 10.1364864864865  18.63125 10.1364864864865  C 18.08125 10.1364864864865  17.634375 10.5932432432432  17.634375 11.1554054054054  C 17.634375 11.7175675675676  18.08125 12.1743243243243  18.63125 12.1743243243243  C 19.18125 12.1743243243243  19.628125 11.7175675675676  19.628125 11.1554054054054  Z M 5.4484375 11.1554054054054  C 5.4484375 12.1040540540541  4.6921875 12.877027027027  3.7640625 12.877027027027  C 2.8359375 12.877027027027  2.0796875 12.1040540540541  2.0796875 11.1554054054054  C 2.0796875 10.2067567567568  2.8359375 9.43378378378378  3.7640625 9.43378378378378  C 4.6921875 9.43378378378378  5.4484375 10.2067567567568  5.4484375 11.1554054054054  Z M 4.7609375 11.1554054054054  C 4.7609375 10.5932432432432  4.3140625 10.1364864864865  3.7640625 10.1364864864865  C 3.2140625 10.1364864864865  2.7671875 10.5932432432432  2.7671875 11.1554054054054  C 2.7671875 11.7175675675676  3.2140625 12.1743243243243  3.7640625 12.1743243243243  C 4.3140625 12.1743243243243  4.7609375 11.7175675675676  4.7609375 11.1554054054054  Z M 9.728125 11.1554054054054  C 9.728125 12.1040540540541  8.971875 12.877027027027  8.04375 12.877027027027  C 7.115625 12.877027027027  6.359375 12.1040540540541  6.359375 11.1554054054054  C 6.359375 10.2067567567568  7.115625 9.43378378378378  8.04375 9.43378378378378  C 8.971875 9.43378378378378  9.728125 10.2067567567568  9.728125 11.1554054054054  Z M 9.040625 11.1554054054054  C 9.040625 10.5932432432432  8.59375 10.1364864864865  8.04375 10.1364864864865  C 7.49375 10.1364864864865  7.046875 10.5932432432432  7.046875 11.1554054054054  C 7.046875 11.7175675675676  7.49375 12.1743243243243  8.04375 12.1743243243243  C 8.59375 12.1743243243243  9.040625 11.7175675675676  9.040625 11.1554054054054  Z M 13.3203125 8.22162162162162  C 13.3203125 8.3972972972973  13.165625 8.55540540540541  12.9765625 8.55540540540541  L 0.4296875 8.55540540540541  C 0.240625 8.55540540540541  0.0859375 8.3972972972973  0.0859375 8.20405405405405  L 0.0859375 0.474324324324325  C 0.0859375 0.281081081081081  0.240625 0.122972972972973  0.4296875 0.122972972972973  L 12.9765625 0.122972972972973  C 13.165625 0.122972972972973  13.3203125 0.281081081081081  13.3203125 0.474324324324325  L 13.3203125 8.22162162162162  Z M 0.7734375 1  L 0.7734375 7.8527027027027  L 12.6328125 7.8527027027027  L 12.6328125 1  L 0.7734375 1  Z M 6.875 8.22162162162162  C 6.875 8.30945945945946  6.80625 8.37972972972973  6.703125 8.37972972972973  C 6.6 8.37972972972973  6.53125 8.30945945945946  6.53125 8.20405405405405  L 6.53125 0.474324324324325  C 6.53125 0.368918918918919  6.6 0.298648648648649  6.703125 0.298648648648649  C 6.80625 0.298648648648649  6.875 0.368918918918919  6.875 0.474324324324325  L 6.875 8.22162162162162  Z M 3.746875 8.01081081081081  C 3.746875 8.09864864864865  3.6609375 8.16891891891892  3.575 8.16891891891892  C 3.471875 8.16891891891892  3.403125 8.09864864864865  3.403125 7.99324324324324  L 3.403125 0.474324324324324  C 3.403125 0.368918918918919  3.471875 0.298648648648649  3.575 0.298648648648649  C 3.678125 0.298648648648649  3.746875 0.368918918918919  3.746875 0.474324324324324  L 3.746875 8.01081081081081  Z M 10.0203125 8.22162162162162  C 10.0203125 8.30945945945946  9.934375 8.37972972972973  9.8484375 8.37972972972973  C 9.7453125 8.37972972972973  9.6765625 8.30945945945946  9.6765625 8.20405405405405  L 9.6765625 0.474324324324325  C 9.6765625 0.368918918918919  9.7453125 0.298648648648649  9.8484375 0.298648648648649  C 9.9515625 0.298648648648649  10.0203125 0.368918918918919  10.0203125 0.474324324324325  L 10.0203125 8.22162162162162  Z " fill-rule="nonzero" fill="#434343" stroke="none" transform="matrix(1 0 0 1 968 670 )" />
  </g>
</svg>