<?xml version="1.0" encoding="utf-8"?>
<svg version="1.1" xmlns:xlink="http://www.w3.org/1999/xlink" width="23px" height="20px" xmlns="http://www.w3.org/2000/svg">
  <g transform="matrix(1 0 0 1 -967 -707 )">
    <path d="M 12.3732480303266 14.3206924164279  C 12.3732480303266 13.9313762190385  12.0471765468855 13.616034832219  11.6454099292923 13.6160348525947  L 7.76360660562848 13.6160348525947  C 7.36183996718568 13.6160348525947  7.03576848374462 13.9313762394142  7.03576848374462 14.3206924164279  C 7.03576848374462 14.7095344106972  7.36183996718568 15.0258241833811  7.76360660562848 15.0258242037568  L 11.6454099292923 15.0258242037568  C 12.0471765677351 15.0258242037568  12.3732480511761 14.7100086341929  12.3732480303266 14.3206924164279  Z M 12.3732480303266 7.68192655078001  C 12.3732480303266 7.29213615027062  12.0471765468855 6.97726896657116  11.6454099292923 6.97726896657116  L 7.76360660562848 6.97726896657116  C 7.36183996718568 6.97726896657116  7.03576848374462 7.29261035339064  7.03576848374462 7.68192655078001  C 7.03576848374462 8.07076854504935  7.36183996718568 8.38658413498886  7.76360660562848 8.38658411461318  L 11.6454099292923 8.38658411461318  C 12.0471765677351 8.38658411461318  12.3732480511761 8.07076854504935  12.3732480303266 7.68192655078001  Z M 21.8351246309583 8.88237495332783  C 21.8351246309583 8.67635108642733  21.7423062066532 8.48077699122667  21.5813707103796 8.34769992741166  L 12.0229152838009 0.414374683221904  C 11.3865831710027 -0.117695670015247  10.4485604229646 -0.117695670015247  9.81222831016637 0.414374683221904  L 0.253772883587659 8.34769992741165  C 0.0928373945118998 8.4807769912077  1.89750365017973E-05 8.67635108186402  1.89750365017973E-05 8.88237494338231  C 1.89750365017973E-05 9.05091117055851  0.0622045809519108 9.21379579501232  0.175166383687612 9.34114380897804  C 0.438477772265187 9.63680140212809  0.896094173044912 9.67061736528265  1.20190333933053 9.41701543202802  L 4 7.19350306271888  L 4 17.3399083094556  C 3.88180330281424 18.2465740592168  4.64360720552631 18.9839512511939  5.58009226082643 18.9839512511939  L 13.8289242740943 18.9839512511939  C 14.7654093293944 18.9839512511939  15.527213211257 18.2460998357211  15.5272132321065 17.3394341063356  L 15.5272132321065 12.406831057625  C 15.5272132321065 12.0170406571156  15.2011417486654 11.7016992906718  14.7993751102226 11.7016992906718  C 14.3976084717798 11.7016992906718  14.0715369883388 12.0175148602356  14.0715369883388 12.4063568545049  L 14.0715369883388 17.3399083094556  C 14.0710036241965 17.4699600511492  13.9629739467596 17.5751122183572  13.82989667711 17.5751122183572  L 5.58009226082643 17.5751103062719  C 5.44682498942543 17.5756357195374  5.3382812814605 17.4706196853631  5.33747954658196 17.3403825125756  L 5.33747954658196 6.06396445463228  C 5.33747954658196 6.0388319745304  5.33262729813494 6.01607051002865  5.32971593238711 5.99188643616683  L 10.7598735348097 1.48511279719834  C 10.8506650383051 1.4092203880278  10.9844785556622 1.4092203880278  11.0752700591576 1.48511279719834  L 16.5054276615802 5.99093802992677  C 16.5025163166818 6.01559630690863  16.4976640473853 6.03835779178605  16.4976640473853 6.06396445463228  L 16.4976640473853 18.2792936873607  C 16.4976640473853 18.6681356816301  16.8237355308264 18.9834770684495  17.2255021692692 18.9834770684495  C 17.627268807712 18.9834770684495  17.953340291153 18.6681356816301  18 18.2788194842407  L 18 7.19397724546323  L 20.6332402546367 9.41796381789239  C 20.7710442814983 9.53177124227953  20.9389322612411 9.58772653804521  21.1068202618334 9.58772655842088  C 21.3191863325448 9.58833380211748  21.5212317181805 9.49826731201123  21.6599772311292 9.34114380897803  C 21.7729390283796 9.21379579636087  21.8351246309583 9.05091117597373  21.8351246309583 8.88237495332783  Z M 11.6454099292923 10.2966519095829  L 7.76360660562848 10.2966519095829  C 7.36183996718568 10.2966519095829  7.03576848374462 10.6124674791468  7.03576848374462 11.0017836765361  C 7.03576848374462 11.3906256708055  7.36183996718568 11.706441260745  7.76360660562848 11.706441260745  L 11.6454099292923 11.706441260745  C 12.0471765677351 11.706441260745  12.3732480511761 11.3906256911811  12.3732480303266 11.0017836765361  C 12.3732480303266 10.6119932760267  12.0471765468855 10.2971260923273  11.6454099292923 10.297126112703  Z " fill-rule="nonzero" fill="#434343" stroke="none" transform="matrix(1 0 0 1 967 707 )" />
  </g>
</svg>