<?xml version="1.0" encoding="utf-8"?>
<svg version="1.1" xmlns:xlink="http://www.w3.org/1999/xlink" width="26px" height="16px" xmlns="http://www.w3.org/2000/svg">
  <g transform="matrix(1 0 0 1 -844 -968 )">
    <path d="M 26 7.9948717948718  C 26 3.5948717948718  22.379296875 0.0076923076923109  17.9283203125 0.00769230769230798  L 8.0716796875 0.00769230769230798  C 8.0310546875 0.00769230769230798  7.99296875 0.0102564102564104  7.9548828125 0.0102564102564104  C 7.916796875 0.0102564102564104  7.876171875 0.00769230769230798  7.8380859375 0.00769230769230798  C 7.1703125 0.00769230769230798  6.5025390625 0.0897435897435897  5.86015625 0.253846153846154  L 5.844921875 0.258974358974359  C 5.530078125 0.348717948717949  5.215234375 0.458974358974359  4.9130859375 0.587179487179487  C 3.955859375 0.992307692307693  3.0951171875 1.57179487179487  2.3587890625 2.31025641025641  C 1.619921875 3.04871794871795  1.041015625 3.90769230769231  0.634765625 4.86666666666667  C 0.21328125 5.85641025641026  0 6.91025641025641  0 7.9974358974359  L 0 8.0025641025641  C 0 8.02820512820513  0.00253906250000009 8.05128205128205  0.00253906250000009 8.07692307692308  C 0.00253906250000009 8.18974358974359  0.00507812500000009 8.3  0.0101562500000001 8.41282051282051  L 0.0101562500000001 8.42820512820513  C 0.0609375000000001 9.35897435897436  0.269140625 10.2666666666667  0.6322265625 11.1282051282051  C 1.0384765625 12.0846153846154  1.6173828125 12.9461538461538  2.35625 13.6846153846154  C 3.0951171875 14.4230769230769  3.9533203125 15.0025641025641  4.910546875 15.4051282051282  C 5.2888671875 15.5641025641026  5.682421875 15.6974358974359  6.0810546875 15.7948717948718  L 6.0962890625 15.7974358974359  C 6.6650390625 15.9230769230769  7.2515625 15.9871794871795  7.835546875 15.9871794871795  C 7.8736328125 15.9871794871795  7.9142578125 15.9846153846154  7.95234375 15.9846153846154  C 7.99296875 15.9846153846154  8.0310546875 15.9871794871795  8.069140625 15.9871794871795  L 17.9283203125 15.9871794871795  C 22.379296875 15.9871794871795  26 12.4025641025641  26 7.9948717948718  Z M 14.69609375 8  C 14.69609375 11.7384615384615  11.6822265625 14.7846153846154  7.95234375 14.8461538461538  C 4.3037109375 14.7871794871795  1.33046875 11.9333333333333  1.1400390625 8.36410256410256  L 1.1400390625 8.35128205128205  C 1.1349609375 8.25641025641026  1.1349609375 8.16410256410257  1.132421875 8.06923076923077  C 1.132421875 8.04615384615385  1.1298828125 8.02307692307692  1.1298828125 8  C 1.1298828125 4.26410256410256  4.179296875 1.21794871794872  7.95234375 1.15384615384615  C 11.6822265625 1.21538461538462  14.69609375 4.26153846153846  14.69609375 8  Z M 24.867578125 8  C 24.8701171875 11.7769230769231  21.7572265625 14.8487179487179  17.9283203125 14.8487179487179  L 11.9462890625 14.8487179487179  C 14.26953125 13.4512820512821  15.8259765625 10.9025641025641  15.8259765625 8  C 15.8259765625 5.0974358974359  14.26953125 2.54871794871795  11.9462890625 1.15128205128205  L 17.9283203125 1.15128205128205  C 21.7546875 1.15128205128205  24.867578125 4.22307692307692  24.867578125 8  Z " fill-rule="nonzero" fill="#c8c8c8" stroke="none" transform="matrix(1 0 0 1 844 968 )" />
  </g>
</svg>