<?xml version="1.0" encoding="utf-8"?>
<svg version="1.1" xmlns:xlink="http://www.w3.org/1999/xlink" width="14px" height="14px" xmlns="http://www.w3.org/2000/svg">
  <g transform="matrix(1 0 0 1 -855 -1080 )">
    <path d="M 862 1080  C 865.92 1080  869 1083.08  869 1087  C 869 1090.92  865.92 1094  862 1094  C 858.08 1094  855 1090.92  855 1087  C 855 1083.08  858.08 1080  862 1080  Z " fill-rule="nonzero" fill="#ffffff" stroke="none" />
    <path d="M 862 1080.5  C 865.64 1080.5  868.5 1083.36  868.5 1087  C 868.5 1090.64  865.64 1093.5  862 1093.5  C 858.36 1093.5  855.5 1090.64  855.5 1087  C 855.5 1083.36  858.36 1080.5  862 1080.5  Z " stroke-width="1" stroke="#ffffff" fill="none" />
  </g>
</svg>