<?xml version="1.0" encoding="utf-8"?>
<svg version="1.1" xmlns:xlink="http://www.w3.org/1999/xlink" width="15px" height="9px" xmlns="http://www.w3.org/2000/svg">
  <g transform="matrix(1 0 0 1 -146 -497 )">
    <path d="M 14.7234782608696 5.85348837645349  C 14.9708206476683 5.60237162726398  15.0180725752053 5.26008558334031  14.8452173967391 4.97162790261628  C 14.6706356646245 4.68305190214408  14.3058924871541 4.49987919959637  13.9060869619565 4.5  L 12.2052173967391 4.5  L 12.2052173967391 2.26744185610465  C 12.2052173967391 2.11331587820358  12.0494903519854 1.98837208648256  11.8573913070652 1.98837208648256  C 11.665292262145 1.98837208648256  11.5095652173913 2.11331587820358  11.5095652173913 2.26744185610465  L 11.5095652173913 4.5  L 10.8139130380435 4.5  L 10.8139130380435 1.43023255377907  C 10.8139130380435 1.27610657949032  10.6581859969396 1.15116279069767  10.4660869565217 1.15116279069767  C 10.2739879161039 1.15116279069767  10.118260875 1.27610657949032  10.118260875 1.43023255377907  L 10.118260875 4.5  L 9.56869565217391 4.5  L 7.78782608152174 3.07116278633721  C 7.5914722576854 2.9134255826684  7.32481604519874 2.82503512009224  7.04695651630435 2.82558139534884  L 5.41217391847826 2.82558139534884  L 3.98608695652174 1.45255813953488  C 3.78823293242885 1.26197239769251  3.49523411781381 1.15158679851768  3.18608695108696 1.15116279069767  L 2.81391304891305 1.15116279069767  L 2.81391304891305 0.313953488372093  C 2.81391304891305 0.159827510471018  2.65818600415931 0.0348837187499995  2.46608695923913 0.0348837187499995  C 2.27398791431895 0.0348837187499995  2.11826086956522 0.159827510471018  2.11826086956522 0.313953488372093  L 2.11826086956522 1.15116279069767  C 1.541963739307 1.15116279069767  1.07478260869565 1.52599416293236  1.07478260869565 1.98837209302326  L 1.07478260869565 4.5  C 0.739803833238859 4.51930893768799  0.436883049028256 4.66679541209849  0.260869565217391 4.89627906540698  C 0.0624889316229689 5.14979354541609  0.0479011248276411 5.46899815193846  0.222608690217391 5.73348836773256  C 0.222608690217391 5.73348836773256  1.14782608695652 7.06186046511628  1.77391304347826 7.94930232558139  C 1.83739556488404 8.51467908363037  2.41962515605426 8.95179507246047  3.12695652717391 8.9651162747093  C 3.51168917801468 8.9656349931951  3.8785045609126 8.83471984650874  4.13565216847826 8.6051162747093  C 4.39234160906753 8.8354747300903  4.75921980231141 8.96715312558593  5.14434782608696 8.96715312558593  C 5.52947584986251 8.96715312558593  5.89635404310638 8.8354747300903  6.15304348369565 8.6051162747093  C 6.41031093487988 8.83466718657284  6.77697463516895 8.96576344565739  7.16173913315217 8.96576344565739  C 7.5465036311354 8.96576344565739  7.91316733142447 8.83466718657284  8.17043478260869 8.6051162747093  C 8.42712422295218 8.83547472567879  8.79400241255256 8.96715311827  9.17913043206522 8.96715311827  C 9.56425845157788 8.96715311827  9.93113664117825 8.83547472567879  10.1878260815217 8.6051162747093  C 10.4439234173127 8.83615667760652  10.8109094823047 8.96833616924351  11.1962778327814 8.96833616924351  C 11.9053827851678 8.96833616924351  12.4935448412629 8.52803465814915  12.5426086956522 7.96046511191861  C 13.238260875 7.28790697674419  14.7200000054348 5.8590697630814  14.7234782608696 5.85348837645349  Z M 1.77043478804348 2.82558139534884  L 1.77043478804348 1.98837209302326  C 1.77043478804348 1.83424611873451  1.92616182914736 1.70930232994186  2.11826086956522 1.70930232994186  L 3.18260869565217 1.70930232994186  C 3.28606338876967 1.70916752936951  3.38422383414409 1.74598881317534  3.45043478804348 1.80976744622093  L 4.49391304891304 2.82558139534884  L 1.77043478804348 2.82558139534884  Z M 1.77043478804348 3.38372093459302  L 5.99304347282609 3.38372093459302  L 7.03652173369565 3.38372093459302  C 7.1289749461846 3.38329206771295  7.21783692564366 3.4124130630984  7.28347826086957 3.46465115843023  L 8.58434783152174 4.5  L 1.77043478804348 4.5  L 1.77043478804348 3.38372093459302  Z M 14.2191304402174 5.2144186002907  C 14.2735157430659 5.31025898749899  14.2560288261719 5.42250056831494  14.1739130380435 5.5046511627907  C 14.1739130380435 5.5046511627907  12.5982608641304 7.03116278633721  11.9269565217391 7.6702325625  C 11.8694197638754 7.72552119754889  11.840754682373 7.79651726355449  11.8469565163043 7.86837208866279  C 11.8469565163043 8.16121144197881  11.5510751360171 8.39860464244186  11.1860869565217 8.39860464244186  C 10.8210987770264 8.39860464244186  10.5252173967391 8.16121144197881  10.5252173967391 7.86837208866279  C 10.5252173967391 7.71424611076172  10.3694903519854 7.5893023190407  10.1773913070652 7.5893023190407  C 9.98529226214504 7.5893023190407  9.8295652173913 7.71424611076172  9.8295652173913 7.86837208866279  C 9.82956521739131 8.16121144559114  9.53368383345417 8.39860464898256  9.16869564945652 8.39860464898256  C 8.80370746545888 8.39860464898256  8.50782608152174 8.16121144559114  8.50782608152174 7.86837208866279  C 8.50782608152174 7.7142461310079  8.35209904041786 7.58930234221525  8.16 7.58930234221525  C 7.96790096767851 7.58930234221525  7.81217392992826 7.71424612086997  7.81217391847826 7.86837208866279  C 7.81217391847826 8.16121144559114  7.51629253454113 8.39860464898256  7.15130435054348 8.39860464898256  C 6.78631616654583 8.39860464898256  6.4904347826087 8.16121144559114  6.4904347826087 7.86837208866279  C 6.4904347826087 7.71424611076172  6.33470773785496 7.5893023190407  6.14260869293478 7.5893023190407  C 5.9505096480146 7.5893023190407  5.79478260326087 7.71424611076172  5.79478260326087 7.86837208866279  C 5.79478260326087 8.16121144197881  5.49890122297359 8.39860464244186  5.13391304347826 8.39860464244186  C 4.76892486398294 8.39860464244186  4.47304348369565 8.16121144197881  4.47304348369565 7.86837208866279  C 4.47304348369565 7.71424611076172  4.31731643894192 7.5893023190407  4.12521739402174 7.5893023190407  C 3.93311834910156 7.5893023190407  3.77739130434783 7.71424611076172  3.77739130434783 7.86837208866279  C 3.77739130434783 8.1612114550602  3.48150992406054 8.39860465552325  3.11652174456522 8.39860465552325  C 2.74597089069864 8.38372115361173  2.45518812431787 8.13813962720999  2.45565216847826 7.84046511627907  L 2.45565216847826 7.82372093023256  C 2.44920583429739 7.7874122371751  2.43753368336606 7.75182574207941  2.42086956521739 7.71767441424419  L 2.42086956521739 7.70372093459302  C 1.79826086413044 6.82186047383721  0.845217391304349 5.45441860465116  0.845217391304349 5.45441860465116  C 0.824024530079458 5.41768075865754  0.813047320887323 5.37768341244687  0.813047320887323 5.33720143027016  C 0.813047320887323 5.18389340715997  0.967186694539732 5.05929104071828  1.15826086956522 5  L 13.9060869619565 5  C 14.0390939528113 5.05792597335302  14.1606075104063 5.11858855220905  14.2191304402174 5.2144186002907  Z " fill-rule="nonzero" fill="#313131" stroke="none" transform="matrix(1 0 0 1 146 497 )" />
  </g>
</svg>