<?xml version="1.0" encoding="utf-8"?>
<svg version="1.1" xmlns:xlink="http://www.w3.org/1999/xlink" width="18px" height="17px" xmlns="http://www.w3.org/2000/svg">
  <g transform="matrix(1 0 0 1 -442 -392 )">
    <path d="M 14.37486775453 16.4636612091482  C 14.1015160676744 16.6827107090527  13.7608927820603 16.8006666879021  13.4097441185304 16.7985548193922  C 13.1679361297427 16.7985548193922  12.8945844428872 16.7290581002739  12.6422510761838 16.6026708925272  L 9.03824166583241 14.7976406319679  L 5.41108939833817 16.5984634006498  C 5.18189888877765 16.7206268713767  4.9190563619982 16.78593234376  4.64992131344479 16.78593234376  C 4.30086475122635 16.7880279671275  3.96233356692361 16.6763913486654  3.68268935829412 16.4678849461681  C 3.17593052357593 16.0866439447028  2.91519631594754 15.4252879531121  3.03504615076584 14.8250136968848  L 3.77730423465812 10.9706099891699  L 0.932370807888678 8.31465917054214  C 0.492899789768746 7.86812894183602  0.324688357192912 7.22152353952985  0.49079147061768 6.61913741479264  L 0.497116428070878 6.60017933363063  C 0.703164080488538 5.97883512773141  1.21621543698068 5.54495986494235  1.83862368605466 5.46071255653947  L 5.78958133947342 4.74037045295279  L 7.56212633897287 1.13240555520163  C 7.84601962158374 0.561616232401096  8.42637501251376 0.195125820220425  9.03824166583241 0.195125820220425  C 9.67745159675643 0.195125820220425  10.272516568225 0.576350576543289  10.5206332966263 1.1429324074664  L 12.2869019921914 4.74037045295279  L 16.2378596456102 5.43332324648022  C 16.8644683151467 5.52388991527043  17.3796279907899 5.97462763585399  17.5541481629793 6.58542874434606  C 17.7497028731605 7.18570300057336  17.5898922815097 7.84285150028668  17.1420204224647 8.2872698604829  L 17.1315112623886 8.29779671274766  L 14.2970707778556 10.9727218576798  L 15.0140939032936 14.833444925782  C 15.1297270998098 15.4505653946614  14.8837186905596 16.0740052239281  14.37486775453 16.4636612091482  Z M 9.03822544799279 13.7445167866471  L 13.0606875563119 15.7601815633561  C 13.1784290719792 15.8191514302096  13.3151130243268 15.8570675925336  13.4076357993793 15.8570675925336  C 13.5506122735009 15.8570675925336  13.6851879066974 15.8128320698223  13.7819111022124 15.7306966299293  L 13.8008373210532 15.7159460406447  C 14.0300278306137 15.5432439319615  14.141476824507 15.2715439255909  14.0910069075984 15.0040514110977  L 13.2814772249474 10.6357326240683  L 16.4838680548603 7.61538701662738  C 16.6794227650415 7.41529559788495  16.7467105816398 7.13095687073963  16.6604965462008 6.86767184812385  L 16.6520957052758 6.8402825380646  C 16.5805912503754 6.58542874434606  16.3661265391931 6.39797604637829  16.1053923315647 6.36218799770657  L 16.086466112724 6.36007612919666  L 11.6560766843528 5.58497165063388  L 9.66274201621784 1.52836465566669  C 9.56601882070277 1.30090017200739  9.30319251176294 1.13661304707906  9.03824166583242 1.13661304707906  C 8.77750745820403 1.13661304707906  8.52939072980279 1.30090017200739  8.40112383621984 1.55154647384851  L 6.42039042947242 5.58285978212397  L 1.9668905796376 6.39376855450086  C 1.6956309940935 6.42746097980506  1.48536670337371 6.60861056252787  1.38864350785864 6.88872555265337  C 1.31924737210932 7.14569121488182  1.40126098708579 7.45319551506657  1.59050695765342 7.64698381856406  L 4.79498988887776 10.6399401159457  L 3.9539327259986 15.010370771485  C 3.90346280909 15.2631126966936  4.0233126439083 15.5537707842263  4.2441023125438 15.7201697776645  C 4.35553508859746 15.8044170860674  4.49852778055861 15.8486526087787  4.64992131344479 15.8486526087787  C 4.76555450996096 15.8486526087787  4.87700350385424 15.8212632987195  4.97372669936931 15.7707084156208  L 4.98845249774752 15.762293431866  L 9.03824166583241 13.7445167866471  Z " fill-rule="nonzero" fill="#d0d0d0" stroke="none" transform="matrix(1 0 0 1 442 392 )" />
  </g>
</svg>