<?xml version="1.0" encoding="utf-8"?>
<svg version="1.1" xmlns:xlink="http://www.w3.org/1999/xlink" width="18px" height="20px" xmlns="http://www.w3.org/2000/svg">
  <g transform="matrix(1 0 0 1 -198 -338 )">
    <path d="M 18 9.39584  C 18 14.50176  13.9810909090909 18.65792  9 18.65792  C 4.01890909090909 18.65792  0 14.50176  0 9.39584  C 0 4.28992  4.01890909090909 0.13376  9 0.13376  C 13.9810909090909 0.13376  18 4.28992  18 9.39584  Z M 1.63636363636364 9.39584  C 1.63636363636364 13.63648  4.94312727272727 17.05792  9 17.05792  C 13.0568727272727 17.05792  16.3636363636364 13.63648  16.3636363636364 9.39584  C 16.3636363636364 5.15392  13.0568727272727 1.73376  9 1.73376  C 4.94312727272727 1.73376  1.63636363636364 5.15392  1.63636363636364 9.39584  Z M 14.2494545454545 17.19744  L 14.2494545454545 17.19872  C 14.109156737919 17.0507908935371  14.0312002878927 16.8564940616806  14.0312002878927 16.6547481956251  C 14.0312002878927 16.2129203957605  14.3975127653039 15.8547481956251  14.8493821060745 15.8547481956251  C 15.0714181538744 15.8547481956251  15.2839194337604 15.9429831884795  15.4381090909091 16.0992  L 17.7761454545455 18.51712  C 17.916443262081 18.6650491064629  17.9943997121073 18.8593459383194  17.9943997121073 19.0610918043749  C 17.9943997121073 19.5029196042395  17.6280872346962 19.8610918043749  17.1762178939255 19.8610918043749  C 16.9541818461256 19.8610918043749  16.7416805662396 19.7728568115205  16.5874909090909 19.61664  L 14.2494545454545 17.19744  Z " fill-rule="nonzero" fill="#e1e1e1" stroke="none" transform="matrix(1 0 0 1 198 338 )" />
  </g>
</svg>