<?xml version="1.0" encoding="utf-8"?>
<svg version="1.1" xmlns:xlink="http://www.w3.org/1999/xlink" width="15px" height="13px" xmlns="http://www.w3.org/2000/svg">
  <g transform="matrix(1 0 0 1 -455 -342 )">
    <path d="M 13.7920150862069 12.86675  L 12.1891487068966 11.8236547619048  C 11.6327586206897 12.3228702380952  10.8846497844828 12.6285714285714  10.0619612068966 12.6285714285714  C 8.34350754310345 12.6285714285714  6.95043103448276 11.294755952381  6.95043103448276 9.64940476190476  C 6.95043103448276 8.00405357142857  8.34350754310345 6.67023809523809  10.0619612068966 6.67023809523809  C 11.7804148706897 6.67023809523809  13.1734913793103 8.00405357142857  13.1734913793103 9.64940476190476  C 13.1734913793103 10.0156178571429  13.1044719827586 10.3663857142857  12.9782327586207 10.6904571428571  L 14.5916056034483 11.7403928571429  C 14.9164655172414 11.9517976190476  15.0008081896552 12.375319047619  14.7800107758621 12.6863595238095  C 14.559213362069 12.9974  14.116875 13.0781547619048  13.7920150862069 12.86675  Z M 14.1918103448276 1.40833333333333  L 0.711206896551724 1.40833333333333  C 0.318426724137931 1.40833333333333  0 1.10345238095238  0 0.727380952380952  C 0 0.351309523809524  0.318426724137931 0.0464285714285714  0.711206896551724 0  L 14.1918103448276 0  C 14.5845905172414 0.0464285714285714  14.9030172413793 0.351309523809524  14.9030172413793 0.727380952380952  C 14.9030172413793 1.10345238095238  14.5845905172414 1.40833333333333  14.1918103448276 1.40833333333333  Z M 4.76831896551724 9.12321428571429  L 0.711206896551724 9.12321428571429  C 0.318426724137931 9.12321428571429  0 8.81833333333333  0 8.4422619047619  C 0 8.06619047619048  0.318426724137931 7.76130952380952  0.711206896551724 7.76130952380952  L 4.76831896551724 7.76130952380952  C 5.16109913793103 7.76130952380952  5.47952586206897 8.06619047619048  5.47952586206897 8.4422619047619  C 5.47952586206897 8.81833333333333  5.16109913793103 9.12321428571429  4.76831896551724 9.12321428571429  Z M 14.1918103448276 5.26964285714286  L 0.711206896551724 5.26964285714286  C 0.318426724137931 5.26964285714286  0 4.9647619047619  0 4.58869047619048  C 0 4.21261904761905  0.318426724137931 3.90773809523809  0.711206896551724 4  L 14.1918103448276 4  C 14.5845905172414 3.90773809523809  14.9030172413793 4.21261904761905  14.9030172413793 4.58869047619048  C 14.9030172413793 4.9647619047619  14.5845905172414 5.26964285714286  14.1918103448276 5.26964285714286  Z M 4.76831896551724 12.9922619047619  L 0.711206896551724 12.9922619047619  C 0.318426724137931 12.9922619047619  0 12.687380952381  0 12.3113095238095  C 0 11.9352380952381  0.318426724137931 11.6303571428571  0.711206896551724 11.6303571428571  L 4.76831896551724 11.6303571428571  C 5.16109913793103 11.6303571428571  5.47952586206897 11.9352380952381  5.47952586206897 12.3113095238095  C 5.47952586206897 12.687380952381  5.16109913793103 12.9922619047619  4.76831896551724 12.9922619047619  Z M 8.37284482758621 9.64940476190476  C 8.37284482758621 10.5425976190476  9.12908405172414 11.2666666666667  10.0619612068966 11.2666666666667  C 10.994838362069 11.2666666666667  11.7510775862069 10.5425976190476  11.7510775862069 9.64940476190476  C 11.7510775862069 8.7562119047619  10.994838362069 8.03214285714286  10.0619612068966 8.03214285714286  C 9.12908405172414 8.03214285714286  8.37284482758621 8.7562119047619  8.37284482758621 9.64940476190476  Z " fill-rule="nonzero" fill="#d2d2d2" stroke="none" transform="matrix(1 0 0 1 455 342 )" />
  </g>
</svg>