<?xml version="1.0" encoding="utf-8"?>
<svg version="1.1" xmlns:xlink="http://www.w3.org/1999/xlink" width="14px" height="18px" xmlns="http://www.w3.org/2000/svg">
  <g transform="matrix(1 0 0 1 -161 -338 )">
    <path d="M 13.5333333333333 17.244  C 13.5333333333333 17.496  13.328 17.694  13.0666666666667 17.694  L 0.793333333333333 17.694  C 0.532 17.694  0.326666666666667 17.496  0.326666666666667 17.244  L 0.326666666666667 3.042  C 0.326666666666667 2.79  0.532 2.592  0.793333333333333 2.592  L 4.04133333333333 2.592  C 4.26533333333333 1.251  5.47866666666667 0.225  6.93466666666667 0.225  C 8.39066666666667 0.225  9.59466666666667 1.251  9.81866666666667 2.592  L 13.0666666666667 2.592  C 13.328 2.592  13.5333333333333 2.79  13.5333333333333 3.042  L 13.5333333333333 17.244  Z M 1.26 3.492  L 1.26 16.794  L 12.6 16.794  L 12.6 3.492  L 9.38933333333334 3.492  C 9.128 3.492  8.92266666666667 3.294  8.92266666666667 3.042  C 8.92266666666667 1.989  8.02666666666667 1.125  6.93466666666667 1.125  C 5.83333333333333 1.125  4.93733333333334 1.989  4.93733333333334 3.042  C 4.93733333333334 3.294  4.732 3.492  4.47066666666667 3.492  L 1.26 3.492  Z " fill-rule="nonzero" fill="#999999" stroke="none" transform="matrix(1 0 0 1 161 338 )" />
  </g>
</svg>