<?xml version="1.0" encoding="utf-8"?>
<svg version="1.1" xmlns:xlink="http://www.w3.org/1999/xlink" width="12px" height="16px" preserveAspectRatio="xMidYMin meet" viewBox="714 204  10 16" xmlns="http://www.w3.org/2000/svg">
  <path d="M 719 220  L 719 215  A 5 5 0 0 0 714 210 L 115 210  A 5 5 0 0 0 110 215 L 110 343  A 5 5 0 0 0 115 348 L 118 348  " stroke-width="4" stroke="#f3c63b" fill="none" />
  <path d="M 117.5 343.5  A 4.5 4.5 0 0 0 113 348 A 4.5 4.5 0 0 0 117.5 352.5 A 4.5 4.5 0 0 0 122 348 A 4.5 4.5 0 0 0 117.5 343.5 Z " fill-rule="nonzero" fill="#f3c63b" stroke="none" />
</svg>