<?xml version="1.0" encoding="utf-8"?>
<svg version="1.1" xmlns:xlink="http://www.w3.org/1999/xlink" width="28px" height="28px" xmlns="http://www.w3.org/2000/svg">
  <g transform="matrix(1 0 0 1 -1003 -1631 )">
    <path d="M 28 6.5625  C 28 5.40859375  27.365625 4.32578125  26.25 3.382421875  C 23.862890625 1.364453125  19.271875 0  14 0  C 8.728125 0  4.137109375 1.364453125  1.75 3.382421875  C 0.634375 4.32578125  0 5.40859375  0 6.5625  L 0 16.567578125  C 0 16.58671875  0 16.605859375  0.002734375 16.622265625  L 0 16.622265625  L 0 21.434765625  C 0 25.0578125  6.2671875 27.997265625  14 27.997265625  C 21.7328125 27.997265625  28 25.0578125  28 21.434765625  L 28 16.625  L 27.997265625 16.625  C 28 16.57578125  28 16.529296875  28 16.480078125  L 28 6.5625  Z M 1.75 11.90546875  L 1.75 9.742578125  C 4.137109375 11.760546875  8.728125 13.125  14 13.125  C 19.271875 13.125  23.862890625 11.760546875  26.25 9.742578125  L 26.25 11.908203125  C 25.760546875 12.22265625  25.224609375 12.515234375  24.6421875 12.788671875  C 21.77109375 14.133984375  17.9921875 14.875  14 14.875  C 10.0078125 14.875  6.22890625 14.133984375  3.3578125 12.7859375  C 2.775390625 12.5125  2.239453125 12.219921875  1.75 11.90546875  Z M 1.75 16.865625  L 1.75 14.7  C 4.137109375 16.71796875  8.728125 18.082421875  14 18.082421875  C 19.271875 18.082421875  23.862890625 16.71796875  26.25 14.7  L 26.25 16.865625  C 25.760546875 17.17734375  25.224609375 17.47265625  24.6421875 17.74609375  C 21.77109375 19.09140625  17.989453125 19.832421875  14 19.832421875  C 10.010546875 19.832421875  6.22890625 19.09140625  3.3578125 17.74609375  C 2.775390625 17.47265625  2.239453125 17.180078125  1.75 16.865625  Z M 26.184375 21.866796875  C 25.711328125 22.16484375  25.197265625 22.44375  24.6421875 22.703515625  C 21.77109375 24.048828125  17.989453125 24.78984375  14 24.78984375  C 10.010546875 24.78984375  6.22890625 24.048828125  3.3578125 22.703515625  C 2.802734375 22.44375  2.288671875 22.162109375  1.815625 21.866796875  C 1.771875 21.721875  1.75 21.5796875  1.75 21.4375  L 1.75 19.66015625  C 4.137109375 21.678125  8.728125 23.042578125  14 23.042578125  C 19.271875 23.042578125  23.862890625 21.675390625  26.25 19.66015625  L 26.25 21.4375  C 26.25 21.576953125  26.228125 21.721875  26.184375 21.866796875  Z " fill-rule="nonzero" fill="#dfcca7" stroke="none" transform="matrix(1 0 0 1 1003 1631 )" />
  </g>
</svg>