<?xml version="1.0" encoding="utf-8"?>
<svg version="1.1" xmlns:xlink="http://www.w3.org/1999/xlink" width="24px" height="25px" xmlns="http://www.w3.org/2000/svg">
  <g transform="matrix(1 0 0 1 -1259 -1633 )">
    <path d="M 24 4.00590163934297  C 23.9114019837427 1.83707646316933  22.1346009292533 0.0819595016952319  19.9448275862069 0  L 4.0551724137931 0  C 1.86539907074668 0.081959501695233  0.0885980162573082 1.83707646316933  0 4.00590163934297  L 0 21.073442622944  C 0.0871402299878208 23.2432926168007  1.86436776252373 25.000004339705  4.0551724137931 25  L 19.9448275862069 25  C 22.1356322374763 25.000004339705  23.9128597700122 23.2432926168007  24 21.073442622944  L 24 4.00590163934297  Z M 6.8120275862069 20.881967213108  L 6.81335172413793 20.881967213108  C 6.81335172413793 21.2441211474232  6.51693335161211 21.5377049180259  6.15128275862069 21.5377049180259  L 3.81550344827586 21.5377049180259  C 3.44985285528444 21.5377049180259  3.15343448275862 21.2441211474232  3.15343448275862 20.881967213108  L 3.15343448275862 18.5737704917973  C 3.15343448275862 18.2116165574821  3.44985285528444 17.9180327868795  3.81550344827586 17.9180327868795  L 6.14995862068966 17.9180327868795  C 6.51560921368108 17.9180327868795  6.8120275862069 18.2116165574821  6.8120275862069 18.5737704917973  L 6.8120275862069 20.881967213108  Z M 13.7438896551724 20.881967213108  L 13.7465379310345 20.881967213108  C 13.7465379310345 21.2441211474232  13.4501195585087 21.5377049180259  13.0844689655172 21.5377049180259  L 10.7473655172414 21.5377049180259  C 10.38171492425 21.5377049180259  10.0852965517241 21.2441211474232  10.0852965517241 20.881967213108  L 10.0852965517241 18.5737704917973  C 10.0852965517241 18.2116165574821  10.38171492425 17.9180327868795  10.7473655172414 17.9180327868795  L 13.0818206896552 17.9180327868795  C 13.4474712826466 17.9180327868795  13.7438896551724 18.2116165574821  13.7438896551724 18.5737704917973  L 13.7438896551724 20.881967213108  Z M 20.6757517241379 20.881967213108  L 20.677075862069 20.881967213108  C 20.677075862069 21.2441211474232  20.3806574895432 21.5377049180259  20.0150068965517 21.5377049180259  L 17.6792275862069 21.5377049180259  C 17.3135769932155 21.5377049180259  17.0171586206897 21.2441211474232  17.0171586206897 20.881967213108  L 17.0171586206897 18.5737704917973  C 17.0171586206897 18.2116165574821  17.3135769932155 17.9180327868795  17.6792275862069 17.9180327868795  L 20.0136827586207 17.9180327868795  C 20.3793333516121 17.9180327868795  20.6757517241379 18.2116165574821  20.6757517241379 18.5737704917973  L 20.6757517241379 20.881967213108  Z M 20.677075862069 5.53508196721133  L 20.677075862069 13.1849180327826  C 20.6685353847877 13.5959753692837  20.329647880407 13.9247862102397  19.9145338500717 13.9247862102397  C 19.9087415432242 13.9247862102397  19.9029494242997 13.9247208572296  19.8971586206897 14  L 3.93070344827586 14  C 3.50949883471511 13.9326515305672  3.16091166725716 13.6020520780045  3.15078620689655 13.1849180327826  L 3.15078620689655 5.53508196721133  C 3.16162720610918 5.11846447707256  3.51000265580567 4.78865163048666  3.93070344827586 5  L 19.8971586206897 5  C 19.9029588810479 4.79659019078394  19.9087604631783 4.79652462403707  19.9145622341542 4.79652462403707  C 20.329161563822 4.79652462403707  20.667826535515 5.12454958328113  20.677075862069 5.53508196721133  Z " fill-rule="nonzero" fill="#dfcca7" stroke="none" transform="matrix(1 0 0 1 1259 1633 )" />
  </g>
</svg>