<?xml version="1.0" encoding="utf-8"?>
<svg version="1.1" xmlns:xlink="http://www.w3.org/1999/xlink" width="15px" height="11px" xmlns="http://www.w3.org/2000/svg">
  <g transform="matrix(1 0 0 1 -318 -8 )">
    <path d="M 1.65292480051824 4.67032065214083  C 3.23043194634327 3.13861380067889  5.32382370671713 2.28449254357013  7.50041072804801 2.28449804446462  C 9.67678418952725 2.28459562554955  11.7699362804843 3.13871425179573  13.3472425114489 4.67032065214083  C 13.4660183189393 4.78856644515239  13.6558664703914 4.78707450689808  13.7728466891292 4.66697658662756  C 13.7728466891292 4.66697658662756  14.9082301470828 3.49663640957269  14.9082301470828 3.49663640957269  C 14.9674630326023 3.43572285232468  15.0004870663283 3.35321230495741  14.9999953166699 3.2673624754634  C 14.9995045036775 3.18151288513871  14.9655372472735 3.09940222888417  14.9056112289021 3.03920067871906  C 10.7656879381021 -1.01306673346014  4.23447929337026 -1.01306673346014  0.0945555342372972 3.03920067871906  C 0.0345858804014251 3.09935750422025  0.000559834376955601 3.18144304769558  0 3.26729311635892  C -0.000546141453474048 3.35314294585293  0.0324195182604913 3.43567860599941  0.0916090317528843 3.49663640957269  C 0.0916090317528843 3.49663640957269  1.22731980325518 4.66697658662756  1.22731980325518 4.66697658662756  C 1.34422543996139 4.78725579724703  1.53422135047757 4.78874869217864  1.65292480051824 4.67032065214083  Z M 4.26737777726157 7.36568624637224  C 5.1531655002677 6.5464456829067  6.3053532148813 6.09252717615821  7.50033860476478 6.09202157220348  C 8.69611454076577 6.09194647303518  9.84921831474301 6.54590372521445  10.7355919223421 7.36568624637224  C 10.8554786157275 7.48203159992103  11.0443310912047 7.47950979854985  11.1611970366885 7.36000166983675  C 11.1611970366885 7.36000166983675  12.2952710355517 6.18966101444322  12.2952710355517 6.18966101444322  C 12.3549947340637 6.12827342359149  12.3881321043776 6.04499562102707  12.3872703716428 5.95845937556803  C 12.3864095755741 5.87192313010898  12.351620863074 5.78935087705566  12.2906879287355 5.72921605513244  C 9.59150215376984 3.16478370830735  5.41146824833339 3.16478370830735  2.71228247336777 5.72921605513244  C 2.65131183822204 5.78934992037836  2.61652523322047 5.87196378889437  2.61572508627631 5.95852777799521  C 2.61492493933214 6.04509224543469  2.64817822206553 6.12836239458068  2.70802626299109 6.18966101444322  C 2.70802626299109 6.18966101444322  3.84177266291526 7.36000166983675  3.84177266291526 7.36000166983675  C 3.95863931089856 7.47950979854985  4.14749108387619 7.48203159992103  4.26737777726157 7.36568624637224  Z M 9.67066167211369 8.42667868601242  C 9.73369367499413 8.48489536994276  9.77041098282117 8.56709691054111  9.77214662494881 8.65387710871246  C 9.77388226707645 8.74065635020651  9.74048075694603 8.82432065040141  9.67982882241225 8.88511749301843  C 9.67982882241225 8.88511749301843  7.7181162634819 10.9071315074712  7.7181162634819 10.9071315074712  C 7.66061012176284 10.9665564748355  7.58220836622592 11  7.50040323471989 11  C 7.41859763488084 11  7.34019587934393 10.9665564748355  7.28268973762486 10.9071315074712  C 7.28268973762486 10.9071315074712  5.32065028225494 8.88511749301843  5.32065028225494 8.88511749301843  C 5.26003956102585 8.82427568656816  5.22669659252143 8.74058364273147  5.22849358627312 8.65380440123742  C 5.23029104835782 8.56702515974337  5.2670692394759 8.48484849275491  5.33014479732608 8.42667868601242  C 6.58296697203228 7.3443973063446  8.41783902907449 7.3443973063446  9.67066167211369 8.42667868601242  Z " fill-rule="nonzero" fill="#3d3e46" stroke="none" transform="matrix(1 0 0 1 318 8 )" />
  </g>
</svg>