<?xml version="1.0" encoding="utf-8"?>
<svg version="1.1" xmlns:xlink="http://www.w3.org/1999/xlink" width="21px" height="10px" xmlns="http://www.w3.org/2000/svg">
  <g transform="matrix(1 0 0 1 -6 -4 )">
    <path d="M 10.0269296400449 6.86210678593192  L 3.63231490132148 6.86210678593192  L 3.63231490132148 7.61129214289671  L 10.0269296400449 7.61129214289671  L 10.0269296400449 6.86210678593192  Z M 9.82030111329498 3.43105302315275  L 7.00362554275194 3.43105302315275  L 7.00362554275194 4.16938140382427  L 9.82030111329498 4.16938140382427  L 9.82030111329498 3.43105302315275  Z M 7.44950877695028 1.04234553586267  L 6.65561936902137 1.04234553586267  L 6.65561936902137 7.20955517461507  L 7.44950877695028 7.20955517461507  L 7.44950877695028 1.04234553586267  Z M 5.29622011398373 2.80130328093105  L 4.52408099931125 2.80130328093105  L 4.52408099931125 7.29641690197265  L 5.29622011398373 7.29641690197265  L 5.29622011398373 2.80130328093105  Z M 9.711548906199 0.651465913687519  C 9.711548906199 0.651465913687519  9.11341287839182 0  9.11341287839182 0  C 7.91714137838779 0.412594869107942  5.75297793919993 0.738328195764914  3.91506982487585 0.922909736212975  C 4.00207155351194 1.10749192383416  4.121698953537 1.40065164046552  4.14344938569603 1.58523318091359  C 6.02485771612608 1.42236688739831  8.26514792252527 1.10749192383416  9.711548906199 0.651465913687519  Z M 2.6100466733862 0.651465913687519  L 0.0761263968044256 0.651465913687519  L 0.0761263968044256 1.37893583881292  L 2.6100466733862 1.37893583881292  L 2.6100466733862 0.651465913687519  Z M 2.51216998332534 0.651465913687519  L 2.39254300000804 0.651465913687519  C 2.39254300000804 0.651465913687519  2.39254300000804 0.749185726778005  2.39254300000804 0.749185726778005  C 1.94665995101316 1.67209537053768  1.00051784207712 3.45276882480535  0.239254290740632 4.74484256644748  C 0.239254290740632 4.74484256644748  0.978767456218963 4.96199836409427  0.978767456218963 4.96199836409427  C 1.74003105385632 3.65906672162584  2.65354758400511 1.94354002514286  3.21905784782161 0.803474676189702  C 3.21905784782161 0.803474676189702  2.64267248367776 0.608034680195519  2.64267248367776 0.608034680195519  L 2.51216998332534 0.651465913687519  Z M 3.11030564072562 3.76764406572942  L 1.10926986396965 3.76764406572942  L 1.00051784207712 4.49511436066803  L 3.11030564072562 4.49511436066803  L 3.11030564072562 3.76764406572942  Z M 2.95805284711677 3.76764406572942  L 2.80580042391482 3.76764406572942  C 2.80580042391482 3.76764406572942  2.80580042391482 3.93051017433808  2.80580042391482 3.93051017433808  C 2.49041996787408 6.76438660302822  1.50077680941655 8.5233444405499  0 9.43539655329648  C 0.184878302944798 9.54397419787329  0.489383693383834 9.82627584032841  0.619886043258446 10  C 2.15328838516137 9.00108579008263  3.21905770891902 7.05754641211289  3.59968946143683 3.8762215947396  C 3.59968946143683 3.8762215947396  3.11030564072562 3.74592826407681  3.11030564072562 3.74592826407681  L 2.95805284711677 3.76764406572942  Z M 6.93837392216883 8.89250853843236  C 4.17607482558068 8.89250853843236  2.06628693433045 8.37133595540763  1.1527707282877 5.34201990053652  C 1.1527707282877 5.34201990053652  0.511134206569367 5.58089039039628  0.511134206569367 5.58089039039628  C 1.58777844545092 9.02280149928193  3.77369254830212 9.67426778278267  6.9166236289124 9.67426778278267  C 6.9166236289124 9.67426778278267  9.84205066573762 9.67426778278267  9.84205066573762 9.67426778278267  C 9.88555153005566 9.44625473148269  10.0378046940714 9.06623281367057  10.1683072870256 8.88165082251266  C 9.59192164507653 8.89250858754817  7.39513267340229 8.89250853843236  6.93837392216883 8.89250853843236  Z M 11.9953393287042 0.141151046582486  C 11.9953393287042 0.141151046582486  11.3754530076405 0.553746100597034  11.3754530076405 0.553746100597034  C 11.9953390971999 1.12920726322025  12.7022261977319 1.94353984023625  13.0176068158256 2.46471223835438  C 13.0176068158256 2.46471223835438  13.691870351658 1.99782860474135  13.691870351658 1.99782860474135  C 13.3438640853257 1.4766555594501  12.6152253719626 0.694896962272913  11.9953393287042 0.141151046582486  Z M 13.354737842928 7.99131441896538  L 13.354737842928 3.8870793106593  L 11.0491971271664 3.8870793106593  L 11.0491971271664 4.64712312317021  L 12.5390988825565 4.64712312317021  L 12.5390988825565 7.99131441896538  L 13.354737842928 7.99131441896538  Z M 14.1595031382989 8.31704737580914  C 13.5613673882969 7.94788341660664  13.3112373258664 7.62214985881641  12.9414807894281 7.62214985881641  C 12.3977211429741 7.62214985881641  11.6690829852214 8.18675349042653  10.9295697734422 8.97937026578993  C 10.9295697734422 8.97937026578993  11.4842052147365 9.75027179422055  11.4842052147365 9.75027179422055  C 12.0388401004205 9.01194387581554  12.5608489443086 8.36047823948793  12.9306056427999 8.36047823948793  C 13.1698599103901 8.36047823948793  13.517866153572 8.72964229114374  13.9854993106198 9.01194415317545  C 14.735887761629 9.48968578006809  15.6494045232821 9.60912074763806  17.0088034079128 9.60912074763806  C 18.0528222069097 9.60912074763806  19.999481787516 9.54397464858314  20.7607452925516 9.50054358844109  C 20.7824960488167 9.26167279810809  20.9021232173374 8.84907714314708  21 8.63192187710678  C 19.9559812010031 8.75135727227328  18.3138262815973 8.83821995883387  17.0305537011693 8.83821995883387  C 15.8016567612806 8.83821995883387  14.8772661031226 8.76221567003608  14.1595031382989 8.31704737580914  Z M 15.8560334204389 0.532030114037821  L 15.0077675385551 0.532030114037821  C 15.0077675385551 0.532030114037821  15.0077675385551 2.99674290711202  15.0077675385551 2.99674290711202  C 15.0077675385551 4.35396294427233  14.8881409256447 6.18892507059179  13.844122404453 7.49185652815362  C 14.0507510238047 7.58957643369741  14.4096323441635 7.83930567957653  14.5618850451706 8.00217213488508  C 15.6711551869454 6.60152058687286  15.8560334204389 4.49511399085482  15.8560334204389 2.99674290711202  C 15.8560334204389 2.99674290711202  15.8560334204389 0.532030114037821  15.8560334204389 0.532030114037821  Z M 20.1843610396285 0.532030114037821  L 15.3013979791446 0.532030114037821  L 15.3013979791446 1.31378935838813  L 19.3578454510011 1.31378935838813  L 19.3578454510011 3.28990197657026  L 15.3013979791446 3.28990197657026  L 15.3013979791446 4.07166122092057  L 20.1843610396285 4.07166122092057  L 20.1843610396285 0.532030114037821  Z M 17.726567530258 4.38653646184463  C 17.726567530258 4.38653646184463  17.084930915938 4.84256274935118  17.084930915938 4.84256274935118  C 18.0745737965903 5.81976143497585  19.2925951268421 7.17698202685598  19.8472300125261 8.01302985080478  C 19.8472300125261 8.01302985080478  20.5432423599873 7.48099955186035  20.5432423599873 7.48099955186035  C 19.9559816640117 6.64495172791156  18.7053347086718 5.32030409888391  17.726567530258 4.38653646184463  Z " fill-rule="nonzero" fill="#c62542" stroke="none" transform="matrix(1 0 0 1 6 4 )" />
  </g>
</svg>