<?xml version="1.0" encoding="utf-8"?>
<svg version="1.1" xmlns:xlink="http://www.w3.org/1999/xlink" width="60px" height="59px" xmlns="http://www.w3.org/2000/svg">
  <g transform="matrix(1 0 0 1 -1361 -539 )">
    <path d="M 59.3753963414634 29.4625787037037  C 59.3753963414634 27.853462962963  58.065 26.5489984567901  56.4485670731707 27  L 33 27  L 33 3.13373765432099  C 32.9268292682927 1.52462191358025  31.6164329268293 0.220157407407408  30 0.220157407407408  C 28.3835670731707 0.220157407407408  27.0731707317073 1.52462191358025  27 3.13373765432099  L 27 27  L 3.5515243902439 27  C 1.93509146341464 26.5489984567901  0.624695121951221 27.853462962963  0.624695121951221 29.4625787037037  C 0.624695121951221 31.0716944444444  1.93509146341464 32.3761589506173  3.5515243902439 32  L 27 32  L 27 55.7913287037037  C 27.0731707317073 57.4004444444444  28.3835670731707 58.7049089506173  30 58.7049089506173  C 31.6164329268293 58.7049089506173  32.9268292682927 57.4004444444444  33 55.7913287037037  L 33 32  L 56.4485670731707 32  C 58.065 32.3761589506173  59.3753963414634 31.0716944444444  59.3753963414634 29.4625787037037  Z " fill-rule="nonzero" fill="#dfdfdf" stroke="none" transform="matrix(1 0 0 1 1361 539 )" />
  </g>
</svg>