<?xml version="1.0" encoding="utf-8"?>
<svg version="1.1" xmlns:xlink="http://www.w3.org/1999/xlink" width="18px" height="18px" xmlns="http://www.w3.org/2000/svg">
  <g transform="matrix(1 0 0 1 -1334 -716 )">
    <path d="M 15.4254424778761 2.67013274336283  C 18.8840707964602 6.17654867256637  18.8442477876106 11.8214601769912  15.3378318584071 15.2780973451327  C 11.8314159292035 18.7367256637168  6.18451327433628 18.6969026548673  2.72588495575221 15.1904867256637  C -0.732743362831859 11.6840707964602  -0.692920353982301 6.0391592920354  2.81349557522124 2.5825221238938  C 6.31991150442478 -0.876106194690266  11.966814159292 -0.836283185840708  15.4254424778761 2.67013274336283  Z M 13.7488938053097 4.97986725663717  L 13.0898230088496 4.31283185840708  L 9.07964601769912 8.26725663716814  L 5.12522123893805 4.2570796460177  L 4.45619469026549 4.91615044247788  L 8.41061946902655 8.92632743362832  L 4.40243362831858 12.8807522123894  L 5.06150442477876 13.5477876106195  L 9.0716814159292 9.59336283185841  L 13.0261061946903 13.6035398230089  L 13.6951327433628 12.9444690265487  L 9.73871681415929 8.93429203539823  L 13.7488938053097 4.97986725663717  Z " fill-rule="nonzero" fill="#f92c2c" stroke="none" transform="matrix(1 0 0 1 1334 716 )" />
  </g>
</svg>