<?xml version="1.0" encoding="utf-8"?>
<svg version="1.1" xmlns:xlink="http://www.w3.org/1999/xlink" width="10px" height="12px" xmlns="http://www.w3.org/2000/svg">
  <g transform="matrix(1 0 0 1 -1261 -909 )">
    <path d="M 9.89690721649485 11.2881355932203  C 9.8964811095749 11.6623916854263  9.58902250326723 11.965681361479  9.20962199742268 11.966101690678  L 0.687285219072165 11.966101690678  C 0.307884713227617 11.965681361479  0.000426106919946702 11.6623916854263  0 11.2881355932203  L 0 0.711864406779661  C 0.000426106919947435 0.337608314573683  0.307884713227617 0.0343186385210329  0.687285219072165 0.0338983093220339  L 6.7020618556701 0.0338983093220338  C 6.88444177465688 0.0334039239493141  7.059442683297 0.10490249963161  7.18805841494845 0.232457631355932  L 9.69561855670103 2.70601694491525  C 9.8249270267501 2.83288873754494  9.89740840098771 3.00551675771508  9.89690721649485 3.18542373305085  L 9.89690721649485 11.2881355932203  Z M 6.5979381443299 0.57627118220339  L 0.687285219072165 0.57627118220339  C 0.611369792202332 0.576271189223958  0.549828182989691 0.636978341630096  0.549828182989691 0.711864406779661  L 0.549828182989691 11.2881355932203  C 0.549828182989692 11.3630216583699  0.611369792202333 11.423728810776  0.687285219072165 11.4237288177966  L 9.20962199742268 11.4237288177966  C 9.28553742429252 11.423728810776  9.34707903350515 11.3630216583699  9.34707903350516 11.2881355932203  L 9.34707903350516 3.28813559745763  L 7.28522336340206 3.28813559745763  C 6.90582285253298 3.28771526824519  6.59836424414971 2.9844255844584  6.5979381443299 2.61016948728814  L 6.5979381443299 0.57627118220339  Z M 8.95833333762886 2.74576271186441  L 7.14776632731959 0.959745762711864  L 7.14776632731959 2.61016948728814  C 7.14776632731959 2.6850555524377  7.20930793653223 2.74576270484384  7.28522336340206 2.74576271186441  L 8.95833333762886 2.74576271186441  Z M 7.42268041237113 9.25423728813559  L 2.47422680412371 9.25423728813559  C 2.32239594387752 9.25423728813559  2.19931271262887 9.13282298205641  2.19931271262887 8.98305084533898  C 2.19931271262887 8.83327870862156  2.32239594387752 8.71186440254237  2.47422680412371 8.71186440254237  L 7.42268041237113 8.71186440254237  C 7.57451127261732 8.71186440254237  7.69759450386598 8.83327870862156  7.69759450386598 8.98305084533898  C 7.69759450386598 9.13282298205641  7.57451127261732 9.25423728813559  7.42268041237113 9.25423728813559  Z M 7.42268041237113 6.54237288559322  L 2.47422680412371 6.54237288559322  C 2.32239594387752 6.54237288559322  2.19931271262887 6.42095857951404  2.19931271262887 6.27118644279661  C 2.19931271262887 6.12141430607918  2.32239594387752 6  2.47422680412371 6  L 7.42268041237113 6  C 7.57451127261732 6  7.69759450386598 6.12141430607918  7.69759450386598 6.27118644279661  C 7.69759450386598 6.42095857951404  7.57451127261732 6.54237288559322  7.42268041237113 6.54237288559322  Z M 4.67353952319588 3.28813559745763  L 2.47422680412371 3.28813559745763  C 2.32239594387752 3.28813559745763  2.19931271262887 3.16672129137845  2.19931271262887 3.01694915466102  C 2.19931271262887 2.86717701794359  2.32239594387752 2.74576271186441  2.47422680412371 2.74576271186441  L 4.67353952319587 2.74576271186441  C 4.82537038344207 2.74576271186441  4.94845361469072 2.86717701794359  4.94845361469072 3.01694915466102  C 4.94845361469072 3.16672129137845  4.82537038344207 3.28813559745763  4.67353952319587 3.28813559745763  Z " fill-rule="nonzero" fill="#646468" stroke="none" transform="matrix(1 0 0 1 1261 909 )" />
  </g>
</svg>