<?xml version="1.0" encoding="utf-8"?>
<svg version="1.1" xmlns:xlink="http://www.w3.org/1999/xlink" width="10px" height="576px" preserveAspectRatio="xMidYMin meet" viewBox="1230 634  8 576" xmlns="http://www.w3.org/2000/svg">
  <path d="M 1234 1206  L 1234 640  " stroke-width="2" stroke="#2a76f9" fill="none" />
  <path d="M 1239.70710678119 1204.69289321881  L 1234.70710678119 1199.69289321881  L 1234 1198.98578643763  L 1233.29289321881 1199.69289321881  L 1228.29289321881 1204.69289321881  L 1229.70710678119 1206.10710678119  L 1234 1201.81421356237  L 1238.29289321881 1206.10710678119  L 1239.70710678119 1204.69289321881  Z M 1239 1198  L 1229 1198  L 1229 1200  L 1239 1200  L 1239 1198  Z M 1234 634  A 3.5 3.5 0 0 0 1230.5 637.5 A 3.5 3.5 0 0 0 1234 641 A 3.5 3.5 0 0 0 1237.5 637.5 A 3.5 3.5 0 0 0 1234 634 Z M 1234 636  A 1.5 1.5 0 0 1 1235.5 637.5 A 1.5 1.5 0 0 1 1234 639 A 1.5 1.5 0 0 1 1232.5 637.5 A 1.5 1.5 0 0 1 1234 636 Z " fill-rule="nonzero" fill="#2a76f9" stroke="none" />
</svg>