<?xml version="1.0" encoding="utf-8"?>
<svg version="1.1" xmlns:xlink="http://www.w3.org/1999/xlink" width="29px" height="20px" preserveAspectRatio="xMinYMid meet" viewBox="3755 1822  29 18" xmlns="http://www.w3.org/2000/svg">
  <defs>
    <mask fill="white" id="clip215">
      <path d="M 3650.5 1811  L 3715.5 1811  L 3715.5 1851  L 3650.5 1851  Z M 3581 1811  L 3786 1811  L 3786 1851  L 3581 1851  Z " fill-rule="evenodd" />
    </mask>
  </defs>
  <path d="M 3650.5 1831  L 3597 1831  M 3715.5 1831  L 3762 1831  M 3767.4 1831  L 3776 1831  " stroke-width="2" stroke="#2a76f9" fill="none" />
  <path d="M 3594.5 1827.5  A 3.5 3.5 0 0 0 3591 1831 A 3.5 3.5 0 0 0 3594.5 1834.5 A 3.5 3.5 0 0 0 3598 1831 A 3.5 3.5 0 0 0 3594.5 1827.5 Z M 3594.5 1829.5  A 1.5 1.5 0 0 1 3596 1831 A 1.5 1.5 0 0 1 3594.5 1832.5 A 1.5 1.5 0 0 1 3593 1831 A 1.5 1.5 0 0 1 3594.5 1829.5 Z M 3774.69289321881 1825.29289321881  L 3769.69289321881 1830.29289321881  L 3768.98578643763 1831  L 3769.69289321881 1831.70710678119  L 3774.69289321881 1836.70710678119  L 3776.10710678119 1835.29289321881  L 3771.81421356237 1831  L 3776.10710678119 1826.70710678119  L 3774.69289321881 1825.29289321881  Z M 3765.4 1827.5  A 3.5 3.5 0 0 0 3761.9 1831 A 3.5 3.5 0 0 0 3765.4 1834.5 A 3.5 3.5 0 0 0 3768.9 1831 A 3.5 3.5 0 0 0 3765.4 1827.5 Z M 3765.4 1829.5  A 1.5 1.5 0 0 1 3766.9 1831 A 1.5 1.5 0 0 1 3765.4 1832.5 A 1.5 1.5 0 0 1 3763.9 1831 A 1.5 1.5 0 0 1 3765.4 1829.5 Z " fill-rule="nonzero" fill="#2a76f9" stroke="none" mask="url(#clip215)" />
</svg>