<?xml version="1.0" encoding="utf-8"?>
<svg version="1.1" xmlns:xlink="http://www.w3.org/1999/xlink" width="18px" height="18px" xmlns="http://www.w3.org/2000/svg">
  <g transform="matrix(1 0 0 1 -1235 -2214 )">
    <path d="M 8.60870566956534 17.2174113391303  C 13.3434937878261 17.2174113391303  17.2174113391303 13.3434937878261  17.2174113391303 8.60870566956534  C 17.2174113391303 3.87391755130422  13.3434937878261 0  8.60870566956534 0  C 3.87391755130422 0  0 3.87391755130422  0 8.60870566956534  C 0 13.3434937878261  3.87391755130422 17.2174113391303  8.60870566956534 17.2174113391303  Z M 13.5894640129041 5.22671175453924  C 13.8354275124311 5.53416528825398  13.8354275124311 5.90311053754439  13.5894640129041 6.14907067429545  C 13.5894640129041 6.14907067429545  7.99380532768678 11.7447293595127  7.99380532768678 11.7447293595127  C 7.74784182816007 11.9906928590398  7.3788982602573 11.9906928590398  7.13293476073024 11.7447293595127  C 7.13293476073024 11.7447293595127  3.62796414010443 8.23975873888693  3.62796414010443 8.23975873888693  C 3.38200064057737 7.99379523935987  3.38200064057737 7.62485167145745  3.62796414010443 7.37888817193039  C 3.87392763963113 7.13292467240333  4.2428712075339 7.13292467240333  4.4888347070606 7.37888817193039  C 4.4888347070606 7.37888817193039  7.56337004420869 10.3919351562781  7.56337004420869 10.3919351562781  C 7.56337004420869 10.3919351562781  12.7285934459479 5.22671175453924  12.7285934459479 5.22671175453924  C 12.9745569454746 4.98074825501218  13.3435005133774 4.98074825501218  13.5894640129041 5.22671175453924  Z " fill-rule="nonzero" fill="#e6e6e6" stroke="none" transform="matrix(1 0 0 1 1235 2214 )" />
  </g>
</svg>