<?xml version="1.0" encoding="utf-8"?>
<svg version="1.1" xmlns:xlink="http://www.w3.org/1999/xlink" width="19px" height="19px" xmlns="http://www.w3.org/2000/svg">
  <g transform="matrix(1 0 0 1 -816 -1587 )">
    <path d="M 9.0869670956523 18.1739341913042  C 14.0847989982609 18.1739341913042  18.1739341913042 14.0847989982609  18.1739341913042 9.0869670956523  C 18.1739341913042 4.08913519304335  14.0847989982609 0  9.0869670956523 0  C 4.08913519304335 0  0 4.08913519304335  0 9.0869670956523  C 0 14.0847989982609  4.08913519304335 18.1739341913042  9.0869670956523 18.1739341913042  Z M 14.3444342358432 5.51708462979142  C 14.6040623742329 5.8416189153792  14.6040623742329 6.23106112296352  14.3444342358432 6.49068571175631  C 14.3444342358432 6.49068571175631  8.43790562366937 12.3972143239301  8.43790562366937 12.3972143239301  C 8.17827748528008 12.6568424623198  7.78883705249382 12.6568424623198  7.52920891410414 12.3972143239301  C 7.52920891410414 12.3972143239301  3.82951770344356 8.69752311326953  3.82951770344356 8.69752311326953  C 3.56988956505389 8.43789497487986  3.56988956505389 8.04845454209398  3.82951770344356 7.78882640370431  C 4.08914584183286 7.52919826531463  4.47858627461912 7.52919826531463  4.73821441300842 7.78882640370431  C 4.73821441300842 7.78882640370431  7.98355726888695 10.9692648871824  7.98355726888695 10.9692648871824  C 7.98355726888695 10.9692648871824  13.4357375262783 5.51708462979142  13.4357375262783 5.51708462979142  C 13.6953656646676 5.25745649140175  14.0848060974539 5.25745649140175  14.3444342358432 5.51708462979142  Z " fill-rule="nonzero" fill="#e6e6e6" stroke="none" transform="matrix(1 0 0 1 816 1587 )" />
  </g>
</svg>