<?xml version="1.0" encoding="utf-8"?>
<svg version="1.1" xmlns:xlink="http://www.w3.org/1999/xlink" width="15px" height="3px" xmlns="http://www.w3.org/2000/svg">
  <g transform="matrix(1 0 0 1 -569 -1254 )">
    <path d="M 1.13805969335938 0.741293517578125  L 1.36940297558594 0.741293517578129  C 1.56105403407001 0.741293517578129  1.7164179140625 0.896657397570614  1.7164179140625 1.08830845605469  L 1.7164179140625 2.24502486718751  C 1.7164179140625 2.43667592567158  1.56105403407001 2.59203980566406  1.36940297558594 2.59203980566406  L 1.13805969335938 2.59203980566406  C 0.946408646697815 2.59203978894451  0.791044785156251 2.43667591384907  0.791044785156251 2.2450248671875  L 0.791044785156252 1.08830845605469  C 0.791044785156252 0.896657409393121  0.946408646697813 0.741293534297686  1.13805969335938 0.741293517578125  Z M 2.52611941699219 0.741293517578125  L 2.75746269921875 0.741293517578129  C 2.94911374588032 0.741293534297686  3.10447760742188 0.896657409393125  3.10447760742188 1.08830845605469  L 3.10447760742188 2.24502486718751  C 3.10447760742188 2.43667591384907  2.94911374588032 2.59203978894451  2.75746269921875 2.59203980566406  L 2.52611941699219 2.59203980566406  C 2.33446835850811 2.59203980566406  2.17910447851563 2.43667592567158  2.17910447851563 2.2450248671875  L 2.17910447851563 1.08830845605469  C 2.17910447851563 0.89665739757061  2.33446835850811 0.741293517578129  2.52611941699219 0.741293517578125  Z M 12.5509950205078 0.741293517578125  L 12.7823383027344 0.741293517578129  C 12.9739893612185 0.741293517578129  13.1293532412109 0.896657397570614  13.1293532412109 1.08830845605469  L 13.1293532412109 2.24502486718751  C 13.1293532412109 2.43667592567158  12.9739893612185 2.59203980566406  12.7823383027344 2.59203980566406  L 12.5509950205078 2.59203980566406  C 12.3593439738463 2.59203978894451  12.2039801123047 2.43667591384907  12.2039801123047 2.2450248671875  L 12.2039801123047 1.08830845605469  C 12.2039801123047 0.896657409393125  12.3593439738463 0.741293534297686  12.5509950205078 0.741293517578125  Z M 13.9390547138672 0.741293517578125  L 14.1703979960938 0.741293517578129  C 14.3620490545778 0.741293517578129  14.5174129345703 0.896657397570614  14.5174129345703 1.08830845605469  L 14.5174129345703 2.24502486718751  C 14.5174129345703 2.43667592567158  14.3620490545778 2.59203980566406  14.1703979960938 2.59203980566406  L 13.9390547138672 2.59203980566406  C 13.7474036672056 2.59203978894451  13.5920398056641 2.43667591384907  13.5920398056641 2.2450248671875  L 13.5920398056641 1.08830845605469  C 13.5920398056641 0.896657409393125  13.7474036672056 0.741293534297686  13.9390547138672 0.741293517578125  Z " fill-rule="nonzero" fill="#f5b196" stroke="none" transform="matrix(1 0 0 1 569 1254 )" />
  </g>
</svg>