<?xml version="1.0" encoding="utf-8"?>
<svg version="1.1" xmlns:xlink="http://www.w3.org/1999/xlink" width="12px" height="12px" xmlns="http://www.w3.org/2000/svg">
  <g transform="matrix(1 0 0 1 -503 -1244 )">
    <path d="M 5.85824186697248 0.0700583807339449  C 6.30043816236923 0.0700583807339449  6.65890908715596 0.428529305520677  6.65890908715596 0.870725600917431  L 6.65858883027523 5.09152293577982  L 11.1192660550459 5.09152293577982  C 11.5614623504426 5.09152293577982  11.9199332752294 5.44999386056655  11.9199332752294 5.8921901559633  C 11.9199332752294 6.33438645136006  11.5614623504426 6.69285737614679  11.1192660550459 6.69285737614679  L 6.65858883027523 6.69285737614679  L 6.65858883027523 11.1192660550459  C 6.65858883027523 11.5614623542427  6.30011790240789 11.9199332821101  5.85792160321101 11.9199332821101  C 5.41572530401413 11.9199332821101  5.05725437614679 11.5614623542427  5.05725437614679 11.1192660550459  L 5.05725437614679 6.69285737614679  L 0.870725600917431 6.69285737614679  C 0.428529305520677 6.69285737614679  0.0700583807339447 6.33438645136005  0.0700583807339447 5.8921901559633  C 0.0700583807339447 5.44999386056655  0.428529305520677 5.09152293577982  0.870725600917431 5.09152293577982  L 5.05725437614679 5.09152293577982  L 5.05725437614679 0.870725600917431  C 5.05725437614679 0.428529305520676  5.41572530093352 0.0700583807339451  5.85792159633028 0.0700583807339451  Z " fill-rule="nonzero" fill="#cacaca" stroke="none" transform="matrix(1 0 0 1 503 1244 )" />
  </g>
</svg>