<?xml version="1.0" encoding="utf-8"?>
<svg version="1.1" xmlns:xlink="http://www.w3.org/1999/xlink" width="15px" height="6px" xmlns="http://www.w3.org/2000/svg">
  <g transform="matrix(1 0 0 1 -569 -1246 )">
    <path d="M 4.25244668073382 4.45527362988281  L 4.28830490792411 4.47794528613281  L 4.30962153808594 4.49167165625  C 4.32779851004464 4.5016965234375  4.34514924421038 4.5126467890625  4.36167377301897 4.52467660546875  C 4.5596375327846 4.66780097167969  4.56426440604074 4.89667660546875  4.37191898542132 5.03579104296875  C 4.18469615478516 5.17120397753906  3.87981878801618 5.17151243359375  3.68119401855469 5.03933830273438  L 3.66516523890904 5.02838806738281  L 3.66351279575893 5.02962189160156  C 2.87727612827846 4.51295521484375  1.68222281982422 4.51110447851562  0.93448828857422 5.03316915136719  L 0.909866739676339 5.05059702441406  C 0.717521319056919 5.18971146191406  0.401242013462612 5.18631841503906  0.203112993164063 5.04319401855469  C 0.0104370839146206 4.903771125  0.00101810930524479 4.68306965234375  0.178160988071987 4.54318408984375  L 0.193033041294644 4.53207961132813  C 1.28993070765904 3.73872637011719  3.05970682512556 3.71744278125  4.25244668073382 4.45527362988281  Z M 13.6714232362584 4.45527362988281  L 13.7072814634487 4.47794528613281  L 13.7285980936105 4.49167165625  C 13.7467750655692 4.5016965234375  13.7641257997349 4.5126467890625  13.7806503285435 4.52467660546875  C 13.9786140883092 4.66780097167969  13.9832409615653 4.89667660546875  13.79089550851 5.03579104296875  C 13.6036726778739 5.17120397753906  13.2987953111049 5.17151243359375  13.1001705740792 5.03933830273438  L 13.0841417944336 5.02838806738281  L 13.0824893512835 5.02962189160156  C 12.296252683803 4.51295521484375  11.1011993753488 4.51110447851562  10.3534648116629 5.03316915136719  L 10.3288432952009 5.05059702441406  C 10.1364978745815 5.18971146191406  9.82021856898716 5.18631841503906  9.62208954868862 5.04319401855469  C 9.42941363943918 4.903771125  9.4199946648298 4.68306965234375  9.59713751116071 4.54318408984375  L 9.6120095968192 4.53207961132813  C 10.7089072631836 3.73872637011719  12.4786833806501 3.71744278125  13.6714232362584 4.45527362988281  Z M 4.25244668073382 1.65910447851562  L 4.28830490792411 1.68732834375  L 4.30962153808594 1.70429351757812  C 4.32779851004464 1.71694027636719  4.34514924421038 1.73066664648437  4.36167377301897 1.74578108398437  C 4.5596375327846 1.92468656445313  4.56426440604074 2.21078108398438  4.37191898542132 2.38459702441406  C 4.18469615478516 2.55394030664063  3.87981878801618 2.55440300585938  3.68119401855469 2.38922389550781  L 3.66516523890904 2.37534328222656  L 3.66351279575893 2.3768855625  C 2.87727612827846 1.73097510253906  1.68222281982422 1.72866166699219  0.93448828857422 2.38135822070313  L 0.909866739676339 2.40310447851562  C 0.717521319056919 2.57692038867187  0.401242013462612 2.57275621679687  0.203112993164063 2.39385073632812  C 0.0104370839146206 2.21957212695312  0.00101810930524479 1.94381093066406  0.178160988071987 1.76891540917969  L 0.193033041294644 1.75503482617187  C 1.28993070765904 0.763343282226561  3.05970682512556 0.736815910156249  4.25244668073382 1.65910447851562  Z M 13.5061780454799 1.65910447851562  L 13.5420362402344 1.68732834375  L 13.5633528703962 1.70429351757812  C 13.5815298423549 1.71694027636719  13.5988805765207 1.73066664648437  13.6154051053292 1.74578108398437  C 13.8133688650949 1.92468656445313  13.817995738351 2.21078108398438  13.6256503177316 2.38459702441406  C 13.4384274870954 2.55394030664063  13.1335501203265 2.55440300585938  12.9349253833008 2.38922389550781  L 12.9188966036551 2.37534328222656  L 12.9172441280692 2.3768855625  C 12.1310074605887 1.73097510253906  10.9359541521345 1.72866166699219  10.1882196208845 2.38135822070313  L 10.1635980719866 2.40310447851562  C 9.97125265136719 2.57692038867187  9.65497334577288 2.57275621679687  9.45684435791016 2.39385073632812  C 9.26416844866072 2.21957212695312  9.25474947405134 1.94381093066406  9.43189232038226 1.76891540917969  L 9.44676440604074 1.75503482617187  C 10.5436620724051 0.763343282226561  12.3134381898717 0.736815910156249  13.5061780454799 1.65910447851562  Z " fill-rule="nonzero" fill="#4d4132" stroke="none" transform="matrix(1 0 0 1 569 1246 )" />
  </g>
</svg>