<?xml version="1.0" encoding="utf-8"?>
<svg version="1.1" xmlns:xlink="http://www.w3.org/1999/xlink" width="16px" height="16px" xmlns="http://www.w3.org/2000/svg">
  <g transform="matrix(1 0 0 1 -911 -2217 )">
    <path d="M 7.43260869565218 3.76739130434783  L 7.43260869565217 7.46956521739131  L 3.7304347826087 7.46956521739131  C 1.68913043478261 7.46956521739131  0.0282608695652176 5.80869565217391  0.0282608695652176 3.76739130434783  C 0.0282608695652176 1.72608695652174  1.68913043478261 0.0652173913043478  3.7304347826087 0.0652173913043478  C 5.77173913043478 0.0652173913043478  7.43260869565218 1.72608695652174  7.43260869565218 3.76739130434783  Z M 6.47608695652174 3.76739130434783  C 6.47608695652174 2.25217391304348  5.24565217391304 1.02173913043478  3.7304347826087 1.02173913043478  C 2.21521739130435 1.02173913043478  0.984782608695652 2.25434782608696  0.984782608695652 3.76739130434783  C 0.984782608695652 5.2804347826087  2.21739130434783 6.51304347826087  3.7304347826087 6.51304347826087  L 6.47608695652174 6.51304347826087  L 6.47608695652174 3.76739130434783  Z M 15.9282608695652 3.76739130434783  C 15.9282608695652 5.80869565217391  14.2673913043478 7.46956521739131  12.2260869565217 7.46956521739131  L 8.52391304347826 7.46956521739131  L 8.52391304347826 3.76739130434783  C 8.52391304347826 1.72608695652174  10.1847826086957 0.0652173913043478  12.2260869565217 0.0652173913043478  C 14.2673913043478 0.0652173913043478  15.9282608695652 1.72608695652174  15.9282608695652 3.76739130434783  Z M 9.4804347826087 3.76739130434783  L 9.4804347826087 6.51304347826087  L 12.2260869565217 6.51304347826087  C 13.7413043478261 6.51304347826087  14.9717391304348 5.2804347826087  14.9717391304348 3.76739130434783  C 14.9717391304348 2.25434782608696  13.7391304347826 1.02173913043478  12.2260869565217 1.02173913043478  C 10.7130434782609 1.02173913043478  9.4804347826087 2.25434782608696  9.4804347826087 3.76739130434783  Z M 15.9282608695652 12.2326086956522  C 15.9282608695652 14.2739130434783  14.2673913043478 15.9347826086957  12.2260869565217 15.9347826086957  C 10.1847826086957 15.9347826086957  8.52391304347826 14.2739130434783  8.52391304347826 12.2326086956522  L 8.52391304347826 8.5304347826087  L 12.2260869565217 8.5304347826087  C 14.2673913043478 8.5304347826087  15.9282608695652 10.1913043478261  15.9282608695652 12.2326086956522  Z M 12.2260869565217 9.48695652173913  L 9.4804347826087 9.48695652173913  L 9.4804347826087 12.2326086956522  C 9.4804347826087 13.7478260869565  10.7130434782609 14.9782608695652  12.2260869565217 14.9782608695652  C 13.7391304347826 14.9782608695652  14.9717391304348 13.745652173913  14.9717391304348 12.2326086956522  C 14.9717391304348 10.7173913043478  13.7391304347826 9.48695652173913  12.2260869565217 9.48695652173913  Z M 7.43260869565218 12.2326086956522  C 7.43260869565218 14.2739130434783  5.77173913043478 15.9347826086957  3.7304347826087 15.9347826086957  C 1.68913043478261 15.9347826086957  0.0282608695652176 14.2739130434783  0.0282608695652176 12.2326086956522  C 0.0282608695652176 10.1913043478261  1.68913043478261 8.5304347826087  3.7304347826087 8.5304347826087  L 7.43260869565218 8.5304347826087  L 7.43260869565218 12.2326086956522  Z M 6.47608695652174 9.48695652173913  L 3.7304347826087 9.48695652173913  C 2.21521739130435 9.48695652173913  0.984782608695652 10.7195652173913  0.984782608695652 12.2326086956522  C 0.984782608695652 13.7478260869565  2.21739130434783 14.9782608695652  3.7304347826087 14.9782608695652  C 5.24347826086957 14.9782608695652  6.47608695652174 13.745652173913  6.47608695652174 12.2326086956522  L 6.47608695652174 9.48695652173913  Z " fill-rule="nonzero" fill="#5b5b5b" stroke="none" transform="matrix(1 0 0 1 911 2217 )" />
  </g>
</svg>