<?xml version="1.0" encoding="utf-8"?>
<svg version="1.1" xmlns:xlink="http://www.w3.org/1999/xlink" width="6px" height="6px" xmlns="http://www.w3.org/2000/svg">
  <g transform="matrix(1 0 0 1 -916 -2524 )">
    <path d="M 4.740799995 5.83999999468085  C 4.663999995 5.92170212234043  4.536 5.97617020212766  4.408000005 5.97617021808511  C 4.3056 5.97617021808511  4.20320001 5.94893617021277  4.100800005 5.89446809042553  L 3 5.26808510106383  L 1.873600005 5.89446809042553  C 1.66880001 6.03063829787234  1.3872 6.00340426595745  1.207999995 5.83999999468085  C 1.0032 5.6765957393617  0.900799994999999 5.43148935638298  0.952000005 5.18638297340426  L 1.1568 3.87914893085106  L 0.235199999999999 2.92595744680851  C 0.0559999949999994 2.73531914361702  0.00479999999999905 2.4902127606383  0.0815999999999991 2.24510637765957  C 0.158399999999999 1.99999999468085  0.363199994999999 1.8365957393617  0.593599994999999 1.78212765957447  L 1.848 1.59148935638298  L 2.411200005 0.393191489361701  C 2.51360001 0.148085106382978  2.74400001 0.0119148989361693  2.974399995 0.0119148989361693  C 3.204799995 0.0119148989361693  3.435199995 0.148085106382978  3.5376 0.393191489361701  L 4.100800005 1.59148935638298  L 5.355199995 1.78212765957447  C 5.585599995 1.80936170744681  5.79039999 1.99999999468085  5.867200005 2.24510637765957  C 5.94400002 2.4902127606383  5.89280001 2.76255319148936  5.713600005 2.92595744680851  L 4.792000005 3.87914893085106  L 4.9968 5.18638297340426  C 5.047999995 5.43148935638298  4.945600005 5.70382978723404  4.740799995 5.83999999468085  Z M 2.6928 4.50553192021277  C 2.795200005 4.45106384042553  2.897599995 4.42382979255319  3 4.42382979255319  C 3.102400005 4.42382979255319  3.204799995 4.45106384042553  3.3072 4.50553192021277  L 4.254400005 5.05021276595745  L 4.0752 3.96085105851064  C 4.049599995 3.74297872340426  4.100800005 3.52510637234043  4.254400005 3.36170213297872  L 5.022400005 2.54468085638298  L 3.972799995 2.38127660106383  C 3.768 2.35404255319149  3.588799995 2.21787234574468  3.486400005 1.99999999468085  L 3 0.965106382978724  L 2.5392 1.99999999468085  C 2.436799995 2.19063829787234  2.257600005 2.32680850531915  2.052799995 2.38127660106383  L 0.977599994999999 2.54468085638298  L 1.745599995 3.36170213297872  C 1.899199995 3.52510638829787  1.975999995 3.74297872340425  1.9248 3.96085105851064  L 1.745599995 5.05021276595745  L 2.6928 4.50553192021277  Z " fill-rule="nonzero" fill="#5b5b5b" stroke="none" transform="matrix(1 0 0 1 916 2524 )" />
  </g>
</svg>