<?xml version="1.0" encoding="utf-8"?>
<svg version="1.1" xmlns:xlink="http://www.w3.org/1999/xlink" width="14px" height="16px" xmlns="http://www.w3.org/2000/svg">
  <g transform="matrix(1 0 0 1 -912 -2396 )">
    <path d="M 10.935370075 14.3839893333333  L 8.97116206 15.860679  L 7.0082184375 14.3839893333333  L 5.045274815 15.860679  L 3.08043463 14.3839893333333  L 1.051743455 15.860679  L 0.135070914999999 15.860679  L 0.135070914999999 2.08119961403509  C 0.135070914999999 0.993012421052632  1.014444375 0.11143501754386  2.0999111 0.11143501754386  L 11.9165257925 0.11143501754386  C 13.00136033 0.11143501754386  13.8813659775 0.993012421052632  13.8813659775 2.08119961403509  L 13.8813659775 15.860679  L 12.96406125 15.860679  L 10.935370075 14.3839893333333  Z M 12.898945885 2.08119961403509  C 12.898945885 1.53678912280702  12.460207445 1.09631731578947  11.9165257925 1.09631731578947  L 2.0992789125 1.09631731578947  C 1.55559726 1.09631731578947  1.11685882 1.53615535087719  1.11685882 2.08119961403509  L 1.11685882 14.905584  L 3.0798024425 13.4010083333333  L 5.0446426275 14.9695950175439  L 7.00758625 13.4010083333333  L 8.9705298725 14.9695950175439  L 10.935370075 13.4010083333333  L 12.8983136975 14.8897397017544  L 12.8983136975 2.08119961403509  Z M 10.9360022625 9.46338045614035  C 10.9360022625 9.73526880701754  10.71473648 9.95518784210526  10.44416002 9.95518784210526  L 3.5722768725 9.95518784210526  C 3.2998038675 9.95518784210526  3.08043463 9.7352688245614  3.08043463 9.46338045614035  C 3.08043463 9.19212587719298  3.29980385 8.97030552631579  3.5722768725 8.97030554385965  L 10.44416002 8.97030554385965  C 10.7147364625 8.97030554385965  10.9360022625 9.19212587719298  10.9360022625 9.46338045614035  Z M 10.9360022625 6.49922696491228  C 10.9360022625 6.77111531578947  10.71473648 6.99103435087719  10.44416002 6.99103435087719  L 3.5722768725 6.99103435087719  C 3.2998038675 6.99103435087719  3.08043463 6.77111533333333  3.08043463 6.49922696491228  C 3.08043463 6.22607107017544  3.29980385 6.00615203508772  3.5722768725 6.00615205263158  L 10.44416002 6.00615205263158  C 10.7147364625 6.00615205263158  10.9360022625 6.22607107017544  10.9360022625 6.49922696491228  Z M 10.9360022625 3.55725552631579  C 10.9360022625 3.82914387719298  10.71473648 4.0490629122807  10.44416002 4.04906289473684  L 3.5722768725 4.04906289473684  C 3.2998038675 4.04906289473684  3.08043463 3.82914387719298  3.08043463 3.55725552631579  C 3.08043463 3.2853671754386  3.29980385 3.06418059649123  3.5722768725 3.06418059649123  L 10.44416002 3.06418059649123  C 10.7147364625 3.06418059649123  10.9360022625 3.28600092982456  10.9360022625 3.55725552631579  Z " fill-rule="nonzero" fill="#8e8e8e" stroke="none" transform="matrix(1 0 0 1 912 2396 )" />
  </g>
</svg>