<?xml version="1.0" encoding="utf-8"?>
<svg version="1.1" xmlns:xlink="http://www.w3.org/1999/xlink" width="14px" height="17px" xmlns="http://www.w3.org/2000/svg">
  <g transform="matrix(1 0 0 1 -912 -2302 )">
    <path d="M 2.4285714375 12.7389610306818  L 2.4285714375 13.4454545454545  L 11.5714285625 13.4454545454545  L 11.5714285625 12.7389610306818  L 2.4285714375 12.7389610306818  Z M 2.4285714375 9.20649351477273  L 2.4285714375 9.91298701022727  L 11.5714285625 9.91298701022727  L 11.5714285625 9.20649351477273  L 2.4285714375 9.20649351477273  Z M 13.8571428541667 2.84805193977273  C 13.8571428541667 2.0676807623152  13.1749100933366 1.43506492954545  12.3333333333333 1.43506492954545  L 10.8095238125 1.43506492954545  L 10.8095238125 0.0220779193181819  L 10.0476190416667 0.0220779193181819  L 10.0476190416667 1.43506492954545  L 3.95238095833333 1.43506492954545  L 3.95238095833333 0.0220779193181819  L 3.1904761875 0.0220779193181819  L 3.1904761875 1.43506492954545  L 1.66666666666667 1.43506492954545  C 0.825089906663448 1.43506492954545  0.142857145833333 2.0676807623152  0.142857145833334 2.84805193977273  L 0.142857145833333 15.5649350704545  C 0.142857145833333 16.3453062479121  0.825089906663448 16.9779220806818  1.66666666666667 17  L 12.3333333333333 17  C 13.1749100933366 16.9779220806818  13.8571428541667 16.3453062479121  13.8571428541667 15.5649350704545  L 13.8571428541667 2.84805193977273  Z M 13 2.84805193977273  L 13 15.5649350704545  C 13.0952380926607 15.9551206569737  12.754121710952 16.2714285659091  12.3333333333333 16  L 1.66666666666667 16  C 1.24587828904802 16.2714285659091  0.904761907339266 15.9551206569737  1 15.5649350704545  L 1 2.84805193977273  C 0.904761907339266 2.45786635325361  1.24587828904801 2.14155844431818  1.66666666666667 2.14155844431818  L 3.1904761875 2.14155844431818  L 3.1904761875 2.84805193977273  L 3.95238095833333 2.84805193977273  L 3.95238095833333 2.14155844431818  L 10.0476190416667 2.14155844431818  L 10.0476190416667 2.84805193977273  L 10.8095238125 2.84805193977273  L 10.8095238125 2.14155844431818  L 12.3333333333333 2.14155844431818  C 12.754121710952 2.14155844431818  13.0952380926607 2.45786635325361  13 2.84805193977273  Z M 2.4285714375 5.67402597954545  L 2.4285714375 6.380519475  L 11.5714285625 6.380519475  L 11.5714285625 5.67402597954545  L 2.4285714375 5.67402597954545  Z " fill-rule="nonzero" fill="#5b5b5b" stroke="none" transform="matrix(1 0 0 1 912 2302 )" />
  </g>
</svg>