<?xml version="1.0" encoding="utf-8"?>
<svg version="1.1" xmlns:xlink="http://www.w3.org/1999/xlink" width="32px" height="32px" xmlns="http://www.w3.org/2000/svg">
  <g transform="matrix(1 0 0 1 -903 -2471 )">
    <path d="M 919 2471  C 927.96 2471  935 2478.04  935 2487  C 935 2495.96  927.96 2503  919 2503  C 910.04 2503  903 2495.96  903 2487  C 903 2478.04  910.04 2471  919 2471  Z " fill-rule="nonzero" fill="#fdfdfd" stroke="none" />
    <path d="M 919 2471.5  C 927.68 2471.5  934.5 2478.32  934.5 2487  C 934.5 2495.68  927.68 2502.5  919 2502.5  C 910.32 2502.5  903.5 2495.68  903.5 2487  C 903.5 2478.32  910.32 2471.5  919 2471.5  Z " stroke-width="1" stroke="#f1f1f4" fill="none" />
  </g>
</svg>