<?xml version="1.0" encoding="utf-8"?>
<svg version="1.1" xmlns:xlink="http://www.w3.org/1999/xlink" width="12px" height="14px" xmlns="http://www.w3.org/2000/svg">
  <g transform="matrix(1 0 0 1 -913 -2522 )">
    <path d="M 11.7208163265306 13.91911110625  C 11.6685714336735 13.944  11.6163265255102 13.9688888791667  11.5379591785714 13.96888889375  C 11.4857142857143 13.96888889375  11.4073469387755 13.944  11.3551020459184 13.91911110625  L 6 11.28088889375  L 0.644897954081633 13.91911110625  C 0.514285714285714 13.9688888791667  0.383673459183673 13.9688888791667  0.253061219387755 13.8942222270833  C 0.148571418367347 13.8195555604167  0.0702040714285713 13.6951111208333  0 13.5706666666667  L 0 1.37511110625  C 0.070204086734694 0.628444439583333  0.697142862244898 0.0311111062499995  1.48081633163265 0.0311111062499995  L 10.4930612295918 0.0311111062499995  C 11.2767346989796 0.0311111062499995  11.9036734744898 0.628444439583333  12 1.37511110625  L 12 13.5955555604167  C 11.9036734744898 13.72  11.825306127551 13.8444444541667  11.7208163265306 13.91911110625  Z M 5.81714285204082 10.5342222270833  C 5.86938774489796 10.5093333333333  5.94775509183673 10.4844444541667  6 10.4844444395833  C 6.05224489285714 10.4844444395833  6.13061223979592 10.5093333333333  6.18285714795918 10.5342222270833  L 11 12.9733333333333  L 11 1.37511110625  C 11.1461224438776 1.05155554583333  10.8587755102041 0.777777772916667  10.5191836683673 0.777777772916667  L 1.48081633163265 0.777777772916667  C 1.14122448979592 0.777777772916667  0.853877556122449 1.05155554583333  1 1.37511110625  L 1 12.9733333333333  L 5.81714285204082 10.5342222270833  Z " fill-rule="nonzero" fill="#5b5b5b" stroke="none" transform="matrix(1 0 0 1 913 2522 )" />
  </g>
</svg>