<?xml version="1.0" encoding="utf-8"?>
<svg version="1.1" xmlns:xlink="http://www.w3.org/1999/xlink" width="10px" height="300px" preserveAspectRatio="xMidYMin meet" viewBox="456 962  8 300" xmlns="http://www.w3.org/2000/svg">
  <path d="M 446 1257  L 455 1257  A 5 5 0 0 0 460 1252 L 460 972  A 5 5 0 0 1 465 967 L 469 967  " stroke-width="2" stroke="#d7af1f" fill="none" />
  <path d="M 447.5 1253.5  A 3.5 3.5 0 0 0 444 1257 A 3.5 3.5 0 0 0 447.5 1260.5 A 3.5 3.5 0 0 0 451 1257 A 3.5 3.5 0 0 0 447.5 1253.5 Z M 467.5 963.5  A 3.5 3.5 0 0 0 464 967 A 3.5 3.5 0 0 0 467.5 970.5 A 3.5 3.5 0 0 0 471 967 A 3.5 3.5 0 0 0 467.5 963.5 Z " fill-rule="nonzero" fill="#d7af1f" stroke="none" />
</svg>