<?xml version="1.0" encoding="utf-8"?>
<svg version="1.1" xmlns:xlink="http://www.w3.org/1999/xlink" width="17px" height="17px" xmlns="http://www.w3.org/2000/svg">
  <g transform="matrix(1 0 0 1 -99 -2127 )">
    <path d="M 1.63414633939307 7.52027467164978  L 7.51839779349435 7.52027467164978  L 7.51839779349435 1.6360232175482  C 7.51839779349435 1.09460665054093  7.9573769489182 0.655359342848704  8.49906166819385 0.655359342848704  C 9.04074638747009 0.655359342848704  9.47972554289334 1.09433849827225  9.47972556971175 1.6360232175482  L 9.47972556971175 7.52027467164978  L 15.3639769969952 7.52027467164978  C 15.9053935640022 7.52027467164978  16.3446408716947 7.95925382707333  16.3446408985125 8.50093857316709  C 16.3446409253303 9.04262331926085  15.9056617430887 9.48160244786658  15.3639769969952 9.48160244786658  L 9.47972556971175 9.48160244786658  L 9.47972556971175 15.3658539019682  C 9.47972556971175 15.9072704689754  9.04074641428791 16.3465177766677  8.49906166819385 16.3465177766677  C 7.95764510118687 16.3465177766677  7.51839779349435 15.9075386212441  7.51839779349435 15.3658539019682  L 7.51839779349435 9.48160244786658  L 1.63414633939307 9.48160244786658  C 1.09702034277339 9.47114418757505  0.663940724985108 9.03833272205515  0.653482464693577 8.50093857316709  C 0.653482464693577 7.95952200615982  1.09246162011742 7.52027469846759  1.63414633939307 7.52027467164978  Z " fill-rule="nonzero" fill="#797979" stroke="none" transform="matrix(1 0 0 1 99 2127 )" />
  </g>
</svg>