<?xml version="1.0" encoding="utf-8"?>
<svg version="1.1" xmlns:xlink="http://www.w3.org/1999/xlink" width="23px" height="24px" xmlns="http://www.w3.org/2000/svg">
  <g transform="matrix(1 0 0 1 -407 -168 )">
    <path d="M 22.051423891129 19.93125  L 19.1770035282258 17.02822265625  L 22.0488155241935 14.1251953125  C 22.380078125 13.79033203125  22.380078125 13.24716796875  22.0488155241935 12.9123046875  C 21.7175529233871 12.57744140625  21.1802293346774 12.57744140625  20.848966733871 12.9123046875  L 17.9797631048387 15.81533203125  L 15.1053427419355 12.9123046875  C 14.774080141129 12.57744140625  14.2367565524194 12.57744140625  13.9054939516129 12.9123046875  C 13.5742313508065 13.24716796875  13.5742313508065 13.79033203125  13.9054939516129 14.1251953125  L 16.7773059475806 17.02822265625  L 13.9081023185484 19.93125  C 13.5768397177419 20.26611328125  13.5768397177419 20.80927734375  13.9081023185484 21.144140625  C 14.0724294354839 21.31025390625  14.2915322580645 21.39462890625  14.5080267137097 21.39462890625  C 14.7245211693548 21.39462890625  14.941015625 21.31025390625  15.107951108871 21.144140625  L 17.9797631048387 18.24111328125  L 20.8515751008065 21.144140625  C 21.0159022177419 21.31025390625  21.2350050403226 21.39462890625  21.4514994959677 21.39462890625  C 21.6679939516129 21.39462890625  21.8844884072581 21.31025390625  22.051423891129 21.144140625  C 22.3826864919355 20.80927734375  22.3826864919355 20.26611328125  22.051423891129 19.93125  Z M 11.8161920362903 22.9740234375  C 11.8161920362903 22.46513671875  11.4092867943548 22.051171875  10.903263608871 22.051171875  L 2 22.051171875  L 2 2  L 20.4707535282258 2  L 20.4707535282258 8.3244140625  C 20.4707535282258 8.83330078125  20.8802671370968 9.247265625  21.3836819556452 9.247265625  C 21.8870967741935 9.247265625  22.2966103830645 8.83330078125  22.2966103830645 8.3244140625  L 22.2966103830645 1.0892578125  C 22.2966103830645 0.58037109375  21.8870967741935 0.16640625  21.3836819556452 0.16640625  L 1.07232862903226 0.16640625  C 0.568913810483871 0.16640625  0.159400201612903 0.58037109375  0.159400201612903 1.0892578125  L 0.159400201612903 22.9740234375  C 0.159400201612903 23.48291015625  0.568913810483871 23.896875  1.07232862903226 23.896875  L 10.903263608871 23.896875  C 11.4066784274194 23.896875  11.8161920362903 23.48291015625  11.8161920362903 22.9740234375  Z M 17.2520287298387 7.38837890625  C 17.7580519153226 7.38837890625  18.1675655241935 6.9744140625  18.1675655241935 6.46552734375  C 18.1675655241935 5.956640625  17.7580519153226 5.54267578125  17.2546370967742 6  L 5.50133568548387 6  C 4.99792086693548 5.54267578125  4.58840725806452 5.956640625  4.58840725806452 6.46552734375  C 4.58840725806452 6.9744140625  4.99792086693548 7.38837890625  5.50133568548387 7.38837890625  L 17.2520287298387 7.38837890625  Z M 10.4754914314516 12.833203125  C 10.97890625 12.833203125  11.388419858871 12.41923828125  11.388419858871 11.9103515625  C 11.388419858871 11.40146484375  10.97890625 10.9875  10.4754914314516 10.9875  L 5.50133568548387 10.9875  C 4.99792086693548 10.9875  4.58840725806452 11.40146484375  4.58840725806452 11.9103515625  C 4.58840725806452 12.41923828125  4.99792086693548 12.833203125  5.50133568548387 12.833203125  L 10.4754914314516 12.833203125  Z M 8.27924647177419 16.4349609375  L 5.50133568548387 16.4349609375  C 4.99792086693548 16.4349609375  4.58840725806452 16.84892578125  4.58840725806452 17.3578125  C 4.58840725806452 17.86669921875  4.99792086693548 18.2806640625  5.50133568548387 18.2806640625  L 8.27924647177419 18.2806640625  C 8.78266129032258 18.2806640625  9.19217489919355 17.86669921875  9.19217489919355 17.3578125  C 9.19217489919355 16.84892578125  8.78266129032258 16.4349609375  8.27924647177419 16.4349609375  Z " fill-rule="nonzero" fill="#444444" stroke="none" transform="matrix(1 0 0 1 407 168 )" />
  </g>
</svg>