<?xml version="1.0" encoding="utf-8"?>
<svg version="1.1" xmlns:xlink="http://www.w3.org/1999/xlink" width="10px" height="119px" preserveAspectRatio="xMidYMin meet" viewBox="456 69  8 119" xmlns="http://www.w3.org/2000/svg">
  <path d="M 435 183  L 455 183  A 5 5 0 0 0 460 178 L 460 79  A 5 5 0 0 1 465 74 L 469 74  " stroke-width="2" stroke="#d7af1f" fill="none" />
  <path d="M 436.5 179.5  A 3.5 3.5 0 0 0 433 183 A 3.5 3.5 0 0 0 436.5 186.5 A 3.5 3.5 0 0 0 440 183 A 3.5 3.5 0 0 0 436.5 179.5 Z M 467.5 70.5  A 3.5 3.5 0 0 0 464 74 A 3.5 3.5 0 0 0 467.5 77.5 A 3.5 3.5 0 0 0 471 74 A 3.5 3.5 0 0 0 467.5 70.5 Z " fill-rule="nonzero" fill="#d7af1f" stroke="none" />
</svg>