<?xml version="1.0" encoding="utf-8"?>
<svg version="1.1" xmlns:xlink="http://www.w3.org/1999/xlink" width="10px" height="56.8461538461524px" preserveAspectRatio="xMidYMin meet" viewBox="1233 2644  8 56.8461538461524" xmlns="http://www.w3.org/2000/svg">
  <path d="M 429 2383  L 429 2690.84615384615  A 5 5 0 0 0 434 2695.84615384615 L 1232 2695.84615384615  A 5 5 0 0 0 1237 2690.84615384615 L 1237 2646  " stroke-width="2" stroke="#f2c21f" fill="none" />
  <path d="M 429 2381  A 3.5 3.5 0 0 0 425.5 2384.5 A 3.5 3.5 0 0 0 429 2388 A 3.5 3.5 0 0 0 432.5 2384.5 A 3.5 3.5 0 0 0 429 2381 Z M 1237 2644  A 3.5 3.5 0 0 0 1233.5 2647.5 A 3.5 3.5 0 0 0 1237 2651 A 3.5 3.5 0 0 0 1240.5 2647.5 A 3.5 3.5 0 0 0 1237 2644 Z " fill-rule="nonzero" fill="#f2c21f" stroke="none" />
</svg>