<?xml version="1.0" encoding="utf-8"?>
<svg version="1.1" xmlns:xlink="http://www.w3.org/1999/xlink" width="27px" height="10px" preserveAspectRatio="xMinYMid meet" viewBox="428 2071  27 8" xmlns="http://www.w3.org/2000/svg">
  <path d="M 430 2075  L 445 2075  A 5 5 0 0 0 450 2070 L 450 1859  A 5 5 0 0 1 455 1854 L 480 1854  " stroke-width="2" stroke="#f2c21f" fill="none" />
  <path d="M 431.5 2071.5  A 3.5 3.5 0 0 0 428 2075 A 3.5 3.5 0 0 0 431.5 2078.5 A 3.5 3.5 0 0 0 435 2075 A 3.5 3.5 0 0 0 431.5 2071.5 Z M 478.5 1850.5  A 3.5 3.5 0 0 0 475 1854 A 3.5 3.5 0 0 0 478.5 1857.5 A 3.5 3.5 0 0 0 482 1854 A 3.5 3.5 0 0 0 478.5 1850.5 Z " fill-rule="nonzero" fill="#f2c21f" stroke="none" />
</svg>