<?xml version="1.0" encoding="utf-8"?>
<svg version="1.1" xmlns:xlink="http://www.w3.org/1999/xlink" width="21px" height="20px" preserveAspectRatio="xMinYMid meet" viewBox="55 623  21 18" xmlns="http://www.w3.org/2000/svg">
  <path d="M 67 632  L 55 632  A 5 5 0 0 1 50 627 L 50 36  A 5 5 0 0 1 55 31 L 975 31  A 5 5 0 0 1 980 36 L 980 52  " stroke-width="2" stroke="#f2c21f" fill="none" />
  <path d="M 65.5 628.5  A 3.5 3.5 0 0 0 62 632 A 3.5 3.5 0 0 0 65.5 635.5 A 3.5 3.5 0 0 0 69 632 A 3.5 3.5 0 0 0 65.5 628.5 Z M 980 47  A 3.5 3.5 0 0 0 976.5 50.5 A 3.5 3.5 0 0 0 980 54 A 3.5 3.5 0 0 0 983.5 50.5 A 3.5 3.5 0 0 0 980 47 Z " fill-rule="nonzero" fill="#f2c21f" stroke="none" />
</svg>