<?xml version="1.0" encoding="utf-8"?>
<svg version="1.1" xmlns:xlink="http://www.w3.org/1999/xlink" width="28px" height="9px" xmlns="http://www.w3.org/2000/svg">
  <g transform="matrix(1 0 0 1 -166 -344 )">
    <path d="M 8.49211807869807 0.156181931976411  L 7.78204303322042 0.156181931976411  C 7.78204303322042 0.156181931976411  7.78204303322042 8.01409996650418  7.78204303322042 8.01409996650418  C 7.78204303322042 8.18980495513232  7.70527777699098 8.24837264476962  7.52296117519174 8.25813402915464  C 7.34064457339251 8.26789541808517  6.72652595521587 8.27765751005306  6.05483306123365 8.24837334932215  C 6.16038459745116 8.44360109156867  6.27553238647146 8.76572553838332  6.31391491926233 8.95119194624532  C 7.20630694783465 8.95119194624532  7.74366030978184 8.94143046640479  8.06031549037752 8.82429379923847  C 8.36737518076127 8.70715713207216  8.49211807869807 8.50216935242383  8.49211807869807 8.01409996650418  C 8.49211807869807 8.01409996650418  8.49211807869807 0.156181931976411  8.49211807869807 0.156181931976411  Z M 6.59218699512399 1.14208215941358  L 5.9013029300702 1.14208215941358  L 5.9013029300702 6.56941384720491  L 6.59218699512399 6.56941384720491  L 6.59218699512399 1.14208215941358  Z M 4.17409219549257 3.5726675364433  L 1.41055526801038 3.5726675364433  L 1.41055526801038 4.22668118267326  L 4.17409219549257 4.22668118267326  L 4.17409219549257 3.5726675364433  Z M 1.80397541886393 3.5726675364433  L 1.10349557762663 3.5726675364433  C 1.10349557762663 3.5726675364433  1.10349557762663 7.77006435232298  1.10349557762663 7.77006435232298  C 1.10349557762663 8.62906652972397  1.39136400161495 8.8438167104342  2.32213875362585 8.8438167104342  C 2.52364662182051 8.8438167104342  3.88622367618039 8.8438167104342  4.10692281077049 8.8438167104342  C 4.96093259252352 8.8438167104342  5.17203633222554 8.46312294820835  5.2583968880192 7.10629002626052  C 5.06648422406488 7.06724447053841  4.77861589540042 6.95010814276944  4.62508576423697 6.8232101412186  C 4.57710774123418 7.99457666742577  4.50034305694789 8.19956529556747  4.05894478776769 8.19956529556747  C 3.76148087356745 8.19956529556747  2.61000736826188 8.19956529556747  2.37971245748828 8.19956529556747  C 1.8903361653053 8.19956529556747  1.80397541886393 8.13123641548648  1.80397541886393 7.76030367249048  C 1.80397541886393 7.76030367249048  1.80397541886393 3.5726675364433  1.80397541886393 3.5726675364433  Z M 4.60589516510855 3.5726675364433  C 4.60589516510855 3.5726675364433  3.91501071875932 3.5726675364433  3.91501071875932 3.5726675364433  C 3.91501071875932 3.5726675364433  3.91501071875932 3.68980461573497  3.91501071875932 3.68980461573497  C 3.8382456531776 5.28091062958876  3.74228979781973 5.86659379572167  3.60795121902329 6.03253728026662  C 3.53118615344156 6.11062839171083  3.45442108785984 6.13015106047988  3.32967799927532 6.13015106047988  C 3.19533942047888 6.13015106047988  2.85949297348777 6.12039004125003  2.49485948391772 6.08134455825593  C 2.60041130610681 6.2570494499134  2.66758069082889 6.52060719952496  2.68677195722432 6.71583490540748  C 3.06100093700629 6.73535771963254  3.43523001211212 6.73535771963254  3.63673788030679 6.71583490540748  C 3.87662828129232 6.69631209118243  4.03015803116033 6.63774389093394  4.18368787635221 6.46203899927647  C 4.40438701094231 6.21800425783131  4.50034315227175 5.56399090251336  4.58670342209383 3.86550926496576  C 4.5962994842489 3.77765703732104  4.60589516510855 3.5726675364433  4.60589516510855 3.5726675364433  Z M 3.07059652254208 0.497830744546844  C 3.07059652254208 0.497830744546844  2.59081591121874 0.907808970536949  2.59081591121874 0.907808970536949  C 3.41603865039283 1.78633415610433  4.44276954373317 3.00650776635947  4.92255034570423 3.74837296143946  C 4.92255034570423 3.74837296143946  5.44071329917072 3.25054182900994  5.44071329917072 3.25054182900994  C 4.95133700698773 2.51843789558646  3.90541503789968 1.35683282497716  3.07059652254208 0.497830744546844  Z M 3.40644344615248 0.224511927220107  C 3.40644344615248 0.224511927220107  2.74434566108675 0.0195225233130422  2.74434566108675 0.0195225233130422  C 2.23577810250834 1.27874156807694  1.20904739981571 2.63557458699545  0 3.52386103421936  C 0.153529821360911 3.63123636700115  0.412611393418013 3.88503227313216  0.527758777311919 4.03145323436406  C 1.7751887099185 3.04555329783891  2.79232406538498 1.65943600909749  3.40644344615248 0.224511927220107  Z M 18.548322223837 2.06941423508759  L 12.3399594127353 2.06941423508759  L 12.3399594127353 2.66485875984769  L 18.548322223837 2.66485875984769  L 18.548322223837 2.06941423508759  Z M 17.9150118626456 4.70498901602438  L 12.9061015330909 4.70498901602438  L 12.9061015330909 5.26138771839303  L 17.9150118626456 5.26138771839303  L 17.9150118626456 4.70498901602438  Z M 18.3372187701065 6.04229873586448  L 12.4742974195886 6.04229873586448  L 12.4742974195886 6.64750549198781  L 18.3372187701065 6.64750549198781  L 18.3372187701065 6.04229873586448  Z M 15.6984255984759 0.0780912569002174  L 14.9979447086761 0.0780912569002174  L 14.9979447086761 7.68221202770758  L 15.6984255984759 7.68221202770758  L 15.6984255984759 0.0780912569002174  Z M 17.8286514974997 0.790672085186622  L 13.0308446216754 0.790672085186622  L 13.0308446216754 1.3763553482902  L 17.1185756894312 1.3763553482902  L 17.1185756894312 3.38720143161465  L 12.963674093067 3.38720143161465  L 12.963674093067 3.97288488865957  L 17.8286514974997 3.97288488865957  L 17.8286514974997 0.790672085186622  Z M 11.8026043349587 0.624728891553691  L 9.72995175850185 0.624728891553691  L 9.72995175850185 1.27874156807694  L 11.8026043349587 1.27874156807694  L 11.8026043349587 0.624728891553691  Z M 11.6490749663861 0.624728891553691  L 11.5435232395209 0.624728891553691  C 11.5435232395209 0.624728891553691  11.5435232395209 0.712581410110429  11.5435232395209 0.712581410110429  C 11.1884855261343 1.53253786209064  10.4496229137965 3.11388271125858  9.85469484708637 4.25596516158417  C 9.85469484708637 4.25596516158417  10.507196569997 4.44143126641282  10.507196569997 4.44143126641282  C 11.0925290511714 3.27982629277419  11.8122007784092 1.76681105096727  12.2535990475894 0.741865195079993  C 12.2535990475894 0.741865195079993  11.764222374111 0.585683263103582  11.764222374111 0.585683263103582  L 11.6490749663861 0.624728891553691  Z M 12.1768336007122 3.40672434281037  L 10.6031526160026 3.40672434281037  L 10.5167922508567 4.06073721327497  L 12.1768336007122 4.06073721327497  L 12.1768336007122 3.40672434281037  Z M 12.0233034695488 3.40672434281037  L 11.8793697818358 3.40672434281037  C 11.8793697818358 3.40672434281037  11.8793697818358 3.55314540101294  11.8793697818358 3.55314540101294  C 11.6394793808503 6.07158329659941  10.8718301548909 7.66268940742387  9.65318707421556 8.49240741197261  C 9.81631251685871 8.59002130127788  10.0849896863671 8.8535791842241  10.200137070261 9  C 11.4475670028676 8.08242957386519  12.2823858041967 6.33514046438694  12.5702542281851 3.49457666742577  C 12.5702542281851 3.49457666742577  12.1576422389929 3.38720143161465  12.1576422389929 3.38720143161465  L 12.0233034695488 3.40672434281037  Z M 15.6312550698675 8.02386064633667  C 13.1939690991645 8.02386064633667  11.4091843747528 7.53579116344635  10.6319396585815 4.84164823074641  C 10.6319396585815 4.84164823074641  10.0562026199572 5.06616015796652  10.0562026199572 5.06616015796652  C 10.9869771813204 8.1312358821478  12.8389310044825 8.72668079479058  15.6120637081482 8.72668079479058  C 15.6120637081482 8.72668079479058  18.3180274083872 8.72668079479058  18.3180274083872 8.72668079479058  C 18.36600543139 8.511930274683  18.500343628891 8.18004356014112  18.6154912272636 8.01409996650418  C 18.1069233827136 8.0238613554347  16.0342708062568 8.02386064633667  15.6312550698675 8.02386064633667  Z M 28 3.1431669810815  L 19.4503101239167 3.1431669810815  L 19.4503101239167 3.79717946366341  L 28 3.79717946366341  L 28 3.1431669810815  Z M 25.8505827392569 1.22993467797032  L 20.2947239388385 1.22993467797032  L 20.2947239388385 1.88394813025893  L 25.8505827392569 1.88394813025893  L 25.8505827392569 1.22993467797032  Z M 26.3687449301325 6.41323172128716  L 21.8492135618288 6.41323172128716  L 21.8492135618288 6.9989147904494  L 26.3687449301325 6.9989147904494  L 26.3687449301325 6.41323172128716  Z M 26.3687449301325 8.03362132616917  L 21.8492135618288 8.03362132616917  L 21.8492135618288 8.66811206120341  L 26.3687449301325 8.66811206120341  L 26.3687449301325 8.03362132616917  Z M 23.4612757447953 0  L 22.7607963801773 0  L 22.7607963801773 3.49457666742577  L 23.4612757447953 3.49457666742577  L 23.4612757447953 0  Z M 27.5777930925391 0.673535781660321  C 27.5777930925391 0.673535781660321  26.9636725678853 0.341648230746409  26.9636725678853 0.341648230746409  C 25.1884840009526 2.76247254006095  22.3289934105613 4.65618212591775  19.2296102267357 5.7494573952247  C 19.3735444625608 5.89587821100059  19.6038393018415 6.19848081329689  19.6901998576352 6.36442444329784  C 22.7607963801773 5.16377374423843  25.6490749663861 3.24078076129476  27.5777930925391 0.673535781660321  Z M 26.829334561032 4.83188677514855  L 21.455792934356 4.83188677514855  L 21.455792934356 8.99023776863677  L 22.1754636606933 8.99023776863677  L 22.1754636606933 5.44685459898706  L 26.0808790798884 5.44685459898706  L 26.0808790798884 8.95119194624532  L 26.829334561032 8.95119194624532  L 26.829334561032 4.83188677514855  Z " fill-rule="nonzero" fill="#ffffff" stroke="none" transform="matrix(1 0 0 1 166 344 )" />
  </g>
</svg>