<?xml version="1.0" encoding="utf-8"?>
<svg version="1.1" xmlns:xlink="http://www.w3.org/1999/xlink" width="26px" height="8px" xmlns="http://www.w3.org/2000/svg">
  <g transform="matrix(1 0 0 1 -164 -507 )">
    <path d="M 6.83408036172293 7.18103428268854  L 2.0896861587071 7.18103428268854  L 2.0896861587071 7.68103432550797  L 6.83408036172293 7.68103432550797  L 6.83408036172293 7.18103428268854  Z M 4.45739936965607 1.78448297640915  L 3.80269058517242 1.78448297640915  L 3.80269058517242 2.74137931477442  L 4.45739936965607 2.74137931477442  L 4.45739936965607 1.78448297640915  Z M 7.97309387413693 2.45689663810126  L 0.394618809094743 2.45689663810126  L 0.394618809094743 4.07758640253703  L 1.04035883241409 4.07758640253703  L 1.04035883241409 2.97413800855241  L 7.30941713034513 2.97413800855241  L 7.30941713034513 4.07758640253703  L 7.97309387413693 4.07758640253703  L 7.97309387413693 2.45689663810126  Z M 6.65470834586148 3.5086210491907  L 2.0538114704304 3.5086210491907  L 2.0538114704304 3.99999965744459  L 5.99103160206968 3.99999965744459  L 5.99103160206968 4.74137931477442  L 2.0538114704304 4.74137931477442  L 2.0538114704304 5.24137935759385  L 6.65470834586148 5.24137935759385  L 6.65470834586148 3.5086210491907  Z M 7.22869979448358 5.83620695930433  L 2.08071748663792 5.83620695930433  L 2.08071748663792 6.34482706646765  L 6.56502233793075 6.34482706646765  L 6.56502233793075 7.95689625272642  L 7.22869979448358 7.95689625272642  L 7.22869979448358 5.83620695930433  Z M 2.34080719474145 3.5086210491907  L 1.69506726051723 3.5086210491907  L 1.69506726051723 7.97413775163585  L 2.34080719474145 7.97413775163585  L 2.34080719474145 3.5086210491907  Z M 4.02690596137976 0.698276081333959  L 1.13004484034482 0.698276081333959  L 1.13004484034482 1.23275860813913  L 4.02690596137976 1.23275860813913  L 4.02690596137976 0.698276081333959  Z M 8.25112056999829 0.698276081333959  L 4.62780271344835 0.698276081333959  L 4.62780271344835 1.23275860813913  L 8.25112056999829 1.23275860813913  L 8.25112056999829 0.698276081333959  Z M 1.93721980267266 0.155172462518657  C 1.93721980267266 0.155172462518657  1.30044836232736 0  1.30044836232736 0  C 1.02242144372817 0.672413832969811  0.538116582155139 1.35344807283893  0 1.80172379020776  C 0.161434994692946 1.87931002146709  0.430493252359842 2.06034507490531  0.556053837198362 2.15517246251866  C 1.07623316431028 1.66379334043165  1.60538111894381 0.913793104924808  1.93721980267266 0.155172462518657  Z M 5.4708514731016 0.146551884341647  C 5.4708514731016 0.146551884341647  4.83408074551734 0  4.83408074551734 0  C 4.54708519939654 0.6637932547928  4.02690551590411 1.30172408994375  3.4349771686193 1.71551698077142  C 3.60538069060184 1.79310321203075  3.88340827741449 1.94827601710482  4.01793728931058 2.04310340471817  C 4.58295988767325 1.59482768734933  5.14798141689437 0.896551948570786  5.4708514731016 0.146551884341647  Z M 2.21524649853402 0.956896509642978  C 2.21524649853402 0.956896509642978  1.63228709060377 1.10344839398462  1.63228709060377 1.10344839398462  C 1.83856512267275 1.42241389719895  2.05381164862065 1.85344845821376  2.13452916267246 2.12068946469979  C 2.13452916267246 2.12068946469979  2.74439458681024 1.94827584582711  2.74439458681024 1.94827584582711  C 2.65470831159412 1.68103432550797  2.421524530603 1.25862085650328  2.21524649853402 0.956896509642978  Z M 6.02690557758535 0.939655353288956  C 6.02690557758535 0.939655353288956  5.43497749758593 1.11206897216164  5.43497749758593 1.11206897216164  C 5.72197304370673 1.42241389719895  6.02690575577561 1.86206886511307  6.15246627379279 2.13793096360923  C 6.15246627379279 2.13793096360923  6.76233169793056 1.94827584582711  6.76233169793056 1.94827584582711  C 6.62780268603447 1.66379316915395  6.30493209525646 1.24137918631614  6.02690557758535 0.939655353288956  Z M 12.896860627585 3.74137922913557  L 12.896860627585 2.62931025697394  L 16.2331838289654 2.62931025697394  L 16.2331838289654 3.74137922913557  L 12.896860627585 3.74137922913557  Z M 12.896860627585 2.09482790144647  L 12.896860627585 0.999999914361147  L 16.2331838289654 0.999999914361147  L 16.2331838289654 2.09482790144647  L 12.896860627585 2.09482790144647  Z M 16.8789225158578 0.439655139191824  L 12.2869952034472 0.439655139191824  L 12.2869952034472 4.30172383302719  L 16.8789225158578 4.30172383302719  L 16.8789225158578 0.439655139191824  Z M 17.0044839248263 5.31034466812076  L 12.170403179309 5.31034466812076  L 12.170403179309 5.90517226983124  L 17.0044839248263 5.90517226983124  L 17.0044839248263 5.31034466812076  Z M 17.300447964826 7.0948274732522  L 11.4798197065486 7.0948274732522  L 11.4798197065486 7.68103432550797  L 17.300447964826 7.68103432550797  L 17.300447964826 7.0948274732522  Z M 11.8385644510325 0.62068985007463  L 9.04035800999752 0.62068985007463  L 9.04035800999752 1.23275860813913  L 11.8385644510325 1.23275860813913  L 11.8385644510325 0.62068985007463  Z M 11.7130044675862 3.11206931471705  L 9.13901268999742 3.11206931471705  L 9.13901268999742 3.72413773022614  L 11.7130044675862 3.72413773022614  L 11.7130044675862 3.11206931471705  Z M 11.7937218034477 5.55172428263116  C 10.7533629710336 5.88793107065779  9.67712940579525 6.2241378372747  8.95067200206679 6.41379306210538  C 8.95067200206679 6.41379306210538  9.11210667378989 7.07758597434277  9.11210667378989 7.07758597434277  C 9.91031296404855 6.81896528911719  10.9327354323707 6.4913789508093  11.910313827586 6.17241344759497  C 11.910313827586 6.17241344759497  11.7937218034477 5.55172428263116  11.7937218034477 5.55172428263116  Z M 10.8071742906876 0.862069122029627  L 10.1614341782732 0.862069122029627  L 10.1614341782732 6.32758625266904  L 10.8071742906876 6.20689644541384  L 10.8071742906876 0.862069122029627  Z M 14.8609848427529 0.70689665951097  L 14.2690567627534 0.70689665951097  L 14.2690567627534 4.02586190580874  L 14.2242141151686 4.02586190580874  L 14.2242141151686 7.36206865101594  L 14.9058289158598 7.36206865101594  L 14.9058289158598 4.02586190580874  L 14.8609848427529 4.02586190580874  L 14.8609848427529 0.70689665951097  Z M 19.9999990131001 1.96551700218114  L 19.9999990131001 0.991379336184137  L 24.1883382206809 0.991379336184137  L 24.1883382206809 1.96551700218114  L 19.9999990131001 1.96551700218114  Z M 24.9237650537871 0.422413982837803  L 19.3004468682706 0.422413982837803  L 19.3004468682706 2.53448269808288  L 24.9237650537871 2.53448269808288  L 24.9237650537871 0.422413982837803  Z M 22.4035860213745 4.45689663810126  L 21.6860979579287 4.45689663810126  C 21.6860979579287 4.45689663810126  21.6860979579287 5.25000010704857  21.6860979579287 5.25000010704857  C 21.6860979579287 5.93965535328896  21.4260082498252 6.86206869383536  18.1883400848251 7.46551695936171  C 18.3497750461074 7.60344798720007  18.5470839383578 7.86206895075192  18.6278014524096 8  C 21.9910299572365 7.28448276231202  22.4035860213745 6.17241327631727  22.4035860213745 5.26724092084718  C 22.4035860213745 5.26724092084718  22.4035860213745 4.45689663810126  22.4035860213745 4.45689663810126  Z M 22.6816127172359 6.2499995075766  C 22.6816127172359 6.2499995075766  22.3497739889594 6.7241379871427  22.3497739889594 6.7241379871427  C 23.4439441410276 7.07758625266904  24.9147972726693 7.63793100642865  25.6591918868934 8  C 25.6591918868934 8  26 7.45689620990699  26 7.45689620990699  C 25.2197308756894 7.09482721633564  23.7488773876672 6.57758571742621  22.6816127172359 6.2499995075766  Z M 25.273542551724 3.31034518195387  L 18.9865454841325 3.31034518195387  L 18.9865454841325 6.48275837263229  L 19.6771282441318 6.48275837263229  L 19.6771282441318 3.91379284800825  L 24.556051637234 3.91379284800825  L 24.556051637234 6.4224138115601  L 25.273542551724 6.4224138115601  L 25.273542551724 3.31034518195387  Z " fill-rule="nonzero" fill="#ffffff" stroke="none" transform="matrix(1 0 0 1 164 507 )" />
  </g>
</svg>