<?xml version="1.0" encoding="utf-8"?>
<svg version="1.1" xmlns:xlink="http://www.w3.org/1999/xlink" width="16px" height="16px" xmlns="http://www.w3.org/2000/svg">
  <g transform="matrix(1 0 0 1 -1132 -1406 )">
    <path d="M 15.85 7.986  C 15.85 3.642  12.33 0.118000000000001  7.984 0.118  C 3.64 0.118  0.118 3.64  0.118 7.984  C 0.118 12.328  3.64 15.852  7.984 15.852  C 12.328 15.852  15.85 12.33  15.85 7.986  Z M 5.298 6.304  C 4.78 6.304  4.358 5.884  4.358 5.364  C 4.358 4.844  4.778 4.424  5.298 4.424  C 5.818 4.424  6.238 4.844  6.238 5.364  C 6.238 5.884  5.818 6.304  5.298 6.304  Z M 10.696 11.696  C 10.854 11.786  10.9 12  10.79 12.15  C 10.698 12.278  10.524 12.316  10.388 12.24  C 9.684 11.846  8.872 11.62  8.01 11.62  C 7.146 11.62  6.336 11.846  5.632 12.24  C 5.494 12.316  5.322 12.278  5.23 12.15  C 5.12 12  5.166 11.786  5.328 11.696  C 6.138 11.242  7.056 11  8.012 11  C 8.968 11  9.886 11.242  10.696 11.696  Z M 11.658 5.364  C 11.658 5.884  11.238 6.304  10.718 6.304  C 10.198 6.304  9.778 5.884  9.778 5.364  C 9.778 4.844  10.198 4.424  10.718 4.424  C 11.238 4.424  11.658 4.844  11.658 5.364  Z " fill-rule="nonzero" fill="#eaeaea" stroke="none" transform="matrix(1 0 0 1 1132 1406 )" />
  </g>
</svg>