<?xml version="1.0" encoding="utf-8"?>
<svg version="1.1" xmlns:xlink="http://www.w3.org/1999/xlink" width="8px" height="6px" xmlns="http://www.w3.org/2000/svg">
  <g transform="matrix(1 0 0 1 -1037 -1411 )">
    <path d="M 0.822068965517243 3.1872  L 7.17793103448276 3.1872  C 7.17793103448276 4.71415687633218  5.75512284635883 5.952  4 5.952  C 2.24487715364117 5.952  0.822068965517243 4.71415687633218  0.822068965517243 3.1872  Z M 1.1751724137931 0.1152  C 1.76021336257938 0.1152  2.23448275862069 0.52781437455594  2.23448275862069 1.0368  C 2.23448275862069 1.54578562544406  1.76021336257938 1.9584  1.1751724137931 1.9584  C 0.590131465006829 1.9584  0.115862068965518 1.54578562544406  0.115862068965518 1.0368  C 0.115862068965518 0.52781437455594  0.590131465006829 0.1152  1.1751724137931 0.1152  Z M 6.8248275862069 0.1152  C 7.40986853499317 0.1152  7.88413793103448 0.52781437455594  7.88413793103448 1.0368  C 7.88413793103448 1.54578562544406  7.40986853499317 1.9584  6.8248275862069 1.9584  C 6.23978663742062 1.9584  5.76551724137931 1.54578562544406  5.76551724137931 1.0368  C 5.76551724137931 0.52781437455594  6.23978663742062 0.1152  6.8248275862069 0.1152  Z " fill-rule="nonzero" fill="#ffffff" stroke="none" transform="matrix(1 0 0 1 1037 1411 )" />
  </g>
</svg>