<?xml version="1.0" encoding="utf-8"?>
<svg version="1.1" xmlns:xlink="http://www.w3.org/1999/xlink" width="24px" height="21px" xmlns="http://www.w3.org/2000/svg">
  <g transform="matrix(1 0 0 1 -480 -885 )">
    <path d="M 492 885  C 498.72 885  504 889.62  504 895.5  C 504 901.38  498.72 906  492 906  C 485.28 906  480 901.38  480 895.5  C 480 889.62  485.28 885  492 885  Z " fill-rule="nonzero" fill="#ffbf60" stroke="none" />
    <path d="M 492 885.5  C 498.44 885.5  503.5 889.9  503.5 895.5  C 503.5 901.1  498.44 905.5  492 905.5  C 485.56 905.5  480.5 901.1  480.5 895.5  C 480.5 889.9  485.56 885.5  492 885.5  Z " stroke-width="1" stroke="#ffffff" fill="none" />
  </g>
</svg>