<?xml version="1.0" encoding="utf-8"?>
<svg version="1.1" xmlns:xlink="http://www.w3.org/1999/xlink" width="29px" height="38px" xmlns="http://www.w3.org/2000/svg">
  <defs>
    <mask fill="white" id="clip2">
      <path d="M 29 13.3  C 29 22.8  20.3 28.5  14.5 38  C 8.7 28.5  0 22.8  0 13.3  C 0 8.35999999999996  2.9 0  14.5 0  C 26.1 0  29 8.35999999999996  29 13.3  Z " fill-rule="evenodd" />
    </mask>
  </defs>
  <g transform="matrix(1 0 0 1 -503 -80 )">
    <path d="M 29 13.3  C 29 22.8  20.3 28.5  14.5 38  C 8.7 28.5  0 22.8  0 13.3  C 0 8.35999999999996  2.9 0  14.5 0  C 26.1 0  29 8.35999999999996  29 13.3  Z " fill-rule="nonzero" fill="#ffbf60" stroke="none" transform="matrix(1 0 0 1 503 80 )" />
    <path d="M 29 13.3  C 29 22.8  20.3 28.5  14.5 38  C 8.7 28.5  0 22.8  0 13.3  C 0 8.35999999999996  2.9 0  14.5 0  C 26.1 0  29 8.35999999999996  29 13.3  Z " stroke-width="2" stroke="#ffffff" fill="none" transform="matrix(1 0 0 1 503 80 )" mask="url(#clip2)" />
  </g>
</svg>