<?xml version="1.0" encoding="utf-8"?>
<svg version="1.1" xmlns:xlink="http://www.w3.org/1999/xlink" width="34px" height="35px" xmlns="http://www.w3.org/2000/svg">
  <g transform="matrix(1 0 0 1 -1094 -1288 )">
    <path d="M 12.9321428571429 33.5345756880734  C 12.9321428571429 34.1715596330275  12.352119047619 34.6877293577982  11.6369047619048 34.6877293577982  L 3.9015 34.6877293577982  C 1.77245238095238 34.6877293577982  0.0404761904761899 33.1456422018349  0 31.2495412844037  L 0 3.52448394495413  C 0.0404761904761899 1.62878440366973  1.77245238095238 0.0862958715596333  3.9015 0  L 29.8155714285714 0  C 31.944619047619 0.0862958715596333  33.6765952380952 1.62838302752294  33 3.52448394495413  L 33 15.0877293577982  C 33.6765952380952 15.7247133027523  33.0965714285714 16.2412844036697  32.3813571428571 16.2412844036697  C 31.6661428571429 16.2412844036697  31.0861190476191 15.7247133027523  31 15.0877293577982  L 31 3.52448394495413  C 31.0861190476191 2.90074541284404  30.5162142857143 2.39340596330275  29.8155714285714 3  L 3.9015 3  C 3.20085714285714 2.39340596330275  2.63095238095238 2.90074541284404  3 3.52448394495413  L 3 31.2499426605505  C 2.63095238095238 31.8736811926605  3.20085714285714 32.3810206422018  3.9015 32.3810206422018  L 11.6369047619048 32.3810206422018  C 12.352119047619 32.3810206422018  12.9321428571429 32.8975917431193  12.9321428571429 33.5345756880734  Z " fill-rule="nonzero" fill="#30a3f6" stroke="none" transform="matrix(1 0 0 1 1094 1288 )" />
  </g>
</svg>