<?xml version="1.0" encoding="utf-8"?>
<svg version="1.1" xmlns:xlink="http://www.w3.org/1999/xlink" width="40px" height="34px" xmlns="http://www.w3.org/2000/svg">
  <g transform="matrix(1 0 0 1 -896 -1286 )">
    <path d="M 40 6.65979381443299  L 40 10  L 0 10  L 0 6.65979381443299  C 0 5.11111905202087  1.27918642905488 3.85567010309278  2.85714285714286 3.85567010309278  L 6.7476190625 3.85567010309278  C 6.69376534398685 3.70553360070589  6.66638892464228 3.54748422260556  6.66666665178571 3.38831613659794  L 6.66666665178571 1.51890035824742  C 6.66666665178572 0.744562977041363  7.30625986631315 0.11683850257732  8.09523808035715 0.11683850257732  C 8.88421629440113 0.11683850257732  9.52380950892857 0.744562977041362  9.52380950892857 1.51890035824742  L 9.52380950892857 3.38831613659794  C 9.52380950892857 3.55189000515464  9.49523808035715 3.70985567010309  9.44285714285714 4  L 30.5571428571428 4  C 30.5032891538217 3.705533598109  30.4759127495867 3.54748422007986  30.4761904910714 3.38831613659794  L 30.4761904910714 1.51890035824742  C 30.4761904910714 0.744562977041363  31.1157837055989 0.11683850257732  31.9047619196429 0.11683850257732  C 32.6937401336868 0.11683850257732  33.3333333482143 0.744562977041363  33.3333333482143 1.51890035824742  L 33.3333333482143 3.38831613659794  C 33.3333333482143 3.55189000515464  33.3047619196429 3.70985567010309  33.2523809375 3.85567010309278  L 37.1428571428571 3.85567010309278  C 38.7208135709451 3.85567010309278  40 5.11111905202087  40 6.65979381443299  Z M 0 12.2680412371134  L 40 12.2680412371134  L 40 30.9621993273196  C 40 32.5108740897317  38.7208135709451 33.7663230386598  37.1428571428571 33.7663230386598  L 2.85714285714286 33.7663230386598  C 1.27918642905488 33.7663230386598  0 32.5108740897317  0 30.9621993273196  L 0 12.2680412371134  Z M 14.7619047767857 16.0068728376289  L 6.19047620535714 16.0068728376289  C 5.40149799131315 16.0068728376289  4.76190477678571 16.6345973120929  4.76190477678571 17.408934693299  C 4.76190477678571 18.183272074505  5.40149799131315 18.8109965489691  6.19047620535714 18.8109965489691  L 14.7619047767857 18.8109965489691  C 15.5508829908297 18.8109965489691  16.1904762053571 18.183272074505  16.1904762053571 17.408934693299  C 16.1904762053571 16.6345973120929  15.5508829908297 16.0068728376289  14.7619047767857 16.0068728376289  Z " fill-rule="nonzero" fill="#30a3f6" stroke="none" transform="matrix(1 0 0 1 896 1286 )" />
  </g>
</svg>