<?xml version="1.0" encoding="utf-8"?>
<svg version="1.1" xmlns:xlink="http://www.w3.org/1999/xlink" width="34px" height="38px" xmlns="http://www.w3.org/2000/svg">
  <g transform="matrix(1 0 0 1 -804 -1286 )">
    <path d="M 2.94711329525862 0  L 28.4534778168103 0  C 29.9514876637931 0  31.1493595797414 1.24746007283465  31 2.75480764370079  L 31 19  L 19.5391132952586 19  C 17.7760551601734 19.0758055456915  16.3374700698663 20.5205801828257  16.3139704590517 22.3202339547244  L 16.1263842521552 36.8260607263779  L 2.94711329525862 36.8260607263779  C 1.47322168534483 36.826060726378  0.251231532327586 35.601853773622  0.251231532327586 34.0726209330709  L 0.251231532327586 2.75480764370079  C 0.251231532327586 1.24746007283465  1.44910344827586 0  2.94711329525862 0  Z M 24.4686108426724 15.3114780492126  L 24.4672709202586 15.3114780492126  C 24.4672709202586 14.5222407145669  23.86431525 13.8520044940945  23.1461280840517 14  L 6.74975367887931 14  C 6.0315664762931 13.8520044940945  5.42861080603448 14.4976197814961  5.42861084267241 15.3114780492126  C 5.42861084267241 16.1007153838583  6.03156651293103 16.7709516043307  6.74975367887931 17  L 23.1474679698276 17  C 23.888433487069 16.7709516417323  24.4686108426724 16.1253363543307  24.4686108426724 15.3114780492126  Z M 6.72429555603448 19.3807693877953  L 6.72295567025862 19.3807693877953  C 6.00610839008621 19.3807693877953  5.40315271982759 20.0263846751969  5.40315271982759 20.840242980315  C 5.40315271982759 21.6308481653543  6.00610839008621 22.3010843858268  6.72295567025862 22.3010843484252  L 13.1853004978448 22.3010843484252  C 13.903487700431 22.3010843484252  14.5064433706897 21.6541012106299  14.5064433340517 20.840242980315  C 14.5064433340517 20.0510056456693  13.9034876637931 19.3807694251968  13.1853004978448 19.3807693877953  L 6.72429555603448 19.3807693877953  Z M 6.74975367887931 10.8113205688976  L 6.74707390732759 11  L 23.1447881616379 11  C 23.8629753642241 10.8113205688976  24.4659310344828 10.1657052814961  24.4659310344828 9.35184701377953  C 24.4659310344828 8.56124182874016  23.8629753642241 7.89100560826772  23.1447881616379 8  L 6.74975367887931 8  C 6.0315664762931 7.89100560826772  5.42861080603448 8.53798874606299  5.42861084267241 9.35184701377953  C 5.42861084267241 10.1657052814961  6.03156651293103 10.8113205688976  6.74975367887931 10.8113205688976  Z M 33.7487684676724 28.2771293641732  C 33.7494421493048 30.1818899147147  33.1232633204488 32.031659471767  31.9707191961207 33.5295928169291  L 33.2128078922414 34.7975703090551  C 33.5550172116223 35.1298758986549  33.7487354268939 35.590922729654  33.7487354268939 36.0730708661417  C 33.7487354268939 36.5552190026294  33.5550172116223 37.0162658336286  33.2128078922414 37.3485714232283  C 32.8873271393932 37.6974765395959  32.4359860537216 37.8949507233332  31.9640197122845 37.8949507233332  C 31.4920533708474 37.8949507233332  31.0407122851758 37.6974765395958  30.7152315323276 37.3485714232283  L 29.248039424569 35.8507986555118  C 28.0537124853368 36.4925940164412  26.7240761810857 36.8273537712117  25.3743842521552 36.8260607263779  C 20.767802987069 36.8260607263779  17 32.979725523622  17 28.2771293641732  C 17 23.5759010177165  20.7691428728448 19.7281979645669  25.3743842521552 19.7281979645669  C 29.9809655172414 19.7281979645669  33.7487685043103 23.5759010177165  33.7487684676724 28.2771293641732  Z M 25.3261477780172 22.8851473405512  L 25.3248078922414 22.8851473405512  C 25.3081987618813 22.8849843181533  25.2915889597877 22.8849028055416  25.2749790617308 22.8849028055416  C 22.4126313901467 22.8849028055416  20.0922401350067 25.2536579358466  20.0922401350067 28.1756654708959  C 20.0922401350067 28.1930731312722  20.0923242928972 28.2104806856475  20.0924926056035 28.2278874980315  C 20.0923242069626 28.245298753149  20.0922400061033 28.2627107508254  20.0922400061033 28.2801228545847  C 20.0922400061033 31.202130389634  22.4126312612433 33.570885519939  25.2749789328274 33.570885519939  C 25.2920355263011 33.570885519939  25.3090920158583 33.5707995640826  25.3261477780172 33.5706276555118  C 25.343203540176 33.5707995640826  25.3602600297336 33.570885519939  25.377316623207 33.570885519939  C 28.2396642947912 33.570885519939  30.5600555499312 31.202130389634  30.5600555499312 28.2801228545847  C 30.5600555499312 28.2627107508256  30.5599713490718 28.2452987531488  30.559802950431 28.2278874980315  C 30.5599713490718 28.2104762429143  30.5600555499312 28.1930642452372  30.5600555499312 28.1756521414783  C 30.5600555499312 25.253644606429  28.2396642947912 22.884889476124  25.377316623207 22.884889476124  C 25.3602600297334 22.884889476124  25.3432035401762 22.8849754319804  25.3261477780172 22.8851473405512  Z " fill-rule="nonzero" fill="#30a3f6" stroke="none" transform="matrix(1 0 0 1 804 1286 )" />
  </g>
</svg>