<?xml version="1.0" encoding="utf-8"?>
<svg version="1.1" xmlns:xlink="http://www.w3.org/1999/xlink" width="45px" height="40px" xmlns="http://www.w3.org/2000/svg">
  <g transform="matrix(1 0 0 1 -609 -1286 )">
    <path d="M 18.7057142857143 23.5081481481481  C 22.1114285714286 21.7066666666667  24.4657142857143 17.8192592592593  24.4657142857143 13.2918518518519  C 24.4657142857143 7.05777777777778  19.9857142857143 2.00888888888889  14.4771428571429 2.00888888888889  C 8.96857142857143 2.00888888888889  4.51142857142857 7.05777777777778  4.51142857142857 13.2918518518519  C 4.51142857142857 17.8192592592593  6.88857142857143 21.7066666666667  10.2942857142857 23.5081481481481  L 10.2942857142857 25.9733333333333  L 18.7057142857143 25.9733333333333  L 18.7057142857143 23.5081481481481  Z M 0.282857142857143 39  L 28.6942857142857 39  C 28.7628571428571 39.1288888888889  28.8085714285714 38.5362962962963  28.8085714285714 37.9437037037037  C 28.8085714285714 30.1451851851852  22.4085714285714 23.84  14.5 23.84  C 6.59142857142857 23.84  0.168571428571429 30.1451851851852  0.168571428571429 37.9437037037037  C 0.168571428571429 38.5362962962963  0.214285714285714 39.1051851851852  0.282857142857143 39  Z M 44 3.88148148148148  C 44.8314285714286 1.89037037037037  42.8885714285714 0.302222222222223  40.42 1  L 22.8885714285714 1  L 22.8885714285714 3  L 40.42 3  C 41.86 2.31703703703704  42.8657142857143 3.12296296296296  42 3.85777777777778  L 42 36.0948148148148  C 42.8657142857143 36.8296296296296  41.86 37.6355555555556  40.42 37.6355555555556  L 30.5228571428571 37.6355555555556  L 30.5228571428571 39.6503703703704  L 40.42 39.6503703703704  C 42.8885714285714 39.6503703703704  44.8085714285714 38.0859259259259  44 36.0711111111111  L 44 3.88148148148148  Z M 40.2371428571429 8.19555555555556  L 40.2371428571429 10.3051851851852  C 40.2371428571429 10.7081481481481  39.94 11.04  39.5971428571429 11  L 26.18 11  C 25.8142857142857 11.04  25.54 10.7081481481481  25.54 10.3051851851852  L 25.54 8.19555555555556  C 25.54 7.79259259259259  25.8371428571429 7.46074074074074  26.18 8  L 39.5971428571429 8  C 39.9628571428571 7.46074074074074  40.2371428571429 7.79259259259259  40.2371428571429 8.19555555555556  Z M 40.2371428571429 15.52  L 40.2371428571429 17.6296296296296  C 40.2371428571429 18.0325925925926  39.94 18.3644444444444  39.5971428571429 19  L 26.18 19  C 25.8142857142857 18.3644444444444  25.54 18.0325925925926  25.54 17.6296296296296  L 25.54 15.52  C 25.54 15.117037037037  25.8371428571429 14.7851851851852  26.18 15  L 39.5971428571429 15  C 39.9628571428571 14.7851851851852  40.2371428571429 15.117037037037  40.2371428571429 15.52  Z M 40.2371428571429 22.8444444444444  L 40.2371428571429 24.9540740740741  C 40.2371428571429 25.357037037037  40.0085714285714 25.6888888888889  39.7342857142857 25  L 29.3571428571429 25  C 29.0828571428571 25.6888888888889  28.8542857142857 25.357037037037  28.8542857142857 24.9540740740741  L 28.8542857142857 22.8444444444444  C 28.8542857142857 22.4414814814815  29.0828571428571 22.1096296296296  29.3571428571429 22  L 39.7342857142857 22  C 40.0085714285714 22.1096296296296  40.2371428571429 22.4414814814815  40.2371428571429 22.8444444444444  Z " fill-rule="nonzero" fill="#30a3f6" stroke="none" transform="matrix(1 0 0 1 609 1286 )" />
  </g>
</svg>