<?xml version="1.0" encoding="utf-8"?>
<svg version="1.1" xmlns:xlink="http://www.w3.org/1999/xlink" width="38px" height="43px" xmlns="http://www.w3.org/2000/svg">
  <g transform="matrix(1 0 0 1 -704 -1285 )">
    <path d="M 35.7462765957447 40.4660714285714  C 38.6417553191489 37.5891666666667  38.6417553191489 32.6902380952381  35.7462765957447 29.8082142857143  C 32.8507978723404 26.9261904761905  27.9239361702128 26.9261904761905  25.0284574468085 29.8082142857143  C 22.1329787234043 32.6902380952381  22.1329787234043 37.5840476190476  25.0284574468085 40.4660714285714  C 27.9239361702128 43.3480952380952  32.8507978723404 43.3480952380952  35.7462765957447 40.4660714285714  Z M 32.188829787234 34.2976190476191  L 33.836170212766 34.2976190476191  L 33.836170212766 35.9613095238095  L 31.3702127659575 35.9613095238095  L 31.3702127659575 36.7957142857143  L 33.836170212766 36.7957142857143  L 33.836170212766 38.4594047619048  L 31.3702127659575 38.4594047619048  L 31.3702127659575 40.1230952380952  L 29.7279255319149 40.1230952380952  L 29.7279255319149 38.4594047619048  L 27.2619680851064 38.4594047619048  L 27.2619680851064 36.7957142857143  L 29.7279255319149 36.7957142857143  L 29.7279255319149 35.9613095238095  L 27.2619680851064 35.9613095238095  L 27.2619680851064 34.2976190476191  L 28.9042553191489 34.2976190476191  L 27.0598404255319 30.96  L 28.7981382978723 30.96  L 30.2484042553191 33.2635714285714  C 30.5364361702128 33.5502380952381  30.5364361702128 33.8420238095238  30.5364361702128 34.1286904761905  C 30.5364361702128 33.8420238095238  30.8244680851064 33.5502380952381  30.8244680851064 33.2635714285714  L 32.2747340425532 30.96  L 34.0079787234043 30.96  L 32.188829787234 34.2976190476191  Z M 19.8539893617021 34.2976190476191  C 19.8539893617021 29.1120238095238  24.1593085106383 24.9144047619048  29.6622340425532 24.9144047619048  C 30.819414893617 24.9144047619048  31.6077127659574 24.8478571428571  32 25.1345238095238  L 32 8.47202380952381  C 32.188829787234 6.16845238095238  30.6829787234043 4.30511904761905  28.0755319148936 4.30511904761905  L 23.1436170212766 4.30511904761905  C 23.1436170212766 2.28821428571429  21.263829787234 0.138214285714285  19.5255319148936 0.138214285714285  L 12.5723404255319 0.138214285714285  C 10.8340425531915 0.138214285714285  9.16143617021277 2.57488095238095  9.16143617021277 4.30511904761905  L 5.04813829787234 4.30511904761905  C 2.72872340425532 4.59178571428571  0.11622340425532 5.9022619047619  0.11622340425532 8.20583333333333  L 0.11622340425532 35.5722619047619  C 0.11622340425532 37.8758333333333  2.44574468085106 39.2989285714286  5.04813829787234 39  L 20.6726063829787 39  C 19.6922872340426 38.0345238095238  19.8539893617021 36.6011904761905  19.8539893617021 34.2976190476191  Z M 11.7031914893617 3.88535714285714  C 11.7031914893617 3.31202380952381  11.9912234042553 2.73357142857143  12.5723404255319 2.73357142857143  L 19.5255319148936 2.73357142857143  C 20.1066489361702 2.73357142857143  20.6827127659574 3.31202380952381  20.6827127659574 3.88535714285714  C 20.6827127659574 4.46380952380952  20.1015957446808 5.03714285714286  19.5255319148936 5.03714285714286  L 12.5723404255319 5.03714285714286  C 11.9912234042553 4.75047619047619  11.7031914893617 4.17202380952381  11.7031914893617 3.88535714285714  Z M 6.69547872340426 13.4682142857143  C 6.69547872340426 12.5519047619048  7.43324468085106 11.8045238095238  8.33776595744681 12  L 24.7859042553191 12  C 25.6954787234043 11.8045238095238  26.4281914893617 12.5519047619048  26.4281914893617 13.4682142857143  C 26.4281914893617 14.3896428571429  25.6904255319149 15.1370238095238  24.7859042553191 15.1370238095238  L 8.33776595744681 15.1370238095238  C 7.4281914893617 15.1370238095238  6.69547872340426 14.3896428571429  6.69547872340426 13.4682142857143  Z M 16.5593085106383 26.7982142857143  C 16.5643617021277 27.7196428571429  15.8265957446808 28.4670238095238  14.9170212765957 28.4670238095238  L 8.33776595744681 28.4670238095238  C 7.4281914893617 28.4670238095238  6.69547872340426 27.7196428571429  6.69547872340426 26.7982142857143  C 6.69547872340426 25.8767857142857  7.43324468085106 25.1345238095238  8.33776595744681 25.1345238095238  L 14.9170212765957 25.1345238095238  C 15.8265957446808 25.1345238095238  16.5593085106383 25.8819047619048  16.5593085106383 26.7982142857143  Z M 20.6726063829787 21  L 8.33776595744681 21  C 7.4281914893617 21.8020238095238  6.69547872340426 21.0546428571429  6.69547872340426 20.1383333333333  C 6.69547872340426 19.2169047619048  7.43324468085106 18.4695238095238  8.33776595744681 19  L 20.6726063829787 19  C 21.5821808510638 18.4695238095238  22.3148936170213 19.2169047619048  22.3148936170213 20.1383333333333  C 22.3148936170213 21.0597619047619  21.5771276595745 21.8020238095238  20.6726063829787 21  Z " fill-rule="nonzero" fill="#30a3f6" stroke="none" transform="matrix(1 0 0 1 704 1285 )" />
  </g>
</svg>