<?xml version="1.0" encoding="utf-8"?>
<svg version="1.1" xmlns:xlink="http://www.w3.org/1999/xlink" width="42px" height="42px" xmlns="http://www.w3.org/2000/svg">
  <g transform="matrix(1 0 0 1 -993 -1284 )">
    <path d="M 42 21  C 42 32.5975999863281  32.5975999863281 42  21 42  C 9.40240001367187 42  0 32.5975999863281  0 21  C 0 9.40240001367187  9.40240001367187 0  21 0  C 32.5975999863281 0  42 9.40240001367187  42 21  Z M 34.86 16.0117999863281  C 34.86 14.1357999726563  35.2618000136719 12.6  33.8716000136719 13  L 8.12839998632812 13  C 6.73819998632813 12.6  7.14 14.1358000136719  7.14 16.0117999863281  L 7.14 17.1499999863281  L 34.86 17.1499999863281  L 34.86 16.0117999863281  Z M 7.14 19  L 7.14 18.6661999863281  L 7.14 27.6136000136719  C 7.14 29.3664  6.73819998632813 30.8000000273437  8.12839998632812 30  L 33.8716000136719 30  C 35.2618000136719 30.7999999863281  34.86 29.3664  34.86 27.6136000136719  L 34.86 19  L 7.14 19  Z M 32.1958000136719 26.9710000136719  L 27.8179999863281 26.9710000136719  L 27.3112000136719 22.6548  L 31.6876000136719 22.6548  L 32.1958000136719 26.9710000136719  Z " fill-rule="nonzero" fill="#30a3f6" stroke="none" transform="matrix(1 0 0 1 993 1284 )" />
  </g>
</svg>