<?xml version="1.0" encoding="utf-8"?>
<svg version="1.1" xmlns:xlink="http://www.w3.org/1999/xlink" width="33px" height="40px" xmlns="http://www.w3.org/2000/svg">
  <g transform="matrix(1 0 0 1 -1277 -984 )">
    <path d="M 2.44131958762886 24.7023008849557  C 3.95455670103093 23.076814159292  5.90325773195876 22.2244247787611  8.28470103092783 22  L 24.5819381443299 22  C 26.963381443299 22.1989380530973  28.9093608247423 23.0116814159292  30.4225979381443 24.5861946902655  C 31.9358350515464 26.1607079646018  32.7169484536083 28.1854867256637  32.7659381443299 30.6633628318584  L 32.7659381443299 37.1681415929204  C 32.7414432989691 38.0205309734513  32.4856082474227 38.7030088495575  32.0038762886598 39.2212389380531  C 31.5194226804124 39.7366371681416  30.8689484536083 39.9943362831858  30.0497319587629 40  L 2.81418556701031 40  C 1.99496907216495 39.9943362831858  1.34449484536082 39.7366371681416  0.860041237113402 39.2212389380531  C 0.375587628865979 38.7058407079646  0.122474226804124 38.0205309734513  0.0979793814432978 37.1681415929204  L 0.0979793814432978 30.6633628318584  C 0.146969072164947 28.3157522123894  0.928082474226803 26.3277876106195  2.44131958762886 24.7023008849557  Z M 9.69723711340206 3.25097345132743  C 7.90911340206186 5.10867256637168  6.98103092783505 7.44778761061947  6.90754639175258 10.2598230088496  C 6.98103092783505 13.0746902654867  7.91183505154639 15.4081415929203  9.69723711340206 17.2686725663717  C 11.4826391752577 19.129203539823  13.728 20.0948672566372  16.4333195876289 20.1713274336283  C 19.1359175257732 20.0948672566372  21.3812783505155 19.1263716814159  23.1694020618557 17.2686725663717  C 24.9575257731959 15.4109734513274  25.8856082474227 13.0746902654867  25.9590927835052 10.2598230088496  C 25.8856082474227 7.44778761061947  24.9548041237113 5.11150442477876  23.1694020618557 3.25097345132743  C 21.384 1.3904424778761  19.1359175257732 0.427610619469027  16.4333195876289 0.348318584070796  C 13.728 0.424778761061947  11.4853608247423 1.39327433628319  9.69723711340206 3.25097345132743  Z M 16.3952164948454 37.3550442477876  C 16.6428865979381 37.3635398230088  16.8415670103093 37.298407079646  16.9912577319588 37.1681415929204  L 21.8657319587629 32.0566371681416  C 22.5597525773196 31.3090265486726  22.9081237113402 30.4679646017699  22.9081237113402 29.5391150442478  C 22.9081237113402 28.6102654867257  22.5597525773196 27.8484955752212  21.8657319587629 27.2538053097345  C 21.1472164948454 26.5571681415929  20.3388865979382 26.1890265486726  19.4461855670103 26.1493805309735  C 18.5534845360825 26.1097345132743  17.8213608247423 26.3872566371681  17.2498144329897 26.9819469026549  L 16.4305979381443 27.7946902654867  L 15.611381443299 26.9819469026549  C 14.8928659793815 26.4155752212389  14.0736494845361 26.1295575221239  13.1564536082474 26.1295575221239  C 12.2392577319588 26.1295575221239  11.4200412371134 26.4127433628319  10.7015257731959 26.9819469026549  C 10.032 27.7295575221239  9.69723711340207 28.5621238938053  9.69723711340207 29.4796460176991  C 9.69723711340207 30.3971681415929  10.032 31.1646017699115  10.7015257731959 31.7819469026549  L 15.6141030927835 37.1624778761062  C 15.8862680412371 37.2927433628319  16.1475463917526 37.3550442477876  16.3952164948454 37.3550442477876  Z " fill-rule="nonzero" fill="#30a3f6" stroke="none" transform="matrix(1 0 0 1 1277 984 )" />
  </g>
</svg>