<?xml version="1.0" encoding="utf-8"?>
<svg version="1.1" xmlns:xlink="http://www.w3.org/1999/xlink" width="34px" height="36px" xmlns="http://www.w3.org/2000/svg">
  <g transform="matrix(1 0 0 1 -1174 -986 )">
    <path d="M 17 24.5033653846154  C 17.8630102040816 24.5033653846154  18.5959183673469 23.8153846153846  18.5959183673469 22.9110576923077  L 18.5959183673469 20.2413461538462  C 18.5959183673469 18.7831730769231  16.6834183673469 17.8831730769231  15.4040816326531 19.5360576923077  L 15.4040816326531 22.9110576923077  C 15.4040816326531 23.8153846153846  16.1369897959184 24.5033653846154  17 24.5033653846154  Z M 30.8992346938775 6.24375  L 25.3482142857143 6.24375  C 25.2614795918367 2.79951923076923  22.4642857142857 0  19.0122448979592 0  L 15.1265306122449 0  C 11.6311224489796 0  8.78188775510204 2.79951923076923  8.69515306122449 6.24375  L 3.14413265306122 6.24375  C 1.61326530612245 6.24375  0.368622448979589 7.48557692307692  0.368622448979589 9.01298076923077  L 0.368622448979589 17.2644230769231  C 4.94387755102041 18.3850961538462  9.57551020408163 19.5057692307692  13.9772959183673 19.8475961538462  L 13.9772959183673 19.3759615384615  C 13.9772959183673 17.9134615384615  15.5341836734694 16.70625  17 16.70625  C 18.4658163265306 16.70625  20.0227040816326 17.9134615384615  20.0227040816326 19.3759615384615  L 20.0227040816326 19.8475961538462  C 24.4244897959184 19.5014423076923  29.0994897959184 18.3418269230769  33.6747448979592 17.2644230769231  L 33.6747448979592 9.01298076923077  C 33.6747448979592 7.48557692307692  32.4301020408163 6.24375  30.8992346938775 6.24375  Z M 11.4706632653061 6.24375  C 11.6441326530612 4.34855769230769  13.2704081632653 2.53990384615385  15.2132653061224 2.53990384615385  L 18.9688775510204 2.53990384615385  C 20.9117346938775 2.53990384615385  22.3558673469388 4.34855769230769  22.5683673469388 6.24375  L 11.4706632653061 6.24375  Z M 20.0227040816327 22.1365384615385  L 20.0227040816327 23.2139423076923  C 20.0227040816327 24.6764423076923  18.4658163265306 25.8836538461538  17 25.8836538461538  C 15.5341836734694 25.8836538461538  13.9772959183673 24.6764423076923  13.9772959183673 23.2139423076923  L 13.9772959183673 22.1365384615385  C 9.57551020408163 21.7903846153846  4.94387755102041 20.6740384615385  1 19.5533653846154  L 1 33.2307692307692  C 0.325255102040816 34.7581730769231  1.56989795918367 36  3.10076530612245 36  L 30.8992346938775 36  C 32.4301020408163 36  33.6747448979592 34.7581730769231  33 33.2307692307692  L 33 19.5533653846154  C 29.0561224489796 20.6740384615385  24.4244897959184 21.7947115384615  20.0227040816327 22.1365384615385  Z " fill-rule="nonzero" fill="#30a3f6" stroke="none" transform="matrix(1 0 0 1 1174 986 )" />
  </g>
</svg>