<?xml version="1.0" encoding="utf-8"?>
<svg version="1.1" xmlns:xlink="http://www.w3.org/1999/xlink" width="54px" height="38px" xmlns="http://www.w3.org/2000/svg">
  <g transform="matrix(1 0 0 1 -890 -709 )">
    <path d="M 42.261426 24.5183401162791  C 43.048044 24.9206540697674  43.44138 25.6048197674419  43.44138 26.5703953488372  L 43.44138 35.7431976744186  C 43.44138 36.3467238372093  43.264368 36.8696656976744  42.910398 37.3123546511628  C 42.556428 37.7550436046512  42.10407 37.9761395348837  41.553432 38  L 12.58362 38  C 12.07224 37.9761395348837  11.639646 37.7549331395349  11.285622 37.3123546511628  C 10.931598 36.8697761627907  10.75464 36.3468343023256  10.75464 35.7431976744186  L 10.75464 26.5703953488372  C 10.75464 25.604875  11.147976 24.9207645348837  11.934594 24.5183401162791  L 23.262822 19.1473052325581  C 21.768156 18.2219389534884  20.627406 16.8943139534884  19.84068 15.1643197674419  C 19.09332 13.6355377906977  18.719748 12.0060668604651  18.719748 10.2760726744186  C 18.719748 9.75302034883721  18.759168 9.25012790697674  18.837846 8.76728488372093  C 19.034838 7.56680523255813  19.349388 6.49402325581395  19.776744 5.48299127906976  C 19.683486 5.32751162790697  20.676654 3.63783720930232  22.112298 2.31015697674418  C 23.547942 0.982476744186044  25.209846 0.318581395348834  27.098064 0.318581395348834  C 29.025432 0.318581395348834  30.716982 1.00258139534883  32.172228 2.37047093023256  C 33.627474 3.73836046511628  34.610976 5.46829941860465  35.122302 7.56045348837209  C 35.319024 8.56623837209302  35.41752 9.47144476744186  35.41752 10.2761279069767  C 35.41752 11.8854941860465  35.102646 13.4343808139535  34.473546 14.9230087209302  C 33.686928 16.7335319767442  32.546178 18.1013662790698  31.051404 19.0266773255814  L 34.41447 20.6559825581395  L 42.261534 24.5181744186047  Z M 10.754532 21.9837180232558  C 9.889182 22.3860319767442  9.210726 22.9997209302326  8.718948 23.824398255814  C 8.227224 24.6491308139535  7.98147 25.5644447674419  7.98147 26.5703401162791  L 7.98147 34.3550377906977  L 1.90431 34.3550377906977  C 1.471554 34.3550377906977  1.117692 34.1843139534884  0.842291999999998 33.8423139534884  C 0.566891999999998 33.5002034883721  0.429299999999998 33.0678430232558  0.429299999999998 32.5449011627907  L 0.429299999999998 25.182125  C 0.429299999999998 24.2968575581395  0.743903999999998 23.7338168604651  1.373274 23.4922848837209  L 10.518498 19.14725  C 9.417168 18.46325  8.532108 17.4876220930232  7.863426 16.2203662790698  C 7.194744 14.9531104651163  6.860376 13.5348488372093  6.860376 11.9658575581395  C 6.860376 10.8795988372093  7.037388 9.84365697674417  7.391358 8.85786627906976  C 7.745436 7.87218604651162  8.22717 7.01718604651161  8.83683 6.29308720930232  C 9.446436 5.56898837209301  10.154538 4.99567441860464  10.96092 4.5731453488372  C 11.767248 4.15072674418604  12.64248 3.93951744186046  13.586508 3.93951744186046  C 14.215824 3.93951744186046  14.805828 4.04015116279069  15.356628 4.24119767441859  C 15.907428 4.4422441860465  16.438356 4.7037703488372  16.949574 5.02577616279069  C 16.280838 6.71561627906976  15.946524 8.46560465116278  15.946524 10.2760726744186  C 15.946524 11.6841715116279  16.143246 13.0420639534884  16.536582 14.3495290697674  C 16.929918 15.6570494186046  17.480556 16.8338895348837  18.188712 17.8798837209302  C 17.755956 18.3626162790698  17.30376 18.7449360465116  16.831746 19.0264011627907  L 10.754586 21.9834418604651  Z M 52.999596 23.4923401162791  C 53.628804 23.814125  53.94357 24.3774418604651  53.94357 25.1821802325581  L 53.94357 32.5446802325581  C 53.94357 33.0677325581395  53.805708 33.4999825581395  53.530578 33.8420930232558  C 53.255178 34.1840930232558  52.901262 34.3548168604651  52.468344 34.3548168604651  L 46.214226 34.3548168604651  L 46.214226 26.5701191860465  C 46.214226 25.5643343023256  45.968256 24.6490203488372  45.476856 23.8241773255814  C 44.985078 22.9996104651163  44.326278 22.3858662790698  43.50024 21.9834970930233  L 37.65906 19.1473604651163  C 37.108476 18.8255755813954  36.57717 18.3627819767442  36.066114 17.7594215116279  C 36.734958 16.7134273255814  37.25595 15.5566918604651  37.629738 14.2894360465116  C 38.003526 13.0221802325581  38.190258 11.6843372093023  38.190258 10.2762936046512  C 38.190258 9.3509273255814  38.111634 8.46577034883721  37.954278 7.62093313953489  C 37.796922 6.77609593023256  37.560942 5.95130813953489  37.246338 5.146625  C 37.757718 4.78446511627907  38.308356 4.49283720930233  38.898468 4.27163081395349  C 39.48858 4.05042441860465  40.098186 3.93973837209303  40.727664 3.93973837209303  C 41.671638 3.93973837209303  42.556698 4.15094767441861  43.382628 4.57336627906977  C 44.208666 4.99578488372093  44.926812 5.56904360465117  45.536418 6.29330813953489  C 46.145862 7.01740697674419  46.627758 7.87235174418605  46.981728 8.85808720930233  C 47.335914 9.84376744186047  47.512926 10.8798197674419  47.512926 11.9660784883721  C 47.512926 13.4948604651163  47.17845 14.8929622093023  46.509876 16.1602180232558  C 45.841032 17.4275290697674  44.995554 18.4031569767442  43.972794 19.0871017441861  L 52.999866 23.4925610465116  Z " fill-rule="nonzero" fill="#30a3f6" stroke="none" transform="matrix(1 0 0 1 890 709 )" />
  </g>
</svg>