<?xml version="1.0" encoding="utf-8"?>
<svg version="1.1" xmlns:xlink="http://www.w3.org/1999/xlink" width="35px" height="39px" xmlns="http://www.w3.org/2000/svg">
  <g transform="matrix(1 0 0 1 -614 -1569 )">
    <path d="M 4.21759675480769 30.6428757543103  C 4.98647776442308 30.6428337284483  5.61010036057692 30.0200818965517  5.61010036057692 29.2519584051724  C 5.61010036057692 28.4834903017241  4.98651983173077 27.8606964439655  4.21759675480769 27.8606964439655  L 1.43284598557692 27.8606964439655  C 0.663750432692308 27.8606964439655  0.0403003124999998 28.4834482758621  0.0403003124999998 29.2519584051724  C 0.0403003124999998 30.0200818965517  0.663754639423076 30.6428757543103  1.43284598557692 30.6428757543103  L 4.21759675480769 30.6428757543103  Z M 1.49091384615385 16.7324540948276  C 0.721862379807692 16.7324540948276  0.0984080528846152 17.3552059267241  0.0984080528846152 18.1236278017241  C 0.0984080528846152 18.8918353448276  0.721862379807692 19.5145871767241  1.49091165865385 19.5145871767241  L 4.21759473557692 19.5145871767241  C 4.98647574519231 19.5145871767241  5.61009834134615 18.8918353448276  5.61009834134615 18.1236278017241  C 5.61009834134615 17.3552059267241  4.9865178125 16.7324540948276  4.21759473557692 16.7324540948276  L 1.49091384615385 16.7324540948276  Z M 34.8507159134615 2.90887282758621  C 34.8506736778846 2.90887467672414  34.5896712740385 1.51765474137931  33.4583425480769 1.51765474137931  L 30.6735919471154 1.43111088362069  C 30.6735919471154 0.662642780172414  30.0502259615385 0.0398489224137931  29.2810883413462 0  L 4.27557846153846 0  C 3.50669745192308 0.0398489224137931  2.88324733173077 0.662642780172414  2.88324733173077 1.43111088362069  L 2.88324733173077 4.12640357327586  L 4.27557963942308 4.12640357327586  C 4.27557963942308 4.12640357327586  7.04727675480769 4.38745141810345  7.04727675480769 6.90914182758621  C 7.04727675480769 6.90914182758621  7.0766565625 9.69618353017241  4.20480139423077 9.69618353017241  L 2.88324430288462 9.7769152112069  L 2.91214875 15.254385362069  L 4.21139334134615 15.2541290043103  C 4.21139334134615 15.2541290043103  7.07756100961538 15.2538726465517  7.07756100961538 18.2099087456897  C 7.07756100961538 18.2099087456897  6.81069862980769 20.9058467844828  4.19993841346154 20.9058467844828  L 2.88919262019231 20.9064057284483  L 2.86545824519231 26.3830185517241  L 4.25292286057692 26.3830185517241  C 4.25292286057692 26.3830185517241  7.03142646634615 26.4698187672414  7.03142646634615 29.2519980775862  C 7.03142646634615 29.2519980775862  7.02642887019231 32.1206750172414  4.15461997596154 32.1206750172414  L 2.90069449519231 32.0335301896552  L 2.88329125 34.8162684439655  C 2.88329125 34.8162684439655  4.47877382211538 38.9893230775862  6.91537538461538 39  L 33.5454430769231 39  C 33.5454430769231 38.9893230775862  34.8507159134615 38.7285778189655  34.8507159134615 37.6852059439655  L 34.8507159134615 2.90887282758621  Z M 10 9.77696110344827  L 9.78718629807692 10  L 27.8887124519231 10  L 27.8887124519231 21  L 10 21  L 10 9.77696110344827  Z M 32 34.9029876336207  C 32.1094290865385 34.9029869612069  32.1530697115385 36.2071040948276  30.6735456730769 36  L 7.00243384615385 36  C 7.00243384615385 36.2071040948276  5.56642002403846 35.7288623922414  5.56642002403846 34  L 29.2810402163462 34  C 30.0501357692308 34.7581742456897  30.6735438221154 34.1354224137931  30 33.3670005387931  L 30 2.69172082758621  L 32 3.16996253017241  L 32 34.9029876336207  Z M 0.0403004807692313 6.99512489224138  C 0.0402542067307694 7.76324838362069  0.663750600961538 8.38604224137931  1.43284615384615 8.38604224137931  L 4.21759692307692 8.38604224137931  C 4.98647793269231 8.38604224137931  5.61010052884615 7.76329040948276  5.61010052884615 6.99512489224138  C 5.61010052884615 6.22670301724138  4.98652 5.60395118534483  4.21759692307692 5.60395118534483  L 1.43284615384615 5.60395118534483  C 0.663750600961539 5.60395118534483  0.0403004807692313 6.22670301724138  0.0403004807692313 6.99512489224138  Z M 25.1037860096154 13.2551376077586  C 25.1037878605769 12.8709245689655  24.7921280048077 12.5593994612069  24.4076664663462 13  L 13.2683169230769 13  C 12.8837249759615 12.5593994612069  12.5721071875 12.8709245689655  12.5721071875 13.2551376077586  C 12.5721071875 13.6391363146552  12.8837249759615 13.9503168103448  13.2683169230769 14  L 24.4076646153846 14  C 24.7921261538462 13.9503168103448  25.1037860096154 13.6391363146552  25.1037860096154 13.2551376077586  Z M 25.1037860096154 17.4278896551724  C 25.1037878605769 17.0437228448276  24.7921280048077 16.7324540948276  24.4076664663462 17  L 13.2683169230769 17  C 12.8837249759615 16.7324540948276  12.5721071875 17.0436808189655  12.5721071875 17.4278896551724  C 12.5721071875 17.8121026939655  12.8837249759615 18.1236278017241  13.2683169230769 18.1236278017241  L 24.4076646153846 18.1236278017241  C 24.7921261538462 18.1236278017241  25.1037860096154 17.8121026939655  25.1037860096154 17.4278896551724  Z " fill-rule="nonzero" fill="#30a3f6" stroke="none" transform="matrix(1 0 0 1 614 1569 )" />
  </g>
</svg>