<?xml version="1.0" encoding="utf-8"?>
<svg version="1.1" xmlns:xlink="http://www.w3.org/1999/xlink" width="36px" height="38px" xmlns="http://www.w3.org/2000/svg">
  <g transform="matrix(1 0 0 1 -805 -1572 )">
    <path d="M 1 5.54851762820513  C 0.446093750000001 4.43352363782052  0.860351562500001 3.32652243589744  1.5986328125 2.48328325320513  C 2.4681640625 1.47219551282051  3.801171875 0.856750801282051  5.1546875 1  L 28.0044921875 1  C 28.5951171875 0.832772435897436  29.1857421875 0.928685897435897  29.739453125 1.12450921474359  C 30.8345703125 1.50816306089744  31.7697265625 2.30344551282051  32.3111328125 3.30654046474359  C 32.684375 3.98193108974359  32.8689453125 4.74923878205128  32.8689453125 5.51255008012821  L 32.8689453125 21.3782351762821  C 32.1060546875 20.9865885416667  31.3759765625 20.5389923878205  30.584375 20.2072916666667  C 29.4646484375 19.7437099358974  28.2505859375 19.491937099359  27.0365234375 19.4719551282051  C 25.6419921875 19.4479767628205  24.243359375 19.7237279647436  22.971875 20.2792267628205  C 21.683984375 20.842718349359  20.52734375 21.6899539262821  19.6126953125 22.7370092147436  C 18.7677734375 23.700140224359  18.1279296875 24.8351161858974  17.7505859375 26.0500200320513  C 17.08203125 28.168108974359  17.2296875 30.5179887820513  18.16484375 32.5401642628205  C 18.4970703125 33.2555188301282  18.9154296875 33.9309094551282  19.419921875 34.5463541666667  C 19.8587890625 35.0738782051282  20.3017578125 35.597405849359  20.740625 36  L 5.31875 36  C 4.8142578125 36.1369190705128  4.3056640625 36.0689803685897  3.8216796875 35.9251101762821  C 2.783984375 35.6173878205128  1.865234375 34.9459935897436  1.26640625 34.0667868589744  C 0.774218750000001 33.3554286858974  0.495312500000002 32.5041967147436  1 31.6449719551282  L 1 5.54851762820513  Z M 9.083984375 7  C 8.9978515625 7.04316907051283  8.91171875 7.05116185897436  8.8296875 7.06714743589744  C 8.4072265625 7.15506810897436  8.0791015625 7.55071113782052  8.09140625 7.97432892628206  C 8.075 8.44989983974359  8.4892578125 8.88950320512821  8.97734375 9  L 24.3541015625 9  C 24.6083984375 8.90149238782052  24.8544921875 8.7736077724359  25.02265625 8.58977363782052  C 25.28515625 8.30203325320513  25.3302734375 7.85044070512821  25.1333984375 7.51873998397437  C 24.9693359375 7.22700320512821  24.6330078125 7.03917267628206  24.292578125 7  L 9.083984375 7  Z M 8.9814453125 14  C 8.9158203125 13.4933493589744  8.8501953125 13.5013421474359  8.7927734375 13.5213241185897  C 8.591796875 13.5732772435898  8.411328125 13.6931690705128  8.28828125 13.8530248397436  C 8.02578125 14.1767327724359  8.0298828125 14.6762820512821  8.296484375 14.9999899839744  C 8.4810546875 15.231780849359  8.7845703125 15.3636618589744  9.083984375 16  L 24.292578125 16  C 24.5509765625 15.3556690705128  24.8052734375 15.2557592147436  24.9857421875 15.075921474359  C 25.2810546875 14.7921774839744  25.342578125 14.3166065705128  25.1416015625 13.9689202724359  C 24.98984375 13.6931690705128  24.6822265625 13.5013421474359  24.358203125 14  L 8.9814453125 14  Z M 14.383203125 19.9395332532051  C 12.5498046875 19.9315404647436  10.71640625 19.9315404647436  8.887109375 19.9355368589744  C 8.4728515625 19.9675080128205  8.1201171875 20.3151943108974  8.0955078125 20.7188301282051  C 8.09140625 20.9026642628205  8.0791015625 21.0944911858974  8.15703125 21.2663361378205  C 8.28828125 21.5860476762821  8.6287109375 21.8058493589744  8.9814453125 21.8018529647436  L 14.858984375 21.8018529647436  C 15.252734375 21.8018529647436  15.6259765625 21.5101161858974  15.70390625 21.1304587339744  C 15.8064453125 20.6788661858974  15.53984375 20.1873096955128  15.105078125 20.0154647435898  C 14.8794921875 19.9115584935898  14.6251953125 19.9395332532051  14.383203125 19.9395332532051  Z M 9.2603515625 26.3737279647436  C 9.100390625 26.3737279647436  8.9404296875 26.3617387820513  8.7927734375 26.4056991185898  C 8.5384765625 26.4736378205128  8.3169921875 26.6494791666667  8.198046875 26.8772736378205  C 8.050390625 27.1490284455128  8.05859375 27.4967147435897  8.214453125 27.7644731570513  C 8.3744140625 28.0442207532051  8.6861328125 28.2320512820513  9.0142578125 28.2360476762821  L 12.8779296875 28.2360476762821  C 13.1322265625 28.2360476762821  13.3865234375 28.1281450320513  13.5587890625 27.9443108974359  C 13.8458984375 27.6605669070513  13.9033203125 27.1889923878205  13.6982421875 26.8453024839744  C 13.53828125 26.5615584935898  13.21015625 26.3697315705128  12.8779296875 26.3737279647436  L 9.2603515625 26.3737279647436  Z M 23.2958984375 21.1464443108974  C 24.3458984375 20.686858974359  25.4984375 20.4310897435897  26.6509765625 20.3991185897436  C 28.59921875 20.3431690705128  30.559765625 20.9626101762821  32.101953125 22.1255608974359  C 33.151953125 22.9088541666667  34.0091796875 23.9319310897436  34.5875 25.0908854166667  C 35.2478515625 26.401702724359  35.5349609375 27.8843649839744  35.432421875 29.3390524839744  C 35.3462890625 30.6019130608974  34.956640625 31.8447916666667  34.300390625 32.9398036858974  C 33.6400390625 34.0508012820513  32.7130859375 35.0099358974359  31.61796875 35.7172976762821  C 30.60078125 36.376702724359  29.4318359375 36.8203024839744  28.221875 37.0041366185898  C 26.622265625 37.2519130608974  24.9529296875 37.052093349359  23.4681640625 36.4206630608974  C 22.3279296875 35.9410957532051  21.2984375 35.2137520032051  20.4740234375 34.3105669070513  C 19.4814453125 33.2275440705128  18.7841796875 31.8887520032051  18.4806640625 30.4660356570513  C 18.189453125 29.0992688301282  18.246875 27.6605669070513  18.665234375 26.3257712339744  C 18.9974609375 25.2507411858974  19.559375 24.2436498397436  20.29765625 23.3804286858974  C 21.1138671875 22.4332832532051  22.143359375 21.6619791666667  23.2958984375 21.1464443108974  Z M 31.61796875 25.6863481570513  C 31.2693359375 25.3266726762821  30.6048828125 25.3386618589744  30.2603515625 25.7143229166667  C 28.9765625 27.0930789262821  27.6927734375 28.4678385416667  26.4130859375 29.8505909455128  C 25.408203125 28.9713842147436  24.4115234375 28.0841846955128  23.406640625 27.2009815705128  C 23.234375 27.0571113782051  23.0046875 26.973187099359  22.7791015625 26.9811798878205  C 22.43046875 26.9771834935897  22.0900390625 27.1849959935897  21.93828125 27.4887219551282  C 21.7455078125 27.8483974358974  21.831640625 28.3279647435897  22.1474609375 28.5957231570513  C 23.31640625 29.6267928685897  24.4853515625 30.661858974359  25.654296875 31.6929286858974  C 25.7814453125 31.8008313301282  25.900390625 31.9287159455128  26.0603515625 32.0006510416667  C 26.33515625 32.1285356570513  26.6796875 32.1205428685898  26.9421875 31.9686798878205  C 27.114453125 31.8807592147436  27.2333984375 31.7248998397436  27.3646484375 31.5850260416667  L 31.5236328125 27.1130608974359  C 31.626171875 27.0011618589744  31.7451171875 26.8932592147436  31.806640625 26.7493890224359  C 31.9830078125 26.401702724359  31.905078125 25.9501101762821  31.61796875 25.6863481570513  Z " fill-rule="nonzero" fill="#30a3f6" stroke="none" transform="matrix(1 0 0 1 805 1572 )" />
  </g>
</svg>