<?xml version="1.0" encoding="utf-8"?>
<svg version="1.1" xmlns:xlink="http://www.w3.org/1999/xlink" width="31px" height="39px" xmlns="http://www.w3.org/2000/svg">
  <g transform="matrix(1 0 0 1 -1380 -986 )">
    <path d="M 18.2241649484536 21.4248595041322  C 19.3150240549828 20.9572892561983  20.4876975945017 20.7235041322314  21.7421855670103 20.7235041322314  C 22.9966735395189 20.7235041322314  24.1693470790378 20.9572892561984  25.260206185567 21.4248595041322  C 26.3510652920962 21.8924297520661  27.3055670103093 22.5387768595041  28.1237113402062 23.3639008264463  C 28.9418556701031 24.1890247933884  29.582735395189 25.1516694214876  30.0463505154639 26.2518347107438  C 30.5099656357388 27.352  30.7417731958763 28.5346776859504  30.7417731958763 29.799867768595  C 30.7417731958763 31.0650578512397  30.5099656357388 32.2477355371901  30.0463505154639 33.3479008264463  C 29.582735395189 34.4480661157025  28.9418556701031 35.4107107438017  28.1237113402062 36.2358347107438  C 27.3055670103093 37.060958677686  26.3510652920962 37.707305785124  25.260206185567 38.1748760330579  C 24.1693470790378 38.6424462809917  22.9966735395189 38.8762314049587  21.7421855670103 38.8762314049587  C 20.4876975945017 38.8762314049587  19.3150240549828 38.6424462809917  18.2241649484536 38.1748760330579  C 17.1333058419244 37.707305785124  16.1788041237113 37.060958677686  15.3606597938144 36.2358347107438  C 14.5425154639175 35.4107107438017  13.9016357388316 34.4480661157025  13.4380206185567 33.3479008264463  C 12.9744054982818 32.2477355371901  12.7425979381443 31.0650578512397  12.7425979381443 29.799867768595  C 12.7425979381443 28.5346776859504  12.9744054982818 27.352  13.4380206185567 26.2518347107438  C 13.9016357388316 25.1516694214876  14.5425154639175 24.1890247933884  15.3606597938144 23.3639008264463  C 16.1788041237113 22.5387768595041  17.1333058419244 21.8924297520661  18.2241649484536 21.4248595041322  Z M 23.0921237113402 31.2850909090909  L 26.855587628866 31.2850909090909  C 27.210116838488 31.2850909090909  27.5101030927835 31.1613223140496  27.7555463917526 30.9137851239669  C 28.0009896907216 30.6662479338843  28.1237113402062 30.3637024793388  28.1237113402062 30.0061487603306  C 28.1237113402062 29.6485950413223  28.0009896907216 29.3047933884298  27.7555463917526 28.9747438016529  C 27.5101030927835 28.644694214876  27.210116838488 28.4796694214876  26.855587628866 28.4796694214876  L 23.0921237113402 28.4796694214876  L 23.0921237113402 24.6840991735537  C 23.0921237113402 24.3265454545454  22.9557663230241 24.024  22.6830515463918 23.7764628099174  C 22.4103367697595 23.5289256198347  22.0967147766323 23.4051570247934  21.7421855670103 23.4051570247934  C 21.3876563573883 23.4051570247934  21.0603986254296 23.5289256198347  20.760412371134 23.7764628099174  C 20.4604261168385 24.024  20.3104329896907 24.3265454545454  20.3104329896907 24.6840991735537  L 20.3104329896907 28.4796694214876  L 16.6287835051546 28.4796694214876  C 16.2469828178694 28.4796694214876  15.9401786941581 28.644694214876  15.7083711340206 28.9747438016529  C 15.4765635738832 29.3047933884298  15.3606597938144 29.6485950413223  15.3606597938144 30.0061487603306  C 15.3606597938144 30.3637024793388  15.4765635738832 30.6662479338843  15.7083711340206 30.9137851239669  C 15.9401786941581 31.1613223140496  16.2469828178694 31.2850909090909  16.6287835051546 31.2850909090909  L 20.3104329896907 31.2850909090909  L 20.3104329896907 34.9981487603306  C 20.3104329896907 35.3557024793388  20.4604261168385 35.6582479338843  20.760412371134 35.9057851239669  C 21.0603986254296 36.1533223140496  21.3876563573883 36.2770909090909  21.7421855670103 36.2770909090909  C 22.0967147766323 36.2770909090909  22.4103367697595 36.1533223140496  22.6830515463918 35.9057851239669  C 22.9557663230241 35.6582479338843  23.0921237113402 35.3557024793388  23.0921237113402 34.9981487603306  L 23.0921237113402 31.2850909090909  Z M 16.7515051546392 19.217652892562  C 15.5242886597938 19.7814876033058  14.4061580756014 20.5722314049587  13.3971134020619 21.5898842975207  C 12.2789828178694 22.7450578512397  11.4335670103093 24.0377520661157  10.8608659793814 25.4679669421488  C 10.2881649484536 26.8981818181818  10.0018144329897 28.3627768595041  10.0018144329897 29.8617520661157  C 10.0018144329897 31.3607272727273  10.2881649484536 32.8253223140496  10.8608659793814 34.2555371900826  C 11.4335670103093 35.6857520661157  12.2789828178694 36.964694214876  13.3971134020619 38.0923636363636  C 13.5607422680412 38.2573884297521  13.7243711340206 38.4155371900826  13.888 38.5668099173554  C 14.0516288659794 38.7180826446281  14.2288934707904 38.862479338843  14.419793814433 39  L 2.76123711340206 39  C 1.99763573883162 39  1.3499381443299 38.7318347107438  0.81814432989691 38.1955041322314  C 0.286350515463921 37.659173553719  0.0204536082474272 37.0059504132231  0 36.2358347107438  L 0 8.18161983471074  C 0.0204536082474272 7.4115041322314  0.286350515463921 6.75828099173553  0.81814432989691 6.22195041322314  C 1.3499381443299 5.68561983471074  1.99763573883162 5.41745454545454  2.76123711340206 5.41745454545454  L 5.17476288659794 5.41745454545454  L 5.17476288659794 2.57077685950413  C 5.17476288659794 1.93818181818181  5.44065979381444 1.40185123966942  5.97245360824743 0.961785123966938  C 6.50424742268042 0.521719008264459  7.08376632302406 0.301685950413219  7.71101030927835 0.301685950413219  C 8.33825429553265 0.30168595041322  8.89050171821306 0.521719008264459  9.36775257731959 0.961785123966938  C 9.84500343642612 1.40185123966942  10.0836288659794 1.93818181818181  10.0836288659794 2.57077685950413  L 10.0836288659794 5.41745454545454  L 17.9787216494845 5.41745454545454  L 17.9787216494845 2.57077685950413  C 17.9787216494845 1.93818181818181  18.2241649484536 1.40185123966942  18.7150515463918 0.961785123966938  C 19.2059381443299 0.521719008264459  19.805910652921 0.301685950413219  20.5149690721649 0.301685950413219  C 21.2240274914089 0.30168595041322  21.8103642611684 0.521719008264459  22.2739793814433 0.961785123966938  C 22.7375945017182 1.40185123966942  22.9694020618557 1.93818181818181  22.9694020618557 2.57077685950413  L 22.9694020618557 5.41745454545454  L 25.3829278350515 5.41745454545454  C 26.146529209622 5.41745454545454  26.7942268041237 5.68561983471074  27.3260206185567 6.22195041322314  C 27.8578144329897 6.75828099173553  28.1237113402062 7.4115041322314  28 8.18161983471074  L 28 20.2284297520661  C 27.0055807560137 19.4583140495868  25.792 18.9013553719008  24.4829690721649 18.5575537190083  C 23.1739381443299 18.2137520661157  21.8649072164948 18.0968595041322  20.5558762886598 18.2068760330578  C 19.2468453608247 18.3168925619835  17.9787216494845 18.6538181818182  16.7515051546392 19.217652892562  Z M 21.9058144329897 13  L 11.3517525773196 13  C 10.9972233676976 12.884826446281  10.6972371134021 13.0567272727273  10.451793814433 13.4005289256198  C 10.2063505154639 13.7443305785124  10.0836288659794 14.0950082644628  10.0836288659794 14.4525619834711  C 10.0836288659794 14.8376198347107  10.2063505154639 15.1814214876033  10.451793814433 15.4839669421488  C 10.6972371134021 15.7865123966942  10.9972233676976 15.9377851239669  11.3517525773196 16  L 21.9058144329897 16  C 22.2603436426117 15.9377851239669  22.5603298969072 15.7865123966942  22.8057731958763 15.4839669421488  C 23.0512164948454 15.1814214876033  23.1739381443299 14.8376198347107  23.1739381443299 14.4525619834711  C 23.1739381443299 14.0950082644628  23.0512164948454 13.7443305785124  22.8057731958763 13.4005289256198  C 22.5603298969072 13.0567272727273  22.2603436426117 12.884826446281  21.9058144329897 13  Z M 5.5020206185567 30.9137851239669  C 5.74746391752577 31.188826446281  6.04745017182131 31.326347107438  6.4019793814433 31.326347107438  C 6.75650859106529 31.326347107438  7.05649484536082 31.188826446281  7.3019381443299 30.9137851239669  C 7.54738144329897 30.6387438016529  7.67010309278351 30.3224462809917  7.67010309278351 29.9648925619835  C 7.67010309278351 29.5798347107438  7.54738144329897 29.2429090909091  7.3019381443299 28.9541157024793  C 7.05649484536082 28.6653223140496  6.75650859106529 28.5209256198347  6.4019793814433 28.5209256198347  C 6.04745017182131 28.5209256198347  5.74746391752577 28.6653223140496  5.5020206185567 28.9541157024793  C 5.25657731958763 29.2429090909091  5.13385567010309 29.5798347107438  5.13385567010309 29.9648925619835  C 5.13385567010309 30.3224462809917  5.25657731958763 30.6387438016529  5.5020206185567 30.9137851239669  Z M 6.4019793814433 23.5701818181818  L 8.93822680412371 23.5701818181818  C 9.32002749140894 23.5701818181818  9.63364948453609 23.4326611570248  9.87909278350516 23.1576198347107  C 10.1245360824742 22.8825785123967  10.2472577319588 22.5662809917355  10.2472577319588 22.2087272727273  C 10.2472577319588 21.851173553719  10.1245360824742 21.5348760330579  9.87909278350516 21.2598347107438  C 9.63364948453609 20.9847933884298  9.32002749140894 20.8472727272727  8.93822680412371 20.8472727272727  L 6.4019793814433 20.8472727272727  C 6.04745017182131 20.8472727272727  5.74746391752578 20.9847933884298  5.5020206185567 21.2598347107438  C 5.25657731958763 21.5348760330579  5.1338556701031 21.851173553719  5.13385567010309 22.2087272727273  C 5.1338556701031 22.5662809917355  5.25657731958763 22.8825785123967  5.5020206185567 23.1576198347107  C 5.74746391752578 23.4326611570248  6.04745017182131 23.5701818181818  6.4019793814433 23.5701818181818  Z " fill-rule="nonzero" fill="#30a3f6" stroke="none" transform="matrix(1 0 0 1 1380 986 )" />
  </g>
</svg>