<?xml version="1.0" encoding="utf-8"?>
<svg version="1.1" xmlns:xlink="http://www.w3.org/1999/xlink" width="41px" height="37px" xmlns="http://www.w3.org/2000/svg">
  <g transform="matrix(1 0 0 1 -1277 -707 )">
    <path d="M 39.7095982142857 17.834  C 41.2379464285714 16.132  41.3111607142857 13.629875  39.9978794642857 11.937125  L 31.9900669642857 1.854625  C 31.1892857142857 0.82325  29.8805803571429 0.161875000000002  28.5672991071429 0.161875000000002  L 12.4006696428571 0.161875000000002  C 11.0919642857143 0.161875000000002  9.85189732142857 0.74925  8.97790178571428 1.854625  L 0.970089285714285 11.937125  C -0.411830357142857 13.629875  -0.269977678571428 16.132  1.18973214285714 17.755375  L 17.4295758928571 35.126875  L 17.64921875 35.348875  C 18.45 36.08425  19.5436383928571 36.52825  20.6327008928571 36.52825  L 20.7791294642857 36.52825  C 21.9459821428571 36.45425  23.0350446428571 36.014875  23.8358258928571 35.1315  L 39.7095982142857 17.834  Z M 30.3107142857143 14.813875  C 30.8964285714286 15.322625  30.8964285714286 16.28  30.3885044642857 16.872  L 22.8154017857143 25.18775  C 21.6485491071429 26.367125  19.8319196428571 26.441125  18.6650669642857 25.33575  L 18.5186383928571 25.18775  L 10.6526785714286 16.798  C 10.1447544642857 16.210625  10.1447544642857 15.25325  10.7258928571429 14.73525  C 11.3802455357143 14.147875  12.2542410714286 14.221875  12.8353794642857 14.80925  L 20.2254464285714 22.6995  C 20.4450892857143 22.93075  20.8065848214286 22.93075  21.0262276785714 22.6995  L 28.2012276785714 14.961875  C 28.7823660714286 14.3745  29.6563616071429 14.3005  30.3107142857143 14.813875  Z " fill-rule="nonzero" fill="#30a3f6" stroke="none" transform="matrix(1 0 0 1 1277 707 )" />
  </g>
</svg>