<?xml version="1.0" encoding="utf-8"?>
<svg version="1.1" xmlns:xlink="http://www.w3.org/1999/xlink" width="35px" height="32px" xmlns="http://www.w3.org/2000/svg">
  <g transform="matrix(1 0 0 1 -702 -1001 )">
    <path d="M 0.0429687499999998 24  L 0.0429687499999998 30.6307692307692  C 0.0429687499999998 30.9846153846154  0.171875 31.3230769230769  0.40234375 31.5692307692308  C 0.6328125 31.8192307692308  0.9453125 31.9576923076923  1.2734375 31.9576923076923  L 9.078125 31.9576923076923  C 9.7578125 31.9576923076923  10.3125 31.3615384615385  10.3125 30.6269230769231  L 10.3125 24  L 0.0429687499999998 24  Z M 11 1.44615384615385  C 10.31640625 0.711538461538462  9.76171875 0.115384615384615  9.08203125 0.115384615384615  L 1.27734375 0.115384615384615  C 0.59765625 0.115384615384615  0.0429687499999998 0.711538461538462  0 1.44230769230769  L 0 21.8153846153846  L 11 21.8153846153846  L 11 1.44615384615385  Z M 7.2421875 8.2  C 7.2421875 9.33461538461538  6.30859375 10.25  5.16015625 10.25  C 4.01171875 10.25  3.078125 9.33461538461538  3.078125 8.2  C 3.078125 7.06538461538462  4.0078125 6.15  5.16015625 6.15  C 6.3125 6.15  7.2421875 7.06538461538462  7.2421875 8.2  Z M 12.3828125 24  L 12.3828125 30.6307692307692  C 12.3828125 30.9846153846154  12.51171875 31.3230769230769  12.7421875 31.5692307692308  C 12.97265625 31.8192307692308  13.28515625 31.9576923076923  13.61328125 31.9576923076923  L 21.41796875 31.9576923076923  C 22.09765625 31.9576923076923  22.65234375 31.3615384615385  22.65234375 30.6269230769231  L 22.65234375 24  L 12.3828125 24  Z M 22 1.44615384615385  C 22.65625 0.711538461538462  22.1015625 0.115384615384615  21.421875 0.115384615384615  L 13.6171875 0.115384615384615  C 12.9375 0.115384615384615  12.3828125 0.711538461538462  13 1.44230769230769  L 13 21.8153846153846  L 22 21.8153846153846  L 22 1.44615384615385  Z M 19.58203125 8.20384615384615  C 19.58203125 9.33846153846154  18.6484375 10.25  17.5 10.25  C 16.3515625 10.25  15.41796875 9.33461538461538  15.41796875 8.2  C 15.41796875 7.06538461538462  16.3515625 6.15384615384615  17.5 6.15384615384615  C 18.6484375 6.15384615384615  19.58203125 7.06923076923077  19.58203125 8.20384615384615  Z M 24.72265625 24  L 24.72265625 30.6307692307692  C 24.72265625 30.9846153846154  24.8515625 31.3230769230769  25.08203125 31.5692307692308  C 25.3125 31.8192307692308  25.625 31.9576923076923  25.953125 31.9576923076923  L 33.7578125 31.9576923076923  C 34.4375 31.9576923076923  34.9921875 31.3615384615385  34.9921875 30.6269230769231  L 34.9921875 24  L 24.72265625 24  Z M 35 1.44615384615385  C 34.99609375 0.711538461538462  34.4453125 0.115384615384615  33.76171875 0.115384615384615  L 25.95703125 0.115384615384615  C 25.27734375 0.115384615384615  24.72265625 0.711538461538462  24.72265625 1.44230769230769  L 24.72265625 21.8153846153846  L 35 21.8153846153846  L 35 1.44615384615385  Z M 31.921875 8.2  C 31.921875 9.33461538461538  30.98828125 10.25  29.83984375 10.25  C 28.69140625 10.25  27.7578125 9.33461538461538  27.7578125 8.2  C 27.7578125 7.06538461538462  28.6875 6.15  29.83984375 6.15  C 30.9921875 6.15  31.921875 7.06538461538462  31.921875 8.2  Z " fill-rule="nonzero" fill="#30a3f6" stroke="none" transform="matrix(1 0 0 1 702 1001 )" />
  </g>
</svg>