<?xml version="1.0" encoding="utf-8"?>
<svg version="1.1" xmlns:xlink="http://www.w3.org/1999/xlink" width="38px" height="39px" xmlns="http://www.w3.org/2000/svg">
  <g transform="matrix(1 0 0 1 -992 -709 )">
    <path d="M 18.104 0.0914482758620696  C 18.168 0.220551724137932  18.0613333333333 -0.0161379310344822  18.104 0.0914482758620691  C 22.072 0.0914482758620691  26.104 3.4911724137931  27.4266666666667 7.92372413793103  C 28.6 11.8398620689655  27.1706666666667 15.7775172413793  23.544 18.6608275862069  C 20.3226666666667 21.2213793103448  16.824 21.4365517241379  13.2186666666667 19.3063448275862  C 6.47733333333334 15.3041379310345  6.66933333333334 5.81503448275862  13.6453333333333 1.53310344827586  C 14.968 0.71544827586207  16.376 0.285103448275863  18.104 0.0914482758620696  Z M 14.968 38.9085517241379  C 14.9893333333333 38.9085517241379  6.84 38.2630344827586  3.21333333333333 37.8542068965517  C 3.17066666666667 37.8542068965517  3.128 37.8326896551724  3.08533333333333 37.8326896551724  C -0.00799999999999971 37.1656551724138  -0.157333333333333 36.9289655172414  0.802666666666667 33.9811034482759  C 1.44266666666667 31.98  2.04 29.9788965517241  2.744 28.0208275862069  C 3.85333333333333 24.8793103448276  6.24266666666667 23.2655172413793  9.4 23.1148965517241  C 13.0906666666667 22.9212413793103  16.8026666666667 23.0288275862069  20.5146666666667 23.0718620689655  C 21.7946666666667 23.0933793103448  22.008 23.523724137931  21.4746666666667 24.7071724137931  C 21.3466666666667 25.0084137931035  21.176 25.2881379310345  21.0053333333333 25.5678620689655  C 18.8506666666667 29.0751724137931  18.1466666666667 32.8191724137931  19.128 36.8859310344828  C 19.5333333333333 38.564275862069  19.2133333333333 38.8655172413793  17.528 38.9085517241379  C 16.6746666666667 38.9300689655172  15.8213333333333 38.9085517241379  14.968 38.9085517241379  Z M 36.9626666666667 37.7251034482759  L 37 37.7466206896552  L 37 21.0492413793103  L 34.6373333333333 19.4784827586207  L 26.1893333333333 23.2870344827586  L 26.1893333333333 26.2348965517241  L 21.5173333333333 27.8702068965517  L 21.5173333333333 37.7251034482759  L 21.048 37.7251034482759  L 21.048 38.8870344827586  L 22 38.8870344827586  L 22 28.5372413793103  L 28.792 26.4931034482759  L 28.792 38.8870344827586  L 33.0373333333333 38.8870344827586  L 33.0373333333333 37.6175172413793  L 32 37.6175172413793  L 32 26.3209655172414  L 29.8373333333333 24.9438620689655  L 27.32 25.8260689655172  L 27.32 23.9540689655172  L 33 21.2213793103448  L 33 38.8870344827586  L 37.7093333333333 38.8870344827586  L 37.7093333333333 37.7251034482759  L 36.9626666666667 37.7251034482759  Z M 23.3093333333333 29.3548965517241  L 23.3093333333333 31.2053793103448  L 27.7893333333333 29.7422068965517  L 27.7893333333333 27.7841379310345  L 23.3093333333333 29.3548965517241  Z M 23.3093333333333 31.98  L 23.3093333333333 33.7444137931034  L 27.7893333333333 32.7761379310345  L 27.7893333333333 30.8180689655172  L 23.3093333333333 31.98  Z M 23.3093333333333 34.5190344827586  L 23.3093333333333 36.3695172413793  L 27.7893333333333 35.7885517241379  L 27.7893333333333 33.8304827586207  L 23.3093333333333 34.5190344827586  Z M 23.3093333333333 37.0580689655172  L 23.3093333333333 38.9085517241379  L 27.7893333333333 38.8009655172414  L 27.7893333333333 36.8644137931034  L 23.3093333333333 37.0580689655172  Z " fill-rule="nonzero" fill="#30a3f6" stroke="none" transform="matrix(1 0 0 1 992 709 )" />
  </g>
</svg>