<?xml version="1.0" encoding="utf-8"?>
<svg version="1.1" xmlns:xlink="http://www.w3.org/1999/xlink" width="16px" height="24px" xmlns="http://www.w3.org/2000/svg">
  <g transform="matrix(1 0 0 1 -620 -998 )">
    <path d="M 7.14013606122449 0.0371632245713027  C 6.30483933743597 0.0371632245713027  5.62765909004136 0.700690861731667  5.62752187755102 1.51928164  L 5.62752187755102 4.15521088  L 2.93779812244898 4.15521088  C 2.13990583199648 4.20322211513099  1.51788474262704 4.85137938291459  1.51788474262704 5.6347864  C 1.51788474262704 6.4181934170854  2.13990583199648 7.066350684869  2.93779812244898 7.11436192  L 5.62752187755102 7.11436192  L 5.62752187755102 9.75029116  C 5.62765909003685 10.5688819382715  6.30483933743278 11.2324095754367  7.14013606122449 11.2324095754367  C 7.9754327850162 11.2324095754367  8.65261303241213 10.5688819382715  8.65275024489796 9.75029116  L 8.65275024489796 7.11436192  L 11.3367874693878 7.11436192  C 11.3676514181549 7.11621908332776  11.3985662205699 7.11714832  11.4294882936474 7.11714832  C 12.2648820509392 7.11714832  12.9421024977291 6.45347228214589  12.9421024977291 5.6347864  C 12.9421024977291 4.8161005178541  12.2648820509392 4.15242448  11.4294882936474 4.15242448  C 11.3985662205699 4.15242448  11.3676514181549 4.15335371667224  11.3367874693878 4.15521088  L 8.65275024489796 4.15521088  L 8.65275024489796 1.51928164  C 8.65261303240761 0.700690861731666  7.975432785013 0.0371632245713027  7.14013606122449 0.0371632245713027  Z M 5.36594195918367 22.51755104  C 5.36594195918367 21.75407896  4.17177285714286 21.07419864  2.71033734693877 21.07419864  C 1.25458836734694 21.07419864  0.0717922857142839 21.7094966  0.0717923265306126 22.49525988  C 0.0717923673469414 23.28102316  1.25458836734694 23.91632112  2.71033734693878 23.91632108  C 4.16608632653061 23.91632104  5.36594195918367 23.28102312  5.36594195918367 22.51755104  Z M 15.8916895918367 22.49525988  C 15.8916895918367 21.70949664  14.7088935510204 21.07419864  13.2531445306122 21.07419864  C 11.7973955510204 21.07419864  10.6145994693878 21.7094966  10.6145994693878 22.49525988  C 10.6145994693878 23.28102316  11.7973955102041 23.91632112  13.2531445306122 23.91632108  C 14.7088935510204 23.91632104  15.8916895918367 23.28102312  15.8916895918367 22.49525988  Z " fill-rule="nonzero" fill="#30a3f6" stroke="none" transform="matrix(1 0 0 1 620 998 )" />
  </g>
</svg>