<?xml version="1.0" encoding="utf-8"?>
<svg version="1.1" xmlns:xlink="http://www.w3.org/1999/xlink" width="35px" height="36px" xmlns="http://www.w3.org/2000/svg">
  <g transform="matrix(1 0 0 1 -1275 -1291 )">
    <path d="M 13.964102578125 29.1644444583333  L 10.0871795012019 35.7777777916667  C 10.0871795012019 35.7777777916667  8.07692307692308 33.5377777916667  6.17435896033654 31.688888875  C 4.14615384615385 31.13777775  2.1 30.6222222083333  0.0358974218750021 30.1422222083333  L 4.21794873197115 22.9777777916667  C 6.42564103966346 25.82222225  10.3025641165865 28.2755555833333  13.964102578125 29.1644444583333  Z M 34.964102578125 30.1422222083333  C 34.9461538461538 30.16  31.8769230769231 30.5866666666667  29.1666666526442 31.3333333333333  C 27.2641025360577 33.1822222083333  24.8948717668269 35.7777777916667  24.8948718088942 35.7777777916667  L 21.0538461538462 29.1644444583333  C 24.7153846153846 28.2755555833333  28.2333333473558 25.84  30.4410256550481 22.9777777916667  L 34.964102578125 30.1422222083333  Z M 31.0333333473558 13.6622222083333  C 31.0333333894231 6.42666666666666  24.7692307692308 0.222222208333333  17.4820512680288 0.222222208333333  C 10.1948717668269 0.222222208333333  3.93076923076923 6.78222220833333  3.93076923076923 14.0177777916667  C 3.93076923076923 21.253333375  10.1948718088942 27.10222225  17.4820512680288 27.1022222083333  C 24.7692307271635 27.1022221666667  31.0333333052885 20.89777775  31.0333333473558 13.6622222083333  Z M 25.2897435757212 10.96  C 25.8641025360577 11.5466666666667  25.8820512680288 12.5066666666667  25.3076923076923 13.0755555416667  L 22.9384615384615 15.511111125  C 22.6153846153846 15.831111125  22.4538461538462 16.2933333333333  22.5615384615385 16.7555555416667  L 22.5615384615385 16.808888875  L 23.1 20.1155555416667  C 23.1538461538461 20.4355555416667  23.1 20.7733333333333  22.9384615384615 21.04  C 22.5256410396635 21.768888875  21.6102564242788 22.0533333333333  20.8743589603365 21.6444444583333  L 18.1461538461538 20.2044444583333  C 17.7153846153846 19.9733333333333  17.1769230769231 19.9733333333333  16.7461538461538 20.2577777916667  L 14.0897435757211 21.6622222083333  C 13.7846153846154 21.8222222083333  13.4615384615385 21.85777775  13.1205128064904 21.8222222083333  C 12.3128204987981 21.69777775  11.7384615384615 20.9155555416667  11.864102578125 20.1155555416667  L 12.4205128064904 16.6844444583333  C 12.4743589603365 16.2755555833333  12.3487179206731 15.8844444583333  12.0615384615385 15.5822222083333  L 9.67435896033654 13.0755555416667  C 9.47692307692308 12.8444444166667  9.31538461538461 12.5422222083333  9.26153846153846 12.24  C 9.135897421875 11.44  9.72820511418269 10.6755555416667  10.535897421875 10.551111125  L 13.5871795012019 10.071111125  C 14.0717948858173 10.0533333333333  14.5025641165865 9.751111125  14.7 9.30666666666667  L 16.1 6.35555554166667  C 16.3512820372596 5.85777775  16.8897435757212 5.50222220833334  17.4820512680288 5.50222220833334  C 18.0743589603365 5.50222220833334  18.5948717668269 5.82222220833334  18.864102578125 6.35555554166667  L 20.2461538461538 9.288888875  C 20.4435897295673 9.75111108333333  20.8743589603365 10.0533333333333  21.3948718088942 10.088888875  L 24.4461538461538 10.551111125  C 24.7512820372596 10.6044444583333  25.0564102704327 10.7466666666667  25.2897435757212 10.96  Z " fill-rule="nonzero" fill="#30a3f6" stroke="none" transform="matrix(1 0 0 1 1275 1291 )" />
  </g>
</svg>