<?xml version="1.0" encoding="utf-8"?>
<svg version="1.1" xmlns:xlink="http://www.w3.org/1999/xlink" width="34px" height="34px" xmlns="http://www.w3.org/2000/svg">
  <g transform="matrix(1 0 0 1 -708 -1573 )">
    <path d="M 34 11.3333333333333  C 34 9.24817708333333  32.3088541666667 7.55703125  30.2236979166667 7.55703125  L 20.2760416666667 7.55703125  C 18.39453125 7.55703125  16.80078125 6.17578125  16.53515625 4.31197916666667  L 16.3846354166667 3.24505208333333  C 16.1190104166667 1.38567708333333  14.5252604166667 0  12.64375 0  L 3.77630208333333 0  C 1.7 0  0 1.7  0 3.77630208333333  L 0 30.2192708333333  C 0 32.2955729166667  1.7 33.9955729166667  3.77630208333333 34  L 30.2192708333333 34  C 32.2955729166667 33.9955729166667  33.9955729166667 32.2955729166667  34 30.2192708333333  L 34 11.3333333333333  Z M 11.3333333333333 28.3333333333333  C 11.3333333333333 29.3736979166667  10.4833333333333 30.2236979166667  9.44296875 30.2236979166667  C 8.40260416666667 30.2236979166667  7.55260416666667 29.3736979166667  7.55260416666667 28.3333333333333  C 7.55260416666667 27.29296875  8.40260416666667 26.44296875  9.44296875 26.44296875  C 10.4833333333333 26.44296875  11.3333333333333 27.29296875  11.3333333333333 28.3333333333333  Z M 11.3333333333333 13.2236979166667  L 11.3333333333333 20.7763020833333  C 11.3333333333333 21.8166666666667  10.4833333333333 22.6666666666667  9.44296875 22.6666666666667  C 8.40260416666667 22.6666666666667  7.55260416666667 21.8166666666667  7.55260416666667 20.7763020833333  L 7.55260416666667 13.2236979166667  C 7.55260416666667 12.1833333333333  8.40260416666667 11.3333333333333  9.44296875 11.3333333333333  C 10.4833333333333 11.3333333333333  11.3333333333333 12.1833333333333  11.3333333333333 13.2236979166667  Z M 18.8903645833333 28.3333333333333  C 18.8903645833333 29.3736979166667  18.0403645833333 30.2236979166667  17 30.2236979166667  C 15.9596354166667 30.2236979166667  15.1096354166667 29.3736979166667  15.1096354166667 28.3333333333333  C 15.1096354166667 27.29296875  15.9596354166667 26.44296875  17 26.44296875  C 18.0403645833333 26.44296875  18.8903645833333 27.29296875  18.8903645833333 28.3333333333333  Z M 18.8903645833333 13.2236979166667  L 18.8903645833333 20.7763020833333  C 18.8903645833333 21.8166666666667  18.0403645833333 22.6666666666667  17 22.6666666666667  C 15.9596354166667 22.6666666666667  15.1096354166667 21.8166666666667  15.1096354166667 20.7763020833333  L 15.1096354166667 13.2236979166667  C 15.1096354166667 12.1833333333333  15.9596354166667 11.3333333333333  17 11.3333333333333  C 18.0403645833333 11.3333333333333  18.8903645833333 12.1833333333333  18.8903645833333 13.2236979166667  Z M 26.4473958333333 28.3333333333333  C 26.44296875 29.3736979166667  25.59296875 30.2236979166667  24.55703125 30.2236979166667  C 23.5166666666667 30.2236979166667  22.6666666666667 29.3736979166667  22.6666666666667 28.3333333333333  C 22.6666666666667 27.29296875  23.5166666666667 26.44296875  24.55703125 26.44296875  C 25.5973958333333 26.44296875  26.4473958333333 27.29296875  26.4473958333333 28.3333333333333  Z M 26.44296875 13.2236979166667  L 26.44296875 20.7763020833333  C 26.44296875 21.8166666666667  25.59296875 22.6666666666667  24.5526041666667 22.6666666666667  C 23.5122395833333 22.6666666666667  22.6622395833333 21.8166666666667  22.6622395833333 20.7763020833333  L 22.6622395833333 13.2236979166667  C 22.6622395833333 12.1833333333333  23.5122395833333 11.3333333333333  24.5526041666667 11.3333333333333  C 25.59296875 11.3333333333333  26.44296875 12.1833333333333  26.44296875 13.2236979166667  Z " fill-rule="nonzero" fill="#30a3f6" stroke="none" transform="matrix(1 0 0 1 708 1573 )" />
  </g>
</svg>