<?xml version="1.0" encoding="utf-8"?>
<svg version="1.1" xmlns:xlink="http://www.w3.org/1999/xlink" width="34px" height="34px" xmlns="http://www.w3.org/2000/svg">
  <g transform="matrix(1 0 0 1 -1479 -991 )">
    <path d="M 0.679578628718449 0.70077778515625  C 1.07925297641226 0.2848444296875  1.64411066871995 0.035888892578125  2.22437010051082 0  L 20.4553735117939 0  C 20.4553735117939 2.75513332226563  20.4549884615385 5.5106444296875  20.4553735117939 8.26577778515625  C 21.4326119733323 7.531  22.4086953179462 6.79471110742187  23.385933745643 6.0595555703125  C 24.3674076923077 6.79697778515625  25.3465713374399 7.53666667773437  26.3280452841046 8.27408889257812  C 26.32843033436 5.51631110742187  26.3280452841046 2.7581555703125  26.3280452841046 0  L 27.4188713712815 0  C 27.958316254357 0.0321111074218741  28.4854397323092 0.246688892578124  28.8785683610276 0.612377785156249  C 29.3413897323092 1.0336  29.6136149497446 1.64748889257812  29.6097645148738 2.2670444296875  C 29.6101495651292 7.599  29.6105346153846 12.9309555371094  29.6097645148738 18.2629111074219  C 28.2066687958984 17.6883111074219  26.6530213374399 17.4778888925781  25.142883745643 17.6497777851562  C 23.7771371569261 17.8020222148437  22.4498948492338 18.2719777851562  21.2993871907677 19.0097777851562  C 20.211256421537 19.7052666777344  19.2802230769231 20.6353555703125  18.5921517056415 21.7161777851562  C 17.8440136789739 22.8861555703125  17.3865829097431 24.2329333554687  17.2699149497446 25.6091777851563  C 17.1370752174354 27.1278444628906  17.4116106687199 28.6801333554688  18.0708038461538 30.0609111074219  C 18.8085457189754 31.6203777851563  20.0279760533353 32.9531777851562  21.5230970235877 33.8485111074219  C 15.2726982943585 33.8492666777344  9.02191454871544 33.8485111074219  2.77113076923077 33.8488888925781  C 2.45847605333533 33.8466222148438  2.14081581948618 33.8658888925781  1.83432180615234 33.7918444296875  C 1.18667993333083 33.6509333222656  0.614506421536956 33.2176222148438  0.306857257436897 32.6415111074219  C 0.148219665640024 32.3536444296875  0.0646653846153846 32.0306444296875  0 31.7053777851563  L 0 2.14993332226563  C 0.0719812041015625 1.61311110742188  0.297231204101563 1.088  0.679578628718449 0.70077778515625  Z M 5.73865511692458 5.73957778515625  C 5.67858846153846 5.74108889257812  5.61813675589694 5.74524446289062  5.55961026769081 5.75922221484375  C 5.3301247825646 5.81173332226563  5.13028762563852 5.9738  5.03479702358774 6.1853555703125  C 4.91620384615385 6.43922224804688  4.95817351179387 6.75617778515625  5.14068374564303 6.9707555703125  C 5.29085040102915 7.15624446289063  5.53304230769231 7.25862224804688  5.77330896307842 7.25068889257813  C 9.85630214051232 7.25106667773438  13.93968033436 7.25106667773438  18.0226735117939 7.25068889257813  C 18.2818072574369 7.26013332226563  18.5420961538462 7.13811110742188  18.6895675251277 6.92768889257813  C 18.8497453179462 6.70744446289063  18.8732329097431 6.40068889257812  18.7488641138447 6.15966667773437  C 18.6244953179462 5.9065555703125  18.3461093979492 5.73542224804688  18.0592525753831 5.7399555703125  C 13.9523867558969 5.73957778515625  9.84552093641076 5.73957778515625  5.73865511692458 5.73957778515625  Z M 5.73942521743539 12.0862444296875  C 5.67858846153846 12.0873777519531  5.61698163897235 12.092288859375  5.55768505025541 12.1066444296875  C 5.32935471589543 12.1591555371094  5.13105769230769 12.3204666445312  5.03556709025691 12.5305111074219  C 4.91581879589844 12.7847555371094  4.95778846153846 13.1036  5.14145384615385 13.3185555703125  C 5.29200555179537 13.5032888925781  5.53342735794772 13.6052888925781  5.77292394666466 13.5973555703125  C 9.41966367897386 13.5977333554688  13.0664034451247 13.5977333554688  16.7131431774339 13.5969777851563  C 16.961495752817 13.6041555703125  17.2106183948693 13.4904444628906  17.3580897323092 13.2928666777344  C 17.5402149497446 13.0590222480469  17.5610072574369 12.7186444628906  17.4089153846154 12.4651555703125  C 17.2776158194862 12.2366  17.0173269230769 12.085111140625  16.7489521405123 12.0866222148438  C 13.07910983282 12.0858666445312  9.4092675251277 12.0866222148438  5.73942521743539 12.0862444296875  Z M 5.92963632102614 18.4329111074219  C 5.79448632102614 18.4340444296875  5.65587093641076 18.4230888925781  5.52495642153696 18.4616222148438  C 5.2912354851262 18.5262222148437  5.09524872922927 18.7056666445313  5.01361966564002 18.9300666777344  C 4.91812906358924 19.1828  4.97473033435997 19.4842666777344  5.15878076923077 19.6852444296875  C 5.31048759179687 19.8586444296875  5.54459357846304 19.9515777519531  5.77638933128005 19.9440222148437  C 7.83059230769231 19.9440222148437  9.88518036820162 19.9451555371094  11.9393833446139 19.9432666777344  C 12.2154589969201 19.9485555703125  12.4872991641001 19.7970666777344  12.6209089630784 19.5594444296875  C 12.76684016718 19.3123777519531  12.7506683610276 18.984088859375  12.5800944482046 18.7528888925781  C 12.4376286287184 18.5500222148437  12.1881209364108 18.4264888925781  11.9370730769231 18.4329111074219  C 9.93446581948618 18.4332888925781  7.93185856204928 18.4329111074219  5.92963632102614 18.4329111074219  Z M 5.77407906358924 24.7792  C 5.70130598666617 24.7792  5.62776280923227 24.7826  5.55652989948918 24.7999777851562  C 5.23270896307842 24.8725111074219  4.97896578564453 25.1705777851563  4.96895471589543 25.4973555703125  C 4.94777735794772 25.8112888925781  5.15223505025541 26.1214444628906  5.45025812717849 26.2351555703125  C 5.60196494974459 26.299  5.76945856204928 26.2910666777344  5.93079143795072 26.2910666777344  C 7.43284314359225 26.2903111074219  8.93489484923377 26.2910666777344  10.4369465887169 26.2906888925781  C 10.6956953179462 26.2993777851562  10.9559841805138 26.1762222148438  11.1023004348708 25.9650444296875  C 11.2774948830754 25.7232666445312  11.2851957189754 25.3787333222656  11.1200124082031 25.1305333222656  C 10.9837072912785 24.9152  10.7307342143555 24.7769333222656  10.4719854851262 24.7799555703125  C 8.90601668922777 24.7792  7.34004789332933 24.7803333554688  5.77407906358924 24.7792  Z M 20.8531226420523 20.8352  C 22.2000021405123 19.5726666777344  24.0270298994892 18.8193777851563  25.8890965887169 18.7589333222656  C 27.2355910369216 18.7071777519531  28.5951769230769 19.0052444296875  29.7876542810246 19.6225333222656  C 30.9508683948693 20.2216888925781  31.9542897661508 21.1155111074219  32.6754747825646 22.1933111074219  C 33.3454491302584 23.1914  33.7689961538462 24.3474  33.8991406020508 25.5358888925781  C 34.0878115384615 27.1958444628906  33.7031538461539 28.9139777851562  32.80946966564 30.3366888925781  C 32.0520906020508 31.5557777851562  30.9377769230769 32.5572666777344  29.6344072574369 33.1919333222656  C 27.8693713712816 34.0608222148437  25.7620324748723 34.221  23.8784034112831 33.643  C 22.6990175251277 33.2844888925781  21.6105017056415 32.6426444296875  20.7333743476938 31.7903777851562  C 19.8004157856445 30.8920222148438  19.106183745643 29.7575555703125  18.7376978594877 28.5271333222656  C 18.3160760533353 27.1286  18.3160760533353 25.6106888925781  18.7373128092323 24.2121555703125  C 19.1212004010292 22.9292222480469  19.8597123743615 21.7505555703125  20.8531226420523 20.8352  Z M 29.7718675251277 24.2083777851562  C 29.5608641138447 23.9858666777344  29.20700983282 23.9122  28.9220781938477 24.0319555703125  C 28.7823076923077 24.0844666777344  28.6737256184645 24.1883555703125  28.5720743476938 24.2926222148437  C 27.5174423076923 25.3273555371094  26.4631952841046 26.3624666445312  25.4081781938477 27.3964444296875  C 24.6816025415415 26.6858444296875  23.9577222071815 25.9729777519531  23.2315316389724 25.262  C 23.0517166892278 25.0795333222656  22.7756410369216 24.9964222148438  22.5230529764123 25.0512  C 22.2519828759014 25.1040888925781  22.0213423076923 25.3126222148437  21.944333745643 25.5725333222656  C 21.8627046820538 25.8271555371094  21.9350927087215 26.1203111074219  22.124533745643 26.3114666777344  C 23.0524867220553 27.2264444628906  23.9869854512846 28.1353777851563  24.9133982943585 29.0514888925781  C 25.20218033436 29.2974222148437  25.6780931774339 29.2777777851562  25.9437726420523 29.0076666777344  C 27.1970867558969 27.7798888925781  28.4480906020508 26.5502222480469  29.7014047158954 25.3224444296875  C 29.7934299333308 25.2344222148437  29.8800645487154 25.1369555371094  29.9274247825646 25.0183333222656  C 30.0429375917969 24.7489777519531  29.9809457189754 24.4172888925781  29.7718675251277 24.2083777851562  Z " fill-rule="nonzero" fill="#30a3f6" stroke="none" transform="matrix(1 0 0 1 1479 991 )" />
  </g>
</svg>