<?xml version="1.0" encoding="utf-8"?>
<svg version="1.1" xmlns:xlink="http://www.w3.org/1999/xlink" width="31px" height="39px" xmlns="http://www.w3.org/2000/svg">
  <g transform="matrix(1 0 0 1 -800 -709 )">
    <path d="M 25.645037037037 8  L 5.36414814814815 8  C 4.90693004115226 7.51580198019802  4.56401646090535 7.43342574257426  4.33540740740741 7.26867326732673  C 4.10679835390946 7.10392079207921  3.9435061728395 6.90621782178218  3.84553086419753 6.67556435643564  C 3.71489711934156 6.4119603960396  3.64958024691358 6.11540594059406  3.64958024691358 5.78590099009901  L 3.64958024691358 2.52380198019802  C 3.64958024691358 1.89774257425743  3.77204938271605 1.42819801980198  4.01698765432099 1.11516831683168  C 4.26192592592592 0.802138613861384  4.53135802469136 0.563247524752474  4.82528395061728 0.398495049504948  C 5.18452674897119 0.233742574257423  5.5764279835391 0.15136633663366  6.00098765432099 0.15136633663366  L 24.9592098765432 0.15136633663366  C 25.3837695473251 0.15136633663366  25.775670781893 0.233742574257423  26.1349135802469 0.398495049504948  C 26.4288395061728 0.563247524752474  26.6982716049383 0.802138613861384  26.9432098765432 1.11516831683168  C 27.1881481481481 1.42819801980198  27.3106172839506 1.89774257425743  27.3106172839506 2.52380198019802  L 27.3106172839506 5.78590099009901  C 27.3106172839506 6.11540594059406  27.2453004115226 6.4119603960396  27.1146666666667 6.67556435643564  C 27.0166913580247 6.90621782178218  26.8615637860082 7.10392079207921  26.6492839506173 7.26867326732673  C 26.4370041152263 7.43342574257426  26.1022551440329 7.51580198019802  25.645037037037 8  Z M 30.8867160493827 16.6101386138614  L 30.8867160493827 35.0953663366337  C 30.8867160493827 35.8202772277228  30.7560823045267 36.4792871287129  30.4948148148148 37.072396039604  C 30.2662057613169 37.5666534653465  29.9151275720165 38.0114851485149  29.4415802469136 38.4068910891089  C 28.9680329218107 38.802297029703  28.2903703703704 39  27.4085925925926 39  L 3.60059259259259 39  C 2.68615637860082 39  2.000329218107 38.802297029703  1.54311111111111 38.4068910891089  C 1.08589300411523 38.0114851485149  0.742979423868314 37.5666534653465  0.514370370370371 37.072396039604  C 0.253102880658437 36.4792871287129  0.106139917695474 35.8202772277228  0 35.0953663366337  L 0 16.6101386138614  C 0.0734814814814829 15.5227722772277  0.269432098765434 14.7484356435643  0.661333333333334 14.2871287128713  C 1.05323456790124 13.8258217821782  1.41247736625515 13.4304158415842  1.73906172839506 13.1009108910891  L 5.21718518518518 10  L 26.4288395061728 10  L 29.2211358024691 13.1009108910891  C 29.5477201646091 13.4304158415842  29.906962962963 13.8258217821782  30.2988641975309 14.2871287128713  C 30.6907654320988 14.7484356435644  30.8867160493827 15.5227722772277  30.8867160493827 16.6101386138614  Z M 23.2446419753086 27.6320792079208  L 23.2446419753086 22.3435247524753  L 18.1009382716049 22.3435247524753  L 18.1009382716049 17.104396039604  L 12.8592592592593 17.104396039604  L 12.8592592592593 22.3435247524753  L 7.71555555555556 22.3435247524753  L 7.71555555555556 27.6320792079208  L 12.8592592592593 27.6320792079208  L 12.8592592592593 32.8217821782178  L 18.1009382716049 32.8217821782178  L 18.1009382716049 27.6320792079208  L 23.2446419753086 27.6320792079208  Z " fill-rule="nonzero" fill="#30a3f6" stroke="none" transform="matrix(1 0 0 1 800 709 )" />
  </g>
</svg>