<?xml version="1.0" encoding="utf-8"?>
<svg version="1.1" xmlns:xlink="http://www.w3.org/1999/xlink" width="29px" height="29px" xmlns="http://www.w3.org/2000/svg">
  <g transform="matrix(1 0 0 1 -1381 -715 )">
    <path d="M 14.4571692307692 29  C 6.57224234087729 29  0.180246153846156 22.524990875475  0.180246153846156 14.5376623376623  C 0.180246153846156 6.55033379984972  6.57224234087729 0.0753246753246764  14.4571692307692 0.0753246753246764  C 22.3420961206612 0.0753246753246764  28.7340923076923 6.55033379984972  28.7340923076923 14.5376623376623  C 28.7340923076923 22.524990875475  22.3420961206612 29  14.4571692307692 29  Z M 9.21396923076923 21.8501818181818  L 14.4571692307692 19.0571428571429  L 19.7021538461538 21.8501818181818  L 18.7009846153846 15.9350857142857  L 22.9430153846154 11.7446233766234  L 17.0787692307692 10.8804987012987  L 14.4571692307692 5.4987012987013  L 11.8337846153846 10.8804987012987  L 5.97132307692308 11.7446233766234  L 10.2133538461538 15.9350857142857  L 9.21396923076923 21.8501818181818  Z " fill-rule="nonzero" fill="#30a3f6" stroke="none" transform="matrix(1 0 0 1 1381 715 )" />
  </g>
</svg>