<?xml version="1.0" encoding="utf-8"?>
<svg version="1.1" xmlns:xlink="http://www.w3.org/1999/xlink" width="41px" height="44px" xmlns="http://www.w3.org/2000/svg">
  <g transform="matrix(1 0 0 1 -1176 -704 )">
    <path d="M 23.5978615805027 17.6000000429688  C 23.5473806368886 17.7817109622396  23.4842794504076 17.9764012226563  23.4085581463995 18.18407078125  C 22.1212938196332 18.7292035104167  20.9413015084919 19.4560471731771  19.8685812129755 20.3646017695312  C 18.7958609174592 21.2731563658854  17.8682733800951 22.3115044453125  17.0858186008832 23.4796460078125  C 16.3033638216712 24.6477875703125  15.697592372962 25.9262536471354  15.2685042547554 27.3150442382813  C 14.8394161365489 28.7038348294271  14.6248720774457 30.1640118255208  14.6248720774457 31.6955752265625  C 14.6248720774457 33.0454277369792  14.7952452934783 34.3368731692708  15.1359917255435 35.5699115234375  C 15.4767381576087 36.8029498776042  15.9499971049592 37.9646017981771  16.5557685675951 39.0548672851563  L 15.5335292296196 39.0548672851563  C 14.8015553940217 39.0548672851563  13.9496892860054 39.0289085885417  12.9779309055707 38.9769911953125  C 12.0061725251359 38.9250738020833  11.0028635584239 38.8536873684896  9.96800400543478 38.7628318945312  C 8.93314445244565 38.6719764205729  7.90459501392663 38.5681416054688  6.88235568987772 38.4513274492188  C 5.86011636582881 38.3345132929688  4.93252882846467 38.2112094518229  4.09959307778533 38.0814159257813  C 3.26665732710598 37.9516223997396  2.55992396331522 37.8218288880209  1.97939298641304 37.692035390625  C 1.39886200951087 37.5622418932292  1.03287509171196 37.4324483815104  0.881432233016303 37.3026548554688  C 0.603786973505434 37.0949852252604  0.395553042798912 36.4525073515625  0.256730440896738 35.375221234375  C 0.117907838994564 34.2979351171875  0.174698911005434 32.9156342252604  0.427103656929347 31.2283185585938  C 0.528065572010869 30.5793510143229  0.736299502717391 30.0471976263021  1.05180544904891 29.6318583945313  C 1.36731139538043 29.2165191627604  1.7522286705163 28.8595870091146  2.20655727445652 28.5610619335938  C 2.66088587839674 28.2625368580729  3.16569542595109 28.0224188606771  3.72098591711956 27.8407079414063  C 4.27627640828804 27.6589970221354  4.84418714232337 27.4837757877604  5.42471811922554 27.3150442382813  C 6.00524909612772 27.1463126888021  6.56684971569293 26.9646017695313  7.10951997792119 26.7699114804688  C 7.65219024014946 26.5752211914063  8.15068965930706 26.3351031940104  8.60501823539402 26.0495574882813  C 9.1350682408288 25.7120943606771  9.54522598777174 25.3811209036458  9.83549147622282 25.0566371171875  C 10.1257569646739 24.7321533307292  10.3339908953804 24.4141592291667  10.4601932683424 24.1026548125  C 10.5863956413043 23.7911503958333  10.6494968277853 23.4666666236979  10.6494968277853 23.1292034960938  C 10.6494968277853 22.7917403684896  10.6368765849185 22.4153391888021  10.6116360991848 21.9999999570313  C 10.5611551555707 21.4029498059896  10.3592313393342 20.9292034960938  10.0058646504755 20.5787610273438  C 9.65249796161685 20.2283185585938  9.26127057201087 19.8713864049479  8.8321824816576 19.5079645664063  C 8.63025865149456 19.3262536471354  8.4472651925951 19.0731563085938  8.28320210495923 18.7486725507813  C 8.11913901732336 18.4241887929688  7.97400627309782 18.0932153359375  7.84780387228261 17.7557521796875  C 7.72160149932065 17.3663716588542  7.59539911243206 16.9640117825521  7.46919671161684 16.5486725507813  C 7.2925133671875 16.4967551575521  7.11583002275815 16.4058996979167  6.9391466783288 16.276106171875  C 6.78770381963315 16.1463126744792  6.62364071807065 15.9646017552083  6.4469573736413 15.7309734140625  C 6.27027402921195 15.4973450729167  6.1188311705163 15.1598819453125  5.99262879755434 14.71858403125  C 5.86642642459239 14.2772861171875  5.81594546705163 13.8749262408854  5.84118592493206 13.5115044023438  C 5.8664263828125 13.1480825638021  5.94214781216032 12.8235987916667  6.06835021297554 12.5380530859375  C 6.16931212805706 12.2525073515625  6.33337522961956 11.9799409869792  6.56053951766304 11.7203539921875  C 6.56053951766304 10.7339233203125  6.6110204752038 9.74749264843751  6.71198239028532 8.76106197656251  C 6.81294430536684 7.93038351302084  6.98962764979619 7.03480828645834  7.24203242357337 6.07433629687501  C 7.49443719735054 5.11386430729168  7.88566458695652 4.25722713281251  8.4157145923913 3.50442477343751  C 8.92052413994565 2.77758112500001  9.46319440217391 2.18702065885418  10.0437253790761 1.73274337500001  C 10.6242563559783 1.27846609114584  11.2300278046875 0.921533937500009  11.8610397252038 0.661946914062509  C 12.4920516457201 0.402359890625009  13.1167534517663 0.227138656250009  13.7351451433424 0.136283210937509  C 14.3535368349185 0.0454277369791696  14.9529981691576 0  15.5335291460598 0  C 16.2655029816576 0  16.9911667027853 0.0843657890625029  17.7105203094429 0.253097367187509  C 18.4298739161005 0.421828945312515  19.1050566796875 0.648967587239598  19.7360686002038 0.934513292968759  C 20.3670805207201 1.22005899869792  20.9286811402853 1.54454277083334  21.4208704588995 1.90796460937501  C 21.9130597775136 2.27138644791668  22.2979770526495 2.63480827213543  22.5756222843071 2.99823008203126  C 23.2318746905571 3.82890854557293  23.7114437523777 4.74395279817709  24.014329469769 5.74336283984376  C 24.3172151871603 6.74277288151043  24.5317592462636 7.69675518619793  24.6579616470788 8.60530975390626  C 24.7841640200408 9.64365784765626  24.8472652065217 10.6949852825521  24.8472652065217 11.7592920585938  C 25.0239485509511 11.8890855559896  25.1627711807065 12.0578171197917  25.263733095788 12.26548675  C 25.3646950108696 12.4471976692708  25.4467265546875 12.6808259817708  25.5098277272418 12.9663716875  C 25.5729288997962 13.2519173932292  25.5792390142663 13.6023598763021  25.5287580706522 14.0176991367188  C 25.478277127038 14.5887905768229  25.3710050974864 15.0365781901042  25.2069419819973 15.3610619765625  C 25.0428788665081 15.6855457630208  24.8598854076087 15.9386431015625  24.6579616052989 16.1203539921875  C 24.4307973172554 16.3280236223958  24.1910127863451 16.4707964895833  23.9386080125679 16.54867259375  C 23.8881270689538 16.7044248020833  23.837646111413 16.8731563658854  23.7871651399456 17.0548672851563  L 23.5978615805027 17.6000000429688  Z M 24.1468420825408 20.4035397929687  C 25.5981694969429 19.7545722486979  27.1567689548234 19.4300884765625  28.8226404561821 19.4300884765625  C 30.4632714718071 19.4300884765625  32.0092507007473 19.7545722486979  33.4605781430027 20.4035397929688  C 34.9119055852582 21.0525073372396  36.1739294402174 21.9351032083333  37.2466497078804 23.05132740625  C 38.3193699755435 24.1675516041667  39.1712360835598 25.4719763776042  39.8022480319293 26.9646017265625  C 40.4332599802989 28.4572270755208  40.7487659405571 30.0471975833333  40.7487659127038 31.73451325  C 40.7487658848505 33.4218289166667  40.4332599245924 35.0117994244792  39.8022480319293 36.5044247734375  C 39.1712361392663 37.9970501223958  38.31937003125 39.3014748958333  37.2466497078804 40.41769909375  C 36.1739293845109 41.5339232916667  34.9119055295516 42.4100294921875  33.4605781430027 43.0460176953125  C 32.0092507564538 43.6820058984375  30.4632715275136 44  28.8226404561821 44  C 27.1567689548234 44  25.5981694969429 43.6820058984375  24.1468420825408 43.0460176953125  C 22.6955146681386 42.4100294921875  21.4334908131794 41.5339232916667  20.360770517663 40.41769909375  C 19.2880502221467 39.3014748958333  18.4361841141304 37.9970501223958  17.8051721936141 36.5044247734375  C 17.1741602730978 35.0117994244792  16.8586543128397 33.4218289166667  16.8586543128397 31.73451325  C 16.8586543128397 30.0471975833333  17.1741602730978 28.4572270755208  17.8051721936141 26.9646017265625  C 18.4361841141304 25.4719763776042  19.2880502221467 24.1675516041667  20.360770517663 23.05132740625  C 21.4334908131794 21.9351032083333  22.6955146681386 21.0525073372396  24.1468420825408 20.4035397929687  Z M 35.2211013753397 30.9946902460937  C 35.4482656633832 30.3457226731771  35.6375692367527 29.7876105742187  35.7890121372283 29.3203539921875  C 35.9404549959239 28.8011799453125  35.8710436810462 28.3274336354167  35.5807781925951 27.8991150625  C 35.290512704144 27.4707964895833  34.9055954290082 27.1657817434896  34.4260263671875 26.9840708242188  C 33.9464573053668 26.8023599049479  33.4668882435462 26.7893805494792  32.9873191817255 26.9451327578125  C 32.5077501199049 27.1008849661458  32.1543834449728 27.5032448424479  31.9272191569293 28.1522123867188  C 31.8010167839674 28.5935103294271  31.6811245115489 29.002359890625  31.5675423396739 29.3787610703125  C 31.4539601677989 29.75516225  31.3403780237772 30.1510324557292  31.2267959076087 30.5663716875  C 31.1132137914402 30.9817109192708  30.9743911616848 31.4294985325521  30.8103280183424 31.9097345273438  C 30.646264875 32.3899705221354  30.4380309442935 32.9415929361979  30.1856262262228 33.5646017695313  C 29.9332214524457 34.2395280247396  29.5735446491168 34.5575221263021  29.1065958162364 34.5185840742188  C 28.639646983356 34.4796460221354  28.2799701800272 34.2005899726563  28.02756540625 33.6814159257813  C 27.7499201467391 33.1622418789063  27.4912052584918 32.6041297799479  27.2514207415082 32.0070796289063  C 27.0116362245245 31.4100294778646  26.7781618080842 30.8259586822917  26.5509974921875 30.2548672421875  C 26.3238331762908 29.6837758020833  26.1219093600544 29.1646017552083  25.9452260434783 28.6973451015625  C 25.7685427269022 28.2300884479167  25.6170998682065 27.8536872682292  25.4908974673913 27.5681415625  C 25.2889736372283 27.1528023307292  24.9545373196332 26.9191740182292  24.487588514606 26.867256625  C 24.0206397095788 26.8153392317708  23.5663111195652 26.8867256653646  23.1246027445652 27.0814159257813  C 22.6828943695652 27.2761061861979  22.3169074517663 27.5811209322917  22.0266419911685 27.9964601640625  C 21.7363765305707 28.4117993958333  21.6922057014266 28.8660766796875  21.8941295037364 29.359292015625  C 22.0708128481658 29.8784660625  22.2727366644022 30.4625368580729  22.4999009524457 31.1115044023437  C 22.7270652404891 31.7604719466146  22.9668497713995 32.4224188463542  23.2192545451766 33.0973451015625  C 23.4716593189538 33.7722713567708  23.7114438498641 34.4342182565104  23.9386081379076 35.0831858007812  C 24.1657724259511 35.7321533450521  24.3676962421875 36.2902654440104  24.5443795866169 36.7575220976562  C 24.922986733356 37.7439527695312  25.4972075818614 38.4837757734375  26.2670421321332 38.976991109375  C 27.0368766824049 39.4702064453125  27.8445719473505 39.72979346875  28.6901279269701 39.7557521796875  C 29.5356839065897 39.781710890625  30.3433791715353 39.5870206302083  31.1132137218071 39.1716813984375  C 31.8830482720788 38.7563421666667  32.444648891644 38.1333333190104  32.7980155805027 37.3026548554687  C 33.0756608400136 36.6277286002604  33.3596162139946 35.9203539635417  33.6498817024456 35.1805309453125  C 33.9401471908967 34.4407079270833  34.217792436481 33.7203539492187  34.4828174391984 33.0194690117187  C 34.7478424419158 32.3185840742187  34.9939370872962 31.6436578190104  35.2211013753397 30.9946902460937  Z " fill-rule="nonzero" fill="#30a3f6" stroke="none" transform="matrix(1 0 0 1 1176 704 )" />
  </g>
</svg>