<?xml version="1.0" encoding="utf-8"?>
<svg version="1.1" xmlns:xlink="http://www.w3.org/1999/xlink" width="28px" height="25px" xmlns="http://www.w3.org/2000/svg">
  <g transform="matrix(1 0 0 1 -612 -723 )">
    <path d="M 27.7873258426966 11.7132530120482  C 27.7873258426966 6.83132530120482  25.0301123595506 2.56626506024097  20.9288988764045 0.262650602409639  L 20.9251235955056 0.267469879518072  C 20.9251235955056 0.267469879518072  16.3771685393258 7.09277108433735  8.58121348314607 9.56867469879518  C 8.50541166367811 9.5931501127489  8.42594985922932 9.60563329814986  8.34595325906923 9.60563329814986  C 7.93937239604773 9.60563329814986  7.60977348378833 9.29007495917518  7.60977348378833 8.90081402104143  C 7.60977348378833 8.73313136277902  7.67221626284892 8.57094191528401  7.78588764044944 8.4433734939759  C 8.12943820224719 8.05542168674699  8.47802247191011 7.62409638554217  8.7850786516854 7.16987951807229  C 8.88866689499974 7.01494770531497  8.94371958016551 6.83484368258265  8.94371958016551 6.65088813185327  C 8.94371958016551 6.119230884727  8.49354944188301 5.68823752944363  7.93823643409809 5.68823752944363  C 7.85112177910751 5.68823752944363  7.76437648722611 5.69907642719597  7.6801797752809 5.72048192771084  C 5.28413483146068 6.33734939759036  1.4081797752809 8.06506024096386  0.125842696629215 12.8650602409639  C 0.734921348314609 19.6530120481928  6.68098876404494 24.9819277108434  13.9282696629214 24.9819277108434  C 21.5832808988764 24.9819277108434  27.7873258426966 19.0421686746988  27.7873258426966 11.7132530120482  Z " fill-rule="nonzero" fill="#30a3f6" stroke="none" transform="matrix(1 0 0 1 612 723 )" />
  </g>
</svg>