<?xml version="1.0" encoding="utf-8"?>
<svg version="1.1" xmlns:xlink="http://www.w3.org/1999/xlink" width="35px" height="33px" xmlns="http://www.w3.org/2000/svg">
  <g transform="matrix(1 0 0 1 -895 -1004 )">
    <path d="M 31.222626705653 32  C 34.5772027290448 31.9590260133091  35.9491959064327 29.6002480338778  34.2719249512671 26.7086388384755  L 20.5450341130604 3.08103145795523  C 18.8662280701754 0.192383545069572  16.1224122807018 0.192383545069572  14.4433674463938 3.08103145795523  L 0.716510721247563 26.7086388384755  C -0.962090643274854 29.6002480338778  0.411232943469786 31.9590260133091  3.7658089668616 32  L 31.222626705653 32  Z M 18.5791666666667 25.6056775559589  L 18.5791666666667 27.7234603750756  L 16.4079044834308 27.7234603750756  L 16.4079044834308 25.6056775559589  L 18.5791666666667 25.6056775559589  Z M 18 8.66348154869934  L 18 21.3701451905626  L 17 21.3701451905626  L 17 8.66348154869934  L 18 8.66348154869934  Z " fill-rule="nonzero" fill="#30a3f6" stroke="none" transform="matrix(1 0 0 1 895 1004 )" />
  </g>
</svg>