<?xml version="1.0" encoding="utf-8"?>
<svg version="1.1" xmlns:xlink="http://www.w3.org/1999/xlink" width="35px" height="21px" xmlns="http://www.w3.org/2000/svg">
  <g transform="matrix(1 0 0 1 -609 -708 )">
    <path d="M 32.7030088495575 6.28061538461538  C 28.4522123893805 2.47864615384615  23.1669026548673 0.0491076923076923  17.4293805309735 0.0491076923076923  C 11.8603539823009 0.0491076923076923  6.71380530973452 2.56781538461538  2.52371681415929 6.27286153846154  C 0.376762488967858 8.17155388786577  -0.346614284670268 11.3004813561479  0.734690265486727 14.0112  L 3.29185840707965 20.4081230769231  C 5.73628318584071 14.8059692307692  11.1467256637168 10.9109538461538  17.4293805309735 10.9109538461538  C 23.8656637168142 10.9109538461538  29.3863716814159 14.9946461538462  31.7403539823009 20.8126153846154  L 34.4647787610619 13.9944  C 35.5429081610338 11.2966570309838  34.8314412967492 8.18154982189975  32.7030088495575 6.28061538461538  Z M 20.5106194690265 4.70787692307692  L 20.5106194690265 7.3248  L 18.7166371681416 7.3248  L 18.7166371681416 9.28781538461539  L 16.2115044247788 9.28781538461539  L 16.2115044247788 7.3248  L 14.3270796460177 7.3248  L 14.3270796460177 4.70787692307692  L 16.2115044247788 4.70787692307692  L 16.2115044247788 2.74356923076923  L 18.7166371681416 2.74356923076923  L 18.7166371681416 4.70787692307692  L 20.5106194690265 4.70787692307692  Z " fill-rule="nonzero" fill="#30a3f6" stroke="none" transform="matrix(1 0 0 1 609 708 )" />
  </g>
</svg>