<?xml version="1.0" encoding="utf-8"?>
<svg version="1.1" xmlns:xlink="http://www.w3.org/1999/xlink" width="25px" height="24px" xmlns="http://www.w3.org/2000/svg">
  <g transform="matrix(1 0 0 1 -707 -717 )">
    <path d="M 12.4323615327381 2.17708562337663  C 15.3798651370829 -0.511618678065407  19.8117674892516 -0.351888996754719  22.5758017485119 2.54266418181818  C 25.3544217633929 5.45182293506493  25.4757045758929 10.0903556883117  22.9380952380952 13.151770987013  L 22.9458697916667 13.1582846493507  L 22.8074829985119 13.3048417792208  C 22.7320495011975 13.3910278404372  22.6548034960489 13.4754545601673  22.5758017485119 13.5580598961039  L 13.2175898809524 23.358659961039  C 13.1598635565281 23.4193250800691  13.0956944347812 23.472868591608  13.026336235119 23.5182443766234  C 12.602564991173 23.8188765582986  12.0346765256184 23.7621701514088  11.6727890997024 23.3830861558442  L 2.31457726934524 13.5824860909091  C 0.919457696113125 12.121768128429  0.135659362347717 10.1403977074496  0.135659362347717 8.07438112987013  C 0.135659362347717 6.0083645522907  0.919457696113125 4.02699413131126  2.31457726934524 2.56627616883117  C 5.08853255208333 -0.338811545454544  9.50991253720238 -0.469084558441556  12.4323615327381 2.17708562337663  Z M 13.434499516369 7.21213675324675  L 13.3800777529762 7.20562312987013  L 11.510301264881 7.20562312987013  C 11.3796446363648 7.20562239433075  11.2736062310729 7.31630940406282  11.2731778273809 7.45314179220779  L 11.2731778273809 10.1457217012987  L 8.70136052827381 10.1457217012987  C 8.58940718005952 10.1457217012987  8.49533526785714 10.2279565324675  8.47123422619048 10.3378743896104  L 8.46501458333333 10.3948688181818  L 8.46501458333333 12.3530347012987  C 8.46501458333333 12.4906355454545  8.57074828869048 12.6013676103896  8.70136052827381 12.6013676103896  L 11.2731778273809 12.6013676103896  L 11.2731778273809 15.2947617272727  C 11.2731778273809 15.4120074155844  11.3509232142857 15.5105263636364  11.4558795014881 15.536580974026  L 11.510301264881 15.5430946363636  L 13.3800777529762 15.5430946363636  C 13.5110373968065 15.5430946148461  13.6172011532738 15.4319121906295  13.6172011532738 15.2947617272727  L 13.6172011532738 12.6013676103896  L 16.189018452381 12.6013676103896  C 16.3009718005952 12.6013676103896  16.3950437127976 12.519946987013  16.4191447916667 12.4100291688312  L 16.4261418898809 12.3530347012987  L 16.426141889881 10.3948688181818  C 16.426141889881 10.2577183396098  16.3199781107397 10.1465359090909  16.189018452381 10.1465359090909  L 13.6172011532738 10.1457217012987  L 13.6172011532738 7.45314179220779  C 13.6172011532738 7.3358961038961  13.539455766369 7.23737715584416  13.434499516369 7.21213675324675  Z " fill-rule="nonzero" fill="#ffffff" stroke="none" transform="matrix(1 0 0 1 707 717 )" />
  </g>
</svg>