<?xml version="1.0" encoding="utf-8"?>
<svg version="1.1" xmlns:xlink="http://www.w3.org/1999/xlink" width="34px" height="34px" xmlns="http://www.w3.org/2000/svg">
  <g transform="matrix(1 0 0 1 -1180 -1291 )">
    <path d="M 8.37493990384615 0.924158653846154  C 5.91382211538462 1.36243990384615  3.92469951923077 1.90186298076923  2.475 2.60985576923077  C 1.02530048076923 3.31784855769231  0.317307692307691 4.09326923076923  0.317307692307691 4.93611778846154  L 0.317307692307691 7.26237980769231  C 0.317307692307691 8.10522836538462  1.02530048076923 8.88064903846154  2.475 9.58864182692308  C 3.92469951923077 10.2966346153846  5.88010817307692 10.8697716346154  8.37493990384615 11.2743389423077  C 10.8697716346154 11.67890625  13.5668870192308 11.8811899038462  16.5 11.8811899038462  C 19.4331129807692 11.8811899038462  22.1302283653846 11.67890625  24.6250600961538 11.2743389423077  C 27.1198918269231 10.8697716346154  29.0753004807692 10.2966346153846  30.525 9.58864182692308  C 31.9746995192308 8.88064903846154  32.6826923076923 8.10522836538462  32.6826923076923 7.26237980769231  L 32.6826923076923 4.93611778846154  C 32.6826923076923 4.09326923076923  31.9746995192308 3.31784855769231  30.525 2.60985576923077  C 29.0753004807692 1.90186298076923  27.1198918269231 1.32872596153846  24.6250600961538 0.924158653846155  C 22.1302283653846 0.519591346153847  19.4331129807692 0.317307692307692  16.5 0.317307692307692  C 13.5668870192308 0.317307692307692  10.8697716346154 0.519591346153847  8.37493990384615 0.924158653846154  Z M 0.317307692307692 18.0508413461538  L 0.317307692307692 18.1856971153846  L 0.317307692307692 21.1188100961538  C 0.317307692307692 21.9616586538462  1.02530048076923 22.7370793269231  2.475 23.4450721153846  C 3.92469951923077 24.1530649038462  5.88010817307692 24.7262019230769  8.37493990384615 25.1307692307692  C 10.8697716346154 25.5353365384615  13.5668870192308 25.7376201923077  16.5 25.7376201923077  C 19.4331129807692 25.7376201923077  22.1302283653846 25.5353365384615  24.6250600961538 25.1307692307692  C 27.1198918269231 24.7262019230769  29.0753004807692 24.1530649038462  30.525 23.4450721153846  C 31.9746995192308 22.7370793269231  32.6826923076923 21.9616586538462  32.6826923076923 21.1188100961538  L 32.6826923076923 18.0508413461538  C 30.9969951923077 19.0622596153846  28.7381610576923 19.8376802884615  25.8387620192308 20.3433894230769  C 22.9393629807692 20.8828125  19.8376802884615 21.1188100961538  16.5 21.1188100961538  C 13.1623197115385 21.1188100961538  10.0606370192308 20.8828125  7.16123798076923 20.3433894230769  C 4.26183894230769 19.8376802884615  2.00300480769231 19.0622596153846  0.317307692307692 18.0508413461538  Z M 0.317307692307692 24.9959134615385  L 0.317307692307692 24.9284855769231  L 0.317307692307692 28.0638822115385  C 0.317307692307692 28.9067307692308  1.02530048076923 29.6821514423077  2.475 30.3901442307692  C 3.92469951923077 31.0981370192308  5.88010817307692 31.6712740384615  8.37493990384615 32.0758413461539  C 10.8697716346154 32.4804086538462  13.5668870192308 32.6826923076923  16.5 32.6826923076923  C 19.4331129807692 32.6826923076923  22.1302283653846 32.4804086538462  24.6250600961538 32.0758413461539  C 27.1198918269231 31.6712740384615  29.0753004807692 31.0981370192308  30.525 30.3901442307692  C 31.9746995192308 29.6821514423077  32.6826923076923 28.9067307692308  32.6826923076923 28.0638822115385  L 32.6826923076923 24.9959134615385  C 30.9969951923077 26.0073317307692  28.7381610576923 26.7827524038462  25.8387620192308 27.2884615384615  C 22.9393629807692 27.7941706730769  19.8376802884615 28.0638822115385  16.5 28.0638822115385  C 13.1623197115385 28.0638822115385  10.0606370192308 27.7941706730769  7.16123798076923 27.2884615384615  C 4.26183894230769 26.7827524038462  2.00300480769231 26.0073317307692  0.317307692307692 24.9959134615385  Z M 7.16123798076923 13.3983173076923  C 4.26183894230769 12.8926081730769  2.00300480769231 12.1171875  0.317307692307692 11.1057692307692  L 0.317307692307692 14.1737379807692  C 0.317307692307692 15.0165865384615  1.02530048076923 15.7920072115385  2.475 16.5  C 3.92469951923077 17.2079927884615  5.88010817307692 17.7811298076923  8.37493990384615 18.1856971153846  C 10.8697716346154 18.5902644230769  13.5668870192308 18.7925480769231  16.5 18.7925480769231  C 19.4331129807692 18.7925480769231  22.1302283653846 18.5902644230769  24.6250600961538 18.1856971153846  C 27.1198918269231 17.7811298076923  29.0753004807692 17.2079927884615  30.525 16.5  C 31.9746995192308 15.7920072115385  32.6826923076923 15.0165865384615  32.6826923076923 14.1737379807692  L 32.6826923076923 11.1057692307692  C 30.9969951923077 12.1171875  28.7381610576923 12.8926081730769  25.8387620192308 13.3983173076923  C 22.9393629807692 13.9040264423077  19.8376802884615 14.1737379807692  16.5 14.1737379807692  C 13.1623197115385 14.1737379807692  10.0606370192308 13.9040264423077  7.16123798076923 13.3983173076923  Z " fill-rule="nonzero" fill="#30a3f6" stroke="none" transform="matrix(1 0 0 1 1180 1291 )" />
  </g>
</svg>