<?xml version="1.0" encoding="utf-8"?>
<svg version="1.1" xmlns:xlink="http://www.w3.org/1999/xlink" width="37px" height="42px" xmlns="http://www.w3.org/2000/svg">
  <g transform="matrix(1 0 0 1 -610 -995 )">
    <path d="M 34.8942809506579 40.479999984375  C 34.8942809506579 40.479999984375  39.7043250910088 26.9828571386719  33.9560114605263 20.0914285605469  L 35.5782002697368 5.58857143359375  L 35.1768922247807 5.31428571679687  C 30.2559925947928 1.87250905984555  24.4187104325431 0.019613121449398  18.4349993980263 0  C 12.631523034575 0.0181708227378225  6.9428500010775 1.6362326650505  1.98137008223684 4.67999999414063  L 1.56875760416667 4.9600000078125  L 3.20790308333333 18.4114285605469  C 1.8287600120614 20.7028571367188  -2.33127818969298 29.0857142871094  2.47876595065789 40  L 12.5284234199561 40  C 16.4150678777061 42.5065949516951  21.0314579402764 42.5065949516951  24.9181023980263 40.479999984375  L 34.8942809506579 40.479999984375  Z M 32.0003413267544 25.2857142890625  C 32.0286024703947 33.5085714140625  26.071156441886 40.2000000117187  18.7232629089912 40.2000000117187  C 11.3753693760965 40.2000000117187  5.41227115131579 33.5085714550781  5.41227115131579 25.2628571425781  C 5.41094562937005 24.0029203877272  5.55318888458914 22.7470230168717  5.83618810307017 21.5199999902344  C 8.26664519846491 21.668571421875  14.4332235438596 21.5199999902344  17.1406396765351 16.3771428515625  L 17.4684688048246 16.4057142949219  C 19.0567442741228 17.6171428535156  28.315090127193 24.4914285820313  31.9042535032895 23.5028571503906  C 31.9678743894526 24.0949716061394  31.9999499863945 24.6901168068841  32.0003413267544 25.2857142890625  Z M 33.8712280701754 6.394285734375  L 32.3903448980263 19.6285714160156  C 29.7168421052632 18.1485713964844  22.527210879386 14.6114285625  14.9419238453947 14.6114285625  C 11.3448642310843 14.5401441370307  7.80339460696493 15.5160633422656  4.73965626535088 17.4228571289062  L 3.29268647368421 5.77714286132813  C 7.90832398473055 3.1132138928819  13.1204740083661 1.6852301432845  18.4349993980263 1.62857141015625  C 23.9321620870009 1.64695587470494  29.301758381239 3.30474175739875  33.8712280701754 6.394285734375  Z " fill-rule="nonzero" fill="#30a3f6" stroke="none" transform="matrix(1 0 0 1 610 995 )" />
  </g>
</svg>