<?xml version="1.0" encoding="utf-8"?>
<svg version="1.1" xmlns:xlink="http://www.w3.org/1999/xlink" width="17px" height="20px" xmlns="http://www.w3.org/2000/svg">
  <g transform="matrix(1 0 0 1 -1114 -1308 )">
    <path d="M 16.915 18.4544642857143  L 13.6068 12.434375  C 14.6914 11.134375  15.3493 9.43125  15.3493 7.56696428571429  C 15.3493 3.48660714285714  12.20005 0.178571428571429  8.31555 0.178571428571429  C 4.43105 0.178571428571429  1.2818 3.48660714285714  1.2818 7.56696428571429  C 1.2818 9.61830357142857  2.077825 11.4741071428571  3.3626 12.8125  L 0.261799999999999 18.4540178571429  L 2.156025 17.8647321428571  L 2.61715 19.8825892857143  L 5.631675 14.3982142857143  C 6.458725 14.7571428571429  7.364825 14.9553571428571  8.315125 14.9553571428571  C 9.43415 14.9553571428571  10.4924 14.6803571428571  11.43165 14.1919642857143  L 14.55965 19.8830357142857  L 15.020775 17.8651785714286  L 16.915 18.4544642857143  Z M 12.298225 6.26696428571428  L 10.3156 8.29642857142857  L 10.783525 11.1620535714286  L 8.333825 9.809375  L 5.884125 11.1620535714286  L 6.35205 8.29642857142857  L 4.370275 6.26696428571428  L 7.1094 5.84910714285714  L 8.33425000000001 3.24196428571428  L 9.55910000000001 5.84910714285714  L 12.298225 6.26696428571428  Z " fill-rule="nonzero" fill="#30a3f6" stroke="none" transform="matrix(1 0 0 1 1114 1308 )" />
  </g>
</svg>