<?xml version="1.0" encoding="utf-8"?>
<svg version="1.1" xmlns:xlink="http://www.w3.org/1999/xlink" width="35px" height="35px" xmlns="http://www.w3.org/2000/svg">
  <g transform="matrix(1 0 0 1 -566 -152 )">
    <path d="M 583.5 152  C 593.3 152  601 159.7  601 169.5  C 601 179.3  593.3 187  583.5 187  C 573.7 187  566 179.3  566 169.5  C 566 159.7  573.7 152  583.5 152  Z " fill-rule="nonzero" fill="#ffbf60" stroke="none" />
    <path d="M 583.5 152.5  C 593.02 152.5  600.5 159.98  600.5 169.5  C 600.5 179.02  593.02 186.5  583.5 186.5  C 573.98 186.5  566.5 179.02  566.5 169.5  C 566.5 159.98  573.98 152.5  583.5 152.5  Z " stroke-width="1" stroke="#ffffff" fill="none" />
  </g>
</svg>