<?xml version="1.0" encoding="utf-8"?>
<svg version="1.1" xmlns:xlink="http://www.w3.org/1999/xlink" width="10px" height="7px" xmlns="http://www.w3.org/2000/svg">
  <g transform="matrix(1 0 0 1 -1658 -229 )">
    <path d="M 9.84372512542373 0.0337263663854427  L 8.99753193637549 0.0337263663854424  C 8.87904441398325 0.0335850806388217  8.76705167814345 0.0817970075214792  8.69377028005215 0.164493193846154  L 3.70107550873533 5.78127251692308  L 1.30740266388527 3.08747589346567  C 1.23397316997312 3.00494330673051  1.1220756884781 2.95677238603875  1.00364100756193 2.95670906600496  L 0.157447826857888 2.95670906600496  C 0.104328691680717 2.95717613667862  0.0615439464003162 2.99555441498063  0.0615439464003162 3.04273565773342  C 0.0615439464003162 3.0616475391971  0.0685602019836431 3.08003247116384  0.0815074127770535 3.09504660433416  L 3.39808876140808 6.82671888410256  C 3.55306920052151 7.00084523407775  3.85063163494133 7.00084523407775  4.00638697470665 6.82671888410256  L 9.91966553950456 0.17137565961952  C 9.93273532319368 0.15641028760904  9.93982881305503 0.138008648947134  9.93982881305503 0.119068927479309  C 9.93982881305503 0.0719355318372629  9.89680880706809 0.0337263652295157  9.84374094030405 0.0337263652295157  Z " fill-rule="nonzero" fill="#419fe3" stroke="none" transform="matrix(1 0 0 1 1658 229 )" />
  </g>
</svg>