<?xml version="1.0" encoding="utf-8"?>
<svg version="1.1" xmlns:xlink="http://www.w3.org/1999/xlink" width="43px" height="37px" xmlns="http://www.w3.org/2000/svg">
  <g transform="matrix(1 0 0 1 -759 -746 )">
    <path d="M 42.8862980769231 35.2857336956522  C 42.8862980769231 36.2107336956522  42.1162259615385 36.9597826086956  41.1652644230769 37  L 1.83473557692308 37  C 0.883774038461538 36.9597826086957  0.113701923076923 36.2107336956522  0.113701923076923 35.2857336956522  L 0.113701923076923 26.9205163043478  C 0.113701923076923 25.9955163043478  0.883774038461539 25.2464673913044  1.83473557692308 25.2464673913044  L 3.38521634615385 25.2464673913044  C 4.33617788461538 25.2464673913044  5.10625 25.9955163043478  5.10625 26.9205163043478  C 5.10625 27.1467391304348  5.05973557692308 27.3679347826087  4.971875 27.5639945652174  L 4.3 30.8216032608696  C 4.3 31.7466032608696  5.07007211538462 32.495652173913  6.02103365384615 32  L 36.9789663461538 32  C 37.9299278846154 32.495652173913  38.7 31.7466032608696  38.7 30.8216032608696  L 38.028125 27.5639945652174  C 37.9402644230769 27.3679347826087  37.89375 27.1467391304348  37.89375 26.9205163043478  C 37.89375 25.9955163043478  38.6638221153846 25.2464673913044  39.6147836538461 25.2464673913044  L 41.1652644230769 25.2464673913044  C 42.1162259615385 25.2464673913044  42.8862980769231 25.9955163043478  42.8862980769231 26.9205163043478  L 42.8862980769231 35.2857336956522  Z M 37.7231971153846 11.8038043478261  L 37.7231971153846 11.8088315217391  L 37.7231971153846 11.8389945652174  C 37.8575721153846 11.8942934782609  37.9506009615385 12.025  37.9506009615385 12.1758152173913  C 37.9506009615385 12.3266304347826  37.8575721153846 12.4573369565217  37.7231971153846 12.5126358695652  L 37.7231971153846 12.5327445652174  L 21.9496394230769 28.2577445652174  L 21.9289663461539 28.2577445652174  C 21.8721153846154 28.3884510869565  21.7377403846154 28.4789402173913  21.5826923076923 28.4789402173913  C 21.4276442307692 28.4789402173913  21.2932692307692 28.3884510869565  21.2364182692308 28.2577445652174  L 21.2157451923077 28.2577445652174  L 5.44735576923077 12.5277173913043  L 5.44735576923077 12.5076086956522  C 5.31298076923077 12.4523097826087  5.21995192307692 12.3216032608696  5.21995192307692 12.1707880434783  C 5.21995192307692 12.019972826087  5.31298076923077 11.8892663043478  5.44735576923077 11.8339673913043  L 5.44735576923077 11.8038043478261  L 4.72896634615385 12  L 15.4272836538462 12  L 15.4272836538462 9.23994565217391  C 15.4272836538462 8.31494565217391  16.1973557692308 7.56589673913043  17.1483173076923 7.56589673913043  L 25.8620192307692 7.56589673913043  C 26.8129807692308 7.56589673913043  27.5830528846154 8.31494565217391  27.5830528846154 9.23994565217391  L 27.5830528846154 12  L 38.4519230769231 12  L 37.7231971153846 11.8038043478261  Z M 27.5727163461538 4.61494565217391  C 27.5727163461538 5.38410326086957  26.9370192307692 6.00747282608696  26.1462740384615 6.00747282608696  L 16.8537259615385 6.00747282608696  C 16.0629807692308 6.00747282608696  15.4221153846154 5.38410326086957  15.4221153846154 4.61494565217391  C 15.4221153846154 3.84578804347826  16.0629807692308 3.22241847826087  16.8537259615385 3.22241847826087  L 26.1411057692308 3.22241847826087  C 26.9318509615385 3.22241847826087  27.5727163461538 3.84578804347826  27.5727163461538 4.61494565217391  Z M 27.5778846153846 0.935054347826087  C 27.5778846153846 1.39755434782609  27.1902644230769 1.7695652173913  26.7147836538462 2  L 16.2852163461538 2  C 15.8097355769231 1.7695652173913  15.4272836538462 1.39252717391304  15.4272836538462 0.935054347826087  C 15.4272836538462 0.472554347826087  15.8149038461538 0.10054347826087  16.2852163461538 0.10054347826087  L 26.7199519230769 0.10054347826087  C 27.1954326923077 0.10054347826087  27.5778846153846 0.47758152173913  27.5778846153846 0.935054347826087  Z " fill-rule="nonzero" fill="#e6e6e6" stroke="none" transform="matrix(1 0 0 1 759 746 )" />
  </g>
</svg>