<?xml version="1.0" encoding="utf-8"?>
<svg version="1.1" xmlns:xlink="http://www.w3.org/1999/xlink" width="32px" height="32px" xmlns="http://www.w3.org/2000/svg">
  <g transform="matrix(1 0 0 1 -408 -1569 )">
    <path d="M 10.646875 3.33125  C 12.34375 2.6125  14.14375 2.25  16 2.25  C 17.85625 2.25  19.65625 2.6125  21.35 3.328125  C 22.9875 4.021875  24.45625 5.0125  25.721875 6.275  C 26.984375 7.5375  27.978125 9.009375  28.66875 10.646875  C 29.3875 12.34375  29.75 14.14375  29.75 16  C 29.75 17.85625  29.3875 19.65625  28.671875 21.35  C 27.978125 22.9875  26.9875 24.45625  25.725 25.721875  C 24.4625 26.984375  22.990625 27.978125  21.353125 28.66875  C 19.65625 29.3875  17.85625 29.75  16 29.75  C 14.14375 29.75  12.34375 29.3875  10.65 28.671875  C 9.0125 27.978125  7.54375 26.9875  6.278125 25.725  C 5.015625 24.4625  4.021875 22.990625  3.33125 21.353125  C 2.6125 19.65625  2.25 17.85625  2.25 16  C 2.25 14.14375  2.6125 12.34375  3.328125 10.65  C 4.021875 9.0125  5.0125 7.54375  6.275 6.278125  C 7.5375 5.015625  9.009375 4.021875  10.646875 3.33125  Z M 32 16  C 32 7.1625  24.8375 0  16 0  C 7.1625 0  0 7.1625  0 16  C 0 24.8375  7.1625 32  16 32  C 24.8375 32  32 24.8375  32 16  Z " fill-rule="nonzero" fill="#dd4d4d" stroke="none" transform="matrix(1 0 0 1 408 1569 )" />
  </g>
</svg>