<?xml version="1.0" encoding="utf-8"?>
<svg version="1.1" xmlns:xlink="http://www.w3.org/1999/xlink" width="81px" height="54px" xmlns="http://www.w3.org/2000/svg">
  <g transform="matrix(1 0 0 1 -1475 -1556 )">
    <path d="M 26.2172668837945 10  L 15.0786998805716 25.2648415805571  L 24.9390267203405 25.2648415805571  L 1.38374832861052 53.7222897384845  L 9.23550781003344 33.683964604471  L 0.470863371480692 33.683964604471  L 9.23550781003344 10  L 26.2172668837945 10  Z M 80.4293470978413 0.693516781961736  C 80.3453497554335 0.693516781961736  80.2772527469213 0.761975121906908  80.2772395169352 0.846431465138143  C 80.2772395150485 0.930921305037807  80.3453403995312 0.999394325501293  80.4293470978413 0.999394325501293  C 80.513344440249 0.999394325501293  80.5814414487612 0.930935985556121  80.5814546787473 0.846479642324885  C 80.581454680634 0.761989802425222  80.5133537961514 0.693516781961736  80.4293470978413 0.693516781961736  Z M 80.2466694684098 0.846431465138143  C 80.2466694684098 0.947859542097362  80.3284463027537 1.03008324438839  80.4293231401642 1.03008324438839  C 80.5301999775747 1.03008324438839  80.6119768119185 0.94785954209735  80.6119768119185 0.846431465138143  C 80.6119768119185 0.745003388178943  80.5301999775747 0.662779685887885  80.4293231401642 0.662779685887885  C 80.3284463027537 0.662779685887885  80.2466694684099 0.745003388178931  80.2466694684099 0.846431465138143  Z M 80.4843300456066 0.395781267912416  L 80.4293710817878 0.846431465138143  L 80.4843300456066 0.395781267912416  Z M 80.429418997142 0.479272491023729  C 80.2276949881423 0.479272491023729  80.0642554522347 0.643653369161984  80.064255399696 0.846431465138143  C 80.0642553965446 1.04922939296071  80.2277232319706 1.213590495247  80.4293710260977 1.213590495247  C 80.6311147097746 1.21359049524006  80.7945825452006 1.04922939295377  80.7945825452006 0.846479698312392  C 80.7945825451937 0.643633590148375  80.6311147097677 0.479272487862085  80.4294669156406 0.479272487862085  Z M 80.2466694684098 0.846431465138143  C 80.2466694684098 0.947859542097362  80.3284463027537 1.03008324438839  80.4293231401642 1.03008324438839  C 80.5301999775747 1.03008324438839  80.6119768119185 0.94785954209735  80.6119768119185 0.846431465138143  C 80.6119768119185 0.745003388178943  80.5301999775747 0.662779685887885  80.4293231401642 0.662779685887885  C 80.3284463027537 0.662779685887885  80.2466694684099 0.745003388178931  80.2466694684099 0.846431465138143  Z M 80.4293470978413 0.693516781961736  C 80.3453497554335 0.693516781961736  80.2772527469213 0.761975121906908  80.2772395169352 0.846431465138143  C 80.2772395150485 0.930921305037807  80.3453403995312 0.999394325501293  80.4293470978413 0.999394325501293  C 80.513344440249 0.999394325501293  80.5814414487612 0.930935985556121  80.5814546787473 0.846479642324885  C 80.581454680634 0.761989802425222  80.5133537961514 0.693516781961736  80.4293470978413 0.693516781961736  Z M 80.4843300456066 0.395781267912416  L 80.4293710817878 0.846431465138143  L 80.4843300456066 0.395781267912416  Z " fill-rule="nonzero" fill="#0085ff" stroke="none" transform="matrix(1 0 0 1 1475 1556 )" />
  </g>
</svg>