<?xml version="1.0" encoding="utf-8"?>
<svg version="1.1" xmlns:xlink="http://www.w3.org/1999/xlink" width="91px" height="91px" xmlns="http://www.w3.org/2000/svg">
  <g transform="matrix(1 0 0 1 -745 -2352 )">
    <path d="M 81.2778264238281 22.5836510224609  C 86.7659208964844 21.7760764990234  90.9971564277344 17.0898694052734  90.9971564277344 11.3742890625  C 90.9971564277344 5.08999435546875  85.9071620722656 0  79.6228673652344 0  C 74.5954315996094 0  70.3755703574219 3.2871695390625  68.8741642011719 7.8141365859375  C 62.3339479902344 3.071058046875  54.3150741123047 0.2388600703125  45.6194301240234 0.2388600703125  C 36.8384789677734 0.2388600703125  28.7456722109375 3.1279294921875  22.1713331328125 7.95631519921875  C 20.7097368994141 3.3554152734375  16.4614399345703 0  11.3771327236328 0  C 5.09283792773437 0  0.002843572265625 5.08999435546875  0.002843572265625 11.3742890625  C 0.002843572265625 17.1694893398438  4.34782199414063 21.8955064453125  9.94965935742188 22.6063995117187  C 7.39613146289063 27.8442597138672  5.92884817382812 33.7077057255859  5.92884817382812 39.9294419316406  C 5.92884817382812 57.9121930283203  17.8946003564453 73.0798074931641  34.2963251845703 77.9593775898438  C 34.2110181054688 78.5053433759766  34.1257109375 79.0513092509766  34.1257109375 79.6200237041016  C 34.1257109375 85.9043184111328  39.2157052929688 90.9943127666016  45.5 90.9943127666016  C 51.7842947070313 90.9943127666016  56.8742890625 85.9043184111328  56.8742890625 79.6200237041016  C 56.8742890625 79.0740578291016  56.7889818945312 78.5451533876953  56.715049015625 78.0162489462891  C 73.2305168232422 73.2162989619141  85.3100118964844 57.9975001962891  85.3100118964844 39.9294419316406  C 85.3100118964844 33.7020186699219  83.8370414628906 27.8271982802734  81.2778264238281 22.5836510224609  Z M 21.0737141494141 17.2491094521484  C 21.3978813876953 16.7145178662109  21.6936129033203 16.1685519912109  21.9267858291016 15.5884632490234  C 28.0575276337891 9.62264863574219  36.4119430390625 5.92600469042969  45.6194300351563 5.92600469042969  C 54.667676984375 5.92600469042969  62.8856009208984 9.50321860058594  68.9822198583984 15.2870445888672  C 69.1357727607422 15.6965189951172  69.3120742412109 16.0889319677734  69.5054371552734 16.4756577958984  L 56.5387475351562 26.9001937216797  C 53.5586838007812 24.3466658271484  49.73123553125 22.7485782138672  45.5 22.7485782138672  C 40.9332229414063 22.7485782138672  36.8043560117188 24.5684644638672  33.7446721650391 27.4916567529297  L 21.0737141494141 17.2491094521484  Z M 34.1257109375 39.8100118964844  C 34.1257109375 33.5370914785156  39.2270795820313 28.4357227451172  45.5 28.4357227451172  C 51.7729204179687 28.4357227451172  56.8742890625 33.5370913896484  56.8742890625 39.8100118076172  C 56.8742890625 46.0829322255859  51.7729204179687 51.1843009589844  45.5 51.1843009589844  C 39.2270795820313 51.1843009589844  34.1257109375 46.0829323144531  34.1257109375 39.8100118964844  Z M 11.3771327236328 17.0614336826172  C 8.24351599804688 17.0614336826172  5.68998810351563 14.5079057880859  5.68998810351563 11.3742890625  C 5.68998810351563 8.24067242578125  8.24351599804688 5.68714453125  11.3771326347656 5.68714453125  C 14.5107492714844 5.68714453125  17.0642771660156 8.24067242578125  17.0642771660156 11.3742890625  C 17.0642771660156 11.8406349140625  16.9050371191406 12.2557964648438  16.7969813730469 12.69370659375  C 16.3647584775391 14.4624086318359  15.1932067041016 15.9410662099609  13.5382476455078 16.6235235537109  C 12.8728517353516 16.9021936357422  12.1448972353516 17.0614336826172  11.3771327236328 17.0614336826172  Z M 41.81473034375 68.9054434960938  C 39.7047997226562 69.6333979072266  37.8962877617187 70.9471282939453  36.5541216523438 72.6703330869141  C 22.1940816220703 68.6893319150391  11.6103056494141 55.5406536699219  11.6103056494141 39.9294419316406  C 11.6103056494141 33.0878070605469  13.6576776806641 26.7295793857422  17.1495844228516 21.3893506708984  L 16.9562215087891 21.2301106240234  C 17.0984001220703 21.1504906005859  17.2519530244141 21.0822448662109  17.3884444931641 20.9969376982422  C 17.3031373251953 21.1220548779297  17.2348915908203 21.2585463466797  17.1495844228516 21.3893506708984  L 30.3721954580078 32.0754952451172  C 29.1778951064453 34.4072245917969  28.4385663173828 37.0119367871094  28.4385663173828 39.8100118964844  C 28.4385663173828 48.2554215253906  34.5920567001953 55.2221736650391  42.6507405898438 56.5814012080078  L 41.81473034375 68.9054434960938  Z M 51.18714453125 79.6200237041016  C 51.18714453125 82.7536404296875  48.6336166367187 85.3071683242188  45.5 85.3071683242188  C 42.3663833632813 85.3071683242188  39.81285546875 82.7536404296875  39.81285546875 79.6200237929688  C 39.81285546875 79.4550966015625  39.8924754921875 79.3186051328125  39.90384978125 79.1650522304688  C 40.1483969960938 76.2532341416016  42.5256234101563 73.9328791728516  45.5 73.9328791728516  C 48.4857508789062 73.9328791728516  50.8743515820313 76.2702955751953  51.1018373632812 79.1991750087891  C 51.1132116523438 79.3470407666016  51.18714453125 79.4721579462891  51.18714453125 79.6200237041016  Z M 79.6228672763672 39.9294419316406  C 79.6228672763672 55.6088994042969  68.9424098466797 68.8030748056641  54.485688359375 72.7215173876953  C 52.802293578125 70.5319667431641  50.36819571875 68.9680019970703  47.54737203125 68.4561589892578  L 48.3549465546875 56.5870882636719  C 56.4079432109375 55.2221735761719  62.5614336826172 48.2554215253906  62.5614336826172 39.8100118964844  C 62.5614336826172 36.6820824042969  61.6571777021485 33.7873258378906  60.1898944130859 31.2679208105469  L 73.2305169121094 20.7808262949219  L 73.5205612832031 20.5476533691406  C 73.6684270410156 20.7580777167969  73.8219799433594 20.9741892089844  73.9641585566406 21.1903007011719  C 77.5299980888672 26.5646521943359  79.6228672763672 33.0024998037109  79.6228672763672 39.9294419316406  Z M 85.3100118076172 11.3742890625  C 85.3100118076172 14.5079056992188  82.7564840019531 17.0614336826172  79.6228672763672 17.0614336826172  C 78.9574713662109 17.0614336826172  78.3375726123047 16.8908193466797  77.7404224365234 16.6803949990234  C 75.8466033076172 16.0093119443359  74.4987500537109 14.3714143193359  74.1347728037109 12.3581651552734  C 74.0722142138672 12.0283107724609  73.9357227451172 11.7212049677734  73.9357227451172 11.3742890625  C 73.9357227451172 8.24067242578125  76.4892506396484 5.68714453125  79.6228672763672 5.68714453125  C 82.7564839130859 5.68714453125  85.3100118076172 8.24067242578125  85.3100118076172 11.3742890625  Z " fill-rule="nonzero" fill="#1890ff" stroke="none" transform="matrix(1 0 0 1 745 2352 )" />
  </g>
</svg>