<?xml version="1.0" encoding="utf-8"?>
<svg version="1.1" xmlns:xlink="http://www.w3.org/1999/xlink" width="70px" height="71px" xmlns="http://www.w3.org/2000/svg">
  <g transform="matrix(1 0 0 1 -1070 -2348 )">
    <path d="M 70 8.59175531914894  C 69.9904891304348 3.90877659574468  66.148097826087 0.0944148936170213  61.4307065217391 0  L 10.9755434782609 0  C 6.25815217391304 0.0944148936170213  2.41576086956522 3.90877659574468  2.41576086956522 8.59175531914894  L 2.41576086956522 10.0551861702128  C 2.41576086956522 10.838829787234  3.05298913043478 11.4714095744681  3.84239130434782 11.4714095744681  C 4.63179347826087 11.4714095744681  5.26902173913043 10.838829787234  5.26902173913043 10.0551861702128  L 5.26902173913043 8.59175531914894  C 5.26902173913043 5.46662234042553  7.82744565217391 2.92686170212766  10.9755434782609 3  L 61.4211956521739 3  C 64.5692934782609 2.92686170212766  67.1277173913043 5.46662234042553  67 8.59175531914894  L 67 62.5970744680851  C 67.1277173913043 64.4664893617021  65.5964673913043 65.9960106382979  63.7038043478261 65.9960106382979  C 62.914402173913 65.9960106382979  62.2771739130435 66.6285904255319  62.2771739130435 67.4122340425532  C 62.2771739130435 68.1958776595745  62.914402173913 68.8284574468085  63.7038043478261 68.8284574468085  C 67.1657608695652 68.8284574468085  69.9809782608696 66.0337765957447  70 62.5970744680851  L 70 8.59175531914894  Z M 12.03125 68.0448138297872  L 4.3179347826087 60.3877659574468  C 3.0054347826087 59.0848404255319  2.96739130434783 57.0077127659575  4.24184782608696 55.657579787234  L 12.0692934782609 47.3773936170213  C 12.6114130434783 46.8109042553191  12.5828804347826 45.9139627659574  12.0027173913043 45.3757978723404  C 11.4320652173913 44.8376329787234  10.5285326086957 44.8659574468085  9.98641304347826 45.4418882978723  L 2.15896739130435 53.7220744680851  C 1.03668478260869 54.9117021276596  0.4375 56.4601063829787  0.46603260869565 58.0840425531915  C 0.494565217391303 59.7079787234043  1.14130434782608 61.2375  2.30163043478261 62.3893617021277  L 10.0149456521739 70.0464095744681  C 10.2907608695652 70.3202127659575  10.6616847826087 70.461835106383  11.023097826087 70.461835106383  C 11.3845108695652 70.461835106383  11.7554347826087 70.3202127659575  12.03125 70.0464095744681  C 12.5923913043478 69.4893617021277  12.5923913043478 68.592420212766  12.03125 68.0448138297872  Z M 45.5951086956522 53.7220744680851  L 37.7676630434783 45.4418882978723  C 37.2255434782609 44.8753989361702  36.3220108695652 44.8376329787234  35.7513586956522 45.3757978723404  C 35.1807065217391 45.9139627659574  35.1426630434783 46.8109042553191  35.6847826086956 47.3773936170213  L 43.5122282608696 55.657579787234  C 44.7866847826087 57.0077127659574  44.7486413043478 59.0753989361702  43.4361413043478 60.3877659574468  L 35.7228260869565 68.0448138297872  C 35.1616847826087 68.6018617021277  35.1616847826087 69.4988031914894  35.7228260869565 70.0464095744681  C 35.9986413043478 70.3202127659575  36.3695652173913 70.461835106383  36.7309782608696 70.461835106383  C 37.0923913043478 70.461835106383  37.4633152173913 70.3202127659575  37.7391304347826 70.0464095744681  L 45.4524456521739 62.3893617021277  C 46.6127717391304 61.2375  47.2595108695652 59.7079787234043  47.2880434782609 58.0840425531915  C 47.3165760869565 56.4601063829787  46.7078804347826 54.9117021276596  45.5951086956522 53.7220744680851  Z M 30.0067934782609 46.4426861702128  C 30.2921195652174 45.70625  29.9402173913043 44.8848404255319  29.2078804347826 44.6015957446809  C 28.4755434782609 44.3183510638298  27.648097826087 44.6676861702128  27.3532608695652 45.3946808510638  L 18.1467391304348 68.526329787234  C 17.8614130434783 69.2533244680851  18.2133152173913 70.0747340425532  18.945652173913 70.367420212766  C 19.116847826087 70.4335106382979  19.2975543478261 70.4712765957447  19.46875 70.4712765957447  C 20.039402173913 70.4712765957447  20.5720108695652 70.1313829787234  20.8002717391304 69.574335106383  L 30.0067934782609 46.4426861702128  Z " fill-rule="nonzero" fill="#1890ff" stroke="none" transform="matrix(1 0 0 1 1070 2348 )" />
  </g>
</svg>