<?xml version="1.0" encoding="utf-8"?>
<svg version="1.1" xmlns:xlink="http://www.w3.org/1999/xlink" width="67px" height="67px" xmlns="http://www.w3.org/2000/svg">
  <g transform="matrix(1 0 0 1 -1061 -2363 )">
    <path d="M 66 9.40284090909091  C 66.4099431818182 4.55866477272728  62.4698863636364 0.60909090909091  57.6161931818182 1  L 9.003125 1  C 4.14943181818182 0.60909090909091  0.209374999999999 4.55866477272727  1 9.40284090909091  L 1 58.0159090909091  C 0.209374999999999 62.8696022727273  4.15894886363636 66.8096590909091  9.003125 66  L 57.6161931818182 66  C 62.4698863636364 66.8096590909091  66.4099431818182 62.8600852272727  66 58.0159090909091  L 66 9.40284090909091  Z M 3 9.40284090909091  C 3.06448863636364 6.12897727272728  5.72926136363636 3.46420454545455  9.003125 4  L 57.6161931818182 4  C 60.8900568181818 3.46420454545454  63.5548295454545 6.12897727272727  63 9.4028409090909  L 63 20  L 3 20  L 3 9.40284090909091  Z M 63 58.0159090909091  C 63.5548295454545 61.2897727272727  60.8900568181818 63.9545454545455  57.6161931818182 64  L 9.003125 64  C 5.72926136363636 63.9545454545455  3.06448863636364 61.2897727272727  3 58.0159090909091  L 3 23  L 63 23  L 63 58.0159090909091  Z " fill-rule="nonzero" fill="#1890ff" stroke="none" transform="matrix(1 0 0 1 1061 2363 )" />
  </g>
</svg>