<?xml version="1.0" encoding="utf-8"?>
<svg version="1.1" xmlns:xlink="http://www.w3.org/1999/xlink" width="95px" height="95px" xmlns="http://www.w3.org/2000/svg">
  <g transform="matrix(1 0 0 1 -1381 -2341 )">
    <path d="M 24.1003125 63.6678125  L 19.9915625 67.7825  L 24.1003125 71.8971875  L 28.2090625 67.7825  L 24.1003125 63.6678125  Z M 24.5753125 28.9096875  L 28.773125 24.711875  L 24.5753125 20.5140625  L 20.3775 24.711875  L 24.5753125 28.9096875  Z M 50 14.84375  C 50.46875 13.2041546489398  49.1395953510602 11.875  47.5 11.875  C 45.8604046489398 11.875  44.53125 13.2041546489398  45 14.84375  L 45 45  L 20.78125 45  L 20.78125 44.6025  C 19.1416546489398 44.6025  17.8125 45.9316546489398  17.8125 47.57125  C 17.8125 49.2108453510602  19.1416546489398 50.54  20.78125 50.54  C 20.78125 50.54  20.78125 50.54  20.78125 50  L 47.5 50  C 49.1395953510602 50.54  50.46875 49.2108453510602  50 47.57125  L 50 14.84375  Z M 44.53125 77.1875  L 44.53125 83.125  L 50.46875 83.125  L 50.46875 77.1875  L 44.53125 77.1875  Z M 83.125 44.53125  L 77.1875 44.53125  L 77.1875 50.46875  L 83.125 50.46875  L 83.125 44.53125  Z M 47.5 0  C 21.2664743830373 0  0 21.2664743830373  0 47.5  C 0 73.7335256169627  21.2664743830373 95  47.5 95  C 73.7335256169627 95  95 73.7335256169627  95 47.5  C 95 21.2664743830373  73.7335256169627 0  47.5 0  Z M 47.5 89.0625  C 24.5456650851576 89.0625  5.9375 70.4543349148423  5.9375 47.5  C 5.9375 24.5456650851576  24.5456650851576 5.9375  47.5 5.9375  C 70.4543349148423 5.9375  89.0625 24.5456650851576  89.0625 47.5  C 89.0625 70.4543349148423  70.4543349148423 89.0625  47.5 89.0625  Z M 69.646875 20.4428125  L 65.538125 24.5634375  L 69.646875 28.678125  L 73.7496875 24.5634375  L 69.646875 20.4428125  Z M 68.8690625 63.424375  L 64.67125 67.6221875  L 68.8690625 71.82  L 73.066875 67.6221875  L 68.8690625 63.424375  Z " fill-rule="nonzero" fill="#1890ff" stroke="none" transform="matrix(1 0 0 1 1381 2341 )" />
  </g>
</svg>