<?xml version="1.0" encoding="utf-8"?>
<svg version="1.1" xmlns:xlink="http://www.w3.org/1999/xlink" width="13px" height="13px" xmlns="http://www.w3.org/2000/svg">
  <g transform="matrix(1 0 0 1 -13 -476 )">
    <path d="M 10.6622433580026 10.5534907957275  L 2.1324486693098 10.5534907957275  C 0.954729789453029 10.5534907957275  0 9.51645671408022  0 8.23721034458062  L 0 2.44650920427253  C 0 1.16726283477293  0.954729789453029 0.130228753125676  2.1324486693098 0.130228753125676  L 4.79800951167384 0.130228753125676  C 5.41247983482433 0.132022910876665  5.99599381512948 0.423367417075257  6.39734601938298 0.928766441700368  C 6.79861137376345 0.423242035838525  7.3821811348696 0.131869676584033  7.99668251563854 0.130228753125676  L 10.6622433580026 0.130228753125676  C 11.8399622378594 0.130228753125676  12.7946920273124 1.16726283477293  12.7946920273124 2.44650920427253  L 12.7946920273124 8.23721034458062  C 12.7946920273124 9.51645671408022  11.8399622378594 10.5534907957275  10.6622433580026 10.5534907957275  Z M 5.86423384632874 9.39535057015405  L 5.86423384632874 3.02557932327972  C 5.86423384632874 2.06614454271955  5.148186501675 1.2883689786991  4.2648973386196 1.2883689786991  L 2.66556084236404 1.2883689786991  C 1.78227167930864 1.2883689786991  1.0662243346549 2.06614454271955  1.0662243346549 3.02557932327972  L 1.0662243346549 7.65814022557342  C 1.0662243346549 8.6175750061336  1.78227167930864 9.39535057015405  2.66556084236404 9.39535057015405  L 5.86423384632874 9.39535057015405  Z M 11.7284676926575 7.65814022557343  L 11.7284676926575 3.02557932327972  C 11.7284676926575 2.06614454271955  11.0124203480037 1.2883689786991  10.1291311849483 1.2883689786991  L 8.52979468869279 1.2883689786991  C 7.64650552563739 1.2883689786991  6.93045818098365 2.06614454271955  6.93045818098365 3.02557932327972  L 6.93045818098365 9.39535057015405  L 10.1291311849483 9.39535057015405  C 11.0124203480037 9.39535057015405  11.7284676926575 8.6175750061336  11.7284676926575 7.65814022557343  Z M 2.1324486693098 7.07907011900719  L 2.1324486693098 5.92092988099281  L 4.79800951167384 5.92092988099281  L 4.79800951167384 7.07907011900719  L 2.1324486693098 7.07907011900719  Z M 2.1324486693098 4.18371954885315  L 2.1324486693098 3.02557932327972  L 4.79800951167384 3.02557932327972  L 4.79800951167384 4.18371954885315  L 2.1324486693098 4.18371954885315  Z M 11.7284676926575 11.7116310213009  L 11.7284676926575 12.8697712468743  L 1.0662243346549 12.8697712468743  L 1.0662243346549 11.7116310213009  L 11.7284676926575 11.7116310213009  Z " fill-rule="nonzero" fill="#5e5e5e" stroke="none" transform="matrix(1 0 0 1 13 476 )" />
  </g>
</svg>