<?xml version="1.0" encoding="utf-8"?>
<svg version="1.1" xmlns:xlink="http://www.w3.org/1999/xlink" width="11px" height="14px" xmlns="http://www.w3.org/2000/svg">
  <g transform="matrix(1 0 0 1 -14 -146 )">
    <path d="M 10.9033466666667 8.92095762962963  C 10.9070426666667 9.19715792592593  10.8599773333333 9.43788325925926  10.7589093333333 9.63515259259259  C 10.6577533333333 9.83245511111111  10.4410093333333 10.1048059259259  10.105172 10.4441244444444  C 9.740324 10.8229499259259  9.51634933333333 11.1031656296296  9.43332133333334 11.2846388148148  C 9.35020533333334 11.4661285925926  9.31042933333333 11.7621072592593  9.31042933333333 12.1804562962963  L 8.70009066666667 12.1804562962963  C 8.7109 11.8016308148148  8.76868666666667 11.4819911111111  8.86623466666667 11.2214708148148  C 8.96739066666667 10.9610500740741  9.184032 10.641426962963  9.523668 10.2626014814815  C 9.85949066666667 9.88375940740741  10.0726413333333 9.61547377777778  10.1592773333333 9.45757866666667  C 10.246016 9.29978311111111  10.2892973333333 9.10248059259259  10.2892973333333 8.86175525925926  C 10.2892973333333 8.50264177777778  10.1809986666667 8.21462755555556  9.96787733333333 7.99361422222222  C 9.75474133333333 7.7766162962963  9.46217066666667 7.66612622222222  9.097396 7.66612622222222  C 8.309972 7.66612622222222  7.88016533333333 8.17523674074074  7.80787333333333 9.18925985185185  L 7.23365866666667 9.18925985185185  C 7.244468 8.79863703703704  7.29146 8.49082785185185  7.37089466666666 8.26991407407408  C 7.45040266666666 8.04886755555556  7.584016 7.8436005925926  7.77182266666666 7.66217718518519  C 7.95961466666667 7.48073718518519  8.169128 7.34253748148149  8.40389733333333 7.2596242962963  C 8.63575526927277 7.17289775766199  8.87843518088718 7.12892990486791  9.12263733333333 7.12940562962963  C 9.64635466666666 7.12940562962963  10.0726413333333 7.29123318518519  10.4048706666667 7.61478874074074  C 10.737188 7.93836088888889  10.9033466666667 8.37647170370371  10.9033466666667 8.92095762962963  Z M 10.208132 6.01997511111111  L 9.55264933333333 6.01997511111111  L 9.55264933333333 2.23540385185185  C 9.55264933333333 1.49064533333333  9.02847733333333 0.886907259259259  8.38188266666667 0.886907259259259  L 1.94270266666667 0.886907259259259  C 1.29612266666667 0.886907259259259  0.771950666666666 1.49064533333333  0.771950666666666 2.23540385185185  L 0.771950666666666 11.0004242962963  C 0.771950666666666 11.7451662222222  1.29612266666667 12.3489042962963  1.94270266666667 12.3489042962963  L 6.17538533333333 12.3489042962963  L 7.212524 12.3490204444444  L 6.85090266666667 13.113042962963  L 1.44739466666667 13.113042962963  C 0.701316 13.113042962963  0.0965066666666667 12.4288142222222  0.0965066666666667 11.5847656296296  L 0.0965066666666667 1.65106251851852  C 0.0965066666666667 0.807013925925926  0.701316 0.122768592592593  1.44739466666667 0.122768592592593  L 8.87720533333333 0.122768592592593  C 9.623284 0.122768592592593  10.2280786666667 0.807013925925926  10.2280786666667 1.65106251851852  L 10.2280786666667 5.97782992592593  L 10.208132 6.01997511111111  Z M 6.17538533333333 7.75597511111111  C 6.17538533333333 7.76055702903563  6.17210208816543 7.76427140740741  6.168052 7.76427140740741  L 1.454552 7.76427140740741  C 1.45050191183457 7.76427140740741  1.44721866666667 7.76055702903563  1.44721866666667 7.75597511111111  L 1.44721866666667 7.00827970370371  C 1.44721866666667 7.00369778577918  1.45050191183457 6.99998340740741  1.454552 6.99998340740741  L 6.168052 6.99998340740741  C 6.17210208816543 6.99998340740741  6.17538533333333 7.00369778577918  6.17538533333333 7.00827970370371  L 6.17538533333333 7.75597511111111  Z M 8.20167333333333 3.17124266666667  C 8.20167333333333 3.17582458459119  8.19839008816543 3.17953896296296  8.19434 3.17953896296296  L 1.454552 3.17953896296296  C 1.45050191183457 3.17953896296296  1.44721866666667 3.17582458459119  1.44721866666667 3.17124266666667  L 1.44721866666667 2.42353066666667  C 1.44721866666667 2.41894874874215  1.45050191183457 2.41523437037037  1.454552 2.41523437037037  L 8.19434 2.41523437037037  C 8.19839008816543 2.41523437037037  8.20167333333333 2.41894874874215  8.20167333333333 2.42353066666667  L 8.20167333333333 3.17124266666667  Z M 8.20167333333333 4.71591348148148  L 8.20167333333333 5.46360888888889  C 8.20167333333333 5.46819080681341  8.19839008816543 5.47190518518519  8.19434 5.47190518518519  L 1.454552 5.47190518518519  C 1.45050191183457 5.47190518518519  1.44721866666667 5.46819080681341  1.44721866666667 5.46360888888889  L 1.44721866666667 4.71591348148148  C 1.44721866666667 4.71133156355696  1.45050191183457 4.70761718518519  1.454552 4.70761718518519  L 8.19434 4.70761718518519  C 8.19839008816543 4.70761718518519  8.20167333333333 4.71133156355696  8.20167333333333 4.71591348148148  Z M 1.454552 10.8204278518519  C 1.45050191183458 10.8204278518519  1.44721866666667 10.8167134734801  1.44721866666667 10.8121315555556  L 1.44721866666667 10.0649505185185  C 1.44721866666667 10.060368600594  1.45050191183457 10.0566542222222  1.454552 10.0566542222222  L 7.51921866666667 10.0566542222222  C 7.52326875483209 10.0566542222222  7.526552 10.060368600594  7.526552 10.0649505185185  L 7.526552 10.8121315555556  C 7.526552 10.8167134734801  7.52326875483209 10.8204278518519  7.51921866666667 10.8204278518519  L 1.454552 10.8204278518519  Z M 9.37192666666667 13.0879715555556  L 9.37192666666667 13.8771484444444  L 8.69286 13.8771484444444  L 8.69286 13.0879715555556  L 9.37192666666667 13.0879715555556  Z " fill-rule="nonzero" fill="#000000" stroke="none" transform="matrix(1 0 0 1 14 146 )" />
  </g>
</svg>