<?xml version="1.0" encoding="utf-8"?>
<svg version="1.1" xmlns:xlink="http://www.w3.org/1999/xlink" width="15px" height="15px" xmlns="http://www.w3.org/2000/svg">
  <g transform="matrix(1 0 0 1 -285 -69 )">
    <path d="M 14.9614466836249 13.7032524829102  C 14.9614466836249 13.359490095031  14.824793399771 13.029827448227  14.58158765625 12.7868798291016  L 11.5266813720703 9.73098125976563  C 11.411027555568 9.61887212044277  11.2756874858577 9.52905654763475  11.1274531494141 9.46604189941406  C 11.7865906890198 8.47697807147848  12.1381873581256 7.3149251701414  12.1379272265625 6.12635061035156  C 12.1379272265625 2.78467475097656  9.42965821289062 0.0767364990234365  6.08798235351562 0.0767364990234365  C 2.74663727050781 0.0767364990234375  0.0383682421875 2.78500551269531  0.0383682421875 6.12635061035156  C 0.0383682421875 9.46769570800781  2.74663725585938 12.1759647216797  6.08798235351563 12.1759647216797  C 7.32370451660156 12.1759647216797  8.47045204101563 11.80088203125  9.42866592773438 11.1654906298828  C 9.49084895507812 11.3093715527344  9.57519294433594 11.4466372705078  9.69228225585938 11.5640573291016  L 12.7485115722656 14.6196251367187  C 12.9915587592171 14.862769843896  13.3212600220457 14.9993753189664  13.6650496142578 14.9993753189664  C 14.0088392064699 14.9993753189664  14.3385404692985 14.862769843896  14.58158765625 14.6196251367187  C 14.824793399771 14.3766775175933  14.9614466836249 14.0470148707893  14.9614466836249 13.7032524829102  Z M 10.4090407910156 6.12668137207031  C 10.4090407910156 8.51312018554687  8.47508269042969 10.4474090478516  6.08798235351563 10.4474090478516  C 3.70121277832031 10.4474090478516  1.76692391601562 8.51312018554687  1.76692393066406 6.12668137207031  C 1.76692393066406 3.739911796875  3.70121279296875 1.80562293457031  6.08798235351563 1.80562293457031  C 8.47508269042969 1.80562293457031  10.4090407910156 3.739911796875  10.4090407910156 6.12668137207031  Z " fill-rule="nonzero" fill="#ffffff" stroke="none" transform="matrix(1 0 0 1 285 69 )" />
  </g>
</svg>