<?xml version="1.0" encoding="utf-8"?>
<svg version="1.1" xmlns:xlink="http://www.w3.org/1999/xlink" width="18px" height="18px" xmlns="http://www.w3.org/2000/svg">
  <g transform="matrix(1 0 0 1 -17 0 )">
    <path d="M 26 0  C 31.04 0  35 3.96  35 9  C 35 14.04  31.04 18  26 18  C 20.96 18  17 14.04  17 9  C 17 3.96  20.96 0  26 0  Z " fill-rule="nonzero" fill="#ffffff" stroke="none" />
    <path d="M 26 0.5  C 30.76 0.5  34.5 4.24  34.5 9  C 34.5 13.76  30.76 17.5  26 17.5  C 21.24 17.5  17.5 13.76  17.5 9  C 17.5 4.24  21.24 0.5  26 0.5  Z " stroke-width="1" stroke="#169bd5" fill="none" />
  </g>
</svg>