<?xml version="1.0" encoding="utf-8"?>
<svg version="1.1" xmlns:xlink="http://www.w3.org/1999/xlink" width="14px" height="14px" viewBox="255 191  14 14" xmlns="http://www.w3.org/2000/svg">
  <path d="M 255.5 192  A 0.5 0.5 0 0 1 256 191.5 L 268 191.5  A 0.5 0.5 0 0 1 268.5 192 L 268.5 204  A 0.5 0.5 0 0 1 268 204.5 L 256 204.5  A 0.5 0.5 0 0 1 255.5 204 L 255.5 192  Z " fill-rule="nonzero" fill="#ffffff" stroke="none" />
  <path d="M 255.5 192  A 0.5 0.5 0 0 1 256 191.5 L 268 191.5  A 0.5 0.5 0 0 1 268.5 192 L 268.5 204  A 0.5 0.5 0 0 1 268 204.5 L 256 204.5  A 0.5 0.5 0 0 1 255.5 204 L 255.5 192  Z " stroke-width="1" stroke="#bbbbbb" fill="none" />
  <path d="M 258.5 198.5  L 261.5 201.5  " stroke-width="3" stroke="#bbbbbb" fill="none" />
  <path d="M 261.5 201.5  L 266.5 194.5  " stroke-width="3" stroke="#bbbbbb" fill="none" />
</svg>