<?xml version="1.0" encoding="utf-8"?>
<svg version="1.1" xmlns:xlink="http://www.w3.org/1999/xlink" width="14px" height="14px" viewBox="255 444  14 14" xmlns="http://www.w3.org/2000/svg">
  <path d="M 255.5 445  A 0.5 0.5 0 0 1 256 444.5 L 268 444.5  A 0.5 0.5 0 0 1 268.5 445 L 268.5 457  A 0.5 0.5 0 0 1 268 457.5 L 256 457.5  A 0.5 0.5 0 0 1 255.5 457 L 255.5 445  Z " fill-rule="nonzero" fill="#f0f0f0" stroke="none" />
  <path d="M 255.5 445  A 0.5 0.5 0 0 1 256 444.5 L 268 444.5  A 0.5 0.5 0 0 1 268.5 445 L 268.5 457  A 0.5 0.5 0 0 1 268 457.5 L 256 457.5  A 0.5 0.5 0 0 1 255.5 457 L 255.5 445  Z " stroke-width="1" stroke="#bbbbbb" fill="none" />
</svg>