<?xml version="1.0" encoding="utf-8"?>
<svg version="1.1" xmlns:xlink="http://www.w3.org/1999/xlink" width="14px" height="14px" viewBox="255 598  14 14" xmlns="http://www.w3.org/2000/svg">
  <path d="M 255.5 599  A 0.5 0.5 0 0 1 256 598.5 L 268 598.5  A 0.5 0.5 0 0 1 268.5 599 L 268.5 611  A 0.5 0.5 0 0 1 268 611.5 L 256 611.5  A 0.5 0.5 0 0 1 255.5 611 L 255.5 599  Z " fill-rule="nonzero" fill="#ffffff" stroke="none" />
  <path d="M 255.5 599  A 0.5 0.5 0 0 1 256 598.5 L 268 598.5  A 0.5 0.5 0 0 1 268.5 599 L 268.5 611  A 0.5 0.5 0 0 1 268 611.5 L 256 611.5  A 0.5 0.5 0 0 1 255.5 611 L 255.5 599  Z " stroke-width="1" stroke="#bbbbbb" fill="none" />
  <path d="M 258.5 605.5  L 261.5 608.5  " stroke-width="3" stroke="#bbbbbb" fill="none" />
  <path d="M 261.5 608.5  L 266.5 601.5  " stroke-width="3" stroke="#bbbbbb" fill="none" />
</svg>