<?xml version="1.0" encoding="utf-8"?>
<svg version="1.1" xmlns:xlink="http://www.w3.org/1999/xlink" width="14px" height="14px" viewBox="255 753  14 14" xmlns="http://www.w3.org/2000/svg">
  <path d="M 255.5 754  A 0.5 0.5 0 0 1 256 753.5 L 268 753.5  A 0.5 0.5 0 0 1 268.5 754 L 268.5 766  A 0.5 0.5 0 0 1 268 766.5 L 256 766.5  A 0.5 0.5 0 0 1 255.5 766 L 255.5 754  Z " fill-rule="nonzero" fill="#f0f0f0" stroke="none" />
  <path d="M 255.5 754  A 0.5 0.5 0 0 1 256 753.5 L 268 753.5  A 0.5 0.5 0 0 1 268.5 754 L 268.5 766  A 0.5 0.5 0 0 1 268 766.5 L 256 766.5  A 0.5 0.5 0 0 1 255.5 766 L 255.5 754  Z " stroke-width="1" stroke="#bbbbbb" fill="none" />
</svg>