<?xml version="1.0" encoding="utf-8"?>
<svg version="1.1" xmlns:xlink="http://www.w3.org/1999/xlink" width="39px" height="30px" xmlns="http://www.w3.org/2000/svg">
  <defs>
    <mask fill="white" id="clip8">
      <path d="M 13.8 0.5  C 23.3 0.5  29 9.19999999999999  38.5 15  C 29 20.8  23.3 29.5  13.8 29.5  C 8.8599999999999 29.5  0.5 26.6  0.5 15  C 0.5 4.94893944703659  6.77645006302646 1.42959128023722  11.6662061104157 0.668930401448108  C 12.4197520659172 0.55170718557298  13.1403654423827 0.5  13.8 0.5  Z " fill-rule="evenodd" />
    </mask>
  </defs>
  <g transform="matrix(1 0 0 1 -1407 -280 )">
    <path d="M 13.8 0.5  C 23.3 0.5  29 9.19999999999999  38.5 15  C 29 20.8  23.3 29.5  13.8 29.5  C 8.8599999999999 29.5  0.5 26.6  0.5 15  C 0.5 4.94893944703659  6.77645006302646 1.42959128023722  11.6662061104157 0.668930401448108  C 12.4197520659172 0.55170718557298  13.1403654423827 0.5  13.8 0.5  Z " fill-rule="nonzero" fill="#ffbf60" stroke="none" transform="matrix(1 0 0 1 1407 280 )" />
    <path d="M 13.8 0.5  C 23.3 0.5  29 9.19999999999999  38.5 15  C 29 20.8  23.3 29.5  13.8 29.5  C 8.8599999999999 29.5  0.5 26.6  0.5 15  C 0.5 4.94893944703659  6.77645006302646 1.42959128023722  11.6662061104157 0.668930401448108  C 12.4197520659172 0.55170718557298  13.1403654423827 0.5  13.8 0.5  Z " stroke-width="2" stroke="#ffffff" fill="none" transform="matrix(1 0 0 1 1407 280 )" mask="url(#clip8)" />
  </g>
</svg>