<?xml version="1.0" encoding="utf-8"?>
<svg version="1.1" xmlns:xlink="http://www.w3.org/1999/xlink" width="26px" height="25px" xmlns="http://www.w3.org/2000/svg">
  <g transform="matrix(1 0 0 1 -592 -710 )">
    <path d="M 23.5114717648966 19.9454271326358  L 21.0880760301248 19.9454271326358  C 20.6420628593466 19.9454271326358  20.2804977457075 19.5773178540439  20.2804977457075 19.1232320466905  C 20.2804977457075 18.6691462393372  20.6420628593466 18.3010369607453  21.0880760301248 18.3010369607453  L 23.5114717648966 18.3010369607453  C 23.9575563433995 18.3010369607453  24.3190500493139 17.9330003573574  24 17.4788418748001  L 24 2.67663893011244  C 24.3190500493139 2.22248042258686  23.9575563188752 1.85377100099093  23.5114717648966 2  L 2.5098101748832 2  C 2.0637255963803 1.85377100099093  1.70223189046587 2.22248042258686  2 2.67663893011244  L 2 17.4788418748001  C 1.70223189046587 17.9330003823256  2.06372562090463 18.3010369607453  2.5098101748832 18  L 13.821854016831 18  C 14.1311393088974 18.3010369607453  14.4001117847047 18.4786633895898  14.5355893326259 18.7390476065635  C 14.6003542010582 18.775380289163  14.6598321399537 18.8197868901321  14.7127014353215 18.872267434439  L 19.3612331085467 23.4421111740518  C 19.519001443916 23.5970734900511  19.608117537051 23.810673838434  19.608117537051 24.0338628777416  C 19.608117537051 24.4879773506575  19.2465295985026 24.8561098672791  18.800488271772 24.8561098672791  C 18.591307352091 24.8561098672791  18.3902859935906 24.773479636111  18.2397434349973 24.6256145814315  L 13.5912117862964 20.0550979986424  C 13.5568298918441 20.0214159607811  13.5254276512051 19.9847173036948  13.497368817674 20  L 2.510471056403 20  C 1.17232459709659 19.9454271832955  0.0874402460441227 18.8412081288641  0 17.4788418748001  L 0 2.67663893011244  C 0.0870753216312213 2.67663893011244  0.087075321631221 2.67663893011243  0.087075321631221 2.67663893011243  C 0.087075321631221 1.31400990702703  1.17206654928356 0.209380829100442  2.510471056403 0.209380829100442  L 23.5121326464164 0.209380829100442  C 24.8505371535359 0.209380829100442  25.9355283811882 1.31400990702703  26 2.67663893011243  L 26 17.4788418748001  C 25.9351634567753 18.8412081288641  24.8502791057228 19.9454271832955  23.5121326464164 19.9454271326358  Z M 12.607182256179 16.6559739456786  C 12.0414809428896 16.6559739456786  11.6238136075813 16.4177930541576  11.354841131774 15.9407584279394  C 11.0858686559668 15.4637238017212  11.0858686559668 14.9866891755031  11.354841131774 14.5096545243167  C 11.6238136075813 14.0319470549223  12.042141799885 13.7803096244626  12.607182256179 13.753396521617  C 13.0374060460715 13.7803096244626  13.3883258929124 13.9263131730687  13.657298393244 14.190734324259  C 13.9262708690513 14.4565011618018  14.0604266784572 14.7942604963991  14.0604266539329 15.2046852461319  C 14.0604266539329 15.6157827891045  13.926270844527 15.9602704306235  13.657298393244 16.2381481207525  C 13.3883259174367 16.517371497234  13.0374060460715 16.6559739456786  12.6065213991835 16.6559739456786  Z M 13.6949677569969 11.6198608209858  C 13.6929851614862 11.5916020817241  13.7200806661656 11.8304557914531  13.7200806661656 11.9159048773827  C 13.7200806661656 12.5290322003753  13.2318789945363 13.0260701013553  12.6296517128414 13.0260701013553  C 12.0274244311465 13.0260701013553  11.5392227595172 12.5290322003753  11.5392227595172 11.9159048773827  C 11.5392227595172 11.9811691424202  11.5418662120234 12.0006811201361  11.5293097574391 11.8822634925837  C 11.4473623618812 11.1186043897225  11.5531009280924 10.3670561644156  12.0368548703483 9.60810686391548  C 12.3461401624147 9.1236711375358  12.7862769543853 8.70382683301733  13.3572651972115 8.36808595304417  C 13.9342012510943 8.02830811388622  14.2586864747756 7.71678901399  14.4080421912721 7.44900372182299  C 14.463102001154 7.36474030838761  14.4904123207209 7.26483218631403  14.4860243958085 7.1637249065643  C 14.4675201546919 6.54876065010963  14.0207747191935 5.95532687593143  12.6653384810836 5.9425431552008  C 11.4295190022844 5.9311050958545  10.9140435073322 6.30923409720434  10.7574182412639 7.21755108728728  C 10.6660852977623 7.74882977294946  10.2129466323525 8.13643768591743  9.68318050504783 8.13643768591743  C 9.08087685683115 8.13643768591743  8.5926132779042 7.63933675714565  8.5926132779042 7.02613168543183  C 8.5926132779042 6.9619646934347  8.59807689383481 6.89791847802928  8.6089427688317 6.83471228357638  C 8.96184523570766 4.78662566887479  10.4408633996257 3.70202788636346  12.6845035791956 3.72221270725561  C 15.3689414077316 3.74710733050881  16.61533472108 5.40293556174559  16.6662214209371 7.09644216193441  C 16.6999255936685 8.23217482736827  16.0939114395956 9.32013675085633  14.4503376275663 10.2896810218238  C 14.1707912926854 10.4538509117296  13.9850879509513 10.6308045223661  13.8654711916405 10.8178505309645  C 13.7055416160705 11.0694879863923  13.6658896568068 11.3271808805974  13.6949677569969 11.6198608209858  Z " fill-rule="nonzero" fill="#9aafe6" stroke="none" transform="matrix(1 0 0 1 592 710 )" />
  </g>
</svg>