<?xml version="1.0" encoding="utf-8"?>
<svg version="1.1" xmlns:xlink="http://www.w3.org/1999/xlink" width="126px" height="48px" xmlns="http://www.w3.org/2000/svg">
  <defs>
    <filter x="908px" y="690px" width="126px" height="48px" filterUnits="userSpaceOnUse" id="filter316">
      <feOffset dx="0" dy="0" in="SourceAlpha" result="shadowOffsetInner" />
      <feGaussianBlur stdDeviation="3" in="shadowOffsetInner" result="shadowGaussian" />
      <feComposite in2="shadowGaussian" operator="atop" in="SourceAlpha" result="shadowComposite" />
      <feColorMatrix type="matrix" values="0 0 0 0 0.827450980392157  0 0 0 0 0.874509803921569  0 0 0 0 0.901960784313726  0 0 0 0.349019607843137 0  " in="shadowComposite" />
    </filter>
    <g id="widget317">
      <path d="M 914.5 714  A 17.5 17.5 0 0 1 932 696.5 L 1010 696.5  A 17.5 17.5 0 0 1 1027.5 714 A 17.5 17.5 0 0 1 1010 731.5 L 932 731.5  A 17.5 17.5 0 0 1 914.5 714 Z " fill-rule="nonzero" fill="#2a76f9" stroke="none" fill-opacity="0" />
      <path d="M 914.5 714  A 17.5 17.5 0 0 1 932 696.5 L 1010 696.5  A 17.5 17.5 0 0 1 1027.5 714 A 17.5 17.5 0 0 1 1010 731.5 L 932 731.5  A 17.5 17.5 0 0 1 914.5 714 Z " stroke-width="1" stroke="#2a76f9" fill="none" />
    </g>
  </defs>
  <g transform="matrix(1 0 0 1 -908 -690 )">
    <use xlink:href="#widget317" filter="url(#filter316)" />
    <use xlink:href="#widget317" />
  </g>
</svg>