<?xml version="1.0" encoding="utf-8"?>
<svg version="1.1" xmlns:xlink="http://www.w3.org/1999/xlink" width="24px" height="24px" xmlns="http://www.w3.org/2000/svg">
  <g transform="matrix(1 0 0 1 -222 -774 )">
    <path d="M 234 774  C 240.72 774  246 779.28  246 786  C 246 792.72  240.72 798  234 798  C 227.28 798  222 792.72  222 786  C 222 779.28  227.28 774  234 774  Z " fill-rule="nonzero" fill="#ffffff" stroke="none" fill-opacity="0" />
    <path d="M 234 774.5  C 240.44 774.5  245.5 779.56  245.5 786  C 245.5 792.44  240.44 797.5  234 797.5  C 227.56 797.5  222.5 792.44  222.5 786  C 222.5 779.56  227.56 774.5  234 774.5  Z " stroke-width="1" stroke="#ffffff" fill="none" />
  </g>
</svg>