<?xml version="1.0" encoding="utf-8"?>
<svg version="1.1" xmlns:xlink="http://www.w3.org/1999/xlink" width="76px" height="76px" xmlns="http://www.w3.org/2000/svg">
  <g transform="matrix(1 0 0 1 -1816 -406 )">
    <path d="M 75.7121653225806 38.0512540322581  C 75.7121653225806 17.2542217741935  58.8524233870968 0.394479838709678  38.0553911290323 0.394479838709678  C 17.2583588709677 0.394479838709678  0.398616935483869 17.2542217741935  0.398616935483869 38.0512540322581  C 0.398616935483869 58.8482862903226  17.2583588709677 75.7080282258064  38.0553911290323 75.7080282258064  C 58.8524233870968 75.7080282258064  75.7121653225806 58.8482862903226  75.7121653225806 38.0512540322581  Z M 59.963310483871 26.2479637096774  C 59.963310483871 26.2479637096774  32.4132338709677 52.0940927419355  32.4048064516129 52.1014475806452  C 31.7866169354839 52.7040080645161  30.7887338709677 52.6913669354839  30.1861733870968 52.0731774193548  L 16.1172096774194 38.1893870967742  C 15.5146491935484 37.5711975806452  15.5272903225806 36.573314516129  16.1454798387097 35.9707540322581  C 16.7636693548387 35.3681935483871  17.7615524193548 35.3808346774194  18.3641129032258 35.9990241935484  L 31.319125 48.7573709677419  L 57.7719516129032 24.0011370967742  C 58.3901411290323 23.3985766129032  59.3880241935484 23.4112177419355  59.9905846774193 24.0294072580645  C 60.5941411290323 24.6475967741936  60.5815766129032 25.6454798387097  59.9633870967742 26.2480403225806  Z " fill-rule="nonzero" fill="#90d57f" stroke="none" transform="matrix(1 0 0 1 1816 406 )" />
  </g>
</svg>