<?xml version="1.0" encoding="utf-8"?>
<svg version="1.1" xmlns:xlink="http://www.w3.org/1999/xlink" width="350px" height="64px" xmlns="http://www.w3.org/2000/svg">
  <defs>
    <filter x="1679px" y="634px" width="350px" height="64px" filterUnits="userSpaceOnUse" id="filter158">
      <feOffset dx="0" dy="0" in="SourceAlpha" result="shadowOffsetInner" />
      <feGaussianBlur stdDeviation="3" in="shadowOffsetInner" result="shadowGaussian" />
      <feComposite in2="shadowGaussian" operator="atop" in="SourceAlpha" result="shadowComposite" />
      <feColorMatrix type="matrix" values="0 0 0 0 0.827450980392157  0 0 0 0 0.874509803921569  0 0 0 0 0.901960784313726  0 0 0 0.349019607843137 0  " in="shadowComposite" />
    </filter>
    <g id="widget159">
      <path d="M 1685.5 648  A 7.5 7.5 0 0 1 1693 640.5 L 2015 640.5  A 7.5 7.5 0 0 1 2022.5 648 L 2022.5 684  A 7.5 7.5 0 0 1 2015 691.5 L 1693 691.5  A 7.5 7.5 0 0 1 1685.5 684 L 1685.5 648  Z " fill-rule="nonzero" fill="#2a76f9" stroke="none" fill-opacity="0" />
      <path d="M 1685.5 648  A 7.5 7.5 0 0 1 1693 640.5 L 2015 640.5  A 7.5 7.5 0 0 1 2022.5 648 L 2022.5 684  A 7.5 7.5 0 0 1 2015 691.5 L 1693 691.5  A 7.5 7.5 0 0 1 1685.5 684 L 1685.5 648  Z " stroke-width="1" stroke="#2a76f9" fill="none" />
    </g>
  </defs>
  <g transform="matrix(1 0 0 1 -1679 -634 )">
    <use xlink:href="#widget159" filter="url(#filter158)" />
    <use xlink:href="#widget159" />
  </g>
</svg>