<?xml version="1.0" encoding="utf-8"?>
<svg version="1.1" xmlns:xlink="http://www.w3.org/1999/xlink" width="6px" height="4px" xmlns="http://www.w3.org/2000/svg">
  <g transform="matrix(1 0 0 1 -388 -180 )">
    <path d="M 3.392830078125 3.79215789473684  L 5.845236328125 1.03794078947368  C 5.996583984375 0.868026315789474  6.041408203125 0.614651315789474  5.959669921875 0.392631578947368  C 5.877931640625 0.171217105263158  5.685509765625 0.0273684210526316  5.472521484375 0.0273684210526316  L 0.5671875 0.0273684210526316  C 0.3541875 0.0273684210526316  0.161689453125 0.171809210526316  0.079998046875 0.392631578947368  C 0.053103515625 0.466032894736842  0.039908203125 0.543026315789474  0.039908203125 0.619407894736842  C 0.039908203125 0.773322368421052  0.0936796875 0.924868421052631  0.194390625 1.03796052631579  L 2.647365234375 3.79216447368421  C 2.746458984375 3.90341447368421  2.880404296875 3.96561842105263  3.020150390625 3.96561842105263  C 3.159837890625 3.96561842105263  3.29433984375 3.90288815789474  3.392923828125 3.79216447368421  Z " fill-rule="nonzero" fill="#eeeeee" stroke="none" transform="matrix(1 0 0 1 388 180 )" />
  </g>
</svg>