<?xml version="1.0" encoding="utf-8"?>
<svg version="1.1" xmlns:xlink="http://www.w3.org/1999/xlink" width="20px" height="20px" preserveAspectRatio="xMinYMid meet" viewBox="949 1396  20 18" xmlns="http://www.w3.org/2000/svg">
  <defs>
    <mask fill="white" id="clip108">
      <path d="M 842.5 1389  L 879.5 1389  L 879.5 1421  L 842.5 1421  Z M 749 1389  L 974 1389  L 974 1421  L 749 1421  Z " fill-rule="evenodd" />
    </mask>
  </defs>
  <path d="M 842.5 1405  L 761 1405  M 879.5 1405  L 958 1405  " stroke-width="2" stroke="#3b95e8" fill="none" />
  <path d="M 762.5 1401.5  A 3.5 3.5 0 0 0 759 1405 A 3.5 3.5 0 0 0 762.5 1408.5 A 3.5 3.5 0 0 0 766 1405 A 3.5 3.5 0 0 0 762.5 1401.5 Z M 957 1412.6  L 964 1405  L 957 1397.4  L 957 1412.6  Z " fill-rule="nonzero" fill="#3b95e8" stroke="none" mask="url(#clip108)" />
</svg>