<?xml version="1.0" encoding="utf-8"?>
<svg version="1.1" xmlns:xlink="http://www.w3.org/1999/xlink" width="10px" height="76px" preserveAspectRatio="xMidYMin meet" viewBox="665 1459  8 76" xmlns="http://www.w3.org/2000/svg">
  <defs>
    <mask fill="white" id="clip109">
      <path d="M 762.5 1514  L 799.5 1514  L 799.5 1546  L 762.5 1546  Z M 659 1449  L 974 1449  L 974 1546  L 659 1546  Z " fill-rule="evenodd" />
    </mask>
  </defs>
  <path d="M 669 1461  L 669 1530  L 958 1530  " stroke-width="2" stroke="#3b95e8" fill="none" mask="url(#clip109)" />
  <path d="M 669 1459  A 3.5 3.5 0 0 0 665.5 1462.5 A 3.5 3.5 0 0 0 669 1466 A 3.5 3.5 0 0 0 672.5 1462.5 A 3.5 3.5 0 0 0 669 1459 Z M 957 1537.6  L 964 1530  L 957 1522.4  L 957 1537.6  Z " fill-rule="nonzero" fill="#3b95e8" stroke="none" mask="url(#clip109)" />
</svg>