<?xml version="1.0" encoding="utf-8"?>
<svg version="1.1" xmlns:xlink="http://www.w3.org/1999/xlink" width="10px" height="76px" preserveAspectRatio="xMidYMin meet" viewBox="1070 2429  8 76" xmlns="http://www.w3.org/2000/svg">
  <path d="M 1074 2431  L 1074 2500  L 672 2500  A 3 3 0 0 0 669 2497 A 3 3 0 0 0 666 2500 L 274 2500  L 274 2579  " stroke-width="2" stroke-dasharray="18,8" stroke="#bdbfc1" fill="none" />
  <path d="M 1074 2429  A 3.5 3.5 0 0 0 1070.5 2432.5 A 3.5 3.5 0 0 0 1074 2436 A 3.5 3.5 0 0 0 1077.5 2432.5 A 3.5 3.5 0 0 0 1074 2429 Z M 266.4 2578  L 274 2585  L 281.6 2578  L 266.4 2578  Z " fill-rule="nonzero" fill="#bdbfc1" stroke="none" />
</svg>