<?xml version="1.0" encoding="utf-8"?>
<svg version="1.1" xmlns:xlink="http://www.w3.org/1999/xlink" width="21px" height="20px" preserveAspectRatio="xMinYMid meet" viewBox="752 436  21 18" xmlns="http://www.w3.org/2000/svg">
  <defs>
    <mask fill="white" id="clip384">
      <path d="M 842.5 429  L 879.5 429  L 879.5 461  L 842.5 461  Z M 749 429  L 974 429  L 974 461  L 749 461  Z " fill-rule="evenodd" />
    </mask>
  </defs>
  <path d="M 842.5 445  L 761 445  M 879.5 445  L 958 445  " stroke-width="2" stroke="#3b95e8" fill="none" />
  <path d="M 762.5 441.5  A 3.5 3.5 0 0 0 759 445 A 3.5 3.5 0 0 0 762.5 448.5 A 3.5 3.5 0 0 0 766 445 A 3.5 3.5 0 0 0 762.5 441.5 Z M 957 452.6  L 964 445  L 957 437.4  L 957 452.6  Z " fill-rule="nonzero" fill="#3b95e8" stroke="none" mask="url(#clip384)" />
</svg>