<?xml version="1.0" encoding="utf-8"?>
<svg version="1.1" xmlns:xlink="http://www.w3.org/1999/xlink" width="20px" height="20px" preserveAspectRatio="xMinYMid meet" viewBox="949 561  20 18" xmlns="http://www.w3.org/2000/svg">
  <defs>
    <mask fill="white" id="clip389">
      <path d="M 762.5 554  L 799.5 554  L 799.5 586  L 762.5 586  Z M 659 489  L 974 489  L 974 586  L 659 586  Z " fill-rule="evenodd" />
    </mask>
  </defs>
  <path d="M 669 501  L 669 570  L 958 570  " stroke-width="2" stroke="#3b95e8" fill="none" mask="url(#clip389)" />
  <path d="M 669 499  A 3.5 3.5 0 0 0 665.5 502.5 A 3.5 3.5 0 0 0 669 506 A 3.5 3.5 0 0 0 672.5 502.5 A 3.5 3.5 0 0 0 669 499 Z M 957 577.6  L 964 570  L 957 562.4  L 957 577.6  Z " fill-rule="nonzero" fill="#3b95e8" stroke="none" mask="url(#clip389)" />
</svg>