<?xml version="1.0" encoding="utf-8"?>
<svg version="1.1" xmlns:xlink="http://www.w3.org/1999/xlink" width="20px" height="21px" preserveAspectRatio="xMidYMin meet" viewBox="1065 1462  18 21" xmlns="http://www.w3.org/2000/svg">
  <path d="M 1074 1471  L 1074 1540  L 672 1540  A 3 3 0 0 0 669 1537 A 3 3 0 0 0 666 1540 L 274 1540  L 274 1619  " stroke-width="2" stroke-dasharray="6,2" stroke="#bdbfc1" fill="none" />
  <path d="M 1074 1469  A 3.5 3.5 0 0 0 1070.5 1472.5 A 3.5 3.5 0 0 0 1074 1476 A 3.5 3.5 0 0 0 1077.5 1472.5 A 3.5 3.5 0 0 0 1074 1469 Z M 266.4 1618  L 274 1625  L 281.6 1618  L 266.4 1618  Z " fill-rule="nonzero" fill="#bdbfc1" stroke="none" />
</svg>