<?xml version="1.0" encoding="utf-8"?>
<svg version="1.1" xmlns:xlink="http://www.w3.org/1999/xlink" width="86px" height="86px" xmlns="http://www.w3.org/2000/svg">
  <g transform="matrix(1 0 0 1 -925 -481 )">
    <path d="M 0.816455663246637 43  C 0.816455663246637 19.7030831025761  19.7030831025761 0.816455663246637  43 0.816455663246637  C 66.2969168974238 0.816455663246637  85.1835443367534 19.7030830037085  85.1835443367534 43  C 85.1835443367534 66.2969169962915  66.2969168974238 85.1835443367534  43 85.1835443367534  C 19.7030831025761 85.1835443367534  0.816455663246637 66.2969168974238  0.816455663246637 43  Z M 61.9829749820166 32.4541136717838  C 61.9829749820166 31.6141624917668  61.6489623138202 30.8086869033343  61.0545569290694 30.2152223101266  C 60.4613493013221 29.6227523127777  59.6572296964989 29.2899680724444  58.8188288452492 29.2899680724444  C 57.9788776894443 29.2899680724444  57.173402122183 29.6239807214384  56.5799375329559 30.2183860759494  L 37.7523671215635 49.0744303797468  L 29.4137349353985 40.7705997165002  C 28.8223150229118 40.1907731108022  28.0271036990223 39.8659870989652  27.1988667730397 39.8659870989652  C 25.4515671570798 39.8659870989652  24.0351009502549 41.2824533057901  24.0351009502549 43.02975292175  C 24.0351009502549 43.8623794391656  24.3633294537017 44.661441988198  24.9486068367534 45.2536558873863  L 35.5261305050188 55.7879414556962  C 36.7630837468048 57.0198672913158  38.7641245219052 57.0170356298625  39.9975862341772 55.7816139240507  L 61.0577206948922 34.6898418051078  C 61.6501907224914 34.0966341733096  61.9829749820166 33.2925145472765  61.9829749820166 32.4541136717838  Z " fill-rule="nonzero" fill="#73e08b" stroke="none" transform="matrix(1 0 0 1 925 481 )" />
  </g>
</svg>