<?xml version="1.0" encoding="utf-8"?>
<svg version="1.1" xmlns:xlink="http://www.w3.org/1999/xlink" width="17px" height="17px" viewBox="876 732.5  17 17" xmlns="http://www.w3.org/2000/svg">
  <path d="M 884.5 732.5  C 889.26 732.5  893 736.24  893 741  C 893 745.76  889.26 749.5  884.5 749.5  C 879.74 749.5  876 745.76  876 741  C 876 736.24  879.74 732.5  884.5 732.5  Z " fill-rule="nonzero" fill="#ffffff" stroke="none" />
  <path d="M 884.5 733  C 888.98 733  892.5 736.52  892.5 741  C 892.5 745.48  888.98 749  884.5 749  C 880.02 749  876.5 745.48  876.5 741  C 876.5 736.52  880.02 733  884.5 733  Z " stroke-width="1" stroke="#6482ec" fill="none" />
  <path d="M 884.5 745.25  C 882.12 745.25  880.25 743.38  880.25 741  C 880.25 738.62  882.12 736.75  884.5 736.75  C 886.88 736.75  888.75 738.62  888.75 741  C 888.75 743.38  886.88 745.25  884.5 745.25  " fill-rule="nonzero" fill="#6482ec" stroke="none" />
</svg>