<?xml version="1.0" encoding="utf-8"?>
<svg version="1.1" xmlns:xlink="http://www.w3.org/1999/xlink" width="12px" height="12px" viewBox="244 420  12 12" xmlns="http://www.w3.org/2000/svg">
  <path d="M 244.5 422  A 1.5 1.5 0 0 1 246 420.5 L 254 420.5  A 1.5 1.5 0 0 1 255.5 422 L 255.5 430  A 1.5 1.5 0 0 1 254 431.5 L 246 431.5  A 1.5 1.5 0 0 1 244.5 430 L 244.5 422  Z " fill-rule="nonzero" fill="#ffffff" stroke="none" />
  <path d="M 244.5 422  A 1.5 1.5 0 0 1 246 420.5 L 254 420.5  A 1.5 1.5 0 0 1 255.5 422 L 255.5 430  A 1.5 1.5 0 0 1 254 431.5 L 246 431.5  A 1.5 1.5 0 0 1 244.5 430 L 244.5 422  Z " stroke-width="1" stroke="#d9d9d9" fill="none" />
  <path d="M 246.571428571429 426  L 249.142857142857 428.571428571429  " stroke-width="2.57142857142857" stroke="#d9d9d9" fill="none" />
  <path d="M 249.142857142857 428.571428571429  L 253.428571428571 422.571428571429  " stroke-width="2.57142857142857" stroke="#d9d9d9" fill="none" />
</svg>