<?xml version="1.0" encoding="utf-8"?>
<svg version="1.1" xmlns:xlink="http://www.w3.org/1999/xlink" width="12px" height="12px" viewBox="244 779  12 12" xmlns="http://www.w3.org/2000/svg">
  <path d="M 244.5 781  A 1.5 1.5 0 0 1 246 779.5 L 254 779.5  A 1.5 1.5 0 0 1 255.5 781 L 255.5 789  A 1.5 1.5 0 0 1 254 790.5 L 246 790.5  A 1.5 1.5 0 0 1 244.5 789 L 244.5 781  Z " fill-rule="nonzero" fill="#ffffff" stroke="none" />
  <path d="M 244.5 781  A 1.5 1.5 0 0 1 246 779.5 L 254 779.5  A 1.5 1.5 0 0 1 255.5 781 L 255.5 789  A 1.5 1.5 0 0 1 254 790.5 L 246 790.5  A 1.5 1.5 0 0 1 244.5 789 L 244.5 781  Z " stroke-width="1" stroke="#d9d9d9" fill="none" />
  <path d="M 246.571428571429 785  L 249.142857142857 787.571428571429  " stroke-width="2.57142857142857" stroke="#d9d9d9" fill="none" />
  <path d="M 249.142857142857 787.571428571429  L 253.428571428571 781.571428571429  " stroke-width="2.57142857142857" stroke="#d9d9d9" fill="none" />
</svg>