<?xml version="1.0" encoding="utf-8"?>
<svg version="1.1" xmlns:xlink="http://www.w3.org/1999/xlink" width="36px" height="36px" xmlns="http://www.w3.org/2000/svg">
  <g transform="matrix(1 0 0 1 -758 -1441 )">
    <path d="M 36 18  C 36 27.9411428571429  27.9411428571428 36  18 36  C 8.05885714285716 36  0 27.9411428571429  0 18  C 0 8.05885714285705  8.05885714285716 0  18 0  C 27.9411428571428 0  36 8.05885714285705  36 18  Z M 2.41071428571433 18  C 2.41071428571433 26.609705357143  9.39029464285716 33.5892857142853  18 33.5892857142853  C 26.6097053571428 33.5892857142853  33.5892857142857 26.609705357143  33.5892857142857 18  C 33.5892857142857 9.39029464285704  26.6097053571428 2.41071428571468  18 2.41071428571468  C 9.39029464285716 2.41071428571468  2.41071428571433 9.39029464285704  2.41071428571433 18  Z M 24.4196116071429 9.88433035714297  C 24.8897008928571 9.41295535714289  25.6528928571429 9.41191071428602  26.1242276785714 9.88199999999961  C 26.5956026785715 10.3520892857141  26.5966473214286 11.1152410714285  26.1265982142858 11.5866160714286  L 11.5803482142857 26.1726428571428  C 11.1102991071429 26.6440178571429  10.3471071428571 26.6450624999998  9.8757723214286 26.1750133928572  C 9.40439732142852 25.7049241071427  9.40335267857142 24.9417321428573  9.87340178571424 24.4703571428572  L 24.4196517857143 9.88433035714297  Z M 11.5803883928571 9.88433035714297  C 11.1102991071429 9.41295535714289  10.3471071428571 9.41191071428602  9.8757723214286 9.88199999999961  C 9.40439732142852 10.3520892857141  9.40335267857142 11.1152410714285  9.87340178571424 11.5866160714286  L 24.4196517857143 26.1726428571428  C 24.8897008928571 26.6440178571429  25.6528928571429 26.6450624999998  26.1242276785714 26.1750133928572  C 26.5956026785714 25.7049241071427  26.5966473214286 24.9417321428573  26.1265982142858 24.4703571428572  L 18.7880015358842 17.1116930390008  L 11.5803482142857 9.88433035714297  Z " fill-rule="nonzero" fill="#fbf9f9" stroke="none" transform="matrix(1 0 0 1 758 1441 )" />
  </g>
</svg>