<?xml version="1.0" encoding="utf-8"?>
<svg version="1.1" xmlns:xlink="http://www.w3.org/1999/xlink" width="13px" height="44px" xmlns="http://www.w3.org/2000/svg">
  <g transform="matrix(1 0 0 1 -759 -1035 )">
    <path d="M 12.6239859107143 43.7767630616438  L 12.6239859107143 43.7053272534247  L 12.6239859107143 0.0580415753424668  L 5.87407406547619 0.0580415753424668  L 4.99365076785714 1.7725012739726  C 4.55343911904762 2.70116693150685  4.039858875 3.70126839726028  3.59964730357143 4.7013698630137  C 3.23280425 5.48716390410959  2.93932986904762 6.3443936780822  2.57248673809524 7.20162352739726  L 2.13227516666667 8.48746830136986  C 0.958377488095241 11.9878234315069  0.151322785714286 15.9167934863014  0.151322785714286 19.9886352328767  C 0.151322785714286 22.7031963972603  0.298059976190477 25.3463216780822  0.591534357142859 27.9180111506849  C 0.73827154761905 29.3467275410959  0.958377410714288 30.7040081232877  1.17848327380953 31.9898528972603  C 1.25185186904762 32.2755962054795  1.25185186904762 32.489903630137  1.32522046428572 32.7756468630137  C 1.39858905952381 33.2042617876712  1.54532625 33.7043125205479  1.61869492261905 34.1329274452055  C 1.69206351785715 34.4186707534247  1.76543211309524 34.7044139863014  1.83880070833334 35.0615931027397  C 1.98553789880953 35.5616438356164  2.05890649404763 36.0616945684932  2.20564376190477 36.4903094931507  C 2.27901235714286 36.7046169178082  2.35238095238096 36.9903602260274  2.42574954761905 37.2046676506849  C 2.57248673809525 37.6332825753425  2.71922400595239 38.1333333082192  2.86596119642858 38.5619482328767  L 3.3061728452381 39.8477930068493  C 3.52627863095239 40.4907153561644  3.81975308928573 41.0622019726027  4.03985887500001 41.6336885136986  C 4.40670192857144 42.4194825547945  4.77354490476191 43.1338407123288  5.14038803571429 43.7767630616438  L 12.6239859107143 43.7767630616438  Z " fill-rule="nonzero" fill="#fdb813" stroke="none" transform="matrix(1 0 0 1 759 1035 )" />
  </g>
</svg>