<?xml version="1.0" encoding="utf-8"?>
<svg version="1.1" xmlns:xlink="http://www.w3.org/1999/xlink" width="25px" height="54px" xmlns="http://www.w3.org/2000/svg">
  <g transform="matrix(1 0 0 1 -759 -1026 )">
    <path d="M 23.7082204268293 41.8382022134831  C 23.9250225609756 40.5438201657303  24.1418247713415 39.1775280926966  24.286359527439 37.7393258426966  C 24.1418247713415 39.1775280926966  23.9250225609756 40.543820241573  23.7082204268293 41.8382022134831  Z M 2.53387530487805 16.9573033567416  L 2.10027103658537 18.2516854044944  L 2.53387530487805 16.9573033567416  Z M 2.89521227134146 48.3820224775281  C 3.03974702743903 48.885393261236  3.1842818597561 49.3168539438202  3.32881661585366 49.6764045252809  L 2.89521227134146 48.3820224775281  Z M 21.3956639481707 14.4404494382022  C 20.9620596036585 13.4337078707865  20.4561878810976 12.4269663033708  20.0225835365854 11.4921348370787  C 20.4561878810976 12.4269663033708  20.9620596036585 13.4337078707865  21.3956639481707 14.4404494382022  Z M 22.0460704268293 48.4539325786517  C 22.1906051829268 47.9505617949438  22.3351400152439 47.5191011123596  22.4796747713415 47.0876404297753  C 22.3351400152439 47.5191011123596  22.1906051829268 48.0224718960674  22.0460704268293 48.4539325786517  Z M 0.654923246951217 37.7393258426966  C 0.799458003048778 39.1775280926966  1.01626021341463 40.543820241573  1.23306234756097 41.8382022134831  C 1.01626021341463 40.5438201657303  0.799458003048778 39.1775280926966  0.654923246951217 37.7393258426966  Z M 1.37759710365854 42.6292134775281  C 1.44986448170732 43.0606741601124  1.59439923780488 43.5640449438202  1.66666669207317 43.9955056264045  C 1.59439931402439 43.5640449438202  1.44986455792683 43.0606741601124  1.37759710365854 42.6292134775281  Z M 5.78590785060976 9.76629210674157  C 5.93044260670732 9.47865162640449  6.14724481707317 9.11910112078652  6.29177957317073 8.83146064044944  C 6.14724481707317 9.11910112078652  5.93044260670732 9.47865162640449  5.78590785060976 9.76629210674157  Z M 12.4345076981707 0.130337115168539  C 12.4345076981707 0.130337115168539  12.9403794207317 0.705618  13.7353206554878 1.71235956741573  C 12.9403793445122 0.705618  12.4345076219512 0.130337115168539  12.4345076981707 0.130337115168539  C 12.4345077743902 0.130337115168539  11.9286359756098 0.705618  11.1336946646341 1.71235956741573  C 11.9286359756098 0.705618  12.4345076981707 0.130337115168539  12.4345076981707 0.130337115168539  Z M 22.4074073932927 16.9573033567416  C 22.0460704268293 16.094381991573  21.7570009146341 15.2314606264045  21.3956639481707 14.4404494382022  C 21.7570009146341 15.2314607022472  22.0460704268293 16.094381991573  22.4074073932927 16.9573033567416  Z M 4.91869916158537 11.4921348370787  L 5.78590785060976 9.76629210674157  L 4.91869916158537 11.4921348370787  Z M 0.149051524390244 29.829213505618  C 0.149051524390244 25.7303371348315  0.943992835365852 21.7752808904494  2.10027103658537 18.2516854044944  C 0.943992835365856 21.7752808904494  0.149051524390244 25.7303370589888  0.149051524390244 29.829213505618  C 0.149051524390244 32.5617978033708  0.293586280487805 35.2224719241573  0.582655792682928 37.8112359438202  C 0.293586204268294 35.2943820252809  0.149051448170732 32.6337078286517  0.149051524390244 29.829213505618  Z M 22.7687443597561 18.2516854044944  C 22.6964769817073 17.8202247219101  22.5519422256098 17.3887640393258  22.3351400152439 16.9573033567416  L 22.7687443597561 18.2516854044944  Z M 19.805781402439 53.7033707949438  L 12.4345076981707 53.7033707949438  L 5.20776875 53.7033707949438  C 4.84643178353658 53.0561798089888  4.48509489329268 52.2651685449438  4.12375792682927 51.5460673820225  C 4.48509489329268 52.3370786460674  4.84643178353658 53.0561797331461  5.20776875 53  L 19.805781402439 53  C 20.1671183689024 53.0561798089888  20.5284552591463 52.2651685449438  20.8897922256098 51.5460673820225  C 20.5284552591463 52.3370786460674  20.1671183689024 53.0561797331461  19.805781402439 53.7033707949438  Z M 19.1553749237805 9.76629210674157  L 20.0225835365854 11.4921348370787  L 19.1553749237805 9.76629210674157  Z M 22.7687443597561 18.2516854044944  C 23.9972900152439 21.7752808904494  24.7199638719512 25.7303370589888  24.7199638719512 29.829213505618  C 24.7199638719512 25.7303371348315  23.9250225609756 21.8471910674157  22.7687443597561 18.2516854044944  Z M 18.0713640243902 7.82471907303371  C 18.3604336128049 8.47191005898877  18.7940378810976 9.11910112078652  19.1553749237805 9.76629210674157  L 18.0713640243902 7.82471907303371  Z M 1.88346882621951 44.9303370926966  C 2.02800358231707 45.4337078764045  2.10027096036585 45.8651685589888  2.24480579268293 46.3685393426966  C 2.10027103658536 45.8651685589888  1.95573620426829 45.4337078764045  1.88346882621951 44.9303370926966  Z M 1.66666669207317 43.9955056264045  C 1.73893407012195 44.2831461067416  1.81120144817073 44.6426966123595  1.88346882621951 44.9303370926966  C 1.81120144817073 44.6426966123595  1.73893407012195 44.3550562078652  1.66666669207317 43.9955056264045  Z " fill-rule="nonzero" fill="#fdb813" stroke="none" transform="matrix(1 0 0 1 759 1026 )" />
  </g>
</svg>