<?xml version="1.0" encoding="utf-8"?>
<svg version="1.1" xmlns:xlink="http://www.w3.org/1999/xlink" width="13px" height="44px" xmlns="http://www.w3.org/2000/svg">
  <g transform="matrix(1 0 0 1 -771 -1035 )">
    <path d="M 12.78906525 19.9171994246576  C 12.7156966547619 15.9167935616439  11.982010547619 11.9878235068493  10.8081128690476 8.48746830136986  L 10.3679012202381 7.20162352739726  C 10.0744267619048 6.34439367808219  9.70758378571429 5.48716382876712  9.34074073214285 4.7013698630137  C 8.90052908333333 3.70126839726028  8.4603174345238 2.70116693150685  7.94673719047619 1.7725012739726  L 7.06631397023809 0.0580415753424668  L 0.316402124999995 0.0580415753424668  L 0.316402124999995 43.7053272534247  L 7.72663140476191 43.7053272534247  C 8.09347445833333 43.0624049041096  8.46031743452381 42.2766108630137  8.82716048809524 41.562252630137  C 9.26737213690476 40.6335869726028  9.63421519047619 39.5620496986301  10.0744268392857 38.4905124246575  C 10.2211640297619 38.0618975  10.367901297619 37.6332825753425  10.5146384107143 37.1332318424658  C 10.5880070059524 36.9189244178082  10.6613756011905 36.7046169178082  10.7347442738095 36.4188736849315  C 10.8814814642857 35.9188229520548  11.0282187321429 35.4902080273973  11.1015873273809 34.9901572945206  C 11.3216931130952 34.2757991369863  11.4684303809524 33.4900050958904  11.6151675714286 32.7042110547945  C 11.6885361666667 32.4184677465754  11.6885361666667 32.2041603219178  11.7619047619048 31.9184170136987  C 11.982010547619 30.632572239726  12.2021164107143 29.2752917328767  12.3488536011905 27.8465753424658  C 12.6423280595238 25.3463216780822  12.78906525 22.7031963219178  12.78906525 19.9171994246576  Z " fill-rule="nonzero" fill="#fd9b13" stroke="none" transform="matrix(1 0 0 1 771 1035 )" />
  </g>
</svg>