<?xml version="1.0" encoding="utf-8"?>
<svg version="1.1" xmlns:xlink="http://www.w3.org/1999/xlink" width="15px" height="15px" xmlns="http://www.w3.org/2000/svg">
  <g transform="matrix(1 0 0 1 -572 -747 )">
    <path d="M 15 7.5274725206044  C 15 11.6593406456044  11.6593406662088 15  7.5274725206044 15  C 3.3956043956044 15  0.0549450618131866 11.6593406662088  0.0549450618131866 7.5274725206044  C 0.0549450618131866 3.395604375  3.3956043956044 0.0549450618131866  7.5274725206044 0.0549450618131866  C 11.6593406456044 0.0549450618131866  15 3.3956043956044  15 7.5274725206044  Z M 0.934065927197802 7.5274725206044  C 0.934065927197802 11.1318681181319  3.92307692307692 14.120879114011  7.5274725206044 14.120879114011  C 11.1318681181319 14.120879114011  14.120879114011 11.1318681181319  14.120879114011 7.5274725206044  C 14.120879114011 3.92307692307693  11.1318681387363 0.934065927197802  7.5274725206044 0.934065927197802  C 3.92307690247253 0.934065927197802  0.934065927197802 3.92307692307692  0.934065927197802 7.5274725206044  Z M 7.08791208791209 10.6043956112637  L 7.9670329739011 10.6043956112637  L 7.9670329739011 11.4835164766484  L 7.08791208791209 11.4835164766484  L 7.08791208791209 10.6043956112637  Z M 7.08791208791209 3.57142856456044  L 7.9670329739011 3.57142856456044  L 7.9670329739011 9.72527472527473  L 7.08791208791209 9.72527472527473  L 7.08791208791209 3.57142856456044  Z " fill-rule="nonzero" fill="#e33e28" stroke="none" transform="matrix(1 0 0 1 572 747 )" />
  </g>
</svg>