<?xml version="1.0" encoding="utf-8"?>
<svg version="1.1" xmlns:xlink="http://www.w3.org/1999/xlink" width="27px" height="24px" xmlns="http://www.w3.org/2000/svg">
  <g transform="matrix(1 0 0 1 -520 -199 )">
    <path d="M 533.5 199  C 541.06 199  547 204.28  547 211  C 547 217.72  541.06 223  533.5 223  C 525.94 223  520 217.72  520 211  C 520 204.28  525.94 199  533.5 199  Z " fill-rule="nonzero" fill="#ffbf60" stroke="none" />
    <path d="M 533.5 199.5  C 540.78 199.5  546.5 204.56  546.5 211  C 546.5 217.44  540.78 222.5  533.5 222.5  C 526.22 222.5  520.5 217.44  520.5 211  C 520.5 204.56  526.22 199.5  533.5 199.5  Z " stroke-width="1" stroke="#ffffff" fill="none" />
  </g>
</svg>