<?xml version="1.0" encoding="utf-8"?>
<svg version="1.1" xmlns:xlink="http://www.w3.org/1999/xlink" width="102px" height="118px" xmlns="http://www.w3.org/2000/svg">
  <g transform="matrix(1 0 0 1 -1450 -599 )">
    <path d="M 101 24.333333375  C 101.333320798584 23.2796263538306  100.712837415051 22.3247350760657  99.75 21.896666625  L 51.75 0.563333375000003  C 51.0603226018809 0.256709274820681  50.2730107731191 0.256709274820678  49.583333375 0.563333375000003  L 1.583333375 21.896666625  C 0.620495959949007 22.3247350760657  1.25764163705355E-05 23.2796263538306  0 24.333333375  L 0 51.56  C 0 79.043333375  16.171666625 103.9375  41.2 114.976666625  C 45.299166625 116.785  48.395833375 117.664166625  50.666666625 117.664166625  C 52.937499875 117.664166625  56.034166625 116.785  60.133333375 114.976666625  C 85.16166675 103.935  101.333333375 79.04083325  101 51.56  L 101 24.333333375  Z M 74.6669710911066 45.6666666875  C 74.6669710911066 46.3739913834726  74.3859874557349 47.0523459026891  73.885833375 47.5525  L 47.219166625 74.219166625  C 46.7190521322365 74.7193953216801  46.040682769879 75.0004304796737  45.3333333125 75.0004304796737  C 44.625983855121 75.0004304796737  43.9476144927635 74.7193953216801  43.4475 74.219166625  L 27.4475 58.219166625  C 26.9473459084363 57.7190125334363  26.6663622655875 57.0406580120658  26.6663622655875 56.3333333125  C 26.6663622655875 54.86040587505  27.86040587505 53.6663622655875  29.3333333125 53.6663622655875  C 30.0406580120658 53.6663622655875  30.7190125334363 53.9473459084363  31.219166625 54.4475  L 45.333333375 68.5625  L 70.114166625 43.780833375  C 70.6143207273925 43.2806792560314  71.2926752733989 42.9996955963933  72 42.9996955963933  C 73.4729274618578 42.9996955963933  74.6669710911066 44.1937392256422  74.6669710911066 45.6666666875  Z " fill-rule="nonzero" fill="#5abb75" stroke="none" transform="matrix(1 0 0 1 1450 599 )" />
  </g>
</svg>