<?xml version="1.0" encoding="utf-8"?>
<svg version="1.1" xmlns:xlink="http://www.w3.org/1999/xlink" width="19px" height="20px" xmlns="http://www.w3.org/2000/svg">
  <g transform="matrix(1 0 0 1 -154 -3 )">
    <path d="M 19 18.135593220339  C 18.9428716601448 19.1336223553155  18.1405227082378 19.9424130026438  17.1504424778761 20  L 1.2330383550885 20  C 0.614246194427918 19.9428022808047  0.112789357370416 19.4373194839712  0.112094388274336 18.8135593220339  L 0.112094388274336 1.1864406779661  C 0.112789357370416 0.56268051602879  0.614246194427919 0.0571977191952831  1.2330383550885 0  L 16.0294985320796 0  C 16.6482906845323 0.057197730868387  17.1497475088022 0.562680524289472  17 1.1864406779661  L 17 16.7796610169491  C 17.1504424778761 16.7796610169491  17.1504424778761 16.7796610169491  17.1504424778761 16.7796610169491  C 17.1504424778761 17.0292812448115  16.949696995406 17.2316384216102  16.7020648932522 17.2316384216102  C 16.4544327910985 17.2316384216102  16.2536873086283 17.0292812448115  16 16.7796610169492  L 16 1.1864406779661  C 16.2536873086283 1.06163056938349  16.1533145778505 0.960451982039931  16.0294985320796 1  L 1.2330383550885 1  C 1.10922230110969 0.960451970338983  1.00884955752212 1.06163056110967  1 1.1864406779661  L 1 18.8135593220339  C 1.00884955752213 18.9383694388903  1.10922230110969 19.039548029661  1.2330383550885 19  L 17.1504424778761 19  C 17.6454826036562 19.0390031337367  18.0466570910786 18.6346077985116  18 18.135593220339  L 18 4.12429379237288  C 18.0471976471239 4.12429379237288  18.0471976471239 4.12429379237288  18.0471976471239 4.12429379237288  C 18.0471976471239 3.87467357036097  18.2479431248891 3.67231639830508  18.4955752212389 3.67231639830508  C 18.7432073175888 3.67231639830508  18.943952795354 3.87467357036097  18.943952795354 4.12429379237288  C 18.943952795354 4.12429379237288  18.943952795354 4.12429379237288  19 4.12429379237288  L 19 18.135593220339  Z M 13.5634218219027 15.8757062076271  C 13.5634218219027 15.6260859856152  13.3626763441375 15.4237288135593  13.1150442477876 15.4237288135593  L 4.14749261836283 15.4237288135593  C 3.89986051620909 15.4237288135593  3.69911503373894 15.626085990358  3.69911503373894 15.8757062182203  C 3.69911503373894 16.1253264460827  3.89986051620909 16.3276836228814  4.14749261836283 16.3276836228814  L 13.1150442477876 16.3276836228814  C 13.3626763441375 16.3276836228814  13.5634218219027 16.1253264508255  13.5634218219027 15.8757062288136  Z M 13.5634218219027 12.2598869915254  C 13.5634218219027 12.0102667695135  13.3626763441375 11.8079095974576  13.1150442477876 11.8079095974576  L 4.14749261836283 11.8079095974576  C 3.89986051620909 11.8079095974576  3.69911503373894 12.0102667742563  3.69911503373894 12.2598870021186  C 3.69911503373894 12.509507229981  3.89986051620909 12.7118644067797  4.14749261836283 12.7118644067797  L 13.1150442477876 12.7118644067797  C 13.3626763441375 12.7118644067797  13.5634218219027 12.5095072347238  13.5634218219027 12.2598870127119  Z M 13.5634218219027 7.74011298728814  C 13.5634218219027 7.49049276527623  13.3626763441375 7.28813559322034  13.1150442477876 7.28813559322034  L 10.4247787610619 7.28813559322034  C 10.1771466589082 7.28813559322034  9.97640117643805 7.49049277001898  9.97640117643805 7.74011299788136  C 9.97640117643805 7.98973322574374  10.1771466589082 8.19209040254237  10.4247787610619 8.19209040254237  L 13.1150442477876 8.19209040254237  C 13.3626763441375 8.19209040254238  13.5634218219027 7.98973323048649  13.5634218219027 7.74011300847458  Z M 13.5634218219027 4.12429377118644  C 13.5634218219027 3.87467354917454  13.3626763441375 3.67231637711865  13.1150442477876 3.67231637711865  L 10.4247787610619 3.67231637711865  C 10.1771466589082 3.67231637711865  9.97640117643805 3.87467355391728  9.97640117643805 4.12429378177966  C 9.97640117643805 4.37391400964204  10.1771466589082 4.57627118644068  10.4247787610619 4.57627118644068  L 13.1150442477876 4.57627118644068  C 13.3626763441375 4.57627118644068  13.5634218219027 4.37391401438479  13.5634218219027 4.12429379237288  Z M 7.8828982300885 9.07062146186441  C 8.06261582314087 9.00708877369287  8.18290938374406 8.83604570116061  8.18289084845133 8.64406779661017  L 8.18289084845133 4.12429379237288  C 8.18289084845133 3.87467357036097  7.98214537068615 3.67231639830508  7.73451327433628 3.67231639830508  C 7.48688117798642 3.67231639830508  7.28613570022124 3.87467357036097  7.28613570022124 4.12429379237288  L 7.28613570022124 7.35564972457627  L 4.49778761061947 3.84180790254237  C 4.41270305627336 3.73446394658922  4.28379834820428 3.67196286266466  4.14749248119669 3.67196286266466  C 3.89986038484682 3.67196286266466  3.69911490708164 3.87432003472055  3.69911490708164 4.12394025673246  L 3.69911504424779 8.64406779661017  C 3.69911504424779 8.89368802447255  3.89986052671794 9.09604520127118  4.14749262887168 9.09604520127118  C 4.39512473102542 9.09604520127118  4.59587021349558 8.89368802447255  4.59587021349558 8.64406779661017  L 4.59587021349558 5.41271186440678  L 7.38421828207965 8.92655366525424  C 7.50315839860014 9.07646209309857  7.70305961724012 9.13428608794476  7.88275810508849 9.07076271186441  Z " fill-rule="nonzero" fill="#5c5c66" stroke="none" transform="matrix(1 0 0 1 154 3 )" />
  </g>
</svg>