<?xml version="1.0" encoding="utf-8"?>
<svg version="1.1" xmlns:xlink="http://www.w3.org/1999/xlink" width="17px" height="18px" xmlns="http://www.w3.org/2000/svg">
  <g transform="matrix(1 0 0 1 -544 -5 )">
    <path d="M 17 16.3220338983051  C 16.9488851696033 17.220260119784  16.2309940021075 17.9481717023794  15.3451327433628 18  L 1.10324484402655 18  C 0.54958870027761 17.9485220527242  0.100916793436688 17.4935875355741  0.100294978982301 16.9322033898305  L 0.100294978982301 1.06779661016949  C 0.100916793436688 0.506412464425911  0.549588700277612 0.0514779472757548  1.10324484402655 0  L 14.3421828971239 0  C 14.8958390335289 0.0514779577815483  15.3445109289283 0.506412471860525  15.3451327433628 1.06779661016949  L 15.3451327433628 15.1016949152542  C 15.3451327433628 15.3263531203304  15.1655183643106 15.5084745794491  14.9439527992257 15.5084745794491  C 14.7223872341407 15.5084745794491  14.5427728550885 15.3263531203304  14.5427728550885 15.1016949152542  L 14.5427728550885 1.06779661016949  C 14.5427728550885 0.955467512445145  14.4529656749189 0.864406783835938  14.3421828971239 1  L 1.10324484402655 1  C 0.992462058887614 0.864406773305085  0.902654867256637 0.955467504998707  1 1.06779661016949  L 1 16.9322033898305  C 0.902654867256638 17.0445324950013  0.992462058887614 17.1355932266949  1.10324484402655 17  L 15.3451327433628 17  C 15.7880633822187 17.135102820363  16.1470089762282 16.7711470186605  16 16.3220338983051  L 16 3.71186441313559  C 16.1474926316372 3.71186441313559  16.1474926316372 3.71186441313559  16.1474926316372 3.71186441313559  C 16.1474926316372 3.48720621332488  16.3271070064797 3.30508475847458  16.5486725663717 3.30508475847458  C 16.7702381262637 3.30508475847458  16.9498525011062 3.48720621332488  16.9498525011062 3.71186441313559  C 16.9498525011062 3.71186441313559  16.9498525011062 3.71186441313559  17 3.71186441313559  L 17 16.3220338983051  Z M 12.1356932090708 14.2881355868644  C 12.1356932090708 14.0634773870537  11.9560788342283 13.8813559322034  11.7345132743363 13.8813559322034  L 3.71091444800885 13.8813559322034  C 3.48934888292392 13.8813559322034  3.30973450387168 14.0634773913222  3.30973450387168 14.2881355963983  C 3.30973450387168 14.5127938014744  3.48934888292392 14.6949152605932  3.71091444800885 14.6949152605932  L 11.7345132743363 14.6949152605932  C 11.9560788342283 14.6949152605932  12.1356932090708 14.5127938057429  12.1356932090708 14.2881356059322  Z M 12.1356932090708 11.0338982923729  C 12.1356932090708 10.8092400925622  11.9560788342283 10.6271186377119  11.7345132743363 10.6271186377119  L 3.71091444800885 10.6271186377119  C 3.48934888292392 10.6271186377119  3.30973450387168 10.8092400968306  3.30973450387168 11.0338983019068  C 3.30973450387168 11.2585565069829  3.48934888292392 11.4406779661017  3.71091444800885 11.4406779661017  L 11.7345132743363 11.4406779661017  C 11.9560788342283 11.4406779661017  12.1356932090708 11.2585565112514  12.1356932090708 11.0338983114407  Z M 12.1356932090708 6.96610168855932  C 12.1356932090708 6.74144348874861  11.9560788342283 6.55932203389831  11.7345132743363 6.55932203389831  L 9.32743362831858 6.55932203389831  C 9.10586806323366 6.55932203389831  8.92625368418142 6.74144349301708  8.92625368418142 6.96610169809322  C 8.92625368418142 7.19075990316936  9.10586806323366 7.37288136228814  9.32743362831858 7.37288136228814  L 11.7345132743363 7.37288136228814  C 11.9560788342283 7.37288136228814  12.1356932090708 7.19075990743784  12.1356932090708 6.96610170762712  Z M 12.1356932090708 3.7118643940678  C 12.1356932090708 3.48720619425708  11.9560788342283 3.30508473940678  11.7345132743363 3.30508473940678  L 9.32743362831858 3.30508473940678  C 9.10586806323366 3.30508473940678  8.92625368418142 3.48720619852555  8.92625368418142 3.7118644036017  C 8.92625368418142 3.93652260867784  9.10586806323366 4.11864406779661  9.32743362831858 4.11864406779661  L 11.7345132743363 4.11864406779661  C 11.9560788342283 4.11864406779661  12.1356932090708 3.93652261294631  12.1356932090708 3.71186441313559  Z M 7.05311946902655 8.16355931567797  C 7.21391942070499 8.10637989632358  7.32155050124469 7.95244113104455  7.3215339170354 7.77966101694915  L 7.3215339170354 3.71186441313559  C 7.3215339170354 3.48720621332488  7.14191954219287 3.30508475847458  6.92035398230089 3.30508475847458  C 6.6987884224089 3.30508475847458  6.51917404756637 3.48720621332488  6.51917404756637 3.71186441313559  L 6.51917404756637 6.62008475211864  L 4.02433628318584 3.45762711228814  C 3.94820799771827 3.3610175519303  3.83287220628804 3.30476657639819  3.71091432528125 3.30476657639819  C 3.48934876538926 3.30476657639819  3.30973439054673 3.48688803124849  3.30973439054673 3.71154623105921  L 3.30973451327434 7.77966101694915  C 3.30973451327434 8.00431922202529  3.48934889232658 8.18644068114407  3.7109144574115 8.18644068114407  C 3.93248002249643 8.18644068114407  4.11209440154867 8.00431922202529  4.11209440154867 7.77966101694915  L 4.11209440154867 4.8714406779661  L 6.60693214712389 8.03389829872881  C 6.71335225137907 8.16881588378871  6.892211236478 8.22085747915028  7.05299409402655 8.16368644067797  Z " fill-rule="nonzero" fill="#464646" stroke="none" transform="matrix(1 0 0 1 544 5 )" />
  </g>
</svg>