<?xml version="1.0" encoding="utf-8"?>
<svg version="1.1" xmlns:xlink="http://www.w3.org/1999/xlink" width="27px" height="27px" xmlns="http://www.w3.org/2000/svg">
  <g transform="matrix(1 0 0 1 -33 -53 )">
    <path d="M 26.7766666875 13.4241666679688  C 26.7766666523438 6.06750001171875  20.7833333203125 0.0808333242187502  13.4166666796875 0.0808333242187502  C 6.05000000390625 0.0808333242187502  0.056666671875 6.0674999765625  0.056666671875 13.4241666679688  C 0.056666671875 20.7808333242188  6.05000000390625 26.7675000117188  13.4166666796875 26.7675000117188  C 20.7833333554688 26.7675000117188  26.7766666875 20.780833359375  26.7766666875 13.4241666679688  Z M 25.4300000273438 13.4241666679688  C 25.4266666523437 20.0475  20.0400000117187 25.437500015625  13.4166666796875 25.437500015625  C 6.79333334765625 25.437500015625  1.40333333203125 20.0508333398438  1.40333333203125 13.4241666679688  C 1.40333333203125 6.8008333359375  6.79333334765625 1.4108333203125  13.4166666796875 1.4108333203125  C 20.0400000117188 1.4108333203125  25.4300000273438 6.8008333359375  25.4300000273438 13.4241666679688  Z M 21.2099999765625 13.3341666328125  C 21.2033333320312 13.2708333164063  21.1799999882812 13.2141666796875  21.1366666757812 13.1708333320312  L 15.5633333203125 7.594166671875  C 15.4266666679687 7.45750001953125  15.129999984375 7.527500015625  14.9033333320313 7.750833328125  C 14.6766666796875 7.97749998046875  14.6066666484375 8.27083332421875  14.7466666757813 8.41083331640625  L 19.1433333515625 13  L 6.23666668359375 13  C 5.8966666875 12.8074999921875  5.6200000078125 13.084166671875  5.6200000078125 13.4241666679687  C 5.6200000078125 13.7641666640625  5.8966666875 14.04083334375  6.23666668359375 14  L 19.1433333515625 14  L 14.7466666757812 18.437499984375  C 14.6100000234375 18.5741666367188  14.6800000195312 18.8708333203125  14.9033333320312 19.0974999726562  C 15.129999984375 19.324166625  15.423333328125 19.39416665625  15.5633333203125 19.2541666289062  L 21.1399999804687 13.67749996875  C 21.183333328125 13.6341666210937  21.2066666367187 13.577499984375  21.2099999765625 13.5108332929687  C 21.2133333164062 13.45083328125  21.2133333164062 13.394166609375  21.2099999765625 13.3341666328125  Z " fill-rule="nonzero" fill="#ffffff" stroke="none" transform="matrix(1 0 0 1 33 53 )" />
  </g>
</svg>