<?xml version="1.0" encoding="utf-8"?>
<svg version="1.1" xmlns:xlink="http://www.w3.org/1999/xlink" width="13px" height="8px" xmlns="http://www.w3.org/2000/svg">
  <g transform="matrix(1 0 0 1 -108 -63 )">
    <path d="M 12.6438356164384 1.93488372093023  C 13.1424657534247 1.41395348837209  13.0712328767123 0.744186046511628  12.7150684931507 0.297674418604651  C 12.5013698630137 0.0744186046511625  12.2164383561644 0  11.9315068493151 0  L 1.24657534246575 0.0744186046511625  C 0.961643835616438 0.0744186046511625  0.676712328767123 0.148837209302325  0.463013698630137 0.372093023255814  C 0.0356164383561649 0.81860465116279  0.0356164383561649 1.48837209302326  0.463013698630137 1.93488372093023  L 5.80547945205479 7.51627906976744  C 5.87671232876712 7.59069767441861  6.01917808219178 7.66511627906977  6.09041095890411 7.73953488372093  C 6.09041095890411 7.73953488372093  6.16164383561644 7.8139534883721  6.16164383561644 7.8139534883721  C 6.51780821917808 7.96279069767442  7.01643835616439 7.88837209302326  7.3013698630137 7.59069767441861  L 12.6438356164384 1.93488372093023  Z " fill-rule="nonzero" fill="#ffffff" stroke="none" transform="matrix(1 0 0 1 108 63 )" />
  </g>
</svg>