<?xml version="1.0" encoding="utf-8"?>
<svg version="1.1" xmlns:xlink="http://www.w3.org/1999/xlink" width="11px" height="14px" xmlns="http://www.w3.org/2000/svg">
  <g transform="matrix(1 0 0 1 -826 -2122 )">
    <path d="M 5.49082109156977 13.93217403125  C 5.01398479360465 13.93217403125  0.00354753197674409 8.42431909375  0.00354753197674409 5.462754046875  C 0.00354753197674409 2.501265015625  2.46007128924419 0.100191234375  5.49082109156977 0.100191234375  C 8.52157089389535 0.100191234375  10.9780946671512 2.500903921875  10.9780946671512 5.462754046875  C 10.9780946671512 8.424623171875  5.94327107703488 13.93217403125  5.49082109156977 13.93217403125  Z M 5.49082109156977 0.792158125  C 2.85130264534884 0.792158125  0.711606659883721 2.88350971875  0.711606659883721 5.462754046875  C 0.711606659883721 8.04266353125  5.35704633430233 13.240283171875  5.49082109156977 13.240283171875  C 5.55242865406977 13.240283171875  10.270113306686 8.04266353125  10.270113306686 5.462754046875  C 10.270113306686 2.88350971875  8.1304173372093 0.792158125  5.49082109156977 0.792158125  Z M 5.49082109156977 7.365615453125  C 4.41570301162791 7.365615453125  3.54370707848837 6.513513640625  3.54370707848837 5.46275403125  C 3.54370707848837 4.412070453125  4.41570301162791 3.559892609375  5.49082109156977 3.559892609375  C 6.56601695494186 3.559892609375  7.43793510465116 4.412070453125  7.43793510465116 5.46275403125  C 7.43793510465116 6.513513640625  6.56601697093023 7.365615453125  5.49082109156977 7.365615453125  Z M 5.49082109156977 4.2518595  C 4.80652597674419 4.2518595  4.25176622238372 4.794315171875  4.25176622238372 5.46275403125  C 4.25176622238372 6.131858078125  4.80652599273256 6.6736485625  5.49082109156977 6.6736485625  C 6.17517454796512 6.6736485625  6.72987596075581 6.1318580625  6.72987596075581 5.46275403125  C 6.72987596075581 4.794315171875  6.17517454796512 4.2518595  5.49082109156977 4.2518595  Z " fill-rule="nonzero" fill="#a6a6a6" stroke="none" transform="matrix(1 0 0 1 826 2122 )" />
  </g>
</svg>