<?xml version="1.0" encoding="utf-8"?>
<svg version="1.1" xmlns:xlink="http://www.w3.org/1999/xlink" width="15px" height="6px" xmlns="http://www.w3.org/2000/svg">
  <g transform="matrix(1 0 0 1 -425 -2175 )">
    <path d="M 14.2185 5.84659239130435  L 8.95179545454545 0.710005434782609  C 8.787 0.54929347826087  8.789625 0.29121195652174  8.95765909090909 0.133597826086957  C 9.12567613636364 -0.024032608695652  9.39548863636364 -0.0215217391304347  9.56026704545455 0.139190217391305  L 14.8269886363636 5.27576086956522  C 14.9917670454545 5.43648913043478  14.9891590909091 5.69455434782609  14.821125 5.8521847826087  C 14.6531079545455 6.00981521739131  14.3832954545455 6.00730434782609  14.2185 5.84659239130435  Z M 0.781534090909091 5.84657608695652  C 0.616738636363636 6.00728804347826  0.346926136363636 6.00978260869565  0.178909090909091 5.85216847826087  C 0.0108749999999998 5.69453804347826  0.00826704545454545 5.43647282608696  0.173045454545455 5.27574456521739  L 5.43975 0.139190217391304  C 5.60452840909091 -0.0215217391304356  5.87434090909091 -0.0240326086956529  6.04235795454545 0.133597826086956  C 6.21039204545455 0.291211956521738  6.21301704545455 0.549293478260869  6.04822159090909 0.710005434782607  L 0.7815 5.84657608695652  Z " fill-rule="nonzero" fill="#535353" stroke="none" transform="matrix(1 0 0 1 425 2175 )" />
  </g>
</svg>