<?xml version="1.0" encoding="utf-8"?>
<svg version="1.1" xmlns:xlink="http://www.w3.org/1999/xlink" width="15px" height="8px" xmlns="http://www.w3.org/2000/svg">
  <g transform="matrix(1 0 0 1 -425 -2169 )">
    <path d="M 5.9788125 7.19625454545455  L 0.173028409090909 0.881909090909091  C 0.00824999999999991 0.702690909090909  0.0108579545454546 0.414890909090909  0.178892045454545 0.239109090909091  C 0.346909090909091 0.0633454545454547  0.616721590909091 0.0661272727272727  0.781517045454545 0.245363636363636  L 6.58728409090909 6.55972727272727  C 7.08167045454546 7.0974  7.89107386363636 7.10578181818182  8.39514204545454 6.57845454545455  C 8.40105681818182 6.57227272727273  8.40690340909091 6.56601818181818  8.41269886363636 6.55972727272727  L 14.2184829545455 0.245363636363637  C 14.3832784090909 0.0661272727272738  14.6530909090909 0.0633454545454557  14.8211079545455 0.239109090909092  C 14.9891420454545 0.41489090909091  14.99175 0.702690909090911  14.8269715909091 0.881909090909092  L 9.0211875 7.19627272727273  C 9.01152115173092 7.20677970518793  9.00175932736666 7.21718625695102  8.99190340909091 7.22749090909091  C 8.15178409090909 8.10638181818182  6.80277272727273 8.0924  5.9788125 7.19625454545455  Z " fill-rule="nonzero" fill="#535353" stroke="none" transform="matrix(1 0 0 1 425 2169 )" />
  </g>
</svg>