<?xml version="1.0" encoding="utf-8"?>
<svg version="1.1" xmlns:xlink="http://www.w3.org/1999/xlink" width="13px" height="17px" xmlns="http://www.w3.org/2000/svg">
  <g transform="matrix(1 0 0 1 -424 -2131 )">
    <path d="M 2.20101085901163 0.921076184151786  C -0.381413953488372 2.85583808258929  -0.701314722383721 7.10098093973214  1.59571472238372 11.3801238158482  C 3.8405023255814 15.5611523872768  7.39778604651163 17.7824857142857  11.076 16.6420285714286  C 12.0321550450581 16.3457428571429  12.9496123968023 15.5252095301339  12.9496123968023 14.6010571428571  C 12.9499348837209 12.9946381015625  11.1192123968023 9.79572381584822  9.7480248125 9.5473618984375  C 9.36330543895349 9.47806665401786  8.89828837209302 9.61730475558036  8.20656744186046 9.91715238727679  C 8.13497674418604 9.9482381015625  8.0614511627907 9.98094285714286  7.98599069767442 10.0152666729911  L 7.81378604651163 10.0949238158482  C 7.6454511627907 10.1736095301339  7.50388216424419 10.2425809587054  7.26331162790698 10.3620666729911  L 7.15979534883721 10.4132285714286  L 7.15495813953488 10.4086952444196  C 7.11143006482313 10.3663298715436  7.06958257265963 10.3222575408653  7.02951318459302 10.2765809587054  C 6.83118760319768 10.0518571428571  6.59738915988372 9.72092381584822  6.36165581395349 9.33170475558036  L 6.29328992877907 9.21707618415179  C 5.97661395348837 8.67955236830358  5.69541085901163 8.10122857142857  5.51256434738372 7.6194  L 5.49547286191861 7.57309524441965  L 5.93243411482558 7.38528571428572  C 6.02272869476744 7.34642857142858  6.10883102034884 7.30789524441965  6.19912558139535 7.26741904129465  L 6.45388527761628 7.15181904129465  L 6.6499534883721 7.06018095870536  C 7.1465736497093 6.82412381584822  7.44132093023256 6.65315238727679  7.6070759752907 6.47214285714286  C 8.55420155668605 5.43692381584821  6.67671937354651 0.437952387276786  5.13622946366279 0.1497618984375  C 4.21973953488372 -0.0218571428571429  3.11234109156977 0.277019041294643  2.29098295203488 0.855666672991072  L 2.20068837209302 0.921076184151786  Z M 2.97238448982559 1.95920953013393  C 3.52834107267442 1.54246667299107  4.32712558139535 1.3158  4.8998511627907 1.42298095870536  C 5.09656434738372 1.45989524441964  5.66993488372093 2.349076203125  6.10044651162791 3.4953618984375  C 6.31554109156977 4.06753332700893  6.47839379215116 4.64488571428571  6.55449923110465 5.10048571428571  L 6.56739844331395 5.17949524441964  C 6.58804930703923 5.30801834833171  6.59925887261066 5.43789243996788  6.60093644040698 5.56806667299107  L 6.59900155668605 5.62764761272321  L 6.51773644040698 5.6746  L 6.47323411482558 5.69953332700893  C 6.33069767441861 5.77724761272322  6.14204651162791 5.87018093973214  5.91469767441861 5.97509524441964  L 5.54062016133721 6.1438  C 5.4084031133721 6.20208571428571  5.27489613662791 6.26037142857143  5.11139844331396 6.32999046986607  L 4.51803411482558 6.58353332700893  L 4.42967441860465 6.62498095870536  L 4.40000620784884 6.64084761272322  L 4.38323720930233 6.62400953013393  C 4.34776434738372 6.59972381584822  4.31712867587209 6.68650477455357  4.08107286191861 7.35970475558036  C 4.47288681540698 9.04480951116072  6.12817983866279 11.7793809397321  7.14463876598837 11.781  L 7.27008372093023 11.7670761841518  C 7.29684960610465 11.7638380825893  7.31200620784884 11.760923796875  7.32587286191861 11.7570381015625  L 7.41165271947674 11.7262761841518  L 7.48550076889535 11.6942190412946  L 7.75154728052326 11.5646952444196  L 8.20398760319767 11.3422381015625  C 8.27364341715117 11.3088857142857  8.33942946366279 11.277476203125  8.41295504505814 11.2434761841518  L 8.61934262936047 11.1495714285714  L 8.71802169912791 11.1061809587054  C 8.91480201784651 11.0183452836581  9.11634847235497 10.9416971537758  9.32170542005814 10.8766  L 9.39361860465117 10.8565238158482  C 9.48068837209303 10.8332095301339  9.53228527761628 10.8244666729911  9.51938604651163 10.8222  C 10.1643472805233 10.9387714285714  11.6600123968023 13.5519142857143  11.6596899287791 14.6010571428571  C 11.6596899287791 14.8212476127232  11.1733891598837 15.2564476127232  10.6954728619186 15.4047523872768  C 7.7093023255814 16.3305238158482  4.71539223546512 14.4611714285714  2.73116899854652 10.7652095301339  C 0.707925581395353 6.9970381015625  0.975262021802329 3.45553334598214  2.97238448982559 1.95920953013393  Z " fill-rule="nonzero" fill="#666666" stroke="none" transform="matrix(1 0 0 1 424 2131 )" />
  </g>
</svg>