<?xml version="1.0" encoding="utf-8"?>
<svg version="1.1" xmlns:xlink="http://www.w3.org/1999/xlink" width="22px" height="21px" xmlns="http://www.w3.org/2000/svg">
  <g transform="matrix(1 0 0 1 -292 -1661 )">
    <path d="M 18.0437964520044 17.0479466700213  C 18.0437964520044 17.0479466700213  18.0437964520044 17.0479466700213  18.0437964520044 17  L 3.60875928652428 17  C 3.60875928652428 17.0479466700213  3.60875928652428 17.0479466700213  3.60875928652428 17.0479466700213  C 1.61569656676666 17.0479466700213  0 15.3727377688988  0 13.3062628643225  L 0 3.9520533299787  C 0 1.88557842540243  1.61569656676666 0.210369524279937  3.60875928652428 0.210369524279937  L 8.11970840437112 0.210369524279937  C 9.15958125893347 0.213267779108458  10.147066456373 0.683901212198493  10.8262778789558 1.50031502120829  C 11.5053423248304 0.683698673277617  12.4929219205486 0.213020246789592  13.5328473341575 0.210369524279937  L 18.0437964520044 0.210369524279937  C 20.036859171762 0.210369524279937  21.6525557385287 1.88557842540243  21.6525557385287 3.9520533299787  L 21.6525557385287 13.3062628643225  C 21.6525557385287 15.3727377688988  20.036859171762 17.0479466700213  18.0437964520044 17.0479466700213  Z M 10 15.1771047671719  L 10 4.88747429145186  C 9.92408804763326 3.33761810747004  8.71231561821923 2.08121142712932  7.21751857304856 2.08121142712932  L 4.51094911784684 2.08121142712932  C 3.01615207267617 2.08121142712932  1.80437964326214 3.33761810747004  1.80437964326214 4.88747429145186  L 1.80437964326214 12.3708419028494  C 1.80437964326214 13.9206980868312  3.01615207267617 15.1771047671719  4.51094911784684 15.1771047671719  L 10 15.1771047671719  Z M 19.8481760952665 12.3708419028494  L 19.8481760952665 4.88747429145186  C 19.8481760952665 3.33761810747004  18.6364036658525 2.08121142712932  17.1416066206818 2.08121142712932  L 14.4350371654801 2.08121142712932  C 12.9402401203094 2.08121142712932  11.7284676908954 3.33761810747004  11.7284676908954 4.88747429145186  L 11.7284676908954 15.1771047671719  L 17.1416066206818 15.1771047671719  C 18.6364036658525 15.1771047671719  19.8481760952665 13.9206980868312  19.8481760952665 12.3708419028494  Z M 3.60875928652428 11.4354209614732  L 3.60875928652428 9.56457903852684  L 8.11970840437112 9.56457903852684  L 8.11970840437112 11.4354209614732  L 3.60875928652428 11.4354209614732  Z M 3.60875928652428 6.75831619430124  L 3.60875928652428 4.88747429145186  L 8.11970840437112 4.88747429145186  L 8.11970840437112 6.75831619430124  L 3.60875928652428 6.75831619430124  Z M 19.8481760952665 19  L 19.8481760952665 20.7896304757201  L 1.80437964326214 20.7896304757201  L 1.80437964326214 19  L 19.8481760952665 19  Z " fill-rule="nonzero" fill="#5e5e5e" stroke="none" transform="matrix(1 0 0 1 292 1661 )" />
  </g>
</svg>