<?xml version="1.0" encoding="utf-8"?>
<svg version="1.1" xmlns:xlink="http://www.w3.org/1999/xlink" width="18px" height="18px" xmlns="http://www.w3.org/2000/svg">
  <g transform="matrix(1 0 0 1 -1624 -1019 )">
    <path d="M 1.28571428571429 9  C 1.28571428571429 4.74107142857143  4.74107142857143 1.28571428571429  9 1.28571428571429  C 13.2589285714286 1.28571428571429  16.7142857142857 4.74107142857143  16.7142857142857 9  C 16.7142857142857 13.2589285714286  13.2589285714286 16.7142857142857  9 16.7142857142857  C 4.74107142857143 16.7142857142857  1.28571428571429 13.2589285714286  1.28571428571429 9  Z M 18 9  C 18 4.03392857142857  13.9660714285714 0  9 0  C 4.03392857142857 0  0 4.03392857142857  0 9  C 0 13.9660714285714  4.03392857142857 18  9 18  C 13.9660714285714 18  18 13.9660714285714  18 9  Z M 12.1982142857143 9  L 6.71785714285714 3.53571428571429  L 5.80178571428571 4.45178571428572  L 10.3660714285714 9  L 5.81785714285714 13.5482142857143  L 6.73392857142857 14.4642857142857  L 12.1982142857143 9  Z " fill-rule="nonzero" fill="#266ab9" stroke="none" transform="matrix(1 0 0 1 1624 1019 )" />
  </g>
</svg>