<?xml version="1.0" encoding="utf-8"?>
<svg version="1.1" xmlns:xlink="http://www.w3.org/1999/xlink" width="27px" height="31px" xmlns="http://www.w3.org/2000/svg">
  <defs>
    <linearGradient gradientUnits="userSpaceOnUse" x1="13.5" y1="0" x2="13.5" y2="31" id="LinearGradient309">
      <stop id="Stop310" stop-color="#30a3f6" offset="0" />
      <stop id="Stop311" stop-color="#61e9f2" offset="1" />
    </linearGradient>
  </defs>
  <g transform="matrix(1 0 0 1 -323 -905 )">
    <path d="M 27 1.95133928571429  C 26.9862244897959 0.882254464285714  26.1218112244898 0.0172991071428571  25.0576530612245 0  L 1.94234693877551 0  C 0.878188775510204 0.0172991071428571  0.017219387755102 0.882254464285714  0 1.95133928571429  L 0 29.0452008928571  C 0.017219387755102 30.1142857142857  0.878188775510204 30.9792410714286  1.94234693877551 31  L 25.0576530612245 31  C 26.1218112244898 30.9792410714286  26.9827806122449 30.1142857142857  27 29.0452008928571  L 27 1.95133928571429  Z M 6.0577806122449 21.7899553571429  C 6.0577806122449 22.5926339285714  5.41033163265306 23.2430803571429  4.61135204081633 23.2430803571429  C 3.81237244897959 23.2430803571429  3.16492346938776 22.5926339285714  3.16492346938776 21.7899553571429  C 3.16492346938776 20.9872767857143  3.81237244897959 20.3368303571429  4.61135204081633 20.3368303571429  C 5.41033163265306 20.3368303571429  6.0577806122449 20.9872767857143  6.0577806122449 21.7899553571429  Z M 6.0577806122449 15.5  C 6.0577806122449 16.3026785714286  5.41033163265306 16.953125  4.61135204081633 16.953125  C 3.81237244897959 16.953125  3.16492346938776 16.3026785714286  3.16492346938776 15.5  C 3.16492346938776 14.6973214285714  3.81237244897959 14.046875  4.61135204081633 14.046875  C 5.41033163265306 14.046875  6.0577806122449 14.6973214285714  6.0577806122449 15.5  Z M 6.0577806122449 9.21004464285714  C 6.0577806122449 10.0127232142857  5.41033163265306 10.6631696428571  4.61135204081633 10.6631696428571  C 3.81237244897959 10.6631696428571  3.16492346938776 10.0127232142857  3.16492346938776 9.21004464285714  C 3.16492346938776 8.40736607142857  3.81237244897959 7.75691964285714  4.61135204081633 7.75691964285714  C 5.41033163265306 7.75691964285714  6.0577806122449 8.40736607142857  6.0577806122449 9.21004464285714  Z M 24.5548469387755 21.7899553571429  C 24.5548469387755 22.1912946428571  24.2311224489796 22.5165178571429  23.8316326530612 22  L 8.90242346938776 22  C 8.50293367346939 22.5165178571429  8.17920918367347 22.1912946428571  8.17920918367347 21.7899553571429  C 8.17920918367347 21.3886160714286  8.50293367346939 21.0633928571429  8.90242346938776 21  L 23.8316326530612 21  C 24.2311224489796 21.0633928571429  24.5548469387755 21.3886160714286  24.5548469387755 21.7899553571429  Z M 24.5548469387755 15.5  C 24.5548469387755 15.9013392857143  24.2311224489796 16.2265625  23.8316326530612 16  L 8.90242346938776 16  C 8.50293367346939 16.2265625  8.17920918367347 15.9013392857143  8.17920918367347 15.5  C 8.17920918367347 15.0986607142857  8.50293367346939 14.7734375  8.90242346938776 15  L 23.8316326530612 15  C 24.2311224489796 14.7734375  24.5548469387755 15.0986607142857  24.5548469387755 15.5  Z M 24.5548469387755 9.21004464285714  C 24.5548469387755 9.61138392857143  24.2311224489796 9.93660714285714  23.8316326530612 10  L 8.90242346938776 10  C 8.50293367346939 9.93660714285714  8.17920918367347 9.61138392857143  8.17920918367347 9.21004464285714  C 8.17920918367347 8.80870535714286  8.50293367346939 8.48348214285714  8.90242346938776 9  L 23.8316326530612 9  C 24.2311224489796 8.48348214285714  24.5548469387755 8.80870535714286  24.5548469387755 9.21004464285714  Z " fill-rule="nonzero" fill="url(#LinearGradient309)" stroke="none" transform="matrix(1 0 0 1 323 905 )" />
  </g>
</svg>