<?xml version="1.0" encoding="utf-8"?>
<svg version="1.1" xmlns:xlink="http://www.w3.org/1999/xlink" width="65px" height="65px" xmlns="http://www.w3.org/2000/svg">
  <g transform="matrix(1 0 0 1 -304 -888 )">
    <path d="M 336.5 888  C 354.7 888  369 902.3  369 920.5  C 369 938.7  354.7 953  336.5 953  C 318.3 953  304 938.7  304 920.5  C 304 902.3  318.3 888  336.5 888  Z " fill-rule="nonzero" fill="#ffffff" stroke="none" />
    <path d="M 336.5 888.5  C 354.42 888.5  368.5 902.58  368.5 920.5  C 368.5 938.42  354.42 952.5  336.5 952.5  C 318.58 952.5  304.5 938.42  304.5 920.5  C 304.5 902.58  318.58 888.5  336.5 888.5  Z " stroke-width="1" stroke="#a6d3f4" fill="none" />
  </g>
</svg>