<?xml version="1.0" encoding="utf-8"?>
<svg version="1.1" xmlns:xlink="http://www.w3.org/1999/xlink" width="28px" height="31px" xmlns="http://www.w3.org/2000/svg">
  <defs>
    <linearGradient gradientUnits="userSpaceOnUse" x1="14" y1="0" x2="14" y2="31" id="LinearGradient312">
      <stop id="Stop313" stop-color="#30a3f6" offset="0" />
      <stop id="Stop314" stop-color="#61e9f2" offset="1" />
    </linearGradient>
  </defs>
  <g transform="matrix(1 0 0 1 -807 -905 )">
    <path d="M 3.38461538461538 0  L 23.0769230769231 0  C 24.889549941082 0  26.3589743461538 1.45141675304888  26 3.24183005269608  L 26 15.2933333333333  C 25.0734099820287 13.9662555305134  23.2954071596409 13.2145961216488  21.4358974230769 13.2120784313725  C 17.5762051153846 13.2120784313725  14.4713846153846 16.4085228884804  14.4713846153846 20.323032692402  C 14.4713846153846 21.4690196078431  14.7372307692308 22.5761046004902  15.2361025769231 23.5681045625  L 15.4330256538462 23.9328104448529  L 13.7263589615385 26.9768888762255  C 13.3323658150572 27.6826455388199  13.4143170229318 28.5544308496582  13.9331281923077 29  L 3.38461538461538 29  C 1.57198852045643 29.1764705882353  0.102564115384616 27.7250538351864  0.102564115384616 25.9346405355392  L 0.102564115384616 3.24183005269608  C 0.102564115384616 1.45141675304888  1.57198852045643 0  3.38461538461538 0  Z M 21.4358973252642 17.0747189669118  C 19.6232704611052 17.0747189669118  18.1538460560334 18.5261357199606  18.1538460560334 20.3165490196078  C 18.1538460560334 22.106962319255  19.6232704611052 23.5583790723039  21.4358973252642 23.5583790723039  C 23.2485241894231 23.5583790723039  24.7179485944949 22.106962319255  24.7179485944949 20.3165490196078  C 24.7179485944949 18.5261357199606  23.2485241894231 17.0747189669118  21.4358973252642 17.0747189669118  Z M 10.5755897307692 18.3163398566177  L 5.10276923076923 18.3163398566177  C 4.46834981875482 18.3163398566177  3.95405126923077 18.8243357278387  3.95405126923077 19.4509803921569  C 3.95405126923077 20.077625056475  4.46834981875482 20.5856209276961  5.10276923076923 20.5856209276961  L 10.5755897307692 20.5856209276961  C 11.2100091427836 20.5856209276961  11.7243076923077 20.077625056475  11.7243076923077 19.4509803921569  C 11.7243076923077 18.8243357278387  11.2100091427836 18.3163398566177  10.5755897307692 18.3163398566177  Z M 16.0203026522949 12.9673202677696  C 16.0203026522949 12.34075668177  15.5061322017573 11.8327944006193  14.8717948846154 11.8326797512255  L 5.10276923076923 11.8326797512255  C 4.46843191362735 11.8327944006193  3.95426146308969 12.34075668177  3.95426146308969 12.9673202677696  C 3.95426146308969 13.5938838537692  4.46843191362735 14.1018461349199  5.10276923076923 14.1019607843137  L 14.8717948846154 14.1019607843137  C 15.5061322017573 14.1018461349199  16.0203026522949 13.5938838537692  16.0203026522949 12.9673202677696  Z M 22.5844051907565 6.72355556188726  C 22.5844051907565 6.09699197588767  22.0702347402188 5.58902969473699  21.4358974230769 6  L 5.10276923076923 6  C 5.10269916615007 5.58891503267975  5.10262910153065 5.58891502634805  5.10255903691031 5.58891502634805  C 4.46813962489591 5.58891502634805  3.95384107537185 6.09691089756911  3.95384107537185 6.72355556188726  C 3.95384107537185 7.35020022620541  4.46813962489591 7.85819609742648  5.10255903691031 7.85819609742648  C 5.10262910153065 7.85819609742648  5.10269916615007 7.85819609109478  5.10276923076923 8  L 21.4358974230769 8  C 22.0702347402188 7.85808142903753  22.5844051907565 7.35011914788685  22.5844051907565 6.72355556188726  Z M 21.7099487307692 14.5947189669118  L 21.4358974230769 14.5882352941176  L 21.6787692307692 14.5930980392157  L 21.7099487307692 14.5947189669118  Z M 21.7230769230769 14.5963398566176  L 21.7247179615385 14.5963398566176  L 21.9183589615385 14.6093072022059  C 22.4270222935922 14.6547621172642  22.9265360454675 14.771560717905  23.4018461538462 14.9561829938726  L 23.4592820384615 14.9772549019608  C 23.7911624289181 15.110796284336  24.1088759943553 15.276393343328  24.4077948846154 15.4716339742647  L 24.5702564230769 15.5802352941176  C 25.0739743432518 15.9319685270622  25.5153458796003 16.363549569316  25.8765128076923 16.8575163272059  C 26.0586716295292 17.1048039649166  26.2205533670185 17.3660608622823  26.3606153846154 17.6387973982843  C 26.7741538461538 18.4427712671569  27.0088205 19.3553464178922  27.0088205 20.323032692402  C 27.0088205 21.2923398946078  26.7741538461539 22.2032941176471  26.3638974230769 23.0040261311274  L 26.3622564230769 23.0072679865196  C 26.2052761865922 23.3117890713184  26.021310189612 23.6019850456417  25.8125128076923 23.8744575036765  L 27.9245128076923 27.6430849546569  C 28.0784837497378 27.9159491100865  27.9890269627055 28.2601275638576  27.7210256538462 28.4259869154412  C 27.6463847107483 28.4705948462616  27.5619378482365 28.4967306069575  27.4748718076923 28.5021699473039  L 25.5450256538462 28.6221176470588  C 25.3678805924908 28.6340995235999  25.2073332777534 28.7293680001317  25.1134358846154 28.8782222095588  L 24.0467692307692 30.5396601433824  C 23.9484619226508 30.7006799248799  23.7719887426498 30.7991154755692  23.5816231812106 30.7991154755692  C 23.3791337556732 30.7991154755692  23.193454146598 30.6878632965004  23.0998974230769 30.5104836727941  L 21.4358974230769 27.5442091629902  L 20.6121025769231 29.012758182598  L 19.7718974230769 30.5104836727941  C 19.6775853238453 30.6869884228239  19.4921234354359 30.7974420339279  19.290067639344 30.7974420339279  C 19.1001635541741 30.7974420339279  18.9239617931218 30.6997699430243  18.8250256538462 30.5396601433824  L 17.7583589615385 28.8782222095588  C 17.6644615761893 28.7293680105355  17.5039142782133 28.6340995354598  17.3267692307692 28.6221176470588  L 15.3952820384615 28.5021699473039  C 15.0825276176949 28.4755090806168  14.8497864183062 28.2051364967608  14.8734358846154 27.8959476997549  C 14.8785192323885 27.807252844982  14.9037589831782 27.7208273192385  14.9472820384615 27.6430849546569  L 17.0592820384615 23.8744575036765  C 16.2788363580108 22.8519354252417  15.8586771686907 21.6051970254789  15.8629743461538 20.3246535821078  C 15.8629743461538 17.2611241703431  18.1948717692308 14.7600522622549  21.1306666538462 14.5963398566176  L 21.4358974230769 14.5882352941176  L 21.7230769230769 14.5963398566176  Z " fill-rule="nonzero" fill="url(#LinearGradient312)" stroke="none" transform="matrix(1 0 0 1 807 905 )" />
  </g>
</svg>