<?xml version="1.0" encoding="utf-8"?>
<svg version="1.1" xmlns:xlink="http://www.w3.org/1999/xlink" width="30px" height="31px" xmlns="http://www.w3.org/2000/svg">
  <defs>
    <linearGradient gradientUnits="userSpaceOnUse" x1="15" y1="0" x2="15" y2="31" id="LinearGradient315">
      <stop id="Stop316" stop-color="#30a3f6" offset="0" />
      <stop id="Stop317" stop-color="#61e9f2" offset="1" />
    </linearGradient>
  </defs>
  <g transform="matrix(1 0 0 1 -1287 -902 )">
    <path d="M 6.06206896551724 23.7666666666667  L 6.06206896551724 23.8217777885417  L 6.06206896551724 14.2875555447917  C 6.72413793103448 14.2875555447917  7.27586207974138 13.7364444229167  7.27586207974138 13.075111121875  L 7.27586207974138 11.8626666666667  L 1.31724139008621 11.8626666666667  L 1.31724139008621 13.075111121875  C 1.31724139008621 13.7364444552083  1.8689655387931 14.2875555770833  2.53103447198276 14.2875555447917  L 2.53103447198276 23.7666666666667  L 6.06206896551724 23.7666666666667  Z M 13.2344827693966 23.7666666666667  L 13.2344827693965 23.8217777885417  L 13.2344827693965 14.2875555447917  C 13.8965517349138 14.2875555447917  14.4482758836207 13.7364444229167  14.4482758512931 13.075111121875  L 14.4482758512931 11.8626666666667  L 8.48965516163793 11.8626666666667  L 8.48965516163793 13.075111121875  C 8.48965516163793 13.7364444552083  9.04137931034483 14.2875555770833  9.70344827586207 14.2875555447917  L 9.70344827586207 23.7666666666667  L 13.2344827693966 23.7666666666667  Z M 20.3517241487069 23.7666666666667  L 20.3517241487069 23.8217777885417  L 20.3517241487069 14.2875555447917  C 21.0137931142241 14.2875555447917  21.565517262931 13.7364444229167  21.5655172306034 13.075111121875  L 21.5655172306034 11.8626666666667  L 15.6068965409483 11.8626666666667  L 15.6068965409483 13.075111121875  C 15.6068965409483 13.7364444552083  16.1586206896552 14.2875555770833  16.8206896551724 14.2875555447917  L 16.8206896551724 23.7666666666667  L 20.3517241487069 23.7666666666667  Z M 27.4689655280172 23.7666666666667  L 27.4689655280172 23.8217777885417  L 27.4689655280172 14.2875555447917  C 28.1310344935345 14.2875555447917  28.6827586422414 13.7364444229167  28.6827586099138 13.075111121875  L 28.6827586099138 11.8626666666667  L 22.7241379202586 11.8626666666667  L 22.7241379202586 13.075111121875  C 22.7241379202586 13.7364444552083  23.2758620689655 14.2875555770833  23.9379310344828 14.2875555447917  L 23.9379310344828 23.7666666666667  L 27.4689655280172 23.7666666666667  Z M 29.841379299569 28.5062222114583  C 29.841379299569 27.9  29.344827575431 27.348888878125  28.6827586099138 27.348888878125  L 27.4689655280172 27.348888878125  L 27.4689655280172 25  L 2.53103447198276 25  L 2.53103447198276 27.348888878125  L 1.31724139008621 27.348888878125  C 0.655172424568965 27.348888878125  0.103448275862069 27.9  0.103448275862069 28.5613333333333  L 0.103448275862069 29.7737777885417  C 0.158620700431034 30.38  0.655172424568965 30.931111121875  1.31724139008621 31  L 28.6275862176724 31  C 29.2896551831897 30.931111121875  29.8413793318965 30.38  29.841379299569 29.7186666666667  L 29.841379299569 28.5062222114583  Z M 0.158620700431034 9.87866666666666  C 0.324137941810345 10.3746666666667  0.765517241379311 10.7604444552083  1.26206896551724 11  L 28.6827586099138 11  C 29.2896551508621 10.7604444552083  29.841379299569 10.2093333333333  29.841379299569 9.548  C 29.841379299569 9.052  29.5655172413793 8.611111121875  29.1241379418103 8.44577778854167  L 15.5517241487069 0.234222211458333  C 15.2206896659483 0.0137777562499999  14.7793103663793 0.0137777562499999  14.3931034590517 0.234222211458333  L 0.710344816810345 8.556  C 0.268965517241379 8.83155554479167  0.0482758512931032 9.38266666666667  0.158620700431034 9.87866666666666  Z M 12.4620689547414 6.572  C 12.4620689547414 5.19422221145833  13.5655172198276 4.036888878125  15 4.036888878125  C 16.4344827478448 4.036888878125  17.5379310452586 5.19422221145833  17.5379310452586 6.572  C 17.5379310452586 8.004888878125  16.3793103556034 9.107111121875  15 9.107111121875  C 13.5655172521552 9.107111121875  12.4620689547414 7.94977778854166  12.4620689547414 6.572  Z " fill-rule="nonzero" fill="url(#LinearGradient315)" stroke="none" transform="matrix(1 0 0 1 1287 902 )" />
  </g>
</svg>