<?xml version="1.0" encoding="utf-8"?>
<svg version="1.1" xmlns:xlink="http://www.w3.org/1999/xlink" width="29px" height="28px" xmlns="http://www.w3.org/2000/svg">
  <g transform="matrix(1 0 0 1 -219 -553 )">
    <path d="M 28.8396173913044 3.449  C 28.8829564836243 3.29055145296196  28.8860752489432 3.12393350692442  28.8486956521739 2.964  C 28.7227331266643 2.42611776028238  28.1808515681715 2.09125675696664  27.6382608695652 2.216  L 22.3789217391304 3.424  C 21.9214549044714 3.52887091573073  21.5974764742548 3.93280120543532  21.5974764742548 4.39829144285456  C 21.5974764742548 4.65748932386197  21.6989933011491 4.9065612108576  21.8806260869565 5.093  L 23.0285217391304 6.27  L 16.895652173913 11.694  L 13.7112 8.704  C 13.3077278013954 8.32538728255951  12.6714026570313 8.34148241011436  12.2879304347826 8.74  L 5.4560347826087 15.842  C 5.32034590180805 15.8138969206342  5.18209664167994 15.7997331316  5.04347827882907 15.7997331316  C 3.92930382699652 15.7997331316  3.02608697448125 16.6951636319384  3.02608697448125 17.7997331316  C 3.02608697448125 18.9043026312616  3.92930382699652 19.7997331316  5.04347827882907 19.7997331316  C 6.15754760727228 19.7997331316  7.06072091026779 18.904465272676  7.06086956521739 17.8  C 7.06086956521739 17.583  7.01749565217391 17.379  6.95293913043478 17.184  L 13.0535304347826 10.842  L 16.1814956521739 13.778  C 16.5621083782105 14.1351164567228  17.1551671930981 14.1438074580368  17.5462608695652 13.798  L 24.4306086956522 7.71  L 25.7388869565217 9.053  C 25.928963245404 9.24811521423646  26.1908373623704 9.35830895652064  26.4644500577785 9.35830895652064  C 26.9206529100843 9.35830895652064  27.3200673356812 9.05475347588414  27.4385391304348 8.618  L 28.8396173913044 3.449  Z M 28.2434782608696 13.077  C 28.2434782608696 12.5247152501692  27.7918698346119 12.077  27.2347826086957 12.077  C 26.6776953827794 12.077  26.2260869565217 12.5247152501692  26.2260869565217 13.077  L 26.2260869565217 21  C 26.2260869565217 21.5522847498308  25.7744785302641 22  25.2173913043478 22  L 3.02608695652174 22  C 2.46899973060546 22  2.01739130434783 21.5522847498308  2 21  L 2 3  C 2.01739130434783 2.44771525016921  2.46899973060546 2  3.02608695652174 2  L 19.7532869565217 2  C 20.310374182438 2  20.7619826086957 1.55228474983079  20.7619826086957 1  C 20.7619826086957 0.447715250169207  20.310374182438 0  19.7532869565217 0  L 3.02608695652174 0  C 1.3548252787729 0  0 1.34314575050762  0 3  L 0 21  C 0 22.6568542494924  1.3548252787729 24  3.02608695652174 24  L 25.2173913043478 24  C 26.8886529820967 24  28.2434782608696 22.6568542494924  28.2434782608696 21  L 28.2434782608696 13.077  Z M 26.7304347826087 26  L 1.51304347826087 26  C 0.955956252344591 26  0.504347826086956 26.4477152501692  0.504347826086956 27  C 0.504347826086956 27.5522847498308  0.955956252344591 28  1.51304347826087 28  L 26.7304347826087 28  C 27.287522008525 28  27.7391304347826 27.5522847498308  27.7391304347826 27  C 27.7391304347826 26.4477152501692  27.287522008525 26  26.7304347826087 26  Z " fill-rule="nonzero" fill="#4d4d4d" stroke="none" transform="matrix(1 0 0 1 219 553 )" />
  </g>
</svg>