<?xml version="1.0" encoding="utf-8"?>
<svg version="1.1" xmlns:xlink="http://www.w3.org/1999/xlink" width="24px" height="24px" xmlns="http://www.w3.org/2000/svg">
  <g transform="matrix(1 0 0 1 -1753 -13 )">
    <path d="M 11.999999910593 0  C 5.37258296200162 0  0 5.37258300203048  0 12  C 0 18.6274169979695  5.37258296200162 24  11.999999910593 24  C 18.6274168591845 24  23.9999998211861 18.6274169979695  23.9999998211861 12  C 23.9999998211861 5.37258300203048  18.6274168591845 0  11.999999910593 0  Z M 11.9232001438618 4.2048  C 13.9202617843706 4.2048  15.5392001169205 5.82373834461185  15.5392001169205 7.8208  C 15.5392001169205 9.81786165538815  13.9202617843706 11.4368  11.9232001438618 11.4368  C 9.92613850335289 11.4368  8.30720017080307 9.81786165538815  8.30720017080307 7.8208  C 8.30720017080307 5.82373834461185  9.92613850335289 4.2048  11.9232001438618 4.2048  Z M 18.3984000417352 18.5568  C 14.3712000717401 20.1536  10.1264001033664 20.2688  5.60000013709068 18.5536  C 5.56320013736486 14.848  7.37440012387037 12.5472  9.64480010695457 11.6432  L 11.9760000895858 15.5328  L 14.4320000712872 11.7328  C 16.6224000549674 12.6928  18.3632000419974 14.9664  18.3984000417352 18.5568  Z " fill-rule="nonzero" fill="#c4e9ff" stroke="none" transform="matrix(1 0 0 1 1753 13 )" />
  </g>
</svg>