<?xml version="1.0" encoding="utf-8"?>
<svg version="1.1" xmlns:xlink="http://www.w3.org/1999/xlink" width="19px" height="19px" viewBox="208 372  19 19" xmlns="http://www.w3.org/2000/svg">
  <path d="M 217.5 372  C 222.82 372  227 376.18  227 381.5  C 227 386.82  222.82 391  217.5 391  C 212.18 391  208 386.82  208 381.5  C 208 376.18  212.18 372  217.5 372  Z " fill-rule="nonzero" fill="#e0ebf6" stroke="none" />
  <path d="M 217.5 372.5  C 222.54 372.5  226.5 376.46  226.5 381.5  C 226.5 386.54  222.54 390.5  217.5 390.5  C 212.46 390.5  208.5 386.54  208.5 381.5  C 208.5 376.46  212.46 372.5  217.5 372.5  Z " stroke-width="1" stroke="#1a8af2" fill="none" />
  <path d="M 217.5 386.25  C 214.84 386.25  212.75 384.16  212.75 381.5  C 212.75 378.84  214.84 376.75  217.5 376.75  C 220.16 376.75  222.25 378.84  222.25 381.5  C 222.25 384.16  220.16 386.25  217.5 386.25  " fill-rule="nonzero" fill="#1a8af2" stroke="none" />
</svg>