<?xml version="1.0" encoding="utf-8"?>
<svg version="1.1" xmlns:xlink="http://www.w3.org/1999/xlink" width="18px" height="18px" xmlns="http://www.w3.org/2000/svg">
  <g transform="matrix(1 0 0 1 -794 -115 )">
    <path d="M 17.845252669048 10.8200650497169  C 17.9516895800834 10.2459914137703  18.0018956701943 9.6096930130882  17.9998874265898 8.94730035622676  C 17.9577143108967 8.37523397075552  17.9155411952034 7.78510233100621  17.7910300917282 7.21504319601031  C 17.6946343987151 6.55867229057485  17.2548290493428 6.06488867364176  16.6322735319666 5.92438114036812  C 16.6322735319666 5.92438114036812  16.5278448645358 5.90832313656542  16.5278448645358 5.90832313656542  C 16.0619323483058 5.78588085756982  15.7386051279911 5.51891654434991  15.4554427797652 5.02312567694148  C 15.1963793547926 4.57952332189183  15.1321155594505 4.05161644687801  15.2646596373435 3.65819535371181  C 15.5176983315029 3.05401296063515  15.3429811379167 2.34344629236558  14.8569861856423 1.91790919159399  C 14.0215568461955 1.10697999955752  13.0314927492069 0.494768604579541  11.9651153952496 0.117405515216046  C 11.4007989424021 -0.131493543725835  10.7722186942126 0.0210574923998266  10.2842154983338 0.520862860758925  C 10.2842154983338 0.520862860758925  10.2259764338052 0.589109376920391  10.2259764338052 0.589109376920391  C 9.72391553269537 1.24548028235586  8.58524140897826 1.45222708131562  7.63735042768285 0.480717851252148  C 7.38029524631463 0.217768038982907  6.82602001148935 -0.183682056084635  5.95845877437151 0.117405515216046  C 4.85392479192994 0.597138378821739  3.93013273388776 1.163183012867  3.18105786943191 1.81152491640108  C 2.64284858344212 2.20494600956728  2.41792529974501 2.91149817688617  2.62678263460663 3.53976757566689  C 2.76535144331298 4.10380495923681  2.7071123787842 4.62167558187394  2.45809017183373 5.07932869025093  C 2.24923283697211 5.45267727866375  1.83754289806205 5.76380110234111  1.34753145857886 5.91635213846677  C 1.19088845743258 5.94244639464616  1.07441032837502 6.00667840985698  0.986047609779703 6.07693217649378  C 0.648662684233912 6.27765722402757  0.395623990074569 6.58476654675423  0.216890309279492 7.01231089800119  C 0.216890309279492 7.01231089800119  0.156643001146278 7.19697794173225  0.156643001146278 7.19697794173225  C 0.0502060901110326 7.77105157767885  0 8.40534272788558  0 9.00751787048691  C 0 9.48122898266662  0.0301236540665428 10.1657013947568  0.170700706377332 10.7658692868828  C 0.269104642994833 11.4202329418429  0.708909992367126 11.9100020578253  1.3294572661388 12.0505095910989  C 1.3294572661388 12.0505095910989  1.43388593356974 12.0665675949016  1.43388593356974 12.0665675949016  C 1.89979844979958 12.1890098738972  2.22111742650988 12.4539669366418  2.50628801834033 12.9497578040502  C 2.76535144331298 13.3933601590999  2.82961523865507 13.9212670341137  2.69707116076202 14.3166953777552  C 2.44403246660268 14.9208777708319  2.61874966018888 15.6314444391015  3.10474461246321 16.056981539873  C 3.94820692632781 16.8779469842862  4.95433697215188 17.4901583792642  6.09301109586899 17.8795649714797  C 6.09301109586899 17.8795649714797  6.20748098132198 17.9197099809865  6.20748098132198 17.9197099809865  C 6.27776950747737 17.9397824857399  6.37416520049044 17.9598549904933  6.48461859873468 17.9598549904933  C 6.48461859873468 17.9598549904933  6.60310497139655 17.9598549904933  6.60310497139655 17.9598549904933  C 7.02282788472435 17.9598549904933  7.44455904165672 17.7751879467622  7.798009916038 17.4078611097754  C 8.36634285609433 16.7193741967345  9.48292630016265 16.5507651568061  10.4047101146003 17.4941728802149  C 10.7220126041017 17.8193474572196  11.1035788889451 18  11.4791204429753 18  C 11.6096562772639 18  11.8486372661922 18  12.0434368958228 17.8996374762331  C 13.1298966858244 17.4279336145287  14.04163928224 16.8719252328602  14.8268625315757 16.2035108245727  C 15.3510141123344 15.8482274904379  15.5859786140538 15.1135738164643  15.3751130355876 14.4752681653069  C 15.2365442268813 13.911230781737  15.2947832914101 13.3933601590999  15.5438054983605 12.9377143011982  C 15.7526628332223 12.56235846231  16.1643527721323 12.253241889108  16.6543642116155 12.1006908529824  C 16.8130154563662 12.0766038472783  16.9274853418192 12.0103645815922  17.017856304019 11.93810356448  C 17.3552412295648 11.7373785169462  17.6062716801197 11.4322764446949  17.7850053609149 11.004732093448  C 17.7850053609149 11.004732093448  17.845252669048 10.8200650497169  17.845252669048 10.8200650497169  Z M 16.2727979267719 7.4137609930688  C 16.3772265942027 7.87743585287182  16.4816552616336 8.50971975260321  16.5178036465135 9.01153237143765  C 16.515795402909 9.53141024455012  16.4736222872158 9.99107060340247  16.3772265942027 10.4888687212862  C 16.3209957732785 10.5932457460038  16.2788226575852 10.6133182507572  16.2567319779364 10.6253617536092  C 15.391178984423 10.8903188163538  14.6561618251982 11.4583707008744  14.2504966171014 12.1829881224713  C 13.804666536916 12.9959245649831  13.6982296258806 13.9313032864905  13.9432353456223 14.8887617632266  C 13.2865396869707 15.4568136477472  12.479225757986 16.0449380370211  11.5152688278551 16.4744896387434  C 11.4992028790196 16.4644533863667  11.4771121993707 16.4463881320887  11.4489967889086 16.4182866254339  C 10.7400867965415 15.6916619533617  9.92072340593025 15.3082771125722  9.07525284846133 15.3082771125722  C 8.12535362356148 15.3082771125722  7.24574292481715 15.7157489590657  6.70351715161848 16.3781416159272  C 6.64728633069414 16.436351879712  6.59908848418767 16.4383591301873  6.59908848418767 16.4383591301873  C 6.59908848418767 16.4383591301873  6.47256913710794 16.3982141206805  6.47256913710794 16.3982141206805  C 5.58492546394574 16.0790612951019  4.77961977856555 15.5912994295948  4.12091587630945 14.9529937784374  C 4.12091587630945 14.9529937784374  4.07472627340742 14.8706965089485  4.07472627340742 14.8706965089485  C 4.37194632686436 14.0075788045533  4.25948468501581 12.9979318154584  3.77951446355479 12.17495912057  C 3.27745356244498 11.2997979133227  2.59264249333121 10.7738982887842  1.68893287133339 10.5671514898244  C 1.60257839634251 10.2098609052143  1.48610026728508 9.57556975500757  1.48610026728508 9.01153237143765  C 1.48610026728508 8.48563274689916  1.52827338297837 8.02797963852215  1.62466907599143 7.52817427016305  C 1.67889165331121 7.42580449592082  1.72307301260894 7.40372474069211  1.74516369225773 7.39168123784009  C 2.61071668577114 7.12672417509551  3.34573384499593 6.55867229057491  3.74939080948825 5.83405486897801  C 4.19522088967372 5.02111842646621  4.30165780070897 4.08573970495884  4.03456140131857 3.06806371396257  C 4.71334773961902 2.4799393246886  5.56885951511025 1.9419961972981  6.48261035513012 1.54255335270589  C 6.53482468884559 1.52448809842786  6.55490712488995 1.52448809842786  6.58904726616537 1.56061860698393  C 7.29795725853249 2.2872432790562  8.11732064914374 2.67062811984571  8.96279120661278 2.67062811984571  C 9.94683057278804 2.67062811984571  10.7963176174658 2.28322877810552  11.3586258267089 1.578683861262  C 12.2743849103332 1.90385843826672  13.1580120962865 2.36552604759438  13.8408149217958 3.02791870445583  C 13.8408149217958 3.02791870445583  13.887004524698 3.11021597394469  13.887004524698 3.11021597394469  C 13.5897844712409 3.97333367833992  13.7022461130896 4.9829806674348  14.1822163345505 5.80595336232326  C 14.6842772356604 6.68111456957051  15.3670800611698 7.20701419410903  16.2727979267719 7.4137609930688  Z M 5.46643909128387 8.96536561050479  C 5.46643909128387 6.95610788469171  7.00073720507555 5.38041626155157  8.96078296300834 5.38041626155157  C 10.8866885796657 5.38041626155157  12.4551268347328 6.99023114277245  12.4551268347328 8.96536561050479  C 12.4551268347328 10.9425073287125  10.8866885796657 12.550314959458  8.96078296300834 12.550314959458  C 7.00073720507555 12.550314959458  5.46643909128387 10.9766305867932  5.46643909128387 8.96536561050479  Z M 6.95053111496452 8.96536561050483  C 6.95053111496452 10.1235491347747  7.83415830091785 11.028819099152  8.96078296300821 11.028819099152  C 10.0894158687031 11.028819099152  10.971034811052 10.1235491347747  10.971034811052 8.96536561050483  C 10.971034811052 7.80918933671029  10.0874076250987 6.90191212185764  8.96078296300834 6.90191212185764  C 7.83415830091785 6.90191212185764  6.95053111496452 7.80918933671029  6.95053111496452 8.96536561050483  Z " fill-rule="nonzero" fill="#d9d3ea" stroke="none" transform="matrix(1 0 0 1 794 115 )" />
  </g>
</svg>