<?xml version="1.0" encoding="utf-8"?>
<svg version="1.1" xmlns:xlink="http://www.w3.org/1999/xlink" width="80px" height="80px" xmlns="http://www.w3.org/2000/svg">
  <defs>
    <mask fill="white" id="clip122">
      <path d="M 0 40  C 0 62.091389992  17.908610008 80  40 80  C 62.091389992 80  80 62.091389992  80 40  C 80 17.908610008  62.091389992 0  40 0  C 17.908610008 0  0 17.908610008  0 40  Z " fill-rule="evenodd" />
    </mask>
  </defs>
  <g transform="matrix(1 0 0 1 -16 0 )">
    <path d="M 0 40  C 0 62.091389992  17.908610008 80  40 80  C 62.091389992 80  80 62.091389992  80 40  C 80 17.908610008  62.091389992 0  40 0  C 17.908610008 0  0 17.908610008  0 40  Z " fill-rule="nonzero" fill="#ffffff" stroke="none" fill-opacity="0" transform="matrix(1 0 0 1 16 0 )" />
    <path d="M 0 40  C 0 62.091389992  17.908610008 80  40 80  C 62.091389992 80  80 62.091389992  80 40  C 80 17.908610008  62.091389992 0  40 0  C 17.908610008 0  0 17.908610008  0 40  Z " stroke-width="4" stroke="#8c8b8b" fill="none" stroke-opacity="0.572549019607843" transform="matrix(1 0 0 1 16 0 )" mask="url(#clip122)" />
  </g>
</svg>