<?xml version="1.0" encoding="utf-8"?>
<svg version="1.1" xmlns:xlink="http://www.w3.org/1999/xlink" width="4px" height="4px" xmlns="http://www.w3.org/2000/svg">
  <g transform="matrix(1 0 0 1 -38 -72 )">
    <path d="M 2.00033327257783 0  C 2.17711480936014 0  2.34665583701969 0.0702378848223546  2.47165926046703 0.195262142824667  C 2.59666268391438 0.320286400826981  2.66688887229426 0.489855686207498  2.66688886400762 0.666666687500002  C 2.66688886400762 0.666666687500002  2.66688886400762 1.33333334375  2.66688886400762 1.33333334375  C 2.66688886400762 1.33333334375  3.33344442419261 1.33333334375  3.33344442419261 1.33333334375  C 3.70157290362572 1.33333334375  4 1.63181017952799  4 2.000000015625  C 4 2.36818985172201  3.70157290362572 2.6666666875  3.33344442419261 2.6666666875  C 3.33344442419261 2.6666666875  2.66622228760716 2.6666666875  2.66622228760716 2.6666666875  C 2.66622228760716 2.6666666875  2.66622228760716 3.33333334375  2.66622228760716 3.33333334375  C 2.66622228760716 3.70152317121756  2.36779519822726 4  1.99966672742217 4  C 1.63153825661707 4  1.33311116723717 3.70152317121756  1.33311116723717 3.33333334375  C 1.33311116723717 3.33333334375  1.33311116723717 2.6666666875  1.33311116723717 2.6666666875  C 1.33311116723717 2.6666666875  0.666555575807388 2.6666666875  0.666555575807388 2.6666666875  C 0.298427096374285 2.6666666875  0 2.36818985172201  0 2.000000015625  C 0 1.63181017952799  0.298427096374285 1.33333334375  0.666555575807388 1.33333334375  C 0.666555575807388 1.33333334375  1.33311116723717 1.33333334375  1.33311116723717 1.33333334375  C 1.33311116723717 1.33333334375  1.33311116723717 0.6666666875  1.33311116723717 0.6666666875  C 1.33311115895054 0.489855691621903  1.4033373430414 0.320286410977214  1.52834075973105 0.195262153873209  C 1.65334417642071 0.0702378967692052  1.82288519605336 0  1.99966672742216 0  Z " fill-rule="nonzero" fill="#ff5c00" stroke="none" transform="matrix(1 0 0 1 38 72 )" />
  </g>
</svg>