<?xml version="1.0" encoding="utf-8"?>
<svg version="1.1" xmlns:xlink="http://www.w3.org/1999/xlink" width="26px" height="17px" xmlns="http://www.w3.org/2000/svg">
  <g transform="matrix(1 0 0 1 -30 -66 )">
    <path d="M 9.06967947730623 1.22521360306473  L 16.9304842519671 1.22521360306473  C 16.9304842519671 1.22521360306473  18.094142503558 0.430706633787424  18.094142503558 0.430706633787424  C 18.5047821934832 0.150546259678222  18.9935414798767 0.00040847460174925  19.4943215981759 0.000597592734706433  C 19.4943215981759 0.000597592734706433  21.5197225605222 0.000597592734706433  21.5197225605222 0.000597592734706433  C 21.8468037998877 0.00042857744714377  22.17059410004 0.0644159840369957  22.4719176881053 0.188770298195272  C 23.3354938939901 0.545999742402315  23.9222123353555 1.18996857531306  24.2320730122016 2.12127410525789  C 25.7159817272722 6.58962913352716  26.1028491995475 8.92117856023377  25.9781715594057 12.3226242545609  C 25.9345748365431 13.5282975870782  25.687174909362 14.7186112892084  25.2459958186862 15.8453367568484  C 24.9976855328059 16.4830170479638  24.4004554352911 16.9275554270387  23.7055139013648 16.9919690805874  C 23.0105723674384 17.0563827341361  22.3384996860486 16.729495157981  21.9719847019575 16.1488025989257  C 21.9719847019575 16.1488025989257  19.6642254897041 12.4952652353162  19.6642254897041 12.4952652353162  C 18.9961557276307 11.4380561671491  17.815531003786 10.7944930264245  16.5442279351854 10.7945424021535  C 16.5442279351854 10.7945424021535  9.45593576543955 10.7945424021535  9.45593576543955 10.7945424021535  C 8.18463270703392 10.7944930361326  7.00400799628538 11.4380561756277  6.33593823956926 12.4952652353162  C 6.33593823956926 12.4952652353162  4.02756787182222 16.1488025989257  4.02756787182222 16.1488025989257  C 3.66094994945191 16.7291484156467  2.98907825280176 17.0557702853799  2.29438458248945 16.9913675847327  C 1.59969091217714 16.9269648840854  1.00262306933736 16.4827039213338  0.754167881938788 15.8453367568484  C 0.312988801054367 14.7186112875766  0.0655888835639918 13.5282975854969  0.0219921698676558 12.3226242545609  C -0.103296654416129 8.92117858823566  0.284181973352824 6.58903179719488  1.76870187256539 2.12127410525789  C 2.07795139391786 1.18996854731117  2.66405865114127 0.545999742402312  3.52763485702599 0.188770298195269  C 3.8292941264579 0.064054311217489  4.15351782834185 -0.000139741165751532  4.48105232424478 0  C 4.48105232424478 0  6.50584210244909 0  6.50584210244909 0  C 7.00641372109285 -6.65454498434221E-05  7.49494134412492 0.150065604119488  7.90541007022174 0.430109269453256  C 7.90541007022174 0.430109269453256  9.06967947730623 1.22521360306473  9.06967947730623 1.22521360306473  Z " fill-rule="nonzero" fill="#ff8b3b" stroke="none" transform="matrix(1 0 0 1 30 66 )" />
  </g>
</svg>