<?xml version="1.0" encoding="utf-8"?>
<svg version="1.1" xmlns:xlink="http://www.w3.org/1999/xlink" width="11px" height="10px" xmlns="http://www.w3.org/2000/svg">
  <g transform="matrix(1 0 0 1 -33 -24 )">
    <path d="M 11 6.46653108341666  C 9.5858178660184 7.63095647440492  8.79154244340686 8.10916490960192  8.79154244340686 8.10916490960192  C 5.98255796625594 10.1260557187672  4.6265151562976 8.75372737138142  2.86364471542055 6.86158888987613  C 1.08139453214481 4.94864955890959  -0.216558166204971 3.51397145822931  1.70130124351487 0.499009284658243  C 1.70130124351487 0.499009284658243  1.99189939038817 0  1.99189939038817 0  C 1.2363835009876 1.10202284260453  0.907074984904437 1.7257844549228  0.907074984904437 1.72578442894096  C -0.933265334186659 4.61599427485201  0.325927830952149 6.0090706766098  2.03065894780594 7.83885940482064  C 3.73539006465973 9.66864813303148  5.03334273880272 10.9785739060517  7.72609780452861 9.04483372562395  C 7.72609780452861 9.04483372562395  8.92715164564416 8.31706784001764  11 6.46653108341666  Z " fill-rule="nonzero" fill="#e8e4c8" stroke="none" transform="matrix(1 0 0 1 33 24 )" />
  </g>
</svg>