<?xml version="1.0" encoding="utf-8"?>
<svg version="1.1" xmlns:xlink="http://www.w3.org/1999/xlink" width="23px" height="3px" xmlns="http://www.w3.org/2000/svg">
  <g transform="matrix(1 0 0 1 -31 -66 )">
    <path d="M 7.78753348527862 1.21702746446081  L 5.97453106586085 0.551209760867319  C 5.97453106586085 0.551209760867319  3.44231117566144 0.551209760867319  3.44231117566144 0.551209760867319  C 2.95166366556427 0.530471167598438  2.55735058875751 0.635255595766031  2.26116702518926 0.866654532775419  C 1.96498346162101 1.09805346978481  1.68734875834114 1.54502454618719  1.42826294339733 2.20756776198258  C 1.42826294339733 2.20756776198258  0.634251662130258 2.20756776198258  0.634251662130258 2.20756776198258  C 0.634251662130258 2.20756776198258  0 3  0 3  C 0.105908062124405 2.68182645841432  0.187283738927261 2.43951246827677  0.244127058456255 2.27305802958733  C 0.301568719269492 2.10660359089789  0.356616986898072 1.95324723131153  0.408673463962382 1.81244315596133  C 0.408673463962382 1.81244315596133  1.18293920237259 0.866654532775419  1.18293920237259 0.866654532775419  L 2.61299719767034 0  L 5.76630504541286 0  L 7.6451260438617 0.725304713722555  L 11.0365774250273 0.705111889738471  L 11.0365774250273 0.704020376751013  L 11.2100991180832 0.704566120453674  L 11.3596867671018 0.704020376751013  L 11.3596867671018 0.705111889738471  L 15.3518821936217 0.725304713722555  L 17.2313015333548 0  L 20.3864044329977 0  L 21.8164624282955 0.866654532775419  C 21.8164624282955 0.866654532775419  22.5913265079899 1.81244315596133  22.5913265079899 1.81244315596133  C 22.6439813543862 1.95324723131153  22.6990296220148 2.10660361648002  22.7558729415437 2.27305802958733  C 22.813314602357 2.43951246827677  22.8946902791598 2.68182645841432  23 3  C 23 3  22.3657483098221 2.20756776198258  22.3657483098221 2.20756776198258  C 22.3657483098221 2.20756776198258  21.5711386872707 2.20756776198258  21.5711386872707 2.20756776198258  C 21.3120528723269 1.54502454618719  21.0344181690471 1.09805346978481  20.7382346054788 0.866654532775419  C 20.4414527006263 0.63525559576603  20.0477379651038 0.530471167598437  19.5564920856747 0.55175550456998  C 19.5564920856747 0.55175550456998  17.0230755129068 0.55175550456998  17.0230755129068 0.55175550456998  L 15.2088763828729 1.21702746446081  L 7.78753348527862 1.21702746446081  Z " fill-rule="nonzero" fill="#ffd3a5" stroke="none" transform="matrix(1 0 0 1 31 66 )" />
  </g>
</svg>