<?xml version="1.0" encoding="utf-8"?>
<svg version="1.1" xmlns:xlink="http://www.w3.org/1999/xlink" width="15px" height="6px" xmlns="http://www.w3.org/2000/svg">
  <g transform="matrix(1 0 0 1 -756 -120 )">
    <path d="M 7.49633237558162 6  C 7.38319426939582 5.99943875742929  7.27276581559356 5.96395373194618  7.17905568796684 5.89804646395422  C 7.17905568796684 5.89804646395422  0.256655034257933 1.10023346269353  0.256655034257933 1.10023346269353  C -0.00728456010195889 0.914954778793157  -0.0792228905302104 0.54368044237485  0.0951323343109734 0.2666134317267  C 0.268192350653696 -0.00926080755269556  0.631618384973413 -0.0812280028527279  0.896977094726006 0.0986899853973521  C 0.896977094726006 0.0986899853973521  7.49633237558162 4.68060142887014  7.49633237558162 4.68060142887014  C 7.49633237558162 4.68060142887014  14.1014563416757 0.104687242301627  14.1014563416757 0.104687242301627  C 14.2735453588747 -0.0142280069417154  14.4935845235873 -0.0286636706902701  14.6786872072805 0.0668180261916739  C 14.8637898909737 0.162299723073619  14.9858345907189 0.353192838452136  14.9988482466499 0.567589779128561  C 15.0118619025809 0.781986719804987  14.9138674306487 0.98731548803834  14.7417784021438 1.10623071959781  C 14.7417784021438 1.10623071959781  7.81937774843491 5.90404374897069  7.81937774843491 5.90404374897069  C 7.72131039682716 5.96401640234999  7.60593707062576 6  7.49633237558162 6  Z " fill-rule="nonzero" fill="#d9d3ea" stroke="none" transform="matrix(1 0 0 1 756 120 )" />
  </g>
</svg>