<?xml version="1.0" encoding="utf-8"?>
<svg version="1.1" xmlns:xlink="http://www.w3.org/1999/xlink" width="13px" height="10px" xmlns="http://www.w3.org/2000/svg">
  <g transform="matrix(1 0 0 1 -413 -387 )">
    <path d="M 11.6714587505428 1.79776792012917  L 11.6460336690058 1.76922473571209  L 5.09199465705171 8.72508051129097  C 4.79590420518759 9.0410309491814  4.34625643106904 9.09007807831602  4.00153816824673 8.84402469139025  C 4.00153816824673 8.84402469139025  3.82779963409364 8.68067468115664  3.82779963409364 8.68067468115664  L 0.265453429751353 4.44150402722998  C -0.0879561037495783 4.04554635722771  -0.0885608339116457 3.402888462749  0.264101380609924 3.00609067089998  C 0.616762796181426 2.60929287905095  1.18914872275579 2.60861390601084  1.54255832637452 3.00457255161039  C 1.56070815452589 3.02490757114133  1.57807916085394 3.04610042602636  1.5946242691019 3.06809345311718  C 1.5946242691019 3.06809345311718  4.54676684129673 6.57615386706622  4.54676684129673 6.57615386706622  L 10.4482269688709 0.307002503440292  C 10.7964830437457 -0.0946719074931258  11.3688160012548 -0.103315184733642  11.726566861183 0.287697682473541  C 12.0843199281555 0.678709335458862  12.0920180989777 1.32130775784646  11.7437608625512 1.72297978316226  C 11.7208861717054 1.74936308957848  11.6967497135836 1.77432947342414  11.6714587505428 1.79776792012917  Z " fill-rule="nonzero" fill="#3e73a4" stroke="none" transform="matrix(1 0 0 1 413 387 )" />
  </g>
</svg>