<?xml version="1.0" encoding="utf-8"?>
<svg version="1.1" xmlns:xlink="http://www.w3.org/1999/xlink" width="4px" height="4px" xmlns="http://www.w3.org/2000/svg">
  <g transform="matrix(1 0 0 1 -38 -72 )">
    <path d="M 2.00033327258044 0  C 2.17711480533011 0  2.34665582957894 0.0702378805326269  2.47165925310455 0.19526213177612  C 2.59666267663017 0.320286383019613  2.66688886921682 0.4898556603719  2.66688886921682 0.666666656249999  C 2.66688886921682 0.666666656249999  2.66688886921682 1.33333334375  2.66688886921682 1.33333334375  C 2.66688886921682 1.33333334375  3.33344443460841 1.33333334375  3.33344443460841 1.33333334375  C 3.70157290828903 1.33333334375  4 1.63181017253244  4 2  C 4 2.36818982746756  3.70157290828903 2.66666665625  3.33344443460841 2.66666665625  C 3.33344443460841 2.66666665625  2.66622229281115 2.66666665625  2.66622229281115 2.66666665625  C 2.66622229281115 2.66666665625  2.66622229281115 3.33333334375  2.66622229281115 3.33333334375  C 2.66622229281115 3.70152317121756  2.36779520110018 4  1.99966672741956 4  C 1.63153825373894 4  1.33311116202797 3.70152317121756  1.33311116202797 3.33333334375  C 1.33311116202797 3.33333334375  1.33311116202797 2.66666665625  1.33311116202797 2.66666665625  C 1.33311116202797 2.66666665625  0.666555565391589 2.66666665625  0.666555565391589 2.66666665625  C 0.298427091710973 2.66666665625  0 2.36818982746756  0 2  C 0 1.63181017253244  0.298427091710973 1.33333334375  0.666555565391589 1.33333334375  C 0.666555565391589 1.33333334375  1.33311116202797 1.33333334375  1.33311116202797 1.33333334375  C 1.33311116202797 1.33333334375  1.33311116202797 0.666666656250003  1.33311116202797 0.666666656250003  C 1.33311116202797 0.298476828782441  1.63153825373894 0  1.99966672741956 0  Z " fill-rule="nonzero" fill="#ffe3b6" stroke="none" transform="matrix(1 0 0 1 38 72 )" />
  </g>
</svg>