<?xml version="1.0" encoding="utf-8"?>
<svg version="1.1" xmlns:xlink="http://www.w3.org/1999/xlink" width="14px" height="14px" xmlns="http://www.w3.org/2000/svg">
  <g transform="matrix(1 0 0 1 -584 -50 )">
    <path d="M 13.6999999947266 12.2999999869838  C 13.6999999947266 12.2999999869838  8.39999998945312 7.00000000292969  8.39999998945312 7.00000000292969  C 8.39999998945312 7.00000000292969  13.6999999947266 1.70000001887556  13.6999999947266 1.70000001887556  C 14.1000000017578 1.3000000116769  14.1000000017578 0.700000012597657  13.6999999947266 0.300000005398996  C 13.2999999876953 -0.100000001799665  12.6999999888672 -0.100000001799665  12.2999999818359 0.300000005398996  C 12.2999999818359 0.300000005398996  7 5.60000001289062  7 5.60000001289062  C 7 5.60000001289062  1.70000001816406 0.300000005398996  1.70000001816406 0.300000005398996  C 1.30000001113281 -0.100000001799665  0.700000012304688 -0.100000001799665  0.300000005273438 0.300000005398996  C -0.100000001757813 0.700000012597656  -0.100000001757812 1.3000000116769  0.300000005273438 1.70000001887556  C 0.300000005273438 1.70000001887556  5.60000001054687 7.00000000292969  5.60000001054687 7.00000000292969  C 5.60000001054687 7.00000000292969  0.300000005273438 12.2999999869838  0.300000005273438 12.2999999869838  C -0.100000001757812 12.6999999941825  -0.100000001757812 13.2999999932617  0.300000005273438 13.7000000004604  C 0.499999997070313 13.899999992341  0.700000012304687 14  1.00000001171875 14  C 1.30000001113281 14  1.50000000292969 13.899999992341  1.70000001816406 13.7000000004604  C 1.70000001816406 13.7000000004604  7 8.39999999296875  7 8.39999999296875  C 7 8.39999999296875  12.2999999818359 13.7000000004604  12.2999999818359 13.7000000004604  C 12.4999999736328 13.899999992341  12.7999999730469 14  12.9999999882812 14  C 13.2000000035156 14  13.4999999794922 13.899999992341  13.6999999947266 13.7000000004604  C 14.1000000017578 13.2999999932617  14.1000000017578 12.6999999941825  13.6999999947266 12.2999999869838  Z " fill-rule="nonzero" fill="#d4d0d0" stroke="none" transform="matrix(1 0 0 1 584 50 )" />
  </g>
</svg>