<?xml version="1.0" encoding="utf-8"?>
<svg version="1.1" xmlns:xlink="http://www.w3.org/1999/xlink" width="8px" height="8px" xmlns="http://www.w3.org/2000/svg">
  <g transform="matrix(1 0 0 1 -16 -16 )">
    <path d="M 7.82857142555804 7.02857142113361  C 7.82857142555804 7.02857142113361  4.79999999397321 4.00000000167411  4.79999999397321 4.00000000167411  C 4.79999999397321 4.00000000167411  7.82857142555804 0.971428582214605  7.82857142555804 0.971428582214605  C 8.05714285814732 0.742857149529656  8.05714285814732 0.400000007198661  7.82857142555804 0.171428574513712  C 7.59999999296875 -0.0571428581712374  7.25714285078125 -0.057142858171237  7.02857141819196 0.171428574513712  C 7.02857141819196 0.171428574513712  4 3.20000000736607  4 3.20000000736607  C 4 3.20000000736607  0.971428581808036 0.171428574513712  0.971428581808036 0.171428574513712  C 0.74285714921875 -0.057142858171237  0.40000000703125 -0.057142858171237  0.171428574441964 0.171428574513712  C -0.0571428581473216 0.400000007198661  -0.0571428581473212 0.742857149529656  0.171428574441964 0.971428582214605  C 0.171428574441964 0.971428582214605  3.20000000602678 4.00000000167411  3.20000000602678 4.00000000167411  C 3.20000000602678 4.00000000167411  0.171428574441964 7.02857142113361  0.171428574441964 7.02857142113361  C -0.0571428581473212 7.25714285381856  -0.0571428581473212 7.59999999614955  0.171428574441964 7.8285714288345  C 0.285714284040179 7.94285713848055  0.40000000703125 8  0.571428578125 8  C 0.74285714921875 8  0.857142858816964 7.94285713848055  0.971428581808036 7.8285714288345  C 0.971428581808036 7.8285714288345  4 4.79999999598214  4 4.79999999598214  C 4 4.79999999598214  7.02857141819196 7.8285714288345  7.02857141819196 7.8285714288345  C 7.14285712779018 7.94285713848055  7.31428569888393 8  7.428571421875 8  C 7.54285714486607 8  7.71428570256696 7.94285713848055  7.82857142555804 7.8285714288345  C 8.05714285814732 7.59999999614955  8.05714285814732 7.25714285381856  7.82857142555804 7.02857142113361  Z " fill-rule="nonzero" fill="#d4d0d0" stroke="none" transform="matrix(1 0 0 1 16 16 )" />
  </g>
</svg>