<?xml version="1.0" encoding="utf-8"?>
<svg version="1.1" xmlns:xlink="http://www.w3.org/1999/xlink" width="5px" height="6px" xmlns="http://www.w3.org/2000/svg">
  <g transform="matrix(1 0 0 1 -15 -45 )">
    <path d="M 2.57352941617867 0  C 1.61764706042861 0  0.661764704678546 0.449999998260498  0 1.27500000434876  C 0 1.27500000434876  0.735294120857213 2.02500000608826  0.735294120857213 2.02500000608826  C 1.10294117446424 1.500000003479  1.76470589278594 1.2  2.42647058382133 1.12500000956726  C 2.42647058382133 1.12500000956726  2.64705881871418 1.12500000956726  2.64705881871418 1.12500000956726  C 3.23529410721406 1.12500000956726  3.74999999317842 1.72500000260925  3.67647059064291 2.32500000956726  C 3.67647059064291 3.60000001391602  1.47058822807127 4.12500000260925  1.76470587914279 6  C 1.76470587914279 6  2.9411764697857 6  2.9411764697857 6  C 2.72058823489285 4.27499999739075  5 3.97500000782776  5 2.17500000086975  C 5 0.825000006088257  3.97058822807127 0  2.57352941617867 0  Z " fill-rule="nonzero" fill="#e3e3e3" stroke="none" transform="matrix(1 0 0 1 15 45 )" />
  </g>
</svg>