<?xml version="1.0" encoding="utf-8"?>
<svg version="1.1" xmlns:xlink="http://www.w3.org/1999/xlink" width="5px" height="5px" xmlns="http://www.w3.org/2000/svg">
  <g transform="matrix(1 0 0 1 -43 -19 )">
    <path d="M 4.263532566031 4.26296089921163  C 5.2454891446563 3.28688483959399  5.2454891446563 1.71316574053992  4.263532566031 0.737039100788365  C 3.78257839413946 0.239036983721007  3.14128920333016 0  2.50000001252087 0  C 1.85871082171158 0  1.21742163090229 0.239036983721007  0.736467433968979 0.737039100788365  C -0.245489144656324 1.71311516040601  -0.245489144656324 3.28683425946008  0.736467433968979 4.26296089921163  C 1.21742160586052 4.74103484176192  1.85871079666981 5  2.50000001252087 5  C 3.14128922837193 5  3.78257839413946 4.76096301627899  4.263532566031 4.26296089921163  Z M 1.15727690133392 1.15537907502949  C 1.51799252399213 0.796773044205793  1.99899760578714 0.597592409518938  2.5000000125209 0.597592434410785  C 3.00100241925465 0.597592434410785  3.4819565911462 0.796773044205793  3.84272312370788 1.15537907502949  C 4.2034387463661 1.51393452571926  4.40387026001003 1.9920590732952  4.40387023496827 2.49006119036255  C 4.40387020992651 2.98806330742991  4.2034896312278 3.46613724998019  3.84272312370788 3.82474330569562  C 3.48200750104966 4.1832987563854  3.00100241925466 4.38252997120617  2.5000000125209 4.38252997120617  C 1.99899760578714 4.38252997120617  1.5180434338956 4.18334936141116  1.15727690133392 3.82474330569562  C 0.796561278675699 3.46618785500596  0.596129765031766 2.98806330742991  0.596129765031766 2.49006119036255  C 0.596129765031766 1.9920590732952  0.796510368772235 1.51398513074503  1.15727690133392 1.15537907502949  Z " fill-rule="nonzero" fill="#324d5b" stroke="none" transform="matrix(1 0 0 1 43 19 )" />
  </g>
</svg>