<?xml version="1.0" encoding="utf-8"?>
<svg version="1.1" xmlns:xlink="http://www.w3.org/1999/xlink" width="15px" height="15px" xmlns="http://www.w3.org/2000/svg">
  <g transform="matrix(1 0 0 1 -10 -42 )">
    <path d="M 7.20000000000005 14.4  C 11.1410526375 14.4  14.4 11.1410526375  14.4 7.19999999999999  C 14.4 3.25894736250001  11.1410526375 0  7.20000000000005 0  C 3.25894736249995 0  0 3.25894736250001  0 7.19999999999999  C 0 11.1410526375  3.25894736249995 14.4  7.20000000000005 14.4  Z M 7.20000000000005 0.757894739062522  C 10.7621052609376 0.757894739062522  13.6421052609376 3.63789473906252  13.6421052609376 7.19999999999999  C 13.6421052609376 10.7621052609375  10.7621052609376 13.6421052609375  7.20000000000005 13.6421052609375  C 3.63789473906252 13.6421052609375  0.757894739062522 10.7621052609375  0.757894739062522 7.19999999999999  C 0.757894739062522 3.63789473906252  3.63789473906252 0.757894739062522  7.20000000000005 0.757894739062522  Z " fill-rule="nonzero" fill="#e3e3e3" stroke="none" transform="matrix(1 0 0 1 10 42 )" />
  </g>
</svg>