<?xml version="1.0" encoding="utf-8"?>
<svg version="1.1" xmlns:xlink="http://www.w3.org/1999/xlink" width="27px" height="13px" xmlns="http://www.w3.org/2000/svg">
  <g transform="matrix(1 0 0 1 -29 -70 )">
    <path d="M 1.82959999999999 0.284600009375026  C 1.43779999062499 2.99840001875009  1.26979999999999 4.94540000000006  1.32680000937499 6.12499999062504  C 1.41080001874999 7.87940000000003  1.57579999999999 9.07939998125005  2.02639999062499 10.047199990625  C 2.47759999999999 11.0143999812501  3.28099999062499 11.1050000000001  4.13359999999999 10.7329999906251  C 4.98559999062499 10.3609999812501  5.71039999999999 9.15859998125006  6.53299999999999 7.96999999062507  C 6.88160000937499 7.46599999062505  7.58779999999999 7.07959998125011  8.45899999999999 6.83599999062506  C 9.07699999062499 6.66440000000011  10.7306 6.60799998125003  13.421000009375 6.66800000000001  C 13.421000009375 6.66800000000001  10.074800009375 6.68000000937502  10.074800009375 6.68000000937502  C 8.88621998515113 6.68433587810807  7.7763842157383 7.27506577899715  7.10899999999999 8.25860000937507  C 7.10899999999999 8.25860000937507  7.02499999062499 8.38880000000006  7.02499999062499 8.38880000000006  C 7.02499999062499 8.38880000000006  4.75400000937499 12.0656000093751  4.75400000937499 12.0656000093751  C 4.39407963122246 12.6484972956304  3.7344819946289 12.9765551466799  3.05247930664678 12.9118693018729  C 2.37047661866465 12.847183457066  1.7843162847993 12.4009693169518  1.54039999062499 11.7607999906251  C 1.10728057137162 10.6291209133053  0.864400268951229 9.43357403979655  0.821599999999989 8.22260000937501  C 0.722000009374987 5.44340000937507  0.954799999999992 3.37460001875002  1.82959999999999 0.284600009375026  Z M 25.384999990625 0.585200009375058  C 26.18659998125 3.501200009375  26.400199990625 5.52080000937508  26.303600009375 8.20339999999999  C 26.2607338807587 9.41417152362214  26.0178546518771 10.6095103319163  25.584799990625 11.740999990625  C 25.3411590376869 12.3815591780191  24.7549076493084 12.8281878622008  24.0726506054757 12.8930131091668  C 23.390393561643 12.9578383561328  22.7305185950199 12.6296114524004  22.370600009375 12.0464000000001  C 22.370600009375 12.0464000000001  20.105 8.37679999062505  20.105 8.37679999062505  C 19.4492802878728 7.31471314920623  18.2901974082506 6.66807886655204  17.041999990625 6.66800000000001  C 17.041999990625 6.66800000000001  13.4252 6.66800000000001  13.4252 6.66800000000001  C 16.3304 6.6080000093749  18.092000009375 6.64460000000008  18.709400009375 6.81680000937502  C 19.580600009375 7.06040000000007  20.2868 7.44680000937501  20.635400009375 7.95080000937503  C 21.4586 9.13880000937502  22.183400009375 10.341200009375  23.0354 10.7131999906251  C 23.887399990625 11.0852  24.6914 10.9952000000001  25.1414 10.027399990625  C 25.592600009375 9.05959998125002  25.757599990625 7.86019999062501  25.8416 6.105800009375  C 25.896199990625 4.97239999999999  25.743800009375 3.13220000937508  25.384999990625 0.585200009375058  Z " fill-rule="nonzero" fill="#fc280e" stroke="none" transform="matrix(1 0 0 1 29 70 )" />
  </g>
</svg>