<?xml version="1.0" encoding="utf-8"?>
<svg version="1.1" xmlns:xlink="http://www.w3.org/1999/xlink" width="4px" height="11px" xmlns="http://www.w3.org/2000/svg">
  <g transform="matrix(1 0 0 1 -61 -133 )">
    <path d="M 0 0.647678314983252  C 0 0.289612254667306  0.286085825747705 0  0.639791937581276 0  C 0.993498049414848 0  1.27958387516255 0.289612254667306  1.27958387516255 0.647678314983252  C 1.27958387516255 0.647678314983252  1.27958387516255 10.3523216850167  1.27958387516255 10.3523216850167  C 1.27958387516255 10.7103877453327  0.993498049414848 11  0.639791937581276 11  C 0.286085825747705 11  0 10.7103877453327  0 10.3523216850167  C 0 10.3523216850167  0 0.647678314983252  0 0.647678314983252  Z M 2.72041612483745 0.647678314983252  C 2.72041612483745 0.289612254667306  3.00650195058515 0  3.36020806241872 0  C 3.70871261378416 0  4 0.289612254667306  4 0.647678314983252  C 4 0.647678314983252  4 10.3523216850167  4 10.3523216850167  C 4 10.7103877453327  3.7139141742523 11  3.36020806241872 11  C 3.00650195058515 11  2.72041612483745 10.7103877453327  2.72041612483745 10.3523216850167  C 2.72041612483745 10.3523216850167  2.72041612483745 0.647678314983252  2.72041612483745 0.647678314983252  Z " fill-rule="nonzero" fill="#f6f6f6" stroke="none" transform="matrix(1 0 0 1 61 133 )" />
  </g>
</svg>