<?xml version="1.0" encoding="utf-8"?>
<svg version="1.1" xmlns:xlink="http://www.w3.org/1999/xlink" width="20px" height="30px" xmlns="http://www.w3.org/2000/svg">
  <g transform="matrix(1 0 0 1 -407 -310 )">
    <path d="M 18 26.9315068493151  C 18 26.9315068493151  18 25.3503440161437  17.9090909090909 23  C 17.9090909090909 23  2.09090909090912 23  2 23.0020330470846  C 2 25.3503440161437  2 26.9315068493151  2 26.9315068493151  C 2 27.5191780821918  2.50232558139533 28  3.11627906976742 28  C 3.11627906976742 28  16.8837209302326 28  16.8837209302326 28  C 17.4976744186047 28  18 27.5191780821918  18 26.9315068493151  Z M 3.27272727272725 30  C 3.27272727272725 30  16.7272727272727 30  16.7272727272727 30  C 18.5272727272727 30  20 28.5705882352941  20 26.8233438485804  C 20 28.0347003154574  19.0545454545454 29  17.9090909090909 29  C 17.9090909090909 29  2.09090909090912 29  2.09090909090912 29  C 0.92727272727268 29  0 28.0157728706625  0 26.8235294117647  C 0 28.5705882352941  1.4727272727273 30  3.27272727272725 30  Z M 16.8837209302326 2  C 17.4976744186047 2  18 2.48082191780821  18 3.06849315068493  C 18 3.06849315068493  18 16.2275062162994  17.9090909090909 23  C 19.0545454545454 23  20 23.9652996845426  20 25.1705183233701  C 20 19.7983325472582  20 3.17647058823529  20 3.17647058823529  C 20 1.42941176470588  18.5272727272727 0  16.7272727272727 0  C 16.7272727272727 0  3.27272727272725 0  3.27272727272725 0  C 1.4727272727273 0  0 1.42941176470589  0 3.17647058823529  C 0 3.17647058823529  0 19.7983325472582  0 25.1766561514196  C 0 23.9652996845426  0.945454545454595 23  2 23.0020330470846  C 2 16.2275062162994  2 3.06849315068493  2 3.06849315068493  C 2 2.48082191780821  2.50232558139533 2  3.11627906976742 2  C 3.11627906976742 2  16.8837209302326 2  16.8837209302326 2  Z M 9.5 24  C 10.3241758241759 24  11 24.6758241758242  11 25.5  C 11 26.3241758241758  10.3241758241759 27  9.5 27  C 8.67582417582412 27  8 26.3241758241758  8 25.5  C 8 24.6758241758242  8.67582417582423 24  9.5 24  Z " fill-rule="nonzero" fill="#3e73a4" stroke="none" transform="matrix(1 0 0 1 407 310 )" />
  </g>
</svg>