<?xml version="1.0" encoding="utf-8"?>
<svg version="1.1" xmlns:xlink="http://www.w3.org/1999/xlink" width="5px" height="5px" xmlns="http://www.w3.org/2000/svg">
  <g transform="matrix(1 0 0 1 -44 -71 )">
    <path d="M 0.821599990625003 2.64580000000001  C 0.821599990625003 1.65168745030462  1.62748744092958 0.845800000000054  2.621599990625 0.845800000000054  C 3.26467806523651 0.84579998083484  3.8589067193022 1.18887803847815  4.18044576214048 1.74579998451429  C 4.50198480497875 2.30272193055043  4.50198480497875 2.9888780694497  4.18044576214048 3.54580001548584  C 3.8589067193022 4.10272196152198  3.26467806523651 4.44580001916529  2.621599990625 4.44580000000008  C 1.62748744092958 4.44580000000008  0.821599990625003 3.63991254969551  0.821599990625003 2.64580000000001  Z M 3.8216 2.64580000000001  C 3.8216 1.98305829502533  3.28434169559962 1.44579999062501  2.621599990625 1.44579999062501  C 1.95885828565038 1.44579999062501  1.42159998125 1.98305829502533  1.42159998125 2.64580000000001  C 1.42159998125 3.30854170497469  1.95885828565038 3.84580000937501  2.621599990625 3.84580000937501  C 3.28434169559962 3.84580000937501  3.8216 3.30854170497469  3.8216 2.64580000000001  Z " fill-rule="nonzero" fill="#ffd3a5" stroke="none" transform="matrix(1 0 0 1 44 71 )" />
  </g>
</svg>