<?xml version="1.0" encoding="utf-8"?>
<svg version="1.1" xmlns:xlink="http://www.w3.org/1999/xlink" width="18px" height="18px" xmlns="http://www.w3.org/2000/svg">
  <g transform="matrix(1 0 0 1 -57 -209 )">
    <path d="M 4.28577296907071 16.3559229433594  C 4.28577296907071 16.3559229433594  13.1920183854953 16.3559229433594  13.1920183854953 16.3559229433594  C 13.5277742472491 17.312084015625  14.441199194957 18  15.5132586697248 18  C 16.8689587712411 18  17.9721817433797 16.899264140625  17.9721817433797 15.5466203378906  C 17.9723578161004 14.1930981914062  16.8689587712411 13.0930650175781  15.5132586697248 13.0930650175781  C 14.4473614759136 13.0930650175781  13.5383381524267 13.7723732753906  13.1978285386283 14.7201022792969  C 13.1978285386283 14.7201022792969  4.28577296907071 14.7201022792969  4.28577296907071 14.7201022792969  C 2.86809800063639 14.7201022792969  1.71434439512529 13.6193664199219  1.71434441274312 12.2667226171875  C 1.71434441274312 10.9132004707031  2.86809801825422 9.81334295507816  4.28577296907071 9.81334295507816  C 4.28577296907071 9.81334295507816  6.68729887274935 9.81334295507816  6.68729887274935 9.81334295507816  C 7.03080158185679 10.7552749042969  7.93700788275532 11.42966446875  8.99885558016905 11.42966446875  C 10.0601750946564 11.42966446875  10.9665574506578 10.7550992460938  11.3104122875887 9.81334295507816  C 11.3104122875887 9.81334295507816  13.7144030860322 9.81334295507816  13.7144030860322 9.81334295507816  C 16.07737077281 9.81351863085939  18 7.97919310546877  18 5.72449398046876  C 18 3.46979485546876  16.07737077281 1.63546933007814  13.7142270309293 1.63546933007814  C 13.7142270309293 1.63546933007814  4.78227612482567 1.63546933007814  4.78227612482567 1.63546933007814  C 4.44405535068921 0.683348625000008  3.53239105971687 0  2.46385289842016 0  C 1.10744852363888 0  0.00492982476527004 1.09985751562499  0.00492982476527004 2.45320398632811  C 0.00492982476527004 3.80584778906251  1.10744852363888 4.9065836484375  2.46385289842016 4.9065836484375  C 3.53221500461399 4.9065836484375  4.4437032404835 4.22288368945311  4.78210006972279 3.27111431835937  C 4.78210006972279 3.27111431835937  13.7142270309293 3.27111431835937  13.7142270309293 3.27111431835937  C 15.1319019993636 3.27111431835937  16.2856556048747 4.37185017773436  16.2856556048747 5.72449398046876  C 16.2856556048747 7.07801612695312  15.1319019993636 8.17787364257811  13.7142270309293 8.17787364257811  C 13.7142270309293 8.17787364257811  11.324145360796 8.17787364257811  11.324145360796 8.17787364257811  C 10.9913826119691 7.21573985742185  10.0746124235108 6.52308083789063  8.9990316528897 6.52308082031249  C 7.92274662662157 6.52308082031249  7.00650463870755 7.21556418164062  6.67391794498343 8.17787364257811  C 6.67391794498343 8.17787364257811  4.28577296907071 8.17787364257811  4.28577296907071 8.17787364257811  C 1.92262922718999 8.17787364257811  0 10.0121991679687  0 12.2668982929687  C 0 14.5215974179687  1.92262924480781 16.3559229433594  4.28577296907071 16.3559229433594  Z M 1.27559055478793 2.45496067382817  C 1.27559055478793 1.80165128906253  1.8078348872375 1.2706068339844  2.46262044222885 1.2706068339844  C 3.11705385177879 1.2706068339844  3.64965032966978 1.80165127148439  3.64965031205196 2.45496067382817  C 3.64965031205196 3.10791872460942  3.11705385177879 3.63931451367193  2.46262044222885 3.63931449609379  C 1.80783490485538 3.63931449609379  1.27559055478793 3.10791872460942  1.27559055478793 2.45496067382817  Z M 8.99885558016899 10.1609899804687  C 8.34407004279552 10.1609899804687  7.81182569272806 9.62959420898437  7.81182569272806 8.97663615820312  C 7.81200176544877 8.32315109765625  8.34407002517764 7.79228231835936  8.99885558016899 7.79228231835936  C 9.65328898971893 7.79228231835936  10.1858854676099 8.32332675585934  10.1858854676099 8.97663615820312  C 10.1858854676099 9.62959420898437  9.65328900733681 10.1609899980469  8.99885558016899 10.1609899804687  Z M 15.5132586697247 14.3620908398437  C 16.1676920792747 14.3620908398437  16.7002885571657 14.8931352773437  16.7002885571657 15.5464446796875  C 16.7002885571657 16.1994027304688  16.1676920968926 16.7307985195313  15.5132586697247 16.7307985019531  C 14.8584731323513 16.7307985019531  14.3262287822838 16.1994027304688  14.3262287822838 15.5464446796875  C 14.3262287822838 14.8931352949219  14.8584731147334 14.3620908398437  15.5132586697247 14.3620908398437  Z " fill-rule="nonzero" fill="#edecf0" stroke="none" transform="matrix(1 0 0 1 57 209 )" />
  </g>
</svg>