<?xml version="1.0" encoding="utf-8"?>
<svg version="1.1" xmlns:xlink="http://www.w3.org/1999/xlink" width="26px" height="13px" xmlns="http://www.w3.org/2000/svg">
  <g transform="matrix(1 0 0 1 -30 -69 )">
    <path d="M 0.0586000093749988 9.10619999999994  L 0.0586000093749988 4.64580000000001  C 0.0586000093749988 4.64580000000001  0.987400009375001 0.74579999062496  0.987400009375001 0.74579999062496  C 0.9574 5.42459998124991  1.1086 8.14379999062498  1.440399990625 8.90400000937495  C 1.9384 10.044  2.88819998125 10.2918000093749  4.0552 9.418199990625  C 5.2216 8.54459999999995  6.1648 7.79879998125  7.621599990625 7.79880000937499  C 8.593 7.79880000937499  10.19259998125 7.75560000937492  12.4216 7.66800000000001  C 12.4216 7.66800000000001  12.4216 8.90400000937495  12.4216 8.90400000937495  L 7.324 8.90400000937495  L 5.659599990625 9.418199990625  L 3.4216 12.6378  L 0.987400009375001 12.377399990625  L 0.0586000093749988 9.10619999999994  Z M 25.071400009375 4.65240000937501  L 24.141999990625 0.752399999999966  C 24.172 5.43119999062492  24.021399990625 8.15039999999999  23.6896 8.91059999062497  C 23.191599990625 10.05059998125  22.241800009375 10.2983999906249  21.074799990625 9.4248  C 19.908399990625 8.55120000937495  18.965199990625 7.806000009375  17.5084 7.806000009375  C 16.536999990625 7.806000009375  14.936799990625 7.76220001874992  12.708399990625 7.67520000000002  C 12.708399990625 7.67520000000002  12.708399990625 8.91120000937497  12.708399990625 8.91120000937497  L 17.805999990625 8.91120000937497  L 19.4704 9.4248  L 21.708399990625 12.645  L 24.142600009375 12.384599990625  L 25.071400009375 9.11280000937495  L 25.071400009375 4.65240000937501  Z " fill-rule="nonzero" fill="#ff5c00" stroke="none" transform="matrix(1 0 0 1 30 69 )" />
  </g>
</svg>