<?xml version="1.0" encoding="utf-8"?>
<svg version="1.1" xmlns:xlink="http://www.w3.org/1999/xlink" width="7px" height="6px" xmlns="http://www.w3.org/2000/svg">
  <g transform="matrix(1 0 0 1 -47 -67 )">
    <path d="M 2.62160000000001 4.24580000937499  C 2.62159999254079 4.08667011308478  2.68481409247937 3.93405776050452  2.79733591859852 3.82153592911095  C 2.90985774471766 3.70901409771739  3.06247009433472 3.64579999062505  3.22159999062501 3.64579999062505  C 3.22159999062501 3.64579999062505  3.82160000937501 3.64579999062505  3.821600009375 3.64579999062505  C 3.98072990566529 3.64579999062505  4.13334225528235 3.70901409771739  4.2458640814015 3.82153592911095  C 4.35838590752064 3.93405776050452  4.42160000745922 4.08667011308478  4.42160000000001 4.24580000937499  C 4.42160000000001 4.24580000937499  4.42160000000001 4.84580000000005  4.42160000000001 4.84580000000005  C 4.42160000000001 5.17717084472088  4.15297085409581 5.44579999062501  3.821600009375 5.44579999062501  C 3.821600009375 5.44579999062501  3.221599990625 5.44579999062501  3.221599990625 5.44579999062501  C 2.8902291459042 5.44579999062501  2.62160000000001 5.17717084472076  2.62160000000001 4.84580000000005  C 2.62160000000001 4.84580000000005  2.62160000000001 4.24580000937499  2.62160000000001 4.24580000937499  Z M 0.821599999999997 2.44580000937492  C 0.821599992540783 2.28667011308471  0.88481409247936 2.13405776050445  0.997335918598502 2.02153592911088  C 1.10985774471765 1.90901409771732  1.26247009433471 1.84579999062498  1.421599990625 1.84579999062498  C 1.421599990625 1.84579999062498  2.021600009375 1.84579999062498  2.021600009375 1.84579999062498  C 2.18072990566529 1.84579999062498  2.33334225528235 1.90901409771732  2.44586408140149 2.02153592911088  C 2.55838590752064 2.13405776050445  2.62160000745921 2.28667011308471  2.6216 2.44580000937492  C 2.6216 2.44580000937492  2.6216 3.04579999999999  2.6216 3.04579999999999  C 2.6216 3.37717084472069  2.35297085409581 3.64579999062494  2.021600009375 3.64579999062494  C 2.021600009375 3.64579999062494  1.421599990625 3.64579999062494  1.421599990625 3.64579999062494  C 1.09022914590419 3.64579999062494  0.821599999999997 3.37717084472069  0.821599999999997 3.04579999999999  C 0.821599999999997 3.04579999999999  0.821599999999997 2.44580000937492  0.821599999999997 2.44580000937492  Z M 4.5973359185985 2.02153592911088  C 4.70985774471765 1.90901409771732  4.86247009433471 1.84579999062498  5.021599990625 1.84579999062498  C 5.021599990625 1.84579999062498  5.621600009375 1.84579999062498  5.621600009375 1.84579999062498  C 5.78072990566529 1.84579999062498  5.93334225528235 1.90901409771732  6.0458640814015 2.02153592911088  C 6.15838590752064 2.13405776050445  6.22160000745922 2.28667011308471  6.2216 2.44580000937492  C 6.2216 2.44580000937492  6.2216 3.04579999999999  6.2216 3.04579999999999  C 6.2216 3.37717084472069  5.95297085409581 3.64579999062494  5.621600009375 3.64579999062494  C 5.621600009375 3.64579999062494  5.021599990625 3.64579999062494  5.021599990625 3.64579999062494  C 4.86247009920768 3.64579999062494  4.70985775385287 3.58258588739341  4.5973359285422 3.47006406208277  C 4.48481410323153 3.35754223677213  4.4216 3.20492989141724  4.4216 3.04579999999999  C 4.4216 3.04579999999999  4.4216 2.44580000937492  4.4216 2.44580000937492  C 4.42159999254078 2.28667011308471  4.48481409247936 2.13405776050445  4.5973359185985 2.02153592911088  Z M 3.22159999062501 0.0457999906250279  C 3.22159999062501 0.0457999906250279  3.82160000937501 0.0457999906250279  3.821600009375 0.0457999906250279  C 3.98072990566529 0.0457999906250279  4.13334225528235 0.109014097717363  4.2458640814015 0.221535929110928  C 4.35838590752064 0.334057760504493  4.42160000745922 0.486670113084756  4.42160000000001 0.645800009374966  C 4.42160000000001 0.645800009374966  4.42160000000001 1.24580000000003  4.42160000000001 1.24580000000003  C 4.42160000000001 1.57717084472074  4.15297085409581 1.84579999062498  3.821600009375 1.84579999062498  C 3.821600009375 1.84579999062498  3.221599990625 1.84579999062498  3.221599990625 1.84579999062498  C 2.8902291459042 1.84579999062498  2.62160000000001 1.57717084472074  2.62160000000001 1.24580000000003  C 2.62160000000001 1.24580000000003  2.62160000000001 0.645800009374966  2.62160000000001 0.645800009374966  C 2.62159999254079 0.486670113084756  2.68481409247937 0.334057760504493  2.79733591859852 0.221535929110928  C 2.90985774471766 0.10901409771725  3.06247009433472 0.0457999906250279  3.22159999062501 0.0457999906250279  Z " fill-rule="nonzero" fill="#ffcea5" stroke="none" transform="matrix(1 0 0 1 47 67 )" />
  </g>
</svg>