<?xml version="1.0" encoding="utf-8"?>
<svg version="1.1" xmlns:xlink="http://www.w3.org/1999/xlink" width="20px" height="15px" xmlns="http://www.w3.org/2000/svg">
  <g transform="matrix(1 0 0 1 -754 -117 )">
    <path d="M 20 1.66666666666666  C 20 1.66666666666666  20 13.3333333333333  20 13.3333333333333  C 20 14.25  19.25 15  18.3333333333334 15  C 18.3333333333334 15  1.66666666666663 15  1.66666666666663 15  C 0.75 15  0 14.25  0 13.3333333333333  C 0 13.3333333333333  0 1.66666666666666  0 1.66666666666666  C 0 0.75  0.75 0  1.66666666666663 0  C 1.66666666666663 0  18.3333333333334 0  18.3333333333334 0  C 19.25 0  20 0.75  20 1.66666666666666  Z M 18.8888888802084 1.66666666666666  C 18.8888888802084 1.36111111979167  18.6388888802084 1.11111111979167  18.3333333333334 1.11111109375  C 18.3333333333334 1.11111109375  1.66666666666663 1.11111109375  1.66666666666663 1.11111109375  C 1.36111111979164 1.11111109375  1.11111111979164 1.36111109375  1.11111111979164 1.66666666666666  C 1.11111111979164 1.66666666666666  1.11111111979164 13.3333333333333  1.11111111979164 13.3333333333333  C 1.11111111979164 13.6388888802084  1.36111111979164 13.8888888802084  1.66666666666663 13.8888888802084  C 1.66666666666663 13.8888888802084  18.3333333333334 13.8888888802084  18.3333333333334 13.8888888802084  C 18.6388888802084 13.8888888802084  18.8888888802084 13.6388888802084  18.8888888802084 13.3333333333333  C 18.8888888802084 13.3333333333333  18.8888888802084 1.66666666666666  18.8888888802084 1.66666666666666  Z " fill-rule="nonzero" fill="#d9d3ea" stroke="none" transform="matrix(1 0 0 1 754 117 )" />
  </g>
</svg>