<?xml version="1.0" encoding="utf-8"?>
<svg version="1.1" xmlns:xlink="http://www.w3.org/1999/xlink" width="7px" height="7px" xmlns="http://www.w3.org/2000/svg">
  <g transform="matrix(1 0 0 1 -47 -67 )">
    <path d="M 2.62160000000001 5.44579999062501  C 2.62160000000001 5.44579999062501  2.62160000000001 4.84579999999994  2.62160000000001 4.84579999999994  C 2.62160000000001 4.51442915527923  2.8902291459042 4.24580000937499  3.22159999062501 4.24580000937499  C 3.22159999062501 4.24580000937499  3.82160000937501 4.24580000937499  3.821600009375 4.24580000937499  C 4.15297085409581 4.24580000937499  4.42160000000001 4.51442915527923  4.42160000000001 4.84579999999994  C 4.42160000000001 4.84579999999994  4.42160000000001 5.44579999062501  4.42160000000001 5.44579999062501  C 4.42160000745922 5.60492988691522  4.35838590752064 5.75754223949548  4.2458640814015 5.87006407088904  C 4.13334225528235 5.98258590228261  3.98072990566529 6.04580000937494  3.821600009375 6.04580000937494  C 3.821600009375 6.04580000937494  3.221599990625 6.04580000937494  3.221599990625 6.04580000937494  C 3.06247009433472 6.04580000937494  2.90985774471766 5.98258590228261  2.79733591859851 5.87006407088904  C 2.68481409247937 5.75754223949548  2.62159999254079 5.60492988691522  2.62160000000001 5.44579999062501  Z M 0.997335918598509 4.07006407088898  C 0.884814092479367 3.95754223949541  0.821599992540783 3.80492988691515  0.821599999999997 3.64579999062494  C 0.821599999999997 3.64579999062494  0.821599999999997 3.04579999999987  0.821599999999997 3.04579999999987  C 0.821599999999997 2.71442915527916  1.09022914590419 2.44580000937492  1.421599990625 2.44580000937492  C 1.421599990625 2.44580000937492  2.021600009375 2.44580000937492  2.021600009375 2.44580000937492  C 2.35297085409581 2.44580000937492  2.6216 2.71442915527916  2.6216 3.04579999999987  C 2.6216 3.04579999999987  2.6216 3.64579999062494  2.6216 3.64579999062494  C 2.62160000745921 3.80492988691515  2.55838590752063 3.95754223949541  2.44586408140149 4.07006407088898  C 2.33334225528235 4.18258590228254  2.18072990566529 4.24580000937488  2.021600009375 4.24580000937488  C 2.021600009375 4.24580000937488  1.421599990625 4.24580000937488  1.421599990625 4.24580000937488  C 1.26247009433471 4.24580000937488  1.10985774471765 4.18258590228254  0.997335918598509 4.07006407088898  Z M 4.4216 3.04579999999987  C 4.4216 2.71442915527916  4.69022914590419 2.44580000937492  5.021599990625 2.44580000937492  C 5.021599990625 2.44580000937492  5.621600009375 2.44580000937492  5.62160000937501 2.44580000937492  C 5.95297085409582 2.44580000937492  6.22160000000001 2.71442915527916  6.22160000000001 3.04579999999987  C 6.22160000000001 3.04579999999987  6.22160000000001 3.64579999062494  6.22160000000001 3.64579999062494  C 6.22160000745922 3.80492988691515  6.15838590752064 3.95754223949541  6.0458640814015 4.07006407088898  C 5.93334225528235 4.18258590228254  5.7807299056653 4.24580000937488  5.62160000937501 4.24580000937488  C 5.62160000937501 4.24580000937488  5.02159999062501 4.24580000937488  5.02159999062501 4.24580000937488  C 4.86247009433472 4.24580000937488  4.70985774471765 4.18258590228265  4.59733591859851 4.07006407088898  C 4.48481409247937 3.95754223949541  4.42159999254078 3.80492988691515  4.4216 3.64579999062494  C 4.4216 3.64579999062494  4.4216 3.04579999999987  4.4216 3.04579999999987  Z M 3.22159999062501 0.645800009374966  C 3.22159999062501 0.645800009374966  3.82160000937501 0.645800009374966  3.821600009375 0.645800009374966  C 4.15297085409581 0.645800009374966  4.42160000000001 0.914429155279095  4.42160000000001 1.24579999999992  C 4.42160000000001 1.24579999999992  4.42160000000001 1.84579999062498  4.42160000000001 1.84579999062498  C 4.42160000745922 2.00492988691519  4.35838590752064 2.15754223949546  4.2458640814015 2.27006407088902  C 4.13334225528235 2.38258590228259  3.98072990566529 2.44580000937492  3.821600009375 2.44580000937492  C 3.821600009375 2.44580000937492  3.221599990625 2.44580000937492  3.221599990625 2.44580000937492  C 3.06247009433472 2.44580000937492  2.90985774471766 2.38258590228259  2.79733591859851 2.27006407088902  C 2.68481409247937 2.15754223949546  2.62159999254079 2.00492988691519  2.62160000000001 1.84579999062498  C 2.62160000000001 1.84579999062498  2.62160000000001 1.24579999999992  2.62160000000001 1.24579999999992  C 2.62160000000001 0.914429155279208  2.8902291459042 0.645800009374966  3.22159999062501 0.645800009374966  Z " fill-rule="nonzero" fill="#ff5c00" stroke="none" transform="matrix(1 0 0 1 47 67 )" />
  </g>
</svg>