<?xml version="1.0" encoding="utf-8"?>
<svg version="1.1" xmlns:xlink="http://www.w3.org/1999/xlink" width="15px" height="18px" xmlns="http://www.w3.org/2000/svg">
  <g transform="matrix(1 0 0 1 -56 -127 )">
    <path d="M 0.647589625851026 2.82834737147833  C 0.647589625851026 2.82834737147833  14.3522708948768 2.82834737147833  14.3522708948768 2.82834737147833  C 14.7102879238026 2.82834737147833  14.9998605207278 3.11588730758058  14.9998605207278 3.4713912285797  C 15.0051254770356 3.82689514957882  14.7155528801103 4.11443508568107  14.3575358511845 4.11443508568107  C 14.3575358511845 4.11443508568107  0.647589625851026 4.11443508568107  0.647589625851026 4.11443508568107  C 0.28957259692523 4.11443508568107  0 3.82689514957882  0 3.4713912285797  C 0 3.11588730758058  0.28957259692523 2.82834737147833  0.647589625851026 2.82834737147833  Z M 3.42748655633339 0  C 3.42748655633339 0  11.5829038770099 0  11.5829038770099 0  C 11.9409209059357 0  12.2304935028609 0.287539936102248  12.2304935028609 0.643043857101369  C 12.2304935028609 0.993319779262278  11.9356559496279 1.28608771420274  11.5776389207022 1.28608771420274  C 11.5776389207022 1.28608771420274  3.42748655633339 1.28608771420274  3.42748655633339 1.28608771420274  C 3.06946952740759 1.28608771420274  2.77989693048236 0.99854777810049  2.77989693048236 0.643043857101369  C 2.77989693048236 0.287539936102248  3.06946952740759 0  3.42748655633339 0  Z M 14.1837922930294 17.4249201277955  C 14.1837922930294 17.7438280569271  13.9258094339505 18  13.6046470991789 18  C 13.6046470991789 18  1.40047837785668 18  1.40047837785668 18  C 1.07931604308504 18  0.821333184006174 17.7438280569271  0.821333184006174 17.4249201277955  C 0.821333184006174 17.4249201277955  0.821333184006174 5.80307871042696  0.821333184006174 5.80307871042696  C 0.821333184006174 5.48417078129539  1.07931604308504 5.22799883822248  1.40047837785668 5.22799883822248  C 1.72164071262832 5.22799883822248  1.97962357170714 5.48417078129539  1.97962357170714 5.80307871042696  C 1.97962357170714 5.80307871042696  1.97962357170714 16.8498402555911  1.97962357170714 16.8498402555911  L 13.0255019053284 16.8498402555911  C 13.0255019053284 16.8498402555911  13.0255019053284 5.80307871042696  13.0255019053284 5.80307871042696  C 13.0255019053284 5.48417078129539  13.2834847644072 5.22799883822248  13.6046470991789 5.22799883822248  C 13.9258094339505 5.22799883822248  14.1837922930294 5.48417078129539  14.1837922930294 5.80307871042696  C 14.1837922930294 5.80307871042696  14.1837922930294 17.4249201277955  14.1837922930294 17.4249201277955  Z " fill-rule="nonzero" fill="#f0eff4" stroke="none" transform="matrix(1 0 0 1 56 127 )" />
  </g>
</svg>