<?xml version="1.0" encoding="utf-8"?>
<svg version="1.1" xmlns:xlink="http://www.w3.org/1999/xlink" width="17px" height="17px" xmlns="http://www.w3.org/2000/svg">
  <g transform="matrix(1 0 0 1 -55 -50 )">
    <path d="M 13.3535 9.1035  C 13.6868038465229 8.77019615347713  13.6868038465229 8.22980384652288  13.3535 7.8965  C 13.3535 7.8965  9.10349999999997 3.6465  9.10349999999997 3.6465  C 9.02087920015628 3.57141870460672  8.92600715929004 3.51104558769187  8.82299999999999 3.468  C 8.61605784761538 3.38298468457282  8.38394215238457 3.38298468457282  8.17699999999996 3.468  C 8.07399284070991 3.51104558769187  7.97912079984367 3.57141870460672  7.89649999999998 3.6465  C 7.89649999999998 3.6465  3.64649999999998 7.8965  3.64649999999998 7.8965  C 3.31319615347708 8.22980384652288  3.31319615347708 8.77019615347713  3.64649999999998 9.1035  C 3.97980384652288 9.43680384652289  4.52019615347707 9.43680384652289  4.85349999999997 9.1035  C 4.85349999999997 9.1035  7.64999999999996 6.2985  7.64999999999996 6.2985  C 7.64999999999996 6.2985  7.64999999999996 16.15  7.64999999999996 16.15  C 7.64999999999996 16.6194420373562  8.03055796264379 17  8.49999999999995 17  C 8.96944203735616 17  9.34999999999999 16.6194420373562  9.34999999999999 16.15  C 9.34999999999999 16.15  9.34999999999999 6.2985  9.34999999999999 6.2985  C 9.34999999999999 6.2985  12.1465 9.1035  12.1465 9.1035  C 12.4798038465229 9.43680384652289  13.0201961534771 9.43680384652289  13.3535 9.1035  Z M 16.15 1.70000000000001  C 16.6194420373562 1.70000000000001  17 1.31944203735618  17 0.84999999999999  C 17 0.380557962643826  16.6194420373562 0  16.15 0  C 16.15 0  0.84999999999999 0  0.84999999999999 0  C 0.380557962643826 0  0 0.380557962643826  0 0.84999999999999  C 0 1.31944203735618  0.380557962643826 1.70000000000001  0.84999999999999 1.70000000000001  C 0.84999999999999 1.70000000000001  16.15 1.70000000000001  16.15 1.70000000000001  Z " fill-rule="nonzero" fill="#f6f6f6" stroke="none" transform="matrix(1 0 0 1 55 50 )" />
  </g>
</svg>