<?xml version="1.0" encoding="utf-8"?>
<svg version="1.1" xmlns:xlink="http://www.w3.org/1999/xlink" width="23px" height="4px" xmlns="http://www.w3.org/2000/svg">
  <g transform="matrix(1 0 0 1 -31 -65 )">
    <path d="M 3.198600009375 0.845800009375012  L 5.186999990625 0.845800009375012  C 5.62845564069105 0.845911315991884  6.06132795606954 0.967779918198062  6.43799999062499 1.19799999062502  C 6.43799999062499 1.19799999062502  6.56100000937499 1.27840000000003  6.56100000937499 1.27840000000003  L 7.70401924641511 2.08237677390775  L 7.696800009375 2.08240000937496  L 6.14399999999999 1.59100000937497  C 6.14399999999999 1.59100000937497  3.12 1.64860000937495  3.12 1.64860000937495  C 2.47182941067287 1.66081830081407  1.88030106528539 2.02063988106897  1.571400009375 2.59059999999999  C 1.571400009375 2.59059999999999  1.20719999062499 3.26320000937494  1.20719999062499 3.26320000937494  L 0.440399990624996 3.27339999062497  C 0.440399990624996 3.27339999062497  0.536400009374994 2.97639999062494  0.536400009374994 2.97639999062494  C 0.840000018749997 2.04099998125002  1.4154 1.394199990625  2.2632 1.03539999999998  C 2.50953161200113 0.931235738657051  2.7715416174513 0.868977947165945  3.038400009375 0.85120000937502  C 3.038400009375 0.85120000937502  3.198600009375 0.845800009375012  3.198600009375 0.845800009375012  Z M 7.70400000937499 2.07639999062496  L 9.56099999062499 2.07639999062496  L 7.70400000937499 2.07639999062496  Z M 17.8908 0.846999990625022  C 17.8908 0.846999990625022  19.926000009375 0.845800009375012  19.926000009375 0.845800009375012  C 20.24779398836 0.845768824548259  20.5663081915549 0.910451075329661  20.8626 1.03599999062499  C 21.709800009375 1.39479998125  22.285199990625 2.04160000000002  22.5888 2.97639999062505  C 22.5888 2.97639999062505  22.675799990625 3.24700000937503  22.675799990625 3.24700000937503  L 21.917999990625 3.23800000937501  C 21.917999990625 3.23800000937501  21.5538 2.56599999062507  21.5538 2.56599999062507  C 21.2654731377844 2.03372783594705  20.7289077564343 1.6820295164506  20.125800009375 1.62999999062504  C 20.125800009375 1.62999999062504  20.005200009375 1.62340000937502  20.005200009375 1.62340000937502  L 16.981200009375 1.56580000937504  L 15.4284 2.05780000000004  C 15.4284 2.05780000000004  16.5174 1.27899999062504  16.5174 1.27899999062504  C 16.9202022246903 0.99784230079058  17.3995777736518 0.847055758522174  17.8908 0.846999990625022  Z " fill-rule="nonzero" fill="#ff5c00" stroke="none" transform="matrix(1 0 0 1 31 65 )" />
  </g>
</svg>