<?xml version="1.0" encoding="utf-8"?>
<svg version="1.1" xmlns:xlink="http://www.w3.org/1999/xlink" width="16px" height="16px" xmlns="http://www.w3.org/2000/svg">
  <g transform="matrix(1 0 0 1 -10 -69 )">
    <path d="M 8 15.5  C 12.15 15.5  15.5 12.15  15.5 8  C 15.5 3.85000000000002  12.15 0.5  8 0.5  C 3.85000000000002 0.5  0.5 3.85000000000002  0.5 8  C 0.5 12.15  3.85000000000002 15.5  8 15.5  Z M 8 1.5  C 11.6 1.5  14.5 4.39999999999998  14.5 8  C 14.5 11.6  11.6 14.5  8 14.5  C 4.39999999999998 14.5  1.5 11.6  1.5 8  C 1.5 4.39999999999998  4.39999999999998 1.5  8 1.5  Z " fill-rule="nonzero" fill="#d2d2d2" stroke="none" transform="matrix(1 0 0 1 10 69 )" />
  </g>
</svg>