<?xml version="1.0" encoding="utf-8"?>
<svg version="1.1" xmlns:xlink="http://www.w3.org/1999/xlink" width="14px" height="16px" xmlns="http://www.w3.org/2000/svg">
  <g transform="matrix(1 0 0 1 -10 -12 )">
    <path d="M 7.75854545312507 0.94690909374998  C 7.75854545312507 0.94690909374998  12.7956363593751 3.92872726562501  12.7956363593751 3.92872726562501  C 13.2625559711854 4.20826953367913  13.5475256858298 4.71325466272816  13.545454546875 5.25745454687501  C 13.545454546875 5.25745454687501  13.545454546875 10.8261818125  13.545454546875 10.8261818125  C 13.5475533697646 11.377395999582  13.2549505350134 11.8877175303488  12.7781818125001 12.164363640625  C 12.7781818125001 12.164363640625  7.74254545312499 15.0618181875  7.74254545312499 15.0618181875  C 7.28260668927771 15.327363956618  6.71593876384736 15.327363956618  6.25599999999997 15.0618181875  C 6.25599999999997 15.0618181875  1.22036364062501 12.164363640625  1.22036364062501 12.164363640625  C 0.744375273833725 11.8871292184447  0.45244694488656 11.3770170387024  0.454545453124979 10.8261818125  C 0.454545453124979 10.8261818125  0.454545453124979 5.25745454687501  0.454545453124979 5.25745454687501  C 0.452766545018676 4.71333087553575  0.737660332870519 4.20848029377078  1.20436364062505 3.92872726562501  C 1.20436364062505 3.92872726562501  6.23781818750001 0.94690909374998  6.23781818750001 0.94690909374998  C 6.70658067550551 0.668795027160286  7.28978296511957 0.668795027160286  7.75854545312507 0.94690909374998  Z M 7.26036364062497 14.499636359375  C 7.26036364062497 14.499636359375  12.5556363593751 11.46109090625  12.5556363593751 11.46109090625  C 12.722633164112 11.3646763305966  12.8252847593216 11.1862845040693  12.824727265625 10.993454546875  C 12.824727265625 10.993454546875  12.824727265625 5.11999999999995  12.824727265625 5.11999999999995  C 12.8253440192403 4.92962074512201  12.7251985532916 4.75312127179723  12.561454546875 4.65599999999995  C 12.561454546875 4.65599999999995  7.26400000000001 1.52872726562498  7.26400000000001 1.52872726562498  C 7.09964407254029 1.43134836447581  6.89526502120975 1.43134836447581  6.73090909375003 1.52872726562498  C 6.73090909375003 1.52872726562498  1.43781818750006 4.65599999999995  1.43781818750006 4.65599999999995  C 1.2738498383568 4.7532529664839  1.17367048938809 4.93008888163814  1.17454545312501 5.12072726562496  C 1.17454545312501 5.12072726562496  1.17454545312501 10.993454546875  1.17454545312501 10.993454546875  C 1.17383662300551 11.1863246714768  1.2765287805795 11.3647869888159  1.44363635937498 11.46109090625  C 1.44363635937498 11.46109090625  6.73890909375007 14.499636359375  6.73890909375007 14.499636359375  C 6.90028778554358 14.5926354911348  7.09898494883146 14.5926354911348  7.26036364062497 14.499636359375  Z M 7.01743794530478 4.55857310853264  C 8.91558884153142 4.56097175460667  10.4530771618685 6.10039304139406  10.4530909062501 7.99854545312496  C 10.4515494365934 8.91268615486194  10.0868297147291 9.78875206152901  9.43920728156036 10.4339193132998  C 8.79158484839172 11.0790865650707  7.91413996257211 11.4404761342205  7 11.438545453125  C 5.10186133260095 11.4313220416593  3.56829092320947 9.88799769699745  3.57310195586479 7.98985138221724  C 3.5779129885201 6.09170506743709  5.11928704907825 4.55617446245856  7.01743794530478 4.55857310853264  Z M 9.30254545312505 7.99854545312502  C 9.30138939980907 7.38909601601301  9.05812741262423 6.8050781551691  8.62629514017908 6.37501904140646  C 8.19446286773405 5.94495992764382  7.60944903487439 5.70410297516628  7 5.70545454687499  C 5.73480472487245 5.71067106479916  4.71289818606976 6.73962124705798  4.71637228549048 8.00482250650151  C 4.71984638491119 9.27002376594504  5.74738823250891 10.2933463949598  7.01259307662247 10.2916147206317  C 8.27779792073602 10.2898830463035  9.3025346990762 9.26375148225571  9.30254545312505 7.99854545312502  Z " fill-rule="nonzero" fill="#d4d4d4" stroke="none" transform="matrix(1 0 0 1 10 12 )" />
  </g>
</svg>