<?xml version="1.0" encoding="utf-8"?>
<svg version="1.1" xmlns:xlink="http://www.w3.org/1999/xlink" width="14px" height="13px" xmlns="http://www.w3.org/2000/svg">
  <g transform="matrix(1 0 0 1 -664 -116 )">
    <path d="M 671 116  C 674.92 116  678 118.86  678 122.5  C 678 126.14  674.92 129  671 129  C 667.08 129  664 126.14  664 122.5  C 664 118.86  667.08 116  671 116  Z " fill-rule="nonzero" fill="#ffffff" stroke="none" fill-opacity="0" />
    <path d="M 671 116.5  C 674.64 116.5  677.5 119.14  677.5 122.5  C 677.5 125.86  674.64 128.5  671 128.5  C 667.36 128.5  664.5 125.86  664.5 122.5  C 664.5 119.14  667.36 116.5  671 116.5  Z " stroke-width="1" stroke="#eaeaf0" fill="none" />
  </g>
</svg>