<?xml version="1.0" encoding="utf-8"?>
<svg version="1.1" xmlns:xlink="http://www.w3.org/1999/xlink" width="44px" height="44px" xmlns="http://www.w3.org/2000/svg">
  <g transform="matrix(1 0 0 1 -294 -186 )">
    <path d="M 43.51111105 22  C 43.4895853977384 33.8713309357267  33.8713309357267 43.4895853977384  22 43.51111105  C 10.1197414151683 43.51111105  0.488888950000003 33.8802585848317  0.488888950000003 22  C 0.488888950000003 10.1197414151683  10.1197414151683 0.488888950000003  22 0.488888950000003  C 33.8802585848317 0.488888950000003  43.51111105 10.1197414151683  43.51111105 22  Z M 39.6 22  C 39.6 12.279788402978  31.720211597022 4.4  22 4.4  C 12.279788402978 4.4  4.4 12.279788402978  4.4 22  C 4.4 31.720211597022  12.279788402978 39.6  22 39.6  C 31.720211597022 39.6  39.6 31.720211597022  39.6 22  Z " fill-rule="nonzero" fill="#7663ff" stroke="none" transform="matrix(1 0 0 1 294 186 )" />
  </g>
</svg>