<?xml version="1.0" encoding="utf-8"?>
<svg version="1.1" xmlns:xlink="http://www.w3.org/1999/xlink" width="102px" height="102px" xmlns="http://www.w3.org/2000/svg">
  <g transform="matrix(1 0 0 1 -264 -156 )">
    <path d="M 51 101.514285653571  C 23.1017303849361 101.514285653571  0.48571434642859 78.898269615064  0.48571434642859 51  C 0.48571434642859 23.1017303849361  23.1017303849361 0.48571434642859  51 0.48571434642859  C 78.898269615064 0.48571434642859  101.514285653571 23.1017303849361  101.514285653571 51  C 101.514285653571 78.898269615064  78.898269615064 101.514285653571  51 101.514285653571  Z M 97.6285714285714 51  C 97.6285714285714 25.2477510936041  76.7522489063958 4.37142857142857  51 4.37142857142857  C 25.2477510936041 4.37142857142857  4.37142857142857 25.2477510936041  4.37142857142857 51  C 4.37142857142857 76.7522489063958  25.2477510936041 97.6285714285714  51 97.6285714285714  C 76.7522489063958 97.6285714285714  97.6285714285714 76.7522489063958  97.6285714285714 51  Z " fill-rule="nonzero" fill="#7663ff" stroke="none" transform="matrix(1 0 0 1 264 156 )" />
  </g>
</svg>