<?xml version="1.0" encoding="utf-8"?>
<svg version="1.1" xmlns:xlink="http://www.w3.org/1999/xlink" width="161px" height="161px" xmlns="http://www.w3.org/2000/svg">
  <g transform="matrix(1 0 0 1 -235 -127 )">
    <path d="M 160.512121151136 80.5  C 160.469089778726 124.671637857087  124.671637857087 160.469089778726  80.5 160.512121151136  C 36.3105256866135 160.512121151136  0.487878848863663 124.689474313386  0.487878848863663 80.5  C 0.487878848863663 36.3105256866135  36.3105256866135 0.487878848863663  80.5 0.487878848863663  C 124.689474313386 0.487878848863663  160.512121151136 36.3105256866135  160.512121151136 80.5  Z M 156.609090909091 80.5  C 156.566063647788 38.4839451483003  122.5160548517 4.43393635221186  80.5 4.39090909090909  C 38.4661097674236 4.3909090909091  4.3909090909091 38.4661097674236  4.3909090909091 80.5  C 4.3909090909091 122.533890232576  38.4661097674236 156.609090909091  80.5 156.609090909091  C 122.533890232576 156.609090909091  156.609090909091 122.533890232576  156.609090909091 80.5  Z " fill-rule="nonzero" fill="#7663ff" stroke="none" transform="matrix(1 0 0 1 235 127 )" />
  </g>
</svg>