<?xml version="1.0" encoding="utf-8"?>
<svg version="1.1" xmlns:xlink="http://www.w3.org/1999/xlink" width="26px" height="26px" xmlns="http://www.w3.org/2000/svg">
  <g transform="matrix(1 0 0 1 -232 -130 )">
    <path d="M 3.77754460176991 16.6578295575221  C 2.41720412389381 13.2307373451327  3.08661784070796 9.4544789380531  5.31121350442478 6.73612371681416  L 5.2896967879646 8.25544038938053  L 8.3486803100885 8.31999176283186  L 8.46463347646018 1.57933990442478  L 1.72520568884956 1.46458326725664  L 1.66185084460177 4.52356678938053  L 3.15010672070796 4.54388850672566  C 0.0697325614159285 8.1206233739823  -0.889020889911505 13.195008860708  0.932671871150442 17.7874164713274  C 2.92656079150443 22.8152872677876  7.74034160566372 25.9782862058407  12.9665118711504 25.9782862058407  C 13.8486996941593 25.9782862058407  14.7428528092035 25.8874356713274  15.6370059242478 25.7021541952212  L 15.0118117649558 22.7065163368142  C 10.2841443313274 23.6915261067257  5.55861902159292 21.1489474518584  3.77759601274336 16.6577704961062  Z M 25.0659718584071 8.21112902654867  C 22.734973840708 2.3371192920354  16.5513353982301 -0.990823185840708  10.363963539823 0.297817345132743  L 10.9879642300885 3.29345520353982  C 15.7156316637168 2.30844543362832  20.4411569734513 4.85102408849557  22.2221799823009 9.33975290265487  C 23.5837139292035 12.7692932566372  22.9131067433628 16.5492238761062  20.6861241415929 19.267273079646  L 20.7052502477876 17.7347976460177  L 17.6450732566372 17.6774193274336  L 17.5410762017699 24.4168471150442  L 24.2805039893805 24.5208441699115  L 24.3378823079646 21.4618606477876  L 22.8603982548673 21.4427345415929  C 25.9325099362832 17.8684478159292  26.8875911752212 12.8001826831858  25.0658678123894 8.21114126725663  Z " fill-rule="nonzero" fill="#1890ff" stroke="none" transform="matrix(1 0 0 1 232 130 )" />
  </g>
</svg>