<?xml version="1.0" encoding="utf-8"?>
<svg version="1.1" xmlns:xlink="http://www.w3.org/1999/xlink" width="9px" height="17px" xmlns="http://www.w3.org/2000/svg">
  <g transform="matrix(1 0 0 1 -11 -227 )">
    <path d="M 7.658 14.3751146290761  L 1.98498701674107 8  L 7.658 1.62488537092391  C 7.80587589166733 1.45874185496822  7.88998077346881 1.22491790127252  7.88998077346881 0.979944667459239  C 7.88998077346881 0.495243683045097  7.56721866576876 0.102315899758078  7.16907142857143 0.102315899758078  C 6.98786544997694 0.102315899758078  6.81330520961775 0.185391602008727  6.68014285714286 0.335003963994566  L 0.433389601004463 7.35476680298913  C 0.285477648098286 7.52088561557208  0.201347068409188 7.75471876090417  0.201347068409188 7.99970750645381  C 0.201347068409188 8.24469625200343  0.285477648098288 8.47852939733553  0.433389601004463 8.64464820991848  L 6.68014285714286 15.6644110740489  C 6.81330521043664 15.8140234340393  6.98786545048683 15.8970991349532  7.16907142857143 15.8970991349532  C 7.56721866995868 15.8970991349532  7.88998078105533 15.5041713475312  7.88998078105533 15.0194703580163  C 7.88998078105533 14.7744971186593  7.80587589633923 14.5406731599508  7.658 14.3745296419837  Z " fill-rule="nonzero" fill="#aaa6a6" stroke="none" transform="matrix(1 0 0 1 11 227 )" />
  </g>
</svg>