<?xml version="1.0" encoding="utf-8"?>
<svg version="1.1" xmlns:xlink="http://www.w3.org/1999/xlink" width="7px" height="11px" xmlns="http://www.w3.org/2000/svg">
  <g transform="matrix(1 0 0 1 -14 -146 )">
    <path d="M 5.7435 8.98444664317255  L 1.4887402625558 5  L 5.7435 1.01555335682745  C 5.8544069187505 0.911713659355137  5.91748558010161 0.765573688295328  5.91748558010161 0.612465417162025  C 5.91748558010161 0.309527301903186  5.67541399932657 0.0639474373487987  5.37680357142857 0.0639474373487987  C 5.24089908748271 0.0639474373487987  5.10997890721332 0.115869751255455  5.01010714285714 0.209377477496604  L 0.325042200753347 4.59672925186821  C 0.214108236073715 4.70055350973255  0.151010301306891 4.84669922556511  0.151010301306891 4.99981719153363  C 0.151010301306891 5.15293515750215  0.214108236073716 5.29908087333471  0.325042200753347 5.40290513119905  L 5.01010714285714 9.79025692128057  C 5.10997890782748 9.88376464627457  5.24089908786512 9.93568695934577  5.37680357142857 9.93568695934577  C 5.67541400246901 9.93568695934577  5.9174855857915 9.69010709220701  5.9174855857915 9.38716897376019  C 5.9174855857915 9.23406069916205  5.85440692225442 9.08792072496925  5.7435 8.98408102623981  Z " fill-rule="nonzero" fill="#aaa6a6" stroke="none" transform="matrix(1 0 0 1 14 146 )" />
  </g>
</svg>