<?xml version="1.0" encoding="utf-8"?>
<svg version="1.1" xmlns:xlink="http://www.w3.org/1999/xlink" width="10px" height="48px" xmlns="http://www.w3.org/2000/svg">
  <g transform="matrix(1 0 0 1 -213 -95 )">
    <path d="M 0.0789700480769239 5.27998471875  L 2.04819509615384 31.199909671875  C 2.30961290072493 32.5901774578399  3.55235178970606 33.5999028536932  5.00203271634616 33.5999028536932  C 6.45171364298625 33.5999028536932  7.69445253196737 32.5901774578399  7.95587033653846 31.199909671875  L 9.92509538461538 4.799986125  C 9.91939428835892 2.15133284009065  7.71860016400958 0.0055585688500492  5.00203269230769 0  C 2.25669162062291 0.0660086112560864  0.0663956911495616 2.25485957124057  0.0663956911495616 4.93238089097741  C 0.0663956911495616 5.0483569137953  0.0705897488696212 5.16429688001486  0.0789700480769239 5.27998471875  Z M 5.28256474747915 38.3916324935367  C 5.18899016840327 38.3916324935367  5.09543690026435 38.3943858687496  5.0020326923077 38.399888859375  C 2.28310024488523 38.399888859375  0.0789700000000037 40.5489158481381  0.0789700000000037 43.199874984375  C 0.0789700000000037 45.8508341206119  2.28310024488523 47.999861109375  5.0020326923077 47.999861109375  C 7.72096513973016 47.999861109375  9.92509538461539 45.8508341206119  9.92509538461539 43.199874984375  C 9.93073947573897 43.1088058494265  9.93356344940223 43.0175914277458  9.93356344940223 42.9263562279117  C 9.93356344940223 40.4218974647207  7.85124040203408 38.3916324935367  5.28256474747915 38.3916324935367  Z " fill-rule="nonzero" fill="#ac3535" stroke="none" transform="matrix(1 0 0 1 213 95 )" />
  </g>
</svg>