<?xml version="1.0" encoding="utf-8"?>
<svg version="1.1" xmlns:xlink="http://www.w3.org/1999/xlink" width="88px" height="88px" xmlns="http://www.w3.org/2000/svg">
  <defs>
    <mask fill="white" id="clip121">
      <path d="M 0 43.834153859375  C 0 68.04430771875  19.6273846484375 87.67169228125  43.834153859375 87.67169228125  C 68.04430771875 87.67169228125  87.67169228125 68.0443076328125  87.67169228125 43.834153859375  C 87.67169228125 19.6307692109375  68.04430771875 0  43.8307692109375 0  C 19.6307692109375 0  0 19.6273846484375  0 43.834153859375  Z " fill-rule="evenodd" />
    </mask>
  </defs>
  <g transform="matrix(1 0 0 1 -174 -76 )">
    <path d="M 0 43.834153859375  C 0 68.04430771875  19.6273846484375 87.67169228125  43.834153859375 87.67169228125  C 68.04430771875 87.67169228125  87.67169228125 68.0443076328125  87.67169228125 43.834153859375  C 87.67169228125 19.6307692109375  68.04430771875 0  43.8307692109375 0  C 19.6307692109375 0  0 19.6273846484375  0 43.834153859375  Z " fill-rule="nonzero" fill="#409eff" stroke="none" fill-opacity="0" transform="matrix(1 0 0 1 174 76 )" />
    <path d="M 0 43.834153859375  C 0 68.04430771875  19.6273846484375 87.67169228125  43.834153859375 87.67169228125  C 68.04430771875 87.67169228125  87.67169228125 68.0443076328125  87.67169228125 43.834153859375  C 87.67169228125 19.6307692109375  68.04430771875 0  43.8307692109375 0  C 19.6307692109375 0  0 19.6273846484375  0 43.834153859375  Z " stroke-width="6" stroke="#ac3535" fill="none" transform="matrix(1 0 0 1 174 76 )" mask="url(#clip121)" />
  </g>
</svg>