<?xml version="1.0" encoding="utf-8"?>
<svg version="1.1" xmlns:xlink="http://www.w3.org/1999/xlink" width="62px" height="56px" xmlns="http://www.w3.org/2000/svg">
  <g transform="matrix(1 0 0 1 -316 -176 )">
    <path d="M 62 4.55760215053763  C 61.9084903846154 2.37601075268817  60.1428317307692 0.592741935483871  57.9831153846154 1  L 4.12478846153846 1  C 1.96507211538462 0.592741935483871  0.199413461538462 2.37601075268817  1 4.55760215053763  L 1 43.1847311827957  C 0.199413461538462 45.3663225806452  1.96499759615385 47.1496666666667  4.12478846153846 47.1496666666667  L 7.05600240384616 47.1496666666667  C 7.24453605769231 47.7036451612903  7.57025961538462 48.2576989247312  8.05023798076923 48.7770537634409  C 8.17021394230769 48.8982365591398  8.32446875 48.9849462365591  8.4959375 49.0368064516129  C 13.4154735576923 50.3180322580645  14.6324471153846 51.9109462365591  14.9068269230769 52.7419892473118  C 15.2325504807692 53.6769032258065  14.7011538461538 54.4213870967742  14.6668004807692 54.4733978494624  C 14.3582908653846 54.8715698924731  14.4267740384615 55.4603225806452  14.8211298076923 55.789247311828  C 15.2324759615385 56.118247311828  15.8152908653846 56.0489247311828  16.1409399038462 55.6333655913978  C 16.5866394230769 55.062  17.2037331730769 53.6942150537634  16.7066153846154 52.170623655914  C 16.00375 50.0755913978495  13.5011706730769 48.4135806451613  9.25014663461539 47.2707741935484  C 8.89014423076924 46.8379032258065  8.78730769230769 46.4917419354839  8.78730769230769 46.2146774193548  L 8.78730769230769 46.1973655913979  C 8.78730769230769 45.8165053763441  9.02733413461539 45.4355698924731  9.45581971153847 45.1065698924731  C 9.45581971153847 45.1065698924731  9.47288461538462 45.0893333333333  9.49002403846154 45.0893333333333  C 9.61 44.9854623655914  9.74718990384616 44.8988279569893  9.9013701923077 44.8295806451613  L 10.0042067307692 44.7775698924731  C 10.1928149038462 44.6736989247312  10.3985625 44.6044516129032  10.6042355769231 44.5352795698925  C 10.9299591346154 44.4486451612903  11.5126995192308 44.3447741935484  12.4555168269231 44.3447741935484  C 14.0838365384615 44.3447741935484  16.0036754807692 44.6737741935484  18.1463269230769 45.314311827957  C 18.5063293269231 45.4701935483871  18.8491923076923 45.6260752688172  19.2262596153846 45.8338172043011  C 19.3290961538462 45.8856774193548  19.4319326923077 45.955  19.5519831730769 46.006935483871  C 19.9976826923077 46.266688172043  20.4433822115385 46.5436774193548  20.9062211538462 46.8726021505376  C 20.9404254807692 46.8899139784946  20.9747788461539 46.9073010752688  21.0261971153846 46.9418494623656  C 28.2084350961539 52.0321290322581  27.4027331730769 54.5946559139785  27.4027331730769 54.5946559139785  C 27.1627067307692 55.0620752688172  27.3341754807692 55.6334408602151  27.7969399038462 55.8758817204301  C 27.9341298076923 55.962440860215  28.0883846153846 55.997064516129  28.2426394230769 55.997064516129  C 28.5683629807692 55.997064516129  28.8940120192308 55.8066344086022  29.0654807692308 55.4948709677419  C 29.3568509615385 54.9235806451613  30.3339471153846 52.084064516129  24.3858221153846 47  L 37.7218581730769 47  C 31.7737331730769 52.0841397849462  32.7508293269231 54.9236559139785  33.0421995192308 55.4948709677419  C 33.2136682692308 55.8066344086022  33.5393918269231 55.997064516129  33.8650408653846 55.997064516129  C 34.0192211538462 55.997064516129  34.1735504807692 55.9623655913978  34.3107403846154 55.8758817204301  C 34.7735048076923 55.6334408602151  34.9449735576923 55.0620752688172  34.7049471153846 54.5946559139785  C 34.7049471153846 54.5946559139785  33.8992451923077 52.0321290322581  41.0814831730769 46.9418494623656  C 41.1329759615385 46.9073010752688  41.1672548076923 46.8899892473118  41.2014591346154 46.8726021505376  C 41.6642980769231 46.5436021505376  42.1099975961539 46.266688172043  42.5556971153846 46.006935483871  C 42.6756730769231 45.9550752688172  42.7785096153846 45.885752688172  42.8814206730769 45.8338172043011  C 43.2584879807692 45.6260752688172  43.6013509615385 45.4701935483871  43.9613533653846 45.314311827957  C 46.1040048076923 44.6736989247312  48.02384375 44.3447741935484  49.6521634615385 44.3447741935484  C 50.5950552884615 44.3447741935484  51.1777956730769 44.4486451612903  51.5034447115385 44.5352795698925  C 51.7091177884615 44.6045268817204  51.9147908653846 44.6736989247312  52.1034735576923 44.7775698924731  L 52.2063100961538 44.8295806451613  C 52.3604903846154 44.8988279569893  52.4976802884615 44.9854623655914  52.61765625 45.0893333333333  C 52.6347956730769 45.0893333333333  52.6518605769231 45.1065698924731  52.6518605769231 45.1065698924731  C 53.0804206730769 45.4355698924731  53.3203725961538 45.8165053763441  53.3203725961538 46.1973655913979  L 53.3203725961538 46.2146774193548  C 53.3203725961538 46.4917419354839  53.2175360576923 46.8379784946237  52.8575336538461 47.2707741935484  C 48.6065096153846 48.4135053763441  46.1039302884615 50.0755913978495  45.4010649038461 52.170623655914  C 44.9040216346154 53.6942150537634  45.5210408653846 55.062  45.9667403846154 55.6333655913978  C 46.2924639423077 56.0488494623656  46.8752043269231 56.1181720430108  47.2865504807692 55.789247311828  C 47.68090625 55.460247311828  47.7493894230769 54.8715698924731  47.4408798076923 54.4733978494624  C 47.4065264423077 54.4213870967742  46.8752043269231 53.6769032258065  47.2008533653846 52.7419892473118  C 47.4751586538462 51.9109462365591  48.6921322115385 50.3180322580645  53.6117427884615 49.0368064516129  C 53.7832115384615 48.9849462365591  53.9374663461538 48.8982365591398  54.0574423076923 48.7770537634409  C 54.5374206730769 48.257623655914  54.8631442307692 47.7035698924731  55.0516778846154 47.1496666666667  L 57.9828918269231 47.1496666666667  C 60.1426081730769 47.1496666666667  61.9082668269231 45.3663225806452  62 43.1847311827957  L 62 4.55760215053763  Z M 17.9580913461538 28.5545053763441  C 17.2723653846154 30.4764193548387  16.4323100961538 32.8829139784946  18.3179447115385 37.8174623655914  C 19.4835745192308 40.8300215053763  18.7807836538462 42.5441182795699  18.2836658653846 43.2886021505376  C 18.19796875 43.2540537634409  18.1122716346154 43.2367419354839  18.0265745192308 43.2020430107527  C 16.9123629807692 42.7691720430108  15.8152908653846 42.5094193548387  14.8039903846154 42.371  C 14.71821875 42.353688172043  14.6153822115385 42.3363010752688  14.5296850961538 42.3363010752688  C 14.04978125 42.2670537634409  13.5869423076923 42.2497419354839  13.1412427884615 42.2324301075269  C 13.03840625 42.2324301075269  12.9355697115385 42.2497419354839  12.8327331730769 42.2497419354839  C 12.4556658653846 42.2670537634409  12.0956634615385 42.2842903225806  11.7528004807692 42.3363010752688  C 11.6671033653846 42.3363010752688  11.5642668269231 42.3536129032258  11.4785697115385 42.3536129032258  C 11.4099375 42.3709247311828  11.3413798076923 42.388311827957  11.2728966346154 42.4054731182796  C 11.5986201923077 40.8299462365591  11.8214326923077 38.5098602150538  10.7929182692308 36.9517204301075  C 9.69584615384616 35.2895591397849  9.43875480769231 30.1301075268817  10.7757788461539 26.2518064516129  C 11.3414543269231 24.5723333333333  10.6558028846154 21.5423870967742  10.1758990384615 19.8110537634409  L 18.5237668269231 19.8110537634409  C 18.8837692307692 21.0577311827957  19.4836490384615 24.2434086021505  18.0609278846154 28.2775161290323  L 17.9580913461538 28.5545053763441  Z M 51.3322740384615 26.2518064516129  C 52.6692235576923 30.1301075268817  52.4121322115385 35.289559139785  51.3150600961539 36.9517204301075  C 50.2865456730769 38.509935483871  50.5093581730769 40.8300215053763  50.8350817307692 42.4054731182796  L 50.6294086538462 42.3536129032258  C 50.5437115384615 42.3536129032258  50.440875 42.3363010752688  50.3551778846154 42.3363010752688  C 50.0123149038462 42.2842903225807  49.6523125 42.2670537634409  49.2752451923077 42.2497419354839  C 49.1724086538462 42.2497419354839  49.0695721153846 42.2324301075269  48.9667355769231 42.2324301075269  C 48.5210360576923 42.2497419354839  48.0581971153846 42.2671290322581  47.5782932692308 42.3363010752688  C 47.4925961538462 42.3363010752688  47.3897596153846 42.3536129032258  47.3039879807692 42.371  C 46.2926875 42.5094193548387  45.1956153846154 42.7691720430108  44.0814038461539 43.2020430107527  C 43.9957067307692 43.2366666666667  43.9100096153846 43.2540537634409  43.8243125 43.2886021505376  C 43.3271201923077 42.5441182795699  42.6244038461539 40.8300967741936  43.7899591346154 37.8174623655914  C 45.67559375 32.8829892473118  44.8355384615385 30.4764193548387  44.1499615384615 28.5545053763441  L 44.047125 28.2775161290323  C 42.6243293269231 24.2433333333334  43.2242836538462 21.0576559139785  43.5842860576923 19.8110537634409  L 51.9321538461538 19.8110537634409  C 51.45225 21.5424623655914  50.7665240384615 24.5723333333333  51.3322740384615 26.2518064516129  Z M 60 43.1846559139785  L 60.0399951923077 43.1846559139785  C 60.0399951923077 44.3274623655914  59.1143918269231 45.2623010752688  58.0001802884615 45.2623010752688  L 55.0519014423077 45.2623010752688  C 54.9662043269231 45.037247311828  54.8633677884615 44.8294301075269  54.7433918269231 44.639  L 54.7433918269231 44.621688172043  C 54.6405552884615 44.4831182795699  54.5548581730769 44.344623655914  54.4348822115385 44.2062043010753  C 54.4005288461538 44.1715053763441  54.36625 44.1196451612903  54.31490625 44.0850215053763  L 54.2634134615385 44.0330107526882  C 54.1230228028517 43.8912609287215  53.9742049550138 43.7582901427241  53.8177884615385 43.6348387096774  C 53.74915625 43.5828279569892  53.6978125 43.5309677419355  53.6291802884615 43.4962688172043  C 53.5092043269231 43.4097096774194  53.3720889423077 43.3231505376344  53.2349735576923 43.2365913978495  C 53.1664158653846 43.2019677419355  53.0977836538462 43.1499569892473  53.0293004807692 43.1154086021505  C 52.9949471153846 43.0980967741935  52.9778076923077 43.0980967741935  52.9436033653846 43.0807849462366  C 52.6007403846154 41.8688064516129  52.06934375 39.2371827956989  52.8749711538462 38.0078172043011  C 54.4177427884615 35.6704946236559  54.5205793269231 29.7664086021505  53.1149975961538 25.6284301075269  C 52.7207908653846 24.4857741935484  53.3206706730769 21.6982688172043  53.9035600961538 19.8110537634409  L 54.2634879807692 19.8110537634409  C 54.7948846153846 19.8110537634409  55.2063798076923 19.3955698924731  55.2063798076923 18.8588279569892  C 55.2063798076923 18.3394731182796  54.7948846153846 17.9239139784946  54.2634879807692 18  L 42.0930072115385 18  C 42.0917128254428 17.9239084704307  42.0904184292967 17.9239057163896  42.089124031714 17.9239057163896  C 41.5800675120256 17.9239057163896  41.1673956663294 18.3407286142971  41.1673956663294 18.8549057163896  C 41.1673956663294 18.856213134273  41.1673983929436 18.8575205507085  41.1674038461539 18.8588279569892  C 41.1674038461539 19.239688172043  41.3730769230769 19.534064516129  41.6815865384615 19.7071827956989  C 41.2530264423077 21.3866559139785  40.8073269230769 24.7282150537634  42.2814663461538 28.9008172043011  L 42.3843028846154 29.1951182795699  C 42.9843317307692 30.9092903225806  43.6699086538462 32.848440860215  42.0414399038462 37.1422258064516  C 40.7044903846154 40.6049677419355  41.4072067307692 42.8731182795699  42.1100721153846 44.0850967741935  C 42.0414399038462 44.1197204301075  41.9900961538462 44.1543440860215  41.9215384615385 44.1889677419355  C 41.4072067307692 44.4659569892473  40.8930240384615 44.7948817204301  40.3787668269231 45.1411935483871  C 40.3272740384615 45.1758924731183  40.2587908653846 45.210440860215  40.2073725961539 45  L 21.9004567307692 45  C 21.8491129807692 45.2103655913978  21.7805552884615 45.1758172043011  21.7290625 45.1411935483871  C 21.2148052884615 44.7948817204301  20.7006225961538 44.4659569892473  20.1862908653846 44.1889677419355  C 20.1177331730769 44.1542688172043  20.0663894230769 44.1197204301075  19.9977572115385 44.0850967741935  C 20.7006225961539 42.8731182795699  21.4033389423077 40.6049677419355  20.0663894230769 37.1422258064516  C 18.4379206730769 32.848440860215  19.1234975961538 30.9092903225806  19.7235264423077 29.1951182795699  L 19.8263629807692 28.9008172043011  C 21.3005024038462 24.7282150537634  20.8548028846154 21.3866559139785  20.4262427884615 19.7071827956989  C 20.7347524038462 19.534064516129  20.9405 19.239688172043  20.9405 18.8588279569892  C 20.9405 18.3394731182796  20.5291538461539 17.9239139784946  20.0148966346154 18  L 7.84456490384615 18  C 7.31316826923077 17.9239139784946  6.90167307692308 18.3393978494624  6.90167307692308 18.8588279569892  C 6.90167307692308 19.3955698924731  7.31316826923077 19.8110537634408  7.84456490384615 19.8110537634408  L 8.20449278846154 19.8110537634408  C 8.78738221153846 21.6982688172043  9.38726201923077 24.4857741935484  8.99305528846154 25.6284301075269  C 7.58747355769231 29.7664838709677  7.69031009615385 35.6704946236559  9.23308173076923 38.0078172043011  C 10.0387091346154 39.2371075268817  9.5073125 41.8687311827957  9.16444951923077 43.0807849462365  C 9.13024519230769 43.0980967741935  9.11310576923077 43.0980967741935  9.07875240384615 43.1154086021505  C 9.01019471153846 43.1499569892473  8.9415625 43.2019677419355  8.87307932692308 43.2365913978495  C 8.73588942307692 43.3231505376344  8.59884855769231 43.4097096774193  8.47887259615385 43.4962688172043  C 8.41024038461539 43.5309677419355  8.35889663461539 43.5828279569892  8.29026442307692 43.6348387096774  C 8.13387950487128 43.7583284848211  7.98506390657825 43.8912972608193  7.84463942307693 44.0330107526882  L 7.79314663461539 44.0850215053763  C 7.74180288461539 44.1196451612903  7.70744951923077 44.1715806451613  7.67317067307692 44.2062043010753  C 7.55319471153846 44.344623655914  7.46749759615385 44.4831935483871  7.36466105769231 44.621688172043  L 7.36466105769231 44.639  C 7.24468509615385 44.8294301075269  7.14184855769231 45.0371720430107  7.0561514423077 45.2623010752688  L 4.10787259615385 45.2623010752688  C 2.99366105769231 45.2623010752688  2.0680576923077 44.3273870967742  2 43.1846559139785  L 2 4.55760215053763  C 2.0680576923077 3.41494623655914  2.99366105769231 2.4972688172043  4.10787259615385 3  L 58.0002548076923 3  C 59.1144663461538 2.4972688172043  60.0400697115385 3.41494623655914  60 4.55760215053763  L 60 43.1846559139785  Z " fill-rule="nonzero" fill="#626262" stroke="none" transform="matrix(1 0 0 1 316 176 )" />
  </g>
</svg>