<?xml version="1.0" encoding="utf-8"?>
<svg version="1.1" xmlns:xlink="http://www.w3.org/1999/xlink" width="15px" height="5px" xmlns="http://www.w3.org/2000/svg">
  <g transform="matrix(1 0 0 1 -339 -210 )">
    <path d="M 14.295825 3.6765625  C 12.929025 1.4710625  10.230975 0.101062499999998  7.2543 0.101062499999998  C 4.277775 0.101062499999998  1.579575 1.4710625  0.212925000000004 3.6765625  C -0.0294749999999979 4.06775  0.154500000000004 4.5485  0.623925000000006 4.75062499999999  C 1.093275 4.95256249999999  1.6704 4.79931249999999  1.91280000000001 4.40806249999999  C 2.94975000000001 2.734875  4.99657500000001 1.69543749999999  7.25437500000001 1.69543749999999  C 9.51225000000001 1.69543749999999  11.558925 2.73487499999999  12.59595 4.40806249999999  C 12.7602111291728 4.67330169162625  13.0885014284129 4.83986350703017  13.446675 4.83968749999999  C 13.594425 4.83968749999999  13.744425 4.81099999999999  13.884825 4.75062499999999  C 14.354175 4.5485625  14.5383 4.06774999999999  14.295825 3.6765625  Z " fill-rule="nonzero" fill="#626262" stroke="none" transform="matrix(1 0 0 1 339 210 )" />
  </g>
</svg>