<?xml version="1.0" encoding="utf-8"?>
<svg version="1.1" xmlns:xlink="http://www.w3.org/1999/xlink" width="53px" height="61px" xmlns="http://www.w3.org/2000/svg">
  <g transform="matrix(1 0 0 1 -29 -18 )">
    <path d="M 10.79875 16.1418526785714  C 10.79875 25.0535714285714  17.827875 32.2768973214286  26.5 32.2768973214286  C 35.172125 32.2768973214286  42.20125 25.0535714285714  42.20125 16.1418526785714  C 42.20125 7.23013392857143  35.172125 0.00680803571428726  26.5 0.00680803571428726  C 17.827875 0.00680803571428726  10.79875 7.23013392857143  10.79875 16.1418526785714  Z M 52.675375 50.4066964285714  C 52.675375 44.55859375  40.95575 39.8065848214286  26.5 39.8065848214286  C 12.04425 39.8065848214286  0.324624999999998 44.5517857142857  0.324624999999998 50.3998883928572  C 0.324624999999998 56.2479910714286  12.04425 61  26.5 61  C 40.95575 61  52.675375 56.2547991071429  52.675375 50.4066964285714  Z " fill-rule="nonzero" fill="#656277" stroke="none" transform="matrix(1 0 0 1 29 18 )" />
  </g>
</svg>