<?xml version="1.0" encoding="utf-8"?>
<svg version="1.1" xmlns:xlink="http://www.w3.org/1999/xlink" width="62px" height="62px" xmlns="http://www.w3.org/2000/svg">
  <g transform="matrix(1 0 0 1 -25 -10 )">
    <path d="M 57.7375 43.5894444444445  C 60.7686111111111 42.5733333333333  62.4477777777778 39.1633333333333  61.5177777777778 35.9858333333333  C 61.1388888888889 34.7113888888889  60.3983333333333 33.6608333333333  59.4425 32.9375  C 60.4069444444444 31.4477777777778  60.7513888888889 29.5275  60.2088888888889 27.6847222222222  C 60.1227777777778 27.4005555555556  60.0280555555556 27.1336111111111  59.9075 26.8752777777778  C 60.3036111111111 26.4016666666667  60.5447222222222 25.7816666666667  60.5447222222222 25.0927777777778  C 60.5447222222222 23.9216666666667  59.8472222222222 22.9313888888889  58.8655555555555 22.5783333333333  C 59.3305555555555 21.8722222222222  59.5975 21.0111111111111  59.5975 20.0811111111111  C 59.5975 18.4363888888889  58.745 17.0069444444444  57.4877777777778 16.2663888888889  C 57.8494444444444 15.8013888888889  58.0647222222222 15.2072222222222  58.0647222222222 14.5527777777778  C 58.0647222222222 13.0888888888889  56.9625 11.9005555555556  55.5933333333333 11.9005555555556  L 55.5588888888889 11.9005555555556  L 55.5588888888889 11.7627777777778  C 55.5588888888889 9.36888888888889  53.7591666666667 7.43138888888889  51.5288888888889 7.43138888888889  C 51.2016666666667 7.43138888888889  50.8744444444444 7.47444444444444  50.5644444444444 7.56055555555556  C 48.8508333333333 2.96222222222222  44.02 0.516666666666667  39.4647222222222 2.07527777777778  C 38.2936111111111 2.47138888888889  37.2602777777778 3.1  36.3733333333333 3.88361111111111  C 35.0730555555556 1.4725  32.3175 0.284166666666668  29.6997222222222 1.17972222222222  C 29.1744444444444 1.36055555555556  28.6922222222222 1.61027777777778  28.2616666666667 1.92027777777778  C 26.04 0.292777777777778  23.1466666666667 -0.258333333333333  20.3566666666667 0.697500000000002  C 17.9025 1.54138888888889  15.9994444444444 3.37555555555556  14.9402777777778 5.64888888888889  C 14.1394444444444 5.20972222222222  13.175 5.08916666666667  12.245 5.40777777777778  C 10.8327777777778 5.89  9.89416666666667 7.23333333333333  9.79083333333333 8.70583333333333  C 8.72305555555555 8.36138888888889  7.54333333333333 8.35277777777778  6.38944444444444 8.74888888888889  C 3.37555555555555 9.78222222222223  1.68777777777778 13.1922222222222  2.62638888888889 16.3697222222222  C 2.82444444444445 17.0413888888889  3.12583333333333 17.6441666666667  3.49611111111111 18.1694444444444  C 1.61027777777778 18.5311111111111  0.180833333333333 20.305  0.180833333333333 22.4319444444444  C 0.180833333333333 24.2661111111111  1.24 25.8333333333333  2.73833333333333 26.4705555555556  C 1.67055555555555 27.6933333333333  1.01611111111111 29.3466666666667  1.01611111111111 31.155  C 1.01611111111111 34.0397222222222  2.67805555555555 36.5111111111111  5.02027777777778 37.5186111111111  C 4.83944444444444 37.6391666666667  4.67583333333333 37.7683333333333  4.51222222222222 37.9061111111111  C 4.24527777777778 38.0783333333333  4.02138888888889 38.3108333333333  3.83194444444444 38.5691666666667  C 2.74694444444444 39.8005555555555  2.07527777777777 41.4625  2.07527777777777 43.2966666666667  C 2.07527777777777 46.7325  4.43472222222222 49.5827777777778  7.50027777777778 50.0736111111111  C 7.49166666666666 50.2027777777778  7.48305555555555 50.3319444444444  7.48305555555555 50.4697222222222  C 7.48305555555555 52.8636111111111  9.28277777777777 54.8011111111111  11.5130555555556 54.8011111111111  C 12.0813888888889 54.8011111111111  12.6238888888889 54.6719444444444  13.1147222222222 54.4394444444444  C 13.7433333333333 57.5136111111111  16.2836111111111 59.8127777777778  19.3319444444444 59.8127777777778  C 20.6666666666667 59.8127777777778  21.8980555555556 59.3736111111111  22.9227777777778 58.6158333333333  C 23.6461111111111 59.3563888888889  24.6191666666667 59.8127777777778  25.6955555555556 59.8127777777778  C 26.5394444444444 59.8127777777778  27.3230555555556 59.5286111111111  27.9775 59.055  C 28.5630555555556 60.6738888888889  30.0183333333333 61.8191666666667  31.7319444444444 61.8191666666667  C 33.1958333333333 61.8191666666667  34.4702777777778 60.9838888888889  35.1763888888889 59.7266666666667  C 35.8652777777778 60.3208333333333  36.735 60.6738888888889  37.6822222222222 60.6738888888889  C 39.1202777777778 60.6738888888889  40.3861111111111 59.8644444444444  41.0922222222222 58.6416666666667  C 41.9791666666667 59.6061111111111  43.3483333333333 60.0022222222222  44.6572222222222 59.5544444444444  C 45.5613888888889 59.2444444444444  46.2761111111111 58.5813888888889  46.6980555555556 57.7633333333333  C 46.965 57.8236111111111  47.2491666666667 57.8580555555556  47.5333333333333 57.8580555555556  C 49.4794444444445 57.8580555555556  51.0983333333333 56.3769444444444  51.4772222222222 54.3963888888889  C 55.8258333333333 52.8808333333333  58.4091666666667 48.2394444444444  57.66 43.6152777777778  L 57.7375 43.5894444444445  Z " fill-rule="nonzero" fill="#754c24" stroke="none" transform="matrix(1 0 0 1 25 10 )" />
  </g>
</svg>