<?xml version="1.0" encoding="utf-8"?>
<svg version="1.1" xmlns:xlink="http://www.w3.org/1999/xlink" width="62px" height="62px" xmlns="http://www.w3.org/2000/svg">
  <g transform="matrix(1 0 0 1 -25 -10 )">
    <path d="M 20.8388888888889 1.99777777777778  C 21.5794444444445 1.75666666666667  22.3716666666667 1.61888888888889  23.1638888888889 1.61888888888889  C 24.7052777777778 1.61888888888889  26.1863888888889 2.10972222222222  27.4608333333333 3.03972222222222  C 27.7019444444444 3.22055555555556  27.9861111111111 3.30666666666667  28.2788888888889 3.30666666666667  C 28.5544444444444 3.30666666666667  28.8386111111111 3.22055555555556  29.0711111111111 3.05694444444444  C 29.4155555555556 2.81583333333333  29.7772222222222 2.62638888888889  30.1647222222222 2.49722222222222  C 30.5952777777778 2.35083333333333  31.0430555555556 2.27333333333333  31.4908333333333 2.27333333333333  C 33.015 2.27333333333333  34.4272222222222 3.14305555555556  35.185 4.55527777777778  C 35.3830555555555 4.92555555555556  35.7447222222222 5.18388888888889  36.1580555555555 5.26138888888889  C 36.2355555555555 5.27861111111111  36.3216666666667 5.27861111111111  36.3991666666667 5.27861111111111  C 36.735 5.27861111111111  37.0622222222222 5.15805555555555  37.3119444444444 4.92555555555555  C 38.0869444444444 4.23666666666667  38.9652777777778 3.72  39.9297222222222 3.38416666666667  C 40.6961111111111 3.12583333333333  41.4883333333333 2.98805555555555  42.2805555555555 2.98805555555555  C 43.7788888888889 2.98805555555555  45.2255555555555 3.45305555555555  46.4741666666666 4.34  C 47.7486111111111 5.24416666666666  48.7216666666667 6.52722222222222  49.29 8.04277777777778  C 49.4966666666667 8.59388888888889  50.0219444444444 8.93833333333333  50.5816666666667 8.93833333333333  C 50.7022222222222 8.93833333333333  50.8141666666667 8.92111111111111  50.9347222222222 8.89527777777778  C 51.1327777777778 8.84361111111111  51.3394444444444 8.81777777777778  51.5461111111111 8.81777777777778  C 53.01 8.81777777777778  54.1983333333333 10.1438888888889  54.1983333333333 11.7713888888889  L 54.1983333333333 11.8661111111111  C 54.1897222222222 12.245  54.3275 12.6066666666667  54.5944444444444 12.8736111111111  C 54.8527777777778 13.1405555555556  55.2058333333333 13.2869444444444  55.5761111111111 13.2869444444444  L 55.6191666666667 13.2869444444444  C 56.2133333333333 13.2955555555556  56.6955555555555 13.8638888888889  56.6955555555555 14.5613888888889  C 56.6955555555555 14.88  56.5922222222222 15.1813888888889  56.4113888888889 15.4225  C 56.1616666666667 15.7325  56.0669444444444 16.1372222222222  56.1444444444444 16.5333333333333  C 56.2219444444444 16.9208333333333  56.4630555555555 17.2652777777778  56.7988888888889 17.4633333333333  C 57.6772222222222 17.98  58.2283333333333 18.9788888888889  58.2283333333333 20.0811111111111  C 58.2283333333333 20.7097222222222  58.0561111111111 21.3125  57.7202777777778 21.8205555555556  C 57.4877777777778 22.1736111111111  57.4361111111111 22.6127777777778  57.5652777777778 23.0088888888889  C 57.6944444444444 23.405  58.0044444444444 23.7236111111111  58.4005555555556 23.87  C 58.8569444444444 24.0336111111111  59.1669444444444 24.5416666666667  59.1669444444444 25.0927777777778  C 59.1669444444444 25.4286111111111  59.055 25.7472222222222  58.8569444444444 25.9883333333333  C 58.5125 26.3930555555556  58.435 26.9613888888889  58.6588888888889 27.4436111111111  C 58.7536111111111 27.6502777777778  58.8311111111111 27.8569444444444  58.8913888888889 28.0722222222222  C 59.3047222222222 29.4672222222222  59.0894444444445 30.9655555555556  58.2972222222222 32.1797222222222  C 57.9011111111111 32.7825  58.0475 33.5919444444444  58.6158333333333 34.0225  C 59.3736111111111 34.5994444444444  59.9247222222222 35.4088888888889  60.2002777777778 36.3647222222222  C 60.9322222222222 38.8361111111111  59.6405555555556 41.4883333333333  57.3241666666667 42.2891666666667  L 57.3155555555556 42.2891666666667  C 57.2983333333333 42.2977777777778  57.2725 42.2977777777778  57.2552777777778 42.3063888888889  C 56.6094444444445 42.5130555555556  56.2133333333333 43.1675  56.3252777777778 43.8391666666667  C 56.6352777777778 45.7766666666667  56.2736111111111 47.7916666666667  55.3091666666667 49.4966666666667  C 54.3361111111111 51.2016666666667  52.8291666666667 52.4847222222222  51.0552777777778 53.1047222222222  C 50.5902777777778 53.2683333333333  50.2458333333334 53.6644444444444  50.1511111111111 54.1466666666667  C 49.8927777777778 55.4986111111111  48.7991666666667 56.4888888888889  47.5591666666667 56.4888888888889  C 47.3783333333333 56.4888888888889  47.2061111111111 56.4716666666667  47.0252777777778 56.4286111111111  C 46.9219444444445 56.4027777777778  46.8186111111111 56.3941666666667  46.7152777777778 56.3941666666667  C 46.2072222222222 56.3941666666667  45.725 56.6783333333333  45.4925 57.1433333333333  C 45.2169444444444 57.6772222222222  44.7691666666667 58.0819444444444  44.2352777777778 58.2627777777778  C 44.0286111111111 58.3316666666667  43.8133333333333 58.3747222222222  43.5980555555556 58.3747222222222  C 43.0555555555556 58.3747222222222  42.5216666666667 58.1336111111111  42.1341666666667 57.7202777777778  C 41.8758333333333 57.4361111111111  41.5055555555556 57.2811111111111  41.1266666666667 57.2811111111111  C 41.075 57.2811111111111  41.0233333333333 57.2811111111111  40.9716666666667 57.2897222222222  C 40.5411111111111 57.3413888888889  40.1536111111111 57.5911111111111  39.9297222222222 57.9613888888889  C 39.4388888888889 58.8052777777778  38.6036111111111 59.3133333333333  37.7080555555556 59.3133333333333  C 37.1225 59.3133333333333  36.5627777777778 59.0980555555555  36.0977777777778 58.7019444444444  C 35.8480555555556 58.4866666666667  35.5294444444444 58.3661111111111  35.2022222222222 58.3661111111111  C 35.1247222222222 58.3661111111111  35.0472222222222 58.3747222222222  34.9611111111111 58.3833333333333  C 34.5563888888889 58.4522222222222  34.2033333333333 58.7019444444444  33.9966666666667 59.0636111111111  C 33.5058333333333 59.9333333333333  32.6705555555556 60.45  31.7491666666667 60.45  C 30.6641666666667 60.45  29.6997222222222 59.7266666666667  29.295 58.5986111111111  C 29.1486111111111 58.1938888888889  28.8127777777778 57.8752777777778  28.3994444444445 57.7461111111111  C 28.2702777777778 57.7030555555556  28.1325 57.6858333333333  28.0033333333333 57.6858333333333  C 27.7105555555556 57.6858333333333  27.4263888888889 57.7805555555556  27.1852777777778 57.9527777777778  C 26.7547222222222 58.2713888888889  26.2466666666667 58.4436111111111  25.73 58.4436111111111  C 25.0669444444444 58.4436111111111  24.4297222222222 58.1680555555556  23.9388888888889 57.6686111111111  C 23.6719444444444 57.3930555555556  23.3102777777778 57.2552777777778  22.9572222222222 57.2552777777778  C 22.6730555555556 57.2552777777778  22.3888888888889 57.3413888888889  22.1391666666667 57.5222222222222  C 21.3211111111111 58.125  20.3566666666667 58.4436111111111  19.3663888888889 58.4436111111111  C 18.2211111111111 58.4436111111111  17.1447222222222 58.0302777777778  16.2577777777778 57.2466666666667  C 15.3708333333333 56.4716666666667  14.7422222222222 55.3780555555556  14.5011111111111 54.1638888888889  C 14.415 53.7505555555556  14.1480555555556 53.3975  13.7691666666667 53.2080555555556  C 13.5711111111111 53.1133333333334  13.3644444444445 53.0616666666667  13.1491666666667 53.0616666666667  C 12.9511111111111 53.0616666666667  12.7530555555556 53.1047222222222  12.5636111111111 53.1908333333333  C 12.2363888888889 53.3458333333333  11.8919444444445 53.4233333333333  11.5388888888889 53.4233333333333  C 10.075 53.4233333333333  8.88666666666668 52.0972222222222  8.88666666666668 50.4697222222222  C 8.88666666666668 50.3836111111111  8.88666666666668 50.2888888888889  8.89527777777779 50.1941666666667  C 8.95555555555556 49.4794444444445  8.44750000000001 48.8336111111111  7.7413888888889 48.7216666666667  C 6.5788888888889 48.5408333333334  5.51111111111112 47.9036111111111  4.72750000000001 46.9305555555556  C 3.91805555555556 45.9316666666667  3.47027777777779 44.64  3.47027777777779 43.3052777777778  C 3.47027777777779 41.8758333333333  3.96972222222223 40.5238888888889  4.88250000000001 39.4905555555556  C 4.91694444444445 39.4475  4.9513888888889 39.4130555555556  4.97722222222223 39.37  C 5.06333333333334 39.2408333333334  5.16666666666667 39.1375  5.28722222222223 39.06  C 5.33027777777779 39.0341666666667  5.37333333333334 38.9997222222222  5.4163888888889 38.9652777777778  C 5.54555555555556 38.8533333333334  5.68333333333334 38.75  5.82111111111112 38.6552777777778  C 6.23444444444445 38.3711111111111  6.45833333333334 37.8888888888889  6.41527777777778 37.3808333333334  C 6.36361111111112 36.8813888888889  6.05361111111112 36.4508333333334  5.58861111111112 36.2527777777778  C 4.67583333333334 35.8566666666667  3.89222222222223 35.185  3.3238888888889 34.2980555555556  C 2.72972222222223 33.3766666666667  2.41972222222223 32.2916666666667  2.41972222222223 31.155  C 2.41972222222223 29.7427777777778  2.91055555555556 28.3994444444445  3.80611111111112 27.3747222222222  C 4.0988888888889 27.0388888888889  4.21083333333334 26.5911111111111  4.10750000000001 26.1605555555556  C 4.00416666666667 25.73  3.7113888888889 25.3769444444445  3.29805555555556 25.2047222222222  C 2.27333333333334 24.7741666666667  1.58444444444445 23.6633333333333  1.58444444444445 22.4405555555556  C 1.58444444444445 21.0025  2.50583333333334 19.7711111111111  3.78027777777778 19.53  C 4.23666666666667 19.4438888888889  4.62416666666667 19.1252777777778  4.7963888888889 18.6861111111111  C 4.96861111111112 18.2469444444445  4.90833333333334 17.7561111111111  4.64138888888889 17.3772222222222  C 4.34000000000001 16.9552777777778  4.11611111111112 16.4902777777778  3.96972222222223 15.9822222222222  C 3.23777777777778 13.5108333333333  4.53805555555556 10.85  6.85444444444445 10.0577777777778  C 7.285 9.9113888888889  7.73277777777778 9.8338888888889  8.17194444444445 9.8338888888889  C 8.58527777777778 9.8338888888889  8.99861111111112 9.89416666666667  9.39472222222223 10.0233333333333  C 9.53250000000001 10.0663888888889  9.67027777777778 10.0922222222222  9.81666666666667 10.0922222222222  C 10.0922222222222 10.0922222222222  10.3591666666667 10.0147222222222  10.5916666666667 9.85111111111112  C 10.9447222222222 9.61000000000001  11.16 9.23111111111112  11.1944444444444 8.80916666666668  C 11.2633333333333 7.84472222222223  11.8747222222222 7.00944444444445  12.7186111111111 6.71666666666667  C 12.9252777777778 6.64777777777778  13.1405555555556 6.60472222222223  13.3558333333333 6.60472222222223  C 13.6830555555556 6.60472222222223  14.0102777777778 6.69083333333334  14.3030555555556 6.85444444444445  C 14.5097222222222 6.9663888888889  14.7422222222222 7.02666666666667  14.9747222222222 7.02666666666667  C 15.1211111111111 7.02666666666667  15.2588888888889 7.00083333333334  15.3966666666667 6.95777777777778  C 15.7583333333333 6.83722222222223  16.0597222222222 6.57888888888889  16.2233333333333 6.22583333333334  C 17.1705555555556 4.19361111111112  18.8066666666667 2.68666666666667  20.8388888888889 1.99777777777778  Z M 28.2530555555556 1.90305555555556  C 26.7891666666667 0.852500000000001  25.0066666666667 0.24111111111111  23.1638888888889 0.241111111111117  C 22.2425 0.241111111111117  21.2952777777778 0.396111111111118  20.3652777777778 0.706111111111117  C 17.9111111111111 1.55000000000001  16.0080555555556 3.38416666666667  14.9488888888889 5.65750000000001  C 14.4580555555556 5.38194444444445  13.9069444444445 5.23555555555556  13.3386111111111 5.23555555555556  C 12.9769444444445 5.23555555555556  12.6152777777778 5.29583333333334  12.2536111111111 5.41638888888889  C 10.8413888888889 5.89861111111112  9.90277777777778 7.24194444444445  9.79944444444445 8.71444444444445  C 9.27416666666667 8.55083333333334  8.72305555555556 8.45611111111111  8.16333333333334 8.45611111111111  C 7.57777777777778 8.45611111111111  6.98361111111112 8.55083333333334  6.39805555555556 8.74888888888889  C 3.38416666666667 9.78222222222223  1.6963888888889 13.1922222222222  2.63500000000001 16.3697222222222  C 2.83305555555556 17.0413888888889  3.13444444444445 17.6441666666667  3.50472222222223 18.1694444444444  C 1.61888888888889 18.5311111111111  0.189444444444451 20.305  0.189444444444451 22.4319444444444  C 0.189444444444451 24.2661111111111  1.24861111111112 25.8333333333333  2.74694444444445 26.4705555555556  C 1.67916666666667 27.6933333333333  1.02472222222223 29.3466666666667  1.02472222222223 31.155  C 1.02472222222223 34.0397222222222  2.68666666666667 36.5111111111111  5.02888888888889 37.5186111111111  C 4.84805555555556 37.6391666666667  4.68444444444445 37.7683333333333  4.52083333333334 37.9061111111111  C 4.25388888888889 38.0783333333333  4.03000000000001 38.3108333333333  3.84055555555556 38.5691666666667  C 2.75555555555556 39.8005555555555  2.08388888888889 41.4625  2.08388888888889 43.2966666666667  C 2.08388888888889 46.7325  4.44333333333334 49.5827777777778  7.50888888888889 50.0736111111111  C 7.50027777777778 50.2027777777778  7.49166666666667 50.3319444444444  7.49166666666667 50.4697222222222  C 7.49166666666667 52.8636111111111  9.29138888888889 54.8011111111111  11.5216666666667 54.8011111111111  C 12.09 54.8011111111111  12.6325 54.6719444444444  13.1233333333333 54.4394444444444  C 13.7519444444445 57.5136111111111  16.2922222222222 59.8127777777778  19.3405555555556 59.8127777777778  C 20.6752777777778 59.8127777777778  21.9066666666667 59.3736111111111  22.9313888888889 58.6158333333333  C 23.6547222222222 59.3563888888889  24.6277777777778 59.8127777777778  25.7041666666667 59.8127777777778  C 26.5480555555556 59.8127777777778  27.3316666666667 59.5286111111111  27.9861111111111 59.055  C 28.5716666666667 60.6738888888889  30.0269444444444 61.8191666666667  31.7405555555556 61.8191666666667  C 33.2044444444444 61.8191666666667  34.4788888888889 60.9838888888889  35.185 59.7266666666667  C 35.8738888888889 60.3208333333333  36.7436111111111 60.6738888888889  37.6908333333333 60.6738888888889  C 39.1288888888889 60.6738888888889  40.3947222222222 59.8644444444444  41.1008333333333 58.6416666666667  C 41.7466666666667 59.3391666666667  42.6422222222222 59.7438888888889  43.5808333333333 59.7438888888889  C 43.9425 59.7438888888889  44.3041666666667 59.6836111111111  44.6658333333333 59.5630555555555  C 45.57 59.2530555555555  46.2847222222222 58.59  46.7066666666667 57.7719444444444  C 46.9736111111111 57.8322222222222  47.2577777777778 57.8666666666667  47.5419444444445 57.8666666666667  C 49.4880555555556 57.8666666666667  51.1069444444445 56.3855555555556  51.4858333333333 54.405  C 55.8344444444445 52.8894444444444  58.4177777777778 48.2480555555556  57.6686111111111 43.6238888888889  L 57.7461111111111 43.5980555555555  C 60.76 42.5647222222222  62.4477777777778 39.1547222222222  61.5091666666667 35.9772222222222  C 61.1302777777778 34.7027777777778  60.3897222222222 33.6522222222222  59.4338888888889 32.9288888888889  C 60.3983333333333 31.4391666666667  60.7427777777778 29.5188888888889  60.2002777777778 27.6761111111111  C 60.1141666666667 27.3919444444444  60.0194444444444 27.125  59.8988888888889 26.8666666666667  C 60.295 26.3930555555556  60.5361111111111 25.7730555555556  60.5361111111111 25.0841666666667  C 60.5361111111111 23.9130555555556  59.8386111111111 22.9227777777778  58.8569444444444 22.5697222222222  C 59.3219444444444 21.8636111111111  59.5888888888889 21.0025  59.5888888888889 20.0725  C 59.5888888888889 18.4277777777778  58.7363888888889 16.9983333333333  57.4791666666667 16.2577777777778  C 57.8408333333333 15.7927777777778  58.0561111111111 15.1986111111111  58.0561111111111 14.5441666666667  C 58.0561111111111 13.0802777777778  56.9538888888889 11.8919444444444  55.5847222222222 11.8919444444444  L 55.5502777777778 11.8919444444444  L 55.5502777777778 11.7541666666667  C 55.5502777777778 9.36027777777778  53.7505555555556 7.42277777777778  51.5202777777778 7.42277777777778  C 51.1930555555556 7.42277777777778  50.8658333333333 7.46583333333333  50.5558333333333 7.55194444444444  C 49.1952777777778 3.89222222222222  45.8541666666667 1.60166666666667  42.2547222222222 1.60166666666667  C 41.3333333333333 1.60166666666667  40.3861111111111 1.75666666666667  39.4561111111111 2.06666666666667  C 38.285 2.46277777777778  37.2516666666667 3.09138888888889  36.3647222222222 3.875  C 35.3572222222222 2.00638888888889  33.4713888888889 0.869722222222222  31.4563888888889 0.869722222222222  C 30.8708333333333 0.869722222222222  30.2766666666667 0.964444444444443  29.6911111111111 1.1625  C 29.1658333333333 1.34333333333333  28.6836111111111 1.59305555555556  28.2530555555556 1.90305555555556  Z " fill-rule="nonzero" fill="#000000" stroke="none" transform="matrix(1 0 0 1 25 10 )" />
  </g>
</svg>