<?xml version="1.0" encoding="utf-8"?>
<svg version="1.1" xmlns:xlink="http://www.w3.org/1999/xlink" width="45px" height="45px" xmlns="http://www.w3.org/2000/svg">
  <g transform="matrix(1 0 0 1 -34 -20 )">
    <path d="M 14.5056818181818 3.20192307692308  C 17.0454545454545 2.11153846153846  19.7471590909091 1.55769230769231  22.5340909090909 1.55769230769231  C 25.3210227272727 1.55769230769231  28.0227272727273 2.11153846153846  30.5625 3.20192307692308  C 33.0170454545455 4.25769230769231  35.2244318181818 5.76346153846154  37.1164772727273 7.69326923076923  C 39.0085227272727 9.61442307692307  40.5 11.8557692307692  41.5397727272727 14.3480769230769  C 42.6136363636364 16.9269230769231  43.1590909090909 19.6701923076923  43.1590909090909 22.5  C 43.1590909090909 25.3298076923077  42.6136363636364 28.0730769230769  41.5397727272727 30.6519230769231  C 40.5 33.1442307692308  39.0170454545455 35.3855769230769  37.1164772727273 37.3067307692308  C 35.2244318181818 39.2278846153846  33.0170454545455 40.7423076923077  30.5625 41.7980769230769  C 28.0227272727273 42.8884615384615  25.3210227272727 43.4423076923077  22.5340909090909 43.4423076923077  C 19.7471590909091 43.4423076923077  17.0454545454545 42.8884615384615  14.5056818181818 41.7980769230769  C 12.0511363636364 40.7423076923077  9.84375 39.2365384615385  7.95170454545454 37.3067307692308  C 6.05965909090909 35.3855769230769  4.56818181818181 33.1442307692308  3.52840909090909 30.6519230769231  C 2.45454545454545 28.0730769230769  1.90909090909091 25.3298076923077  1.90909090909091 22.5  C 1.90909090909091 19.6701923076923  2.45454545454545 16.9269230769231  3.52840909090909 14.3480769230769  C 4.56818181818181 11.8557692307692  6.05113636363636 9.61442307692308  7.95170454545454 7.69326923076923  C 9.84374999999999 5.77211538461538  12.0511363636364 4.25769230769231  14.5056818181818 3.20192307692308  Z M 44.5227272727273 22.5  C 44.5227272727273 10.1682692307692  34.6789772727273 0.173076923076923  22.5340909090909 0.173076923076923  C 10.3892045454545 0.173076923076923  0.545454545454544 10.1682692307692  0.545454545454544 22.5  C 0.545454545454544 34.8317307692308  10.3892045454545 44.8269230769231  22.5340909090909 44.8269230769231  C 34.6789772727273 44.8269230769231  44.5227272727273 34.8317307692308  44.5227272727273 22.5  Z " fill-rule="nonzero" fill="#000000" stroke="none" transform="matrix(1 0 0 1 34 20 )" />
  </g>
</svg>