<?xml version="1.0" encoding="utf-8"?>
<svg version="1.1" xmlns:xlink="http://www.w3.org/1999/xlink" width="10px" height="10px" xmlns="http://www.w3.org/2000/svg">
  <g transform="matrix(1 0 0 1 -64 -18 )">
    <path d="M 1.83928571428572 4.38461538461538  C 2.16964285714286 2.75  3.52678571428571 1.53846153846154  5.14285714285714 1.53846153846154  C 7.01785714285714 1.53846153846154  8.53571428571429 3.17307692307693  8.53571428571429 5.19230769230769  C 8.53571428571429 6.46153846153846  7.92857142857144 7.58653846153846  7.01785714285714 8.24038461538461  C 5.47321428571429 6.71153846153846  3.73214285714286 5.41346153846154  1.83928571428572 4.38461538461538  Z M 9.95535714285713 5.19230769230769  C 9.96428571428571 2.32692307692308  7.79464285714284 0  5.14285714285714 0  C 4.04464285714286 0  2.96428571428572 0.413461538461539  2.10714285714286 1.15384615384615  C 1.26785714285715 1.88461538461538  0.669642857142857 2.91346153846154  0.437499999999998 4.04807692307692  C 0.294642857142853 4.74038461538461  0.59821428571428 5.44230769230769  1.1875 5.75961538461538  C 2.95535714285713 6.72115384615384  4.58928571428571 7.93269230769231  6.04464285714285 9.375  C 6.31249999999999 9.64423076923077  6.66071428571428 9.77884615384615  7.00892857142856 9.77884615384615  C 7.28571428571428 9.77884615384615  7.55357142857142 9.69230769230769  7.79464285714284 9.51923076923077  C 9.14285714285713 8.55769230769231  9.95535714285713 6.93269230769231  9.95535714285713 5.19230769230769  Z " fill-rule="nonzero" fill="#000000" stroke="none" transform="matrix(1 0 0 1 64 18 )" />
  </g>
</svg>