<?xml version="1.0" encoding="utf-8"?>
<svg version="1.1" xmlns:xlink="http://www.w3.org/1999/xlink" width="38px" height="20px" xmlns="http://www.w3.org/2000/svg">
  <g transform="matrix(1 0 0 1 -37 -44 )">
    <path d="M 8.90185185185185 4.16379310344828  C 11.9893518518518 2.51724137931035  15.4990740740741 1.65517241379311  19.0351851851852 1.65517241379311  C 22.5712962962963 1.65517241379311  26.0722222222222 2.52586206896552  29.1685185185185 4.16379310344828  C 31.8777777777778 5.60344827586208  34.2615740740741 7.6293103448276  36.1087962962963 10.051724137931  C 34.2615740740741 12.4741379310345  31.8777777777778 14.5  29.1685185185185 15.9396551724138  C 26.0810185185185 17.5775862068965  22.5800925925926 18.448275862069  19.0351851851852 18.448275862069  C 15.4902777777778 18.448275862069  11.9981481481481 17.5775862068965  8.90185185185185 15.9396551724138  C 6.19259259259259 14.5  3.8087962962963 12.4741379310345  1.96157407407407 10.051724137931  C 3.80879629629629 7.62931034482759  6.19259259259259 5.60344827586207  8.90185185185185 4.16379310344828  Z M 37.8328703703704 10.051724137931  C 33.7513888888889 4.15517241379311  26.8550925925926 0.275862068965521  19.0351851851852 0.275862068965521  C 11.2152777777778 0.275862068965521  4.31898148148148 4.15517241379311  0.237499999999999 10.051724137931  C 4.31898148148148 15.948275862069  11.2152777777778 19.8275862068966  19.0351851851852 19.8275862068966  C 26.8550925925926 19.8275862068966  33.7513888888889 15.948275862069  37.8328703703704 10.051724137931  Z " fill-rule="nonzero" fill="#000000" stroke="none" transform="matrix(1 0 0 1 37 44 )" />
  </g>
</svg>