<?xml version="1.0" encoding="utf-8"?>
<svg version="1.1" xmlns:xlink="http://www.w3.org/1999/xlink" width="4px" height="11px" xmlns="http://www.w3.org/2000/svg">
  <g transform="matrix(1 0 0 1 -53 -42 )">
    <path d="M 3.775 1.76916666666666  C 3.78125 1.74166666666667  3.79375 1.70499999999999  3.80625 1.66833333333334  C 3.80625 1.65916666666667  3.8125 1.65  3.8125 1.64083333333334  C 3.81875 1.61333333333335  3.825 1.59500000000001  3.83125 1.56750000000001  L 3.83125 1.55833333333334  C 3.88124999999999 1.23750000000001  3.8 0.916666666666677  3.63124999999999 0.724166666666675  L 3.575 0.669166666666673  C 3.575 0.669166666666673  3.56874999999999 0.669166666666673  3.56249999999999 0.660000000000004  C 3.54375 0.641666666666667  3.52499999999999 0.632500000000008  3.50624999999999 0.614166666666671  C 3.49999999999999 0.614166666666671  3.49374999999999 0.605000000000002  3.4875 0.605000000000002  C 3.46875 0.595833333333333  3.45625 0.586666666666665  3.4375 0.577500000000006  C 3.425 0.577500000000006  3.41875 0.568333333333338  3.40625 0.568333333333338  C 3.39375 0.559166666666669  3.375 0.559166666666669  3.3625 0.559166666666669  L 0.831249999999997 0.559166666666669  C 0.531249999999996 0.559166666666669  0.312499999999996 0.889166666666671  0.274999999999999 1.26500000000001  C 0.268749999999997 1.33833333333334  0.268749999999997 1.40250000000001  0.274999999999999 1.47583333333334  C 0.28125 1.58583333333334  0.306249999999999 1.68666666666666  0.349999999999998 1.79666666666667  L 1.125 3.7675  L 1.5625 4.8675  L 1.5625 10.0833333333333  C 1.5625 10.4866666666667  1.7875 10.8166666666667  2.0625 10.8166666666667  C 2.33750000000001 10.8166666666667  2.5625 10.4866666666667  2.5625 10.0833333333333  L 2.5625 4.85833333333333  L 3.775 1.76916666666666  Z " fill-rule="nonzero" fill="#000000" stroke="none" transform="matrix(1 0 0 1 53 42 )" />
  </g>
</svg>