<?xml version="1.0" encoding="utf-8"?>
<svg version="1.1" xmlns:xlink="http://www.w3.org/1999/xlink" width="10px" height="10px" xmlns="http://www.w3.org/2000/svg">
  <g transform="matrix(1 0 0 1 -38 -18 )">
    <path d="M 1.44642857142857 5.19230769230769  C 1.45535714285714 3.17307692307692  2.97321428571429 1.53846153846154  4.84821428571429 1.53846153846154  C 6.47321428571429 1.53846153846154  7.83928571428572 2.77884615384615  8.16071428571429 4.42307692307692  C 6.28571428571429 5.45192307692307  4.55357142857143 6.75  3.01785714285714 8.26923076923077  C 2.07142857142857 7.61538461538461  1.44642857142857 6.48076923076923  1.44642857142857 5.19230769230769  Z M 7.89285714285714 1.17307692307692  C 7.04464285714286 0.413461538461537  5.96428571428571 0  4.84821428571429 0  C 2.1875 0  0.0267857142857153 2.32692307692308  0.0267857142857153 5.19230769230769  C 0.0267857142857153 6.97115384615385  0.857142857142859 8.60576923076923  2.25 9.56730769230769  C 2.48214285714286 9.73076923076923  2.75 9.80769230769231  3.01785714285714 9.80769230769231  C 3.36607142857143 9.80769230769231  3.71428571428572 9.67307692307693  3.98214285714286 9.40384615384616  C 5.4375 7.97115384615385  7.05357142857143 6.75  8.80357142857143 5.79807692307693  C 9.38392857142857 5.48076923076923  9.6875 4.78846153846154  9.55357142857143 4.10576923076923  C 9.32142857142857 2.96153846153846  8.73214285714286 1.92307692307692  7.89285714285714 1.17307692307692  Z " fill-rule="nonzero" fill="#000000" stroke="none" transform="matrix(1 0 0 1 38 18 )" />
  </g>
</svg>