<?xml version="1.0" encoding="utf-8"?>
<svg version="1.1" xmlns:xlink="http://www.w3.org/1999/xlink" width="13px" height="11px" xmlns="http://www.w3.org/2000/svg">
  <g transform="matrix(1 0 0 1 -191 -120 )">
    <path d="M 10.4797991071429 5.45217391304348  C 10.48125 3.47785326086957  9.07388392857143 2.76644021739131  9.01294642857143 2.73654891304348  L 9.00714285714286 2.7335597826087  C 8.94620535714286 2.70516304347826  8.88381696428571 2.69171195652174  8.81997767857143 2.69171195652174  C 8.64877232142857 2.69171195652174  8.48191964285714 2.79184782608696  8.40212053571429 2.96073369565217  C 8.29185267857143 3.19388586956522  8.38761160714286 3.48084239130435  8.61540178571429 3.59741847826087  C 8.71261160714286 3.64972826086957  9.55412946428572 4.13546195652174  9.55412946428572 5.45366847826087  C 9.55412946428572 6.19646739130435  9.32633928571429 6.67771739130435  9.13627232142858 6.95122282608696  C 8.92589285714286 7.253125  8.70825892857143 7.38165760869565  8.68359375 7.39510869565217  L 8.67924107142858 7.39660326086957  C 8.45 7.51467391304348  8.35714285714286 7.80163043478261  8.47176339285715 8.03777173913044  C 8.5515625 8.20067934782609  8.71116071428572 8.3023097826087  8.88816964285715 8.3023097826087  C 8.95926339285715 8.3023097826087  9.03035714285715 8.284375  9.09419642857143 8.25149456521739  C 9.15078125 8.22160326086957  10.4797991071429 7.50271739130435  10.4797991071429 5.45217391304348  Z M 12.9956473214286 5.5  C 12.9970982142857 2.36141304347826  11.0978794642857 1.07309782608696  11.0166294642857 1.02078804347826  C 10.9411830357143 0.969972826086957  10.8555803571429 0.946059782608696  10.7699776785714 0.946059782608696  C 10.6176339285714 0.946059782608696  10.4681919642857 1.02228260869565  10.3782366071429 1.16426630434783  C 10.2404017857143 1.38247282608696  10.2998883928571 1.67989130434783  10.5131696428571 1.82486413043478  C 10.5770089285714 1.86820652173913  12.0685267857143 2.91290760869565  12.0685267857143 5.5  C 12.0685267857143 6.56114130434783  11.8204241071429 7.52513586956522  11.3517857142857 8.28736413043478  C 10.97890625 8.89415760869565  10.5958705357143 9.16616847826087  10.5799107142857 9.178125  C 10.3666294642857 9.32459239130435  10.30859375 9.62201086956522  10.45078125 9.84171195652174  C 10.5363839285714 9.97472826086956  10.6814732142857 10.0539402173913  10.83671875 10.0539402173913  C 10.928125 10.0539402173913  11.0166294642857 10.0255434782609  11.0935267857143 9.97323369565217  C 11.1138392857143 9.95978260869565  11.5955357142857 9.62649456521739  12.0685267857143 8.89714673913044  C 12.6837053571429 7.94959239130435  12.9956473214286 6.80625  12.9956473214286 5.5  Z M 7.34732142857143 1.05815217391304  L 7.34732142857143 9.94035326086957  C 7.34732142857143 10.751902173913  6.42890625 11.1942934782609  5.82388392857143 10.6756793478261  L 3.18761160714286 8.40991847826087  L 0.928571428571428 8.40991847826087  C 0.41640625 8.40991847826087  0 7.98097826086956  0 7.45339673913043  L 0 3.54809782608696  C 0 3.01902173913043  0.417857142857143 2.59008152173913  0.931473214285714 2.59157608695652  L 3.17020089285714 2.59904891304348  L 5.82533482142857 0.322826086956521  C 6.43035714285714 -0.195788043478261  7.34732142857143 0.248097826086956  7.34732142857143 1.05815217391304  Z " fill-rule="nonzero" fill="#a67a08" stroke="none" transform="matrix(1 0 0 1 191 120 )" />
  </g>
</svg>