<?xml version="1.0" encoding="utf-8"?>
<svg version="1.1" xmlns:xlink="http://www.w3.org/1999/xlink" width="12px" height="12px" viewBox="547 271  12 12" xmlns="http://www.w3.org/2000/svg">
  <path d="M 553 271  C 556.36 271  559 273.64  559 277  C 559 280.36  556.36 283  553 283  C 549.64 283  547 280.36  547 277  C 547 273.64  549.64 271  553 271  Z " fill-rule="nonzero" fill="#ffffff" stroke="none" fill-opacity="0" />
  <path d="M 553 271.5  C 556.08 271.5  558.5 273.92  558.5 277  C 558.5 280.08  556.08 282.5  553 282.5  C 549.92 282.5  547.5 280.08  547.5 277  C 547.5 273.92  549.92 271.5  553 271.5  Z " stroke-width="1" stroke="#1890ff" fill="none" />
  <path d="M 553 280  C 551.32 280  550 278.68  550 277  C 550 275.32  551.32 274  553 274  C 554.68 274  556 275.32  556 277  C 556 278.68  554.68 280  553 280  " fill-rule="nonzero" fill="#1890ff" stroke="none" />
</svg>