<?xml version="1.0" encoding="utf-8"?>
<svg version="1.1" xmlns:xlink="http://www.w3.org/1999/xlink" width="12px" height="12px" viewBox="285 271  12 12" xmlns="http://www.w3.org/2000/svg">
  <path d="M 291 271  C 294.36 271  297 273.64  297 277  C 297 280.36  294.36 283  291 283  C 287.64 283  285 280.36  285 277  C 285 273.64  287.64 271  291 271  Z " fill-rule="nonzero" fill="#ffffff" stroke="none" fill-opacity="0" />
  <path d="M 291 271.5  C 294.08 271.5  296.5 273.92  296.5 277  C 296.5 280.08  294.08 282.5  291 282.5  C 287.92 282.5  285.5 280.08  285.5 277  C 285.5 273.92  287.92 271.5  291 271.5  Z " stroke-width="1" stroke="#1890ff" fill="none" />
  <path d="M 291 280  C 289.32 280  288 278.68  288 277  C 288 275.32  289.32 274  291 274  C 292.68 274  294 275.32  294 277  C 294 278.68  292.68 280  291 280  " fill-rule="nonzero" fill="#1890ff" stroke="none" />
</svg>