<?xml version="1.0" encoding="utf-8"?>
<svg version="1.1" xmlns:xlink="http://www.w3.org/1999/xlink" width="12px" height="12px" viewBox="419 271  12 12" xmlns="http://www.w3.org/2000/svg">
  <path d="M 425 271  C 428.36 271  431 273.64  431 277  C 431 280.36  428.36 283  425 283  C 421.64 283  419 280.36  419 277  C 419 273.64  421.64 271  425 271  Z " fill-rule="nonzero" fill="#ffffff" stroke="none" fill-opacity="0" />
  <path d="M 425 271.5  C 428.08 271.5  430.5 273.92  430.5 277  C 430.5 280.08  428.08 282.5  425 282.5  C 421.92 282.5  419.5 280.08  419.5 277  C 419.5 273.92  421.92 271.5  425 271.5  Z " stroke-width="1" stroke="#1890ff" fill="none" />
  <path d="M 425 280  C 423.32 280  422 278.68  422 277  C 422 275.32  423.32 274  425 274  C 426.68 274  428 275.32  428 277  C 428 278.68  426.68 280  425 280  " fill-rule="nonzero" fill="#1890ff" stroke="none" />
</svg>