<?xml version="1.0" encoding="utf-8"?>
<svg version="1.1" xmlns:xlink="http://www.w3.org/1999/xlink" width="12px" height="12px" viewBox="179 271  12 12" xmlns="http://www.w3.org/2000/svg">
  <path d="M 185 271  C 188.36 271  191 273.64  191 277  C 191 280.36  188.36 283  185 283  C 181.64 283  179 280.36  179 277  C 179 273.64  181.64 271  185 271  Z " fill-rule="nonzero" fill="#ffffff" stroke="none" fill-opacity="0" />
  <path d="M 185 271.5  C 188.08 271.5  190.5 273.92  190.5 277  C 190.5 280.08  188.08 282.5  185 282.5  C 181.92 282.5  179.5 280.08  179.5 277  C 179.5 273.92  181.92 271.5  185 271.5  Z " stroke-width="1" stroke="#1890ff" fill="none" />
  <path d="M 185 280  C 183.32 280  182 278.68  182 277  C 182 275.32  183.32 274  185 274  C 186.68 274  188 275.32  188 277  C 188 278.68  186.68 280  185 280  " fill-rule="nonzero" fill="#1890ff" stroke="none" />
</svg>