<?xml version="1.0" encoding="utf-8"?>
<svg version="1.1" xmlns:xlink="http://www.w3.org/1999/xlink" width="12px" height="12px" viewBox="37 271  12 12" xmlns="http://www.w3.org/2000/svg">
  <path d="M 43 271  C 46.36 271  49 273.64  49 277  C 49 280.36  46.36 283  43 283  C 39.64 283  37 280.36  37 277  C 37 273.64  39.64 271  43 271  Z " fill-rule="nonzero" fill="#ffffff" stroke="none" fill-opacity="0" />
  <path d="M 43 271.5  C 46.08 271.5  48.5 273.92  48.5 277  C 48.5 280.08  46.08 282.5  43 282.5  C 39.92 282.5  37.5 280.08  37.5 277  C 37.5 273.92  39.92 271.5  43 271.5  Z " stroke-width="1" stroke="#1890ff" fill="none" />
  <path d="M 43 280  C 41.32 280  40 278.68  40 277  C 40 275.32  41.32 274  43 274  C 44.68 274  46 275.32  46 277  C 46 278.68  44.68 280  43 280  " fill-rule="nonzero" fill="#1890ff" stroke="none" />
</svg>