<?xml version="1.0" encoding="utf-8"?>
<svg version="1.1" xmlns:xlink="http://www.w3.org/1999/xlink" width="12px" height="12px" viewBox="115 332  12 12" xmlns="http://www.w3.org/2000/svg">
  <path d="M 121 332  C 124.36 332  127 334.64  127 338  C 127 341.36  124.36 344  121 344  C 117.64 344  115 341.36  115 338  C 115 334.64  117.64 332  121 332  Z " fill-rule="nonzero" fill="#ffffff" stroke="none" fill-opacity="0" />
  <path d="M 121 332.5  C 124.08 332.5  126.5 334.92  126.5 338  C 126.5 341.08  124.08 343.5  121 343.5  C 117.92 343.5  115.5 341.08  115.5 338  C 115.5 334.92  117.92 332.5  121 332.5  Z " stroke-width="1" stroke="#1890ff" fill="none" />
  <path d="M 121 341  C 119.32 341  118 339.68  118 338  C 118 336.32  119.32 335  121 335  C 122.68 335  124 336.32  124 338  C 124 339.68  122.68 341  121 341  " fill-rule="nonzero" fill="#1890ff" stroke="none" />
</svg>