<?xml version="1.0" encoding="utf-8"?>
<svg version="1.1" xmlns:xlink="http://www.w3.org/1999/xlink" width="12px" height="12px" viewBox="188 332  12 12" xmlns="http://www.w3.org/2000/svg">
  <path d="M 194 332  C 197.36 332  200 334.64  200 338  C 200 341.36  197.36 344  194 344  C 190.64 344  188 341.36  188 338  C 188 334.64  190.64 332  194 332  Z " fill-rule="nonzero" fill="#ffffff" stroke="none" fill-opacity="0" />
  <path d="M 194 332.5  C 197.08 332.5  199.5 334.92  199.5 338  C 199.5 341.08  197.08 343.5  194 343.5  C 190.92 343.5  188.5 341.08  188.5 338  C 188.5 334.92  190.92 332.5  194 332.5  Z " stroke-width="1" stroke="#1890ff" fill="none" />
  <path d="M 194 341  C 192.32 341  191 339.68  191 338  C 191 336.32  192.32 335  194 335  C 195.68 335  197 336.32  197 338  C 197 339.68  195.68 341  194 341  " fill-rule="nonzero" fill="#1890ff" stroke="none" />
</svg>