<?xml version="1.0" encoding="utf-8"?>
<svg version="1.1" xmlns:xlink="http://www.w3.org/1999/xlink" width="12px" height="12px" viewBox="38 332  12 12" xmlns="http://www.w3.org/2000/svg">
  <path d="M 44 332  C 47.36 332  50 334.64  50 338  C 50 341.36  47.36 344  44 344  C 40.64 344  38 341.36  38 338  C 38 334.64  40.64 332  44 332  Z " fill-rule="nonzero" fill="#ffffff" stroke="none" fill-opacity="0" />
  <path d="M 44 332.5  C 47.08 332.5  49.5 334.92  49.5 338  C 49.5 341.08  47.08 343.5  44 343.5  C 40.92 343.5  38.5 341.08  38.5 338  C 38.5 334.92  40.92 332.5  44 332.5  Z " stroke-width="1" stroke="#1890ff" fill="none" />
  <path d="M 44 341  C 42.32 341  41 339.68  41 338  C 41 336.32  42.32 335  44 335  C 45.68 335  47 336.32  47 338  C 47 339.68  45.68 341  44 341  " fill-rule="nonzero" fill="#1890ff" stroke="none" />
</svg>