<?xml version="1.0" encoding="utf-8"?>
<svg version="1.1" xmlns:xlink="http://www.w3.org/1999/xlink" width="12px" height="12px" viewBox="265 332  12 12" xmlns="http://www.w3.org/2000/svg">
  <path d="M 271 332  C 274.36 332  277 334.64  277 338  C 277 341.36  274.36 344  271 344  C 267.64 344  265 341.36  265 338  C 265 334.64  267.64 332  271 332  Z " fill-rule="nonzero" fill="#ffffff" stroke="none" fill-opacity="0" />
  <path d="M 271 332.5  C 274.08 332.5  276.5 334.92  276.5 338  C 276.5 341.08  274.08 343.5  271 343.5  C 267.92 343.5  265.5 341.08  265.5 338  C 265.5 334.92  267.92 332.5  271 332.5  Z " stroke-width="1" stroke="#1890ff" fill="none" />
  <path d="M 271 341  C 269.32 341  268 339.68  268 338  C 268 336.32  269.32 335  271 335  C 272.68 335  274 336.32  274 338  C 274 339.68  272.68 341  271 341  " fill-rule="nonzero" fill="#1890ff" stroke="none" />
</svg>