<?xml version="1.0" encoding="utf-8"?>
<svg version="1.1" xmlns:xlink="http://www.w3.org/1999/xlink" width="12px" height="12px" viewBox="354 332  12 12" xmlns="http://www.w3.org/2000/svg">
  <path d="M 360 332  C 363.36 332  366 334.64  366 338  C 366 341.36  363.36 344  360 344  C 356.64 344  354 341.36  354 338  C 354 334.64  356.64 332  360 332  Z " fill-rule="nonzero" fill="#ffffff" stroke="none" fill-opacity="0" />
  <path d="M 360 332.5  C 363.08 332.5  365.5 334.92  365.5 338  C 365.5 341.08  363.08 343.5  360 343.5  C 356.92 343.5  354.5 341.08  354.5 338  C 354.5 334.92  356.92 332.5  360 332.5  Z " stroke-width="1" stroke="#1890ff" fill="none" />
  <path d="M 360 341  C 358.32 341  357 339.68  357 338  C 357 336.32  358.32 335  360 335  C 361.68 335  363 336.32  363 338  C 363 339.68  361.68 341  360 341  " fill-rule="nonzero" fill="#1890ff" stroke="none" />
</svg>