<?xml version="1.0" encoding="utf-8"?>
<svg version="1.1" xmlns:xlink="http://www.w3.org/1999/xlink" width="16px" height="14px" xmlns="http://www.w3.org/2000/svg">
  <g transform="matrix(1 0 0 1 -562 -193 )">
    <path d="M 1.219047625 0  L 14.780952375 0  C 15.4121349462352 0.00942760353535352  15.9238095178571 0.51593374514092  16 1.14074073484848  L 16 12.7555555555556  C 15.9238095178571 13.3803625452631  15.4121349462352 13.8868686868687  14.780952375 13.8868686868687  L 1.219047625 13.8868686868687  C 0.587865053764808 13.8868686868687  0.0761904821428574 13.3803625452631  0 12.7555555555556  L 0 1.14074073484848  C 0.0761904821428574 0.51593374514092  0.587865053764808 0.00942760353535352  1.219047625 0  Z M 10.019047625 7.6759595959596  C 9.8904403226713 7.51131635057961  9.65140391111737 7.48093693440773  9.484952375 7.60808080808081  C 9.45926744287351 7.62772307252031  9.43622364213786 7.65053410759196  9.41638094642857 7.6759595959596  L 5.92533333928571 12.1476633055556  C 5.87368404000309 12.213732882005  5.84565991176702 12.2949097086125  5.84565991176702 12.3784514305751  C 5.84565991176702 12.5867204238901  6.0162180996427 12.7555558017873  6.22661228676702 12.7555558017873  L 13.2083809464286 12.7555555555556  C 13.418829335852 12.7555555593726  13.5893875237276 12.5867201814754  13.5893875237276 12.3784511881605  C 13.5893875237276 12.2949095711922  13.5613634658334 12.2137328405274  13.5097142857143 12.1476633055556  L 10.019047625 7.6759595959596  Z M 4.03809523214286 3.62962962373737  C 3.19651846885223 3.62962962373737  2.51428570535714 4.30497114719716  2.51428570535714 5.13804713510101  C 2.51428570535714 5.97112312300486  3.19651846885223 6.64646464646465  4.03809523214286 6.64646464646465  C 4.87967199543349 6.64646464646465  5.56190475892857 5.97112312300487  5.56190475892857 5.13804713510101  C 5.56190475892857 4.30497114719716  4.87967199543348 3.62962962373737  4.03809523214286 3.62962962373737  Z " fill-rule="nonzero" fill="#cecece" stroke="none" transform="matrix(1 0 0 1 562 193 )" />
  </g>
</svg>