<?xml version="1.0" encoding="utf-8"?>
<svg version="1.1" xmlns:xlink="http://www.w3.org/1999/xlink" width="27px" height="27px" xmlns="http://www.w3.org/2000/svg">
  <g transform="matrix(1 0 0 1 -271 -101 )">
    <path d="M 26.9237288040254 13.5  C 26.9237288040254 20.9135593220339  20.9135593220339 26.9237288040254  13.5 26.9237288040254  C 6.0864406779661 26.9237288040254  0.0762711959745762 20.9135593220339  0.0762711959745762 13.5  C 0.0762711959745762 6.0864406779661  6.0864406779661 0.0762711959745762  13.5 0.0762711959745762  C 20.9135593220339 0.0762711959745762  26.9237288040254 6.0864406779661  26.9237288040254 13.5  Z M 21.1747118739407 7.33972882309322  L 12.0575593220339 17.5966779661017  L 7.7399999904661 13.2803389830508  C 7.57058133909282 13.1224730741572  7.34762012389347 13.0346949306687  7.11605085860996 13.0346949306687  C 6.61056990113771 13.0346949306687  6.20079662132182 13.4444682104846  6.20079662132182 13.9499491679569  C 6.20079662132182 14.1815184402289  6.28857477009614 14.404479661623  6.4464406875 14.5738983146186  L 11.4437288230932 19.5724067701271  C 11.4469587255491 19.5756852547303  11.4502130502832 19.5789395889985  11.4534915254237 19.5821695010593  L 11.460813559322 19.5882711864407  C 11.6324461921218 19.7598332518393  11.8651876467373 19.8562098866076  12.1078629502307 19.8562098866076  C 12.4290699073177 19.8562098866076  12.7267686076963 19.6878291428323  12.8922711864407 19.4125423728814  L 22.5439322129237 8.55518645021186  C 22.6926345125092 8.38767241393185  22.7747593132664 8.17145166838737  22.7747593132664 7.94745763665254  C 22.7747593132664 7.44187559309639  22.3649040869884 7.03202036681837  21.8593220434322 7.03202036681837  C 21.5976265462041 7.03202036681837  21.3484429413606 7.14401972907197  21.1747118739407 7.33972882309322  Z " fill-rule="nonzero" fill="#52c41a" stroke="none" transform="matrix(1 0 0 1 271 101 )" />
  </g>
</svg>