<?xml version="1.0" encoding="utf-8"?>
<svg version="1.1" xmlns:xlink="http://www.w3.org/1999/xlink" width="13px" height="13px" xmlns="http://www.w3.org/2000/svg">
  <g transform="matrix(1 0 0 1 -10 -13 )">
    <path d="M 12.9670495049505 5.67424  C 12.9752871287129 5.4912  12.8270099009901 5.34144  12.6457821782178 5.34144  C 12.4645544554455 5.34144  12.3162772277228 5.4912  12.3162772277228 5.67424  L 12.3162772277228 11.83104  C 12.3162772277228 12.1056  12.0938613861386 12.33024  11.8220198019802 12.33024  L 1.27786138613861 12.33024  C 1.0060198019802 12.33024  0.783603960396039 12.1056  1 11.83104  L 1 1.18976  C 0.783603960396039 0.9152  1.0060198019802 0.69056  1.27786138613861 0.69056  L 7.37370297029703 0.69056  C 7.55493069306931 0.69056  7.70320792079208 0.5408  7.70320792079208 0.35776  C 7.70320792079208 0.174720000000001  7.55493069306931 0.0249600000000005  7.37370297029703 0.0249600000000005  L 1.27786138613861 0.0249600000000005  C 0.643564356435643 0.0249600000000005  0.12459405940594 0.54912  0.12459405940594 1.18976  L 0.12459405940594 11.83104  C 0.12459405940594 12.47168  0.643564356435643 12.99584  1.27786138613861 13  L 11.8137821782178 13  C 12.4480792079208 12.99584  12.9670495049505 12.47168  12.9670495049505 11.83104  L 12.9670495049505 5.67424  Z " fill-rule="nonzero" fill="#ffffff" stroke="none" transform="matrix(1 0 0 1 10 13 )" />
  </g>
</svg>