<?xml version="1.0" encoding="utf-8"?>
<svg version="1.1" xmlns:xlink="http://www.w3.org/1999/xlink" width="10px" height="10px" xmlns="http://www.w3.org/2000/svg">
  <g transform="matrix(1 0 0 1 -14 -13 )">
    <path d="M 9.70526315789474 2.69714285714286  C 10.0336842105263 2.37298701298701  10.0336842105263 1.84935064935065  9.70526315789474 1.52519480519481  L 8.51789473684211 0.353246753246753  C 8.35789473684211 0.195324675324676  8.14736842105263 0.112207792207792  7.92 0.112207792207792  C 7.69263157894737 0.112207792207792  7.4821052631579 0.195324675324676  7.3221052631579 0.353246753246753  L 0.711578947368422 6.88623376623377  C 0.602105263157896 6.99428571428571  0.517894736842106 7.13558441558442  0.48421052631579 7.29350649350649  L 0.0210526315789469 9.31324675324675  C -0.0210526315789479 9.47948051948052  0.0294736842105259 9.65402597402597  0.15578947368421 9.7787012987013  C 0.248421052631579 9.87012987012987  0.383157894736842 9.92831168831169  0.509473684210526 9.92831168831169  C 0.543157894736842 9.92831168831169  0.585263157894737 9.92831168831169  0.618947368421053 9.91168831168831  L 2.68210526315789 9.45454545454546  C 2.83368421052632 9.4212987012987  2.97684210526316 9.34649350649351  3.09473684210526 9.23012987012987  L 9.70526315789474 2.69714285714286  Z M 9.21684210526316 1.98233766233766  C 9.30105263157895 2.05714285714286  9.30105263157895 2.1651948051948  9.23368421052632 2.23168831168831  L 2.62315789473684 8.76467532467533  C 2.59789473684211 8.78961038961039  2.57263157894737 8.80623376623377  2.53894736842105 8.80623376623377  L 0.736842105263158 9.20519480519481  L 1.14105263157895 7.42649350649351  C 1.14947368421053 7.39324675324675  1.16631578947368 7.36831168831169  1.18315789473684 7.34337662337662  L 7.79368421052632 0.81038961038961  C 7.83578947368421 0.768831168831168  7.88631578947368 0.76051948051948  7.91157894736842 0.76051948051948  C 7.93684210526316 0.76051948051948  7.98736842105263 0.768831168831168  8.02947368421053 0.81038961038961  L 9.21684210526316 1.98233766233766  Z " fill-rule="nonzero" fill="#ffffff" stroke="none" transform="matrix(1 0 0 1 14 13 )" />
  </g>
</svg>