<?xml version="1.0" encoding="utf-8"?>
<svg version="1.1" xmlns:xlink="http://www.w3.org/1999/xlink" width="20px" height="19px" xmlns="http://www.w3.org/2000/svg">
  <g transform="matrix(1 0 0 1 -714 -115 )">
    <path d="M 20 7.90070564516129  C 20 7.19012096774193  19.541015625 6.55806451612903  18.876953125 6.30907258064516  C 18.28515625 4.55272177419355  17.13671875 2.97832661290323  15.623046875 1.85786290322581  C 13.9921875 0.651209677419354  12.048828125 0.0134072580645156  10 0.0134072580645156  C 7.951171875 0.0134072580645156  6.0078125 0.651209677419355  4.376953125 1.85786290322581  C 2.86328125 2.97641129032258  1.71484375 4.5508064516129  1.123046875 6.30907258064516  C 0.458984375 6.55806451612903  0 7.19012096774193  0 7.90070564516129  L 0 10.4595766129032  C 0 11.2582661290323  0.578125 11.9592741935484  1.375 12.1259072580645  C 1.49609375 12.1508064516129  1.6171875 12.1642137096774  1.73828125 12.1642137096774  C 2.697265625 12.1642137096774  3.4765625 11.4  3.4765625 10.4595766129032  L 3.4765625 7.90070564516129  C 3.4765625 7.07328629032258  2.87109375 6.38185483870968  2.072265625 6.22862903225806  C 3.30859375 3.04536290322581  6.486328125 0.865725806451613  9.998046875 0.865725806451613  C 13.509765625 0.865725806451613  16.6875 3.04344758064516  17.923828125 6.22862903225806  C 17.125 6.38185483870968  16.51953125 7.07328629032258  16.51953125 7.90070564516129  L 16.51953125 10.4595766129032  C 16.51953125 11.2065524193548  17.01171875 11.8405241935484  17.6953125 12.0703629032258  C 16.55859375 14.4817540322581  14.302734375 16.2227822580645  11.646484375 16.7360887096774  C 11.416015625 16.0561491935484  10.765625 15.5734879032258  10 15.5734879032258  C 9.041015625 15.5734879032258  8.26171875 16.3377016129032  8.26171875 17.278125  C 8.26171875 18.2185483870968  9.041015625 18.9827620967742  10 18.9827620967742  C 10.849609375 18.9827620967742  11.556640625 18.3813508064516  11.708984375 17.5903225806452  C 14.796875 17.0310483870968  17.404296875 14.9701612903226  18.62109375 12.1220766129032  L 18.625 12.1220766129032  C 19.421875 11.9535282258064  20 11.2525201612903  20 10.4557459677419  L 20 7.90070564516129  Z M 1.740234375 7.04838709677419  C 2.21875 7.04838709677419  2.609375 7.43145161290323  2.609375 7.90070564516129  L 2.609375 10.4595766129032  C 2.609375 10.9307459677419  2.21875 11.3118951612903  1.740234375 11.3118951612903  C 1.6796875 11.3118951612903  1.619140625 11.3061491935484  1.55859375 11.2927419354839  C 1.16015625 11.2084677419355  0.87109375 10.8579637096774  0.87109375 10.4595766129032  L 0.87109375 7.90070564516129  C 0.87109375 7.5023185483871  1.16015625 7.15181451612903  1.55859375 7.06754032258065  C 1.619140625 7.05413306451613  1.6796875 7.04838709677419  1.740234375 7.04838709677419  Z M 10.869140625 17.2819556451613  C 10.869140625 17.7512096774194  10.478515625 18.1342741935484  10 18.1342741935484  C 9.521484375 18.1342741935484  9.130859375 17.7512096774194  9.130859375 17.2819556451613  C 9.130859375 16.8127016129032  9.521484375 16.4296370967742  10 16.4296370967742  C 10.466796875 16.4296370967742  10.84765625 16.7897177419355  10.8671875 17.2474798387097  C 10.8671875 17.2589717741936  10.869140625 17.2685483870968  10.869140625 17.2819556451613  Z M 19.130859375 7.90070564516129  L 19.130859375 10.4595766129032  C 19.130859375 10.8579637096774  18.841796875 11.2084677419355  18.443359375 11.2927419354839  C 18.400390625 11.3023185483871  18.353515625 11.308064516129  18.296875 11.3099798387097  C 18.28515625 11.3099798387097  18.2734375 11.3118951612903  18.26171875 11.3118951612903  C 17.783203125 11.3118951612903  17.392578125 10.9288306451613  17.392578125 10.4595766129032  L 17.392578125 7.90070564516129  C 17.392578125 7.43145161290323  17.783203125 7.04838709677419  18.26171875 7.04838709677419  C 18.322265625 7.04838709677419  18.3828125 7.05413306451613  18.443359375 7.06754032258065  C 18.841796875 7.15181451612903  19.130859375 7.5023185483871  19.130859375 7.90070564516129  Z " fill-rule="nonzero" fill="#d9d3ea" stroke="none" transform="matrix(1 0 0 1 714 115 )" />
  </g>
</svg>