<?xml version="1.0" encoding="utf-8"?>
<svg version="1.1" xmlns:xlink="http://www.w3.org/1999/xlink" width="28px" height="28px" xmlns="http://www.w3.org/2000/svg">
  <g transform="matrix(1 0 0 1 -936 -155 )">
    <path d="M 950 155  C 957.84 155  964 161.16  964 169  C 964 176.84  957.84 183  950 183  C 942.16 183  936 176.84  936 169  C 936 161.16  942.16 155  950 155  Z " fill-rule="nonzero" fill="#ffbf60" stroke="none" />
    <path d="M 950 155.5  C 957.56 155.5  963.5 161.44  963.5 169  C 963.5 176.56  957.56 182.5  950 182.5  C 942.44 182.5  936.5 176.56  936.5 169  C 936.5 161.44  942.44 155.5  950 155.5  Z " stroke-width="1" stroke="#ffffff" fill="none" />
  </g>
</svg>