<?xml version="1.0" encoding="utf-8"?>
<svg version="1.1" xmlns:xlink="http://www.w3.org/1999/xlink" width="25px" height="19px" xmlns="http://www.w3.org/2000/svg">
  <defs>
    <mask fill="white" id="clip128">
      <path d="M 16.25 19  C 10 19  6.25 13.3  0 9.5  C 6.25 5.7  10 0  16.25 0  C 19.5 0  25 1.9  25 9.5  C 25 17.1  19.5 19  16.25 19  Z " fill-rule="evenodd" />
    </mask>
  </defs>
  <g transform="matrix(1 0 0 1 -397 -117 )">
    <path d="M 16.25 19  C 10 19  6.25 13.3  0 9.5  C 6.25 5.7  10 0  16.25 0  C 19.5 0  25 1.9  25 9.5  C 25 17.1  19.5 19  16.25 19  Z " fill-rule="nonzero" fill="#ffbf60" stroke="none" transform="matrix(1 0 0 1 397 117 )" />
    <path d="M 16.25 19  C 10 19  6.25 13.3  0 9.5  C 6.25 5.7  10 0  16.25 0  C 19.5 0  25 1.9  25 9.5  C 25 17.1  19.5 19  16.25 19  Z " stroke-width="2" stroke="#ffffff" fill="none" transform="matrix(1 0 0 1 397 117 )" mask="url(#clip128)" />
  </g>
</svg>