<?xml version="1.0" encoding="utf-8"?>
<svg version="1.1" xmlns:xlink="http://www.w3.org/1999/xlink" width="9px" height="10px" xmlns="http://www.w3.org/2000/svg">
  <g transform="matrix(1 0 0 1 -632 -338 )">
    <path d="M 8.71975210084034 9.845537109375  C 8.83069222689076 9.701044921875  8.82103991596639 9.4768359375  8.67634033613446 9.34728515625  L 7.95764495798319 8.6945703125  C 7.76953361344538 8.51021484375  7.52352731092437 8.405576171875  7.2630756302521 8.405576171875  L 7.25342331932773 8.405576171875  C 6.98330987394958 8.405576171875  6.73248214285714 8.5151953125  6.54437079831933 8.714501953125  L 6.12955777310924 9.147978515625  C 6.06685084033613 9.21275390625  5.9848487394958 9.24763671875  5.89803466386555 9.24763671875  C 5.81121113445378 9.24763671875  5.72920903361345 9.21275390625  5.66651155462185 9.147978515625  L 5.23721533613445 8.70453125  C 5.04910399159664 8.51021484375  4.7982762605042 8.405576171875  4.52817226890756 8.400595703125  C 4.26288025210084 8.400595703125  4.01206197478992 8.505234375  3.81911974789916 8.69955078125  L 3.37535924369748 9.15296875  C 3.24995483193277 9.282509765625  3.04254831932773 9.282509765625  2.91713445378151 9.15296875  L 2.47337394957983 8.69955078125  C 2.28526260504202 8.505234375  2.03443487394958 8.400595703125  1.76433088235294 8.400595703125  C 1.49903886554622 8.400595703125  1.25304201680672 8.505234375  1.06493067226891 8.6945703125  L 0.365530462184874 9.3423046875  C 0.225642857142857 9.471845703125  0.216 9.696064453125  0.341413865546218 9.840556640625  C 0.466818277310924 9.985048828125  0.683877100840336 9.99501953125  0.82375525210084 9.86546875  L 1.53280777310924 9.21275390625  C 1.53762920168067 9.2077734375  1.5424506302521 9.20279296875  1.54727205882353 9.20279296875  C 1.67268592436975 9.0732421875  1.88009243697479 9.0732421875  2.0054968487395 9.20279296875  L 2.44925735294118 9.6562109375  C 2.6373781512605 9.85052734375  2.88819642857143 9.95515625  3.15830987394958 9.95515625  C 3.4236018907563 9.95515625  3.67442016806723 9.85052734375  3.86735294117647 9.656201171875  L 4.31111344537815 9.202783203125  C 4.43652731092437 9.0732421875  4.64393382352941 9.0732421875  4.76933823529412 9.202783203125  L 5.19863445378151 9.646240234375  C 5.38674579831933 9.840556640625  5.64239495798319 9.95017578125  5.90766806722689 9.95017578125  L 5.91249894957983 9.95017578125  C 6.18261239495798 9.95017578125  6.43343067226891 9.840556640625  6.62637289915966 9.641259765625  L 7.04118592436975 9.207763671875  C 7.16659978991597 9.07822265625  7.37400630252101 9.0732421875  7.49941071428572 9.202783203125  L 7.51388445378151 9.217734375  L 8.2374012605042 9.875439453125  C 8.30010819327731 9.935224609375  8.38211029411765 9.965126953125  8.46410294117647 9.9651171875  C 8.56057878151261 9.9651171875  8.6522237394958 9.925263671875  8.71975210084034 9.845537109375  Z M 8.80175420168067 4.285  L 7.59588655462185 3.746884765625  L 7.59588655462185 2.167412109375  C 7.59588655462185 2.022919921875  7.50906302521008 1.893369140625  7.37882773109244 1.838564453125  L 5.24203676470588 0.9815625  L 5.24203676470588 0  L 3.85288865546219 0  L 3.85288865546219 0.9815625  L 1.63890756302521 1.8634765625  C 1.50867226890756 1.91828125  1.4218487394958 2.04783203125  1.4218487394958 2.19232421875  L 1.4218487394958 3.76681640625  L 0.259411764705882 4.285  C 0.0809432773109243 4.3647265625  0.0134149159663865 4.59392578125  0.124355042016807 4.7633203125  L 1.91868277310924 7.737919921875  C 1.95726365546218 7.797705078125  2.01514915966387 7.837568359375  2.0826775210084 7.847529296875  C 2.40102415966387 7.9123046875  2.69525420168067 8.071748046875  2.93160819327731 8.310908203125  L 2.96536764705882 8.345791015625  C 3.06666491596639 8.445439453125  3.22583823529412 8.445439453125  3.32712605042017 8.345791015625  L 3.36089495798319 8.310908203125  C 3.67442016806723 7.99203125  4.08923319327731 7.817646484375  4.52817226890756 7.817646484375  L 4.53299369747899 7.817646484375  C 4.97675420168067 7.817646484375  5.39156722689076 7.99701171875  5.70509243697479 8.315888671875  L 5.71955672268908 8.33083984375  C 5.82085399159664 8.435478515625  5.9848487394958 8.435478515625  6.08132457983193 8.33083984375  C 6.32731197478992 8.07673828125  6.63601575630252 7.90732421875  6.97848844537815 7.8475390625  C 7.04600735294118 7.837568359375  7.10871428571429 7.797705078125  7.14730462184874 7.737919921875  L 8.94163235294118 4.763330078125  C 9.04292016806723 4.59392578125  8.98021323529412 4.3647265625  8.80174474789916 4.285009765625  Z M 6.91578151260504 2.411552734375  L 6.91578151260504 3.44294921875  L 4.77415966386555 2.486298828125  C 4.61981722689076 2.41654296875  4.4413487394958 2.41654296875  4.2869968487395 2.486298828125  L 2.10197268907563 3.462880859375  L 2.10197268907563 2.431494140625  L 4.53781512605042 1.459892578125  L 6.91578151260504 2.411552734375  Z " fill-rule="nonzero" fill="#d9d9d9" stroke="none" transform="matrix(1 0 0 1 632 338 )" />
  </g>
</svg>