<?xml version="1.0" encoding="utf-8"?>
<svg version="1.1" xmlns:xlink="http://www.w3.org/1999/xlink" width="74px" height="8px" xmlns="http://www.w3.org/2000/svg">
  <g transform="matrix(1 0 0 1 -623 -326 )">
    <path d="M 70.3106180633138 5.61904762723213  L 1.35416666666651 5.61904762723213  C 0.805776600191848 5.61913619486916  0.361263133313059 6.08814527517075  0.361263133313059 6.6666666707589  C 0.361263133313059 7.24518806634717  0.805776600191848 7.71419714664864  1.35416666666651 7.71428571428572  L 72.820069436686 7.71428571428572  C 73.7197777700194 7.71428571428572  74.1557291666668 6.55247619866071  73.4993194366862 5.90190477008929  L 68.2093124999999 0.663809515625019  C 68.0251139067786 0.481601809809888  67.7820744492692 0.380198226957873  67.5295659683431 0.380198226957873  C 66.980721714637 0.380198226957873  66.5357955376471 0.849570897188983  66.5357955376471 1.42857142857144  C 66.5357955376471 1.71831793721174  66.6494651168662 1.99514452624993  66.8498194366862 2.19333334151781  L 70.3106180633138 5.61904762723213  Z " fill-rule="nonzero" fill="#edf4f7" stroke="none" transform="matrix(1 0 0 1 623 326 )" />
  </g>
</svg>