<?xml version="1.0" encoding="utf-8"?>
<svg version="1.1" xmlns:xlink="http://www.w3.org/1999/xlink" width="13px" height="15px" xmlns="http://www.w3.org/2000/svg">
  <g transform="matrix(1 0 0 1 -806 -274 )">
    <path d="M 12.9621818181818 11.3889075630252  C 12.9612363636364 10.229243697479  12.4204363636364 9.88134453781513  12.0101090909091 9.6363025210084  C 11.8853090909091 8.76806722689075  11.5213090909091 6.22789915966387  11.4277090909091 5.7509243697479  C 11.4040727272727 3.58084033613445  9.58218181818182 2.1963025210084  7.91912727272727 1.61949579831933  L 7.91912727272727 1.45915966386555  C 7.91912727272727 0.682689075630251  7.28378181818182 0.0514285714285707  6.50189090909091 0.0514285714285707  C 5.72 0.0514285714285707  5.0856 0.683697478991596  5.0856 1.45915966386555  L 5.0856 1.56403361344538  C 3.23629090909091 2.13378151260504  1.45505454545454 3.61109243697479  1.43141818181818 5.75697478991597  C 1.33781818181818 6.24403361344538  1.02487272727273 8.76  0.917090909090908 9.63126050420168  C 0.452872727272726 9.92470588235294  0.0397090909090895 10.346218487395  0.0397090909090895 11.3889075630252  C 0.0397090909090895 11.883025210084  0.414109090909089 12.8168067226891  1.82850909090909 12.8168067226891  L 4.09476363636363 12.8168067226891  C 4.29448359862901 14.0670588809599  5.31090211751149 14.9811224273031  6.5 14.9798319327731  C 7.68952804016847 14.9812755377581  8.70656795266128 14.0673716510346  8.90712727272727 12.8168067226891  L 11.1724363636364 12.8168067226891  C 12.5877818181818 12.8168067226891  12.9621818181818 11.883025210084  12.9621818181818 11.3889075630252  Z M 8.19236363636363 12.8168067226891  C 7.99880230986014 13.6451081861835  7.30035137279766 14.2256730005416  6.5 14.2235294117647  C 5.7001176044122 14.2248455762054  5.00236031930975 13.6445331407755  4.80858181818182 12.8168067226891  L 8.19236363636363 12.8168067226891  Z M 12.2521454545455 11.3899159663866  C 12.2521454545455 11.4171428571429  12.2398545454545 12.061512605042  11.1714909090909 12.061512605042  L 1.82756363636364 12.061512605042  C 0.823490909090909 12.061512605042  0.752581818181818 11.4957983193277  0.747854545454545 11.3899159663866  C 0.747854545454545 10.6376470588235  0.999345454545455 10.44  1.41250909090909 10.2020168067227  L 1.57229090909091 10.1102521008403  L 1.59592727272727 9.91865546218488  C 1.77272727272727 8.4836974789916  2.07243636363636 6.12403361344538  2.12727272727273 5.90016806722689  L 2.14050909090909 5.79932773109244  C 2.14050909090909 3.93579831932773  3.83949090909091 2.66016806722689  5.52429090909091 2.22151260504202  L 5.79469090909091 2.1509243697479  L 5.79469090909091 1.45915966386555  C 5.79469090909091 1.10016806722689  6.11236363636364 0.807731092436978  6.50283636363636 0.807731092436978  C 6.89330909090909 0.807731092436978  7.21098181818182 1.10016806722689  7.21098181818182 1.45915966386555  L 7.21098181818182 2.18621848739496  L 7.46814545454546 2.26386554621849  C 8.96763636363636 2.7146218487395  10.7186181818182 3.90957983193278  10.7186181818182 5.79428571428572  L 10.7309090909091 5.89109243697479  C 10.7829090909091 6.1018487394958  11.1289454545455 8.48067226890757  11.3350545454545 9.93075630252101  L 11.3605818181818 10.109243697479  L 11.6366545454545 10.2786554621849  C 12.0082181818182 10.5005042016807  12.2521454545455 10.6457142857143  12.2521454545455 11.3899159663866  Z " fill-rule="nonzero" fill="#d0d0d0" stroke="none" transform="matrix(1 0 0 1 806 274 )" />
  </g>
</svg>