<?xml version="1.0" encoding="utf-8"?>
<svg version="1.1" xmlns:xlink="http://www.w3.org/1999/xlink" width="9px" height="11px" xmlns="http://www.w3.org/2000/svg">
  <g transform="matrix(1 0 0 1 -93 -575 )">
    <path d="M 4.55572809278351 0.450373883928571  C 5.72568170103093 0.7367421875  6.89754896907216 1.02358928571429  8.03737113402062 0.794676339285714  C 8.258625 0.750246651785714  8.47866108247423 0.6863828125  8.69724742268041 0.599303571428571  C 8.82414046391752 0.548760044642857  8.96520618556701 0.6444453125  8.96520618556701 0.787973214285714  L 8.96520618556701 6.52055691964286  C 8.96520618556701 6.67778571428571  8.8765631443299 6.82115401785714  8.73778221649484 6.87720982142857  C 7.05307731958763 7.557859375  5.69964432989691 7.18390848214286  4.36063917525773 6.81393526785714  C 3.30891494845361 6.52334375  2.26607474226804 6.23521986607143  1.07860824742268 6.4625  L 1.07860824742268 10.9017857142857  C 1.07860824742268 10.9560279665012  1.0370676572008 11  0.985824742268041 11  L 0.150773195876289 11  C 0.0995302809435347 11  0.0579896907216495 10.9560279665012  0 10.9017857142857  L 0 0.721420758928571  C 0.0579896907216495 0.573497767857143  0.136125 0.436488839285714  0.264224226804124 0.377376116071429  C 1.64819458762887 -0.261323660714286  3.10047680412371 0.0941506696428573  4.55572809278351 0.450373883928571  Z M 1.07860824742268 1.11583705357143  L 1.07860824742268 5.46765066964286  C 2.40367268041237 5.256453125  3.55150902061856 5.57449553571429  4.54771391752577 5.85051450892857  C 4.59213402061856 5.862828125  4.63586984536083 5.8749453125  4.67931572164948 5.88692745535714  C 5.85345618556701 6.21089955357143  6.85155154639175 6.45738058035714  8.03737113402062 6.09149553571428  L 8.03737113402062 1.78990625  C 6.75414046391753 1.99921316964286  5.49873324742268 1.69053794642857  4.44399355670103 1.43119084821429  C 4.39222036082474 1.41845982142857  4.34105025773196 1.40587611607143  4.29036726804124 1.3934765625  C 3.00951417525773 1.08009933035714  1.99665463917526 0.865464285714286  1.07860824742268 1.11583705357143  Z " fill-rule="nonzero" fill="#434343" stroke="none" transform="matrix(1 0 0 1 93 575 )" />
  </g>
</svg>