<?xml version="1.0" encoding="utf-8"?>
<svg version="1.1" xmlns:xlink="http://www.w3.org/1999/xlink" width="13px" height="15px" xmlns="http://www.w3.org/2000/svg">
  <g transform="matrix(1 0 0 1 -395 -638 )">
    <path d="M 12.9621818181818 11.3889075630252  C 12.9612363636364 10.229243697479  12.4204363636364 9.88134453781515  12.0101090909091 9.63630252100836  C 11.8853090909091 8.76806722689071  11.5213090909091 6.22789915966382  11.4277090909091 5.75092436974785  C 11.4040727272727 3.58084033613443  9.58218181818182 2.19630252100842  7.91912727272728 1.61949579831935  L 7.91912727272728 1.45915966386553  C 7.91912727272728 0.682689075630265  7.28378181818181 0.0514285714285734  6.50189090909089 0.0514285714285734  C 5.72000000000003 0.0514285714285734  5.0856 0.683697478991576  5.0856 1.45915966386553  L 5.0856 1.56403361344542  C 3.23629090909088 2.13378151260508  1.45505454545457 3.61109243697479  1.43141818181817 5.75697478991594  C 1.33781818181819 6.24403361344537  1.02487272727274 8.75999999999999  0.917090909090916 9.63126050420169  C 0.452872727272734 9.9247058823529  0.0397090909090707 10.3462184873949  0.0397090909090707 11.3889075630252  C 0.0397090909090707 11.883025210084  0.414109090909108 12.8168067226891  1.82850909090911 12.8168067226891  L 4.09476363636361 12.8168067226891  C 4.29448359862903 14.0670588809598  5.31090211751149 14.981122427303  6.5 14.9798319327731  C 7.68952804016845 14.9812755377581  8.70656795266126 14.0673716510346  8.90712727272728 12.8168067226891  L 11.1724363636364 12.8168067226891  C 12.5877818181818 12.8168067226891  12.9621818181818 11.883025210084  12.9621818181818 11.3889075630252  Z " fill-rule="nonzero" fill="#ecc970" stroke="none" transform="matrix(1 0 0 1 395 638 )" />
  </g>
</svg>