<?xml version="1.0" encoding="utf-8"?>
<svg version="1.1" xmlns:xlink="http://www.w3.org/1999/xlink" width="25px" height="13px" xmlns="http://www.w3.org/2000/svg">
  <g transform="matrix(1 0 0 1 -814 -828 )">
    <path d="M 10.5790048232802 2  L 0 2  L 0 9.94450529003839  L 1.00108212751328 9.94450529003839  L 1.00108212751328 2.89989095009824  L 9.53733880168549 2.89989095009824  L 9.53733880168549 9.85962983740632  L 10.5790048232802 9.85962983740632  L 10.5790048232802 2  Z M 10.0919922886553 4.96517924095  L 0.649350691238437 4.96517924095  L 0.649350691238437 5.94123986370864  L 10.0919922886553 5.94123986370864  L 10.0919922886553 4.96517924095  Z M 10.0784638401576 8.10554974080607  L 0.662878817200239 8.10554974080607  L 0.662878817200239 9.12404842714313  L 10.0784638401576 9.12404842714313  L 10.0784638401576 8.10554974080607  Z M 6 0  L 5 0  L 5 13  L 6 13  L 6 0  Z M 14.123377695704 0.32535365334034  C 14.123377695704 0.32535365334034  13.4604992010397 0.97606096002102  13.4604992010397 0.97606096002102  C 14.1774906027212 1.64091389442172  15.070347682223 2.57453712812671  15.4897200305258 3.16866108077133  C 15.4897200305258 3.16866108077133  16.1796528418979 2.40478774054332  16.1796528418979 2.40478774054332  C 15.7467523273163 1.83895504333874  14.8403690973854 0.947768861425007  14.123377695704 0.32535365334034  Z M 14.3127708140973 11.7693147056571  C 14.3127708140973 11.7693147056571  14.5021639324906 12.759521124767  14.5021639324906 12.759521124767  C 14.7050860235026 12.4766049447959  15.0568180645324 12.1795426312112  17.3430736098287 10.3264414542588  C 17.2213203149045 10.1284001367106  17.0589823195589 9.71817141015838  16.9913416897499 9.43525527234508  C 16.9913416897499 9.43525527234508  14.5833346234772 11.3166492224182  14.5833346234772 11.3166492224182  L 14.3127708140973 11.7693147056571  Z M 15.2056277726482 4.44178443869265  L 12.5811681106989 4.44178443869265  L 12.5811681106989 5.47442858411853  L 15.2056277726482 5.47442858411853  L 15.2056277726482 4.44178443869265  Z M 13.9610388940185 11.8541888092396  C 14.1504328187517 12.0663759652968  14.407466970124 12.5048965585772  14.5021639324906 12.759521124767  C 14.5021639324906 12.3634384475127  15.5979450382203 11.5429819640377  15.5979450382203 11.5429819640377  C 15.5979450382203 11.5429819640377  15.5979450382203 4.44178443869265  15.5979450382203 4.44178443869265  L 14.6239173886828 4.44178443869265  C 14.6239173886828 4.44178443869265  14.6239173886828 10.6517957821239  14.6239173886828 10.6517957821239  C 14.6239173886828 11.2742114539444  14.2180734485607 11.698584901824  13.9610388940185 11.8541888092396  Z M 23.2142860828982 8.13384065898373  L 18.479437480764 8.13384065898373  L 18.479437480764 8.89771433647413  L 23.2142860828982 8.89771433647413  L 23.2142860828982 8.13384065898373  Z M 24.5941568662179 1.11751892353317  L 17.1942658369287 1.11751892353317  L 17.1942658369287 1.92382999007722  L 24.5941568662179 1.92382999007722  L 24.5941568662179 1.11751892353317  Z M 24.174785283938 2.82916163107978  L 17.518940860012 2.82916163107978  L 17.518940860012 3.60718144218378  L 24.174785283938 3.60718144218378  L 24.174785283938 2.82916163107978  Z M 25 4.59738786129363  L 16.7884201228589 4.59738786129363  L 16.7884201228589 5.40369926510007  L 25 5.40369926510007  L 25 4.59738786129363  Z M 23.2413429798938 10.0435255272345  L 18.4659090322662 10.0435255272345  L 18.4659090322662 10.8215453383385  L 23.2413429798938 10.8215453383385  L 23.2413429798938 10.0435255272345  Z M 23.2548714283915 6.23830192434655  L 17.7489193238986 6.23830192434655  L 17.7489193238986 13  L 18.7094159446506 13  L 18.7094159446506 7.05875878724181  L 23.2548714283915 7.05875878724181  L 23.2548714283915 6.23830192434655  Z M 23.9177499230558 6.23830192434655  L 22.9437222735183 6.23830192434655  C 22.9437222735183 6.23830192434655  22.9437222735183 11.8117517574484  22.9437222735183 11.8117517574484  C 22.9437222735183 11.9956472997243  22.8896092858672 12.0522306326814  22.700215361134 12.0522306326814  C 22.5243494010946 12.0663764448418  21.875000322536 12.0663761102143  21.1850652534121 12.0380844990678  C 21.3068185483363 12.3068548826877  21.4420986790785 12.7029383187823  21.4826833794998 12.9575629482087  C 22.4431809678597 12.9717087867178  23.0519482488207 12.9575620839739  23.4307360982871 12.8019581765582  C 23.8095239477535 12.6463542164453  23.9177499230558 12.3634387004595  23.9177499230558 11.825897891062  C 23.9177499230558 11.825897891062  23.9177499230558 6.23830192434655  23.9177499230558 6.23830192434655  Z M 21.3338756065998 0  L 20.3192651918568 0  L 20.3192651918568 4.85201287014028  L 21.3338756065998 4.85201287014028  L 21.3338756065998 0  Z " fill-rule="nonzero" fill="#ffffff" stroke="none" transform="matrix(1 0 0 1 814 828 )" />
  </g>
</svg>