<?xml version="1.0" encoding="utf-8"?>
<svg version="1.1" xmlns:xlink="http://www.w3.org/1999/xlink" width="25px" height="25px" xmlns="http://www.w3.org/2000/svg">
  <g transform="matrix(1 0 0 1 -1090 -341 )">
    <path d="M 24.4642857048689 21.9642856910425  C 24.4642857048689 21.9642856910425  14.9999999811663 12.5000000052316  14.9999999811663 12.5000000052316  C 14.9999999811663 12.5000000052316  24.4642857048689 3.03571431942064  24.4642857048689 3.03571431942064  C 25.1785714317104 2.32142859228017  25.1785714317104 1.25000002249582  24.4642857048689 0.53571429535535  C 23.7499999780273 -0.178571431785117  22.6785714086914 -0.178571431785116  21.9642856818499 0.53571429535535  C 21.9642856818499 0.53571429535535  12.5 10.000000023019  12.5 10.000000023019  C 12.5 10.000000023019  3.03571431815011 0.53571429535535  3.03571431815011 0.53571429535535  C 2.32142859130859 -0.178571431785116  1.25000002197266 -0.178571431785116  0.535714295131139 0.53571429535535  C -0.17857143171038 1.25000002249581  -0.178571431710379 2.32142859228017  0.535714295131139 3.03571431942064  C 0.535714295131139 3.03571431942064  10.0000000188337 12.5000000052316  10.0000000188337 12.5000000052316  C 10.0000000188337 12.5000000052316  0.535714295131139 21.9642856910425  0.535714295131139 21.9642856910425  C -0.178571431710379 22.678571418183  -0.178571431710379 23.7499999879674  0.535714295131139 24.4642857151078  C 0.892857137625558 24.8214285577517  1.25000002197266 25  1.78571430664063 25  C 2.32142859130859 25  2.67857143380301 24.8214285577517  3.03571431815011 24.4642857151078  C 3.03571431815011 24.4642857151078  12.5 14.9999999874442  12.5 14.9999999874442  C 12.5 14.9999999874442  21.9642856818499 24.4642857151078  21.9642856818499 24.4642857151078  C 22.3214285243443 24.8214285577517  22.8571428090123 25  23.2142856933594 25  C 23.5714285777065 25  24.1071428205218 24.8214285577517  24.4642857048689 24.4642857151078  C 25.1785714317104 23.7499999879674  25.1785714317104 22.678571418183  24.4642857048689 21.9642856910425  Z " fill-rule="nonzero" fill="#bdbdbd" stroke="none" transform="matrix(1 0 0 1 1090 341 )" />
  </g>
</svg>