<?xml version="1.0" encoding="utf-8"?>
<svg version="1.1" xmlns:xlink="http://www.w3.org/1999/xlink" width="21px" height="25px" xmlns="http://www.w3.org/2000/svg">
  <g transform="matrix(1 0 0 1 -818 -497 )">
    <path d="M 20.8781609638883 12.7971062448424  C 19.9931068685081 20.6727659375636  14.2093812684656 24.999999926793  10.5589006724042 24.999999926793  C 6.82461927329177 24.999999926793  0.0955623279863858 18.7883001788148  0 12.6798159135707  C 0 12.6798159135707  0 5.68930780664783  0 5.68930802160596  C 0.0449508150772999 4.58093813478438  0.832860069993103 3.66759042445946  1.867140646395 3.52490909631089  C 3.15568596034677 3.39524504286985  4.41906806167185 3.0632271852322  5.61612357698107 2.53966981207038  C 6.87301846701734 2.14795162726316  8.0348380380658 1.47026477503663  9.02108242694294 0.55355237804914  C 9.81610349397943 -0.130736946529503  10.9369989612354 -0.185853662434056  11.7879791171514 0.417495020143981  C 12.8362242500518 1.27762465298684  13.9903230289113 1.98136707985828  15.2194014736585 2.508391963982  C 16.4984663623309 2.91812644362714  17.8025244729658 3.23246472762972  19.1212844788728 3.44984294393001  C 20.1357152526474 3.66252954405115  20.8855119115243 4.5758308269243  20.9472598716671 5.67210514078403  C 21.0354712432998 8.04762679949005  21.0134184003915 10.4247123302558  20.8781609638883 12.7971062448424  Z M 11.0675877835187 1.59665621290023  C 10.9044277578087 1.48214705713785  10.7094197514656 1.43028783786268  10.5147965212878 1.44965101751204  C 10.3105881148269 1.44337923079406  10.1516173050649 1.51121638484605  9.98846716236176 1.64200734311471  C 8.86397432510637 2.70207068814177  7.53079267880594 3.48113554663929  6.08658415714751 3.92213280617816  C 4.76341358265893 4.50076546827245  3.36232296322817 4.85732829788731  1.93623912912005 4.9824380603836  C 1.62505284114582 5.07986533486373  1.40386512394832 5.37318859935387  1.38197767736199 5.71745792844932  C 1.38197767736199 5.71745792844932  1.38197767736199 12.6516666412225  1.38197767736199 12.6516666412225  C 1.47901018615778 18.0814304325506  7.7052628338904 23.5283968165355  10.5559603271498 23.5283968165355  C 13.4081280099364 23.5283968165355  18.6919891707277 19.9080329982969  19.550579854618 12.66574148976  C 19.7578765779546 8.36822106966506  19.550579854618 5.77688506671847  19.5505799015697 5.74717200521188  C 19.5135279094444 5.34657640291569  19.2411463551725 5.01535807486857  18.872822529526 4.92301142974245  C 17.4673213415138 4.69155836490473  16.0794624278278 4.35219812794673  14.7210087509851 3.90649523972979  C 13.4095009143554 3.318159240215  12.1801996440079 2.5409465926882  11.0675877835187 1.59665621290023  Z " fill-rule="nonzero" fill="#3e73a4" stroke="none" transform="matrix(1 0 0 1 818 497 )" />
  </g>
</svg>