<?xml version="1.0" encoding="utf-8"?>
<svg version="1.1" xmlns:xlink="http://www.w3.org/1999/xlink" width="16px" height="16px" xmlns="http://www.w3.org/2000/svg">
  <g transform="matrix(1 0 0 1 -807 -620 )">
    <path d="M 0 8  C 0 12.41840625  3.58159375000002 16  8 16  C 12.41840625 16  16 12.41840625  16 8  C 16 3.58159375  12.41840625 0  8 0  C 3.58159375000002 0  0 3.58159375  0 8  Z M 7.99999994082066 10.707734375  C 8.73493275332066 10.707734375  9.35386712832064 11.3266671875  9.35386712832064 12.0616015625  C 9.35386712832064 12.7965343750001  8.73493431582062 13.4154687500001  7.99999994082066 13.4154687500001  C 7.25227962832071 13.4154687173161  6.64613275332067 12.8093218750001  6.64613275332067 12.0616015625  C 6.64613278600461 11.31388125  7.25227962832071 10.707734375  7.99999994082066 10.707734375  Z M 7.99998268707736 2.58453956227031  C 8.73491549957748 2.58453956227031  9.35384987457746 3.20347237477031  9.35384987457746 3.93840674977031  C 9.35384987457746 3.93840674977031  9.3538671875001 8.00000000000003  9.3538671875001 8.00000000000003  C 9.3538671875001 8.73493281250003  8.73493437500008 9.35386718750003  7.9999999219134 9.35386718727034  C 7.25319210941336 9.35167042164534  6.64832960941328 8.74680781227033  6.6461327344133 7.99999999977032  C 6.6461327344133 7.99999999977032  6.6461327344133 3.93840624977031  6.6461326870774 3.93842237477031  C 6.6483205464524 3.19161456227032  7.25317487457744 2.58674581227031  7.99998268707736 2.58453956227031  Z " fill-rule="nonzero" fill="#df5b5b" stroke="none" transform="matrix(1 0 0 1 807 620 )" />
  </g>
</svg>