<?xml version="1.0" encoding="utf-8"?>
<svg version="1.1" xmlns:xlink="http://www.w3.org/1999/xlink" width="157px" height="157px" xmlns="http://www.w3.org/2000/svg">
  <g transform="matrix(1 0 0 1 -389 -452 )">
    <path d="M 467.5 457  C 508.66 457  541 489.34  541 530.5  C 541 571.66  508.66 604  467.5 604  C 426.34 604  394 571.66  394 530.5  C 394 489.34  426.34 457  467.5 457  Z " fill-rule="nonzero" fill="#ffffff" stroke="none" fill-opacity="0" />
    <path d="M 467.5 455  C 509.78 455  543 488.22  543 530.5  C 543 572.78  509.78 606  467.5 606  C 425.22 606  392 572.78  392 530.5  C 392 488.22  425.22 455  467.5 455  Z " stroke-width="6" stroke="#1890ff" fill="none" />
  </g>
</svg>