<?xml version="1.0" encoding="utf-8"?>
<svg version="1.1" xmlns:xlink="http://www.w3.org/1999/xlink" width="68px" height="65px" xmlns="http://www.w3.org/2000/svg">
  <g transform="matrix(1 0 0 1 -434 -499 )">
    <path d="M 67 59.8371428571429  C 67.8509589041096 62.2142857142857  65.9134246575343 64.22  63.3797260273973 64  L 4.50849315068493 64  C 2.04931506849315 64.22  0.0372602739726053 62.2142857142857  0 59.7628571428571  L 0 14.0028571428571  C 0.0372602739726053 11.9228571428571  1.15506849315069 9.32285714285714  2.57095890410959 7.91142857142857  L 7.86191780821918 2.63714285714285  C 9.27780821917808 1.22571428571428  11.9605479452055 0.111428571428569  13.972602739726 1  L 63.3052054794521 1  C 65.7643835616438 0.111428571428569  67.7764383561644 2.11714285714285  67 4.56857142857142  L 67 59.8371428571429  Z M 63.5287671232877 3  L 14.1216438356164 3  C 12.8547945205479 3.00857142857143  10.9917808219178 3.82571428571429  10.0975342465753 4.64285714285714  L 4.80657534246575 9.91714285714286  C 3.91232876712329 10.8085714285714  3.16712328767123 12.74  4 13.9285714285714  L 4 59.6885714285714  C 3.16712328767123 60.5057142857143  3.83780821917808 61.1742857142857  4.65753424657534 61  L 63.5287671232877 61  C 64.3484931506849 61.1742857142857  65.0191780821918 60.5057142857143  65 59.6885714285714  L 65 4.49428571428572  C 65.0191780821918 3.67714285714286  64.3484931506849 3.00857142857143  63.5287671232877 3  Z " fill-rule="nonzero" fill="#1890ff" stroke="none" transform="matrix(1 0 0 1 434 499 )" />
  </g>
</svg>