<?xml version="1.0" encoding="utf-8"?>
<svg version="1.1" xmlns:xlink="http://www.w3.org/1999/xlink" width="43px" height="40px" xmlns="http://www.w3.org/2000/svg">
  <g transform="matrix(1 0 0 1 -446 -512 )">
    <path d="M 39.1574468085106 23.9627906976744  C 41.0604255319149 23.0697674418605  42.5242553191489 20.9116279069767  42.5242553191489 18.4558139534884  C 42.5242553191489 16.2232558139535  41.28 14.2139534883721  39.5234042553192 13.1720930232558  L 39.0842553191489 13.1720930232558  C 39.3770212765957 12.4279069767442  39.5234042553192 11.6837209302326  39.5234042553192 10.7906976744186  C 39.5234042553192 7.44186046511628  36.8153191489362 4.68837209302326  33.5217021276596 4.68837209302326  L 33.3021276595745 4.68837209302326  C 32.6434042553192 2.08372093023256  30.3012765957447 0.0744186046511612  27.52 0.0744186046511612  C 24.2263829787234 0.0744186046511612  21.5182978723404 2.82790697674419  21.5182978723404 6.17674418604651  C 21.5182978723404 2.82790697674419  18.8102127659575 0.0744186046511612  15.5165957446809 0.0744186046511612  C 12.7353191489362 0.0744186046511612  10.3931914893617 2.00930232558139  9.73446808510639 4.68837209302326  L 9.51489361702128 4.68837209302326  C 6.22127659574468 4.68837209302326  3.5131914893617 7.44186046511628  3.5131914893617 10.7906976744186  C 3.5131914893617 11.6093023255814  3.6595744680851 12.4279069767442  3.95234042553191 13.0976744186047  L 3.5131914893617 13.0976744186047  C 1.68340425531915 14.1395348837209  0.51234042553191 16.1488372093023  0.51234042553191 18.3813953488372  C 0.51234042553191 20.8372093023256  1.97617021276595 22.9953488372093  4.02553191489361 23.9627906976744  C 3.7327659574468 24.5581395348837  3.51319148936169 25.3023255813953  3.51319148936169 26.046511627907  C 3.51319148936169 28.0558139534884  4.75744680851063 29.7674418604651  6.51404255319148 30.3627906976744  L 6.73361702127659 30.3627906976744  C 6.58723404255319 30.9581395348837  6.51404255319148 31.553488372093  6.51404255319148 32.1488372093023  C 6.51404255319148 36.3906976744186  9.88085106382978 39.8139534883721  14.0527659574468 39.8139534883721  C 18.2246808510638 39.8139534883721  21.5914893617021 36.3906976744186  21.5914893617021 32.1488372093023  C 21.5914893617021 36.3906976744186  24.9582978723404 39.8139534883721  29.1302127659574 39.8139534883721  C 33.3021276595745 39.8139534883721  36.6689361702128 36.3906976744186  36.6689361702128 32.1488372093023  C 36.6689361702128 31.553488372093  36.595744680851 30.9581395348837  36.4493617021277 30.3627906976744  L 36.6689361702128 30.3627906976744  C 38.4255319148936 29.7674418604651  39.6697872340425 28.0558139534884  39.6697872340425 26.046511627907  C 39.6697872340425 25.3023255813953  39.4502127659574 24.5581395348837  39.1574468085106 23.9627906976744  Z M 27.52 12.5767441860465  L 27.52 12.353488372093  L 27.52 12.5767441860465  Z " fill-rule="nonzero" fill="#1890ff" stroke="none" transform="matrix(1 0 0 1 446 512 )" />
  </g>
</svg>