<?xml version="1.0" encoding="utf-8"?>
<svg version="1.1" xmlns:xlink="http://www.w3.org/1999/xlink" width="44px" height="42px" xmlns="http://www.w3.org/2000/svg">
  <g transform="matrix(1 0 0 1 -446 -511 )">
    <path d="M 9.31333333333334 4.96533333333333  C 5.57333333333334 5.41333333333333  2.86 8.47466666666667  2.86 12.208  C 2.86 12.656  2.93333333333334 13.104  3.00666666666667 13.552  C 1.1 14.896  0 17.136  0 19.5253333333333  C 0 21.9146666666667  1.17333333333333 24.1546666666667  3.00666666666667 25.4986666666667  C 2.93333333333334 25.9466666666667  2.86 26.3946666666667  2.86 26.8426666666667  C 2.86 28.9333333333333  4.03333333333334 30.8746666666666  5.79333333333334 31.92  C 5.79333333333334 32.144  5.72000000000001 32.4426666666667  5.72000000000001 32.6666666666667  C 5.72000000000001 37.52  9.60666666666668 41.4773333333333  14.3733333333333 41.4773333333333  C 17.38 41.4773333333333  20.02 39.9093333333333  21.56 37.52  C 23.1 39.9093333333333  25.74 41.4773333333333  28.7466666666667 41.4773333333333  C 33.5133333333333 41.4773333333333  37.4 37.52  37.4 32.6666666666667  C 37.4 32.4426666666667  37.4 32.144  37.3266666666667 31.92  C 39.0866666666667 30.8746666666666  40.26 28.9333333333333  40.26 26.8426666666667  C 40.26 26.3946666666667  40.1866666666667 25.9466666666667  40.1133333333333 25.4986666666667  C 42.02 24.1546666666667  43.12 21.9146666666667  43.12 19.5253333333333  C 43.12 17.136  41.9466666666667 14.9706666666667  40.1133333333333 13.552  C 40.1866666666667 13.104  40.26 12.656  40.26 12.208  C 40.26 8.47466666666667  37.4733333333333 5.41333333333333  33.9533333333333 4.96533333333333  C 32.8533333333333 2.352  30.2866666666667 0.485333333333336  27.3533333333333 0.485333333333336  C 25.0066666666667 0.485333333333336  22.88 1.68  21.6333333333333 3.47200000000001  C 20.3133333333333 1.68  18.26 0.485333333333336  15.9133333333333 0.485333333333336  C 12.9066666666667 0.485333333333336  10.4133333333333 2.352  9.31333333333334 4.96533333333333  Z M 23 7.80266666666667  C 22.9533333333333 5.41333333333333  24.9333333333333 3.39733333333333  27.28 3.39733333333333  C 29.6266666666667 3.39733333333333  31.6066666666667 5.33866666666667  31.6066666666667 7.80266666666667  C 31.6066666666667 10.192  29.7 12.208  27.3533333333333 12.208  L 27.3533333333333 15.12  C 31.24 15.12  34.32 11.984  34.4666666666667 8.10133333333333  C 36.1533333333333 8.69866666666666  37.4 10.3413333333333  37.4 12.208  C 37.4 14.5973333333333  35.4933333333333 16.5386666666667  33.1466666666667 16.5386666666667  L 33.1466666666667 19.4506666666667  C 35.5666666666667 19.4506666666667  37.6933333333333 18.256  39.0133333333333 16.3893333333333  C 39.82 17.2106666666667  40.3333333333333 18.3306666666667  40.3333333333333 19.5253333333333  C 40.3333333333333 21.2426666666667  39.3066666666667 22.8106666666667  37.7666666666667 23.4826666666666  L 36.3733333333333 24.1546666666667  L 37.0333333333333 25.4986666666666  C 37.2533333333333 25.9466666666667  37.4 26.3946666666666  37.4 26.8426666666666  C 37.4 27.664  37.0333333333333 28.336  36.52 28.8586666666666  C 35.1266666666667 25.9466666666667  32.1933333333333 23.7066666666667  28.82 23.7066666666667  L 28.82 26.6933333333333  C 31.9733333333333 26.6933333333333  34.54 29.5306666666667  34.54 32.7413333333333  C 34.54 35.952  31.9733333333333 38.5653333333333  28.82 38.5653333333333  C 25.6666666666667 38.5653333333333  23.1 35.952  23 32.7413333333333  L 23 7.80266666666667  Z M 5.71999999999999 12.208  C 5.71999999999999 10.2666666666667  6.96666666666665 8.624  8.65333333333334 8.02666666666667  C 8.8 11.9093333333333  12.1 15.12  15.9866666666667 15.12  L 16.06 12.208  C 13.7133333333333 12.208  11.5133333333333 10.192  11.5133333333333 7.80266666666667  C 11.5133333333333 5.41333333333334  13.42 3.39733333333334  15.84 3.39733333333334  C 18.26 3.39733333333334  20.1666666666667 5.33866666666667  21 7.80266666666667  L 21 32.6666666666667  C 20.1666666666667 35.8773333333333  17.6 38.4906666666667  14.4466666666667 38.4906666666667  C 11.2933333333333 38.4906666666667  8.72666666666666 35.8773333333333  8.72666666666666 32.6666666666667  C 8.72666666666666 29.456  11.5866666666667 26.6933333333333  14.74 26.6933333333333  L 14.74 23.7066666666667  C 11.2933333333333 23.7066666666667  8.06666666666666 25.872  6.67333333333333 28.784  C 6.15999999999999 28.2613333333333  5.79333333333333 27.5146666666667  5.79333333333333 26.768  C 5.79333333333333 26.32  5.93999999999999 25.872  6.15999999999999 25.424  L 6.81999999999999 24.08  L 5.42666666666665 23.408  C 3.88666666666666 22.6613333333333  2.85999999999999 21.0933333333333  2.85999999999999 19.4506666666667  C 2.85999999999999 18.256  3.37333333333333 17.136  4.17999999999999 16.3146666666667  C 5.49999999999999 18.1813333333333  7.25999999999999 19.4506666666667  9.67999999999999 19.4506666666667  L 9.75333333333332 16.5386666666667  C 7.40666666666665 16.5386666666667  5.71999999999999 14.5973333333333  5.71999999999999 12.208  Z " fill-rule="nonzero" fill="#1890ff" stroke="none" transform="matrix(1 0 0 1 446 511 )" />
  </g>
</svg>