<?xml version="1.0" encoding="utf-8"?>
<svg version="1.1" xmlns:xlink="http://www.w3.org/1999/xlink" width="34px" height="13px" xmlns="http://www.w3.org/2000/svg">
  <g>
    <path d="M 33.6325520833333 1.63081868489583  C 34.1815104166667 1.2314453125  34.09296875 0.625773111979166  33.4200520833333 0.289876302083333  C 32.7471354166667 -0.0460205078125  31.7377604166667 0.00687662760416667  31.1755208333333 0.406249999999999  L 17 10.4990234375  L 2.82447916666667 0.406250000000001  C 2.26223958333334 0.0042317708333343  1.2484375 -0.0486653645833324  0.579947916666667 0.289876302083334  C -0.0929687499999992 0.625773111979168  -0.181510416666666 1.2314453125  0.385156250000001 1.63081868489583  L 15.778125 12.5911051432292  L 15.79140625 12.5990397135417  L 15.81796875 12.6149088541667  C 15.8268229166667 12.6201985677083  15.8356770833333 12.6281331380208  15.8489583333333 12.6334228515625  L 15.8755208333333 12.6492919921875  L 15.9065104166667 12.6678059895833  C 15.9153645833333 12.673095703125  15.92421875 12.6783854166667  15.9330729166667 12.6810302734375  C 15.9463541666667 12.6863199869792  15.9552083333333 12.6942545572917  15.9684895833333 12.6995442708333  C 15.9729166666667 12.7021891276042  15.97734375 12.704833984375  15.9817708333333 12.704833984375  C 15.9861979166667 12.7074788411458  15.990625 12.7101236979167  15.9994791666667 12.7127685546875  C 16.0083333333333 12.7180582682292  16.0216145833333 12.7233479817708  16.03046875 12.7286376953125  C 16.04375 12.7339274088542  16.0526041666667 12.7392171223958  16.0658854166667 12.7445068359375  C 16.0747395833333 12.7471516927083  16.08359375 12.75244140625  16.0924479166667 12.7550862630208  C 16.1057291666667 12.7603759765625  16.1234375 12.768310546875  16.13671875 12.7736002604167  C 16.1411458333333 12.7762451171875  16.15 12.7788899739583  16.1544270833333 12.7788899739583  C 16.1721354166667 12.7868245442708  16.18984375 12.7921142578125  16.2119791666667 12.800048828125  L 16.21640625 12.8026936848958  C 16.4200520833333 12.8714599609375  16.64140625 12.9111328125  16.8671875 12.9243570963542  L 16.8760416666667 12.9243570963542  C 16.8981770833333 12.9243570963542  16.9158854166667 12.927001953125  16.9380208333333 12.927001953125  L 17.0796875 12.927001953125  C 17.1018229166667 12.927001953125  17.11953125 12.9243570963542  17.1416666666667 12.9243570963542  L 17.1505208333333 12.9243570963542  C 17.3763020833333 12.9137776692708  17.59765625 12.8714599609375  17.8013020833333 12.8026936848958  L 17.8057291666667 12.800048828125  C 17.8234375 12.7947591145833  17.8411458333333 12.7868245442708  17.86328125 12.7788899739583  C 17.8677083333333 12.7762451171875  17.8765625 12.7736002604167  17.8809895833333 12.7736002604167  C 17.8942708333333 12.768310546875  17.9119791666667 12.7630208333333  17.9252604166667 12.7550862630208  C 17.9341145833333 12.75244140625  17.94296875 12.7471516927083  17.9518229166667 12.7445068359375  C 17.9651041666667 12.7392171223958  17.9739583333333 12.7339274088542  17.9872395833333 12.7286376953125  C 17.99609375 12.7233479817708  18.009375 12.7180582682292  18.0182291666667 12.7127685546875  C 18.02265625 12.7101236979167  18.0270833333333 12.7074788411458  18.0359375 12.704833984375  C 18.0403645833333 12.7021891276042  18.0447916666667 12.6995442708333  18.04921875 12.6995442708333  C 18.0625 12.6942545572917  18.0713541666667 12.68896484375  18.0846354166667 12.6810302734375  C 18.0934895833333 12.6757405598958  18.10234375 12.6704508463542  18.1111979166667 12.6678059895833  L 18.1421875 12.6492919921875  L 18.16875 12.6334228515625  C 18.1776041666667 12.6281331380208  18.1864583333333 12.6201985677083  18.1997395833333 12.6149088541667  L 18.2263020833333 12.5990397135417  L 18.2395833333333 12.5911051432292  L 33.6325520833333 1.63081868489583  Z " fill-rule="nonzero" fill="#ffffff" stroke="none" />
  </g>
</svg>