<?xml version="1.0" encoding="utf-8"?>
<svg version="1.1" xmlns:xlink="http://www.w3.org/1999/xlink" width="17px" height="19px" xmlns="http://www.w3.org/2000/svg">
  <g transform="matrix(1 0 0 1 -505 -506 )">
    <path d="M 12.2042103833901 9.69904761904761  C 9.5555689936753 9.69904761904761  7.40842090970591 7.52784185346514  7.40842090970591 4.84952380952381  C 7.40842090970591 2.17120576558248  9.5555689936753 0  12.2042103833901 0  C 14.852851773105 0  16.9999998570743 2.17120576558248  16.9999998570743 4.84952380952381  C 16.9999998570743 7.52784185346514  14.852851773105 9.69904761904761  12.2042103833901 9.69904761904761  Z M 14.2084210526316 4.84952380952381  C 14.2084210526316 3.76380952380953  13.3494736842105 2.82285714285715  12.2042105263158 2.82285714285715  C 11.0589473684211 2.82285714285715  10.2 3.76380952380953  10.2 4.84952380952381  C 10.2 6.00761904761905  11.1305263157895 6.87619047619048  12.2042105263158 6.87619047619048  C 13.2778947368421 6.87619047619048  14.2084210526316 5.9352380952381  14.2084210526316 4.84952380952381  Z M 1.82526315789473 18.8914285714286  C 1.0378947368421 18.8914285714286  0.465263157894733 18.24  0.465263157894733 17.5161904761905  C 0.465263157894733 16.72  1.10947368421052 16.1409523809524  1.82526315789473 16.1409523809524  L 8.05263157894736 16.1409523809524  C 8.83999999999998 16.1409523809524  9.41263157894735 16.7923809523809  9.41263157894735 17.5161904761905  C 9.41263157894735 18.312380952381  8.76842105263156 18.8914285714286  8.05263157894736 18.8914285714286  L 1.82526315789473 18.8914285714286  Z " fill-rule="nonzero" fill="#1890ff" stroke="none" transform="matrix(1 0 0 1 505 506 )" />
  </g>
</svg>