<?xml version="1.0" encoding="utf-8"?>
<svg version="1.1" xmlns:xlink="http://www.w3.org/1999/xlink" width="17px" height="20px" xmlns="http://www.w3.org/2000/svg">
  <g transform="matrix(1 0 0 1 -505 -519 )">
    <path d="M 12.2042105263158 9.96363636363636  C 9.55556913660095 9.96363636363636  7.40842105263158 7.78204205372096  7.40842105263158 5.09090909090909  C 7.40842105263158 2.39977612809722  9.55556913660095 0.21818181818182  12.2042105263158 0.21818181818182  C 14.8528519160306 0.21818181818182  17 2.39977612809722  17 5.09090909090909  C 17 7.78204205372096  14.8528519160306 9.96363636363636  12.2042105263158 9.96363636363636  Z M 14.2084210526316 5.01818181818182  C 14.2084210526316 3.92727272727273  13.3494736842105 2.98181818181818  12.2042105263158 2.98181818181818  C 11.0589473684211 2.98181818181818  10.2 3.92727272727273  10.2 5.01818181818182  C 10.2 6.10909090909091  11.1305263157895 7.05454545454546  12.2042105263158 7.05454545454546  C 13.2778947368421 7.05454545454546  14.2084210526316 6.10909090909091  14.2084210526316 5.01818181818182  Z M 1.82526315789473 19.1272727272727  C 1.0378947368421 19.1272727272727  0.465263157894733 18.5454545454545  0.465263157894733 17.7454545454545  C 0.465263157894733 16.9454545454545  1.10947368421052 16.3636363636364  1.82526315789473 16.3636363636364  L 8.05263157894736 16.3636363636364  C 8.83999999999998 16.3636363636364  9.41263157894735 17.0181818181818  9.41263157894735 17.7454545454545  C 9.41263157894735 18.5454545454545  8.76842105263156 19.1272727272727  8.05263157894736 19.1272727272727  L 1.82526315789473 19.1272727272727  Z " fill-rule="nonzero" fill="#1890ff" stroke="none" transform="matrix(1 0 0 1 505 519 )" />
  </g>
</svg>