<?xml version="1.0" encoding="utf-8"?>
<svg version="1.1" xmlns:xlink="http://www.w3.org/1999/xlink" width="18px" height="20px" xmlns="http://www.w3.org/2000/svg">
  <g transform="matrix(1 0 0 1 -505 -532 )">
    <path d="M 12.42 10.1090909090909  C 9.75577836681624 10.1090909090909  7.59599999999999 7.92749659917551  7.59599999999999 5.23636363636364  C 7.59599999999999 2.54523067355177  9.75577836681624 0.363636363636369  12.42 0.363636363636369  C 15.0842216331837 0.363636363636369  17.244 2.54523067355177  17.244 5.23636363636364  C 17.244 7.92749659917551  15.0842216331837 10.1090909090909  12.42 10.1090909090909  Z M 14.436 5.16363636363636  C 14.436 4.07272727272728  13.572 3.12727272727273  12.42 3.12727272727273  C 11.268 3.12727272727273  10.404 4.07272727272728  10.404 5.16363636363636  C 10.404 6.25454545454544  11.34 7.19999999999999  12.42 7.19999999999999  C 13.5 7.19999999999999  14.436 6.25454545454544  14.436 5.16363636363636  Z M 1.83599999999999 19.2727272727273  C 1.044 19.3454545454545  0.467999999999996 18.6909090909091  0.467999999999996 17.8909090909091  C 0.467999999999996 17.0909090909091  1.116 16.5090909090909  1.83599999999999 16.5090909090909  L 8.09999999999999 16.5090909090909  C 8.89199999999998 16.5090909090909  9.46799999999998 17.1636363636364  9.46799999999998 17.8909090909091  C 9.46799999999998 18.6909090909091  8.81999999999998 19.2727272727273  8.09999999999999 19.2727272727273  L 1.83599999999999 19.2727272727273  Z " fill-rule="nonzero" fill="#1890ff" stroke="none" transform="matrix(1 0 0 1 505 532 )" />
  </g>
</svg>