<?xml version="1.0" encoding="utf-8"?>
<svg version="1.1" xmlns:xlink="http://www.w3.org/1999/xlink" width="101px" height="47px" xmlns="http://www.w3.org/2000/svg">
  <g transform="matrix(1 0 0 1 -421 -509 )">
    <path d="M 96.0333942860861 46.3364705882353  C 93.2904138074769 46.3364705882353  91.0667887814989 44.1249328270073  91.0667887814989 41.396862745098  C 91.0667887814989 38.6687926631887  93.2904138074769 36.4572549019608  96.0333942860861 36.4572549019608  C 98.7763747646952 36.4572549019608  100.999999790673 38.6687926631887  100.999999790673 41.396862745098  C 100.999999790673 44.1249328270073  98.7763747646952 46.3364705882353  96.0333942860861 46.3364705882353  Z M 98.1089908256881 41.396862745098  C 98.1089908256881 40.2909803921569  97.2194495412844 39.3325490196079  96.0333944954129 39.3325490196079  C 94.8473394495413 39.3325490196079  93.9577981651376 40.2909803921569  93.9577981651376 41.396862745098  C 93.9577981651376 42.5027450980392  94.9214678899083 43.4611764705882  96.0333944954129 43.4611764705882  C 97.1453211009174 43.4611764705882  98.1089908256881 42.5027450980392  98.1089908256881 41.396862745098  Z M 7.96880733944954 3.35450980392157  C 8.78422018348624 3.42823529411765  9.451376146789 2.76470588235294  9.45137614678899 1.95372549019608  C 9.45137614678899 1.14274509803921  8.78422018348624 0.552941176470583  8.04293577981651 0.552941176470583  L 1.59376146788991 0.552941176470583  C 0.778348623853209 0.552941176470583  0.185321100917431 1.21647058823529  0.185321100917431 1.95372549019608  C 0.185321100917431 2.76470588235294  0.852477064220183 3.35450980392157  1.59376146788991 3.35450980392157  L 7.96880733944954 3.35450980392157  Z " fill-rule="nonzero" fill="#1890ff" stroke="none" transform="matrix(1 0 0 1 421 509 )" />
  </g>
</svg>