<?xml version="1.0" encoding="utf-8"?>
<svg version="1.1" xmlns:xlink="http://www.w3.org/1999/xlink" width="12px" height="11px" xmlns="http://www.w3.org/2000/svg">
  <g transform="matrix(1 0 0 1 -413 -506 )">
    <path d="M 6 10.72  C 3.03975374090695 10.72  0.639999999999999 8.32024625909305  0.64 5.36  C 0.64 2.39975374090695  3.03975374090695 0  6 0  C 8.96024625909305 0  11.36 2.39975374090695  11.36 5.36  C 11.36 8.32024625909305  8.96024625909305 10.72  6 10.72  Z M 6 3.12  C 4.8 3.12  3.76 4.16  3.76 5.36  C 3.76 6.64  4.8 7.6  6 7.6  C 7.2 7.6  8.24 6.56  8.24 5.36  C 8.24 4.08  7.2 3.12  6 3.12  Z " fill-rule="nonzero" fill="#1890ff" stroke="none" transform="matrix(1 0 0 1 413 506 )" />
  </g>
</svg>