<?xml version="1.0" encoding="utf-8"?>
<svg version="1.1" xmlns:xlink="http://www.w3.org/1999/xlink" width="12px" height="11px" xmlns="http://www.w3.org/2000/svg">
  <g transform="matrix(1 0 0 1 -413 -519 )">
    <path d="M 6 10.88  C 3.03975374090695 10.88  0.639999999999999 8.48024625909305  0.64 5.52  C 0.64 2.55975374090695  3.03975374090695 0.159999999999997  6 0.159999999999997  C 8.96024625909305 0.159999999999997  11.36 2.55975374090695  11.36 5.52  C 11.36 8.48024625909305  8.96024625909305 10.88  6 10.88  Z M 6 3.28  C 4.8 3.28  3.76 4.32  3.76 5.52  C 3.76 6.8  4.8 7.76000000000001  6 7.76000000000001  C 7.2 7.76000000000001  8.24 6.72000000000001  8.24 5.52  C 8.24 4.32  7.2 3.28  6 3.28  Z " fill-rule="nonzero" fill="#1890ff" stroke="none" transform="matrix(1 0 0 1 413 519 )" />
  </g>
</svg>