<?xml version="1.0" encoding="utf-8"?>
<svg version="1.1" xmlns:xlink="http://www.w3.org/1999/xlink" width="12px" height="12px" xmlns="http://www.w3.org/2000/svg">
  <g transform="matrix(1 0 0 1 -413 -532 )">
    <path d="M 5.84 11.1199999201298  C 2.87975377209821 11.1199999201298  0.480000044111106 8.7202462279018  0.48 5.76000000000001  C 0.479999999999999 2.79975366103673  2.87975374090695 0.399999920129787  5.84 0.399999920129787  C 8.80024625909305 0.399999920129787  11.2 2.79975366103673  11.2 5.75999992012979  C 11.2 8.72024617922284  8.80024625909305 11.1199999201298  5.84 11.1199999201298  Z M 5.76 3.52000000000001  C 4.56 3.52000000000001  3.52 4.48  3.52 5.76000000000001  C 3.52 7.04000000000001  4.56 8  5.76 8  C 6.96 8  8 6.95999999999999  8 5.76000000000001  C 8 4.56000000000002  6.96 3.52000000000001  5.76 3.52000000000001  Z " fill-rule="nonzero" fill="#1890ff" stroke="none" transform="matrix(1 0 0 1 413 532 )" />
  </g>
</svg>