<?xml version="1.0" encoding="utf-8"?>
<svg version="1.1" xmlns:xlink="http://www.w3.org/1999/xlink" width="12px" height="12px" xmlns="http://www.w3.org/2000/svg">
  <g transform="matrix(1 0 0 1 -413 -545 )">
    <path d="M 6 11.28  C 3.03975374090696 11.28  0.639999999999999 8.88024625909304  0.64 5.92  C 0.64 2.95975374090695  3.03975374090695 0.560000000000002  6 0.560000000000002  C 8.96024625909305 0.560000000000002  11.36 2.95975374090695  11.36 5.92  C 11.36 8.88024625909306  8.96024625909305 11.28  6 11.28  Z M 6 3.68000000000001  C 4.8 3.68000000000001  3.76 4.64  3.76 5.92  C 3.76 7.2  4.8 8.16  6 8.16  C 7.2 8.16  8.24 7.11999999999999  8.24 5.92  C 8.24 4.72000000000001  7.2 3.68000000000001  6 3.68000000000001  Z " fill-rule="nonzero" fill="#1890ff" stroke="none" transform="matrix(1 0 0 1 413 545 )" />
  </g>
</svg>