<?xml version="1.0" encoding="utf-8"?>
<svg version="1.1" xmlns:xlink="http://www.w3.org/1999/xlink" width="11px" height="11px" xmlns="http://www.w3.org/2000/svg">
  <g transform="matrix(1 0 0 1 -483 -479 )">
    <path d="M 5.64 0.0399999999999991  C 8.60024625909305 0.0399999999999991  11 2.43975374090695  11 5.4  C 11 8.36024625909304  8.60024625909304 10.76  5.64 10.76  C 2.67975382077717 10.76  0.28000007987022 8.36024625909305  0.28000007987022 5.4  C 0.28000007987022 2.43975374090695  2.67975382077717 0.0399999999999991  5.64000007987022 0.0399999999999991  Z M 7.88 5.4  C 7.88 4.2  6.83999999999999 3.16  5.64 3.16  C 4.36 3.16  3.40000000000001 4.2  3.40000000000001 5.4  C 3.40000000000001 6.6  4.44000000000001 7.64  5.64 7.64  C 6.83999999999999 7.64  7.88 6.6  7.88 5.4  Z " fill-rule="nonzero" fill="#1890ff" stroke="none" transform="matrix(1 0 0 1 483 479 )" />
  </g>
</svg>