<?xml version="1.0" encoding="utf-8"?>
<svg version="1.1" xmlns:xlink="http://www.w3.org/1999/xlink" width="10px" height="13px" xmlns="http://www.w3.org/2000/svg">
  <g transform="matrix(1 0 0 1 -1461 -61 )">
    <path d="M 9.96246913580247 11.6628571428571  C 9.96246913580247 12.3982857142857  9.32246913580247 13  8.54024691358025 13  L 1.42913580246914 13  C 0.646913580246914 13  0.0069135802469137 12.3982857142857  0 11.6628571428571  L 0 1.33714285714286  C 0.0069135802469137 0.601714285714287  0.646913580246914 0  1.42913580246914 0  L 8.54024691358025 0  C 9.32246913580247 0  9.96246913580247 0.601714285714287  9.96246913580247 1.33714285714286  L 9.96246913580247 3.00857142857143  L 9.01432098765432 3.00857142857143  L 9.01432098765432 1.33714285714286  C 9.01432098765432 1.092  8.80098765432099 0.891428571428571  8.54024691358024 0.891428571428571  L 1.42913580246913 0.891428571428571  C 1.16839506172839 0.891428571428571  0.95506172839506 1.092  1 1.33714285714286  L 1 11.6628571428571  C 0.95506172839506 11.908  1.16839506172839 12.1085714285714  1.42913580246913 12.1085714285714  L 8.54024691358024 12.1085714285714  C 8.80098765432099 12.1085714285714  9.01432098765432 11.908  9.01432098765432 11.6628571428571  L 9.01432098765432 10.192  L 9.96246913580247 10.192  L 9.96246913580247 11.6628571428571  Z " fill-rule="nonzero" fill="#909090" stroke="none" transform="matrix(1 0 0 1 1461 61 )" />
  </g>
</svg>