<?xml version="1.0" encoding="utf-8"?>
<svg version="1.1" xmlns:xlink="http://www.w3.org/1999/xlink" width="33px" height="28px" xmlns="http://www.w3.org/2000/svg">
  <g transform="matrix(1 0 0 1 -1414 -24 )">
    <path d="M 27.5190700775194 26.8090625  C 27.0943568992248 24.5646875  23.181240620155 22.41971875  19.6689925581395 21.2478125  C 19.4972096124031 21.190125  18.428248372093 20.70596875  19.0979227906977 18.660375  C 20.8476902325581 16.85365625  22.1743258914729 13.944  22.1743258914729 11.07921875  C 22.1743258914729 6.67859375  19.2649615503876 4.36853125  15.8831320930233 4.36853125  C 12.5013026356589 4.36853125  9.59987627906977 6.67540625  9.59987627906977 11.07921875  C 9.59987627906977 13.95359375  10.9265119379845 16.87453125  12.6794731782946 18.67803125  C 13.3634731782946 20.48153125  12.1417987596899 21.15325  11.8841243410853 21.24303125  C 8.54365922480621 22.45659375  4.66232589147287 24.60959375  4.23444992248062 26.80428125  C 1.54011502034058 23.8545477197071  0.0445619284750762 19.9917917616375  0.0445619284750762 15.9825224635559  C 0.0445619284750762 7.15792688287675  7.14285468563063 0.00417871355592264  15.8990425486301 0.00417871355592264  C 24.651129051321 0.00417871355592264  31.7477218101097 7.15147725693304  31.7535196899225 15.9719375  C 31.75579866456 19.9945964154529  30.2423149253814 23.8680472946198  27.5191010852713 26.8090625  Z " fill-rule="nonzero" fill="#b8d4ff" stroke="none" transform="matrix(1 0 0 1 1414 24 )" />
  </g>
</svg>