<?xml version="1.0" encoding="utf-8"?>
<svg version="1.1" xmlns:xlink="http://www.w3.org/1999/xlink" width="35px" height="42px" xmlns="http://www.w3.org/2000/svg">
  <g transform="matrix(1 0 0 1 -505 -55 )">
    <path d="M 22.037037037037 7.09819122771318  L 22.037037037037 8.79328164050388  L 20.3580246782407 8.79328164050388  L 20.3580246782407 7.09819122771318  L 22.037037037037 7.09819122771318  Z M 13.6419753217593 7.09819122771318  L 13.6419753217593 8.79328164050388  L 11.962962962963 8.79328164050388  L 11.962962962963 7.09819122771318  L 13.6419753217593 7.09819122771318  Z M 27.0740740740741 13  C 27.0740740740741 8.79328164050388  25.3950617152778 5.82687339825581  22.9269135671296 3.97922480620155  L 25.1264197662037 1.75865634399225  C 25.4454320856481 1.43658914728682  25.4454320856481 0.89416021996124  25.1264197662037 0.555142105620155  C 24.7906172708333 0.233074948643411  24.2533333333333 0.233074948643411  23.934320974537 0.555142105620155  L 21.4493827291667 3.06387596899225  C 20.1061728263889 2.40279069767442  18.5950617152778 2.01291990988372  17 2.01291990988372  C 15.3881481481481 2.01291990988372  13.877037037037 2.40279069767442  12.5338271736111 3.08082688662791  L 10.0320987523148 0.555142105620155  C 9.71308643287037 0.233074948643411  9.17580245601852 0.233074948643411  8.85679013657407 0.555142105620155  C 8.5209876412037 0.89416021996124  8.5209876412037 1.43658914728682  8.85679013657407 1.75865634399225  L 11.0562962962963 3.97922480620155  C 8.55456791435185 5.84382427616279  6.92592592592593 8.79328164050388  6.92592592592593 13  L 27.0740740740741 13  Z M 33.7901234699074 16.4211886172481  C 33.7901234699074 15.0142635658915  32.6651851851852 13.8785529583333  31.2716049513889 13.8785529583333  C 29.8780246782407 13.8785529583333  28.7530864328704 15.0142635658915  28.7530864328704 16.4211886172481  L 28.7530864328704 28.2868217054264  C 28.7530864328704 29.6937467567829  29.8780246782407 30.8294573643411  31.2716049513889 30.8294573643411  C 32.6651851851852 30.8294573643411  33.7901234699074 29.6937467567829  33.7901234699074 28.2868217054264  L 33.7901234699074 16.4211886172481  Z M 5.24691356712963 16.4211886172481  C 5.24691356712963 15.0142635658915  4.12197532175926 13.8785529583333  2.72839504861111 13.8785529583333  C 1.33481481481481 13.8785529583333  0.209876530092592 15.0142635658915  0.209876530092592 16.4211886172481  L 0.209876530092592 28.2868217054264  C 0.209876530092592 29.6937467567829  1.33481481481481 30.8294573643411  2.72839504861111 30.8294573643411  C 4.12197532175926 30.8294573643411  5.24691356712963 29.6937467567829  5.24691356712963 28.2868217054264  L 5.24691356712963 16.4211886172481  Z M 7 14  L 7 30.8294573643411  C 6.92592592592593 31.761757119186  7.68148148148148 32.5245478168605  8.60493828472222 32.5245478168605  L 10.2839506041667 32.5245478168605  L 10.2839506041667 38.4573643410853  C 10.2839506041667 39.8642893924419  11.4088888888889 41  12.8024691226852 41  C 14.1960493958333 41  15.3209876412037 39.8642893924419  15.3209876412037 38.4573643410853  L 15.3209876412037 32.5245478168605  L 18.6790123587963 32.5245478168605  L 18.6790123587963 38.4573643410853  C 18.6790123587963 39.8642893924419  19.8039506041667 41  21.1975308773148 41  C 22.5911111111111 41  23.7160493958333 39.8642893924419  23.7160493958333 38.4573643410853  L 23.7160493958333 32.5245478168605  L 25.3950617152778 32.5245478168605  C 26.3185185185185 32.5245478168605  27.0740740740741 31.761757119186  27 30.8294573643411  L 27 14  L 7 14  Z " fill-rule="nonzero" fill="#6a6a6a" stroke="none" transform="matrix(1 0 0 1 505 55 )" />
  </g>
</svg>