<?xml version="1.0" encoding="utf-8"?>
<svg version="1.1" xmlns:xlink="http://www.w3.org/1999/xlink" width="11px" height="11px" xmlns="http://www.w3.org/2000/svg">
  <g transform="matrix(1 0 0 1 -469 -479 )">
    <path d="M 5.40000000000001 0.0399999999999991  C 8.36024625909306 0.0399999999999991  10.76 2.43975374090695  10.76 5.4  C 10.76 8.36024625909305  8.36024625909306 10.76  5.40000000000001 10.76  C 2.43975382077718 10.76  0.0400000798702251 8.36024625909305  0.0400000798702251 5.4  C 0.0400000798702251 2.43975374090695  2.43975382077718 0.0399999999999991  5.40000007987022 0.0399999999999991  Z M 7.64 5.4  C 7.64 4.2  6.68000000000001 3.16  5.40000000000001 3.16  C 4.12 3.16  3.16000000000001 4.2  3.16000000000001 5.4  C 3.16000000000001 6.6  4.20000000000002 7.64  5.40000000000001 7.64  C 6.6 7.64  7.64 6.6  7.64 5.4  Z " fill-rule="nonzero" fill="#1890ff" stroke="none" transform="matrix(1 0 0 1 469 479 )" />
  </g>
</svg>