<?xml version="1.0" encoding="utf-8"?>
<svg version="1.1" xmlns:xlink="http://www.w3.org/1999/xlink" width="18px" height="15px" xmlns="http://www.w3.org/2000/svg">
  <g transform="matrix(1 0 0 1 -1342 -70 )">
    <path d="M 9.459 14.6563636363636  C 9.243 14.8658181818182  8.955 14.9792727272727  8.649 14.9792727272727  C 8.343 14.9792727272727  8.055 14.8658181818182  7.839 14.6563636363636  L 0.333 7.37781818181818  C 0.117 7.16836363636364  0 6.88909090909091  0 6.59236363636364  C 0 6.29563636363636  0.117 6.01636363636364  0.333 5.80690909090909  L 5.967 0.343636363636365  C 6.183 0.13418181818182  6.471 0.0207272727272741  6.777 0.0207272727272741  C 7.083 0.0207272727272741  7.371 0.13418181818182  7.587 0.343636363636365  L 9.513 2.21127272727273  L 11.358 0.422181818181819  C 11.574 0.212727272727274  11.862 0.0992727272727285  12.168 0.0992727272727285  C 12.474 0.0992727272727285  12.762 0.212727272727274  12.978 0.422181818181819  L 17.667 4.96909090909091  C 17.883 5.17854545454546  18 5.45781818181818  18 5.75454545454546  C 18 6.05127272727273  17.883 6.33054545454546  17.667 6.54  L 15.552 8.59090909090909  L 15.444 8.48618181818182  L 15.354 8.75672727272727  C 15.291 8.94  15.21 9.07963636363636  15.093 9.19309090909091  L 9.459 14.6563636363636  Z M 7.407 1.46072727272728  C 7.218 1.30363636363637  7.002 1.21636363636364  6.777 1.21636363636364  C 6.552 1.21636363636364  6.336 1.30363636363636  6.174 1.46072727272727  L 1.485 6.00763636363636  C 1.323 6.16472727272727  1.233 6.36545454545455  1.233 6.59236363636364  C 1.233 6.81054545454546  1.323 7.02  1.485 7.17709090909091  L 8.055 13.548  C 8.217 13.7050909090909  8.424 13.7923636363636  8.658 13.7923636363636  C 8.883 13.7923636363636  9.099 13.7050909090909  9.261 13.548  L 9.612 13.2076363636364  L 5.94 9.64690909090909  C 5.886 9.59454545454546  5.886 9.49854545454546  5.94 9.44618181818182  L 6.408 8.99236363636364  C 6.435 8.96618181818182  6.471 8.94872727272728  6.516 8.94872727272728  C 6.552 8.94872727272728  6.597 8.96618181818182  6.624 8.99236363636364  L 10.296 12.5530909090909  L 11.277 11.6018181818182  L 7.938 8.364  C 7.884 8.31163636363637  7.884 8.21563636363637  7.938 8.16327272727273  L 8.406 7.70945454545455  C 8.433 7.68327272727273  8.469 7.66581818181819  8.514 7.66581818181819  C 8.55 7.66581818181819  8.595 7.68327272727273  8.622 7.70945454545455  L 11.961 10.9472727272727  L 12.942 9.996  L 9.936 7.08109090909091  C 9.882 7.02872727272727  9.882 6.93272727272727  9.936 6.88036363636364  L 10.404 6.42654545454546  C 10.431 6.40036363636364  10.467 6.38290909090909  10.512 6.38290909090909  C 10.548 6.38290909090909  10.593 6.40036363636364  10.62 6.42654545454546  L 13.626 9.34145454545455  L 13.977 9.00109090909091  C 14.139 8.844  14.229 8.64327272727273  14.229 8.41636363636364  C 14.229 8.19818181818182  14.139 7.98872727272728  13.977 7.83163636363637  L 7.407 1.46072727272728  Z M 12.762 1.53054545454546  C 12.6 1.38218181818182  12.393 1.29490909090909  12.168 1.29490909090909  C 11.943 1.29490909090909  11.727 1.38218181818182  11.565 1.53927272727273  L 10.188 2.87454545454546  L 15.138 7.67454545454545  L 16.515 6.33927272727273  C 16.677 6.18218181818182  16.767 5.98145454545454  16.767 5.75454545454545  C 16.767 5.52763636363636  16.677 5.32690909090909  16.515 5.16981818181818  L 12.762 1.53054545454546  Z " fill-rule="nonzero" fill="#7d7d7d" stroke="none" transform="matrix(1 0 0 1 1342 70 )" />
  </g>
</svg>