<?xml version="1.0" encoding="utf-8"?>
<svg version="1.1" xmlns:xlink="http://www.w3.org/1999/xlink" width="12px" height="12px" xmlns="http://www.w3.org/2000/svg">
  <g transform="matrix(1 0 0 1 -456 -478 )">
    <path d="M 6.24 0.880000000000002  C 9.20024625909306 0.880000000000002  11.6 3.27975374090695  11.6 6.24  C 11.6 9.20024625909306  9.20024625909306 11.6  6.24 11.6  C 3.27975374090695 11.6  0.880000000000003 9.20024625909306  0.880000000000003 6.24  C 0.880000000000003 3.27975374090695  3.27975374090695 0.880000000000002  6.24 0.880000000000002  Z M 8.48 6.24  C 8.48 5.04  7.52 4  6.24 4  C 4.96 4  4 5.04  4 6.24  C 4 7.44  5.04 8.48  6.24 8.48  C 7.44 8.48  8.48 7.44  8.48 6.24  Z " fill-rule="nonzero" fill="#1890ff" stroke="none" transform="matrix(1 0 0 1 456 478 )" />
  </g>
</svg>