<?xml version="1.0" encoding="utf-8"?>
<svg version="1.1" xmlns:xlink="http://www.w3.org/1999/xlink" width="12px" height="13px" xmlns="http://www.w3.org/2000/svg">
  <g transform="matrix(1 0 0 1 -1717 -231 )">
    <path d="M 3.6192 8.83845106382979  L 3.69183256395349 6.916  C 3.14955684395508 6.83406972413726  2.61185292631727 6.72476445561948  2.08081861046512 6.58851063829787  C 1.09968373255814 7.86896453324468  0.981804662790698 8.93227234042553  1.68788837790698 9.9235914893617  C 1.88137674418605 9.64861844547872  2.13201861627907 9.39252765957447  2.4320744127907 9.1671205731383  C 2.64163719767442 9.01016170212766  3.03575813372093 10.2251177420213  2.81786045930233 10.4310524880319  C 2.53685581395349 10.695994337766  2.3552744127907 10.9798184454787  2.32133952906977 11.2205673816489  C 2.28740464534884 11.4619063829787  2.47613023255814 11.8106382978723  2.71962790116279 11.8106382978723  L 9.28037209883721 11.8106382978723  C 9.52386976744186 11.8106382978723  9.71259535465116 11.4619063829787  9.67866047093023 11.2205673816489  C 9.6447255872093 10.9827688058511  9.46731163953488 10.702485106383  9.19226045930233 10.4404936170213  C 8.97198139534884 10.2310184454787  9.3917023255814 9.03022410771277  9.61257675 9.20134468085107  C 9.89298605232558 9.41849078590426  10.1287441918605 9.66219006515958  10.3115162790698 9.9235914893617  C 11.0181953546512 8.93227234042553  10.900911627907 7.86896453324468  9.91858604651163 6.58851063829787  C 8.2754088382035 7.01519862825097  6.57253831924402 7.17069872703508  4.87836279069768 7.04876595744681  L 4.80870697674419 8.88211631781915  L 3.6192 8.83845106382979  Z M 3.96569302325581 5.7635914893617  L 4.78727441860465 5.85800283111702  C 6.36375814534884 5.99371914893617  7.93905116860465 5.86449361702128  9.51613023837209 5.4720964481383  C 9.38158138953488 3.18734184973404  8.09800930813954 1.18936170212766  6 1.18936170212766  C 3.90199069186047 1.18936170212766  2.61901395348837 3.18734184973404  2.48386976162791 5.4720964481383  C 2.97800930232558 5.59542127659574  3.4721488255814 5.6921928962766  3.96628836627907 5.7635914893617  Z M 9.28037209883721 12.9907801476064  L 2.72022326162791 12.9907801476064  C 1.83493953488372 12.9907801476064  1.24911627906977 12.4007092140957  1.23720929651163 11.2205673816489  C -0.377972093023256 9.59374184973404  -0.339869773255814 7.64296738164894  1.28483720930233 5.64262695611702  C 1.36937673837209 2.71646525398936  3.04587906976744 0.009219852393617  6 0.009219852393617  C 8.95293022674419 0.009219852393617  10.6294325581395 2.71646523670213  10.7145674476744 5.64262695611702  C 12.3386790697674 7.64296738164894  12.3767814069767 9.59374184973404  10.7621953430233 11.2205673816489  C 10.7502883604651 12.400709231383  10.1644651046512 12.9907801476064  9.27977673837209 12.9907801476064  Z " fill-rule="nonzero" fill="#6f6f6f" stroke="none" transform="matrix(1 0 0 1 1717 231 )" />
  </g>
</svg>