<?xml version="1.0" encoding="utf-8"?>
<svg version="1.1" xmlns:xlink="http://www.w3.org/1999/xlink" width="12px" height="11px" xmlns="http://www.w3.org/2000/svg">
  <g transform="matrix(1 0 0 1 -443 -479 )">
    <path d="M 6.08 0.0399999999999991  C 9.04024625909305 0.0399999999999991  11.44 2.43975374090695  11.44 5.4  C 11.44 8.36024625909305  9.04024625909305 10.76  6.08 10.76  C 3.11975382077717 10.76  0.720000079870225 8.36024625909305  0.720000079870225 5.4  C 0.720000079870225 2.43975374090695  3.11975382077717 0.0399999999999991  6.08000007987022 0.0399999999999991  Z M 8.32 5.4  C 8.32 4.2  7.28 3.16  6.08 3.16  C 4.8 3.16  3.84 4.2  3.84 5.4  C 3.84 6.6  4.88 7.64  6.08 7.64  C 7.36 7.64  8.32 6.6  8.32 5.4  Z " fill-rule="nonzero" fill="#1890ff" stroke="none" transform="matrix(1 0 0 1 443 479 )" />
  </g>
</svg>