<?xml version="1.0" encoding="utf-8"?>
<svg version="1.1" xmlns:xlink="http://www.w3.org/1999/xlink" width="11px" height="12px" xmlns="http://www.w3.org/2000/svg">
  <g transform="matrix(1 0 0 1 -483 -574 )">
    <path d="M 5.56 11.56  C 2.68000000000001 11.56  0.200000000000003 9.16  0.200000000000003 6.2  C 0.200000000000003 3.23975374090695  2.59975374090695 0.840000000000003  5.56 0.840000000000003  C 8.52024625909306 0.840000000000003  10.92 3.23975374090695  10.92 6.2  C 10.92 9.16024625909304  8.52024625909306 11.56  5.56 11.56  Z M 5.64 8.44  C 6.83999999999999 8.44  7.88 7.39999999999999  7.88 6.2  C 7.88 4.92  6.83999999999999 3.96000000000001  5.64 3.96000000000001  C 4.44000000000001 3.96000000000001  3.40000000000001 5.00000000000001  3.40000000000001 6.2  C 3.40000000000001 7.39999999999999  4.44000000000001 8.44  5.64 8.44  Z " fill-rule="nonzero" fill="#1890ff" stroke="none" transform="matrix(1 0 0 1 483 574 )" />
  </g>
</svg>