<?xml version="1.0" encoding="utf-8"?>
<svg version="1.1" xmlns:xlink="http://www.w3.org/1999/xlink" width="11px" height="12px" xmlns="http://www.w3.org/2000/svg">
  <g transform="matrix(1 0 0 1 -469 -574 )">
    <path d="M 5.39999999999999 11.5599997740929  C 2.43975382912916 11.5599997740929  0.0400001247650437 9.16024617087083  0.0400000000000063 6.2  C 0.039999999999992 3.23975351499985  2.43975374090695 0.839999774092888  5.39999999999999 0.839999774092888  C 8.36024625909305 0.839999774092888  10.76 3.23975351499985  10.76 6.19999977409289  C 10.76 9.16024603318594  8.36024625909305 11.5599997740929  5.39999999999999 11.5599997740929  Z M 5.48 8.44  C 6.67999999999999 8.44  7.72 7.39999999999999  7.72 6.2  C 7.72 4.92  6.67999999999999 3.96000000000001  5.48 3.96000000000001  C 4.28000000000002 3.96000000000001  3.24000000000001 5.00000000000001  3.24000000000001 6.2  C 3.24000000000001 7.39999999999999  4.28000000000002 8.44  5.48 8.44  Z " fill-rule="nonzero" fill="#1890ff" stroke="none" transform="matrix(1 0 0 1 469 574 )" />
  </g>
</svg>