<?xml version="1.0" encoding="utf-8"?>
<svg version="1.1" xmlns:xlink="http://www.w3.org/1999/xlink" width="12px" height="11px" xmlns="http://www.w3.org/2000/svg">
  <g transform="matrix(1 0 0 1 -456 -575 )">
    <path d="M 6.24 10.72  C 3.27975374090695 10.72  0.880000000000003 8.32024625909305  0.880000000000003 5.36  C 0.880000000000003 2.39975374090695  3.27975374090695 0  6.24 0  C 9.20024625909306 0  11.6 2.39975374090695  11.6 5.36  C 11.6 8.32024625909305  9.20024625909306 10.72  6.24 10.72  Z M 6.24 7.59999999999999  C 7.44 7.59999999999999  8.48 6.64  8.48 5.36  C 8.48 4.08  7.44 3.12000000000001  6.24 3.12000000000001  C 5.04 3.12000000000001  4 4.16000000000001  4 5.36  C 4 6.55999999999999  5.04 7.59999999999999  6.24 7.59999999999999  Z " fill-rule="nonzero" fill="#1890ff" stroke="none" transform="matrix(1 0 0 1 456 575 )" />
  </g>
</svg>