<?xml version="1.0" encoding="utf-8"?>
<svg version="1.1" xmlns:xlink="http://www.w3.org/1999/xlink" width="12px" height="12px" xmlns="http://www.w3.org/2000/svg">
  <g transform="matrix(1 0 0 1 -443 -574 )">
    <path d="M 6.08 11.56  C 3.11975374090694 11.56  0.719999999999999 9.16024625909304  0.719999999999999 6.2  C 0.719999999999999 3.23975374090695  3.11975374090694 0.840000000000003  6.08 0.840000000000003  C 9.04024625909305 0.840000000000003  11.44 3.23975374090695  11.44 6.2  C 11.44 9.16024625909304  9.04024625909305 11.56  6.08 11.56  Z M 6.08 8.44  C 7.28 8.44  8.32 7.39999999999999  8.32 6.2  C 8.32 4.92  7.28 3.96000000000001  6.08 3.96000000000001  C 4.8 3.96000000000001  3.84 5.00000000000001  3.84 6.2  C 3.84 7.39999999999999  4.88 8.44  6.08 8.44  Z " fill-rule="nonzero" fill="#1890ff" stroke="none" transform="matrix(1 0 0 1 443 574 )" />
  </g>
</svg>