<?xml version="1.0" encoding="utf-8"?>
<svg version="1.1" xmlns:xlink="http://www.w3.org/1999/xlink" width="106px" height="106px" xmlns="http://www.w3.org/2000/svg">
  <g transform="matrix(1 0 0 1 -661 -481 )">
    <path d="M 94.6752703398437 26.3062308613281  C 101.067995769531 25.3655396582031  105.996687707031 19.9068808457031  105.996687707031 13.249171875  C 105.996687707031 5.9290044140625  100.067683292969 0  92.7475158320313 0  C 86.8913818632813 0  81.9759390976563 3.829010671875  80.2270484101562 9.102181078125  C 72.6087745820312 3.57727640625  63.2681083066406 0.278232609375  53.1391164082031 0.278232609375  C 42.9107557207031 0.278232609375  33.483969828125 3.643522265625  25.825948484375 9.2677957265625  C 24.1234297949219 3.908505703125  19.1748640996094 0  13.2524842714844 0  C 5.93231670703125 0  0.00331229296875 5.9290044140625  0.00331229296875 13.249171875  C 0.00331229296875 19.9996249453125  5.06449594921875 25.504655859375  11.5897130976563 26.3327291015625  C 8.61527401171875 32.4339728535156  6.90613083984375 39.2639209550781  6.90613083984375 46.5112180742188  C 6.90613083984375 67.4581589121094  20.8442597558594 85.1259296074219  39.9495655996094 90.8098244453125  C 39.8501969140625 91.4457845917969  39.750828125 92.0817448417969  39.750828125 92.7442034355469  C 39.750828125 100.064370896484  45.6798325390625 105.993375310547  53 105.993375310547  C 60.3201674609375 105.993375310547  66.249171875 100.064370896484  66.249171875 92.7442034355469  C 66.249171875 92.1082431855469  66.1498030859375 91.4921566933594  66.06368346875 90.8760702011719  C 85.3014811347656 85.2849196699219  99.3721017695312 67.5575277011719  99.3721017695312 46.5112180742188  C 99.3721017695312 39.2572964726563  97.6563340117187 32.4140990957031  94.6752703398437 26.3062308613281  Z M 24.5474032949219 20.0923692519531  C 24.9250046933594 19.4696581738281  25.2694831621094 18.8336979238281  25.5410911855469 18.1579901582031  C 32.6823948261719 11.2087995097656  42.413911671875 6.90281865039063  53.1391163046875 6.90281865039063  C 63.67883253125 6.90281865039063  73.2513593144531 11.0696832050781  80.3529154394531 17.8068871035156  C 80.5317792597656 18.2838572910156  80.7371414238281 18.7409537207031  80.9623773457031 19.1914255644531  L 65.8583213046875 31.3342915878906  C 62.3870382734375 28.3598525019531  57.9286919375 26.4983438535156  53 26.4983438535156  C 47.6804574921875 26.4983438535156  42.8710081015625 28.6182113535156  39.3069807636719 32.0232485253906  L 24.5474032949219 20.0923692519531  Z M 39.750828125 46.3721017695312  C 39.750828125 39.0651834804687  45.6930817109375 33.1229297910156  53 33.1229297910156  C 60.3069182890625 33.1229297910156  66.249171875 39.0651833769531  66.249171875 46.3721016660156  C 66.249171875 53.6790199550781  60.3069182890625 59.6212736445313  53 59.6212736445313  C 45.6930817109375 59.6212736445313  39.750828125 53.6790200585937  39.750828125 46.3721017695312  Z M 13.2524842714844 19.8737579160156  C 9.60233731640625 19.8737579160156  6.62789823046875 16.8993188300781  6.62789823046875 13.249171875  C 6.62789823046875 9.5990250234375  9.60233731640625 6.6245859375  13.2524841679688 6.6245859375  C 16.9026310195313 6.6245859375  19.8770701054688 9.5990250234375  19.8770701054688 13.249171875  C 19.8770701054688 13.792387921875  19.6915816992188 14.2759826953125  19.5657145664063 14.7860758125  C 19.0622461386719 16.8463221425781  17.6975814355469 18.5687144863281  15.7698269277344 19.3636647988281  C 14.9947503730469 19.6882695097656  14.1468033730469 19.8737579160156  13.2524842714844 19.8737579160156  Z M 48.7072683125 80.2634836328125  C 46.2495469296875 81.1114305292969  44.1429286015625 82.6417098808594  42.5795263203125 84.6489594199219  C 25.8524467246094 80.0117492636719  13.5240922949219 64.6957064726563  13.5240922949219 46.5112180742188  C 13.5240922949219 38.5418411914062  15.9089432324219 31.1355540097656  19.9764389980469 24.9150678144531  L 19.7512030761719 24.7295794082031  C 19.9168177246094 24.6368352050781  20.0956815449219 24.5573401738281  20.2546716074219 24.4579713847656  C 20.1553028183594 24.6037122753906  20.0758077871094 24.7627023378906  19.9764389980469 24.9150678144531  L 35.3786013027344 37.3626647910156  C 33.9874382558594 40.0787451289062  33.1262420839844 43.1128054882813  33.1262420839844 46.3721017695312  C 33.1262420839844 56.2096118867187  40.2940440683594 64.3247297636719  49.6810824453125 65.9080058027344  L 48.7072683125 80.2634836328125  Z M 59.6245859375 92.7442034355469  C 59.6245859375 96.394350390625  56.6501468515625 99.3687894765625  53 99.3687894765625  C 49.3498531484375 99.3687894765625  46.3754140625 96.394350390625  46.3754140625 92.7442035390625  C 46.3754140625 92.552090546875  46.468158265625 92.393100484375  46.4814074375 92.2142366640625  C 46.7662646328125 88.8224485605469  49.5353415546875 86.1196174980469  53 86.1196174980469  C 56.4779076171875 86.1196174980469  59.2602337109375 88.8423223183594  59.5252171484375 92.2539840761719  C 59.5384663203125 92.4262233105469  59.6245859375 92.5719642011719  59.6245859375 92.7442034355469  Z M 92.7475157285156 46.5112180742188  C 92.7475157285156 64.7752015039062  80.3065433378906 80.1442409824219  63.46684578125 84.7085806933594  C 61.50596834375 82.1581151074219  58.6706455625 80.3363539746094  55.3848509375 79.7401412402344  L 56.325542140625 65.9146302851563  C 65.705955828125 64.3247296601563  72.8737579160156 56.2096118867188  72.8737579160156 46.3721017695312  C 72.8737579160156 42.7285795039062  71.8204487519532 39.3566652617188  70.1113055800781 36.4219736914063  L 85.3014812382813 24.2062372226562  L 85.6393351210938 23.9346291992187  C 85.8115743554688 24.1797388789063  85.9904381757813 24.4314731445313  86.1560528242187 24.6832074101563  C 90.3096681035156 30.9434410175781  92.7475157285156 38.4424722988281  92.7475157285156 46.5112180742188  Z M 99.3721016660156 13.249171875  C 99.3721016660156 16.8993187265625  96.3976626835938 19.8737579160156  92.7475157285156 19.8737579160156  C 91.9724391738281 19.8737579160156  91.2503593066406 19.6750203378906  90.5547777832031 19.4299106582031  C 88.3487906660156 18.6482095175781  86.7787637988281 16.7403287675781  86.3547902988281 14.3952253457031  C 86.2819198535156 14.0109993613281  86.1229297910156 13.6532717207031  86.1229297910156 13.249171875  C 86.1229297910156 9.5990250234375  89.0973688769531 6.6245859375  92.7475157285156 6.6245859375  C 96.3976625800781 6.6245859375  99.3721016660156 9.5990250234375  99.3721016660156 13.249171875  Z " fill-rule="nonzero" fill="#1890ff" stroke="none" transform="matrix(1 0 0 1 661 481 )" />
  </g>
</svg>