<?xml version="1.0" encoding="utf-8"?>
<svg version="1.1" xmlns:xlink="http://www.w3.org/1999/xlink" width="87px" height="101px" xmlns="http://www.w3.org/2000/svg">
  <g transform="matrix(1 0 0 1 -916 -482 )">
    <path d="M 86 10.95021484375  C 86.7696477272727 9.213291015625  85.5289090909091 7.724921875  83.8175795454545 7.408310546875  L 44.2246704545455 0.093701171875  C 43.7916477272727 0.01380859375  43.34775 0.01380859375  42.9137386363636 0.093701171875  L 3.09640909090909 7.408310546875  C 1.38409090909091 7.72294921875  0.140386363636364 9.2123046875  1 10.95021484375  L 1 57.764306640625  C 0.140386363636364 65.145986328125  2.46961363636364 72.046337890625  7.06479545454545 78.272041015625  C 10.63575 83.111953125  15.5710227272727 87.530703125  21.7341818181818 91.405986328125  C 32.0357727272727 97.884189453125  42.2108181818182 100.630126953125  42.6388977272727 100.7435546875  C 43.2558068181818 100.90728515625  43.9043522727273 100.9053125  44.5202727272727 100.736650390625  C 44.9453863636364 100.620263671875  55.0621022727273 97.81810546875  65.3023977272727 91.31228515625  C 71.4289772727273 87.420234375  76.3345909090909 82.99951171875  79.8837954545455 78.171435546875  C 84.4522840909091 71.957568359375  86.7686590909091 65.09173828125  86 57.7633203125  L 86 10.95021484375  Z M 79 57.764306640625  L 79.550625 57.764306640625  C 79.550625 68.31111328125  73.5001704545454 77.52341796875  61.5663409090909 85.147734375  C 56.5579090909091 88.348369140625  50.6508068181818 91.102197265625  43.8460227272727 93.410205078125  C 43.6572381683484 93.4743101841258  43.4525004680152 93.4743101841258  43.2637159090909 93.410205078125  C 19.3268522727273 85.26017578125  7.35842045454546 73.377880859375  8 57.76529296875  L 8 14.69826171875  C 7.35842045454546 14.263291015625  7.66984090909091 13.8914453125  8.09792045454545 13.8125390625  L 43.4011363636364 7.3264453125  C 43.5098863636364 7.30671875  43.6206136363636 7.30671875  43.728375 7.3264453125  L 78.8121136363636 13.80859375  C 79.2401931818182 13.8875  79.5496363636364 14.259345703125  79 14.69431640625  L 79 57.764306640625  Z M 75.6751704545455 62.922802734375  C 75.6850568181818 58.450791015625  72.220875 54.82998046875  67.9638068181818 54.82998046875  C 67.2143268140555 54.8298890710952  66.4693328457659 54.9453364026919  65.7551931818182 55.172236328125  L 50.7348409090909 29.953798828125  C 51.0937159090909 29.012841796875  51.3052840909091 27.99396484375  51.3052840909091 26.931689453125  C 51.3052840909091 22.47052734375  47.8401136363636 18.8388671875  43.5830454545454 18.8388671875  C 39.3259772727273 18.8388671875  35.8608068181818 22.47052734375  35.8608068181818 26.931689453125  C 35.8608068181818 28.215888671875  36.1564090909091 29.42216796875  36.6635795454545 30.50712890625  L 21.9595909090909 55.162373046875  C 21.2724886363636 54.95228515625  20.5438636363636 54.830966796875  19.7836022727273 54.830966796875  C 15.5265340909091 54.830966796875  12.0613636363636 58.461640625  12.0613636363636 62.922802734375  C 12.0613636363636 67.384951171875  15.5265340909091 71.015625  19.7836022727273 71.015625  C 22.5616704545455 71.015625  24.9917386363636 69.466103515625  26.3540795454545 67  L 61.3824545454546 67  C 62.7447954545454 69.466103515625  65.1748636363636 71.015625  67.9529318181818 71.015625  C 72.21 71.015625  75.6751704545455 67.384951171875  75.6751704545455 62.922802734375  Z M 23.1113522727273 62.922802734375  C 23.1103636363636 64.838251953125  21.6214772727273 66.410458984375  19.7836022727273 66.410458984375  C 17.9457272727273 66.410458984375  16.4459659090909 64.838251953125  16.4459659090909 62.922802734375  C 16.4459659090909 61.007353515625  17.9457272727273 59.435146484375  19.7836022727273 59.435146484375  C 21.6214772727273 59.435146484375  23.1113522727273 61.007353515625  23.1113522727273 62.922802734375  Z M 40.2552954545455 26.92083984375  C 40.2552954545455 25.005390625  41.7451704545455 23.43318359375  43.5830454545455 23.43318359375  C 45.4209204545455 23.43318359375  46.9206818181818 25.005390625  46.9206818181818 26.92083984375  C 46.9206818181818 28.8362890625  45.4209204545455 30.40849609375  43.5830454545455 30.40849609375  C 41.7451704545455 30.40849609375  40.2552954545455 28.8362890625  40.2552954545455 26.92083984375  Z M 62.0804318181818 57.687373046875  C 61.0028181818182 59.00412109375  60.3364772727273 60.697646484375  60.2633181818182 62  L 27.4840909090909 62  C 27.4000568181818 60.686796875  26.7238295454545 58.982421875  25.6462159090909 57.6646875  L 39.7688863636364 33.95138671875  C 40.8890113636364 34.627021484375  42.1880795454545 35.0146484375  43.5721704545455 35.0146484375  C 45.1253181818182 35.0146484375  46.5726818181818 34.52740234375  47.7877159090909 33.6969140625  L 62.0804318181818 57.687373046875  Z M 71.2915568181818 62.922802734375  C 71.2915568181818 64.838251953125  69.8016818181818 66.410458984375  67.9638068181818 66.410458984375  C 66.1259318181818 66.410458984375  64.6251818181818 64.838251953125  64.6251818181818 62.922802734375  C 64.6251818181818 61.007353515625  66.1249431818182 59.435146484375  67.9638068181818 59.435146484375  C 69.8016818181818 59.435146484375  71.2915568181818 61.007353515625  71.2915568181818 62.922802734375  Z " fill-rule="nonzero" fill="#1890ff" stroke="none" transform="matrix(1 0 0 1 916 482 )" />
  </g>
</svg>