<?xml version="1.0" encoding="utf-8"?>
<svg version="1.1" xmlns:xlink="http://www.w3.org/1999/xlink" width="90px" height="90px" xmlns="http://www.w3.org/2000/svg">
  <g transform="matrix(1 0 0 1 -1161 -491 )">
    <path d="M 89.2368 44.7881142857143  C 89.2050674661311 69.2062681828322  69.4181538971179 88.9931817518454  45 89.0249142857143  C 20.5686899786851 89.0249142857143  0.763199999999989 69.2194243070291  0.763199999999989 44.7881142857143  C 0.763199999999989 20.3568042643995  20.5686899786851 0.551314285714298  45 0.551314285714298  C 69.4313100213148 0.551314285714298  89.2368 20.3568042643995  89.2368 44.7881142857143  Z M 84.2996571428571 44.7881142857143  C 84.2724554505883 23.094790272209  66.6933240135053 5.51565883512594  45 5.48845714285714  C 23.2953986864212 5.48845714285714  5.70034285714285 23.0835129721355  5.70034285714285 44.7881142857143  C 5.70034285714285 66.4927155992931  23.2953986864212 84.0877714285714  45 84.0877714285714  C 66.7046013135788 84.0877714285714  84.2996571428571 66.4927155992931  84.2996571428571 44.7881142857143  Z " fill-rule="nonzero" fill="#099dfd" stroke="none" transform="matrix(1 0 0 1 1161 491 )" />
  </g>
</svg>