<?xml version="1.0" encoding="utf-8"?>
<svg version="1.1" xmlns:xlink="http://www.w3.org/1999/xlink" width="43px" height="83px" xmlns="http://www.w3.org/2000/svg">
  <g transform="matrix(1 0 0 1 -1184 -473 )">
    <path d="M 39.8472289055487 79.6592509631839  C 39.8472289055487 81.033584770375  38.7613722092024 82.1480411786757  37.4211294117647 82.14925  C 36.7773383481744 82.1486688272276  36.1601220823475 81.8859490580881  35.7051764705882 81.41885  L 19.7840470588235 65.09275  C 19.365217334797 64.6318371237447  19.1323355360494 64.0252586630609  19.1323355360494 63.3952615126204  C 19.1323355360494 62.0200724855417  20.219493508225 60.9052615126204  21.5605708301671 60.9052615126204  C 22.1749408365499 60.9052615126204  22.766473056182 61.1440669036326  23.2159529411765 61.57355  L 39.1370823529412 77.89965  C 39.5918119710631 78.3665262725045  39.8472289055487 78.9993982934754  39.8472289055487 79.6592509631839  Z M 39.6793882352941 5.96355  C 39.6793882352941 5.96355  39.6793882352941 5.96355  39.6793882352941 6  L 3.32061176470587 6  C 3.32061176470587 5.96355  3.32061176470587 5.96355  3.32061176470587 5.96355  C 1.97953444276381 5.96355  0.892376470588231 4.84873902707867  0.892376470588231 3.47355  C 0.892376470588231 2.09836097292133  1.97953444276381 0.983550000000002  3.32061176470587 0.983550000000002  C 3.32061176470587 0.983550000000002  3.32061176470587 0.983550000000002  3.32061176470588 1  L 39.6793882352941 1  C 39.6793882352941 0.983550000000002  39.6793882352941 0.983550000000002  39.6793882352941 0.983550000000002  C 41.0204655572362 0.983550000000002  42.1076235294117 2.09836097292133  42.1076235294117 3.47355  C 42.1076235294117 4.84873902707867  41.0204655572362 5.96355  39.6793882352941 5.96355  Z " fill-rule="nonzero" fill="#099dfd" stroke="none" transform="matrix(1 0 0 1 1184 473 )" />
  </g>
</svg>