<?xml version="1.0" encoding="utf-8"?>
<svg version="1.1" xmlns:xlink="http://www.w3.org/1999/xlink" width="89px" height="89px" xmlns="http://www.w3.org/2000/svg">
  <g transform="matrix(1 0 0 1 -1407 -482 )">
    <path d="M 39 6  L 50 6  L 50 17  L 39 17  L 39 6  Z M 55 23  L 55 1  L 34 1  L 34 23  L 55 23  Z M 72 72  L 83 72  L 83 83  L 72 83  L 72 72  Z M 39 72  L 50 72  L 50 83  L 39 83  L 39 72  Z M 6 72  L 17 72  L 17 83  L 6 83  L 6 72  Z M 47 22.3117568897638  L 47.2945649606299 22.3117568897638  L 42 22.3117568897638  L 42 39  L 9 39  L 9 66.5450196850394  L 1 66.5450196850394  L 1 88  L 23 88  L 23 66.5450196850394  L 15 66.5450196850394  L 15 44  L 42 44  L 42 66.5450196850394  L 34 66.5450196850394  L 34 88  L 55 88  L 55 66.5450196850394  L 47 66.5450196850394  L 47 44  L 75 44  L 75 66.5450196850394  L 66 66.5450196850394  L 66 88  L 88 88  L 88 66.5450196850394  L 80 66.5450196850394  L 80 39  L 47 39  L 47 22.3117568897638  Z " fill-rule="nonzero" fill="#1890ff" stroke="none" transform="matrix(1 0 0 1 1407 482 )" />
  </g>
</svg>