<?xml version="1.0" encoding="utf-8"?>
<svg version="1.1" xmlns:xlink="http://www.w3.org/1999/xlink" width="22px" height="22px" xmlns="http://www.w3.org/2000/svg">
  <g transform="matrix(1 0 0 1 -1462 -690 )">
    <path d="M 19.3764460784314 1.77061881188119  L 19.3764460784314 9.1479702970297  L 18.0823284313726 9.1479702970297  L 18.0823284313726 3.0775495049505  L 16.7350980392157 3.0775495049505  L 16.7350980392157 1.77061881188119  L 19.3764460784314 1.77061881188119  Z M 6.95992647058824 3.0775495049505  L 6.95992647058824 1.77061881188119  L 12.3286274509804 1.77061881188119  L 12.3286274509804 3.0775495049505  L 6.95992647058824 3.0775495049505  Z M 10.1793137254902 19.4694554455446  L 10.1793137254902 20.7763861386139  L 0 20.7763861386139  L 0 1.77061881188119  L 2.71198529411765 1.77061881188119  L 2.71198529411765 3.0775495049505  L 1.29708333333333 3.0775495049505  L 1.29708333333333 19.4694554455446  L 10.1793137254902 19.4694554455446  Z M 0.647058823529412 9.1204702970297  L 0.647058823529412 8  L 18.7320833333333 8  L 18.7320833333333 9.1204702970297  L 0.647058823529412 9.1204702970297  Z M 3.81063725490196 13.035  L 3.81063725490196 11.7280693069307  L 10.400931372549 11.7280693069307  L 10.400931372549 13.035  L 3.81063725490196 13.035  Z M 3.81063725490196 16.650297029703  L 3.81063725490196 15.3433663366337  L 9.36698529411765 15.3433663366337  L 9.36698529411765 16.650297029703  L 3.81063725490196 16.650297029703  Z M 4.26924019607843 4.97668316831683  L 4.26924019607843 0.0835891089108909  L 5.56335784313726 0.0835891089108909  L 5.56335784313726 4.97668316831683  L 4.26924019607843 4.97668316831683  Z M 13.8157843137255 4.97668316831683  L 13.8157843137255 0.0835891089108909  L 15.1099019607843 0.0835891089108909  L 15.1099019607843 4.97668316831683  L 13.8157843137255 4.97668316831683  Z M 14.0929411764706 13.8793316831683  C 14.8153718883115 13.1478313120605  15.7967415236986 12.7373448624681  16.8197549019608 12.7387623762376  C 18.9488453487147 12.7390249061035  20.6746763261283 14.4821561374369  20.6746763261283 16.6323267036512  C 20.6746763261283 18.7826829201953  18.9485584621181 20.5258910600868  16.8192841692655 20.5258910600868  C 14.690009876413 20.5258910600868  12.9638920124028 18.7826829201953  12.9638920124028 16.6323267036512  C 12.9638920124028 15.5997729008918  13.3700183118376 14.6095027553447  14.0929411764706 13.8793316831683  Z M 18.756887254902 11.8130198019802  C 18.141709077144 11.5604794471807  17.4838149760211 11.4310193127693  16.8197549019608 11.4318316831683  C 13.982792014326 11.4340054574901  11.6841200588026 13.7571985275561  11.6841200588026 16.6222509812964  C 11.6841200588026 19.4888412299664  13.9851679498255 21.8126717733756  16.8236543725281 21.8126717733756  C 19.6621407952308 21.8126717733756  21.9631886862536 19.4888412299664  21.9631886862536 16.6222509812964  C 21.9631886862536 14.5095718436604  20.695217765614 12.6077028470716  18.756887254902 11.8130198019802  Z M 13.81875 17.2863366336634  L 13.81875 15.9794059405941  L 19.8204901960784 15.9794059405941  L 19.8204901960784 17.2863366336634  L 13.81875 17.2863366336634  Z M 16.1726960784314 19.6556930693069  L 16.1726960784314 13.609504950495  L 17.4668137254902 13.609504950495  L 17.4668137254902 19.6556930693069  L 16.1726960784314 19.6556930693069  Z " fill-rule="nonzero" fill="#266ab9" stroke="none" transform="matrix(1 0 0 1 1462 690 )" />
  </g>
</svg>