<?xml version="1.0" encoding="utf-8"?>
<svg version="1.1" xmlns:xlink="http://www.w3.org/1999/xlink" width="18px" height="21px" xmlns="http://www.w3.org/2000/svg">
  <g transform="matrix(1 0 0 1 -1457 -346 )">
    <path d="M 18 2.79999999316406  C 17.9142857075893 1.25360269741323  16.6862667386947 0  15.1714285714286 0  L 2.82857142857143 0  C 1.3137332613053 0  0.0857142924107145 1.25360269741323  0 2.79999999316406  L 0 18.2000000068359  C 0.0857142924107145 19.7463973025868  1.3137332613053 21  2.82857142857143 21  L 15.1714285714286 21  C 16.6862667386947 21  17.9142857075893 19.7463973025868  18 18.2000000068359  L 18 2.79999999316406  Z M 16.5428571495536 2.79999999316406  L 16.5428571495536 18.2000000068359  C 16.5428571384586 18.9731986523656  15.9288476527638 19.5999999931641  15.1714285714286 19.5999999931641  L 2.82857142857143 19.5999999931641  C 2.07115234723622 19.5999999931641  1.45714286154143 18.9731986523656  1.45714285044643 18.2000000068359  L 1.45714285044643 2.79999999316406  C 1.45714286154144 2.02680134763437  2.07115234723622 1.40000000683594  2.82857142857143 1.40000000683594  L 15.1714285714286 1.40000000683594  C 15.9288476527638 1.40000000683594  16.5428571384586 2.02680134763437  16.5428571495536 2.79999999316406  Z " fill-rule="nonzero" fill="#266ab9" stroke="none" transform="matrix(1 0 0 1 1457 346 )" />
  </g>
</svg>