<?xml version="1.0" encoding="utf-8"?>
<svg version="1.1" xmlns:xlink="http://www.w3.org/1999/xlink" width="11px" height="10px" xmlns="http://www.w3.org/2000/svg">
  <g transform="matrix(1 0 0 1 -1461 -352 )">
    <path d="M 10.1648888958333 0.0222222291666666  L 3.76488889583333 0.0222222291666666  C 3.37215307756675 0.0222222291666666  3.05377779166667 0.340597515066747  3.05377779166667 0.733333333333334  C 3.05377779166667 1.12606915159992  3.37215307756675 1.4444444375  3.76488889583333 1.4444444375  L 10.1648888958333 1.4444444375  C 10.5576247140999 1.4444444375  10.876 1.12606915159992  10.876 0.733333333333334  C 10.876 0.340597515066747  10.5576247140999 0.0222222291666666  10.1648888958333 0.0222222291666666  Z M 10.1648888958333 4.28888889583333  L 3.76488889583333 4.28888889583333  C 3.37215310753784 4.28888889583333  3.05377782163776 4.60726418173341  3.05377782163776 5  C 3.05377782163776 5.39273581826658  3.37215310753784 5.71111110416667  3.76488892580443 5.71111110416667  L 10.1648888958333 5.71111110416667  C 10.5576246841288 5.71111110416667  10.8759999700289 5.39273581826658  10.8759999700289 5  C 10.8759999700289 4.60726418173341  10.5576246841288 4.28888889583333  10.1648888658622 4.28888889583333  Z M 10.1648888958333 8.5555555625  L 3.76488889583333 8.5555555625  C 3.37215307756675 8.5555555625  3.05377779166667 8.87393084840008  3.05377779166667 9.26666666666667  C 3.05377779166667 9.65940248493325  3.37215307756675 9.97777777083333  3.76488889583333 9.97777777083333  L 10.1648888958333 9.97777777083333  C 10.5576247140999 9.97777777083333  10.876 9.65940248493325  10.876 9.26666666666667  C 10.876 8.87393084840008  10.5576247140999 8.5555555625  10.1648888958333 8.5555555625  Z M 1.3755555625 0.0222222291666666  L 1.36133333333333 0.0222222291666666  L 0.835111104166667 0.0222222291666666  C 0.44237528590008 0.0222222291666666  0.124 0.340597515066747  0.124 0.733333333333334  C 0.124 1.12606915159992  0.44237528590008 1.4444444375  0.835111104166667 1.4444444375  L 1.3755555625 1.4444444375  C 1.76829138076659 1.4444444375  2.08666666666667 1.12606915159992  2.08666666666667 0.733333333333334  C 2.08666666666667 0.340597515066747  1.76829138076659 0.0222222291666666  1.3755555625 0.0222222291666666  Z M 1.3755555625 4.28888889583333  L 1.36133333333333 4.28888889583333  L 0.835111104166667 4.28888889583333  C 0.442375315871171 4.28888889583333  0.124000029971091 4.60726418173341  0.124000029971091 5  C 0.124000029971091 5.39273581826658  0.442375315871171 5.71111110416667  0.835111134137758 5.71111110416667  L 1.3755555625 5.71111110416667  C 1.76829135079549 5.71111110416667  2.08666663669558 5.39273581826658  2.08666663669558 5  C 2.08666663669558 4.60726418173341  1.76829135079549 4.28888889583333  1.37555553252891 4.28888889583333  Z M 1.3755555625 8.5555555625  L 1.36133333333333 8.5555555625  L 0.835111104166667 8.5555555625  C 0.44237528590008 8.5555555625  0.124 8.87393084840008  0.124 9.26666666666667  C 0.124 9.65940248493325  0.44237528590008 9.97777777083333  0.835111104166667 9.97777777083333  L 1.3755555625 9.97777777083333  C 1.76829138076659 9.97777777083333  2.08666666666667 9.65940248493325  2.08666666666667 9.26666666666667  C 2.08666666666667 8.87393084840008  1.76829138076659 8.5555555625  1.3755555625 8.5555555625  Z " fill-rule="nonzero" fill="#266ab9" stroke="none" transform="matrix(1 0 0 1 1461 352 )" />
  </g>
</svg>