<?xml version="1.0" encoding="utf-8"?>
<svg version="1.1" xmlns:xlink="http://www.w3.org/1999/xlink" width="35px" height="35px" xmlns="http://www.w3.org/2000/svg">
  <g transform="matrix(1 0 0 1 -80 -1441 )">
    <path d="M 13.3431154951321 22.0389866305394  C 11.2482390059932 23.3043599820627  10.9375030250485 21.3288623583935  10.9375030250485 21.3288623583935  C 10.9375030250485 21.3288623583935  8.31211457815914 14.6928834089098  8.31211457815914 14.6928834089098  C 7.30171740204244 11.5394689844833  9.18630506682553 13.2711388837583  9.18630506682553 13.2711388837583  C 9.18630506682553 13.2711388837583  10.803306996309 14.596111289258  12.0306563060248 15.4033507959317  C 13.2571546885046 16.2111427175559  14.6552315684185 15.6406857575256  14.6552315684185 15.6406857575256  C 14.6552315684185 15.6406857575256  31.8197034471698 7.05907390318733  31.8197034471698 7.05907390318733  C 28.6525659993934 2.7905875987077  23.4216006131175 0  17.4992499852714 0  C 7.83412335912458 0  0 7.4268930503532  0 16.5891238980068  C 0 21.8598487555382  2.59385610294222 26.5497487508286  6.63483063008948 29.5895749955263  C 6.63483063008948 29.5895749955263  5.90599086550223 34.1272349202966  5.90599086550223 34.1272349202966  C 5.90599086550223 34.1272349202966  5.55052287497771 35.4516960846309  6.78184546590033 34.8374449711615  C 7.62065728226654 34.4188722715247  9.75907173792832 32.9169349375341  11.0322956329077 32.0042081933561  C 13.0995519117782 32.7830757620033  15.2908096350275 33.1810306887359  17.4999265367583 33.1787901485951  C 27.1641953733527 33.1787901485951  35 25.7517255408038  35 16.5894946931502  C 35 13.935744738175  34.3396049793798 11.4295273176199  33.1701873448765 9.20463321511775  C 27.7012642744418 12.7683272526259  14.9819951026802 21.0508115579911  13.3431366954009 22.0390167126108  Z " fill-rule="nonzero" fill="#41b035" stroke="none" transform="matrix(1 0 0 1 80 1441 )" />
  </g>
</svg>