<?xml version="1.0" encoding="utf-8"?>
<svg version="1.1" xmlns:xlink="http://www.w3.org/1999/xlink" width="23px" height="23px" xmlns="http://www.w3.org/2000/svg">
  <g transform="matrix(1 0 0 1 -368 -1447 )">
    <path d="M 11.0000128000001 22.0000255999998  C 17.05001984 22.0000255999998  22.0000255999998 17.05001984  22.0000255999998 11.0000128000001  C 22.0000255999998 4.95000575999984  17.05001984 0  11.0000128000001 0  C 4.95000575999984 0  0 4.95000575999984  0 11.0000128000001  C 0 17.05001984  4.95000575999984 22.0000255999998  11.0000128000001 22.0000255999998  Z M 17.3643151275996 6.67857613080014  C 17.6786018214398 7.07143342388008  17.6786018214398 7.54286346464005  17.3643151275996 7.85714586159975  C 17.3643151275996 7.85714586159975  10.2143068075998 15.0071541815996  10.2143068075998 15.0071541815996  C 9.90002011376009 15.3214408754397  9.42859222143989 15.3214408754397  9.11430552759975 15.0071541815996  C 9.11430552759975 15.0071541815996  4.6357319568001 10.5285806108  4.6357319568001 10.5285806108  C 4.32144526295997 10.2142939169598  4.32144526295997 9.74286602464008  4.6357319568001 9.42857933079995  C 4.95001865063978 9.11429263695982  5.42144654295998 9.11429263695982  5.73573323679966 9.42857933079995  C 5.73573323679966 9.42857933079995  9.66430616759999 13.2785838107998  9.66430616759999 13.2785838107998  C 9.66430616759999 13.2785838107998  16.2643138476001 6.67857613080014  16.2643138476001 6.67857613080014  C 16.5786005414398 6.36428943696001  17.05002843376 6.36428943696001  17.3643151275996 6.67857613080014  Z " fill-rule="nonzero" fill="#3ad633" stroke="none" transform="matrix(1 0 0 1 368 1447 )" />
  </g>
</svg>