<?xml version="1.0" encoding="utf-8"?>
<svg version="1.1" xmlns:xlink="http://www.w3.org/1999/xlink" width="18px" height="18px" xmlns="http://www.w3.org/2000/svg">
  <g transform="matrix(1 0 0 1 -59 -454 )">
    <path d="M 17.9806451552419 9.06193547782258  C 17.9806451552419 4.10709678024194  13.9754838629032 0.122580653225806  9.04129033064516 0.122580653225806  C 4.10709678024194 0.122580653225806  0.122580653225806 4.12774192741935  0.122580653225806 9.06193547782258  C 0.122580653225806 13.9961290282258  4.12774194556452 17.9806451552419  9.06193547782258 17.9806451552419  C 13.9961290100806 17.9806451552419  17.9806451552419 13.9961290282258  17.9806451552419 9.06193547782258  Z M 7.92645162096774 3.07483871370968  L 10.1767741875 3.07483871370968  L 9.7638709717742 11.5806451572581  L 8.33935483669355 11.5806451572581  L 7.92645162096774 3.07483871370968  Z M 10.3419354919355 13.7483870987903  C 10.3419354919355 14.1200000020161  10.2180645181452 14.4296774274194  9.97032258870968 14.6774193568548  C 9.70193549395161 14.9045161391129  9.39225806854838 15.0283870947581  9.04129033064516 15.0283870947581  C 8.69032259274194 15.0283870947581  8.38064516733871 14.9045161209677  8.13290321975806 14.6567741915323  C 7.88516129032258 14.4296774092742  7.74064515120968 14.1406451673387  7.74064516935484 13.7483870987903  C 7.74064516935484 13.3767741955645  7.86451614314516 13.0670967701613  8.13290321975806 12.8400000060484  C 8.36000000201613 12.6129032237903  8.66967740927419 12.4890322681452  9.04129033064516 12.48903225  C 9.41290323387097 12.48903225  9.74322580645161 12.6129032237903  9.97032258870968 12.8400000060484  C 10.2180645181452 13.0877419354839  10.3419354919355 13.3767741955645  10.3419354919355 13.7483870987903  Z " fill-rule="nonzero" fill="#ececec" stroke="none" transform="matrix(1 0 0 1 59 454 )" />
  </g>
</svg>