<?xml version="1.0" encoding="utf-8"?>
<svg version="1.1" xmlns:xlink="http://www.w3.org/1999/xlink" width="22px" height="23px" xmlns="http://www.w3.org/2000/svg">
  <g transform="matrix(1 0 0 1 -480 -248 )">
    <path d="M 22 10.805216  C 22 16.677024  17.088 21.456608  11 21.456608  C 4.912 21.456608  0 16.677024  0 10.805216  C 0 4.933408  4.912 0.153824  11 0.153824  C 17.088 0.153824  22 4.933408  22 10.805216  Z M 2 10.805216  C 2 15.681952  6.0416 19.616608  11 19.616608  C 15.9584 19.616608  20 15.681952  20 10.805216  C 20 5.927008  15.9584 1.993824  11 1.993824  C 6.0416 1.993824  2 5.927008  2 10.805216  Z M 17.416 19.777056  L 17.416 19.778528  C 17.244524901901 19.6084095275677  17.1492447963133 19.3849681709327  17.1492447963133 19.1529604249689  C 17.1492447963133 18.6448584551245  17.5969600464825 18.2329604249689  18.1492447963133 18.2329604249689  C 18.4206221880687 18.2329604249689  18.680345974596 18.3344306667515  18.8688 18.51408  L 21.7264 21.294688  C 21.897875098099 21.4648064724323  21.9931552036867 21.6882478290673  21.9931552036867 21.9202555750311  C 21.9931552036867 22.4283575448755  21.5454399535175 22.8402555750311  20.9931552036867 22.8402555750311  C 20.7217778119313 22.8402555750311  20.462054025404 22.7387853332485  20.2736 22.559136  L 17.416 19.777056  Z " fill-rule="nonzero" fill="#d9d9d9" stroke="none" transform="matrix(1 0 0 1 480 248 )" />
  </g>
</svg>