<?xml version="1.0" encoding="utf-8"?>
<svg version="1.1" xmlns:xlink="http://www.w3.org/1999/xlink" width="32px" height="32px" xmlns="http://www.w3.org/2000/svg">
  <g transform="matrix(1 0 0 1 -82 -1512 )">
    <path d="M 32 21.7498367346939  L 31.9222448979592 21.7498367346939  L 21.6789795918367 18.3052653061225  C 21.6789795918367 18.3052653061225  22.4662040816327 17.1268979591837  23.3064897959184 14.816612244898  C 24.1468979591837 12.5061632653061  24.2672653061225 11.2374693877551  24.2672653061225 11.2374693877551  L 17.6364897959184 11.1828163265306  L 17.6364897959184 8.91804081632653  L 25.6666530612245 8.86142857142857  L 25.6666530612245 7.26032653061225  L 17.6348979591837 7.26032653061225  L 17.6348979591837 3.61583673469388  L 13.7019183673469 3.61583673469388  L 13.7019183673469 7.26048979591837  L 6.20951020408163 7.26048979591837  L 6.20951020408163 8.86159183673469  L 13.7019183673469 8.80836734693878  L 13.7019183673469 11.2374693877551  L 7.69212244897959 11.2374693877551  L 7.69212244897959 13  L 20.0620816326531 13  C 20.0620816326531 12.506  19.9258775510204 13.5355102040816  19.4516734693878 14.8164489795918  C 18.9775918367347 16.0972653061225  18.4892244897959 17.2189795918367  18.4892244897959 17.2189795918367  C 18.4892244897959 17.2189795918367  12.6810612244898 15.1861632653061  9.62044897959183 15.1861632653061  C 6.55983673469387 15.1861632653061  2.83751020408163 16.4156734693878  2.47661224489796 19.9841224489796  C 2.11742857142857 23.5507755102041  4.21053061224489 25.4827346938775  7.15938775510204 26.1938775510204  C 10.108612244898 26.908693877551  12.831306122449 26.1868163265306  15.2018367346939 25.0262448979592  C 17.5727346938775 23.8674285714286  19.8990204081633 21.2330612244898  19.8990204081633 21.2330612244898  L 31.8372244897959 27.0306530612245  C 31.3502040816327 29.8592244897959  28.8957142857143 31.9251020408163  26.0255102040816 32  L 5.97428571428571 32  C 2.72065306122449 31.9254285714286  0.0807346938775514 29.2902857142857  0 26.0367755102041  L 0 5.97444897959184  C 0.0746938775510203 2.72057142857143  2.71008163265306 0.0806122448979601  5.96363265306123 0  L 26.0256326530612 0  C 29.2792653061225 0.0747346938775523  31.9193469387755 2.70995918367347  32 5.96355102040816  L 32 21.7498367346939  Z M 16.9932653061224 19.7541224489796  C 16.9932653061224 19.7541224489796  13.2666530612245 24.458693877551  8.87575510204082 24.458693877551  C 4.48297959183674 24.458693877551  3.56073469387755 22.223306122449  3.56073469387755 20.6156326530612  C 3.56073469387755 19.0099183673469  4.47391836734694 17.2628163265306  8.2114693877551 17.0102040816327  C 11.9469387755102 16.7579591836735  16.9951428571429 19.7541224489796  16.9951428571429 19.7541224489796  L 16.9932244897959 19.7541224489796  Z " fill-rule="nonzero" fill="#02a9f1" stroke="none" transform="matrix(1 0 0 1 82 1512 )" />
  </g>
</svg>