<?xml version="1.0" encoding="utf-8"?>
<svg version="1.1" xmlns:xlink="http://www.w3.org/1999/xlink" width="23px" height="17px" xmlns="http://www.w3.org/2000/svg">
  <g transform="matrix(1 0 0 1 -337 -547 )">
    <path d="M 17.9019190392025 17  L 10.3703515415366 17  C 10.3703515415366 17  10.3411204613968 17  10.3411204613968 17  C 10.2890525696495 16.9990994030515  10.2360709344122 16.998198806103  10.1365029004186 16.9972982091544  C 10.0150108303586 16.9963976122059  9.96020267609016 16.9954970152574  9.89443250378857 16.9936977294047  C 9.50803419343967 16.9882941477136  9.1325979011239 16.9549835088846  8.74528584728509 16.8928594918361  C 8.33696446881852 16.8226339183397  7.93869136489518 16.6929880266848  7.5623413290895 16.5084209855251  C 7.18964529929487 16.3175497657258  6.85166087468224 16.0735624064076  6.55843681376915 15.7836560509811  C 6.54382127369928 15.7692503158936  6.52281146509722 15.7476426672844  6.48627285690969 15.7098290437128  C 6.4789648448876 15.7026261761691  6.45612803328003 15.6801179306114  6.44151249321016 15.6648125525975  C 6.30175136104359 15.5324639160748  6.23872193523744 15.4721420469455  6.15833670684029 15.3929133660305  C 6.15833670684029 15.3929133660305  3.63076250221629 12.9035050326354  3.62071422767307 12.8936022822905  C 3.55585779886139 12.8341800560875  3.4973956385819 12.7765590237816  3.44624149032449 12.7225394252476  C 3.39051959256612 12.6703200665885  3.34210570682985 12.6235033355983  3.25532596791337 12.5370717871395  C 3.25532596791337 12.5370717871395  1.27126712938942 10.5797578826364  1.27126712938942 10.5797578826364  C 1.27126712938942 10.5797578826364  1.08309211148657 10.3933896475797  1.08309211148657 10.3933896475797  C 1.02919733772731 10.3402706459942  0.9908314845471 10.3006558285256  0.930542442255658 10.2367325256245  C 0.76063684944016 10.0719728931991  0.600779410174306 9.89910979628147  0.454624069972353 9.72264526559192  C 0.314862998302576 9.57589184800384  0.204333021896744 9.40753078180659  0.125774524269565 9.22386338357327  C 0.125774524269565 9.22386338357327  0.106591635489954 9.17254462186264  0.106591635489954 9.17254462186264  C -0.0413906547828319 8.72598209850313  -0.0349963597833112 8.25781097251226  0.123947581760831 7.78063721611386  C 0.203419550642377 7.59336886111973  0.313949527048209 7.42410719797397  0.454624069972353 7.27735378038589  C 0.603519854185801 7.09638769598702  0.762463791948894 6.92442519601789  0.913186458174288 6.7812727351906  C 0.993571928558596 6.69664190361772  1.03102421973925 6.65792768309762  1.08309211148657 6.6066093983981  C 1.17261223391777 6.51927725299075  1.21280496910992 6.4787627925958  1.27126712938942 6.41754032651802  C 1.27126712938942 6.41754032651802  3.4471547498401 4.27385866396937  3.4471547498401 4.27385866396937  C 3.48643410452307 4.23514444344927  3.5056169101196 4.21623763166348  3.52936722322993 4.1937293861058  C 3.55951180487244 4.16311815306691  3.59056988801771 4.13430763691397  3.60701218910595 4.1199023788375  C 3.62893549921077 4.09829473022834  3.64903204829721 4.0811881583174  3.66638785088821 4.06768349718945  C 3.66638785088821 4.06768349718945  5.83314081929201 1.92850326909734  5.83314081929201 1.92850326909734  C 5.83314081929201 1.92850326909734  6.15833670684029 1.60708603770565  6.15833670684029 1.60708603770565  C 6.23689493223192 1.53055819361398  6.29992435803807 1.47023608597917  6.44151249321016 1.33518685113864  C 6.44151249321016 1.33518685113864  6.48809937594091 1.28927012083308  6.48809937594091 1.28927012083308  C 6.52281146509722 1.25235673645171  6.54382127369928 1.230748849337  6.55752355425354 1.21724383045073  C 6.85440162117768 0.924637174838372  7.19512630831143 0.679747906791134  7.57147634411711 0.487977938461304  C 7.94051836790071 0.30701194350202  8.33879195579835 0.178265009069945  8.754421346287 0.105338412417704  C 9.13442538810373 0.0459167452121554  9.51260194294063 0.0135049247883803  9.87798996071317 0.00990361120092482  C 10.0067900427952 0.00540196991535214  10.1081845958201 0.00360131335453995  10.2662157580419 0.00360131335453995  C 10.2662157580419 0.00360131335453995  10.3721780605678 0.00360131335453995  10.3721780605678 0.00360131335453995  C 10.542084016364 0.000900328338634987  10.6727096495286 0  10.9549721763829 0  C 10.9549721763829 0  17.3721065586246 0  17.3721065586246 0  C 17.3721065586246 0  17.6598486425725 0  17.6598486425725 0  C 17.7667256565369 0.000900328338634987  17.8617259410296 0.00180065667726997  17.9430258808653 0.00270098495767607  C 18.1878355720678 0.00270098495767607  18.3011049186672 0.00450164175140383  18.4299059686978 0.00990361120092482  C 18.8199563491606 0.0144052534181598  19.1981338719461 0.0459167452121554  19.5845331502436 0.107139069677263  C 19.9928545287101 0.178265009069945  20.3865598831325 0.3079122721318  20.756515650406 0.490678924350642  C 21.1319519427218 0.678847548348161  21.4726775978042 0.923736876021786  21.7677276937742 1.21724383045073  C 22.0636934691313 1.5080499480563  22.3121561983962 1.84387243752445  22.5048999337487 2.21570795293101  C 22.6885062342019 2.58034095855211  22.8191328353152 2.97288412188318  22.8931247631288 3.38253338011409  C 22.9525006668982 3.74986746106411  22.9853838171517 4.12260321566087  22.9899525346013 4.48903693816791  C 22.9926918291738 4.56556478225959  22.9945193161537 4.64119250641384  22.9963468031335 4.74292943288656  C 22.9963468031335 4.7834443702926  22.9963468031335 4.7834443702926  22.9972605466234 4.82305871075012  C 22.9981742901133 4.87617818934669  22.9981742901133 4.90949025920895  22.999086097706 4.94280232907121  C 22.999086097706 4.94280232907121  22.9999998411959 4.98961953707252  22.9999998411959 4.98961953707252  L 22.9999998411959 11.9815694697634  C 22.9999998411959 11.9815694697634  22.999086097706 12.0022765214241  22.999086097706 12.0022765214241  C 22.999086097706 12.0373893081723  22.9981742901133 12.0725020949205  22.9972605466234 12.1382265917187  C 22.9954330596436 12.2993847903721  22.9936055726638 12.3768132314123  22.9899525346013 12.4578431062244  C 22.9862975606417 12.8368808929109  22.9525006668982 13.2213213072663  22.8885560456792 13.5994594510264  C 22.8182190918253 14.005507513991  22.6866806831193 14.3998506786914  22.4975919217266 14.7725871488048  C 22.3057619298641 15.1417212311241  22.0572992005991 15.4784443175408  21.7595059382622 15.7728517496655  C 21.4617146118224 16.0681588247165  21.1182496621675 16.3139492859761  20.7400740752792 16.5039180007825  C 20.3655495905562 16.6920874297363  19.9645362241117 16.8217352294356  19.5479930901331 16.8910602059835  C 19.1698175032448 16.9531823149876  18.7834182249473 16.9873954588095  18.3997601771196 16.9936977294047  C 18.3294232232656 16.9954970152574  18.2737022934559 16.9963976122059  18.1512974478546 16.9972982091544  C 18.0663444699565 16.998198806103  18.0151903216991 16.998198806103  17.9649479810344 16.9990994030515  C 17.9649479810344 16.9990994030515  17.9019190392025 17  17.9019190392025 17  Z M 10.9549721763829 1.25955936548994  C 10.6754499120498 1.25955936548994  10.5484782848962 1.25955936548994  10.3831400786009 1.26226032156609  C 10.1511179565141 1.26226032156609  10.0506361790305 1.26316068000906  9.91087504686397 1.26856259216135  C 9.59207342784787 1.27216390668047  9.2750992958116 1.29917370594746  8.96634595133872 1.34779151158194  C 8.68042941847341 1.39730955640662  8.40547490364124 1.48554170249862  8.1497031944056 1.61068735222477  C 7.89484474468556 1.74033467491301  7.66373685006301 1.9077957404256  7.46185955160591 2.10766851735748  C 7.46003254860038 2.10946923424343  7.45089801754708 2.11847258016761  7.40979165985859 2.16078799595405  C 7.36229151761223 2.21030604077872  7.34036796552026 2.23191392789343  7.31570415090717 2.25352181500814  C 7.18873203977926 2.3741657917722  7.13118313901537 2.42998610719214  7.06175944467704 2.49751084386518  C 7.06175944467704 2.49751084386518  6.73656355712877 2.81892807525686  6.73656355712877 2.81892807525686  C 6.73656355712877 2.81892807525686  4.53235823704752 4.99412109078183  4.53235823704752 4.99412109078183  C 4.51134842844547 5.01482861945357  4.49033861984342 5.03373543123936  4.44375173711267 5.0742503686454  C 4.44375173711267 5.0742503686454  4.42548219103175 5.09045634360782  4.42548219103175 5.09045634360782  L 4.35057748767686 5.16428335087612  L 4.15874894773728 5.35335194574509  C 4.15874894773728 5.35335194574509  2.18656502378134 7.2971611891202  2.18656502378134 7.2971611891202  C 2.13084312602297 7.35478222142608  2.08516974479498 7.39979823553035  1.98651484932333 7.49703408530485  C 1.95180288116059 7.53124627510453  1.92439880402637 7.56005679125748  1.85497498869447 7.63118296170241  C 1.85497498869447 7.63118296170241  1.82391702654277 7.66359443461614  1.82391702654277 7.66359443461614  C 1.68689639888449 7.79504247419033  1.55535653825562 7.93819493501762  1.43295145066722 8.0885493093665  C 1.43295145066722 8.0885493093665  1.38910483045759 8.13626663730523  1.38910483045759 8.13626663730523  C 1.35713336680314 8.16867858723007  1.33155617168086 8.20469197092679  1.31328674659352 8.24250559449837  C 1.26395935935448 8.40996701776928  1.26395935935448 8.58823178833368  1.31328674659352 8.75659285453092  C 1.3333830536928 8.79620767199954  1.35896024881508 8.83312069862259  1.3918452139723 8.86733384244447  C 1.3918452139723 8.86733384244447  1.43112444766169 8.90964949673646  1.43112444766169 8.90964949673646  C 1.55809692177033 9.06450542479466  1.6896367823992 9.20675776568452  1.84401333364206 9.35621202009597  C 1.91617753248867 9.43183926723913  1.94723561563394 9.46425121716396  1.98651484932333 9.50296543768406  C 1.98651484932333 9.50296543768406  2.17560324773536 9.68933367274076  2.17560324773536 9.68933367274076  C 2.17560324773536 9.68933367274076  4.15874894773728 11.6466475772438  4.15874894773728 11.6466475772438  C 4.25100945368318 11.7375802024009  4.29028832439184 11.776294422921  4.36336602474121 11.8465199964174  C 4.39259710488096 11.8762311095188  4.43187645956393 11.9167455699138  4.48211734830572 11.9644628978525  C 4.4885116168379 11.9689649285729  4.49581962885999 11.9761668420945  4.50586790340321 11.9851709035353  C 4.50586790340321 11.9851709035353  4.52961797452639 12.005877955196  4.52961797452639 12.005877955196  C 4.52961797452639 12.005877955196  7.06175944467704 14.5024882021126  7.06175944467704 14.5024882021126  C 7.13118313901537 14.5700129387857  7.18873203977926 14.6258337312167  7.31570415090717 14.7473780664237  C 7.34036796552026 14.7689857150329  7.36229151761223 14.7905933636421  7.41161866286411 14.8419121253527  C 7.45089801754708 14.8824275397698  7.46003254860038 14.8914306471885  7.46185955160591 14.8932308870633  C 7.6628231065731 15.091303066362  7.897585491181 15.2614653264563  8.14056866335229 15.3848099015382  C 8.40456116015133 15.513557104289  8.67951664293211 15.6035900865197  8.95903890726524 15.6513074144584  C 9.27235903329047 15.7026261761691  9.59481465831761 15.7305360953735  9.91635557190623 15.7350381260939  C 9.91635557190623 15.7350381260939  9.94558665204598 15.7350381260939  9.94558665204598 15.7350381260939  C 9.9976545437933 15.7359387230424  10.0506361790305 15.7368383659687  10.1492914374829 15.7377389629173  C 10.1492914374829 15.7377389629173  10.2589077460198 15.7395392027921  10.2589077460198 15.7395392027921  C 10.311889381257 15.7395392027921  10.347514729929 15.7404397997406  10.3831400786009 15.7413403966892  C 10.3831400786009 15.7413403966892  17.8891305021382 15.7413403966892  17.8891305021382 15.7413403966892  C 17.9329766383735 15.7404397997406  17.9704285060766 15.7395392027921  18.0215845902313 15.7395392027921  C 18.0215845902313 15.7395392027921  18.1385089107903 15.7377389629173  18.1385089107903 15.7377389629173  C 18.2344229387729 15.7368383659687  18.2864908305202 15.7359387230424  18.3385587222675 15.7359387230424  C 18.3385587222675 15.7359387230424  18.3760105899707 15.7350381260939  18.3760105899707 15.7350381260939  C 18.6975515035593 15.7296364524472  19.0218336476177 15.7008259362942  19.3378959720612 15.6495071745836  C 19.6238125049265 15.6017898466449  19.9005935387899 15.5117568644141  20.1618467410164 15.3812094217885  C 20.4167037388136 15.2533628159862  20.6496386364416 15.0868019896638  20.8542571653685 14.8842277796447  C 21.0588737583981 14.6816535696256  21.2287797141943 14.452970634299  21.3584925718177 14.2035796932897  C 21.488205429441 13.9478864816851  21.5786389323814 13.6750866981696  21.6288812730461 13.3905829704121  C 21.6818609723861 13.0718670528548  21.7092655334947 12.7567516150473  21.7129205074543 12.4263317532481  C 21.7165735455167 12.3444012814875  21.7174872890067 12.277777141763  21.7193147759865 12.1220206167563  C 21.7202265835792 12.0770041256409  21.7211403270691 12.0454927726646  21.7211403270691 12.0211833332099  C 21.7211403270691 12.0004762815492  21.722054070559 11.9851709035353  21.722054070559 11.9698645714993  C 21.722054070559 11.9698645714993  21.722054070559 5.00222407826304  21.722054070559 5.00222407826304  C 21.722054070559 5.00222407826304  21.7211403270691 4.95000519661499  21.7211403270691 4.95000519661499  C 21.7211403270691 4.92029408351353  21.7202265835792 4.88788261059979  21.7193147759865 4.84016480564997  C 21.7193147759865 4.80055046519244  21.7193147759865 4.80055046519244  21.7184010324966 4.76183624467235  C 21.7174872890067 4.67000302256678  21.7156598020268 4.60337888284226  21.7129205074543 4.52234900803017  C 21.7083517900047 4.20183237358701  21.6809491647934 3.88851789117098  21.6325343111086 3.59140962222293  C 21.5822939063411 3.30780625290836  21.4918604034007 3.03590706634136  21.3639730968599 2.78381505000311  C 21.2342602392366 2.53352398905636  21.0661817704202 2.30574093516173  20.8633926643704 2.10586803897708  C 20.6624291094032 1.90689538198263  20.4331472498376 1.74123491410321  20.181029546613 1.61428866674389  C 19.9261706129186 1.48914301701774  19.6475620920754 1.39730955640662  19.3735203527845 1.34869187002492  C 19.0501519522161 1.29827346675727  18.7304365897101 1.27216390668047  18.397020882547 1.26856259216135  C 18.2755278445385 1.26316068000906  18.1750470350035 1.26226032156609  17.9329766383735 1.26226032156609  C 17.9329766383735 1.26226032156609  17.6552818610202 1.25955936548994  17.6552818610202 1.25955936548994  L 17.3721065586246 1.25955936548994  C 17.3721065586246 1.25955936548994  10.9549721763829 1.25955936548994  10.9549721763829 1.25955936548994  Z M 16.900754302429 11.9959742508288  C 16.7463781141669 11.9959742508288  16.6011354890094 11.934751784751  16.4960878979221 11.8312146184035  C 16.4960878979221 11.8312146184035  16.4896936293899 11.8375168889987  16.4896936293899 11.8375168889987  L 13.9073103025489 9.29589015096672  L 11.3294956931574 11.8393171288736  L 11.3285819496675 11.8402177258221  L 11.3276682061775 11.8393171288736  C 11.3276682061775 11.8393171288736  11.3203611621041 11.832115215352  11.3203611621041 11.832115215352  C 11.269206045898 11.8825333801141  11.2070908475561 11.9239484374576  11.1376666692435 11.951858356662  C 11.0664159718996 11.9806688728149  10.9924250120346 11.9950746079025  10.9184340521697 11.9950746079025  C 10.76771090197 11.9950746079025  10.6206417577813 11.9365529786481  10.5101117057545 11.8276131846316  C 10.2872250826696 11.6070327597752  10.2872250826696 11.2496026216979  10.5101117057545 11.028121599893  C 10.5429967919053 10.9957096499681  10.5786221405772 10.9677997307637  10.6169887197189 10.945291485206  C 10.6169887197189 10.945291485206  13.0979755576378 8.49729820915444  13.0979755576378 8.49729820915444  L 10.5101117057545 5.95026979747568  C 10.5101117057545 5.95026979747568  10.5184157368985 5.94205852847577  10.5184157368985 5.94205852847577  C 10.46774362705 5.89113902505217  10.4263860866967 5.83046607575655  10.3977551346965 5.76210132254413  C 10.3091481507873 5.54962388516895  10.3584757800135 5.30563461780636  10.5229012107675 5.14447594214181  C 10.7476143528835 4.92389551728542  11.1102621081349 4.92389551728542  11.3349762181996 5.14447594214181  C 11.3679038940894 5.17674908183782  11.3961583140794 5.21237179344724  11.4197220550947 5.25037002031282  C 11.4197220550947 5.25037002031282  13.9073103025489 7.69870722136435  13.9073103025489 7.69870722136435  C 13.9073103025489 7.69870722136435  16.4202684831287 5.22010366629606  16.4202684831287 5.22010366629606  C 16.4385394811325 5.19309386702906  16.4595478378116 5.16788430763691  16.4832993608578 5.14447594214181  C 16.6477228557145 4.98241714653983  16.8934462904069 4.93379922165258  17.1081121259284 5.02113089004883  C 17.3227779614498 5.10756243850766  17.462540061565 5.31373760528757  17.462540061565 5.54242101762517  C 17.462540061565 5.69457658587109  17.4004229273259 5.83682844974986  17.2953734003413 5.94036609310853  C 17.2953734003413 5.94036609310853  17.3017676688735 5.94666836370379  17.3017676688735 5.94666836370379  L 14.7184725344397 8.49549796927959  C 14.7184725344397 8.49549796927959  17.2405662140215 10.9777034351309  17.2405662140215 10.9777034351309  C 17.2624902500877 10.9939094100933  17.2844123502568 11.0119156249306  17.3045088993432 11.0317230336649  C 17.4689343300972 11.1928812323183  17.5182609913748 11.4359699027324  17.4296549754142 11.6466475772438  C 17.3410470235564 11.8582239406594  17.1327773924644 11.9959742508288  16.900754302429 11.9959742508288  Z " fill-rule="nonzero" fill="#000000" stroke="none" transform="matrix(1 0 0 1 337 547 )" />
  </g>
</svg>