<?xml version="1.0" encoding="utf-8"?>
<svg version="1.1" xmlns:xlink="http://www.w3.org/1999/xlink" width="19px" height="16px" xmlns="http://www.w3.org/2000/svg">
  <g transform="matrix(1 0 0 1 -19 -546 )">
    <path d="M 18.767448326054 8.76792285425353  C 19.2889591886979 9.27015000883769  18.8522985724081 10.1741599997682  18.2553294384222 10.1741599997682  C 18.2553294384222 10.1741599997682  14.0316049096853 10.1741599997682  14.0316049096853 10.1741599997682  C 14.0316049096853 10.1741599997682  14.0316049096853 14.0332127737871  14.0316049096853 14.0332127737871  C 14.0316049096853 14.1109769843501  14.0316049096853 14.1822607667634  14.0316049096853 14.2567852268677  C 14.0316049096853 14.3215885811314  14.0316049096853 14.3831521849365  14.0289214882533 14.4479555392002  C 14.0270634396508 14.5868985520685  14.0146214241126 14.7255207424814  13.9916952541668 14.8626983046133  C 13.9667517194678 14.9989449252853  13.9215683154625 15.1309958187608  13.857544337018 15.2547600351189  C 13.7920202914425 15.3783740398072  13.7064204913908 15.4910476278784  13.6040003608607 15.588497912278  C 13.501109000029 15.6859148163065  13.3836450100757 15.7678358102998  13.255544267715 15.8315107225749  C 13.1257946991668 15.8925337498153  12.9880217389262 15.936139641219  12.8460508940849 15.9611192855673  C 12.7036587252061 15.9826885686717  12.5598778185548 15.9945979432823  12.4157629238282 15.9967602495415  C 12.3486879451217 15.9967602495415  12.2836255324892 16  12.2178913047629 16  C 12.2178913047629 16  6.78446484674483 16  6.78446484674483 16  C 6.71738938817042 16  6.65266192334903 15.9967602495415  6.58659274781163 15.9967602495415  C 6.4424788128209 15.9945942343522  6.29869838603748 15.9826848597416  6.1563057372908 15.9611192855673  C 6.01444478220411 15.9361266599636  5.87678459092573 15.8925207685599  5.74714683160384 15.8315107225749  C 5.61904416977141 15.7678395192299  5.50157922008228 15.6859185252367  5.39869121832607 15.588497912278  C 5.29621398351295 15.4910958439699  5.21060698544242 15.378412056341  5.14514676230081 15.2547600351189  C 5.08113574029023 15.1309902553656  5.03595329602082 14.9989412163552  5.0109963250199 14.8626983046133  C 4.98792523496101 14.7255327965043  4.97537045046061 14.5869078243937  4.97343418338653 14.4479555392002  C 4.97343418338653 14.3831521849365  4.97075124182242 14.3215885811314  4.97075124182242 14.2567852268677  C 4.97075124182242 14.1822607667634  4.97075124182242 14.1109769843501  4.97075124182242 14.0332127737871  C 4.97075124182242 14.0332127737871  4.97075124182242 10.1741599997682  4.97075124182242 10.1741599997682  C 4.97075124182242 10.1741599997682  0.680286262305708 10.1741599997682  0.680286262305708 10.1741599997682  C 0.246309712270435 10.1741599997682  -0.310414443489086 9.27015000883769  0.210759851789508 8.76792285425353  C 0.653791554541738 8.34345898299977  7.61686822129731 1.63629014264893  9.0740769083817 0.239773204718455  C 9.1811555967198 0.112636310425861  9.33240516774314 0.0274241480326734  9.49966889113231 0  C 9.49966889113231 0  9.51107151274676 0  9.51107151274676 0  C 9.65577280607668 0.00758177710996109  9.79013198590461 0.0748465357723412  9.87998533523624 0.184690173943027  C 11.3371935424527 1.58120708289749  18.3240829951275 8.34345898299977  18.767448326054 8.76792285425353  Z " fill-rule="nonzero" fill="#000000" stroke="none" transform="matrix(1 0 0 1 19 546 )" />
  </g>
</svg>