<?xml version="1.0" encoding="utf-8"?>
<svg version="1.1" xmlns:xlink="http://www.w3.org/1999/xlink" width="22px" height="22px" xmlns="http://www.w3.org/2000/svg">
  <g transform="matrix(1 0 0 1 -315 -30 )">
    <path d="M 21.9434551359831 20.0981036416016  C 21.9434551359831 19.5939188060455  21.7430303196642 19.110413590733  21.3863285625 18.7540904160156  L 16.9057993457031 14.2721058476563  C 16.7361737481665 14.1076791099827  16.5376749792579 13.9759496031976  16.3202646191406 13.8835281191406  C 17.286999677229 12.4329011715018  17.8026747919176 10.7285569162074  17.802293265625 8.98531422851562  C 17.802293265625 4.08418963476562  13.8301653789062 0.112546865234374  8.92904078515625 0.112546865234374  C 4.02840133007813 0.112546865234375  0.056273421875 4.08467475195313  0.056273421875 8.98531422851562  C 0.056273421875 13.8859537050781  4.02840130859375 17.8580815917969  8.92904078515625 17.8580815917969  C 10.7414332910156 17.8580815917969  12.4233296601563 17.3079603125  13.8287100273437 16.3760529238281  C 13.9199118007813 16.5870782773437  14.0436163183594 16.7884013300781  14.2153473085938 16.9606174160156  L 18.6978169726563 21.4421168671875  C 19.0542861801851 21.7987291043808  19.5378480323337 21.9990838011507  20.0420727675781 21.9990838011507  C 20.5462975028225 21.9990838011507  21.0298593549711 21.7987291043808  21.3863285625 21.4421168671875  C 21.7430303196642 21.0857936924701  21.9434551359831 20.6022884771576  21.9434551359831 20.0981036416016  Z M 15.2665931601562 8.98579934570312  C 15.2665931601562 12.4859096054688  12.4301212792969 15.3228666035156  8.92904078515625 15.3228666035156  C 5.42844540820313 15.3228666035156  2.59148841015625 12.4859096054688  2.59148843164063 8.98579934570312  C 2.59148843164063 5.48520396875  5.4284454296875 2.64824697070312  8.92904078515625 2.64824697070312  C 12.4301212792969 2.64824697070312  15.2665931601562 5.48520396875  15.2665931601562 8.98579934570312  Z " fill-rule="nonzero" fill="#ffffff" stroke="none" transform="matrix(1 0 0 1 315 30 )" />
  </g>
</svg>