<?xml version="1.0" encoding="utf-8"?>
<svg version="1.1" xmlns:xlink="http://www.w3.org/1999/xlink" width="12px" height="24px" xmlns="http://www.w3.org/2000/svg">
  <g transform="matrix(1 0 0 1 -17 -29 )">
    <path d="M 0.460307699999998 11.28533334375  C 0.628800226335738 11.0959662860994  0.867400724633276 10.9865197471632  1.11868716923077 10.983333328125  C 1.36615384615385 10.983999984375  1.60246153846154 11.0926666640625  1.77772308461538 11.28533334375  L 11.7249641076923 22.268666671875  C 12.067051614886 22.6853356925971  12.0572799749062 23.2935545713978  11.7019897384615 23.6986666640625  C 11.5350383695315 23.8902756760681  11.2952061012858 23.9999837319904  11.0432819047039 23.9999837319904  C 10.8028377292906 23.9999837319904  10.5728749376865 23.900014632703  10.4068923 23.72333334375  L 0.459651276923077 12.740666671875  C 0.281021044712005 12.5418076482699  0.182806829532937 12.2818417595088  0.184615384615385 12.01266665625  C 0.184615384615385 11.739333328125  0.283733330769231 11.4773333203125  0.460307699999998 11.28533334375  Z M 10.4068923 0.3019999921875  C 10.5755393621376 0.112463842761713  10.8144124101191 0.00300143420373088  11.0659282153846 0  C 11.3127384692308 0.00066665625  11.5497025846154 0.1093333359375  11.7249641076923 0.3019999921875  C 11.9008820538462 0.4939999921875  12 0.756  12 1.0300000078125  C 12 1.3033333359375  11.9008820538462 1.56533334375  11.7243076846154 1.75733334375  L 1.77837948461538 12.740666671875  C 1.61241524909966 12.9171529611979  1.3825838201987 13.0169964435861  1.14229123167081 13.0169964435861  C 0.890208413515079 13.0169964435861  0.650240888089825 12.9071507069175  0.483282046153847 12.7153333359375  C 0.12799181646234 12.3102212374201  0.118220186299348 11.7020023587122  0.4603077 11.28533334375  L 10.4068923 0.3019999921875  Z " fill-rule="nonzero" fill="#848484" stroke="none" transform="matrix(1 0 0 1 17 29 )" />
  </g>
</svg>