<?xml version="1.0" encoding="utf-8"?>
<svg version="1.1" xmlns:xlink="http://www.w3.org/1999/xlink" width="818px" height="12px" preserveAspectRatio="xMinYMid meet" viewBox="1045 1725  818 10" xmlns="http://www.w3.org/2000/svg">
  <path d="M 1051.5 1686  L 1051.5 1725  A 5 5 0 0 0 1056.5 1730.5 L 1852 1730.5  A 5 5 0 0 0 1857.5 1725.5 L 1857.5 1714  " stroke-width="3" stroke="#d7af1f" fill="none" />
  <path d="M 1051.5 1683  A 4 4 0 0 0 1047.5 1687 A 4 4 0 0 0 1051.5 1691 A 4 4 0 0 0 1055.5 1687 A 4 4 0 0 0 1051.5 1683 Z M 1857.5 1711  A 4 4 0 0 0 1853.5 1715 A 4 4 0 0 0 1857.5 1719 A 4 4 0 0 0 1861.5 1715 A 4 4 0 0 0 1857.5 1711 Z " fill-rule="nonzero" fill="#d7af1f" stroke="none" />
</svg>