<?xml version="1.0" encoding="utf-8"?>
<svg version="1.1" xmlns:xlink="http://www.w3.org/1999/xlink" width="22px" height="22px" preserveAspectRatio="xMinYMid meet" viewBox="2058 927  22 20" xmlns="http://www.w3.org/2000/svg">
  <path d="M 2038 1684.5  L 2055 1684.5  A 5 5 0 0 0 2060.5 1679.5 L 2060.5 942  A 5 5 0 0 1 2065.5 937.5 L 2070 937.5  " stroke-width="3" stroke="#d7af1f" fill="none" />
  <path d="M 2039 1680.5  A 4 4 0 0 0 2035 1684.5 A 4 4 0 0 0 2039 1688.5 A 4 4 0 0 0 2043 1684.5 A 4 4 0 0 0 2039 1680.5 Z M 2069 933.5  A 4 4 0 0 0 2065 937.5 A 4 4 0 0 0 2069 941.5 A 4 4 0 0 0 2073 937.5 A 4 4 0 0 0 2069 933.5 Z " fill-rule="nonzero" fill="#d7af1f" stroke="none" />
</svg>