<?xml version="1.0" encoding="utf-8"?>
<svg version="1.1" xmlns:xlink="http://www.w3.org/1999/xlink" width="22px" height="22px" preserveAspectRatio="xMinYMid meet" viewBox="849 927  22 20" xmlns="http://www.w3.org/2000/svg">
  <path d="M 836 1097.5  L 845 1097.5  A 5 5 0 0 0 850.5 1092.5 L 850.5 942  A 5 5 0 0 1 855.5 937.5 L 861 937.5  " stroke-width="3" stroke="#d7af1f" fill="none" />
  <path d="M 837 1093.5  A 4 4 0 0 0 833 1097.5 A 4 4 0 0 0 837 1101.5 A 4 4 0 0 0 841 1097.5 A 4 4 0 0 0 837 1093.5 Z M 860 933.5  A 4 4 0 0 0 856 937.5 A 4 4 0 0 0 860 941.5 A 4 4 0 0 0 864 937.5 A 4 4 0 0 0 860 933.5 Z " fill-rule="nonzero" fill="#d7af1f" stroke="none" />
</svg>