<?xml version="1.0" encoding="utf-8"?>
<svg version="1.1" xmlns:xlink="http://www.w3.org/1999/xlink" width="22px" height="22px" preserveAspectRatio="xMinYMid meet" viewBox="57 365  22 20" xmlns="http://www.w3.org/2000/svg">
  <path d="M 69 375.5  L 43 375.5  A 5 5 0 0 0 38.5 380.5 L 38.5 932  A 5 5 0 0 0 43.5 937.5 L 62 937.5  " stroke-width="3" stroke="#d7af1f" fill="none" />
  <path d="M 68 371.5  A 4 4 0 0 0 64 375.5 A 4 4 0 0 0 68 379.5 A 4 4 0 0 0 72 375.5 A 4 4 0 0 0 68 371.5 Z M 61 933.5  A 4 4 0 0 0 57 937.5 A 4 4 0 0 0 61 941.5 A 4 4 0 0 0 65 937.5 A 4 4 0 0 0 61 933.5 Z " fill-rule="nonzero" fill="#d7af1f" stroke="none" />
</svg>