<?xml version="1.0" encoding="utf-8"?>
<svg version="1.1" xmlns:xlink="http://www.w3.org/1999/xlink" width="10px" height="6px" xmlns="http://www.w3.org/2000/svg">
  <g transform="matrix(1 0 0 1 -264 -889 )">
    <path d="M 5.01733492299877 5.99999999254917  C 5.01155015384225 6.0000004694021  5.00574128148091 5.9998593209368  4.99995745754811 5.99964330656255  C 4.86716061429286 6.00462451219933  4.73331551793392 5.9523933809516  4.63761445211856 5.84476958357467  C 4.63761445211856 5.84476958357467  0.119507714077103 0.78210202937875  0.119507714077103 0.78210202937875  C -0.052653114929232 0.590395709742328  -0.036596666086063 0.293385869643829  0.153404662455411 0.120580137180254  C 0.344298027419711 -0.0531256067456727  0.637774277634041 -0.0369250725869494  0.809935080794415 0.15478126567654  C 0.809935080794415 0.15478126567654  5.00022259280112 4.85011780701142  5.00022259280112 4.85011780701142  C 5.00022259280112 4.85011780701142  9.19051040019024 0.15478126567654  9.19051040019024 0.15478126567654  C 9.36177926661935 -0.0369250725869494  9.65525516237478 -0.0531256067456727  9.84614876364501 0.120580137180254  C 10.0370423649152 0.293385869643829  10.0522065890293 0.590395709742328  9.88093772260019 0.78210202937875  C 9.88093772260019 0.78210202937875  5.36283073348368 5.84476958357467  5.36283073348368 5.84476958357467  C 5.27130093993755 5.94770305559803  5.14459842660659 5.99999522401994  5.01733492299877 5.99999999254917  Z " fill-rule="nonzero" fill="#000000" stroke="none" fill-opacity="0.650980392156863" transform="matrix(1 0 0 1 264 889 )" />
  </g>
</svg>