<?xml version="1.0" encoding="utf-8"?>
<svg version="1.1" xmlns:xlink="http://www.w3.org/1999/xlink" width="10px" height="6px" xmlns="http://www.w3.org/2000/svg">
  <g transform="matrix(1 0 0 1 -664 -889 )">
    <path d="M 4.98266506961667 5.99999999254917  C 4.98844983877319 6.0000004694021  4.99425871113453 5.9998593209368  5.00004253506733 5.99964330656255  C 5.13283937832258 6.00462451219933  5.26668447468152 5.9523933809516  5.36238554049688 5.84476958357467  C 5.36238554049688 5.84476958357467  9.88049227853834 0.78210202937875  9.88049227853834 0.78210202937875  C 10.0526531075447 0.590395709742328  10.0365966587015 0.293385869643829  9.84659533016003 0.120580137180254  C 9.65570196519573 -0.0531256067456727  9.3622257149814 -0.0369250725869494  9.19006491182102 0.15478126567654  C 9.19006491182102 0.15478126567654  4.99977739981432 4.85011780701142  4.99977739981432 4.85011780701142  C 4.99977739981432 4.85011780701142  0.809489592425204 0.15478126567654  0.809489592425204 0.15478126567654  C 0.638220725996091 -0.0369250725869494  0.344744830240656 -0.0531256067456727  0.153851228970426 0.120580137180254  C -0.0370423722998083 0.293385869643829  -0.052206596413859 0.590395709742328  0.119062270015254 0.78210202937875  C 0.119062270015254 0.78210202937875  4.63716925913176 5.84476958357467  4.63716925913176 5.84476958357467  C 4.72869905267788 5.94770305559803  4.85540156600885 5.99999522401994  4.98266506961667 5.99999999254917  Z " fill-rule="nonzero" fill="#000000" stroke="none" fill-opacity="0.650980392156863" transform="matrix(1 0 0 1 664 889 )" />
  </g>
</svg>