<?xml version="1.0" encoding="utf-8"?>
<svg version="1.1" xmlns:xlink="http://www.w3.org/1999/xlink" width="19px" height="19px" xmlns="http://www.w3.org/2000/svg">
  <g transform="matrix(1 0 0 1 -44 -52 )">
    <path d="M 5.33530579352679 18.9538447509766  L 5.33382684709821 18.9538447509766  C 3.8893957421875 16.3251526689453  4.65943035044643 14.819715296875  5.768635125 13.4009807695312  C 6.98284462946429 11.8463686513672  7.2968728125 10.3090108339844  7.2968728125 10.3090108339844  C 7.2968728125 10.3090108339844  8.25226785825893 11.3956001640625  7.86971547544643 13.0947170048828  C 9.55767865625 11.4508139042969  9.87614367857143 8.83204305078125  9.62078007366071 7.82999976855469  C 13.4339796026786 10.1627806552734  15.0642641484375 15.212250546875  12.8680386897321 18.9551388291016  C 24.5526483203125 13.1702045615234  15.7741552109375 4.51458669726563  14.2473964486607 3.53971894433594  C 14.7566446908482 4.51415533789063  14.8532687455357 6.16539152929688  13.8254056640625 6.96642223339844  C 12.0832146808036 1.18493882226562  7.775063328125 0  7.775063328125 0  C 8.28529753459821 2.98067973632813  5.92836061830357 6.23958498925781  3.65670923102679 8.67546030273438  C 3.57586052008929 7.48707062402344  3.4920539375 6.66706018164062  2.77723309598214 5.52870796777344  C 2.61602867745536 7.68894590234375  0.731366512276786 9.44845277734375  0.221132305803571 11.6117102275391  C -0.470025520089286 14.5427838583984  0.739747166294643 16.6870615517578  5.33530579352679 18.9538447509766  Z " fill-rule="nonzero" fill="#f75353" stroke="none" transform="matrix(1 0 0 1 44 52 )" />
  </g>
</svg>