<?xml version="1.0" encoding="utf-8"?>
<svg version="1.1" xmlns:xlink="http://www.w3.org/1999/xlink" width="24px" height="18px" xmlns="http://www.w3.org/2000/svg">
  <g transform="matrix(1 0 0 1 -43 -610 )">
    <path d="M 21.4890814516129 11.6328125  C 23.271339516129 12.1796875  23.4729524193548 12.98828125  23.021339516129 13.54296875  C 22.5656943548387 14.09765625  21.4568233870968 14.4921875  21.4568233870968 14.4921875  L 13.1866620967742 17.3671875  L 13.1866620967742 15.24609375  L 19.271339516129 13.14453125  C 19.9608556451613 12.90625  20.0697266129032 12.56640625  19.505210483871 12.38671875  C 18.9447266129032 12.20703125  17.9285975806452 12.2578125  17.2390814516129 12.5  L 13.1866620967742 13.88671875  L 13.1866620967742 11.68359375  C 14.1221459677419 11.37890625  15.0858556451613 11.15234375  16.2390814516129 11.02734375  C 17.888275 10.8515625  19.9044040322581 11.05078125  21.4890814516129 11.6328125  Z M 18.1866620967742 7.015625  C 18.1866620967742 9.92578125  16.3318233870968 11.03125  13.9729524193548 9.9296875  L 13.9729524193548 4.5  C 13.9729524193548 3.86328125  13.8519846774194 3.27734375  13.2350491935484 3.109375  C 12.763275 2.9609375  12.4689201612903 3.38671875  12 4.0234375  L 12 17.61328125  L 9 16.44921875  L 9 0.25  C 10.2955330645161 0.5390625  12.638275 1.22265625  13.896339516129 1.6328125  C 17.1019846774194 2.69921875  18.1866620967742 4.02734375  18.1866620967742 7.015625  Z M 7.94875887096774 15.4140625  C 5.86811370967742 15.77734375  3.86004919354839 15.69921875  1.74311370967742 15.0234375  C -0.0875314516129032 14.5234375  -0.393983064516129 13.48046875  0.44069435483871 12.8828125  C 1.21085564516129 12.328125  2.52537177419355 11.91015625  2.52537177419355 11.91015625  L 7.94875887096774 10.04296875  L 7.94875887096774 12.171875  L 4.04553306451613 13.5234375  C 3.35601693548387 13.76171875  3.25117822580645 14.1015625  3.81166209677419 14.28125  C 4.37214596774194 14.4609375  5.388275 14.41015625  6.07779112903226 14.16796875  L 7.94875887096774 13.5078125  L 7.94875887096774 15.4140625  Z " fill-rule="nonzero" fill="#1890ff" stroke="none" transform="matrix(1 0 0 1 43 610 )" />
  </g>
</svg>