<?xml version="1.0" encoding="utf-8"?>
<svg version="1.1" xmlns:xlink="http://www.w3.org/1999/xlink" width="20px" height="20px" xmlns="http://www.w3.org/2000/svg">
  <g transform="matrix(1 0 0 1 -43 -331 )">
    <path d="M 9.92248513868006 7.9512111627907  C 6.96062602867951 10.1903833527132  1.8364939986156 15.8106394186047  3.39184211662279 17.3916206589147  C 5.19791517731497 18.9764146004357  7.51968300592996 19.8486209057263  9.92248513868006 19.8449529651163  C 12.3262475258849 19.8484391227304  14.6489918758307 18.9763076712228  16.4564356606091 17.3916206589147  C 18.0084762981244 15.8106393992248  12.8876517485524 10.1903833527132  9.92248513868006 7.9512111627907  Z M 16.5928697057084 2.79565775193798  C 16.1033608874731 2.79565775193798  14.9515267848329 3.15452065891473  12.6197448984717 5.47968763565892  C 14.6869274152442 7.92805870155039  18.8080624880616 14.0072293023256  17.6438253045068 16.1562723449612  C 19.0712761968646 14.3938489822619  19.8485319831234 12.1937653588767  19.8449612463196 9.92578397286822  C 19.8486720192446 7.27211952407415  18.7848536584435 4.72849099352372  16.8930245971747 2.86759569767442  C 16.8930245971747 2.86759569767442  16.8706990166448 2.84940449612403  16.8252210145316 2.83286703488372  C 16.7505147310535 2.80708227259256  16.6718919964314 2.79449144367346  16.5928697057084 2.79565775193798  Z M 3.02140302245437 2.8345207751938  L 3.02140302245437 2.83286703488372  C 2.97427126071537 2.84940449612403  2.95359943981121 2.8667688372093  2.95029193993942 2.86759569767442  C 1.05954262092 4.7290855840028  -0.00357851124869403 7.27247189344485  0 9.92578397286822  C 0 12.2856796317829  0.825228320759359 14.4512601162791  2.20031811242027 16.1546185852713  C 1.04186902941634 14.0006143217054  5.15969660236193 7.92640496124031  7.22770601832713 5.47968763565891  C 4.89592413196595 3.15369377906977  3.74160940926689 2.7964846124031  3.25375433127758 2.79648463178294  C 3.17455108419832 2.79368003810841  3.09557781260099 2.80660804225572  3.02140302245437 2.8345207751938  Z M 9.92248513868006 2.93126492248062  L 9.92248513868006 2.9362261627907  C 9.92248513868006 2.9362261627907  7.48734412841825 1.51152391472868  5.58553621763876 1.44372032945736  C 4.83886988999141 1.41643352713178  4.38326287276763 1.68764786821705  4.32786237103906 1.72403029069767  C 6.10150497670888 0.534159980620155  7.98677542688908 0  9.90925517795256 0  L 9.92248513868006 0  C 11.8524067499202 0  13.7302353399237 0.534159980620155  15.5171079257009 1.72403029069767  C 15.4608805635393 1.68599412790698  15.0085810268075 1.41643352713178  14.2602609395343 1.44372032945736  C 12.3584530287548 1.51152391472868  9.92248513868006 2.93126492248062  9.92248513868006 2.93126492248062  Z " fill-rule="nonzero" fill="#78b082" stroke="none" transform="matrix(1 0 0 1 43 331 )" />
  </g>
</svg>