<?xml version="1.0" encoding="utf-8"?>
<svg version="1.1" xmlns:xlink="http://www.w3.org/1999/xlink" width="6px" height="6px" xmlns="http://www.w3.org/2000/svg">
  <defs>
    <mask fill="white" id="clip7">
      <path d="M 3 0  C 7 0  7 6  3 6  C -1 6  -1 0  3 0  Z " fill-rule="evenodd" />
    </mask>
  </defs>
  <g transform="matrix(1 0 0 1 -2998 -2431 )">
    <path d="M 3 0  C 7 0  7 6  3 6  C -1 6  -1 0  3 0  Z " fill-rule="nonzero" fill="#1890ff" stroke="none" transform="matrix(1 0 0 1 2998 2431 )" />
    <path d="M 3 0  C 7 0  7 6  3 6  C -1 6  -1 0  3 0  Z " stroke-width="2" stroke="#ffffff" fill="none" transform="matrix(1 0 0 1 2998 2431 )" mask="url(#clip7)" />
  </g>
</svg>