<?xml version="1.0" encoding="utf-8"?>
<svg version="1.1" xmlns:xlink="http://www.w3.org/1999/xlink" width="29px" height="38px" xmlns="http://www.w3.org/2000/svg">
  <defs>
    <mask fill="white" id="clip4">
      <path d="M 0 13.3  C 0 22.8  8.70000000000005 28.5  14.5 38  C 20.3 28.5  29 22.8  29 13.3  C 29 8.3599999999999  26.1 0  14.5 0  C 2.89999999999998 0  0 8.3599999999999  0 13.3  Z " fill-rule="evenodd" />
    </mask>
  </defs>
  <g transform="matrix(1 0 0 1 -1829 -144 )">
    <path d="M 0 13.3  C 0 22.8  8.70000000000005 28.5  14.5 38  C 20.3 28.5  29 22.8  29 13.3  C 29 8.3599999999999  26.1 0  14.5 0  C 2.89999999999998 0  0 8.3599999999999  0 13.3  Z " fill-rule="nonzero" fill="#ffbf60" stroke="none" transform="matrix(1 0 0 1 1829 144 )" />
    <path d="M 0 13.3  C 0 22.8  8.70000000000005 28.5  14.5 38  C 20.3 28.5  29 22.8  29 13.3  C 29 8.3599999999999  26.1 0  14.5 0  C 2.89999999999998 0  0 8.3599999999999  0 13.3  Z " stroke-width="2" stroke="#ffffff" fill="none" transform="matrix(1 0 0 1 1829 144 )" mask="url(#clip4)" />
  </g>
</svg>