<?xml version="1.0" encoding="utf-8"?>
<svg version="1.1" xmlns:xlink="http://www.w3.org/1999/xlink" width="7px" height="4px" xmlns="http://www.w3.org/2000/svg">
  <g transform="matrix(1 0 0 1 -247 -1465 )">
    <path d="M 6.871484375 0.717361111111111  L 3.84521484375 3.79861111111111  C 3.7474609375 3.89791666666667  3.61484375 3.98958333333333  3.48974609375 3.96180555555556  C 3.36396484375 3.98333333333333  3.245703125 3.88402777777778  3.14794921875 3.79861111111111  L 0.128515625 0.717361111111111  C -0.024609375 0.561805555555556  -0.024609375 0.30625  0.128515625 0.150694444444445  C 0.281640625 -0.00486111111111103  0.533203125 -0.00486111111111103  0.686328125 0.150694444444445  L 3.49658203125 3.08333333333333  L 6.313671875 0.150694444444444  C 6.466796875 -0.00486111111111123  6.718359375 -0.00486111111111123  6.871484375 0.150694444444444  C 7.024609375 0.30625  7.024609375 0.561805555555555  6.871484375 0.717361111111111  Z " fill-rule="nonzero" fill="#737373" stroke="none" transform="matrix(1 0 0 1 247 1465 )" />
  </g>
</svg>