<?xml version="1.0" encoding="utf-8"?>
<svg version="1.1" xmlns:xlink="http://www.w3.org/1999/xlink" width="14px" height="19px" xmlns="http://www.w3.org/2000/svg">
  <g transform="matrix(1 0 0 1 -180 -11 )">
    <path d="M 9.05968930802453 6.48010801365454  C 9.05968930802453 6.57101433800699  9.12827009942809 6.64727534088435  9.21866666666665 6.65688889583333  L 12.2266666666667 6.97297777083332  C 13.2221108563669 7.07755899781785  13.9778963723601 7.91690680707347  13.9778963723601 8.91782956525494  C 13.9778963723601 9.34906912012802  13.8353519307357 9.76821523499143  13.5724444375 10.1100444375  L 7.23502222916666 18.3504  C 6.93215991481619 18.7443087255269  6.46347910238304 18.9751549296065  5.96659917171576 18.9751549296065  C 5.08294357198649 18.9751549296065  4.36659917171573 18.2588105293358  4.36659917171573 17.3751549296065  C 4.36659917171573 17.3151462166945  4.36997514987926 17.2551850228798  4.37671110416666 17.1955555625  L 4.93493333333333 12.2519111041667  C 4.93567044919022 12.2453354050425  4.9360398693827 12.2387236808638  4.9360398693827 12.2321067964944  C 4.9360398693827 12.1410653389708  4.86726100428636 12.0647367832345  4.77671110416668 12.0552888958333  L 1.8035555625 11.7427555625  C 0.808123337793821 11.6381613990256  0.0523532849866039 10.7988188603189  0.0523532849866039 9.79790664987468  C 0.0523532849866039 9.35894735243751  0.200039373020483 8.93275302991759  0.471644437500004 8.58791110416666  L 6.74151110416665 0.629155562500008  C 7.04488742489506 0.243861141773247  7.50820069286957 0.0189706517317063  7.99859745328085 0.0189706517317063  C 8.88225305301012 0.0189706517317063  9.59859745328083 0.735315052002439  9.59859745328083 1.61897065173171  C 9.59859745328083 1.67910133792534  9.59520773720874 1.73918421451837  9.58844443750002 1.79893333333333  L 9.06080000000001 6.46026666666667  C 9.06006011785523 6.46685456703953  9.05968930802453 6.47347869567221  9.05968930802453 6.48010801365454  Z " fill-rule="nonzero" fill="#dfdfdf" stroke="none" transform="matrix(1 0 0 1 180 11 )" />
  </g>
</svg>