<?xml version="1.0" encoding="utf-8"?>
<svg version="1.1" xmlns:xlink="http://www.w3.org/1999/xlink" width="20px" height="19px" xmlns="http://www.w3.org/2000/svg">
  <g transform="matrix(1 0 0 1 -458 -160 )">
    <path d="M 4.37582627118644 7.30685129310345  C 4.37582627118644 7.52832004310345  4.46510593220339 7.73660344827586  4.62716101694915 7.89321012931034  L 8.91150423728814 12.0342273706897  C 9.20224576271186 12.3142112068966  9.5889406779661 12.4682995689655  9.99983050847458 12.4682995689655  C 10.4116737288136 12.4682995689655  10.7983050847458 12.3138426724138  11.088686440678 12.033224137931  L 15.3729237288136 7.8933125  C 15.7075423728814 7.56984159482759  15.7075423728814 7.04386099137931  15.3729237288136 6.72049245689655  C 15.2108686440678 6.56384482758621  14.9953601694915 6.47764870689655  14.7661652542373 6.47764870689655  C 14.536970338983 6.47764870689655  14.3214830508475 6.56386530172414  14.159406779661 6.72049245689655  L 10.8581144067797 9.91042456896552  L 10.8581144067797 0.946130387931035  C 10.8581144067797 0.488717672413793  10.4731991525424 0.116825431034483  9.99995762711865 0.116825431034483  C 9.52671610169492 0.116825431034483  9.14190677966102 0.48886099137931  9.14190677966102 0.946130387931035  L 9.14190677966102 9.91112068965517  L 5.84067796610169 6.72049245689655  C 5.67862288135593 6.56384482758621  5.46309322033898 6.47764870689655  5.23391949152542 6.47764870689655  C 5.00472457627119 6.47764870689655  4.78925847457627 6.56388577586207  4.62716101694915 6.72049245689655  C 4.46506355932203 6.87709913793103  4.37582627118644 7.08538254310345  4.37582627118644 7.30685129310345  Z M 19.9364406779661 5.77147521551724  C 19.9364406779661 3.86289655172414  18.3298093220339 2.31021982758621  16.3548093220339 2.31021982758621  C 15.8815677966102 2.31021982758621  15.4967584745763 2.68209159482759  15.4967584745763 3.1394224137931  C 15.4967584745763 3.59675323275862  15.8816949152542 3.968625  16.3548093220339 3.968625  C 17.3834322033898 3.968625  18.2202966101695 4.77737392241379  18.2202966101695 5.77141379310345  L 18.2202966101695 15.4218577586207  C 18.2202966101695 16.4159181034483  17.3834110169492 17.2246465517241  16.3548093220339 17  L 3.6451906779661 17  C 2.61654661016949 17.2246465517241  1.77970338983051 16.4158976293103  1.77970338983051 15.4218577586207  L 1.77970338983051 5.77141379310345  C 1.77970338983051 4.77735344827586  2.61648305084746 3.968625  3.6451906779661 3.968625  C 4.11843220338983 3.968625  4.50324152542373 3.59675323275862  4.50324152542373 3.1394224137931  C 4.50324152542373 2.68209159482759  4.11830508474576 2.31021982758621  3.6451906779661 2.31021982758621  C 1.67025423728814 2.31021982758621  0.0635593220338983 3.86285560344828  0.0635593220338983 5.77147521551724  L 0.0635593220338983 15.4219191810345  C 0.0635593220338983 17.3304773706897  1.6701906779661 18.8831745689655  3.6451906779661 18.8831745689655  L 16.3548093220339 18.8831745689655  C 18.3297457627119 18.8831745689655  19.9364406779661 17.3305387931035  19.9364406779661 15.4219191810345  L 19.9364406779661 5.77147521551724  Z " fill-rule="nonzero" fill="#757575" stroke="none" transform="matrix(1 0 0 1 458 160 )" />
  </g>
</svg>