<?xml version="1.0" encoding="utf-8"?>
<svg version="1.1" xmlns:xlink="http://www.w3.org/1999/xlink" width="128px" height="88px" xmlns="http://www.w3.org/2000/svg">
  <g transform="matrix(1 0 0 1 -1102 -1441 )">
    <path d="M 6.40339618850606 0.951732115907948  C 6.32145434946234 0.951732115907948  6.23953064607584 0.954169934949453  6.15773379604262 0.959042337899547  C 3.74436560569628 0.959042337899547  1.78794413394216 2.91546380965367  1.78794413394216 5.328832  C 1.78794413394216 7.74220019034634  3.74436560569628 9.69862166210046  6.15773379604262 9.69862166210046  C 8.57110198638896 9.69862166210046  10.5275234581431 7.74220019034634  10.5275234581431 5.328832  C 10.5323958610932 5.2470351499668  10.5348336801347 5.16511144658026  10.5348336801347 5.08316960753656  C 10.5348336801347 2.80143968603089  8.68512611001173 0.951732115907948  6.40339618850606 0.951732115907948  Z M 32.694274630137 6.04388851141553  L 32.694274630137 6.12333920243532  C 34.3616926662525 6.12333920243532  35.7134020578387 4.77162981084915  35.7134020578387 3.10421177473364  C 35.7134020578387 1.45873346802472  34.379478331062 0.1248097412481  32.7340000243531 0.1248097412481  C 31.0885217176442 0.1248097412481  29.7545979908676 1.45873346802472  29.7545979908676 3.10421177473364  C 29.7545979908676 4.72775044944845  31.0707360528347 6.04388851141553  32.694274630137 6.04388851141553  Z M 1.56106031532103 35.190834771437  C 1.50407752060305 35.190834771437  1.44715920321304 35.1946661967873  1.39069048401826 35.2023031232877  C 0.622800600380845 35.2023031232877  0.000302855403347595 35.8248008682652  0.000302855403347595 36.5926907519026  C 0.000302855403347595 37.36058063554  0.622800600380845 37.9830783805175  1.39069048401826 37.9830783805175  C 1.41714607366601 37.9846373323153  1.44364181549618 37.9854173147233  1.47014329761167 37.9854173147233  C 2.2160934518425 37.9854173147233  2.82080553201045 37.3807052345554  2.82080553201045 36.6347550803246  C 2.82080553201045 36.6339754351509  2.82080485695648 36.6331957901234  2.82080350684931 36.6324161461187  C 2.82844043334973 36.5759474269239  2.83227185870002 36.519029109534  2.83227185870002 36.462046314816  C 2.83227185870002 35.7599755655989  2.26313106453811 35.190834771437  1.56106031532103 35.190834771437  Z M 7.98510037138508 59.1964209680365  C 7.23915021715425 59.1964209680365  6.6344381369863 59.8011330482045  6.6344381369863 60.5470832024353  C 6.6344381369863 61.2930333566661  7.23915021715425 61.8977454368341  7.98510037138508 61.8977454368341  C 8.73105052561592 61.8977454368341  9.33576260578387 61.2930333566661  9.33576260578387 60.5470832024353  C 9.33576260578387 59.8011330482045  8.73105052561592 59.1964209680365  7.98510037138508 59.1964209680365  Z M 111.50939012481 82.8727359512938  C 111.466930850297 80.3894087547362  109.464026276314 78.3865041376709  106.98069908067 78.3440448097412  C 104.479571929084 78.3440448097412  102.452007841705 80.3716088971205  102.452007841705 82.8727359512938  C 102.452007841705 85.373863005467  104.479571929084 87.4014270928463  106.980698983257 87.4014270928463  C 109.48182603743 87.4014270928463  111.50939012481 85.373863005467  111.50939012481 82.8727359512938  Z M 125.333815622527 60.2292803409437  C 124.368468335628 60.2292803409437  123.585899738204 61.0118489383679  123.585899738204 61.9771962252664  C 123.585899738204 62.9425435121648  124.368468335628 63.725112109589  125.333815622527 63.725112109589  C 126.299162909425 63.725112109589  127.081731506849 62.9425435121648  127.081731506849 61.9771962252664  C 127.081731506849 61.0118489383679  126.299162909425 60.2292803409437  125.333815622527 60.2292803409437  Z M 95.2983781231439 18.6001673556517  C 95.325911772417 18.6001673556517  95.3534359285119 18.5991450214436  95.3808937108067 18.5971024657534  C 96.0222478299324 18.5581270841214  96.5336791815339 18.0466957325199  96.5726545631659 17.4053416133942  C 96.5724664249153 16.7472833528797  96.0389520469218 16.2139214843512  95.3808937595129 16.2139214843512  C 94.7228354721041 16.2139214843512  94.1893210941106 16.7472833528797  94.18913295586 17.4053416133942  C 94.1870903956765 17.4327994257551  94.186068059217 17.4603236121351  94.186068059217 17.4878572917248  C 94.186068059217 18.1021691771149  94.6840662377538 18.6001673556517  95.2983781231439 18.6001673556517  Z M 117.70759212791 17.4042958477374  C 117.680756579277 17.4042958477374  117.653922162907 17.4046444657042  117.627095671233 17.4053416133942  C 115.87191882509 17.4053416133942  114.449066861492 18.8281935769925  114.449066861492 20.5833704231355  C 114.449066861492 22.3385472692785  115.87191882509 23.7613992328767  117.627095671233 23.7613992328767  C 119.382272517376 23.7613992328767  120.805124480974 22.3385472692785  120.805124480974 20.5833704231355  C 120.805821628664 20.5565439314611  120.806170246631 20.5297095150923  120.806170246631 20.5028739664588  C 120.806170246631 18.7915765253296  119.418889569039 17.4042958477374  117.70759212791 17.4042958477374  Z " fill-rule="nonzero" fill="#dddddd" stroke="none" transform="matrix(1 0 0 1 1102 1441 )" />
  </g>
</svg>