<?xml version="1.0" encoding="utf-8"?>
<svg version="1.1" xmlns:xlink="http://www.w3.org/1999/xlink" width="44px" height="31px" xmlns="http://www.w3.org/2000/svg">
  <g transform="matrix(1 0 0 1 -1135 -1473 )">
    <path d="M 16.2994753850837 22.1910255829528  L 16.378926173516 22.1910255829528  C 16.4433408840325 22.1795464760425  16.5086428304596 22.1737733438773  16.5740723713901 22.1737733438773  C 17.1883842567803 22.1737733438773  17.6863824353171 22.6717715224141  17.6863824353171 23.2860834078043  C 17.6863824353171 23.4574495078917  17.6467874830433 23.626498313182  17.5706869284627 23.7800399878234  C 17.9671264025308 27.6287876736176  21.2096687060988 30.5544888463353  25.0787801035008 30.5544888463353  C 28.9478915009027 30.5544888463353  32.1904338044707 27.6287876736176  32.5868732785388 23.7800399878234  C 32.5107727178368 23.6264983082041  32.4711777622469 23.4574494960289  32.4711777622469 23.2860833887629  C 32.4711777622469 22.6717715033728  32.9691759407836 22.173773324836  33.5834878261738 22.173773324836  C 33.6489174033526 22.173773324836  33.7142193858156 22.1795464633978  33.778634130898 22.1910255829528  L 43.3127206575342 22.1910255829528  L 37.1155644200913 10.1145158721461  L 12.565291543379 10.1145158721461  L 6.76538885844749 22.1910255829528  L 16.2994753850837 22.1910255829528  Z M 4.85857159208523 22.1910255829528  L 11.3735306910198 8.36660008523592  L 11.3735306910198 1.45438733637747  L 0.88603548249619 22.1910255829528  L 4.85857159208523 22.1910255829528  Z M 36.5594092907154 9  L 36.1621557382039 0  L 12.8036437138508 0  L 12.8036437138508 9  L 36.5594092907154 9  Z " fill-rule="nonzero" fill="#dddddd" stroke="none" transform="matrix(1 0 0 1 1135 1473 )" />
  </g>
</svg>