<?xml version="1.0" encoding="utf-8"?>
<svg version="1.1" xmlns:xlink="http://www.w3.org/1999/xlink" width="96px" height="96px" xmlns="http://www.w3.org/2000/svg">
  <g transform="matrix(1 0 0 1 -1112 -1445 )">
    <path d="M 48.0390548066971 0.53432479756469  C 21.7114017917556 0.53432479756469  0.368622076103509 21.8771045132167  0.368622076103509 48.2047575281583  C 0.368622076103509 74.5324105430999  21.7114017917556 95.8751902587519  48.0390548066971 95.8751902587519  C 74.3667078216387 95.8751902587519  95.7094875372907 74.5324105430999  95.7094875372907 48.2047575281583  C 95.7094875372907 21.8771045132167  74.3667078216387 0.53432479756469  48.0390548066971 0.53432479756469  Z M 75.3701028432268 50.9855327853881  C 75.4867665826219 51.2577218625169  75.4235790954227 51.5736592210405  75 51.7800399878234  L 75 69.0208464657534  C 75.2132439239582 69.0483042781142  75.2142662604177 69.0758284644944  75.2142662604177 69.103362144084  C 75.2142662604177 69.7176740294742  74.7162680818809 70.2156722080109  74.1019561964908 70.2156722080109  C 74.0744225472178 70.2156722080109  74.0468983911227 70.2146498738028  74.019440608828 70  L 21.8203167366819 70  C 21.7928589219048 70.2146498786573  21.7653347330906 70.2156722152977  21.7378010510646 70.2156722152977  C 21.1234891656744 70.2156722152977  20.6254909871376 69.7176740367609  20.6254909871376 69.1033621513707  C 20.6254909871376 69.0758284693447  20.6265133237781 69.0483042805306  21 69.0208464657534  L 21 51.7800399878234  C 20.5535080087084 51.602250229361  20.5535080087084 51.4016747143224  20.6285558843227 51.22388495586  L 33.1817698386606 26.2763584292237  C 33.3329700137186 25.7569575716118  33.8359298343191 25.4216510382485  34.3735306910198 26  L 61.5456773455099 26  C 62.0832782022106 25.4216510382485  62.5862380228111 25.7569575716118  62.7374381978691 26.2763584292237  L 75.3701028432268 50.9855327853881  Z " fill-rule="nonzero" fill="#dddddd" stroke="none" transform="matrix(1 0 0 1 1112 1445 )" />
  </g>
</svg>