<?xml version="1.0" encoding="utf-8"?>
<svg version="1.1" xmlns:xlink="http://www.w3.org/1999/xlink" width="159px" height="159px" xmlns="http://www.w3.org/2000/svg">
  <g transform="matrix(1 0 0 1 -1083 -2171 )">
    <path d="M 1162.5 2174  C 1205.34 2174  1239 2207.66  1239 2250.5  C 1239 2293.34  1205.34 2327  1162.5 2327  C 1119.66 2327  1086 2293.34  1086 2250.5  C 1086 2207.66  1119.66 2174  1162.5 2174  Z " fill-rule="nonzero" fill="#e3e3e3" stroke="none" />
    <path d="M 1162.5 2173  C 1205.9 2173  1240 2207.1  1240 2250.5  C 1240 2293.9  1205.9 2328  1162.5 2328  C 1119.1 2328  1085 2293.9  1085 2250.5  C 1085 2207.1  1119.1 2173  1162.5 2173  Z " stroke-width="4" stroke="#eee9e9" fill="none" />
  </g>
</svg>