<?xml version="1.0" encoding="utf-8"?>
<svg version="1.1" xmlns:xlink="http://www.w3.org/1999/xlink" width="26px" height="26px" xmlns="http://www.w3.org/2000/svg">
  <g transform="matrix(1 0 0 1 -1092 -2407 )">
    <path d="M 26 13  C 26 4.33526785714286  21.6676339285714 0  13 0  C 4.33236607142857 0  0 4.33526785714286  0 13  C 0 21.6676339285714  4.33236607142857 26  13 26  C 21.6676339285714 26  26 21.6676339285714  26 13  Z M 20.8319196428571 8.52834821428571  C 21.3600446428571 9.059375  21.2845982142857 9.69196428571429  20.7535714285714 10.2229910714286  L 12.9767857142857 18.5279017857143  C 12.4660714285714 19.0386160714286  11.5084821428571 18.9863839285714  10.9629464285714 18.5075892857143  C 10.8004464285714 18.4408482142857  10.6466517857143 18.3421875  10.5160714285714 18.2116071428571  L 5.86741071428571 13.2553571428571  C 5.33638392857143 12.7243303571429  5.18549107142857 12.0162946428571  5.71651785714286 11.4852678571429  C 6.24754464285714 10.9542410714286  6.95558035714286 11.1051339285714  7.48660714285714 11.6361607142857  L 11.8886160714286 14.7410714285714  L 19.2127232142857 8.83013392857143  C 19.74375 8.29910714285714  20.3008928571429 7.99732142857143  20.8319196428571 8.52834821428571  Z " fill-rule="nonzero" fill="#6c6c6c" stroke="none" transform="matrix(1 0 0 1 1092 2407 )" />
  </g>
</svg>