<?xml version="1.0" encoding="utf-8"?>
<svg version="1.1" xmlns:xlink="http://www.w3.org/1999/xlink" width="24px" height="24px" xmlns="http://www.w3.org/2000/svg">
  <g transform="matrix(1 0 0 1 -504 -149 )">
    <path d="M 516 149  C 522.72 149  528 154.28  528 161  C 528 167.72  522.72 173  516 173  C 509.28 173  504 167.72  504 161  C 504 154.28  509.28 149  516 149  Z " fill-rule="nonzero" fill="#ffbf60" stroke="none" />
    <path d="M 516 149.5  C 522.44 149.5  527.5 154.56  527.5 161  C 527.5 167.44  522.44 172.5  516 172.5  C 509.56 172.5  504.5 167.44  504.5 161  C 504.5 154.56  509.56 149.5  516 149.5  Z " stroke-width="1" stroke="#ffffff" fill="none" />
  </g>
</svg>