<?xml version="1.0" encoding="utf-8"?>
<svg version="1.1" xmlns:xlink="http://www.w3.org/1999/xlink" width="20px" height="20px" xmlns="http://www.w3.org/2000/svg">
  <g transform="matrix(1 0 0 1 -809 -657 )">
    <path d="M 20 10  C 20 15.5228571428571  15.5228571428571 20  10 20  C 4.47714285714286 20  0 15.5228571428571  0 10  C 0 4.47714285714286  4.47714285714286 0  10 0  C 15.5228571428571 0  20 4.47714285714286  20 10  Z M 1.33928571428571 10  C 1.33928571428571 14.7831696428571  5.21683035714286 18.6607142857143  10 18.6607142857143  C 14.7831696428571 18.6607142857143  18.6607142857143 14.7831696428571  18.6607142857143 10  C 18.6607142857143 5.21683035714286  14.7831696428571 1.33928571428571  10 1.33928571428571  C 5.21683035714286 1.33928571428571  1.33928571428571 5.21683035714286  1.33928571428571 10  Z M 13.5664508928571 5.49129464285714  C 13.8276116071429 5.22941964285714  14.2516071428571 5.22883928571429  14.5134598214286 5.49  C 14.7753348214286 5.75116071428571  14.7759151785714 6.17513392857143  14.5147767857143 6.43700892857143  L 6.43352678571429 14.5403571428571  C 6.17238839285714 14.8022321428571  5.74839285714286 14.8028125  5.48654017857143 14.5416741071429  C 5.22466517857143 14.2805133928571  5.22408482142857 13.8565178571429  5.48522321428571 13.5946428571429  L 13.5664732142857 5.49129464285714  Z M 6.43354910714286 5.49129464285714  C 6.17238839285714 5.22941964285714  5.74839285714286 5.22883928571429  5.48654017857143 5.49  C 5.22466517857143 5.75116071428571  5.22408482142857 6.17513392857143  5.48522321428571 6.43700892857143  L 13.5664732142857 14.5403571428571  C 13.8276116071429 14.8022321428571  14.2516071428571 14.8028125  14.5134598214286 14.5416741071429  C 14.7753348214286 14.2805133928571  14.7759151785714 13.8565178571429  14.5147767857143 13.5946428571429  L 6.43352678571428 5.49129464285714  Z " fill-rule="nonzero" fill="#555555" stroke="none" transform="matrix(1 0 0 1 809 657 )" />
  </g>
</svg>