<?xml version="1.0" encoding="utf-8"?>
<svg version="1.1" xmlns:xlink="http://www.w3.org/1999/xlink" width="40px" height="30px" xmlns="http://www.w3.org/2000/svg">
  <defs>
    <mask fill="white" id="clip101">
      <path d="M 14 30  C 24 30  30 21  40 15  C 30 9  24 0  14 0  C 8.79999999999995 0  0 3  0 15  C 0 27  8.79999999999995 30  14 30  Z " fill-rule="evenodd" />
    </mask>
  </defs>
  <g transform="matrix(1 0 0 1 -90 -243 )">
    <path d="M 14 30  C 24 30  30 21  40 15  C 30 9  24 0  14 0  C 8.79999999999995 0  0 3  0 15  C 0 27  8.79999999999995 30  14 30  Z " fill-rule="nonzero" fill="#ffbf60" stroke="none" transform="matrix(1 0 0 1 90 243 )" />
    <path d="M 14 30  C 24 30  30 21  40 15  C 30 9  24 0  14 0  C 8.79999999999995 0  0 3  0 15  C 0 27  8.79999999999995 30  14 30  Z " stroke-width="2" stroke="#ffffff" fill="none" transform="matrix(1 0 0 1 90 243 )" mask="url(#clip101)" />
  </g>
</svg>