<?xml version="1.0" encoding="utf-8"?>
<svg version="1.1" xmlns:xlink="http://www.w3.org/1999/xlink" width="12px" height="12px" viewBox="900 4934  12 12" xmlns="http://www.w3.org/2000/svg">
  <path d="M 906 4934  C 909.36 4934  912 4936.64  912 4940  C 912 4943.36  909.36 4946  906 4946  C 902.64 4946  900 4943.36  900 4940  C 900 4936.64  902.64 4934  906 4934  Z " fill-rule="nonzero" fill="#ffffff" stroke="none" />
  <path d="M 906 4934.5  C 909.08 4934.5  911.5 4936.92  911.5 4940  C 911.5 4943.08  909.08 4945.5  906 4945.5  C 902.92 4945.5  900.5 4943.08  900.5 4940  C 900.5 4936.92  902.92 4934.5  906 4934.5  Z " stroke-width="1" stroke="#797979" fill="none" />
  <path d="M 906 4943  C 904.32 4943  903 4941.68  903 4940  C 903 4938.32  904.32 4937  906 4937  C 907.68 4937  909 4938.32  909 4940  C 909 4941.68  907.68 4943  906 4943  " fill-rule="nonzero" fill="#797979" stroke="none" />
</svg>