<?xml version="1.0" encoding="utf-8"?>
<svg version="1.1" xmlns:xlink="http://www.w3.org/1999/xlink" width="12px" height="12px" viewBox="959 4934  12 12" xmlns="http://www.w3.org/2000/svg">
  <path d="M 965 4934  C 968.36 4934  971 4936.64  971 4940  C 971 4943.36  968.36 4946  965 4946  C 961.64 4946  959 4943.36  959 4940  C 959 4936.64  961.64 4934  965 4934  Z " fill-rule="nonzero" fill="#ffffff" stroke="none" />
  <path d="M 965 4934.5  C 968.08 4934.5  970.5 4936.92  970.5 4940  C 970.5 4943.08  968.08 4945.5  965 4945.5  C 961.92 4945.5  959.5 4943.08  959.5 4940  C 959.5 4936.92  961.92 4934.5  965 4934.5  Z " stroke-width="1" stroke="#797979" fill="none" />
  <path d="M 965 4943  C 963.32 4943  962 4941.68  962 4940  C 962 4938.32  963.32 4937  965 4937  C 966.68 4937  968 4938.32  968 4940  C 968 4941.68  966.68 4943  965 4943  " fill-rule="nonzero" fill="#797979" stroke="none" />
</svg>