<?xml version="1.0" encoding="utf-8"?>
<svg version="1.1" xmlns:xlink="http://www.w3.org/1999/xlink" width="14px" height="10px" xmlns="http://www.w3.org/2000/svg">
  <g transform="matrix(1 0 0 1 -1778 -1674 )">
    <path d="M 13.6700336700337 7.47474747474747  C 13.8900112233446 7.63187429854096  14 7.82267115600449  14 8.04713804713805  C 14 8.27160493827161  13.8900112233446 8.46240179573513  13.6700336700337 8.61952861952862  L 12.0673400673401 9.76430976430976  C 11.8473625140292 9.92143658810325  11.5802469135802 10  11.2659932659933 10  C 10.9517396184063 10  10.6846240179574 9.92143658810325  10.4646464646465 9.76430976430976  L 7 7.28956228956229  L 3.53535353535354 9.76430976430976  C 3.31537598204265 9.92143658810325  3.04826038159371 10  2.73400673400673 10  C 2.41975308641975 10  2.15263748597082 9.92143658810325  1.93265993265993 9.76430976430976  L 0.32996632996633 8.61952861952862  C 0.109988776655443 8.46240179573513  0 8.27160493827161  0 8.04713804713805  C 0 7.82267115600449  0.109988776655443 7.63187429854096  0.32996632996633 7.47474747474747  L 3.79461279461279 5  L 0.32996632996633 2.52525252525253  C 0.109988776655443 2.36812570145903  0 2.17732884399551  0 1.95286195286195  C 0 1.72839506172839  0.109988776655443 1.53759820426487  0.32996632996633 1.38047138047138  L 1.93265993265993 0.235690235690236  C 2.15263748597082 0.0785634118967449  2.41975308641975 0  2.73400673400673 0  C 3.04826038159371 0  3.31537598204265 0.0785634118967449  3.53535353535354 0.235690235690236  L 7 2.71043771043771  L 10.4646464646465 0.235690235690236  C 10.6846240179574 0.0785634118967449  10.9517396184063 0  11.2659932659933 0  C 11.5802469135802 0  11.8473625140292 0.0785634118967449  12.0673400673401 0.235690235690236  L 13.6700336700337 1.38047138047138  C 13.8900112233446 1.53759820426487  14 1.72839506172839  14 1.95286195286195  C 14 2.17732884399551  13.8900112233446 2.36812570145903  13.6700336700337 2.52525252525253  L 10.2053872053872 5  L 13.6700336700337 7.47474747474747  Z " fill-rule="nonzero" fill="#8c8c8c" stroke="none" transform="matrix(1 0 0 1 1778 1674 )" />
  </g>
</svg>