<?xml version="1.0" encoding="utf-8"?>
<svg version="1.1" xmlns:xlink="http://www.w3.org/1999/xlink" width="12px" height="12px" viewBox="244 298  12 12" xmlns="http://www.w3.org/2000/svg">
  <path d="M 244.5 300  A 1.5 1.5 0 0 1 246 298.5 L 254 298.5  A 1.5 1.5 0 0 1 255.5 300 L 255.5 308  A 1.5 1.5 0 0 1 254 309.5 L 246 309.5  A 1.5 1.5 0 0 1 244.5 308 L 244.5 300  Z " fill-rule="nonzero" fill="#ffffff" stroke="none" />
  <path d="M 244.5 300  A 1.5 1.5 0 0 1 246 298.5 L 254 298.5  A 1.5 1.5 0 0 1 255.5 300 L 255.5 308  A 1.5 1.5 0 0 1 254 309.5 L 246 309.5  A 1.5 1.5 0 0 1 244.5 308 L 244.5 300  Z " stroke-width="1" stroke="#d9d9d9" fill="none" />
</svg>