<?xml version="1.0" encoding="utf-8"?>
<svg version="1.1" xmlns:xlink="http://www.w3.org/1999/xlink" width="19px" height="17px" xmlns="http://www.w3.org/2000/svg">
  <g transform="matrix(1 0 0 1 -470 -675 )">
    <path d="M 4.41586206896552 5.51333333333333  C 4.46827586206897 6.36666666666667  5.09724137931035 7.00666666666667  5.88344827586207 7.00666666666667  C 6.66965517241379 7.00666666666667  7.35103448275862 6.36666666666667  7.35103448275862 5.51333333333333  C 7.35103448275862 4.71333333333333  6.72206896551724 4.02  5.88344827586207 4.02  C 5.09724137931035 4.02  4.41586206896552 4.66  4.41586206896552 5.51333333333333  Z M 16.6806896551724 14.3666666666667  L 12.3827586206897 6.1  L 8.13724137931034 12.2333333333333  L 5.93586206896552 9.08666666666667  L 2.26689655172414 14.3666666666667  L 16.6806896551724 14.3666666666667  Z M 18.8820689655172 0.82  C 18.8820689655172 0.393333333333334  18.5675862068966 0.0733333333333336  18.148275862069 0  L 0.851724137931034 0  C 0.432413793103448 0.0733333333333333  0.117931034482758 0.393333333333333  0.117931034482758 0.82  L 0.117931034482758 16.2333333333333  C 0.117931034482758 16.66  0.432413793103448 16.98  0.851724137931034 17  L 18.148275862069 17  C 18.5675862068966 16.98  18.8820689655172 16.66  18.8820689655172 16.2333333333333  L 18.8820689655172 0.82  Z M 17.4668965517241 15.4866666666667  L 17.4144827586207 15.4866666666667  L 1.58551724137931 15.4866666666667  L 1.58551724137931 1.51333333333333  L 17.4668965517241 1.51333333333333  L 17.4668965517241 15.4866666666667  Z " fill-rule="nonzero" fill="#579afb" stroke="none" transform="matrix(1 0 0 1 470 675 )" />
  </g>
</svg>