<?xml version="1.0" encoding="utf-8"?>
<svg version="1.1" xmlns:xlink="http://www.w3.org/1999/xlink" width="17px" height="17px" xmlns="http://www.w3.org/2000/svg">
  <g transform="matrix(1 0 0 1 -1024 -191 )">
    <path d="M 16.7377142857143 16.728  C 17.0388571428571 16.4268571428571  17.0388571428571 15.9411428571429  16.7377142857143 15.6302857142857  L 13.3474285714286 12.24  C 15.7274285714286 9.30628571428571  15.5525714285714 4.97371428571429  12.8228571428571 2.244  C 9.90857142857143 -0.670285714285713  5.15828571428571 -0.670285714285713  2.244 2.244  C -0.670285714285713 5.15828571428572  -0.670285714285713 9.90857142857143  2.244 12.8228571428571  C 3.70114285714286 14.28  5.61485714285714 15.0085714285714  7.52857142857143 15.0085714285714  C 9.19942857142857 15.0085714285714  10.8702857142857 14.4548571428571  12.24 13.3377142857143  L 15.6302857142857 16.728  C 15.7857142857143 16.8834285714286  15.98 16.9514285714286  16.184 16.9514285714286  C 16.3782857142857 16.9514285714286  16.5822857142857 16.8737142857143  16.7377142857143 16.728  Z M 11.7154285714286 11.7154285714286  C 9.41314285714286 14.0274285714286  5.65371428571429 14.0274285714286  3.34171428571429 11.7154285714286  C 1.02971428571429 9.40342857142857  1.02971428571429 5.644  3.34171428571429 3.332  C 4.49771428571429 2.18571428571429  6.01314285714286 1.60285714285714  7.52857142857143 1.60285714285714  C 9.044 1.60285714285714  10.5594285714286 2.176  11.7154285714286 3.332  C 14.0274285714286 5.644  14.0274285714286 9.40342857142857  11.7154285714286 11.7154285714286  Z " fill-rule="nonzero" fill="#757575" stroke="none" transform="matrix(1 0 0 1 1024 191 )" />
  </g>
</svg>