<?xml version="1.0" encoding="utf-8"?>
<svg version="1.1" xmlns:xlink="http://www.w3.org/1999/xlink" width="14px" height="14px" xmlns="http://www.w3.org/2000/svg">
  <g transform="matrix(1 0 0 1 -1188 -1022 )">
    <path d="M 14 7  C 14 10.8599919375  10.8599919375 14  7 14  C 3.1400080625 14  0 10.8599919375  0 7  C 0 3.1400080625  3.1400080625 0  7 0  C 10.8599919375 0  14 3.1400080625  14 7  Z M 13 7  C 13 3.691493078125  10.308506921875 1  7 1  C 3.691493078125 1  1 3.691493078125  1 7  C 1 10.308506921875  3.691493078125 13  7 13  C 10.308506921875 13  13 10.308506921875  13 7  Z M 9.8470366875 6.868996109375  C 10.04348878125 6.674989921875  10.045504640625 6.358500203125  9.850987765625 6.161994359375  L 7.374492671875 3.658002953125  C 7.228490796875 3.51001209375  7.0124983125 3.4730009375  6.830990453125 3.5465125625  C 6.819486625 3.551001203125  6.810482453125 3.562021234375  6.7994893125 3.567504359375  C 6.7529901875 3.590512015625  6.7064910625 3.61550865625  6.667490921875 3.653998109375  C 6.666980234375 3.654508796875  6.666980234375 3.65499259375  6.6664964375 3.65550328125  C 6.66598575 3.65601396875  6.665501953125 3.65601396875  6.664991265625 3.656497765625  L 4.175003359375 6.139497359375  C 3.979492 6.33449803125  3.979008203125 6.65098775  4.174008875 6.846499109375  C 4.271495765625 6.9444966875  4.4 6.993495484375  4.5280204375 6.993495484375  C 4.6555301875 6.993495484375  4.783523734375 6.945007375  4.881010625 6.847493609375  L 6.500013453125 5.233490109375  L 6.500013453125 9.999999984375  C 6.500013453125 10.276495078125  6.724015609375 10.499986546875  7.000026890625 10.499986546875  C 7.276038171875 10.499986546875  7.500040328125 10.276495078125  7.500040328125 9.999999984375  L 7.5000403125 5.2069883125  L 9.1400349375 6.864991265625  C 9.237521828125 6.96398334375  9.36653675 7.0134928125  9.495524796875 7.0134928125  C 9.622523859375 7.0134928125  9.749522921875 6.965488515625  9.8470366875 6.868996109375  Z " fill-rule="nonzero" fill="#000000" stroke="none" transform="matrix(1 0 0 1 1188 1022 )" />
  </g>
</svg>