<?xml version="1.0" encoding="utf-8"?>
<svg version="1.1" xmlns:xlink="http://www.w3.org/1999/xlink" width="22px" height="12px" preserveAspectRatio="xMinYMid meet" viewBox="1246 932  22 10" xmlns="http://www.w3.org/2000/svg">
  <path d="M 1194 1591.5  L 1247 1591.5  A 5 5 0 0 0 1252.5 1586.5 L 1252.5 942  A 5 5 0 0 1 1257.5 937.5 L 1265 937.5  " stroke-width="3" stroke="#d7af1f" fill="none" />
  <path d="M 1195 1587.5  A 4 4 0 0 0 1191 1591.5 A 4 4 0 0 0 1195 1595.5 A 4 4 0 0 0 1199 1591.5 A 4 4 0 0 0 1195 1587.5 Z M 1264 933.5  A 4 4 0 0 0 1260 937.5 A 4 4 0 0 0 1264 941.5 A 4 4 0 0 0 1268 937.5 A 4 4 0 0 0 1264 933.5 Z " fill-rule="nonzero" fill="#d7af1f" stroke="none" />
</svg>