<?xml version="1.0" encoding="utf-8"?>
<svg version="1.1" xmlns:xlink="http://www.w3.org/1999/xlink" width="19px" height="12px" preserveAspectRatio="xMinYMid meet" viewBox="447 932  19 10" xmlns="http://www.w3.org/2000/svg">
  <path d="M 428 1042.5  L 448 1042.5  A 5 5 0 0 0 453.5 1037.5 L 453.5 942  A 5 5 0 0 1 458.5 937.5 L 463 937.5  " stroke-width="3" stroke="#d7af1f" fill="none" />
  <path d="M 429 1038.5  A 4 4 0 0 0 425 1042.5 A 4 4 0 0 0 429 1046.5 A 4 4 0 0 0 433 1042.5 A 4 4 0 0 0 429 1038.5 Z M 462 933.5  A 4 4 0 0 0 458 937.5 A 4 4 0 0 0 462 941.5 A 4 4 0 0 0 466 937.5 A 4 4 0 0 0 462 933.5 Z " fill-rule="nonzero" fill="#d7af1f" stroke="none" />
</svg>