<?xml version="1.0" encoding="utf-8"?>
<svg version="1.1" xmlns:xlink="http://www.w3.org/1999/xlink" width="14px" height="14px" viewBox="884 1250  14 14" xmlns="http://www.w3.org/2000/svg">
  <path d="M 884.5 1252  A 1.5 1.5 0 0 1 886 1250.5 L 896 1250.5  A 1.5 1.5 0 0 1 897.5 1252 L 897.5 1262  A 1.5 1.5 0 0 1 896 1263.5 L 886 1263.5  A 1.5 1.5 0 0 1 884.5 1262 L 884.5 1252  Z " fill-rule="nonzero" fill="#f0f0f0" stroke="none" />
  <path d="M 884.5 1252  A 1.5 1.5 0 0 1 886 1250.5 L 896 1250.5  A 1.5 1.5 0 0 1 897.5 1252 L 897.5 1262  A 1.5 1.5 0 0 1 896 1263.5 L 886 1263.5  A 1.5 1.5 0 0 1 884.5 1262 L 884.5 1252  Z " stroke-width="1" stroke="#266ab9" fill="none" />
</svg>