<?xml version="1.0" encoding="utf-8"?>
<svg version="1.1" xmlns:xlink="http://www.w3.org/1999/xlink" width="14px" height="14px" viewBox="766 1250  14 14" xmlns="http://www.w3.org/2000/svg">
  <path d="M 766.5 1252  A 1.5 1.5 0 0 1 768 1250.5 L 778 1250.5  A 1.5 1.5 0 0 1 779.5 1252 L 779.5 1262  A 1.5 1.5 0 0 1 778 1263.5 L 768 1263.5  A 1.5 1.5 0 0 1 766.5 1262 L 766.5 1252  Z " fill-rule="nonzero" fill="#ffffff" stroke="none" />
  <path d="M 766.5 1252  A 1.5 1.5 0 0 1 768 1250.5 L 778 1250.5  A 1.5 1.5 0 0 1 779.5 1252 L 779.5 1262  A 1.5 1.5 0 0 1 778 1263.5 L 768 1263.5  A 1.5 1.5 0 0 1 766.5 1262 L 766.5 1252  Z " stroke-width="1" stroke="#266ab9" fill="none" />
  <path d="M 769.5 1257.5  L 772.5 1260.5  " stroke-width="3" stroke="#266ab9" fill="none" />
  <path d="M 772.5 1260.5  L 777.5 1253.5  " stroke-width="3" stroke="#266ab9" fill="none" />
</svg>