<?xml version="1.0" encoding="utf-8"?>
<svg version="1.1" xmlns:xlink="http://www.w3.org/1999/xlink" width="14px" height="14px" viewBox="991 1250  14 14" xmlns="http://www.w3.org/2000/svg">
  <path d="M 991.5 1252  A 1.5 1.5 0 0 1 993 1250.5 L 1003 1250.5  A 1.5 1.5 0 0 1 1004.5 1252 L 1004.5 1262  A 1.5 1.5 0 0 1 1003 1263.5 L 993 1263.5  A 1.5 1.5 0 0 1 991.5 1262 L 991.5 1252  Z " fill-rule="nonzero" fill="#f0f0f0" stroke="none" />
  <path d="M 991.5 1252  A 1.5 1.5 0 0 1 993 1250.5 L 1003 1250.5  A 1.5 1.5 0 0 1 1004.5 1252 L 1004.5 1262  A 1.5 1.5 0 0 1 1003 1263.5 L 993 1263.5  A 1.5 1.5 0 0 1 991.5 1262 L 991.5 1252  Z " stroke-width="1" stroke="#266ab9" fill="none" />
</svg>