<?xml version="1.0" encoding="utf-8"?>
<svg version="1.1" xmlns:xlink="http://www.w3.org/1999/xlink" width="14px" height="14px" viewBox="991 1300  14 14" xmlns="http://www.w3.org/2000/svg">
  <path d="M 991.5 1302  A 1.5 1.5 0 0 1 993 1300.5 L 1003 1300.5  A 1.5 1.5 0 0 1 1004.5 1302 L 1004.5 1312  A 1.5 1.5 0 0 1 1003 1313.5 L 993 1313.5  A 1.5 1.5 0 0 1 991.5 1312 L 991.5 1302  Z " fill-rule="nonzero" fill="#ffffff" stroke="none" />
  <path d="M 991.5 1302  A 1.5 1.5 0 0 1 993 1300.5 L 1003 1300.5  A 1.5 1.5 0 0 1 1004.5 1302 L 1004.5 1312  A 1.5 1.5 0 0 1 1003 1313.5 L 993 1313.5  A 1.5 1.5 0 0 1 991.5 1312 L 991.5 1302  Z " stroke-width="1" stroke="#266ab9" fill="none" />
  <path d="M 994.5 1307.5  L 997.5 1310.5  " stroke-width="3" stroke="#266ab9" fill="none" />
  <path d="M 997.5 1310.5  L 1002.5 1303.5  " stroke-width="3" stroke="#266ab9" fill="none" />
</svg>