<?xml version="1.0" encoding="utf-8"?>
<svg version="1.1" xmlns:xlink="http://www.w3.org/1999/xlink" width="14px" height="14px" viewBox="1215 1354  14 14" xmlns="http://www.w3.org/2000/svg">
  <path d="M 1215.5 1356  A 1.5 1.5 0 0 1 1217 1354.5 L 1227 1354.5  A 1.5 1.5 0 0 1 1228.5 1356 L 1228.5 1366  A 1.5 1.5 0 0 1 1227 1367.5 L 1217 1367.5  A 1.5 1.5 0 0 1 1215.5 1366 L 1215.5 1356  Z " fill-rule="nonzero" fill="#f0f0f0" stroke="none" />
  <path d="M 1215.5 1356  A 1.5 1.5 0 0 1 1217 1354.5 L 1227 1354.5  A 1.5 1.5 0 0 1 1228.5 1356 L 1228.5 1366  A 1.5 1.5 0 0 1 1227 1367.5 L 1217 1367.5  A 1.5 1.5 0 0 1 1215.5 1366 L 1215.5 1356  Z " stroke-width="1" stroke="#266ab9" fill="none" />
</svg>