<?xml version="1.0" encoding="utf-8"?>
<svg version="1.1" xmlns:xlink="http://www.w3.org/1999/xlink" width="14px" height="14px" viewBox="766 1354  14 14" xmlns="http://www.w3.org/2000/svg">
  <path d="M 766.5 1356  A 1.5 1.5 0 0 1 768 1354.5 L 778 1354.5  A 1.5 1.5 0 0 1 779.5 1356 L 779.5 1366  A 1.5 1.5 0 0 1 778 1367.5 L 768 1367.5  A 1.5 1.5 0 0 1 766.5 1366 L 766.5 1356  Z " fill-rule="nonzero" fill="#ffffff" stroke="none" />
  <path d="M 766.5 1356  A 1.5 1.5 0 0 1 768 1354.5 L 778 1354.5  A 1.5 1.5 0 0 1 779.5 1356 L 779.5 1366  A 1.5 1.5 0 0 1 778 1367.5 L 768 1367.5  A 1.5 1.5 0 0 1 766.5 1366 L 766.5 1356  Z " stroke-width="1" stroke="#266ab9" fill="none" />
</svg>