<?xml version="1.0" encoding="utf-8"?>
<svg version="1.1" xmlns:xlink="http://www.w3.org/1999/xlink" width="14px" height="14px" viewBox="766 1403  14 14" xmlns="http://www.w3.org/2000/svg">
  <path d="M 766.5 1405  A 1.5 1.5 0 0 1 768 1403.5 L 778 1403.5  A 1.5 1.5 0 0 1 779.5 1405 L 779.5 1415  A 1.5 1.5 0 0 1 778 1416.5 L 768 1416.5  A 1.5 1.5 0 0 1 766.5 1415 L 766.5 1405  Z " fill-rule="nonzero" fill="#ffffff" stroke="none" />
  <path d="M 766.5 1405  A 1.5 1.5 0 0 1 768 1403.5 L 778 1403.5  A 1.5 1.5 0 0 1 779.5 1405 L 779.5 1415  A 1.5 1.5 0 0 1 778 1416.5 L 768 1416.5  A 1.5 1.5 0 0 1 766.5 1415 L 766.5 1405  Z " stroke-width="1" stroke="#266ab9" fill="none" />
</svg>