<?xml version="1.0" encoding="utf-8"?>
<svg version="1.1" xmlns:xlink="http://www.w3.org/1999/xlink" width="14px" height="14px" viewBox="1100 1403  14 14" xmlns="http://www.w3.org/2000/svg">
  <path d="M 1100.5 1405  A 1.5 1.5 0 0 1 1102 1403.5 L 1112 1403.5  A 1.5 1.5 0 0 1 1113.5 1405 L 1113.5 1415  A 1.5 1.5 0 0 1 1112 1416.5 L 1102 1416.5  A 1.5 1.5 0 0 1 1100.5 1415 L 1100.5 1405  Z " fill-rule="nonzero" fill="#ffffff" stroke="none" />
  <path d="M 1100.5 1405  A 1.5 1.5 0 0 1 1102 1403.5 L 1112 1403.5  A 1.5 1.5 0 0 1 1113.5 1405 L 1113.5 1415  A 1.5 1.5 0 0 1 1112 1416.5 L 1102 1416.5  A 1.5 1.5 0 0 1 1100.5 1415 L 1100.5 1405  Z " stroke-width="1" stroke="#266ab9" fill="none" />
</svg>