<?xml version="1.0" encoding="utf-8"?>
<svg version="1.1" xmlns:xlink="http://www.w3.org/1999/xlink" width="14px" height="14px" viewBox="991 1403  14 14" xmlns="http://www.w3.org/2000/svg">
  <path d="M 991.5 1405  A 1.5 1.5 0 0 1 993 1403.5 L 1003 1403.5  A 1.5 1.5 0 0 1 1004.5 1405 L 1004.5 1415  A 1.5 1.5 0 0 1 1003 1416.5 L 993 1416.5  A 1.5 1.5 0 0 1 991.5 1415 L 991.5 1405  Z " fill-rule="nonzero" fill="#ffffff" stroke="none" />
  <path d="M 991.5 1405  A 1.5 1.5 0 0 1 993 1403.5 L 1003 1403.5  A 1.5 1.5 0 0 1 1004.5 1405 L 1004.5 1415  A 1.5 1.5 0 0 1 1003 1416.5 L 993 1416.5  A 1.5 1.5 0 0 1 991.5 1415 L 991.5 1405  Z " stroke-width="1" stroke="#266ab9" fill="none" />
</svg>