<?xml version="1.0" encoding="utf-8"?>
<svg version="1.1" xmlns:xlink="http://www.w3.org/1999/xlink" width="14px" height="14px" viewBox="991 1448  14 14" xmlns="http://www.w3.org/2000/svg">
  <path d="M 991.5 1450  A 1.5 1.5 0 0 1 993 1448.5 L 1003 1448.5  A 1.5 1.5 0 0 1 1004.5 1450 L 1004.5 1460  A 1.5 1.5 0 0 1 1003 1461.5 L 993 1461.5  A 1.5 1.5 0 0 1 991.5 1460 L 991.5 1450  Z " fill-rule="nonzero" fill="#ffffff" stroke="none" />
  <path d="M 991.5 1450  A 1.5 1.5 0 0 1 993 1448.5 L 1003 1448.5  A 1.5 1.5 0 0 1 1004.5 1450 L 1004.5 1460  A 1.5 1.5 0 0 1 1003 1461.5 L 993 1461.5  A 1.5 1.5 0 0 1 991.5 1460 L 991.5 1450  Z " stroke-width="1" stroke="#266ab9" fill="none" />
  <path d="M 994.5 1455.5  L 997.5 1458.5  " stroke-width="3" stroke="#266ab9" fill="none" />
  <path d="M 997.5 1458.5  L 1002.5 1451.5  " stroke-width="3" stroke="#266ab9" fill="none" />
</svg>