<?xml version="1.0" encoding="utf-8"?>
<svg version="1.1" xmlns:xlink="http://www.w3.org/1999/xlink" width="14px" height="14px" viewBox="766 1448  14 14" xmlns="http://www.w3.org/2000/svg">
  <path d="M 766.5 1450  A 1.5 1.5 0 0 1 768 1448.5 L 778 1448.5  A 1.5 1.5 0 0 1 779.5 1450 L 779.5 1460  A 1.5 1.5 0 0 1 778 1461.5 L 768 1461.5  A 1.5 1.5 0 0 1 766.5 1460 L 766.5 1450  Z " fill-rule="nonzero" fill="#ffffff" stroke="none" />
  <path d="M 766.5 1450  A 1.5 1.5 0 0 1 768 1448.5 L 778 1448.5  A 1.5 1.5 0 0 1 779.5 1450 L 779.5 1460  A 1.5 1.5 0 0 1 778 1461.5 L 768 1461.5  A 1.5 1.5 0 0 1 766.5 1460 L 766.5 1450  Z " stroke-width="1" stroke="#266ab9" fill="none" />
  <path d="M 769.5 1455.5  L 772.5 1458.5  " stroke-width="3" stroke="#266ab9" fill="none" />
  <path d="M 772.5 1458.5  L 777.5 1451.5  " stroke-width="3" stroke="#266ab9" fill="none" />
</svg>