<?xml version="1.0" encoding="utf-8"?>
<svg version="1.1" xmlns:xlink="http://www.w3.org/1999/xlink" width="25px" height="4px" xmlns="http://www.w3.org/2000/svg">
  <g transform="matrix(1 0 0 1 -644 -277 )">
    <path d="M 1.89676615559896 0.988391356770833  L 2.28233829264323 0.988391356770838  C 2.60175672345002 0.988391356770838  2.86069652343751 1.19554319676082  2.8606965234375 1.45107794140625  L 2.86069652343751 2.99336648958334  C 2.86069652343751 3.24890123422878  2.60175672345002 3.45605307421875  2.28233829264323 3.45605307421875  L 1.89676615559896 3.45605307421875  C 1.57734774449636 3.45605305192601  1.31840797526042 3.24890121846542  1.31840797526042 2.99336648958334  L 1.31840797526042 1.45107794140625  C 1.31840797526042 1.19554321252416  1.57734774449636 0.988391379063581  1.89676615559896 0.988391356770833  Z M 4.21019902832031 0.988391356770833  L 4.59577116536459 0.988391356770838  C 4.91518957646719 0.988391379063581  5.17412934570313 1.19554321252417  5.17412934570313 1.45107794140625  L 5.17412934570313 2.99336648958334  C 5.17412934570314 3.24890121846542  4.91518957646719 3.45605305192601  4.59577116536458 3.45605307421875  L 4.21019902832032 3.45605307421875  C 3.89078059751352 3.45605307421875  3.63184079752605 3.24890123422878  3.63184079752604 2.99336648958334  L 3.63184079752605 1.45107794140625  C 3.63184079752605 1.19554319676081  3.89078059751352 0.988391356770838  4.21019902832031 0.988391356770833  Z M 20.9183250341797 0.988391356770833  L 21.303897171224 0.988391356770838  C 21.6233156020308 0.988391356770838  21.8822554020182 1.19554319676082  21.8822554020182 1.45107794140625  L 21.8822554020182 2.99336648958334  C 21.8822554020182 3.24890123422878  21.6233156020308 3.45605307421875  21.303897171224 3.45605307421875  L 20.9183250341797 3.45605307421875  C 20.5989066230771 3.45605305192601  20.3399668538411 3.24890121846542  20.3399668538411 2.99336648958334  L 20.3399668538412 1.45107794140625  C 20.3399668538412 1.19554321252417  20.5989066230771 0.988391379063581  20.9183250341797 0.988391356770833  Z M 23.2317578564453 0.988391356770833  L 23.6173299934896 0.988391356770838  C 23.9367484242964 0.988391356770838  24.1956882242839 1.19554319676082  24.1956882242838 1.45107794140625  L 24.1956882242839 2.99336648958334  C 24.1956882242839 3.24890123422878  23.9367484242964 3.45605307421875  23.6173299934896 3.45605307421875  L 23.2317578564453 3.45605307421875  C 22.9123394453427 3.45605305192601  22.6533996761068 3.24890121846542  22.6533996761068 2.99336648958334  L 22.6533996761068 1.45107794140625  C 22.6533996761068 1.19554321252417  22.9123394453427 0.988391379063581  23.2317578564453 0.988391356770833  Z " fill-rule="nonzero" fill="#f5b196" stroke="none" transform="matrix(1 0 0 1 644 277 )" />
  </g>
</svg>