<?xml version="1.0" encoding="utf-8"?>
<svg version="1.1" xmlns:xlink="http://www.w3.org/1999/xlink" width="41px" height="41px" xmlns="http://www.w3.org/2000/svg">
  <g transform="matrix(1 0 0 1 -483 -173 )">
    <path d="M 503.5 173  C 514.98 173  524 182.02  524 193.5  C 524 204.98  514.98 214  503.5 214  C 492.02 214  483 204.98  483 193.5  C 483 182.02  492.02 173  503.5 173  Z " fill-rule="nonzero" fill="#fd9e9e" stroke="none" />
    <path d="M 503.5 173.5  C 514.7 173.5  523.5 182.3  523.5 193.5  C 523.5 204.7  514.7 213.5  503.5 213.5  C 492.3 213.5  483.5 204.7  483.5 193.5  C 483.5 182.3  492.3 173.5  503.5 173.5  Z " stroke-width="1" stroke="#ffffff" fill="none" />
  </g>
</svg>