<?xml version="1.0" encoding="utf-8"?>
<svg version="1.1" xmlns:xlink="http://www.w3.org/1999/xlink" width="85px" height="85px" xmlns="http://www.w3.org/2000/svg">
  <g transform="matrix(1 0 0 1 -613 -229 )">
    <path d="M 655.5 229  C 679.3 229  698 247.7  698 271.5  C 698 295.3  679.3 314  655.5 314  C 631.7 314  613 295.3  613 271.5  C 613 247.7  631.7 229  655.5 229  Z " fill-rule="nonzero" fill="#fd9e9e" stroke="none" />
    <path d="M 655.5 229.5  C 679.02 229.5  697.5 247.98  697.5 271.5  C 697.5 295.02  679.02 313.5  655.5 313.5  C 631.98 313.5  613.5 295.02  613.5 271.5  C 613.5 247.98  631.98 229.5  655.5 229.5  Z " stroke-width="1" stroke="#ffffff" fill="none" />
  </g>
</svg>