<?xml version="1.0" encoding="utf-8"?>
<svg version="1.1" xmlns:xlink="http://www.w3.org/1999/xlink" width="25px" height="13px" xmlns="http://www.w3.org/2000/svg">
  <g transform="matrix(1 0 0 1 -644 -262 )">
    <path d="M 7.08741113455636 9.65309286474609  L 7.14717484654018 9.70221478662109  L 7.18270256347656 9.73195525520833  C 7.21299751674107 9.75367580078125  7.2419154070173 9.77740137630208  7.26945628836496 9.80346597851562  C 7.59939588797433 10.1135687719727  7.60710734340123 10.6094659785156  7.28653164236886 10.910880593099  C 6.97449359130859 11.204275284668  6.46636464669364 11.2049436061198  6.13532336425782 10.9185663225911  L 6.10860873151507 10.8948408126628  L 6.10585465959822 10.89751409847  C 4.79546021379744 9.77806963216145  2.80370469970704 9.77405970345052  1.55748048095703 10.9051998279622  L 1.51644456612723 10.9429602195638  C 1.19586886509487 11.2443748341471  0.668736689104353 11.2370232325846  0.338521655273438 10.9269203735352  C 0.017395139857701 10.6248374375  0.00169684884207464 10.1466509134115  0.296934980119978 9.84356552799479  L 0.321721735491073 9.81950582454427  C 2.14988451276507 8.10057380192057  5.09951137520926 8.054459359375  7.08741113455636 9.65309286474609  Z M 22.785705393764 9.65309286474609  L 22.8454691057478 9.70221478662109  L 22.8809968226842 9.73195525520833  C 22.9112917759487 9.75367580078125  22.9402096662249 9.77740137630208  22.9677505475725 9.80346597851562  C 23.2976901471819 10.1135687719727  23.3054016026088 10.6094659785156  22.9848258475167 10.910880593099  C 22.6727877964565 11.204275284668  22.1646588518415 11.2049436061198  21.8336176234654 10.9185663225911  L 21.8069029907227 10.8948408126628  L 21.8041489188058 10.89751409847  C 20.493754473005 9.77806963216145  18.5019989589146 9.77405970345052  17.2557746861049 10.9051998279622  L 17.2147388253348 10.9429602195638  C 16.8941631243025 11.2443748341471  16.3670309483119 11.2370232325846  16.036815914481 10.9269203735352  C 15.7156893990653 10.6248374375  15.6999911080497 10.1466509134115  15.9952291852679 9.84356552799479  L 16.0200159946987 9.81950582454427  C 17.8481787719727 8.10057380192057  20.7978056344169 8.054459359375  22.785705393764 9.65309286474609  Z M 7.08741113455636 3.59472637011719  L 7.14717484654018 3.655878078125  L 7.18270256347656 3.6926359547526  C 7.21299751674107 3.72003726546224  7.2419154070173 3.74977773404948  7.26945628836496 3.78252568196614  C 7.59939588797433 4.17015422298177  7.60710734340123 4.79002568196615  7.28653164236886 5.16662688623047  C 6.97449359130859 5.53353733105469  6.46636464669364 5.53453984602865  6.13532336425782 5.17665177360026  L 6.10860873151507 5.14657711149089  L 6.10585465959822 5.14991871875  C 4.79546021379744 3.75044605550131  2.80370469970704 3.7454336118164  1.55748048095703 5.15960947819011  L 1.51644456612723 5.20672637011719  C 1.19586886509487 5.58332750878906  0.668736689104353 5.57430513639323  0.338521655273438 5.1866765953776  C 0.017395139857701 4.80907294173177  0.00169684884207464 4.21159034977213  0.296934980119978 3.83265005322265  L 0.321721735491073 3.80257545670573  C 2.14988451276507 1.65391044482422  5.09951137520926 1.59643447200521  7.08741113455636 3.59472637011719  Z M 22.5102967424665 3.59472637011719  L 22.5700604003906 3.655878078125  L 22.605588117327 3.6926359547526  C 22.6358830705915 3.72003726546224  22.6648009608678 3.74977773404948  22.6923418422154 3.78252568196614  C 23.0222814418248 4.17015422298177  23.0299928972517 4.79002568196615  22.7094171962193 5.16662688623047  C 22.397379145159 5.53353733105469  21.8892502005441 5.53453984602865  21.558208972168 5.17665177360026  L 21.5314943394252 5.14657711149089  L 21.5287402134487 5.14991871875  C 20.2183457676479 3.75044605550131  18.2265902535575 3.7454336118164  16.9803660348075 5.15960947819011  L 16.9393301199777 5.20672637011719  C 16.6187544189453 5.58332750878906  16.0916222429548 5.57430513639323  15.7614072631836 5.1866765953776  C 15.4402807477679 4.80907294173177  15.4245824567522 4.21159034977213  15.7198205339704 3.83265005322265  L 15.7446073434012 3.80257545670573  C 17.5727701206752 1.65391044482422  20.5223969831194 1.59643447200521  22.5102967424665 3.59472637011719  Z " fill-rule="nonzero" fill="#4d4132" stroke="none" transform="matrix(1 0 0 1 644 262 )" />
  </g>
</svg>