<?xml version="1.0" encoding="utf-8"?>
<svg version="1.1" xmlns:xlink="http://www.w3.org/1999/xlink" width="20px" height="11px" xmlns="http://www.w3.org/2000/svg">
  <g transform="matrix(1 0 0 1 -645 -273 )">
    <path d="M 14.9072817808949 4.11980102617187  C 14.9072817808949 2.54543286464843  16.0373586541193 1.2696517625  17.4310266779119 1.2696517625  C 18.8246947017045 1.2696517625  19.954771574929 2.54543286464844  19.954771574929 4.11980102617188  L 19.954771574929 6.56278609980469  C 19.954771574929 8.13715426132813  18.8246947017045 9.41293536347657  17.4310266779119 9.41293529687501  C 16.0373586541193 9.41293523027344  14.9072817808949 8.13715419472657  14.9072817808949 6.56278609980469  L 14.9072817808949 4.11980102617187  Z M 0.606060587713066 4.11980102617187  C 0.606060587713066 2.54543286464843  1.73613751598012 1.2696517625  3.12980553977273 1.2696517625  C 4.52347356356534 1.2696517625  5.65355043678978 2.54543286464844  5.65355043678978 4.11980102617188  L 5.65355043678978 6.56278609980469  C 5.65355043678978 8.13715426132813  4.52347356356534 9.41293536347657  3.12980553977273 9.41293529687501  C 1.73613751598011 9.41293523027344  0.606060642755679 8.13715419472657  0.606060587713066 6.56278609980469  L 0.606060587713066 4.11980102617187  Z " fill-rule="nonzero" fill="#514141" stroke="none" transform="matrix(1 0 0 1 645 273 )" />
  </g>
</svg>