<?xml version="1.0" encoding="utf-8"?>
<svg version="1.1" xmlns:xlink="http://www.w3.org/1999/xlink" width="10px" height="9px" xmlns="http://www.w3.org/2000/svg">
  <g transform="matrix(1 0 0 1 -680 -300 )">
    <path d="M 7.5 4.69565217391304  C 7.5 3.1695652173913  6.39285714285714 1.95652173913043  5 1.95652173913043  C 3.60714285714286 1.95652173913043  2.5 3.1695652173913  2.5 4.69565217391304  C 2.5 6.22173913043478  3.60714285714286 7.43478260869565  5 7.43478260869565  C 6.39285714285714 7.43478260869565  7.5 6.22173913043478  7.5 4.69565217391304  Z M 6.96428571428571 4.69565217391304  C 6.96428571428571 5.8695652173913  6.07142857142857 6.84782608695652  5 6.84782608695652  C 3.92857142857143 6.84782608695652  3.03571428571429 5.8695652173913  3.03571428571429 4.69565217391304  C 3.03571428571429 3.52173913043478  3.92857142857143 2.54347826086956  5 2.54347826086956  C 6.07142857142857 2.54347826086956  6.96428571428571 3.52173913043478  6.96428571428571 4.69565217391304  Z M 7.85714285714286 2.97391304347826  C 7.85714285714286 3.31969132163319  8.11298014295383 3.6  8.42857142857143 3.6  C 8.74416271418903 3.6  9 3.31969132163319  9 2.97391304347826  C 9 2.62813476532333  8.74416271418903 2.34782608695652  8.42857142857143 2.34782608695652  C 8.11298014295383 2.34782608695652  7.85714285714286 2.62813476532333  7.85714285714286 2.97391304347826  Z M 10 2.34782608695652  C 10 1.68260869565217  9.53571428571428 1.17391304347826  8.92857142857143 1.17391304347826  L 7.85714285714286 1.17391304347826  L 7.60714285714286 0.352173913043478  C 7.53571428571429 0.156521739130435  7.32142857142857 0  7.14285714285714 0  L 2.85714285714286 0  C 2.64285714285714 0  2.46428571428571 0.156521739130435  2.39285714285714 0.352173913043478  L 2.14285714285714 1.17391304347826  L 1.07142857142857 1.17391304347826  C 0.464285714285714 1.17391304347826  0 1.68260869565217  0 2.34782608695652  L 0 7.82608695652174  C 0 8.49130434782609  0.5 9  1.07142857142857 9  L 8.92857142857143 9  C 9.53571428571428 9  10 8.49130434782609  10 7.82608695652174  L 10 2.34782608695652  Z M 9.46428571428571 2.34782608695652  L 9.46428571428571 7.82608695652174  C 9.46428571428571 8.13913043478261  9.21428571428572 8.41304347826087  8.92857142857143 8.41304347826087  L 1.07142857142857 8.41304347826087  C 0.785714285714286 8.41304347826087  0.535714285714286 8.13913043478261  0.535714285714286 7.82608695652174  L 0.535714285714286 2.34782608695652  C 0.535714285714286 2.03478260869565  0.785714285714286 1.76086956521739  1.07142857142857 1.76086956521739  L 2.14285714285714 1.76086956521739  L 2.53571428571429 1.76086956521739  L 2.64285714285714 1.3695652173913  L 2.89285714285714 0.58695652173913  L 7.10714285714286 0.58695652173913  L 7.35714285714286 1.3695652173913  L 7.46428571428571 1.76086956521739  L 7.85714285714286 1.76086956521739  L 8.92857142857143 1.76086956521739  C 9.21428571428572 1.76086956521739  9.46428571428571 2.03478260869565  9.46428571428571 2.34782608695652  Z " fill-rule="nonzero" fill="#000000" stroke="none" transform="matrix(1 0 0 1 680 300 )" />
  </g>
</svg>