<?xml version="1.0" encoding="utf-8"?>
<svg version="1.1" xmlns:xlink="http://www.w3.org/1999/xlink" width="20px" height="21px" xmlns="http://www.w3.org/2000/svg">
  <g transform="matrix(1 0 0 1 -165 -581 )">
    <path d="M 19.9999999974014 15.1987498499693  C 20.0000402725121 14.5876966306512  19.5319151810796 14.0903137209395  18.9500000079026 14.0831248609819  C 18.3631974670761 14.0831248609819  17.8875000185289 14.5826071820214  17.8875000185289 15.1987498499693  L 17.8875000185289 18.7818748145993  L 2.11250017629758 18.7818748145993  L 2.11250017629758 2.21812497810433  L 5.52500014216854 2.21812497810433  C 6.10898308143312 2.21103545990022  6.580748209444 1.71568207542442  6.58750013154228 1.10249998911694  C 6.58754088213966 0.498695078865042  6.12501168816828 0.0071881521954512  5.55000014191851 0  L 1.05000018692383 0  C 0.47292033924375 0.00708766989359627  0.00675035922762428 0.496566148974127  0 1.10249998911694  L 0 19.8974998035867  C -0.000172237090311455 20.1894447479698  0.112617401999749 20.4689374736713  0.312500194299706 20.6718747959427  C 0.505773834533095 20.8817517278849  0.771957382785638 21.0001808489449  1.05000018692383 21  L 18.9500000079026 21  C 19.5270798555827 20.9929121228101  19.9932498355988 20.5034336437295  19.9999999974014 19.8974998035867  L 19.9999999974014 15.1987498499693  Z M 8.3375001140402 6.12937493949538  C 8.3375001140402 5.42937494640526  8.67083344403981 5.0793749498602  9.33750010403902 5.0793749498602  L 19.0000000074026 5.0793749498602  C 19.6666666674018 5.0793749498602  19.9999999974014 5.42937494640526  19.9999999974014 6.12937493949538  C 19.9999999974014 6.82937493258551  19.6666666674018 7.17937492913057  19.0000000074026 7.17937492913057  L 9.33750010403902 7.17937492913057  C 8.67083344403981 7.17937492913057  8.3375001140402 6.82937493258551  8.3375001140402 6.12937493949538  Z M 14.1750000556583 12.2456248791203  C 13.5083333956591 12.2456248791203  13.1750000656595 11.8956248825753  13 11.1956248894851  L 13 1.04999998963518  C 13.1750000656595 0.349999996545061  13.5083333956591 0  14.1750000556583 0  C 14.8416667156575 0  15.1750000456571 0.349999996545061  15 1.04999998963518  L 15 11.1956248894851  C 15.1750000456571 11.8956248825753  14.8416667156575 12.2456248791203  14.1750000556583 12.2456248791203  Z " fill-rule="nonzero" fill="#a1a1a1" stroke="none" transform="matrix(1 0 0 1 165 581 )" />
  </g>
</svg>