<?xml version="1.0" encoding="utf-8"?>
<svg version="1.1" xmlns:xlink="http://www.w3.org/1999/xlink" width="22px" height="23px" xmlns="http://www.w3.org/2000/svg">
  <g transform="matrix(1 0 0 1 0 -580 )">
    <path d="M 22 20.125  C 22 21.70625  20.7625 23  19.25 23  L 2.75 23  C 1.2375 23  0 21.70625  0 20.125  L 0 2.875  C 0 1.29375  1.2375 0  2.75 0  L 19.25 0  C 20.7625 0  22 1.29375  22 2.875  L 22 20.125  Z M 19.25 1.4375  L 2.75 1.4375  C 1.925 1.4375  1.375 2.0125  1.375 2.875  L 1.375 20.125  C 1.375 20.9875  1.925 21.5625  2.75 21.5625  L 19.25 21.5625  C 20.075 21.5625  20.625 20.9875  20.625 20.125  L 20.625 2.875  C 20.625 2.0125  20.075 1.4375  19.25 1.4375  Z M 17.1875 11.5  C 17.1875 11.93125  16.9125 12.21875  16.5 12  L 5.5 12  C 5.0875 12.21875  4.8125 11.93125  4.8125 11.5  C 4.8125 11.06875  5.0875 10.78125  5.5 11  L 16.5 11  C 16.9125 10.78125  17.1875 11.06875  17.1875 11.5  Z M 11.6875 17.25  C 11.6875 17.68125  11.4125 17.96875  11 17.96875  C 10.5875 17.96875  10.3125 17.68125  10.3125 17.25  L 10.3125 5.75  C 10.3125 5.31875  10.5875 5.03125  11 5.03125  C 11.4125 5.03125  11.6875 5.31875  11.6875 5.75  L 11.6875 17.25  Z " fill-rule="nonzero" fill="#9d9d9d" stroke="none" transform="matrix(1 0 0 1 0 580 )" />
  </g>
</svg>