<?xml version="1.0" encoding="utf-8"?>
<svg version="1.1" xmlns:xlink="http://www.w3.org/1999/xlink" width="13px" height="13px" xmlns="http://www.w3.org/2000/svg">
  <g transform="matrix(1 0 0 1 -558 -403 )">
    <path d="M 564.5 403  C 568.14 403  571 405.86  571 409.5  C 571 413.14  568.14 416  564.5 416  C 560.86 416  558 413.14  558 409.5  C 558 405.86  560.86 403  564.5 403  Z " fill-rule="nonzero" fill="#ffffff" stroke="none" />
    <path d="M 564.5 403.5  C 567.86 403.5  570.5 406.14  570.5 409.5  C 570.5 412.86  567.86 415.5  564.5 415.5  C 561.14 415.5  558.5 412.86  558.5 409.5  C 558.5 406.14  561.14 403.5  564.5 403.5  Z " stroke-width="1" stroke="#797979" fill="none" />
  </g>
</svg>