<?xml version="1.0" encoding="utf-8"?>
<svg version="1.1" xmlns:xlink="http://www.w3.org/1999/xlink" width="22px" height="22px" preserveAspectRatio="xMinYMid meet" viewBox="1369 170  22 20" xmlns="http://www.w3.org/2000/svg">
  <path d="M 1318 226.5  L 1349.5 226.5  L 1349.5 180.5  L 1381.5 180.5  " stroke-width="3" stroke="#f2c21f" fill="none" />
  <path d="M 1319 222.5  A 4 4 0 0 0 1315 226.5 A 4 4 0 0 0 1319 230.5 A 4 4 0 0 0 1323 226.5 A 4 4 0 0 0 1319 222.5 Z M 1380.5 176.5  A 4 4 0 0 0 1376.5 180.5 A 4 4 0 0 0 1380.5 184.5 A 4 4 0 0 0 1384.5 180.5 A 4 4 0 0 0 1380.5 176.5 Z " fill-rule="nonzero" fill="#f2c21f" stroke="none" />
</svg>