<?xml version="1.0" encoding="utf-8"?>
<svg version="1.1" xmlns:xlink="http://www.w3.org/1999/xlink" width="22px" height="22px" preserveAspectRatio="xMinYMid meet" viewBox="776 447  22 20" xmlns="http://www.w3.org/2000/svg">
  <path d="M 786 457.5  L 907.5 457.5  L 907.5 180.5  L 937.5 180.5  " stroke-width="3" stroke="#f2c21f" fill="none" />
  <path d="M 787 453.5  A 4 4 0 0 0 783 457.5 A 4 4 0 0 0 787 461.5 A 4 4 0 0 0 791 457.5 A 4 4 0 0 0 787 453.5 Z M 936.5 176.5  A 4 4 0 0 0 932.5 180.5 A 4 4 0 0 0 936.5 184.5 A 4 4 0 0 0 940.5 180.5 A 4 4 0 0 0 936.5 176.5 Z " fill-rule="nonzero" fill="#f2c21f" stroke="none" />
</svg>