<?xml version="1.0" encoding="utf-8"?>
<svg version="1.1" xmlns:xlink="http://www.w3.org/1999/xlink" width="18px" height="18px" xmlns="http://www.w3.org/2000/svg">
  <g transform="matrix(1 0 0 1 -481 -535 )">
    <path d="M 17.9318286290323 9.01213911290323  C 17.9318286290323 4.08652620967742  13.9387318548387 0.093429435483871  9.0131189516129 0.093429435483871  C 4.0875060483871 0.093429435483871  0.0944092741935479 4.08652620967742  0.0944092741935479 9.01213911290323  C 0.0944092741935479 13.937752016129  4.0875060483871 17.9308487903226  9.0131189516129 17.9308487903226  C 13.9387318548387 17.9308487903226  17.9318286290323 13.937752016129  17.9318286290323 9.01213911290323  Z M 14.2018366935484 6.21662298387097  C 14.2018366935484 6.21662298387097  7.6768185483871 12.3380745967742  7.67482258064516 12.3398165322581  C 7.52840927419355 12.4825282258065  7.2920685483871 12.4795342741936  7.14935685483871 12.3331209677419  L 3.81723387096774 9.04485483870968  C 3.67452217741935 8.89844153225806  3.67751612903226 8.66210080645161  3.82392943548387 8.51938911290323  C 3.97034274193548 8.37667741935484  4.20668346774193 8.37967137096774  4.34939516129032 8.52608467741936  L 7.4176875 11.5477983870968  L 13.6828306451613 5.68447983870968  C 13.8292439516129 5.54176814516129  14.0655846774194 5.54476209677419  14.2082963709677 5.69117540322581  C 14.3512439516129 5.83758870967742  14.3482681451613 6.07392943548387  14.2018548387097 6.21664112903226  Z " fill-rule="nonzero" fill="#63afe6" stroke="none" transform="matrix(1 0 0 1 481 535 )" />
  </g>
</svg>