<?xml version="1.0" encoding="utf-8"?>
<svg version="1.1" xmlns:xlink="http://www.w3.org/1999/xlink" width="22px" height="22px" xmlns="http://www.w3.org/2000/svg">
  <g transform="matrix(1 0 0 1 -486 -922 )">
    <path d="M 497 922  C 503.16 922  508 926.84  508 933  C 508 939.16  503.16 944  497 944  C 490.84 944  486 939.16  486 933  C 486 926.84  490.84 922  497 922  Z " fill-rule="nonzero" fill="#ffffff" stroke="none" />
    <path d="M 497 922.5  C 502.88 922.5  507.5 927.12  507.5 933  C 507.5 938.88  502.88 943.5  497 943.5  C 491.12 943.5  486.5 938.88  486.5 933  C 486.5 927.12  491.12 922.5  497 922.5  Z " stroke-width="1" stroke="#dfdfdf" fill="none" />
  </g>
</svg>