<?xml version="1.0" encoding="utf-8"?>
<svg version="1.1" xmlns:xlink="http://www.w3.org/1999/xlink" width="13px" height="13px" xmlns="http://www.w3.org/2000/svg">
  <g transform="matrix(1 0 0 1 -657 -921 )">
    <path d="M 13 6.5  C 13 10.089625  10.089625 13  6.5 13  C 2.910375 13  0 10.089625  0 6.5  C 0 2.910375  2.910375 0  6.5 0  C 10.089625 0  13 2.910375  13 6.5  Z M 1.08333332910156 6.5  C 1.08333332910156 9.491625  3.508375 11.9166666708984  6.5 11.9166666708984  C 9.491625 11.9166666708984  11.9166666708984 9.491625  11.9166666708984 6.5  C 11.9166666708984 3.508375  9.491625 1.08333332910156  6.5 1.08333332910156  C 3.508375 1.08333332910156  1.08333332910156 3.508375  1.08333332910156 6.5  Z M 5.95833332910156 9.75  L 5.95833332910156 5.95833332910156  C 5.95833332910156 5.65917908727274  6.20084575817118 5.41666665820313  6.5 5.41666665820313  C 6.79915424182882 5.41666665820313  7.04166667089844 5.65917908727274  7.04166667089844 5.95833332910156  L 7.04166667089844 9.75  C 7.04166667089844 10.0491542418288  6.79915424182882 10.2916666708984  6.5 10.2916666708984  C 6.20084575817118 10.2916666708984  5.95833332910156 10.0491542418288  5.95833332910156 9.75  Z M 6.44583332910156 4.225  C 6.02701739264464 4.225  5.68749999365234 3.8854826010077  5.68749999365234 3.46666666455078  C 5.68749999365234 3.04785072809386  6.02701739264464 2.70833332910156  6.44583332910156 2.70833332910156  C 6.86464926555849 2.70833332910156  7.20416666455078 3.04785072809386  7.20416666455078 3.46666666455078  C 7.20416666455078 3.8854826010077  6.86464926555849 4.225  6.44583332910156 4.225  Z " fill-rule="nonzero" fill="#afbedb" stroke="none" transform="matrix(1 0 0 1 657 921 )" />
  </g>
</svg>