<?xml version="1.0" encoding="utf-8"?>
<svg version="1.1" xmlns:xlink="http://www.w3.org/1999/xlink" width="15px" height="18px" xmlns="http://www.w3.org/2000/svg">
  <g>
    <path d="M 4.87029159198113 0.602181826171875  C 5.60140652122641 0.2094545390625  6.48730703419811 0  7.5 0  C 8.51269296580189 0  9.39859347877358 0.21027273046875  10.1297084080189 0.602181826171875  C 10.8624699941038 0.994909095703125  11.438799321934 1.56763636523438  11.8339965742925 2.29581817382813  C 12.2291938266509 3.02236363476562  12.4399656898585 3.90272726953125  12.4399656898585 4.90909090429687  L 12.4399656898585 7.36363636523437  C 13.8040995523412 7.36363636523437  14.9099485436321 8.4625738003297  14.9099485436321 9.81818182617187  L 14.9099485436321 15.5454545390625  C 14.9099485436321 16.9010625649047  13.8040995523412 18  12.4399656898585 18  L 2.56003431014151 18  C 1.19590044765882 18  0.0900514563679247 16.9010625649047  0.0900514563679247 15.5454545390625  L 0.0900514563679247 9.81818182617187  C 0.0900514563679252 8.4625738003297  1.19590044765882 7.36363636523437  2.56003431014151 7.36363636523437  L 2.56003431014151 4.90909090429687  C 2.56003431014151 3.90272726953125  2.77162951061321 3.02236363476562  3.16600342570755 2.29581817382813  C 3.55280692203836 1.57602257806084  4.14596897587366 0.986567793179912  4.87029159198113 0.602181826171875  Z M 13.2632933136792 9.81818182617187  C 13.2634681236095 9.37510992815168  12.9087026059945 9.01240598251797  12.4630188679245 9  L 2.56003431014151 9  C 2.1141757964105 8.99982628263176  1.74919069388601 9.35237451576169  1.73670668632075 9.79527273046875  L 1.73670668632075 15.5454545390625  C 1.73653187639045 15.9885264370827  2.09129739400547 16.3512303827164  2.53698113207547 16.3636363652344  L 12.4399656898585 16.3636363652344  C 12.8858242035895 16.3638100826026  13.250809306114 16.0112618494727  13.2632933136792 15.5683636347656  L 13.2632933136792 9.81818182617187  Z M 6.26503985890434 11.8636363648406  C 6.26503985890434 11.1858444933874  6.81794528680688 10.6363808051317  7.5 10.6363636347656  C 8.18201714780209 10.636433589689  8.73486395635719 11.1858818144585  8.73486395635719 11.863636358697  C 8.73486395635719 12.2124299974671  8.58551949572978 12.5447478389511  8.32415094339623 12.7775454609375  L 8.32332762382075 13.9090909042969  C 8.32332762382075 14.3609602494803  7.95471129075063 14.7272727304687  7.5 14.7272727304687  C 7.04528870924937 14.7272727304687  6.67667237617924 14.3609602494803  6.67667237617924 13.9090909042969  L 6.67667237617924 12.7783636347656  C 6.41474924901857 12.5455407352852  6.26503985890434 12.2128574414387  6.26503985890434 11.8636363648406  Z M 9.31873070165094 2.0184545390625  C 8.85025728183962 1.76890909570312  8.28874784787736 1.63636363476562  7.57574614386792 1.63636363476563  L 7.42425385613208 1.63636363476563  C 6.71125213443396 1.63636363476563  6.15056603773585 1.76890909570313  5.68126929834906 2.0184545390625  C 5.21674183218088 2.26264619414858  4.83691098349857 2.64010310002663  4.59118353183962 3.10172726953125  C 4.34006860259434 3.56727273046875  4.20668954009434 4.12527273046875  4.20668954009434 4.83381817382813  L 4.20668954009434 7.36363636523437  L 10.7933104599057 7.36363636523437  L 10.7933104599057 4.83381817382813  C 10.7933104599057 4.12527271289063  10.659931379717 3.56809090429687  10.4088164681604 3.10172726953125  C 10.1630890165014 2.64010310002663  9.78325816781912 2.26264619414858  9.31873070165094 2.0184545390625  Z " fill-rule="nonzero" fill="#535353" stroke="none" />
  </g>
</svg>