<?xml version="1.0" encoding="utf-8"?>
<svg version="1.1" xmlns:xlink="http://www.w3.org/1999/xlink" width="17px" height="17px" xmlns="http://www.w3.org/2000/svg">
  <g transform="matrix(1 0 0 1 76 -1678 )">
    <path d="M 17 8.5  C 17 3.80534375  13.19465625 0  8.5 0  C 3.80534375 0  0 3.80534375  0 8.5  C 0 13.19465625  3.80534375 17  8.5 17  C 13.19465625 17  17 13.19465625  17 8.5  Z M 9.2511875 8.5  L 11.7735625 11.022375  C 12.04025 11.2890625  12.08859375 11.6736875  11.880875 11.880875  C 11.67315625 12.0880625  11.2890625 12.04025  11.022375 11.7735625  L 8.5 9.2511875  L 5.977625 11.7735625  C 5.7109375 12.04025  5.3263125 12.08859375  5.119125 11.880875  C 4.9119375 11.67315625  4.95975 11.2890625  5.2264375 11.022375  L 7.7488125 8.5  L 5.2264375 5.977625  C 4.95975 5.7109375  4.91140625 5.3263125  5.119125 5.119125  C 5.32684375 4.91140625  5.7109375 4.95975  5.977625 5.2264375  L 8.5 7.7488125  L 11.022375 5.2264375  C 11.2890625 4.95975  11.6736875 4.91140625  11.880875 5.119125  C 12.08859375 5.32684375  12.04025 5.7109375  11.7735625 5.977625  L 9.2511875 8.5  Z " fill-rule="nonzero" fill="#d2d2d2" stroke="none" transform="matrix(1 0 0 1 -76 1678 )" />
  </g>
</svg>