<?xml version="1.0" encoding="utf-8"?>
<svg version="1.1" xmlns:xlink="http://www.w3.org/1999/xlink" width="14px" height="9px" xmlns="http://www.w3.org/2000/svg">
  <g transform="matrix(1 0 0 1 -540 -1985 )">
    <path d="M 8.28750337837838 4.49013461538461  L 12.4416959459459 0.366620192307693  C 12.7757331081081 0.035048076923077  13.2995033783784 0.0539783653846155  13.6115945945946 0.408872596153846  C 13.9205168918919 0.76021875  13.9061621621622 1.30915384615385  13.5817263513514 1.64182932692308  L 13.5717939189189 1.65182451923077  L 8.9425 6.24699519230769  C 8.66642567567568 6.52104086538462  8.2511554054054 6.56134615384615  7.93319932432432 6.34640625  L 7.92359797297298 6.33980769230769  L 5.11392567567568 4.38241586538462  L 1.45803378378379 8.56741586538462  C 1.15017567567568 8.91982211538462  0.633807432432435 8.94364182692308  0.298398648648651 8.62351442307692  L 0.288300675675678 8.61369230769231  C -0.0433952702702684 8.28659855769231  -0.0658378378378363 7.73796634615385  0.235493243243245 7.38162259615385  L 0.244716216216218 7.37089182692308  L 4.37632432432432 2.64137019230769  C 4.64828378378378 2.33006971153846  5.09022972972973 2.27016346153846  5.42667905405405 2.49724038461538  L 5.43684797297297 2.50420673076923  L 8.28750337837838 4.49013461538461  Z " fill-rule="nonzero" fill="#cecece" stroke="none" transform="matrix(1 0 0 1 540 1985 )" />
  </g>
</svg>