<?xml version="1.0" encoding="utf-8"?>
<svg version="1.1" xmlns:xlink="http://www.w3.org/1999/xlink" width="33px" height="43px" xmlns="http://www.w3.org/2000/svg">
  <g transform="matrix(1 0 0 1 -663 -1797 )">
    <path d="M 12.3477950440141 43  C 9.79086365492958 43  8.64277616725352 41.1137057647849  7.71493916197183 39.5976188736559  L 7.68962299119718 39.5548057849462  C 7.65544620422535 39.4956229892473  7.59595324647887 39.4200704865591  7.54405511091549 39.353332405914  L 7.52633382042253 39.3243706344086  C 7.4997518556338 39.2865943830645  7.46810665669014 39.2462996841398  7.44785377816901 39.2085234327957  L 7.31747560035211 39.0209013709677  L 7.30228589788732 39.003272469086  L 0.916286482394369 29.2242599193548  C 0.165350938898547 28.0786091963718  -0.107095619583296 26.686889703447  0.156801940140848 25.3446387271505  C 0.398810179987009 24.0102858039063  1.16200601566152 22.8255089257669  2.27956127640845 22.0492903225806  C 3.74504655340157 21.0414085133335  5.64490550838656 20.904001124383  7.24152714612676 21.690415905914  L 7.24152714612676 5.34589061827956  C 7.23393226584507 2.50385722983871  9.38707100704225 0.186913775537634  12.0326089066901 0.186913775537634  C 14.6743493661972 0.186913775537634  16.8312855475352 2.50385728763441  16.8312856056338 5.34966826075269  L 16.8312856056338 10.6005673709677  C 17.2199677272535 10.4721278484062  17.6267698354341 10.40623961826  18.0363344049296 10.4053900819892  C 19.2869523116197 10.4053900819892  20.4692166443662 11.004773266129  21.3021180528169 12.0398426223118  C 21.951296400921 11.6103367630645  22.7111342567847 11.3760106677861  23.4906994330986 11.3649068776882  C 24.388180587685 11.3695160189608  25.2578519076226 11.6751978816368  25.9590242535211 12.2325014637097  C 26.5096505757042 12.6606323508065  26.9716703292254 13.2146840564516  27.307109403169 13.8581395819892  C 27.6969781426056 13.7359963481183  28.102036584507 13.6692583252688  28.5083608204225 13.6692582674731  C 30.970356612676 13.6692582674731  32.9715984454225 15.9862017795699  33 18.8320128104839  L 33 32.56745825  C 32.9715984454225 35.6059281801075  31.6209817077465 38.9642370228495  29.5311333644366 41.1275570819892  C 28.3665903802817 42.3326195403226  27.1134408274648 43  25.9906694524648 43  L 12.3477950440141 43  Z M 26.2678813045775 40.4589174274193  L 26.2678813045775 40.4614358172043  C 26.6818004207746 40.4614358172043  27.7109019929577 39.7739080080645  28.7197506866197 38.2515250268817  C 29.8020161883803 36.6082580645161  30.4222619366197 34.6413744892473  30 32.8621130336022  L 30 18.7337945685484  C 30.4222619366197 17.5791004260753  29.7058148556338 16.5767705416667  28.8893688855634 16.5767705416667  C 28.7088621638574 16.5775661294217  28.531387307682 16.6230016804693  28.3729194084507 16.7089873924731  L 28.3729194084507 21.6501212647849  L 28.3678561742958 21.6501212647849  C 28.3096290105634 22.4786804045699  27.641282625 23.1208766774193  26.8349631232394 23.1246543198925  C 26.0261120334507 23.1246543198925  25.3539682077465 22.4698659247312  25.2995384841549 21.6513804596774  L 25.2970068961268 21.6513804596774  L 25.2970068961268 17.3625165927419  L 25.2046029454225 16.1587133293011  C 25.1248570510563 15.0858677795699  24.4349919348592 14.2107179086022  23.6641150721831 14.2107179086022  C 23.322347028169 14.2107179086022  22.9717183098592 14.3995991653226  22.6945064577465 14.7144012983871  L 22.6945064577465 20.058481813172  C 22.6919748697183 20.9323724314516  22.0033754894366 21.6387883951613  21.152752790493 21.6413067849462  C 20.3046616795775 21.6375291424731  19.6173281514085 20.9311132365591  19.6147965052817 20.058481813172  L 19.6147965052817 15.3565975712366  L 19.4996080299296 14.807582702957  C 19.3097368943662 13.8933973857527  18.6717698556338 13.2058695766129  18.0224105545775 13.2058695766129  C 17.5793778855634 13.2058695766129  17.1363452165493 13.5181532620968  16.8363488397887 14.0256142943548  L 16.7869822922535 19.3268817204301  L 16.7869822922535 21.3202086196237  C 16.7869822922535 22.0933626061828  16.1705339841549 22.7292628467742  15.4186442640845 22.7292628467742  L 15.0857368943662 22.7292628467742  C 14.3300497341549 22.7292628467742  13.7161330721831 22.0933626061828  14 21.3202086196237  L 14 5.40885105645161  L 13.7072723978873 4.84724412365592  C 13.7072723978873 3.65729217741936  12.8667761672535 2.69399773924731  11.827548068662 2.69399773924731  C 10.7895858221831 2.69399773924731  9.9490895915493 3.659810625  10 4.84724412365592  L 10 20.3103235080645  C 10.0199748697183 20.3569142392473  10.0212406637324 20.4047641653226  10.0212406637324 20.4526140336022  L 10.0212406637324 26.587477436828  C 10.0085826073944 27.3770011303763  9.43517176056338 28.0380855577957  8.67442130809859 28.1388222473118  C 7.90190445535218 28.2319306004855  7.18042728978083 27.7387033454779  6.99089720070423 26.9879057473118  L 6.41242311971831 25.2539757701613  C 6.10983741958943 24.7812134759608  5.62838790348329 24.4498145677144  5.07699608450705 24.3347536155914  C 4.52953256288622 24.2237383049418  3.96026062675281 24.3411872144642  3.50233142429578 24.6596293655914  C 2.54031763204226 25.3244914354839  2.28589030457747 26.6642891922043  2.93018637147888 27.6540270120968  L 9.51365180281691 37.7188798655914  L 9.53517053345071 37.7465825  L 9.61618222183099 37.8699849287634  L 9.7174467887324 38.0248675188172  C 9.77947133450705 38.1256042083333  9.84655917253522 38.2213040604839  9.9060521302817 38.2955973682796  L 9.9490895915493 38.3510025215054  L 9.98073479049297 38.4202589919355  C 11.0060389806338 40.1050798481183  11.4009709542254 40.4689911021505  12.1794426390845 40  L 26.2678813045775 40  L 26.2678813045775 40.4589174274193  Z " fill-rule="nonzero" fill="#ffffff" stroke="none" transform="matrix(1 0 0 1 663 1797 )" />
  </g>
</svg>