<?xml version="1.0" encoding="utf-8"?>
<svg version="1.1" xmlns:xlink="http://www.w3.org/1999/xlink" width="43px" height="23px" xmlns="http://www.w3.org/2000/svg">
  <g transform="matrix(1 0 0 1 -654 -1781 )">
    <path d="M 9.93594145430108 19.4945722882653  C 10.8047952352151 19.4945722882653  11.5099520040323 20.2104385459184  11.5099519462366 21.0924880765306  C 11.5099519462366 21.9745375484694  10.8047952352151 22.6904038647959  9.93594145430108 22.6904038061225  L 1.75108668817204 22.6904038061225  C 0.881902466719003 22.6902347223119  0.177377752495331 21.9748729944276  0.177377752495331 21.0924880471939  C 0.177377752495331 20.2101030999601  0.881902466719003 19.4947413720758  1.75108668817204 19.4945722882653  L 9.93594145430108 19.4945722882653  Z M 41.4161519287634 19.4945722882653  C 42.2850057096774 19.4945722882653  42.9901624784946 20.2104385459184  42.9901624206989 21.0924880765306  C 42.9901624206989 21.9745375484694  42.2850057096774 22.6904038647959  41.4161519287634 22.6904038061225  L 33.2312971626344 22.6904038061225  C 32.3621129411814 22.6902347223119  31.6575882269577 21.9748729944276  31.6575882269577 21.0924880471939  C 31.6575882269577 20.2101030999601  32.3621129411814 19.4947413720758  33.2312971626344 19.4945722882653  L 41.4161519287634 19.4945722882653  Z M 36.9610725443548 5.27154576425034  C 37.3785980012656 5.27154576425034  37.7790166342563 5.43995496099151  38.0742127930108 5.73971342602041  C 38.6882585459865 6.36362604109087  38.6882585459865 7.37461449972546  38.0742127930108 7.99852711479592  L 31.2442662956989 14.9334815408163  C 30.9490431462513 15.233188383089  30.5486346289184 15.4015619338585  30.131126047043 15.4015619338585  C 29.2617094325906 15.4015619338585  28.5569080105705 14.6860563611479  28.5569080105705 13.8034355076531  C 28.5569080105705 13.379586026575  28.7227626489395 12.9730963167625  29.0179857983871 12.6733894744898  L 35.8479322956989 5.73971342602041  C 36.1431284544534 5.43995496099151  36.5435470874441 5.27154576425034  36.9610725443548 5.27154576425034  Z M 6.35223429838709 7.99852711479592  C 5.73818854541137 7.37461449972546  5.73818854541137 6.36362604109087  6.35223429838709 5.73971342602041  C 6.64743045479521 5.43995497894207  7.047849075398 5.27154579359481  7.46537451814516 5.27154579359481  C 7.88289996089232 5.27154579359481  8.28331858149511 5.43995497894207  8.57851473790322 5.73971342602041  L 15.4084612352151 12.6733894744898  C 15.7036843846627 12.9730963167625  15.8695390230317 13.379586026575  15.8695390230317 13.8034355076531  C 15.8695390230317 14.6860563611479  15.1647376010115 15.4015619338585  14.2953209865591 15.4015619338585  C 13.8778124046838 15.4015619338585  13.4774038873509 15.233188383089  13.1821807379032 14.9334815408163  L 6.35223429838709 7.99852711479592  Z M 20.6392129959677 1.59791578826531  C 20.6392129959677 0.715866257653061  21.3443697069892 0  22.2132235456989 0  C 23.0820773266129 0  23.7872340954301 0.715866257653061  23.7872340376344 1.59791578826531  L 23.7872340376344 9.90707773469388  C 23.787067483362 10.7894626657276  23.0824077542118 11.5046873281502  22.2132235168011 11.5046873281502  C 21.3440392793904 11.5046873281502  20.6393795502402 10.7894626657276  20.6392129959677 9.90707773469388  L 20.6392129959677 1.59791578826531  Z " fill-rule="nonzero" fill="#ffffff" stroke="none" transform="matrix(1 0 0 1 654 1781 )" />
  </g>
</svg>