<?xml version="1.0" encoding="utf-8"?>
<svg version="1.1" xmlns:xlink="http://www.w3.org/1999/xlink" width="17px" height="17px" xmlns="http://www.w3.org/2000/svg">
  <g transform="matrix(1 0 0 1 399 -1613 )">
    <path d="M 16.7384615384615 15.5819711538462  L 9.65649038461538 8.5  L 16.7384615384615 1.41802884615385  C 17.0572115384615 1.09927884615385  17.0572115384615 0.58233173076923  16.7384615384615 0.261538461538461  C 16.4197115384615 -0.0572115384615387  15.9027644230769 -0.0572115384615387  15.5819711538462 0.261538461538461  L 8.5 7.34350961538461  L 1.41802884615385 0.263581730769231  C 1.09927884615385 -0.055168269230769  0.582331730769231 -0.055168269230769  0.261538461538462 0.263581730769231  C -0.0572115384615381 0.582331730769231  -0.0572115384615381 1.09927884615385  0.261538461538462 1.42007211538462  L 7.34350961538461 8.5  L 0.263581730769231 15.5819711538462  C -0.055168269230769 15.9007211538462  -0.055168269230769 16.4176682692308  0.263581730769231 16.7384615384615  C 0.422956730769231 16.8978365384615  0.631370192307692 16.9775240384615  0.841826923076923 16.9775240384615  C 1.05228365384615 16.9775240384615  1.26069711538462 16.8978365384615  1.42007211538462 16.7384615384615  L 8.5 9.65649038461538  L 15.5819711538462 16.7384615384615  C 15.7413461538462 16.8978365384615  15.9497596153846 16.9775240384615  16.1602163461538 16.9775240384615  C 16.3706730769231 16.9775240384615  16.5790865384615 16.8978365384615  16.7384615384615 16.7384615384615  C 17.0572115384615 16.4197115384615  17.0572115384615 15.9027644230769  16.7384615384615 15.5819711538462  Z " fill-rule="nonzero" fill="#3b3b3b" stroke="none" transform="matrix(1 0 0 1 -399 1613 )" />
  </g>
</svg>