<?xml version="1.0" encoding="utf-8"?>
<svg version="1.1" xmlns:xlink="http://www.w3.org/1999/xlink" width="23px" height="20px" xmlns="http://www.w3.org/2000/svg">
  <g transform="matrix(1 0 0 1 -52 -8 )">
    <path d="M 22.953891509434 11.7142857142857  C 22.953891509434 7.16208791208791  19.3031839622642 3.47252747252747  14.8116745283019 3.47252747252747  L 12.6445754716981 3.47252747252747  L 12.6445754716981 1.27747252747253  C 12.6445754716981 0.67032967032967  12.1590801886792 0.178571428571428  11.5596698113208 0.178571428571428  C 10.9602594339623 0.178571428571428  10.4747641509434 0.67032967032967  10.4747641509434 1.27747252747253  L 10.4747641509434 3.47252747252747  L 8.30766509433962 3.47252747252747  C 3.81344339622642 3.47252747252747  0.170872641509436 7.16208791208791  0.170872641509436 11.7142857142857  C 0.170872641509436 16.2664835164835  3.81344339622642 19.956043956044  8.30766509433962 19.956043956044  L 14.8170990566038 19.956043956044  C 19.311320754717 19.956043956044  22.953891509434 16.2664835164835  22.953891509434 11.7142857142857  Z M 9.92959905660378 11.4395604395604  C 9.92688679245283 11.8956043956044  9.56344339622641 12.2637362637363  9.11591981132076 12.2637362637363  L 7.75978773584906 12.2637362637363  L 7.75978773584906 13.6373626373626  C 7.75978773584906 14.0906593406593  7.39634433962264 14.4615384615385  6.94610849056604 14.4615384615385  C 6.49858490566038 14.4615384615385  6.13242924528302 14.0934065934066  6.13242924528302 13.6373626373626  L 6.13242924528302 12.2637362637363  L 4.77629716981132 12.2637362637363  C 4.32877358490566 12.2637362637363  3.9626179245283 11.8956043956044  3.9626179245283 11.4395604395604  C 3.9626179245283 10.9862637362637  4.32606132075472 10.6153846153846  4.77629716981132 10.6153846153846  L 6.13242924528302 10.6153846153846  L 6.13242924528302 9.24175824175824  C 6.13242924528302 8.78846153846154  6.49587264150943 8.41758241758242  6.94610849056604 8.41758241758242  C 7.3936320754717 8.41758241758242  7.75978773584906 8.78571428571428  7.75978773584906 9.24175824175824  L 7.75978773584906 10.6153846153846  L 9.11591981132076 10.6153846153846  C 9.56344339622641 10.6153846153846  9.92959905660378 10.9835164835165  9.92959905660378 11.4395604395604  Z M 16.4390330188679 9.79120879120879  C 16.4390330188679 10.5494505494505  15.8314858490566 11.1648351648352  15.0829009433962 11.1648351648352  C 14.3316037735849 11.1648351648352  13.7267688679245 10.5521978021978  13.7267688679245 9.79120879120879  C 13.7267688679245 9.03021978021978  14.3316037735849 8.41758241758242  15.0829009433962 8.41758241758242  C 15.8341981132075 8.41758241758242  16.4390330188679 9.03021978021978  16.4390330188679 9.79120879120879  Z M 19.1512971698113 13.0851648351648  C 19.1512971698113 13.8461538461538  18.54375 14.4587912087912  17.7951650943396 14.4587912087912  C 17.0438679245283 14.4587912087912  16.4390330188679 13.8461538461538  16.4390330188679 13.0851648351648  C 16.4390330188679 12.3241758241758  17.0438679245283 11.7115384615385  17.7951650943396 11.7115384615385  C 18.5464622641509 11.7115384615385  19.1512971698113 12.3241758241758  19.1512971698113 13.0851648351648  Z " fill-rule="nonzero" fill="#dfdfdf" stroke="none" transform="matrix(1 0 0 1 52 8 )" />
  </g>
</svg>