<?xml version="1.0" encoding="utf-8"?>
<svg version="1.1" xmlns:xlink="http://www.w3.org/1999/xlink" width="199px" height="199px" xmlns="http://www.w3.org/2000/svg">
  <g transform="matrix(1 0 0 1 -577 -1729 )">
    <path d="M 676.5 1732  C 730.54 1732  773 1774.46  773 1828.5  C 773 1882.54  730.54 1925  676.5 1925  C 622.46 1925  580 1882.54  580 1828.5  C 580 1774.46  622.46 1732  676.5 1732  Z " fill-rule="nonzero" fill="#e3e3e3" stroke="none" />
    <path d="M 676.5 1731  C 731.1 1731  774 1773.9  774 1828.5  C 774 1883.1  731.1 1926  676.5 1926  C 621.9 1926  579 1883.1  579 1828.5  C 579 1773.9  621.9 1731  676.5 1731  Z " stroke-width="4" stroke="#eee9e9" fill="none" />
  </g>
</svg>