<?xml version="1.0" encoding="utf-8"?>
<svg version="1.1" xmlns:xlink="http://www.w3.org/1999/xlink" width="36px" height="36px" xmlns="http://www.w3.org/2000/svg">
  <g transform="matrix(1 0 0 1 -784 -1973 )">
    <path d="M 802 1973  C 812.08 1973  820 1980.92  820 1991  C 820 2001.08  812.08 2009  802 2009  C 791.92 2009  784 2001.08  784 1991  C 784 1980.92  791.92 1973  802 1973  Z " fill-rule="nonzero" fill="#ffffff" stroke="none" fill-opacity="0" />
    <path d="M 802 1973.5  C 811.8 1973.5  819.5 1981.2  819.5 1991  C 819.5 2000.8  811.8 2008.5  802 2008.5  C 792.2 2008.5  784.5 2000.8  784.5 1991  C 784.5 1981.2  792.2 1973.5  802 1973.5  Z " stroke-width="1" stroke="#d4d4d4" fill="none" />
  </g>
</svg>