<?xml version="1.0" encoding="utf-8"?>
<svg version="1.1" xmlns:xlink="http://www.w3.org/1999/xlink" width="18px" height="18px" xmlns="http://www.w3.org/2000/svg">
  <g transform="matrix(1 0 0 1 -793 -1981 )">
    <path d="M 7.85089285714286 16.6121681415929  C 7.05736607142857 17.3966814159292  5.92633928571428 17.8426991150442  4.73504464285714 17.8426991150442  L 4.65267857142857 17.8426991150442  C 3.40714285714286 17.820796460177  2.24196428571428 17.3349557522124  1.37008928571428 16.470796460177  C 0.490178571428571 15.5986725663717  0.00401785714285634 14.4318584070796  0.00401785714285634 13.1893805309735  C 0.00401785714285634 11.9469026548673  0.488169642857142 10.7820796460177  1.37008928571428 9.90796460176991  L 4.08415178571429 7.2179203539823  C 4.31919642857143 6.98495575221239  4.70089285714286 6.98495575221239  4.9359375 7.2179203539823  C 5.17098214285714 7.45088495575221  5.17098214285714 7.82920353982301  4.9359375 8.06216814159292  L 2.22388392857143 10.754203539823  C 1.57098214285714 11.4013274336283  1.21138392857143 12.2674778761062  1.21138392857143 13.1893805309735  C 1.21138392857143 14.1132743362832  1.57098214285714 14.9774336283186  2.22388392857143 15.6245575221239  C 2.87276785714286 16.2676991150442  3.74263392857143 16.6300884955752  4.67477678571428 16.646017699115  C 5.57075892857143 16.6619469026549  6.41651785714286 16.3393805309735  6.99709821428571 15.7659292035398  L 9.85178571428571 12.9365044247788  C 10.0868303571429 12.7035398230088  10.4685267857143 12.7035398230088  10.7035714285714 12.9365044247788  C 10.9386160714286 13.1694690265487  10.9386160714286 13.5477876106195  10.7035714285714 13.7807522123894  L 7.85089285714286 16.6121681415929  Z M 13.9138392857143 10.6108407079646  C 13.7973214285714 10.7263274336283  13.6426339285714 10.7860619469027  13.4879464285714 10.7860619469027  C 13.3332589285714 10.7860619469027  13.1785714285714 10.7283185840708  13.0620535714286 10.6108407079646  C 12.8270089285714 10.3778761061947  12.8270089285714 9.9995575221239  13.0620535714286 9.76659292035398  L 15.7761160714286 7.07654867256637  C 16.4290178571429 6.42942477876106  16.7886160714286 5.56327433628319  16.7886160714286 4.64137168141593  C 16.7886160714286 3.71946902654867  16.4290178571429 2.8533185840708  15.7761160714286 2.20619469026549  C 15.1232142857143 1.55907079646018  14.2493303571429 1.20265486725664  13.3191964285714 1.20265486725664  C 12.3870535714286 1.20265486725664  11.5151785714286 1.55907079646018  10.8622767857143 2.20619469026549  L 8.14620535714286 4.89424778761062  C 7.91116071428572 5.12721238938053  7.52946428571429 5.12721238938053  7.29441964285714 4.89424778761062  C 7.059375 4.66128318584071  7.059375 4.28296460176991  7.29441964285714 4.05  L 10.0084821428571 1.35995575221239  C 10.8883928571429 0.487831858407082  12.065625 0.00597345132743555  13.3191964285714 0.00597345132743555  C 14.5727678571429 0.00597345132743555  15.7479910714286 0.485840707964604  16.6299107142857 1.35995575221239  C 17.5118303571429 2.23407079646018  17.9959821428571 3.39889380530974  17.9959821428571 4.64137168141593  C 17.9959821428571 5.88384955752213  17.5118303571429 7.04867256637168  16.6299107142857 7.92278761061947  L 13.9138392857143 10.6108407079646  Z " fill-rule="nonzero" fill="#cecece" stroke="none" transform="matrix(1 0 0 1 793 1981 )" />
  </g>
</svg>