<?xml version="1.0" encoding="utf-8"?>
<svg version="1.1" xmlns:xlink="http://www.w3.org/1999/xlink" width="12px" height="12px" xmlns="http://www.w3.org/2000/svg">
  <g transform="matrix(1 0 0 1 -796 -1984 )">
    <path d="M 2.33333333333333 10.55  C 2.2125 10.6729166666667  2.05208333333333 10.7333333333333  1.89166666666667 10.7333333333333  C 1.73125 10.7333333333333  1.57083333333333 10.6729166666667  1.45 10.55  C 1.20625 10.30625  1.20625 9.91041666666667  1.45 9.66666666666667  L 9.66666666666667 1.45  C 9.91041666666667 1.20625  10.30625 1.20625  10.55 1.45  C 10.79375 1.69375  10.79375 2.08958333333333  10.55 2.33333333333333  L 2.33333333333333 10.55  Z M 3.45 3.45  C 3.32916666666667 3.57291666666667  3.16875 3.63541666666667  3.01041666666667 3.63541666666667  C 2.85 3.63541666666667  2.68958333333333 3.575  2.56875 3.45208333333333  L 0.210416666666667 1.09375  C -0.0333333333333332 0.85  -0.0333333333333332 0.454166666666667  0.210416666666667 0.210416666666667  C 0.454166666666666 -0.0333333333333338  0.85 -0.0333333333333332  1.09375 0.210416666666667  L 3.45 2.56666666666667  C 3.69375 2.81041666666667  3.69375 3.20625  3.45 3.45  Z M 11.7875 11.7895833333333  C 11.6666666666667 11.9125  11.5083333333333 11.9729166666667  11.3479166666667 11.9729166666667  C 11.1875 11.9729166666667  11.0270833333333 11.9125  10.90625 11.7895833333333  L 8.54791666666667 9.43333333333333  C 8.30416666666666 9.18958333333333  8.30416666666666 8.79375  8.54791666666667 8.55  C 8.79166666666667 8.30625  9.1875 8.30625  9.43125 8.55  L 11.7875 10.90625  C 12.03125 11.15  12.03125 11.5458333333333  11.7875 11.7895833333333  Z " fill-rule="nonzero" fill="#cecece" stroke="none" transform="matrix(1 0 0 1 796 1984 )" />
  </g>
</svg>