<?xml version="1.0" encoding="utf-8"?>
<svg version="1.1" xmlns:xlink="http://www.w3.org/1999/xlink" width="19px" height="15px" xmlns="http://www.w3.org/2000/svg">
  <g transform="matrix(1 0 0 1 -668 -1984 )">
    <path d="M 12.6542222222222 11.7676940717808  C 12.337537037037 11.7676940717808  12.0220740740741 11.636699919734  11.7931296296296 11.3796651760119  C 11.2049259259259 10.7176860451783  10.3664259259259 10.3390505675955  9.49240740740741 10.3390505675955  C 8.60425925925926 10.3390505675955  7.78711111111111 10.7071001031992  7.19409259259259 11.3748950808394  C 6.76242592592592 11.8597752551313  6.02838888888889 11.8975140465543  5.55155555555555 11.456353629171  C 5.07488888888889 11.0162206169017  5.0392037037037 10.268343079922  5.47087037037037 9.78346290563009  C 6.49555555555555 8.63080610021787  7.96138888888889 7.97018461185644  9.49238888888889 7.97018461185644  C 11.0211481481481 7.97018461185644  12.4869814814815 8.63319114780415  13.5151296296296 9.78806788212361  C 13.946962962963 10.2729480564155  13.9102407407407 11.0208255933953  13.4346296296296 11.4609586056645  C 13.2129444444444 11.6674303405573  12.9329814814815 11.7676940717808  12.6542222222222 11.7676940717808  Z M 15.2347407407407 8.80295149638803  C 14.9384074074074 8.80295149638803  14.6406851851852 8.68733172801284  14.4141666666667 8.45847723884876  C 13.0977777777778 7.12426327256049  11.3497407407407 6.39038413026029  9.49240740740741 6.39038413026029  C 7.63059259259259 6.39038413026029  5.88237037037037 7.12307074876734  4.56840740740741 8.45385391583534  C 4.11312962962963 8.91635133585598  3.3765 8.91259029927761  2.92346296296296 8.44906547414287  C 2.47059259259259 7.98537553032909  2.473 7.23509459924321  2.9282962962963 6.77378970301571  C 4.68116666666667 4.99962618965715  7.01274074074074 4.02151817452127  9.49240740740741 4.02151817452127  C 11.9687962962963 4.02151817452127  14.2991666666667 5.00065359477124  16.0554814814815 6.77977066850132  C 16.5109444444444 7.24107556472882  16.5121481481481 7.9913564958147  16.0603148148148 8.45623896342163  C 15.8325925925926 8.68630432289875  15.5336666666667 8.80295149638803  15.2347407407407 8.80295149638803  Z M 17.8095555555556 5.84540075679395  C 17.5201111111111 5.84540075679395  17.2308333333333 5.73576195390437  17.0043148148148 5.51628253640638  C 14.9740925925926 3.53443641784199  12.3068518518519 2.44190115812407  9.49240740740741 2.44190115812407  C 6.67227777777778 2.44190115812407  4.00383333333333 3.5320513702557  1.97842592592593 5.512870083706  C 1.51572222222222 5.96461644306846  0.779444444444445 5.95043458319  0.333481481481482 5.47735122119023  C -0.111277777777777 5.0054603829836  -0.0957777777777771 4.25517945189772  0.366574074074075 3.80207545006307  C 2.82744444444445 1.39668157321408  6.06753703703704 0.0706685013186565  9.49120370370371 0.0706685013186565  C 12.9079814814815 0.0706685013186565  16.1480740740741 1.39668157321408  18.6135925925926 3.80326797385621  C 19.0773148148148 4.25637197569086  19.0926666666667 5.00665290677675  18.6492777777778 5.47854374498337  C 18.4203518518518 5.72277261781906  18.1143518518519 5.84540075679395  17.8095555555556 5.84540075679395  Z M 8.08707407407407 13.4983029469098  C 8.08707407407407 14.2887077170049  8.71561111111111 14.9293498452012  9.49240740740741 14.9293498452012  C 10.268 14.9293498452012  10.8977407407407 14.2887260635248  10.8977407407407 13.4983029469098  C 10.8977407407407 12.7078798302947  10.268 12.0672560486183  9.49240740740741 12.0672560486183  C 8.71681481481481 12.0684485724114  8.08707407407407 12.7078798302947  8.08707407407407 13.4983029469098  Z " fill-rule="nonzero" fill="#cecece" stroke="none" transform="matrix(1 0 0 1 668 1984 )" />
  </g>
</svg>