<?xml version="1.0" encoding="utf-8"?>
<svg version="1.1" xmlns:xlink="http://www.w3.org/1999/xlink" width="18px" height="18px" xmlns="http://www.w3.org/2000/svg">
  <g transform="matrix(1 0 0 1 -73 -641 )">
    <path d="M 82 641  C 87.04 641  91 644.96  91 650  C 91 655.04  87.04 659  82 659  C 76.96 659  73 655.04  73 650  C 73 644.96  76.96 641  82 641  Z " fill-rule="nonzero" fill="#ffffff" stroke="none" fill-opacity="0" />
    <path d="M 82 641.5  C 86.76 641.5  90.5 645.24  90.5 650  C 90.5 654.76  86.76 658.5  82 658.5  C 77.24 658.5  73.5 654.76  73.5 650  C 73.5 645.24  77.24 641.5  82 641.5  Z " stroke-width="1" stroke="#d4d4d4" fill="none" />
  </g>
</svg>