<?xml version="1.0" encoding="utf-8"?>
<svg version="1.1" xmlns:xlink="http://www.w3.org/1999/xlink" width="14px" height="14px" viewBox="255 333  14 14" xmlns="http://www.w3.org/2000/svg">
  <path d="M 255.5 334  A 0.5 0.5 0 0 1 256 333.5 L 268 333.5  A 0.5 0.5 0 0 1 268.5 334 L 268.5 346  A 0.5 0.5 0 0 1 268 346.5 L 256 346.5  A 0.5 0.5 0 0 1 255.5 346 L 255.5 334  Z " fill-rule="nonzero" fill="#f0f0f0" stroke="none" />
  <path d="M 255.5 334  A 0.5 0.5 0 0 1 256 333.5 L 268 333.5  A 0.5 0.5 0 0 1 268.5 334 L 268.5 346  A 0.5 0.5 0 0 1 268 346.5 L 256 346.5  A 0.5 0.5 0 0 1 255.5 346 L 255.5 334  Z " stroke-width="1" stroke="#bbbbbb" fill="none" />
</svg>