<?xml version="1.0" encoding="utf-8"?>
<svg version="1.1" xmlns:xlink="http://www.w3.org/1999/xlink" width="28px" height="31px" xmlns="http://www.w3.org/2000/svg">
  <g transform="matrix(1 0 0 1 -96 -1402 )">
    <path d="M 3.37407740384615 24.3571576508621  C 3.98918221153846 24.3571242456897  4.48808028846154 23.8621163793103  4.48808028846154 23.2515566810345  C 4.48808028846154 22.6407230603448  3.98921586538462 22.1456817887931  3.37407740384615 22.1456817887931  L 1.14627678846154 22.1456817887931  C 0.531000346153846 22.1456817887931  0.0322402499999998 22.6406896551724  0.0322402499999998 23.2515566810345  C 0.0322402499999998 23.8621163793103  0.531003711538461 24.3571576508621  1.14627678846154 24.3571576508621  L 3.37407740384615 24.3571576508621  Z M 1.19273107692308 13.3001558189655  C 0.577489903846154 13.3001558189655  0.0787264423076921 13.7951636853448  0.0787264423076921 14.4059605603448  C 0.0787264423076921 15.0165870689655  0.577489903846153 15.5115949353448  1.19272932692308 15.5115949353448  L 3.37407578846154 15.5115949353448  C 3.98918059615385 15.5115949353448  4.48807867307692 15.0165870689655  4.48807867307692 14.4059605603448  C 4.48807867307692 13.7951636853448  3.98921425 13.3001558189655  3.37407578846154 13.3001558189655  L 1.19273107692308 13.3001558189655  Z M 27.8805727307692 2.31218096551724  C 27.8805389423077 2.31218243534483  27.6717370192308 1.20634094827586  26.7666740384615 1.20634094827586  L 24.5388735576923 1.13754967672414  C 24.5388735576923 0.526716056034483  24.0401807692308 0.0316747844827586  23.4248706730769 0  L 3.42046276923077 0  C 2.80535796153846 0.0316747844827586  2.30659786538462 0.526716056034483  2.30659786538462 1.13754967672414  L 2.30659786538462 3.27996181465517  L 3.42046371153846 3.27996181465517  C 3.42046371153846 3.27996181465517  5.63782140384615 3.48746138362069  5.63782140384615 5.49188196551724  C 5.63782140384615 5.49188196551724  5.66132525 7.70722280603448  3.36384111538462 7.70722280603448  L 2.30659544230769 7.77139414224138  L 2.329719 12.1252806724138  L 3.36911467307692 12.1250769008621  C 3.36911467307692 12.1250769008621  5.66204880769231 12.1248731293103  5.66204880769231 14.4745428491379  C 5.66204880769231 14.4745428491379  5.44855890384615 16.6174679568966  3.35995073076923 16.6174679568966  L 2.31135409615385 16.6179122456897  L 2.29236659615385 20.9711173103448  L 3.40233828846154 20.9711173103448  C 3.40233828846154 20.9711173103448  5.62514117307692 21.0401123534483  5.62514117307692 23.2515882155172  C 5.62514117307692 23.2515882155172  5.62114309615385 25.5318186034483  3.32369598076923 25.5318186034483  L 2.32055559615385 25.462549637931  L 2.306633 27.6744697887931  C 2.306633 27.6744697887931  3.58301905769231 30.9915132155172  5.53230030769231 31  L 26.8363544615385 31  C 26.8363544615385 30.9915132155172  27.8805727307692 30.7842541637931  27.8805727307692 29.9549072887931  L 27.8805727307692 2.31218096551724  Z M 7.82974769230769 7.77143062068965  L 7.82974903846154 8  L 22.3109699615385 8  L 22.3109699615385 16  L 7.82974769230769 16  L 7.82974769230769 7.77143062068965  Z M 25.6875417884615 27.7434004267241  C 25.6875432692308 27.7433998922414  25.7224557692308 28.7800058189655  24.5388365384615 28.7800058189655  L 5.60194707692308 28.7800058189655  C 5.60194707692308 28.7800058189655  4.45313601923077 28.3998649784483  4.45313601923077 27.6397870689655  L 23.4248321730769 27.6282923491379  C 24.0401086153846 27.6282923491379  24.5388350576923 27.1332844827586  24 26.5224876077586  L 24 2.13957296551724  L 25.6875417884615 2.51971380603448  L 25.6875417884615 27.7434004267241  Z M 0.032240384615385 5.56022747844828  C 0.0322033653846155 6.17078717672414  0.531000480769231 6.66582844827586  1.14627692307692 6.66582844827586  L 3.37407753846154 6.66582844827586  C 3.98918234615385 6.66582844827586  4.48808042307692 6.17082058189655  4.48808042307692 5.56022747844828  C 4.48808042307692 4.94943060344828  3.989216 4.45442273706897  3.37407753846154 4.45442273706897  L 1.14627692307692 4.45442273706897  C 0.531000480769231 4.45442273706897  0.032240384615385 4.94943060344828  0.032240384615385 5.56022747844828  Z M 20.0830288076923 10.5361350215517  C 20.0830302884615 10.2307349137931  19.8337024038462 9.98311239224138  19.5261331730769 9.98311239224138  L 10.6146535384615 9.98311239224138  C 10.3069799807692 9.98311239224138  10.05768575 10.2307349137931  10.05768575 10.5361350215517  C 10.05768575 10.841364762931  10.3069799807692 11.088713362069  10.6146535384615 11.088713362069  L 19.5261316923077 11.088713362069  C 19.8337009230769 11.088713362069  20.0830288076923 10.841364762931  20.0830288076923 10.5361350215517  Z M 20.0830288076923 13.8529379310345  C 20.0830302884615 13.5475745689655  19.8337024038462 13.3001558189655  19.5261331730769 13.3001558189655  L 10.6146535384615 13.3001558189655  C 10.3069799807692 13.3001558189655  10.05768575 13.5475411637931  10.05768575 13.8529379310345  C 10.05768575 14.1583380387931  10.3069799807692 14.4059605603448  10.6146535384615 14.4059605603448  L 19.5261316923077 14.4059605603448  C 19.8337009230769 14.4059605603448  20.0830288076923 14.1583380387931  20.0830288076923 13.8529379310345  Z " fill-rule="nonzero" fill="#30a3f6" stroke="none" transform="matrix(1 0 0 1 96 1402 )" />
  </g>
</svg>