<?xml version="1.0" encoding="utf-8"?>
<svg version="1.1" xmlns:xlink="http://www.w3.org/1999/xlink" width="27px" height="27px" xmlns="http://www.w3.org/2000/svg">
  <g transform="matrix(1 0 0 1 -163 -1405 )">
    <path d="M 27 9  C 27 7.344140625  25.65703125 6.001171875  24.001171875 6.001171875  L 16.1015625 6.001171875  C 14.607421875 6.001171875  13.341796875 4.904296875  13.130859375 3.42421875  L 13.011328125 2.576953125  C 12.800390625 1.100390625  11.534765625 0  10.040625 0  L 2.998828125 0  C 1.35 0  0 1.35  0 2.998828125  L 0 23.99765625  C 0 25.646484375  1.35 26.996484375  2.998828125 27  L 23.99765625 27  C 25.646484375 26.996484375  26.996484375 25.646484375  27 23.99765625  L 27 9  Z M 9 22.5  C 9 23.326171875  8.325 24.001171875  7.498828125 24.001171875  C 6.67265625 24.001171875  5.99765625 23.326171875  5.99765625 22.5  C 5.99765625 21.673828125  6.67265625 20.998828125  7.498828125 20.998828125  C 8.325 20.998828125  9 21.673828125  9 22.5  Z M 9 10.501171875  L 9 16.498828125  C 9 17.325  8.325 18  7.498828125 18  C 6.67265625 18  5.99765625 17.325  5.99765625 16.498828125  L 5.99765625 10.501171875  C 5.99765625 9.675  6.67265625 9  7.498828125 9  C 8.325 9  9 9.675  9 10.501171875  Z M 15.001171875 22.5  C 15.001171875 23.326171875  14.326171875 24.001171875  13.5 24.001171875  C 12.673828125 24.001171875  11.998828125 23.326171875  11.998828125 22.5  C 11.998828125 21.673828125  12.673828125 20.998828125  13.5 20.998828125  C 14.326171875 20.998828125  15.001171875 21.673828125  15.001171875 22.5  Z M 15.001171875 10.501171875  L 15.001171875 16.498828125  C 15.001171875 17.325  14.326171875 18  13.5 18  C 12.673828125 18  11.998828125 17.325  11.998828125 16.498828125  L 11.998828125 10.501171875  C 11.998828125 9.675  12.673828125 9  13.5 9  C 14.326171875 9  15.001171875 9.675  15.001171875 10.501171875  Z M 21.00234375 22.5  C 20.998828125 23.326171875  20.323828125 24.001171875  19.501171875 24.001171875  C 18.675 24.001171875  18 23.326171875  18 22.5  C 18 21.673828125  18.675 20.998828125  19.501171875 20.998828125  C 20.32734375 20.998828125  21.00234375 21.673828125  21.00234375 22.5  Z M 20.998828125 10.501171875  L 20.998828125 16.498828125  C 20.998828125 17.325  20.323828125 18  19.49765625 18  C 18.671484375 18  17.996484375 17.325  17.996484375 16.498828125  L 17.996484375 10.501171875  C 17.996484375 9.675  18.671484375 9  19.49765625 9  C 20.323828125 9  20.998828125 9.675  20.998828125 10.501171875  Z " fill-rule="nonzero" fill="#30a3f6" stroke="none" transform="matrix(1 0 0 1 163 1405 )" />
  </g>
</svg>