<?xml version="1.0" encoding="utf-8"?>
<svg version="1.1" xmlns:xlink="http://www.w3.org/1999/xlink" width="30px" height="26px" xmlns="http://www.w3.org/2000/svg">
  <g transform="matrix(1 0 0 1 -181 -648 )">
    <path d="M 29.7792930489174 15.3103931063521  C 29.7713537110475 14.395647451168  29.5017512562382 13.5014548351898  29.001164137931 12.7295667300665  L 28.9477303993585 12.6411374112523  L 29.001164137931 12.5527080672716  C 29.4356210543261 11.8842752094901  29.667272914622 11.1084507976725  29.669085947073 10.3157735395039  C 29.669085947073 8.7960991399879  28.8341836984763 7.39433049050212  27.3781142068965 6.47401044404114  L 27.2846051515637 6.41505755644283  L 27.2846051515637 6.30697725831821  C 27.3055599750705 6.16376231788913  27.3167169416621 6.01933246445044  27.318001244587 5.87465609098609  C 27.318001244587 3.69339930018149  24.8567094402566 1.91171204452511  21.8310237305533 1.9084368938899  C 21.6172887506014 1.9084368938899  21.3935349478749 1.9084368938899  21.163101947073 1.94118850090744  L 21.0729324907779 1.94118850090744  L 21.0395363977546 1.87896046267393  C 19.9654582452141 0.716772236472754  18.4270412373899 0.073080082870289  16.8282895140337 0.116924186327889  C 15.4829413371005 0.0932532382119999  14.172751254218 0.538965793776649  13.1313423961508 1.3745857800363  L 13.0478521892542 1.4466392953418  L 12.9476639101844 1.40406221125227  C 12.6664850913057 1.28118496820759  12.376222593844 1.17936393755132  12.0793655942261 1.09947229618875  C 11.5565206105389 0.961906325141353  11.0176856892653 0.891448143100481  10.4763532830794 0.889862026376286  C 8.33900356054531 0.889862026376286  6.59238808019246 1.99686623787054  6.13486165196472 3.64099673901996  C 6.09424957140534 3.78944286053208  6.06412165265526 3.94045829206099  6.04469219566961 4.09296886049607  L 6.02465455012029 4.24362624271022  L 5.87103253247795 4.24362624271022  C 3.74036203368083 4.26000204621899  2.00376537610265 5.35718075547489  1.54289934883721 6.9947609553539  C 1.34102183605963 7.74861079785941  1.4094055668019 8.5475979947247  1.73659665757819 9.25789676370236  L 1.79336999518845 9.38235284016939  L 1.66980447153168 9.46750700834846  C 0.659253129099867 10.1268377057696  0.0369488176587785 11.225368585383  0 12.415151337931  C 0 14.5996833045372  2.26759446992783 16.378095384392  5.05282835605453 16.378095384392  C 5.97796435449265 16.3840621562105  6.89210002504156 16.1812302848093  7.72451551563753 15.7852913577737  L 7.88815635605453 15.7066874908651  L 7.96162774017642 15.8671703501512  C 9.07371753007217 18.1597825897157  11.7053293728949 19.6434302567453  14.6642229222133 19.6434302567453  C 15.7746023751583 19.648956869293  16.8745099915978 19.4327748669964  17.8969643881315 19.0080491460375  L 18.0038318652767 18.965472061948  L 18.0873220978348 19.040800753055  C 18.298398268231 19.2322309085612  18.5214741690701 19.4105292163815  18.7552438813152 19.574651892075  L 18.835394489174 19.6336047796733  L 18.835394489174 19.7285844249244  C 18.7824986963651 20.6527844177951  18.880584821668 21.5793353199317  19.1259404779471 22.4731688111313  C 19.6702967377707 24.5790969108288  20.6421229318364 25.8826107392619  21.2332337321572 25.8826107392619  C 21.2609542322746 25.88603579495  21.2890034389363 25.88603579495  21.3167239390537 25.8826107392619  C 21.9011555156375 25.7417788341198  22.161645010425 24.0648967511192  21.6039303287891 21.8836399351482  C 21.5237797209302 21.5561238901391  21.4269310665597 21.2679097785844  21.3234031627907 20.9764205163944  L 21.2232149093825 20.6914815554749  L 21.5271193199679 20.7537096188748  C 22.0383200017536 20.8547244984284  22.5585636238781 20.9051962779148  23.0800374659182 20.9043670010889  C 26.7736449591018 20.9043670010889  29.7792930232558 18.3955941652753  29.7792930489174 15.3103931063521  Z M 12.5769673135525 13.5025045701149  L 12.2062707169206 14.2721672595281  L 12.0459695012029 14.2001137442226  C 10.9405143243498 13.7212071604457  10.1205463486546 12.7709648961455  9.82178992141139 11.6225625437387  C 9.4438975853804 11.8682703003759  9.03236248323076 12.060142475564  8.5994930553328 12.1924404404114  C 8.77774620805763 12.865700579261  8.85647419702706 13.5605786713754  8.833265680834 14.2557914560194  L 8.833265680834 14.4260997923775  L 7.94826931836407 14.4064488382335  L 7.94826931836407 14.2328653512402  C 8.02841992622293 10.875825984271  5.90442865116279 9.99808299673322  5.8109195701684 9.97515686678766  L 5.65061835445068 9.91292882855415  L 5.98457923336006 9.11378970792499  L 6.14822007377706 9.1760177461585  C 7.1249706077613 9.62476041291476  7.89641700778131 10.4140100572262  8.31228669125902 11.3900261439806  C 8.98020847473937 11.1935165270417  10.2025053664795 10.653115061585  10.3728254049719 9.36270188602541  L 10.3962026752205 9.19239354966727  L 11.2745198139535 9.3004738477919  L 11.2544821684042 9.47078218415003  C 11.1819713751667 10.0180363335307  10.9500639015782 10.5331699686805  10.5865603849238 10.9544298260133  C 10.6965928054289 12.0430663355088  11.3959241251991 12.9892188891549  12.4166660978348 13.4304510548094  L 12.5769673135525 13.5025045701149  Z M 13.1046255268645 6.02203832256503  L 13.1046255268645 6.03186379963702  C 11.9791773151564 6.45435948989716  10.8069745629511 6.88340548142771  9.61473416519647 6.88340548142771  C 9.19765910665781 6.87911736150788  8.78226700594223 6.83080325463059  8.37573925260626 6.73929842565033  C 8.13528740336808 7.46965918160919  7.57089349799519 8.14761737640653  6.70593478107458 8.7829985122807  L 6.56567121090617 8.87797815753176  L 6.01129612830794 8.18691930986086  L 6.15155969847634 8.08211418753781  C 7.03655606094627 7.44673307683001  7.52413898315958 6.77205003266788  7.60094996631917 6.11701796781609  C 7.64899394800844 5.68626667956554  7.52975030693047 5.25357960038269  7.26698908740978 4.90520863399879  L 7.15344238652767 4.77747738173019  L 7.82136417000802 4.22070011276467  L 7.93825046992783 4.34515621439806  C 8.28979739807185 4.77911836917129  8.48684702324046 5.31399821873032  8.49930477626303 5.86810578971567  C 8.86356488505371 5.94557950148802  9.23532926592154 5.98401518714921  9.60805496712109 5.98273638911071  C 10.663371393745 5.98273638911071  12.2797421267041 5.69124712692075  14.0029803368083 4.29602880387175  L 14.1365647089014 4.18794850574713  L 14.7076378380112 4.84298059576527  L 14.5740534659182 4.9543360445251  C 14.4204314482759 5.07551697035692  14.2668094306335 5.19669792135511  14.1065082149158 5.30805337011494  C 14.6775813440257 5.56679105045372  15.3121070344828 6.12029314361766  15.6126718460305 7.27314956467029  L 15.6560867618284 7.44018275039322  L 14.7978072686447 7.64979302020568  L 14.7543923528468 7.53188724500907  C 14.3836957562149 6.08426636079855  13.3985111146752 6.02203832256503  13.1046255268645 6.02203832256503  Z M 24.7231250938252 10.9511546502117  L 24.6797101523657 11.8223473113128  L 24.5027108901363 11.8223473113128  C 24.3156927794707 11.8223473113128  24.1320142935044 11.805971507804  23.9516754065758 11.805971507804  C 22.4555305982358 11.805971507804  21.2499317530072 12.2088162439201  20.3782938380112 13.0014050381125  C 18.7886399743384 14.4457507465215  18.7619231050521 16.7874904217786  18.7619231050521 16.8104165517241  L 18.7619231050521 17.026577122807  L 17.6765501844427 17.026577122807  L 17.6765501844427 16.754738814761  C 17.6765501844427 16.6433833660012  17.7967761090617 14.0658321655172  19.6803155605453 12.3594736009679  C 19.7191405233237 12.3428939341307  19.7570425428091 12.3243086498289  19.7938622614274 12.3037958891712  C 19.2805307183267 11.5518067949954  18.9713272916517 10.6838068514188  18.8955074514836 9.78192240048397  C 18.3702879678642 9.44217821956357  17.7578887086921 9.2548514394293  17.1288543255814 9.24152096019359  C 16.2037826463512 9.24152096019359  15.3722200224539 9.69349308166969  14.6441852510024 10.5810615462795  L 14.5373177738573 10.7153431249849  L 13.8426791210906 10.1814919859649  L 13.9528861972735 10.0472104072595  C 14.854580606255 8.94348137156685  15.9165762566159 8.38670410260133  17.1121562790698 8.38670410260133  C 17.7356038118534 8.39448851314668  18.3498471971696 8.53530684780359  18.9122054979952 8.79937429062311  C 18.9722462325334 8.05735701759791  19.1573211800572 7.33023701591484  19.459901382518 6.64759395620085  C 18.6068790597795 6.04182803218478  17.9990400163721 5.1604220025196  17.7433423704892 4.15847207453116  L 17.7099462774659 3.98816373817302  L 18.5849238171612 3.83095602952208  L 18.6183199101844 3.99798921524501  C 18.641697180433 4.10934466400484  19.199411862069 6.6967213415608  22.6258506623897 6.6967213415608  C 22.9033864348502 6.70270583220297  23.181042280555 6.69286375512732  23.4574132862871 6.66724491034483  L 23.6310729494787 6.65086910683606  L 23.7112235573376 7.49258531155475  L 23.537563894146 7.50896111506352  C 23.2370215309987 7.54146766009965  22.9348944550838 7.55786784037803  22.6325298861267 7.55808852558984  C 21.7989270675336 7.57260119261683  20.9719386588607 7.41061882098299  20.2079737738573 7.08319027416818  C 19.8740128692863 7.85612811421658  19.2227891323176 9.85070079032063  20.5419346784282 11.7830453778584  C 21.6139491515638 11.1280133130067  22.9664907906977 10.8496246785239  24.5494654049719 10.9511546502117  L 24.7231250938252 10.9511546502117  Z " fill-rule="nonzero" fill="#f4f4f4" stroke="none" transform="matrix(1 0 0 1 181 648 )" />
  </g>
</svg>