<?xml version="1.0" encoding="utf-8"?>
<svg version="1.1" xmlns:xlink="http://www.w3.org/1999/xlink" width="29px" height="30px" xmlns="http://www.w3.org/2000/svg">
  <g transform="matrix(1 0 0 1 -230 -1404 )">
    <path d="M 0.379177517361112 4.38040865384616  C 0.359353298611112 3.50015024038462  0.693060980902778 2.62620192307693  1.28778754340278 1.96048677884615  C 1.98824327256944 1.16225961538462  3.06205512152778 0.676382211538462  4.15238715277778 1  L 22.5591742621528 1  C 23.0349555121528 0.657451923076923  23.5107367621528 0.733173076923077  23.9567816840278 0.887770432692308  C 24.8389594184028 1.19065504807692  25.5922797309028 1.81850961538462  26.0284125434028 2.61042668269231  C 26.3290798611111 3.14362980769231  26.4777615017361 3.74939903846154  26 4.35201322115385  L 26 16.8775540865385  C 25.8632107204861 16.568359375  25.2750922309028 16.2149939903846  24.6374131944444 15.953125  C 23.7354112413194 15.5871394230769  22.7574164496528 15.3883713942308  21.7794216579861 15.3725961538462  C 20.6560492621528 15.3536658653846  19.5293728298611 15.5713641826923  18.5051215277778 16.0099158653846  C 17.4676540798611 16.4547776442308  16.5359157986111 17.1236478365385  15.7991156684028 17.9502704326923  C 15.1184841579861 18.7106370192308  14.6030544704861 19.6066706730769  14.2990831163194 20.5658052884615  C 13.7605251736111 22.2379807692308  13.8794704861111 24.0931490384615  14.6327907986111 25.6896033653846  C 14.9004177517361 26.2543569711539  15.2374294704861 26.7875600961539  15.6438259548611 27.2734375  C 15.9973578559028 27.6899038461539  16.3541937934028 28.1032151442308  16.7077256944444 28  L 4.28454861111111 28  C 3.87815212673611 28.5291466346154  3.46845160590278 28.4755108173077  3.07857530381945 28.3619290865385  C 2.24265407986111 28.1189903846154  1.50254991319445 27.5889423076923  1.02016059027778 26.8948317307692  C 0.623676215277779 26.3332331730769  0.399001736111112 25.6612079326923  0.379177517361112 24.9828725961539  L 0.379177517361112 4.38040865384616  Z M 7.31765407986111 6  C 7.24826931423611 5.56039663461539  7.17888454861111 5.56670673076923  7.11280381944445 5.57932692307693  C 6.77248806423611 5.64873798076924  6.50816514756945 5.96108774038462  6.51807725694445 6.29552283653847  C 6.50486111111111 6.67097355769231  6.83856879340278 7.01802884615385  7.23174913194445 7  L 19.6185818142361 7  C 19.8234320746528 7.02749399038462  20.0216742621528 6.92653245192308  20.1571397569444 6.78140024038462  C 20.3685980902778 6.55423677884616  20.4049424913194 6.19771634615385  20.2463487413194 5.93584735576924  C 20.1141872829861 5.70552884615385  19.8432562934028 5.55724158653847  19.5690212673611 6  L 7.31765407986111 6  Z M 7.23505316840278 11  C 7.18218858506944 10.6526442307692  7.12932400173611 10.6589543269231  7.08306749131945 10.6747295673077  C 6.92116970486111 10.7157451923077  6.77579210069445 10.8103966346154  6.67667100694445 10.9365985576923  C 6.46521267361111 11.1921574519231  6.46851671006944 11.5865384615385  6.68327907986111 11.8420973557692  C 6.83196072048611 12.0250901442308  7.07645941840278 12.1292067307692  7.31765407986111 12.1228966346154  L 19.5690212673611 12.1228966346154  C 19.7771755642361 12.1228966346154  19.9820258246528 12.0440204326923  20.1274034288194 11.9020432692308  C 20.3652940538194 11.6780348557692  20.4148546006944 11.3025841346154  20.2529568142361 11.0280949519231  C 20.1307074652778 10.8103966346154  19.8829047309028 10.6589543269231  19.6218858506944 11  L 7.23505316840278 11  Z M 11.5864691840278 15.7417367788462  C 10.1095648871528 15.7354266826923  8.63266059027778 15.7354266826923  7.15906032986111 15.7385817307692  C 6.82535264756944 15.7638221153846  6.54120551215278 16.0383112980769  6.52138129340278 16.3569711538462  C 6.51807725694444 16.5021033653846  6.50816514756944 16.6535456730769  6.57094184027778 16.7892127403846  C 6.67667100694444 17.0416165865385  6.95090603298611 17.2151442307692  7.23505316840278 17.2119891826923  L 11.9697374131944 17.2119891826923  C 12.2869249131944 17.2119891826923  12.5875922309028 16.9816706730769  12.6503689236111 16.6819411057692  C 12.7329698350694 16.3254206730769  12.5182074652778 15.9373497596154  12.1679796006944 15.8016826923077  C 11.9862575954861 15.7196514423077  11.7814073350694 15.7417367788462  11.5864691840278 15.7417367788462  Z M 7.45972764756944 20.8213641826923  C 7.33087022569444 20.8213641826923  7.20201280381944 20.8118990384616  7.08306749131944 20.8466045673077  C 6.87821723090278 20.9002403846154  6.69979926215278 21.0390625  6.60398220486111 21.2189002403846  C 6.48503689236111 21.4334435096154  6.49164496527778 21.7079326923077  6.61719835069444 21.9193209134615  C 6.74605577256944 22.1401742788462  6.99716254340278 22.2884615384616  7.26148546006944 22.2916165865385  L 10.3738878038194 22.2916165865385  C 10.5787380642361 22.2916165865385  10.7835883246528 22.2064302884615  10.9223578559028 22.0612980769231  C 11.1536404079861 21.8372896634615  11.1998969184028 21.4649939903846  11.0346950954861 21.1936598557692  C 10.9058376736111 20.9696514423077  10.6415147569444 20.8182091346154  10.3738878038194 20.8213641826923  L 7.45972764756944 20.8213641826923  Z M 18.7661404079861 16.6945612980769  C 19.6119737413194 16.3317307692308  20.5404079861111 16.1298076923077  21.4688422309028 16.1045673076923  C 23.0382595486111 16.0603966346154  24.6175889756944 16.5494290865385  25.8599066840278 17.4675480769231  C 26.7057400173611 18.0859375  27.3962836371528 18.8936298076923  27.8621527777778 19.80859375  C 28.3941026475694 20.8434495192308  28.6253851996528 22.0139723557692  28.5427842881944 23.1624098557692  C 28.4733995225694 24.1594050480769  28.1595160590278 25.140625  27.6308702256944 26.0051081730769  C 27.0989203559028 26.8822115384615  26.3522081163194 27.6394230769231  25.4700303819444 28.1978665865385  C 24.6506293402778 28.7184495192308  23.7089789496528 29.0686598557692  22.7342881944444 29.2137920673077  C 21.4457139756944 29.4094050480769  20.1009711371528 29.2516526442308  18.9049099392361 28.7531550480769  C 17.9863878038194 28.3745492788462  17.1570746527778 27.8003305288462  16.4929633246528 27.0872896634615  C 15.6933865017361 26.2322716346154  15.1317003038194 25.1753305288462  14.8872016059028 24.0521334134615  C 14.6526150173611 22.9731069711539  14.6988715277778 21.8372896634615  15.0358832465278 20.7835036057692  C 15.3035101996528 19.9347956730769  15.7561631944444 19.1397235576923  16.3508897569444 18.4582331730769  C 17.0083930121528 17.7104867788462  17.8377061631944 17.1015625  18.7661404079861 16.6945612980769  Z M 25.4700303819444 20.2786959134615  C 25.1891872829861 19.9947415865385  24.6539333767361 20.0042067307692  24.3763943142361 20.30078125  C 23.3422309027778 21.3892728365385  22.3080674913194 22.474609375  21.2772081163194 23.5662560096154  C 20.4677191840278 22.8721454326923  19.6648383246528 22.1717247596154  18.8553493923611 21.4744591346154  C 18.7165798611111 21.3608774038462  18.5315538194444 21.2946213942308  18.3498318142361 21.3009314903846  C 18.0689887152778 21.2977764423077  17.7947536892361 21.4618389423077  17.6725043402778 21.7016225961539  C 17.5172146267361 21.9855769230769  17.5865993923611 22.3641826923077  17.8410101996528 22.5755709134615  C 18.7826605902778 23.3895733173077  19.7243109809028 24.2067307692308  20.6659613715278 25.0207331730769  C 20.7683865017361 25.1059194711539  20.8642035590278 25.2068810096154  20.9930609809028 25.263671875  C 21.2144314236111 25.3646334134615  21.4919704861111 25.3583233173077  21.7034288194444 25.2384314903846  C 21.8421983506944 25.1690204326923  21.9380154079861 25.0459735576923  22.0437445746528 24.935546875  L 25.3940375434028 21.4050480769231  C 25.4766384548611 21.3167067307692  25.5724555121528 21.2315204326923  25.6220160590278 21.1179387019231  C 25.7640896267361 20.8434495192308  25.7013129340278 20.4869290865385  25.4700303819444 20.2786959134615  Z " fill-rule="nonzero" fill="#30a3f6" stroke="none" transform="matrix(1 0 0 1 230 1404 )" />
  </g>
</svg>