<?xml version="1.0" encoding="utf-8"?>
<svg version="1.1" xmlns:xlink="http://www.w3.org/1999/xlink" width="25px" height="15px" xmlns="http://www.w3.org/2000/svg">
  <g transform="matrix(1 0 0 1 -96 -519 )">
    <path d="M 23.3592920353982 4.48615384615385  C 20.3230088495575 1.77046153846154  16.5477876106195 0.0350769230769231  12.4495575221239 0.0350769230769231  C 8.4716814159292 0.0350769230769231  4.79557522123894 1.83415384615385  1.80265486725664 4.48061538461539  C 0.26911606354847 5.83682420561841  -0.247581631907334 8.07177239724848  0.524778761061948 10.008  L 2.35132743362832 14.5772307692308  C 4.09734513274336 10.5756923076923  7.96194690265487 7.79353846153846  12.4495575221239 7.79353846153846  C 17.0469026548673 7.79353846153846  20.9902654867257 10.7104615384615  22.6716814159292 14.8661538461538  L 24.6176991150442 9.996  C 25.3877915435956 8.06904073641698  24.8796009262494 5.84396415849982  23.3592920353982 4.48615384615385  Z M 14.6504424778761 3.36276923076923  L 14.6504424778761 5.232  L 13.3690265486726 5.232  L 13.3690265486726 6.63415384615385  L 11.5796460176991 6.63415384615385  L 11.5796460176991 5.232  L 10.2336283185841 5.232  L 10.2336283185841 3.36276923076923  L 11.5796460176991 3.36276923076923  L 11.5796460176991 1.95969230769231  L 13.3690265486726 1.95969230769231  L 13.3690265486726 3.36276923076923  L 14.6504424778761 3.36276923076923  Z " fill-rule="nonzero" fill="#30a3f6" stroke="none" transform="matrix(1 0 0 1 96 519 )" />
  </g>
</svg>