<?xml version="1.0" encoding="utf-8"?>
<svg version="1.1" xmlns:xlink="http://www.w3.org/1999/xlink" width="27px" height="28px" xmlns="http://www.w3.org/2000/svg">
  <g transform="matrix(1 0 0 1 -366 -520 )">
    <path d="M 12.8633684210526 0.0656551724137936  C 12.9088421052632 0.158344827586207  12.8330526315789 -0.0115862068965513  12.8633684210526 0.0656551724137932  C 15.6827368421053 0.0656551724137932  18.5475789473684 2.50648275862069  19.4873684210526 5.6888275862069  C 20.3210526315789 8.50041379310345  19.3054736842105 11.3274482758621  16.7286315789474 13.3975172413793  C 14.4397894736842 15.2358620689655  11.9538947368421 15.3903448275862  9.39221052631579 13.8609655172414  C 4.60231578947369 10.9875862068966  4.73873684210526 4.17489655172414  9.69536842105263 1.10068965517241  C 10.6351578947368 0.513655172413794  11.6355789473684 0.204689655172414  12.8633684210526 0.0656551724137936  Z M 10.6351578947368 27.9343448275862  C 10.6503157894737 27.9343448275862  4.86 27.4708965517241  2.28315789473684 27.1773793103448  C 2.25284210526316 27.1773793103448  2.22252631578947 27.1619310344828  2.19221052631579 27.1619310344828  C -0.00568421052631558 26.6830344827586  -0.11178947368421 26.5131034482759  0.570315789473684 24.3966896551724  C 1.02505263157895 22.96  1.44947368421053 21.5233103448276  1.94968421052632 20.1175172413793  C 2.7378947368421 17.8620689655172  4.43557894736842 16.7034482758621  6.67894736842105 16.5953103448276  C 9.30126315789474 16.456275862069  11.9387368421053 16.5335172413793  14.5762105263158 16.5644137931034  C 15.4856842105263 16.5798620689655  15.6372631578947 16.8888275862069  15.2583157894737 17.7384827586207  C 15.1673684210526 17.9547586206897  15.0461052631579 18.1555862068966  14.9248421052632 18.3564137931034  C 13.3938947368421 20.8744827586207  12.8936842105263 23.5624827586207  13.5909473684211 26.4822068965517  C 13.8789473684211 27.6871724137931  13.6515789473684 27.9034482758621  12.4541052631579 27.9343448275862  C 11.8477894736842 27.9497931034483  11.2414736842105 27.9343448275862  10.6351578947368 27.9343448275862  Z M 26.2629473684211 27.0846896551724  L 26 27.1001379310345  L 26 15.112275862069  L 24.6107368421053 13.9845517241379  L 18.6082105263158 16.7188965517241  L 18.6082105263158 18.8353103448276  L 15.2886315789474 20.0093793103448  L 15.2886315789474 27.0846896551724  L 14.9551578947368 27.0846896551724  L 14.9551578947368 27.9188965517241  L 16.0465263157895 27.9188965517241  L 16.0465263157895 20.488275862069  L 20.4574736842105 19.0206896551724  L 20.4574736842105 27.9188965517241  L 23.4738947368421 27.9188965517241  L 23.4738947368421 27.0074482758621  L 22.7917894736842 27.0074482758621  L 22.7917894736842 18.8971034482759  L 21.2002105263158 17.9084137931034  L 19.4115789473684 18.5417931034483  L 19.4115789473684 17.1977931034483  L 23.7467368421053 15.2358620689655  L 23.7467368421053 27.9188965517241  L 26.7934736842105 27.9188965517241  L 26.7934736842105 27.0846896551724  L 26.2629473684211 27.0846896551724  Z M 16.5618947368421 21.0753103448276  L 16.5618947368421 22.4038620689655  L 19.7450526315789 21.3533793103448  L 19.7450526315789 19.9475862068966  L 16.5618947368421 21.0753103448276  Z M 16.5618947368421 22.96  L 16.5618947368421 24.2267586206897  L 19.7450526315789 23.5315862068966  L 19.7450526315789 22.1257931034483  L 16.5618947368421 22.96  Z M 16.5618947368421 24.7828965517241  L 16.5618947368421 26.1114482758621  L 19.7450526315789 25.6943448275862  L 19.7450526315789 24.2885517241379  L 16.5618947368421 24.7828965517241  Z M 16.5618947368421 26.6057931034483  L 16.5618947368421 27.9343448275862  L 19.7450526315789 27.8571034482759  L 19.7450526315789 26.4667586206897  L 16.5618947368421 26.6057931034483  Z " fill-rule="nonzero" fill="#30a3f6" stroke="none" transform="matrix(1 0 0 1 366 520 )" />
  </g>
</svg>