<?xml version="1.0" encoding="utf-8"?>
<svg version="1.1" xmlns:xlink="http://www.w3.org/1999/xlink" width="32px" height="34px" xmlns="http://www.w3.org/2000/svg">
  <g transform="matrix(1 0 0 1 -94 -680 )">
    <path d="M 18.4178431847826 13.6000000332031  C 18.378443423913 13.7404130162761  18.3291937173913 13.8908554902344  18.2700941630435 14.051327421875  C 17.2654000543478 14.4725663489583  16.3444304456522 15.0342182701823  15.5071853369565 15.7362831855469  C 14.6699402282609 16.4383481009115  13.9459694673913 17.2407079804688  13.3352730543478 18.1433628242188  C 12.7245766413043 19.0460176679688  12.2517794130435 20.0339232727865  11.9168813695652 21.1070796386719  C 11.581983326087 22.1802360045573  11.4145343043478 23.3085545924479  11.4145343043478 24.4920354023438  C 11.4145343043478 25.5351032513021  11.5475085217391 26.5330383580729  11.8134569565217 27.4858407226562  C 12.0794053913044 28.4386430872396  12.4487782282609 29.3362832076823  12.9215754673913 30.1787610839844  L 12.1237301304348 30.1787610839844  C 11.5524334782609 30.1787610839844  10.8875623695652 30.1587020911458  10.1291168043478 30.1185841054688  C 9.37067123913044 30.0784661197917  8.58760082608696 30.023303875651  7.77990556521739 29.9530973730469  C 6.97221030434783 29.8828908704427  6.16944001086957 29.8026548769531  5.37159468478261 29.7123893925781  C 4.57374935869565 29.6221239082031  3.84977859782609 29.5268436673177  3.19968240217391 29.4265486699219  C 2.54958620652174 29.3262536725261  1.99798943478261 29.2259586861979  1.54489208695652 29.1256637109375  C 1.09179473913043 29.0253687356771  0.806146413043478 28.925073749349  0.687947108695651 28.8247787519531  C 0.471248369565217 28.664306764974  0.308724326086956 28.1678465898438  0.200374978260869 27.3353982265625  C 0.0920256304347818 26.5029498632813  0.136350369565217 25.434808264974  0.333349195652173 24.1309734316406  C 0.412148739130434 23.6294985110677  0.574672782608695 23.2182890748698  0.820921326086956 22.8973451230469  C 1.06716986956522 22.576401171224  1.36759310869565 22.3005899615885  1.72219104347826 22.0699114941406  C 2.07678897826087 21.8392330266927  2.47078667391304 21.6536873014323  2.90418413043478 21.5132743183594  C 3.33758158695652 21.3728613352865  3.78082898913043 21.237463108724  4.23392633695652 21.1070796386719  C 4.68702368478261 20.9766961686198  5.12534611956522 20.8362831855469  5.54889364130435 20.6858406894531  C 5.97244116304348 20.5353981933594  6.36151388043478 20.349852468099  6.71611179347826 20.1292035136719  C 7.12980935869565 19.8684365514323  7.44993247826087 19.6126843346354  7.67648115217391 19.3619468632813  C 7.90302982608696 19.1112093919271  8.06555386956522 18.8654866770833  8.16405328260869 18.62477871875  C 8.26255269565217 18.3840707604167  8.31180240217391 18.1333333001302  8.31180240217391 17.8725663378906  C 8.31180240217391 17.611799375651  8.30195245652174 17.3209439186198  8.28225256521739 16.9999999667969  C 8.24285280434782 16.538643031901  8.08525372826087 16.1725663378906  7.80945533695652 15.9017698847656  C 7.53365694565217 15.6309734316406  7.22830873913043 15.3551622220052  6.8934107173913 15.0743362558594  C 6.73581163043478 14.9339232727865  6.5929874673913 14.7383480566406  6.46493822826087 14.4876106074219  C 6.33688898913043 14.2368731582031  6.22361465217391 13.9811209414063  6.1251152173913 13.7203539570313  C 6.02661580434782 13.4194690091146  5.92811638043478 13.1085545592448  5.82961694565217 12.7876106074219  C 5.69171775 12.7474926217448  5.55381855434782 12.6772861302083  5.41591935869565 12.5769911328125  C 5.29772005434782 12.4766961575521  5.16967080434782 12.3362831744792  5.03177160869565 12.1557521835938  C 4.89387241304348 11.9752211927083  4.77567310869565 11.7144542304688  4.67717369565217 11.373451296875  C 4.57867428260869 11.0324483632813  4.53927451086956 10.7215339134115  4.55897438043478 10.4407079472656  C 4.57867425 10.1598819811198  4.63777390217391 9.90914452083334  4.73627333695652 9.68849556640626  C 4.81507288043478 9.46784658984376  4.94312213043478 9.25722712630209  5.12042108695652 9.05663717578126  C 5.12042108695652 8.29439529296876  5.15982085869565 7.53215341015626  5.23862040217391 6.76991152734376  C 5.31741994565217 6.12802362369792  5.45531914130435 5.43598822135417  5.65231798913043 4.69380532031251  C 5.84931683695652 3.95162241927084  6.15466504347826 3.28967551171876  6.56836260869565 2.70796459765626  C 6.96236030434782 2.14631268750001  7.38590782608695 1.68997050911459  7.83900517391304 1.33893806250001  C 8.29210252173913 0.987905615885423  8.76489975 0.712094406250007  9.25739685869565 0.511504433593757  C 9.7498939673913 0.310914460937507  10.2374661086957 0.175516234375007  10.7201132826087 0.105309753906257  C 11.2027604565217 0.0351032513020856  11.6706327173913 0  12.1237300652174 0  C 12.6950267173913 0  13.2613984021739 0.0651917460937523  13.8228451195652 0.195575238281257  C 14.3842918369565 0.325958730468761  14.91126375 0.501474953776053  15.4037608586956 0.722123908203132  C 15.8962579673913 0.942772862630211  16.3345804021739 1.19351032291667  16.7187281630435 1.47433628906251  C 17.102875923913 1.75516225520834  17.4032991630435 2.03598821028647  17.6199978804348 2.31681415429688  C 18.1321948804348 2.95870205794271  18.5064926847826 3.6657817076823  18.7428912934783 4.43805310351563  C 18.9792899021739 5.21032449934897  19.146738923913 5.94749264388021  19.2452383586957 6.64955753710938  C 19.3437377717391 7.45191742773438  19.3929874782609 8.2643068092448  19.3929874782609 9.08672568164063  C 19.530886673913 9.18702065690105  19.6392360434783 9.31740413802084  19.7180355869565 9.47787612500001  C 19.7968351304348 9.61828910807293  19.86085975 9.79882007682292  19.9101094456522 10.01946903125  C 19.9593591413043 10.2401179856771  19.9642841086956 10.5109144498698  19.9248843478261 10.8318584238281  C 19.8854845869565 11.2731563548177  19.8017600760869 11.6191740559896  19.6737108152174 11.8699115273438  C 19.5456615543478 12.1206489986979  19.4028373913043 12.3162242148438  19.245238326087 12.4566371757813  C 19.0679393695652 12.6171091627604  18.8807904673913 12.7274336510417  18.6837916195652 12.787610640625  C 18.6443918586956 12.9079646197917  18.6049920869565 13.0383481009115  18.5655923043478 13.1787610839844  L 18.4178431847826 13.6000000332031  Z M 18.8463157717391 15.7663716582031  C 19.9790591195652 15.2648967376302  21.1955269891304 15.0141592773437  22.4957193804348 15.0141592773437  C 23.7762118804348 15.0141592773437  24.9828298152174 15.2648967376302  26.1155731847826 15.7663716582031  C 27.2483165543478 16.267846578776  28.2333107826087 16.9498524791667  29.0705558695652 17.812389359375  C 29.9078009565217 18.6749262395833  30.5726720652174 19.6828908372396  31.0651691956522 20.8362831523437  C 31.557666326087 21.9896754674479  31.8039148804348 23.2182890416667  31.8039148586956 24.522123875  C 31.8039148369565 25.8259587083333  31.5576662826087 27.0545722825521  31.0651691956522 28.2079645976562  C 30.5726721086957 29.3613569127604  29.907801 30.3693215104167  29.0705558695652 31.231858390625  C 28.2333107391304 32.0943952708333  27.2483165108696 32.7713864257813  26.1155731847826 33.2628318554687  C 24.9828298586956 33.7542772851562  23.776211923913 34  22.4957193804348 34  C 21.1955269891304 34  19.9790591195652 33.7542772851562  18.8463157717391 33.2628318554687  C 17.713572423913 32.7713864257812  16.7285781956522 32.0943952708333  15.8913330869565 31.231858390625  C 15.0540879782609 30.3693215104167  14.3892168695652 29.3613569127604  13.8967197608696 28.2079645976562  C 13.4042226521739 27.0545722825521  13.1579740978261 25.8259587083333  13.1579740978261 24.522123875  C 13.1579740978261 23.2182890416667  13.4042226521739 21.9896754674479  13.8967197608696 20.8362831523437  C 14.3892168695652 19.6828908372396  15.0540879782609 18.6749262395833  15.8913330869565 17.812389359375  C 16.7285781956522 16.9498524791667  17.713572423913 16.267846578776  18.8463157717391 15.7663716582031  Z M 27.4896400978261 23.9504424628906  C 27.6669390543478 23.4489675201823  27.8146881847826 23.0176990800781  27.9328875217391 22.6566371757812  C 28.051086826087 22.2554572304688  27.9969121413043 21.8893805364583  27.7703634673913 21.55840709375  C 27.5438147934783 21.2274336510417  27.2433915543478 20.991740438151  26.86909375 20.8513274550781  C 26.4947959456522 20.7109144720052  26.1204981413043 20.7008849700521  25.7462003369565 20.8212389492187  C 25.3719025326087 20.9415929283854  25.0961041521739 21.2525073782552  24.9188051956522 21.7539822988281  C 24.8203057826087 22.0949852545573  24.726731326087 22.4109144609375  24.638081826087 22.7017699179688  C 24.549432326087 22.992625375  24.4607828478261 23.2985250794271  24.3721333913043 23.61946903125  C 24.2834839347826 23.9404129830729  24.1751345652174 24.2864306842448  24.0470852826087 24.6575221347656  C 23.919036 25.0286135852865  23.7565119565217 25.4548672688802  23.5595131521739 25.9362831855469  C 23.3625143043478 26.457817110026  23.0817909456522 26.7035398248698  22.717343076087 26.6734513300781  C 22.3528952065217 26.6433628352865  22.0721718478261 26.4277286152344  21.875173 26.0265486699219  C 21.6584742608696 25.6253687246094  21.4565504456522 25.1941002845052  21.2694015543478 24.7327433496094  C 21.0822526630435 24.2713864147135  20.9000287282609 23.8200589817708  20.72272975 23.3787610507812  C 20.5454307717391 22.9374631197917  20.3878316956522 22.5362831744792  20.2499325217391 22.1752212148438  C 20.1120333478261 21.8141592552083  19.9938340434783 21.5233037981771  19.8953346086957 21.30265484375  C 19.7377355217391 20.9817108919271  19.4767120543478 20.8011799231771  19.1122642065217 20.7610619375  C 18.7478163586957 20.7209439518229  18.3932184347826 20.7761061959635  18.0484704347826 20.9265486699219  C 17.7037224347826 21.0769911438802  17.4180741086957 21.3126843567708  17.1915254565217 21.6336283085937  C 16.9649768043478 21.9545722604167  16.9305020108696 22.3056047070313  17.088101076087 22.6867256484375  C 17.2260002717391 23.08790559375  17.3835993478261 23.5392330266927  17.5608983043478 24.0407079472656  C 17.7381972608696 24.5421828678385  17.9253461630435 25.0536872903646  18.1223450108696 25.5752212148437  C 18.3193438586957 26.0967551393229  18.5064927608696 26.608259561849  18.6837917173913 27.1097344824219  C 18.8610906739131 27.6112094029948  19.01868975 28.042477843099  19.1565889456522 28.4035398027344  C 19.4520872065217 29.1657816855469  19.900259576087 29.7374630976562  20.5011060543478 30.1185840390625  C 21.1019525326087 30.4997049804687  21.7323488369565 30.700294953125  22.3922949673913 30.7203539570312  C 23.0522410978261 30.7404129609375  23.6826374021739 30.5899704869792  24.2834838804348 30.2690265351562  C 24.8843303586957 29.9480825833333  25.3226527934783 29.466666655599  25.5984511847826 28.8247787519531  C 25.8151499239131 28.303244827474  26.0367736304348 27.7566371536458  26.2633223043478 27.1849557304687  C 26.4898709782609 26.6132743072917  26.7065697065217 26.0566371425781  26.9134184891304 25.5150442363281  C 27.1202672717391 24.9734513300781  27.3123411413044 24.451917405599  27.4896400978261 23.9504424628906  Z " fill-rule="nonzero" fill="#30a3f6" stroke="none" transform="matrix(1 0 0 1 94 680 )" />
  </g>
</svg>