<?xml version="1.0" encoding="utf-8"?>
<svg version="1.1" xmlns:xlink="http://www.w3.org/1999/xlink" width="31px" height="28px" xmlns="http://www.w3.org/2000/svg">
  <g transform="matrix(1 0 0 1 -158 -683 )">
    <path d="M 30.0243303571429 13.496  C 31.1799107142857 12.208  31.2352678571429 10.3145  30.2422991071429 9.0335  L 24.1876116071429 1.4035  C 23.5821428571429 0.623  22.5926339285714 0.122500000000001  21.5996651785714 0.122500000000001  L 9.37611607142857 0.122500000000001  C 8.38660714285714 0.122500000000001  7.44899553571429 0.567  6.78816964285714 1.4035  L 0.733482142857143 9.0335  C -0.311383928571429 10.3145  -0.204129464285714 12.208  0.899553571428572 13.4365  L 13.1784598214286 26.5825  L 13.34453125 26.7505  C 13.95 27.307  14.7768973214286 27.643  15.6003348214286 27.643  L 15.7110491071429 27.643  C 16.5933035714286 27.587  17.4167410714286 27.2545  18.0222098214286 26.586  L 30.0243303571429 13.496  Z M 22.9178571428571 11.2105  C 23.3607142857143 11.5955  23.3607142857143 12.32  22.9766741071429 12.768  L 17.2506696428571 19.061  C 16.3684151785714 19.9535  14.9948660714286 20.0095  14.1126116071429 19.173  L 14.0018973214286 19.061  L 8.05446428571429 12.712  C 7.67042410714286 12.2675  7.67042410714286 11.543  8.10982142857143 11.151  C 8.60457589285715 10.7065  9.26540178571429 10.7625  9.70479910714286 11.207  L 15.2924107142857 17.178  C 15.4584821428571 17.353  15.7318080357143 17.353  15.8978794642857 17.178  L 21.3228794642857 11.3225  C 21.7622767857143 10.878  22.4231026785714 10.822  22.9178571428571 11.2105  Z " fill-rule="nonzero" fill="#30a3f6" stroke="none" transform="matrix(1 0 0 1 158 683 )" />
  </g>
</svg>