<?xml version="1.0" encoding="utf-8"?>
<svg version="1.1" xmlns:xlink="http://www.w3.org/1999/xlink" width="26px" height="29px" xmlns="http://www.w3.org/2000/svg">
  <g transform="matrix(1 0 0 1 -94 -838 )">
    <path d="M 24.5203055328947 27.9504761796875  C 24.5203055328947 27.9504761796875  27.9003365504386 18.6310204052734  23.8609810263158 13.8726530537109  L 25.0008974868421 3.85877551367187  L 24.7188972390351 3.66938775683594  C 21.2609677693139 1.29292292227431  17.1590938174627 0.0135423933817272  12.9543239013158 0  C 8.8762053756473 0.0125465204618298  4.87875946021662 1.12977969729677  1.39231411184211 3.23142856738281  L 1.10237020833333 3.42476191015625  L 2.25420216666667 12.7126530537109  C 1.28507460307018 14.2948299277344  -1.63819548464912 20.0829931982422  1.74183553289474 27.9504761796875  L 8.80375699780702 27.9504761796875  C 11.5349125627124 29.3497917523609  14.7788623364104 29.3497917523609  17.5100179013158 27.9504761796875  L 24.5203055328947 27.9504761796875  Z M 22.4867263377193 17.4591836757812  C 22.5065855197368 23.1368707382812  18.3202720942982 27.7571428652344  13.1568874495614 27.7571428652344  C 7.99350280482456 27.7571428652344  3.80321756578947 23.1368707666016  3.80321756578947 17.4434013603516  C 3.80228611793571 16.5734450296212  3.9022408378194 15.7062777973638  4.10110515350877 14.8590476123047  C 5.80899392324561 14.9616326484375  10.1422651929825 14.8590476123047  12.0447738267544 11.3080272070312  L 12.2751402412281 11.3277551083984  C 13.3912257061404 12.1642176845703  19.8970903596491 16.9107483066406  22.4192051644737 16.2281632705078  C 22.4639117331288 16.6370042042391  22.4864513417907 17.0479377952295  22.4867263377193 17.4591836757812  Z M 23.8014035087719 4.4151020546875  L 22.7607829013158 13.5530612158203  C 20.8821052631579 12.5311564404297  15.8299319692982 10.08884353125  10.4997302697368 10.08884353125  C 7.97206675697819 10.0396233327117  5.48346648056995 10.7134723077548  3.33056926754386 12.0300680175781  L 2.31377968421053 3.98897959472656  C 5.55720063791877 2.14960006889465  9.21979254641942 1.16361128941073  12.9543239013158 1.12448978320313  C 16.8171949800547 1.13718381824865  20.5904248084382 2.28184549915628  23.8014035087719 4.4151020546875  Z " fill-rule="nonzero" fill="#30a3f6" stroke="none" transform="matrix(1 0 0 1 94 838 )" />
  </g>
</svg>