<?xml version="1.0" encoding="utf-8"?>
<svg version="1.1" xmlns:xlink="http://www.w3.org/1999/xlink" width="24px" height="23px" xmlns="http://www.w3.org/2000/svg">
  <g transform="matrix(1 0 0 1 -299 -844 )">
    <path d="M 21.4098011695906 22  C 23.710081871345 22.2744726759427  24.6508771929825 20.6304759023997  23.5007485380117 18.6151119177253  L 14.0880233918129 2.14738556160516  C 12.9368421052632 0.134085501109095  11.0553684210526 0.134085501109095  9.90402339181287 2.14738556160516  L 0.491321637426901 18.6151119177253  C -0.659719298245614 20.6304759023997  0.281988304093567 22.2744726759427  2.58226900584795 22  L 21.4098011695906 22  Z M 12.74 17.8463813268804  L 12.74 19.3224117765679  L 11.251134502924 19.3224117765679  L 11.251134502924 17.8463813268804  L 12.74 17.8463813268804  Z M 12.74 6.03818410969954  L 12.74 14.8943436176649  L 11.251134502924 14.8943436176649  L 11.251134502924 6.03818410969954  L 12.74 6.03818410969954  Z " fill-rule="nonzero" fill="#30a3f6" stroke="none" transform="matrix(1 0 0 1 299 844 )" />
  </g>
</svg>