<?xml version="1.0" encoding="utf-8"?>
<svg version="1.1" xmlns:xlink="http://www.w3.org/1999/xlink" width="25px" height="28px" xmlns="http://www.w3.org/2000/svg">
  <g transform="matrix(1 0 0 1 -232 -1166 )">
    <path d="M 2.1669950700431 0  L 20.9216748653017 0  C 22.0231526939655 0  22.9039408674569 0.919181106299213  23 2.02985826377953  L 23 14.088063003937  L 14.3669950700431 14.0598425314961  C 13.0706287942452 14.0558567178779  12.0128456396076 15.1204275031347  11.9955665140086 16.4464881771654  L 11.8576354795259 27.1349921141732  L 2.1669950700431 27.1349921141732  C 1.08325123922414 27.1349921141732  0.184729067887931 26.2329448858268  0.184729067887931 25.1061417401575  L 0.184729067887931 2.02985826377953  C 0.184729067887931 0.919181106299213  1.06551724137931 0  2.1669950700431 0  Z M 17.9906403825431 11.2821417204724  C 17.9906403825431 10.7005984212598  17.547290625 10.2067401535433  17.0192118265086 10.2067401535433  L 4.96305417564655 10.2067401535433  C 4.43497535021552 10.2067401535433  3.99162559267241 10.6824566811024  3.99162561961207 11.2821417204724  C 3.99162561961207 11.863685019685  4.43497537715517 12.3575432874016  4.96305417564655 12.3575433149606  L 17.0201970366379 12.3575433149606  C 17.5650246228448 12.3575433149606  17.9916256196121 11.8818267874016  17.9916256196121 11.2821417204724  Z M 4.9433497575431 14.2805669173228  C 4.41625616918103 14.2805669173228  3.97290641163793 14.7562834448819  3.97290641163793 15.355968511811  C 3.97290641163793 15.9385197007874  4.41625616918104 16.4323779685039  4.9433497575431 16.4323779409449  L 9.69507389547414 16.4323779409449  C 10.2231527209052 16.4323779409449  10.6665024784483 15.955653523622  10.6665024515086 15.355968511811  C 10.6665024515086 14.7744252125984  10.2231526939655 14.2805669448819  9.69507389547414 14.2805669173228  L 4.94433496767241 14.2805669173228  Z M 4.96305417564655 7.96623620866142  L 4.96108375538793 8  L 17.0182265894397 8  C 17.5463054148707 7.96623620866142  17.9896551724138 7.49051968110236  17.9896551724138 6.89083464173228  C 17.9896551724138 6.30828345275591  17.5463054148707 5.81442518503937  17.0182265894397 6  L 4.96305417564655 6  C 4.43497535021552 5.81442518503937  3.99162559267241 6.2911496023622  3.99162561961207 6.89083464173228  C 3.99162561961207 7.49051968110236  4.43497537715517 7.96623620866142  4.96305417564655 7.96623620866142  Z M 24.8152709321121 20.8357795314961  C 24.8157662862535 22.2392873055792  24.3553406768006 23.6022754002494  23.5078817618535 24.7060157598425  L 24.4211822737069 25.6403149645669  C 24.6728067732517 25.8851717147983  24.815246637422 26.2248904323767  24.815246637422 26.580157480315  C 24.815246637422 26.9354245282533  24.6728067732517 27.2751432458316  24.4211822737069 27.519999996063  C 24.1818581907303 27.7770879765443  23.8499897453835 27.9225952698244  23.5029556707974 27.9225952698244  C 23.1559215962113 27.9225952698244  22.8240531508646 27.7770879765443  22.5847290678879 27.519999996063  L 21.5059113415948 26.4163779566929  C 20.62772976863 26.8892798015883  19.6500560155042 27.1359448840508  18.6576354795259 27.1349921141732  C 15.2704433728448 27.1349921141732  12.5 24.3008503858268  12.5 20.8357795314961  C 12.5 17.3717165393701  15.2714285829741 14.5365669212598  18.6576354795259 14.5365669212598  C 22.0448275862069 14.5365669212598  24.8152709590517 17.3717165393701  24.8152709321121 20.8357795314961  Z M 18.6211822737069 16.8627401456693  C 18.6089696778539 16.8626200239025  18.5967565880792 16.862559961978  18.5845434277432 16.862559961978  C 16.4798760221667 16.862559961978  14.7737059816225 18.6079584790449  14.7737059816225 20.7610166627654  C 14.7737059816225 20.7738433598848  14.7737678624244 20.7866699788981  14.7738916217672 20.7994960511811  C 14.7737677992372 20.8123253970571  14.7737058868407 20.8251552900819  14.7737058868407 20.8379852612729  C 14.7737058868407 22.9910434449935  16.4798759273848 24.7364419620603  18.5845433329614 24.7364419620603  C 18.5970849458096 24.7364419620603  18.6096264822488 24.7363786261661  18.6221674838362 24.7362519566929  C 18.6347084854236 24.7363786261661  18.6472500218629 24.7364419620603  18.6597916347111 24.7364419620603  C 20.7644590402876 24.7364419620603  22.4706290808318 22.9910434449935  22.4706290808318 20.8379852612729  C 22.4706290808318 20.825155290082  22.4705671684352 20.812325397057  22.4704433459052 20.7994960511811  C 22.4705671684352 20.7866667053053  22.4706290808318 20.7738368122801  22.4706290808318 20.7610068410893  C 22.4706290808318 18.6079486573687  20.7644590402876 16.8625501403019  18.6597916347111 16.8625501403019  C 18.6472500218628 16.8625501403019  18.6347084854237 16.8626134761961  18.6221674838362 16.8627401456693  Z " fill-rule="nonzero" fill="#30a3f6" stroke="none" transform="matrix(1 0 0 1 232 1166 )" />
  </g>
</svg>