<?xml version="1.0" encoding="utf-8"?>
<svg version="1.1" xmlns:xlink="http://www.w3.org/1999/xlink" width="24px" height="29px" xmlns="http://www.w3.org/2000/svg">
  <g transform="matrix(1 0 0 1 -161 -1001 )">
    <path d="M 1.77550515463917 17.9091681415929  C 2.8760412371134 16.7306902654867  4.29327835051546 16.1127079646018  6.02523711340206 16  L 17.8777731958763 16  C 19.6097319587629 16.0942300884956  21.0249896907217 16.6834690265487  22.1255257731959 17.8249911504425  C 23.2260618556701 18.9665132743363  23.7941443298969 20.4344778761062  23.8297731958763 22.2309380530973  L 23.8297731958763 26.9469026548673  C 23.8119587628866 27.5648849557522  23.6258969072165 28.0596814159292  23.2755463917526 28.4353982300885  C 22.9232164948454 28.8090619469027  22.4501443298969 28.9958938053097  21.8543505154639 29  L 2.04668041237113 29  C 1.45088659793814 28.9958938053097  0.97781443298969 28.8090619469027  0.625484536082474 28.4353982300885  C 0.273154639175258 28.0617345132743  0.0890721649484535 27.5648849557522  0.0712577319587621 26.9469026548673  L 0.0712577319587621 22.2309380530973  C 0.106886597938143 20.5289203539823  0.674969072164948 19.0876460176991  1.77550515463917 17.9091681415929  Z M 7.05253608247423 2.35695575221239  C 5.75208247422681 3.70378761061947  5.07711340206186 5.39964601769911  5.02367010309278 7.43837168141593  C 5.07711340206185 9.47915044247788  5.7540618556701 11.1709026548673  7.05253608247422 12.5197876106195  C 8.35101030927835 13.8686725663717  9.984 14.5687787610619  11.9515051546392 14.6242123893805  C 13.917030927835 14.5687787610619  15.5500206185567 13.8666194690265  16.8504742268041 12.5197876106195  C 18.1509278350515 11.1729557522124  18.8258969072165 9.47915044247788  18.8793402061856 7.43837168141593  C 18.8258969072165 5.39964601769911  18.1489484536082 3.7058407079646  16.8504742268041 2.35695575221239  C 15.552 1.00807079646018  13.9170309278351 0.310017699115044  11.9515051546392 0.252530973451327  C 9.984 0.307964601769911  8.35298969072165 1.01012389380531  7.05253608247423 2.35695575221239  Z M 11.923793814433 27.082407079646  C 12.1039175257732 27.0885663716814  12.248412371134 27.0413451327434  12.3572783505155 26.9469026548673  L 15.9023505154639 23.2410619469027  C 16.4070927835052 22.6990442477876  16.6604536082474 22.0892743362832  16.6604536082474 21.4158584070796  C 16.6604536082474 20.7424424778761  16.4070927835052 20.1901592920354  15.9023505154639 19.7590088495575  C 15.379793814433 19.2539469026549  14.7919175257732 18.9870442477876  14.1426804123711 18.9583008849558  C 13.4934432989691 18.9295575221239  12.9609896907217 19.1307610619469  12.5453195876289 19.5619115044248  L 11.9495257731959 20.1511504424779  L 11.3537319587629 19.5619115044248  C 10.831175257732 19.1512920353982  10.235381443299 18.9439292035398  9.56832989690722 18.9439292035398  C 8.90127835051547 18.9439292035398  8.30548453608248 19.1492389380531  7.78292783505155 19.5619115044248  C 7.296 20.1039292035398  7.05253608247423 20.7075398230089  7.05253608247423 21.3727433628319  C 7.05253608247423 22.0379469026549  7.296 22.5943362831858  7.78292783505155 23.0419115044248  L 11.3557113402062 26.942796460177  C 11.5536494845361 27.0372389380531  11.7436701030928 27.082407079646  11.923793814433 27.082407079646  Z " fill-rule="nonzero" fill="#30a3f6" stroke="none" transform="matrix(1 0 0 1 161 1001 )" />
  </g>
</svg>