<?xml version="1.0" encoding="utf-8"?>
<svg version="1.1" xmlns:xlink="http://www.w3.org/1999/xlink" width="24px" height="22px" xmlns="http://www.w3.org/2000/svg">
  <g transform="matrix(1 0 0 1 -162 -842 )">
    <path d="M 0.0294642857142856 16.5237980769231  L 0.0294642857142856 21.0586538461538  C 0.0294642857142856 21.3019230769231  0.117857142857143 21.5346153846154  0.275892857142857 21.7038461538462  C 0.433928571428571 21.8757211538462  0.648214285714286 21.9709134615385  0.873214285714286 21.9709134615385  L 6.225 21.9709134615385  C 6.69107142857143 21.9709134615385  7.07142857142857 21.5610576923077  7.07142857142857 21.0560096153846  L 7.07142857142857 16.5237980769231  L 0.0294642857142856 16.5237980769231  Z M 7 0.994230769230769  C 7.07410714285714 0.489182692307692  6.69375 0.0793269230769231  6.22767857142857 0.0793269230769231  L 0.875892857142857 0.0793269230769231  C 0.409821428571429 0.0793269230769231  0.0294642857142856 0.489182692307692  0 0.991586538461538  L 0 14.9980769230769  L 7 14.9980769230769  L 7 0.994230769230769  Z M 4.96607142857143 5.6375  C 4.96607142857143 6.41754807692308  4.32589285714286 7.046875  3.53839285714286 7.046875  C 2.75089285714286 7.046875  2.11071428571429 6.41754807692308  2.11071428571429 5.6375  C 2.11071428571429 4.85745192307692  2.74821428571429 4.228125  3.53839285714286 4.228125  C 4.32857142857143 4.228125  4.96607142857143 4.85745192307692  4.96607142857143 5.6375  Z M 8.49107142857143 16.5237980769231  L 8.49107142857143 21.0586538461538  C 8.49107142857143 21.3019230769231  8.57946428571429 21.5346153846154  8.7375 21.7038461538462  C 8.89553571428571 21.8757211538462  9.10982142857143 21.9709134615385  9.33482142857143 21.9709134615385  L 14.6866071428571 21.9709134615385  C 15.1526785714286 21.9709134615385  15.5330357142857 21.5610576923077  15.5330357142857 21.0560096153846  L 15.5330357142857 16.5237980769231  L 8.49107142857143 16.5237980769231  Z M 15.5357142857143 0.994230769230769  C 15.5357142857143 0.489182692307692  15.1553571428571 0.0793269230769231  14.6892857142857 0.0793269230769231  L 9.3375 0.0793269230769231  C 8.87142857142857 0.0793269230769231  8.49107142857143 0.489182692307692  8.49107142857143 0.991586538461538  L 8.49107142857143 14.9980769230769  L 15.5357142857143 14.9980769230769  L 15.5357142857143 0.994230769230769  Z M 13.4276785714286 5.64014423076923  C 13.4276785714286 6.42019230769231  12.7875 7.046875  12 7.046875  C 11.2125 7.046875  10.5723214285714 6.41754807692308  10.5723214285714 5.6375  C 10.5723214285714 4.85745192307692  11.2125 4.23076923076923  12 4.23076923076923  C 12.7875 4.23076923076923  13.4276785714286 4.86009615384615  13.4276785714286 5.64014423076923  Z M 16.9526785714286 16.5237980769231  L 16.9526785714286 21.0586538461538  C 16.9526785714286 21.3019230769231  17.0410714285714 21.5346153846154  17.1991071428571 21.7038461538462  C 17.3571428571429 21.8757211538462  17.5714285714286 21.9709134615385  17.7964285714286 21.9709134615385  L 23.1482142857143 21.9709134615385  C 23.6142857142857 21.9709134615385  23.9946428571429 21.5610576923077  23.9946428571429 21.0560096153846  L 23.9946428571429 16.5237980769231  L 16.9526785714286 16.5237980769231  Z M 24 0.994230769230769  C 23.9973214285714 0.489182692307692  23.6196428571429 0.0793269230769231  23.1508928571429 0.0793269230769231  L 17.7991071428571 0.0793269230769231  C 17.3330357142857 0.0793269230769231  16.9526785714286 0.489182692307692  17 0.991586538461538  L 17 14.9980769230769  L 24 14.9980769230769  L 24 0.994230769230769  Z M 21.8892857142857 5.6375  C 21.8892857142857 6.41754807692308  21.2491071428571 7.046875  20.4616071428571 7.046875  C 19.6741071428571 7.046875  19.0339285714286 6.41754807692308  19.0339285714286 5.6375  C 19.0339285714286 4.85745192307692  19.6714285714286 4.228125  20.4616071428571 4.228125  C 21.2517857142857 4.228125  21.8892857142857 4.85745192307692  21.8892857142857 5.6375  Z " fill-rule="nonzero" fill="#30a3f6" stroke="none" transform="matrix(1 0 0 1 162 842 )" />
  </g>
</svg>