<?xml version="1.0" encoding="utf-8"?>
<svg version="1.1" xmlns:xlink="http://www.w3.org/1999/xlink" width="26px" height="28px" xmlns="http://www.w3.org/2000/svg">
  <g transform="matrix(1 0 0 1 -96 -1001 )">
    <path d="M 13 19.0581730769231  C 13.6599489795918 19.0581730769231  14.2204081632653 18.5230769230769  14.2204081632653 17.8197115384615  L 14.2204081632653 15.7432692307692  C 14.2204081632653 14.6091346153846  12.7579081632653 13.9091346153846  11.7795918367347 15.1947115384615  L 11.7795918367347 17.8197115384615  C 11.7795918367347 18.5230769230769  12.3400510204082 19.0581730769231  13 19.0581730769231  Z M 23.6288265306122 4.85625  L 19.3839285714286 4.85625  C 19.3176020408163 2.17740384615385  17.1785714285714 0  14.5387755102041 0  L 11.5673469387755 0  C 8.89438775510204 0  6.71556122448979 2.17740384615385  6.64923469387755 4.85625  L 2.40433673469388 4.85625  C 1.23367346938775 4.85625  0.281887755102039 5.82211538461539  0.281887755102039 7.01009615384615  L 0.281887755102039 13.4278846153846  C 3.78061224489796 14.2995192307692  7.32244897959183 15.1711538461538  10.6885204081633 15.4370192307692  L 10.6885204081633 15.0701923076923  C 10.6885204081633 13.9326923076923  11.8790816326531 12.99375  13 12.99375  C 14.1209183673469 12.99375  15.3114795918367 13.9326923076923  15.3114795918367 15.0701923076923  L 15.3114795918367 15.4370192307692  C 18.6775510204082 15.1677884615385  22.2525510204082 14.2658653846154  25.7512755102041 13.4278846153846  L 25.7512755102041 7.01009615384615  C 25.7512755102041 5.82211538461539  24.7994897959184 4.85625  23.6288265306122 4.85625  Z M 8.77168367346939 4.85625  C 8.90433673469388 3.38221153846154  10.1479591836735 1.97548076923077  11.6336734693878 1.97548076923077  L 14.505612244898 1.97548076923077  C 15.9913265306122 1.97548076923077  17.0956632653061 3.38221153846154  17.2581632653061 4.85625  L 8.77168367346939 4.85625  Z M 15.3114795918367 17.2173076923077  L 15.3114795918367 18.0552884615385  C 15.3114795918367 19.1927884615385  14.1209183673469 20.1317307692308  13 20.1317307692308  C 11.8790816326531 20.1317307692308  10.6885204081633 19.1927884615385  10.6885204081633 18.0552884615385  L 10.6885204081633 17.2173076923077  C 7.32244897959184 16.9480769230769  3.78061224489796 16.0798076923077  0.248724489795918 15.2081730769231  L 0.248724489795918 25.8461538461538  C 0.248724489795918 27.0341346153846  1.20051020408163 28  2.37117346938776 28  L 23.6288265306122 28  C 24.7994897959184 28  25.7512755102041 27.0341346153846  25.7512755102041 25.8461538461538  L 25.7512755102041 15.2081730769231  C 22.219387755102 16.0798076923077  18.6775510204082 16.9514423076923  15.3114795918367 17.2173076923077  Z " fill-rule="nonzero" fill="#30a3f6" stroke="none" transform="matrix(1 0 0 1 96 1001 )" />
  </g>
</svg>