<?xml version="1.0" encoding="utf-8"?>
<svg version="1.1" xmlns:xlink="http://www.w3.org/1999/xlink" width="26px" height="27px" xmlns="http://www.w3.org/2000/svg">
  <g transform="matrix(1 0 0 1 -96 -1251 )">
    <path d="M 9.88928571428571 25.8695298165138  C 9.88928571428571 26.3609174311927  9.4457380952381 26.7591055045872  8.89880952380952 26.7591055045872  L 2.9835 26.7591055045872  C 1.35540476190476 26.7591055045872  0.0309523809523805 25.569495412844  0 24.1067889908257  L 0 2.7188876146789  C 0.0309523809523805 1.25649082568807  1.35540476190476 0.0665711009174314  2.9835 0  L 22.8001428571429 0  C 24.4282380952381 0.0665711009174314  25.7526904761905 1.25618119266055  25.7526904761905 2.7188876146789  L 25.7526904761905 11.6391055045872  C 25.7526904761905 12.1304931192661  25.3091428571429 12.5289908256881  24.7622142857143 12.5289908256881  C 24.2152857142857 12.5289908256881  23.7717380952381 12.1304931192661  23.7717380952381 11.6391055045872  L 23.7717380952381 2.7188876146789  C 23.7717380952381 2.23771788990826  23.3359285714286 1.84634174311927  22.8001428571429 2  L 2.9835 2  C 2.44771428571429 1.84634174311927  2.01190476190476 2.23771788990826  2 2.7188876146789  L 2 24.1070986238532  C 2.01190476190476 24.5882683486238  2.44771428571429 24.9796444954128  2.9835 24.9796444954128  L 8.89880952380952 24.9796444954128  C 9.4457380952381 24.9796444954128  9.88928571428571 25.3781422018349  9.88928571428571 25.8695298165138  Z " fill-rule="nonzero" fill="#30a3f6" stroke="none" transform="matrix(1 0 0 1 96 1251 )" />
  </g>
</svg>