<?xml version="1.0" encoding="utf-8"?>
<svg version="1.1" xmlns:xlink="http://www.w3.org/1999/xlink" width="33px" height="29px" xmlns="http://www.w3.org/2000/svg">
  <g transform="matrix(1 0 0 1 -91 -1166 )">
    <path d="M 13.7175238095238 17.0434074074074  C 16.2150476190476 15.7373333333333  17.9415238095238 12.918962962963  17.9415238095238 9.63659259259259  C 17.9415238095238 5.11688888888889  14.6561904761905 1.45644444444444  10.6165714285714 1.45644444444444  C 6.57695238095238 1.45644444444444  3.30838095238095 5.11688888888889  3.30838095238095 9.63659259259259  C 3.30838095238095 12.918962962963  5.05161904761905 15.7373333333333  7.54914285714286 17.0434074074074  L 7.54914285714286 18.8306666666667  L 13.7175238095238 18.8306666666667  L 13.7175238095238 17.0434074074074  Z M 0.207428571428571 28.7808888888889  L 21.0424761904762 28.7808888888889  C 21.0927619047619 28.3684444444444  21.1262857142857 27.9388148148148  21.1262857142857 27.5091851851852  C 21.1262857142857 21.8552592592593  16.4329523809524 17.284  10.6333333333333 17.284  C 4.83371428571428 17.284  0.123619047619048 21.8552592592593  0.123619047619048 27.5091851851852  C 0.123619047619048 27.9388148148148  0.157142857142857 28.3512592592593  0.207428571428571 28.7808888888889  Z M 32.859619047619 2.81407407407407  C 32.8763809523809 1.37051851851852  31.451619047619 0.219111111111111  29.6413333333333 0.219111111111111  L 16.7849523809524 0.219111111111111  L 16.7849523809524 2  L 29.6413333333333 2  C 30.6973333333333 1.67985185185185  31.4348571428571 2.26414814814815  31 2.79688888888889  L 31 26.1687407407407  C 31.4348571428571 26.7014814814815  30.6973333333333 27.2857777777778  29.6413333333333 27.2857777777778  L 22.3834285714286 27.2857777777778  L 22.3834285714286 28.7465185185185  L 29.6413333333333 28.7465185185185  C 31.451619047619 28.7465185185185  32.859619047619 27.6122962962963  32.859619047619 26.1515555555556  L 32.859619047619 2.81407407407407  Z M 29.5072380952381 5.94177777777778  L 29.5072380952381 7.47125925925926  C 29.5072380952381 7.76340740740741  29.2893333333333 8.004  29.0379047619048 8.004  L 19.1986666666667 8.004  C 18.9304761904762 8.004  18.7293333333333 7.76340740740741  18.7293333333333 7.47125925925926  L 18.7293333333333 5.94177777777778  C 18.7293333333333 5.64962962962963  18.9472380952381 5.40903703703704  19.1986666666667 5.40903703703704  L 29.0379047619048 5.40903703703704  C 29.3060952380952 5.40903703703704  29.5072380952381 5.64962962962963  29.5072380952381 5.94177777777778  Z M 29.5072380952381 11.252  L 29.5072380952381 12.7814814814815  C 29.5072380952381 13.0736296296296  29.2893333333333 13.3142222222222  29.0379047619048 13.3142222222222  L 19.1986666666667 13.3142222222222  C 18.9304761904762 13.3142222222222  18.7293333333333 13.0736296296296  18.7293333333333 12.7814814814815  L 18.7293333333333 11.252  C 18.7293333333333 10.9598518518519  18.9472380952381 10.7192592592593  19.1986666666667 10.7192592592593  L 29.0379047619048 10.7192592592593  C 29.3060952380952 10.7192592592593  29.5072380952381 10.9598518518519  29.5072380952381 11.252  Z M 29.5072380952381 16.5622222222222  L 29.5072380952381 18.0917037037037  C 29.5072380952381 18.3838518518519  29.339619047619 18.6244444444444  29.1384761904762 18.6244444444444  L 21.5285714285714 18.6244444444444  C 21.3274285714286 18.6244444444444  21.1598095238095 18.3838518518519  21.1598095238095 18.0917037037037  L 21.1598095238095 16.5622222222222  C 21.1598095238095 16.2700740740741  21.3274285714286 16.0294814814815  21.5285714285714 16.0294814814815  L 29.1384761904762 16.0294814814815  C 29.339619047619 16.0294814814815  29.5072380952381 16.2700740740741  29.5072380952381 16.5622222222222  Z " fill-rule="nonzero" fill="#30a3f6" stroke="none" transform="matrix(1 0 0 1 91 1166 )" />
  </g>
</svg>