<?xml version="1.0" encoding="utf-8"?>
<svg version="1.1" xmlns:xlink="http://www.w3.org/1999/xlink" width="26px" height="26px" xmlns="http://www.w3.org/2000/svg">
  <g transform="matrix(1 0 0 1 -162 -1253 )">
    <path d="M 6.34465144230769 0.700120192307693  C 4.48016826923077 1.03215144230769  2.97325721153846 1.44080528846154  1.875 1.97716346153846  C 0.776742788461538 2.51352163461538  0.240384615384615 3.10096153846154  0.240384615384615 3.73948317307692  L 0.240384615384615 5.50180288461539  C 0.240384615384615 6.14032451923077  0.776742788461538 6.72776442307692  1.875 7.26412259615385  C 2.97325721153846 7.80048076923077  4.45462740384615 8.23467548076923  6.34465144230769 8.54116586538462  C 8.23467548076923 8.84765625  10.2779447115385 9.00090144230769  12.5 9.00090144230769  C 14.7220552884615 9.00090144230769  16.7653245192308 8.84765625  18.6553485576923 8.54116586538462  C 20.5453725961538 8.23467548076923  22.0267427884615 7.80048076923077  23.125 7.26412259615385  C 24.2232572115385 6.72776442307692  24.7596153846154 6.14032451923077  24.7596153846154 5.50180288461539  L 24.7596153846154 3.73948317307692  C 24.7596153846154 3.10096153846154  24.2232572115385 2.51352163461538  23.125 1.97716346153846  C 22.0267427884615 1.44080528846154  20.5453725961538 1.00661057692308  18.6553485576923 0.700120192307694  C 16.7653245192308 0.393629807692308  14.7220552884615 0.240384615384615  12.5 0.240384615384615  C 10.2779447115385 0.240384615384615  8.23467548076923 0.393629807692308  6.34465144230769 0.700120192307693  Z M 0.240384615384615 13.6748798076923  L 0.240384615384615 13.7770432692308  L 0.240384615384615 15.9990985576923  C 0.240384615384615 16.6376201923077  0.776742788461539 17.2250600961538  1.875 17.7614182692308  C 2.97325721153846 18.2977764423077  4.45462740384615 18.7319711538462  6.34465144230769 19.0384615384615  C 8.23467548076923 19.3449519230769  10.2779447115385 19.4981971153846  12.5 19.4981971153846  C 14.7220552884615 19.4981971153846  16.7653245192308 19.3449519230769  18.6553485576923 19.0384615384615  C 20.5453725961538 18.7319711538462  22.0267427884615 18.2977764423077  23.125 17.7614182692308  C 24.2232572115385 17.2250600961539  24.7596153846154 16.6376201923077  24.7596153846154 15.9990985576923  L 24.7596153846154 13.6748798076923  C 23.4825721153846 14.4411057692308  21.7713341346154 15.0285456730769  19.5748197115385 15.4116586538462  C 17.3783052884615 15.8203125  15.0285456730769 15.9990985576923  12.5 15.9990985576923  C 9.97145432692308 15.9990985576923  7.62169471153846 15.8203125  5.42518028846154 15.4116586538462  C 3.22866586538462 15.0285456730769  1.51742788461538 14.4411057692308  0.240384615384615 13.6748798076923  Z M 0.240384615384615 18.9362980769231  L 0.240384615384615 18.8852163461538  L 0.240384615384615 21.2605168269231  C 0.240384615384615 21.8990384615385  0.776742788461539 22.4864783653846  1.875 23.0228365384615  C 2.97325721153846 23.5591947115385  4.45462740384615 23.9933894230769  6.34465144230769 24.2998798076923  C 8.23467548076923 24.6063701923077  10.2779447115385 24.7596153846154  12.5 24.7596153846154  C 14.7220552884615 24.7596153846154  16.7653245192308 24.6063701923077  18.6553485576923 24.2998798076923  C 20.5453725961538 23.9933894230769  22.0267427884615 23.5591947115385  23.125 23.0228365384615  C 24.2232572115385 22.4864783653846  24.7596153846154 21.8990384615385  24.7596153846154 21.2605168269231  L 24.7596153846154 18.9362980769231  C 23.4825721153846 19.7025240384615  21.7713341346154 20.2899639423077  19.5748197115385 20.6730769230769  C 17.3783052884615 21.0561899038462  15.0285456730769 21.2605168269231  12.5 21.2605168269231  C 9.97145432692308 21.2605168269231  7.62169471153846 21.0561899038462  5.42518028846154 20.6730769230769  C 3.22866586538462 20.2899639423077  1.51742788461538 19.7025240384615  0.240384615384615 18.9362980769231  Z M 5.42518028846154 10.1502403846154  C 3.22866586538462 9.76712740384615  1.51742788461538 9.1796875  0.240384615384615 8.41346153846154  L 0.240384615384615 10.7376802884615  C 0.240384615384615 11.3762019230769  0.776742788461539 11.9636418269231  1.875 12.5  C 2.97325721153846 13.0363581730769  4.45462740384615 13.4705528846154  6.34465144230769 13.7770432692308  C 8.23467548076923 14.0835336538462  10.2779447115385 14.2367788461538  12.5 14.2367788461538  C 14.7220552884615 14.2367788461538  16.7653245192308 14.0835336538462  18.6553485576923 13.7770432692308  C 20.5453725961538 13.4705528846154  22.0267427884615 13.0363581730769  23.125 12.5  C 24.2232572115385 11.9636418269231  24.7596153846154 11.3762019230769  24.7596153846154 10.7376802884615  L 24.7596153846154 8.41346153846154  C 23.4825721153846 9.1796875  21.7713341346154 9.76712740384615  19.5748197115385 10.1502403846154  C 17.3783052884615 10.5333533653846  15.0285456730769 10.7376802884615  12.5 10.7376802884615  C 9.97145432692308 10.7376802884615  7.62169471153846 10.5333533653846  5.42518028846154 10.1502403846154  Z " fill-rule="nonzero" fill="#30a3f6" stroke="none" transform="matrix(1 0 0 1 162 1253 )" />
  </g>
</svg>