<?xml version="1.0" encoding="utf-8"?>
<svg version="1.1" xmlns:xlink="http://www.w3.org/1999/xlink" width="13px" height="15px" xmlns="http://www.w3.org/2000/svg">
  <g transform="matrix(1 0 0 1 -111 -1266 )">
    <path d="M 12.935 13.8408482142857  L 10.4052 9.32578125  C 11.2346 8.35078125  11.7377 7.0734375  11.7377 5.67522321428571  C 11.7377 2.61495535714286  9.32945 0.133928571428571  6.35895 0.133928571428571  C 3.38845 0.133928571428571  0.980199999999999 2.61495535714286  0.980199999999999 5.67522321428571  C 0.980199999999999 7.21372767857143  1.588925 8.60558035714286  2.5714 9.609375  L 0.200199999999999 13.8405133928571  L 1.648725 13.3985491071429  L 2.00135 14.9119419642857  L 4.306575 10.7986607142857  C 4.939025 11.0678571428571  5.631925 11.2165178571429  6.358625 11.2165178571429  C 7.21435 11.2165178571429  8.0236 11.0102678571429  8.74185 10.6439732142857  L 11.13385 14.9122767857143  L 11.486475 13.3988839285714  L 12.935 13.8408482142857  Z M 9.40452500000001 4.70022321428571  L 7.8884 6.22232142857143  L 8.246225 8.37154017857143  L 6.372925 7.35703125  L 4.499625 8.37154017857143  L 4.85745 6.22232142857143  L 3.341975 4.70022321428571  L 5.4366 4.38683035714285  L 6.37325 2.43147321428571  L 7.30990000000001 4.38683035714285  L 9.40452500000001 4.70022321428571  Z " fill-rule="nonzero" fill="#30a3f6" stroke="none" transform="matrix(1 0 0 1 111 1266 )" />
  </g>
</svg>