<?xml version="1.0" encoding="utf-8"?>
<svg version="1.1" xmlns:xlink="http://www.w3.org/1999/xlink" width="22px" height="28px" xmlns="http://www.w3.org/2000/svg">
  <g transform="matrix(1 0 0 1 -233 -520 )">
    <path d="M 18.1997037037037 5.3959603960396  L 3.80681481481481 5.3959603960396  C 3.48233744855967 5.3959603960396  3.23897942386831 5.33681848184819  3.07674074074074 5.21853465346535  C 2.91450205761317 5.10025082508251  2.79861728395062 4.9583102310231  2.72908641975308 4.79271287128713  C 2.63637860082304 4.60345874587459  2.59002469135803 4.39054785478548  2.59002469135802 4.1539801980198  L 2.59002469135802 1.8119603960396  C 2.59002469135803 1.36248184818482  2.67693827160494 1.02537293729373  2.85076543209876 0.800633663366335  C 3.02459259259259 0.575894389438943  3.2158024691358 0.404382838283827  3.42439506172839 0.286099009900988  C 3.67934156378601 0.16781518151815  3.95746502057613 0.108673267326731  4.25876543209877 0.108673267326731  L 17.712987654321 0.108673267326731  C 18.0142880658436 0.108673267326731  18.2924115226337 0.16781518151815  18.5473580246914 0.286099009900988  C 18.755950617284 0.404382838283827  18.9471604938272 0.575894389438943  19.120987654321 0.800633663366335  C 19.2948148148148 1.02537293729373  19.3817283950617 1.36248184818482  19.3817283950617 1.8119603960396  L 19.3817283950617 4.1539801980198  C 19.3817283950617 4.39054785478548  19.3353744855967 4.60345874587459  19.2426666666667 4.79271287128713  C 19.1731358024691 4.9583102310231  19.0630452674897 5.10025082508251  18.9123950617284 5.21853465346535  C 18.7617448559671 5.33681848184819  18.5241810699589 5.3959603960396  18.1997037037037 5.3959603960396  Z M 22 11.9252277227723  L 22 25.1966732673267  C 21.9196049382716 25.7171221122112  21.8268971193416 26.1902574257426  21.6414814814815 26.6160792079208  C 21.4792427983539 26.9709306930693  21.2300905349794 27.290297029703  20.894024691358 27.5741782178218  C 20.5579588477366 27.8580594059406  20.077037037037 28  19.4512592592593 28  L 2.55525925925926 28  C 1.90630452674897 28  1.41958847736626 27.8580594059406  1.09511111111111 27.5741782178218  C 0.770633744855967 27.290297029703  0.52727572016461 26.9709306930693  0.365037037037037 26.6160792079208  C 0.179621399176955 26.1902574257426  0.0753251028806588 25.7171221122112  0 25.1966732673267  L 0 11.9252277227723  C 0.0521481481481492 11.1445544554455  0.191209876543211 10.5886204620462  0.469333333333334 10.2574257425743  C 0.747456790123458 9.92623102310231  1.00240329218107 9.6423498349835  1.23417283950617 9.40578217821782  L 3.70251851851852 7  L 18.755950617284 7  L 20.7375802469136 9.40578217821782  C 20.9693497942387 9.6423498349835  21.2242962962963 9.92623102310231  21.5024197530864 10.2574257425743  C 21.7805432098765 10.5886204620462  21.9196049382716 11.1445544554455  22 11.9252277227723  Z M 16.4961975308642 19.8384158415842  L 16.4961975308642 16.0415049504951  L 12.8458271604938 16.0415049504951  L 12.8458271604938 12.2800792079208  L 9.12592592592593 12.2800792079208  L 9.12592592592593 16.0415049504951  L 5.47555555555556 16.0415049504951  L 5.47555555555556 19.8384158415842  L 9.12592592592593 19.8384158415842  L 9.12592592592593 23.5643564356436  L 12.8458271604938 23.5643564356436  L 12.8458271604938 19.8384158415842  L 16.4961975308642 19.8384158415842  Z " fill-rule="nonzero" fill="#30a3f6" stroke="none" transform="matrix(1 0 0 1 233 520 )" />
  </g>
</svg>