<?xml version="1.0" encoding="utf-8"?>
<svg version="1.1" xmlns:xlink="http://www.w3.org/1999/xlink" width="20px" height="18px" xmlns="http://www.w3.org/2000/svg">
  <g transform="matrix(1 0 0 1 -98 -530 )">
    <path d="M 19.8480898876405 8.4335421686747  C 19.8480898876405 4.91855421686747  17.8786516853933 1.8477108433735  14.9492134831461 0.18910843373494  L 14.9465168539326 0.192578313253012  C 14.9465168539326 0.192578313253012  11.6979775280899 5.10679518072289  6.12943820224719 6.88944578313253  C 6.07529404548436 6.90706808117921  6.01853561373523 6.9160559746679  5.96139518504945 6.9160559746679  C 5.67098028289123 6.9160559746679  5.43555248842023 6.68885397060613  5.43555248842023 6.40858609514983  C 5.43555248842023 6.2878545812009  5.48015447346352 6.17107817900449  5.56134831460674 6.07922891566265  C 5.80674157303371 5.79990361445783  6.05573033707865 5.48934939759036  6.27505617977528 5.16231325301205  C 6.34904778214267 5.05076234782678  6.38837112868965 4.92108745145951  6.38837112868965 4.78863945493436  C 6.38837112868965 4.40584623700344  6.06682102991644 4.09553102119942  5.67016888149864 4.09553102119942  C 5.60794412793394 4.09553102119942  5.54598320516151 4.1033350275811  5.48584269662921 4.11874698795181  C 3.77438202247191 4.56289156626506  1.00584269662921 5.80684337349398  0.0898876404494395 9.26284337349398  C 0.52494382022472 14.1501686746988  4.77213483146067 17.9869879518072  9.94876404494382 17.9869879518072  C 15.4166292134831 17.9869879518072  19.8480898876405 13.7103614457831  19.8480898876405 8.4335421686747  Z " fill-rule="nonzero" fill="#30a3f6" stroke="none" transform="matrix(1 0 0 1 98 530 )" />
  </g>
</svg>