<?xml version="1.0" encoding="utf-8"?>
<svg version="1.1" xmlns:xlink="http://www.w3.org/1999/xlink" width="39px" height="27px" xmlns="http://www.w3.org/2000/svg">
  <g transform="matrix(1 0 0 1 -295 -520 )">
    <path d="M 30.522141 17.420925872093  C 31.090254 17.7067805232558  31.37433 18.192898255814  31.37433 18.8789651162791  L 31.37433 25.3964825581395  C 31.37433 25.8253037790698  31.246488 26.1968677325581  30.990843 26.5114098837209  C 30.735198 26.8259520348837  30.408495 26.9830465116279  30.010812 27  L 9.08817 27  C 8.71884 26.9830465116279  8.406411 26.8258735465116  8.150727 26.5114098837209  C 7.895043 26.1969462209302  7.76724 25.8253822674419  7.76724 25.3964825581395  L 7.76724 18.8789651162791  C 7.76724 18.1929375  8.051316 17.7068590116279  8.619429 17.420925872093  L 16.800927 13.604664244186  C 15.721446 12.9471671511628  14.897571 12.0038546511628  14.32938 10.774648255814  C 13.78962 9.68840843023256  13.519818 8.53062645348837  13.519818 7.30142005813953  C 13.519818 6.92977761627907  13.548288 6.57245930232558  13.605111 6.22938662790697  C 13.747383 5.37641424418604  13.974558 4.61417441860465  14.283204 3.89580959302325  C 14.215851 3.78533720930232  14.933139 2.58477906976744  15.969993 1.64142732558139  C 17.006847 0.698075581395347  18.207111 0.226360465116277  19.570824 0.226360465116277  C 20.962812 0.226360465116277  22.184487 0.712360465116276  23.235498 1.68428197674418  C 24.286509 2.65620348837209  24.996816 3.88537063953488  25.366107 5.3719011627907  C 25.508184 6.08653779069767  25.57932 6.72971075581395  25.57932 7.30145930232558  C 25.57932 8.44495639534883  25.351911 9.54548110465116  24.897561 10.6031904069767  C 24.329448 11.8896148255814  23.505573 12.8614970930233  22.426014 13.5189549418605  L 24.854895 14.6766191860465  L 30.522219 17.4208081395349  Z M 7.767162 15.6200101744186  C 7.142187 15.9058648255814  6.652191 16.3419069767442  6.297018 16.9278619186047  C 5.941884 17.5138561046512  5.764395 18.164210755814  5.764395 18.878925872093  L 5.764395 24.4101584302326  L 1.375335 24.4101584302326  C 1.062789 24.4101584302326  0.807221999999999 24.2888546511628  0.608321999999999 24.0458546511628  C 0.409421999999999 23.8027761627907  0.310049999999999 23.4955726744186  0.310049999999999 23.1240087209302  L 0.310049999999999 17.8925625  C 0.310049999999999 17.2635566860465  0.537263999999999 16.8635014534884  0.991808999999999 16.691886627907  L 7.596693 13.604625  C 6.801288 13.118625  6.162078 12.4254156976744  5.679141 11.5249970930232  C 5.196204 10.6245784883721  4.954716 9.61686627906976  4.954716 8.5020566860465  C 4.954716 7.73024127906976  5.082558 6.99417732558139  5.338203 6.29374709302325  C 5.593926 5.5933953488372  5.941845 4.9858953488372  6.382155 4.47140406976744  C 6.822426 3.95691279069767  7.333833 3.54955813953488  7.91622 3.24934011627906  C 8.498568 2.94920058139534  9.13068 2.79913081395348  9.812478 2.79913081395348  C 10.266984 2.79913081395348  10.693098 2.87063372093023  11.090898 3.01348255813953  C 11.488698 3.15633139534883  11.872146 3.34215261627906  12.241359 3.57094622093023  C 11.758383 4.77162209302325  11.516934 6.01503488372092  11.516934 7.30142005813953  C 11.516934 8.3019113372093  11.659011 9.26672965116278  11.943087 10.1957180232558  C 12.227163 11.1247456395349  12.624846 11.9609215116279  13.136292 12.7041279069767  C 12.823746 13.0471220930232  12.49716 13.3187703488372  12.156261 13.5187587209302  L 7.767201 15.6198139534884  Z M 38.277486 16.691925872093  C 38.731914 16.9205625  38.959245 17.3208139534884  38.959245 17.892601744186  L 38.959245 23.123851744186  C 38.959245 23.4954941860465  38.859678 23.8026191860465  38.660973 24.0456976744186  C 38.462073 24.2886976744186  38.206467 24.4100014534884  37.893804 24.4100014534884  L 33.376941 24.4100014534884  L 33.376941 18.8787688953488  C 33.376941 18.1641322674419  33.199296 17.5137776162791  32.844396 16.9277049418605  C 32.489223 16.3418284883721  32.013423 15.9057470930233  31.41684 15.6198531976744  L 27.19821 13.6047034883721  C 26.800566 13.3760668604651  26.416845 13.0472398255814  26.047749 12.6185363372093  C 26.530803 11.8753299418605  26.907075 11.0534389534884  27.177033 10.1530203488372  C 27.446991 9.25260174418605  27.581853 8.30202906976744  27.581853 7.30157703488372  C 27.581853 6.64407994186047  27.525069 6.01515261627907  27.411423 5.41487354651163  C 27.297777 4.81459447674419  27.127347 4.22856104651163  26.900133 3.6568125  C 27.269463 3.39948837209303  27.667146 3.19227906976744  28.093338 3.03510610465116  C 28.51953 2.87793313953488  28.959801 2.79928779069768  29.414424 2.79928779069768  C 30.096183 2.79928779069768  30.735393 2.94935755813954  31.331898 3.24949709302326  C 31.928481 3.54963662790698  32.447142 3.95695203488372  32.887413 4.47156104651163  C 33.327567 4.9860523255814  33.675603 5.59351308139535  33.931248 6.29390406976744  C 34.187049 6.99425581395349  34.314891 7.73039825581395  34.314891 8.5022136627907  C 34.314891 9.58845348837209  34.073325 10.5818415697674  33.590466 11.4822601744186  C 33.107412 12.3827180232558  32.496789 13.0759273255814  31.758129 13.5618880813954  L 38.277681 16.6920828488372  Z " fill-rule="nonzero" fill="#30a3f6" stroke="none" transform="matrix(1 0 0 1 295 520 )" />
  </g>
</svg>