<?xml version="1.0" encoding="utf-8"?>
<svg version="1.1" xmlns:xlink="http://www.w3.org/1999/xlink" width="18px" height="17px" xmlns="http://www.w3.org/2000/svg">
  <g transform="matrix(1 0 0 1 -166 -526 )">
    <path d="M 8.95130030357143 1.54210231655844  C 11.0735028986997 -0.362396563629663  14.2644725922611 -0.249254706034593  16.2545772589286 1.80105379545454  C 18.2551836696429 3.86170791233766  18.3425072946429 7.14733527922078  16.5154285714286 9.31583778246753  L 16.52102625 9.32045162662338  L 16.4213877589286 9.42426292694805  C 16.3670756408622 9.48531138697636  16.3114585171552 9.54511364678515  16.2545772589286 9.60362575974026  L 9.51666471428571 16.5457174724026  C 9.47510176070024 16.5886885983822  9.42889999304245 16.626615252389  9.37896208928571 16.6587564334416  C 9.07384679364453 16.8717042287948  8.66496709844523 16.8315371905812  8.40440815178571 16.5630193603896  L 1.66649563392857 9.62092764772727  C 0.66200954120145 8.58625242430388  0.0976747408903559 7.18278170944343  0.0976747408903559 5.71935330032468  C 0.0976747408903559 4.25592489120591  0.66200954120145 2.85245417634548  1.66649563392857 1.81777895292208  C 3.6637434375 -0.239991511363635  6.84713702678571 -0.332268228896103  8.95130030357143 1.54210231655844  Z M 9.67283965178571 5.10859686688312  L 9.63365598214286 5.10398305032467  L 8.28741691071429 5.10398305032467  C 8.19334413818265 5.10398252931762  8.11699648637251 5.18238582787783  8.11668803571428 5.27930876948052  L 8.11668803571428 7.18655287175325  L 6.26497958035714 7.18655287175325  C 6.18437316964286 7.18655287175325  6.11664139285714 7.24480254383117  6.09928864285714 7.32266102597403  L 6.0948105 7.36303207954545  L 6.0948105 8.75006624675325  C 6.0948105 8.84753351136364  6.17093876785714 8.92596872402597  6.26497958035714 8.92596872402597  L 8.11668803571428 8.92596872402597  L 8.11668803571428 10.8337895568182  C 8.11668803571428 10.916838586039  8.17266471428571 10.9866228409091  8.24823324107143 11.0050781899351  L 8.28741691071428 11.0096920340909  L 9.63365598214286 11.0096920340909  C 9.72794692570065 11.0096920188493  9.80438483035715 10.9309378016959  9.80438483035714 10.8337895568182  L 9.80438483035714 8.92596872402597  L 11.6560932857143 8.92596872402597  C 11.7366996964286 8.92596872402597  11.8044314732143 8.86829578246753  11.82178425 8.79043732792208  L 11.8268221607143 8.75006624675325  L 11.8268221607143 7.36303207954546  C 11.8268221607143 7.26588382389027  11.7503842397326 7.18712960227273  11.6560932857143 7.18712960227273  L 9.80438483035714 7.18655287175325  L 9.80438483035714 5.27930876948052  C 9.80438483035714 5.19625974025974  9.74840815178571 5.12647548538961  9.67283965178571 5.10859686688312  Z " fill-rule="nonzero" fill="#ffffff" stroke="none" transform="matrix(1 0 0 1 166 526 )" />
  </g>
</svg>