<?xml version="1.0" encoding="utf-8"?>
<svg version="1.1" xmlns:xlink="http://www.w3.org/1999/xlink" width="11px" height="17px" xmlns="http://www.w3.org/2000/svg">
  <g transform="matrix(1 0 0 1 -101 -840 )">
    <path d="M 4.90884354209184 0.0263239507380061  C 4.33457704448723 0.0263239507380061  3.86901562440344 0.496322693726598  3.86892129081633 1.07615782833333  L 3.86892129081633 2.94327437333333  L 2.01973620918367 2.94327437333333  C 1.47118525949758 2.97728233155112  1.04354576055609 3.4363937295645  1.04354576055609 3.99130703333333  C 1.04354576055609 4.54622033710216  1.47118525949758 5.00533173511555  2.01973620918367 5.03933969333333  L 3.86892129081633 5.03933969333333  L 3.86892129081632 6.90645623833333  C 3.86901562440033 7.48629137294228  4.33457704448504 7.95629011593434  4.90884354209184 7.95629011593434  C 5.48311003969863 7.95629011593434  5.94867145978334 7.48629137294228  5.94876579336735 6.90645623833333  L 5.94876579336735 5.03933969333333  L 7.79404138520408 5.03933969333333  C 7.81526034998149 5.04065518402383  7.83651427664178 5.04131339333333  7.85777320188262 5.04131339333333  C 8.43210641002069 5.04131339333333  8.89769546718874 4.57120953318667  8.89769546718874 3.99130703333333  C 8.89769546718874 3.41140453347999  8.43210641002069 2.94130067333333  7.85777320188262 2.94130067333333  C 7.83651427664178 2.94130067333333  7.81526034998149 2.94195888264284  7.79404138520408 2.94327437333333  L 5.94876579336735 2.94327437333333  L 5.94876579336735 1.07615782833333  C 5.94867145978023 0.496322693726596  5.48311003969644 0.0263239507380061  4.90884354209184 0.0263239507380061  Z M 3.68908509693878 15.9499319866667  C 3.68908509693878 15.4091392633333  2.86809383928571 14.92755737  1.86335692602041 14.92755737  C 0.86252950255102 14.92755737  0.0493571964285702 15.3775600916667  0.0493572244897962 15.934142415  C 0.0493572525510222 16.4907247383333  0.86252950255102 16.94072746  1.86335692602041 16.9407274316667  C 2.8641843494898 16.9407274033333  3.68908509693878 16.49072471  3.68908509693878 15.9499319866667  Z M 10.9255365943878 15.934142415  C 10.9255365943878 15.37756012  10.1123643163265 14.92755737  9.11153686479592 14.92755737  C 8.11070944132653 14.92755737  7.29753713520408 15.3775600916667  7.29753713520408 15.934142415  C 7.29753713520408 16.4907247383333  8.11070941326531 16.94072746  9.11153686479592 16.9407274316667  C 10.1123643163265 16.9407274033333  10.9255365943878 16.49072471  10.9255365943878 15.934142415  Z " fill-rule="nonzero" fill="#30a3f6" stroke="none" transform="matrix(1 0 0 1 101 840 )" />
  </g>
</svg>