<?xml version="1.0" encoding="utf-8"?>
<svg version="1.1" xmlns:xlink="http://www.w3.org/1999/xlink" width="22px" height="22px" xmlns="http://www.w3.org/2000/svg">
  <g transform="matrix(1 0 0 1 -232 -689 )">
    <path d="M 10.9675076923077 22  C 4.98583901721725 22  0.136738461538463 17.0879241124293  0.136738461538463 11.0285714285714  C 0.136738461538463 4.96921874471358  4.98583901721725 0.057142857142858  10.9675076923077 0.057142857142858  C 16.9491763673981 0.057142857142858  21.7982769230769 4.96921874471358  21.7982769230769 11.0285714285714  C 21.7982769230769 17.0879241124293  16.9491763673981 22  10.9675076923077 22  Z M 6.98990769230769 16.576  L 10.9675076923077 14.4571428571429  L 14.9464615384615 16.576  L 14.1869538461538 12.0886857142857  L 17.4050461538462 8.90971428571429  L 12.9563076923077 8.25417142857143  L 10.9675076923077 4.17142857142857  L 8.97735384615385 8.25417142857143  L 4.52996923076923 8.90971428571429  L 7.74806153846154 12.0886857142857  L 6.98990769230769 16.576  Z " fill-rule="nonzero" fill="#30a3f6" stroke="none" transform="matrix(1 0 0 1 232 689 )" />
  </g>
</svg>