<?xml version="1.0" encoding="utf-8"?>
<svg version="1.1" xmlns:xlink="http://www.w3.org/1999/xlink" width="24px" height="30px" xmlns="http://www.w3.org/2000/svg">
  <g transform="matrix(1 0 0 1 -230 -1001 )">
    <path d="M 14.1090309278351 16.4806611570248  C 14.9535670103093 16.1209917355372  15.8614432989691 15.9411570247934  16.8326597938144 15.9411570247934  C 17.8038762886598 15.9411570247934  18.7117525773196 16.1209917355372  19.5562886597938 16.4806611570248  C 20.400824742268 16.8403305785124  21.139793814433 17.337520661157  21.7731958762887 17.9722314049587  C 22.4065979381443 18.6069421487603  22.9027628865979 19.3474380165289  23.2616907216495 20.1937190082645  C 23.620618556701 21.04  23.8000824742268 21.9497520661157  23.8000824742268 22.9229752066116  C 23.8000824742268 23.8961983471074  23.620618556701 24.8059504132231  23.2616907216495 25.6522314049587  C 22.9027628865979 26.4985123966942  22.4065979381443 27.2390082644628  21.7731958762887 27.8737190082645  C 21.139793814433 28.5084297520661  20.400824742268 29.0056198347107  19.5562886597938 29.3652892561984  C 18.7117525773196 29.724958677686  17.8038762886598 29.9047933884298  16.8326597938144 29.9047933884298  C 15.8614432989691 29.9047933884298  14.9535670103093 29.724958677686  14.1090309278351 29.3652892561984  C 13.2644948453608 29.0056198347107  12.5255257731959 28.5084297520661  11.8921237113402 27.8737190082645  C 11.2587216494845 27.2390082644628  10.7625567010309 26.4985123966942  10.4036288659794 25.6522314049587  C 10.0447010309278 24.8059504132231  9.86523711340206 23.8961983471074  9.86523711340206 22.9229752066116  C 9.86523711340206 21.9497520661157  10.0447010309278 21.04  10.4036288659794 20.1937190082645  C 10.7625567010309 19.3474380165289  11.2587216494845 18.6069421487603  11.8921237113402 17.9722314049587  C 12.5255257731959 17.337520661157  13.2644948453608 16.8403305785124  14.1090309278351 16.4806611570248  Z M 17.8777731958763 24.0654545454545  L 20.7914226804124 24.0654545454545  C 21.0658969072165 24.0654545454545  21.2981443298969 23.9702479338843  21.4881649484536 23.7798347107438  C 21.6781855670103 23.5894214876033  21.7731958762887 23.356694214876  21.7731958762887 23.081652892562  C 21.7731958762887 22.8066115702479  21.6781855670103 22.5421487603306  21.4881649484536 22.2882644628099  C 21.2981443298969 22.0343801652893  21.0658969072165 21.9074380165289  20.7914226804124 21.9074380165289  L 17.8777731958763 21.9074380165289  L 17.8777731958763 18.9877685950413  C 17.8777731958763 18.7127272727273  17.772206185567 18.48  17.5610721649485 18.2895867768595  C 17.3499381443299 18.099173553719  17.1071340206186 18.0039669421488  16.8326597938144 18.0039669421488  C 16.5581855670103 18.0039669421488  16.304824742268 18.099173553719  16.0725773195876 18.2895867768595  C 15.8403298969072 18.48  15.724206185567 18.7127272727273  15.724206185567 18.9877685950413  L 15.724206185567 21.9074380165289  L 12.8738969072165 21.9074380165289  C 12.5783092783505 21.9074380165289  12.3407835051546 22.0343801652893  12.1613195876289 22.2882644628099  C 11.9818556701031 22.5421487603306  11.8921237113402 22.8066115702479  11.8921237113402 23.081652892562  C 11.8921237113402 23.356694214876  11.9818556701031 23.5894214876033  12.1613195876289 23.7798347107438  C 12.3407835051546 23.9702479338843  12.5783092783505 24.0654545454545  12.8738969072165 24.0654545454545  L 15.724206185567 24.0654545454545  L 15.724206185567 26.921652892562  C 15.724206185567 27.196694214876  15.8403298969072 27.4294214876033  16.0725773195876 27.6198347107438  C 16.304824742268 27.8102479338843  16.5581855670103 27.9054545454545  16.8326597938144 27.9054545454545  C 17.1071340206186 27.9054545454545  17.3499381443299 27.8102479338843  17.5610721649485 27.6198347107438  C 17.772206185567 27.4294214876033  17.8777731958763 27.196694214876  17.8777731958763 26.921652892562  L 17.8777731958763 24.0654545454545  Z M 12.9689072164948 14.7828099173554  C 12.0188041237113 15.2165289256198  11.1531546391753 15.8247933884298  10.3719587628866 16.6076033057851  C 9.50630927835052 17.4961983471074  8.85179381443299 18.4905785123967  8.40841237113402 19.5907438016529  C 7.96503092783505 20.6909090909091  7.74334020618557 21.817520661157  7.74334020618557 22.9705785123967  C 7.74334020618557 24.1236363636364  7.96503092783505 25.2502479338843  8.40841237113402 26.3504132231405  C 8.85179381443299 27.4505785123967  9.50630927835052 28.4343801652893  10.3719587628866 29.3018181818182  C 10.4986391752577 29.4287603305785  10.6253195876289 29.5504132231405  10.752 29.6667768595041  C 10.8786804123711 29.7831404958678  11.0159175257732 29.8942148760331  11.1637113402062 30  L 2.13773195876289 30  C 1.54655670103093 30  1.04511340206186 29.7937190082645  0.633402061855672 29.3811570247934  C 0.221690721649487 28.9685950413223  0.0158350515463953 28.4661157024793  0 27.8737190082645  L 0 6.29355371900826  C 0.0158350515463953 5.70115702479339  0.221690721649487 5.19867768595041  0.633402061855672 4.78611570247934  C 1.04511340206186 4.37355371900826  1.54655670103093 4.16727272727273  2.13773195876289 4.16727272727272  L 4.00626804123712 4.16727272727272  L 4.00626804123712 1.97752066115702  C 4.00626804123712 1.49090909090909  4.21212371134021 1.07834710743801  4.62383505154639 0.739834710743799  C 5.03554639175258 0.401322314049584  5.48420618556701 0.232066115702476  5.96981443298969 0.232066115702476  C 6.45542268041237 0.232066115702477  6.88296907216495 0.401322314049584  7.25245360824742 0.739834710743799  C 7.6219381443299 1.07834710743801  7.80668041237114 1.49090909090909  7.80668041237114 1.97752066115702  L 7.80668041237114 4.16727272727272  L 13.9190103092784 4.16727272727272  L 13.9190103092784 1.97752066115702  C 13.9190103092784 1.49090909090909  14.1090309278351 1.07834710743801  14.4890721649485 0.739834710743799  C 14.8691134020619 0.401322314049584  15.3336082474227 0.232066115702476  15.8825567010309 0.232066115702476  C 16.4315051546392 0.232066115702477  16.8854432989691 0.401322314049584  17.2443711340206 0.739834710743799  C 17.6032989690722 1.07834710743801  17.7827628865979 1.49090909090909  17.7827628865979 1.97752066115702  L 17.7827628865979 4.16727272727272  L 19.6512989690722 4.16727272727272  C 20.2424742268041 4.16727272727273  20.7439175257732 4.37355371900826  21.1556288659794 4.78611570247934  C 21.5673402061856 5.19867768595041  21.7731958762887 5.70115702479339  21.7731958762887 6.29355371900826  L 21.7731958762887 15.5603305785124  C 20.9075463917526 14.9679338842975  19.968 14.5395041322314  18.9545567010309 14.275041322314  C 17.9411134020619 14.0105785123967  16.9276701030928 13.9206611570248  15.9142268041237 14.0052892561983  C 14.9007835051546 14.0899173553719  13.9190103092784 14.3490909090909  12.9689072164948 14.7828099173554  Z M 16.9593402061856 9.91140495867769  L 8.78845360824742 9.91140495867769  C 8.5139793814433 9.91140495867769  8.28173195876289 10.0436363636364  8.09171134020619 10.3080991735537  C 7.90169072164949 10.5725619834711  7.80668041237114 10.8423140495868  7.80668041237113 11.1173553719008  C 7.80668041237114 11.4135537190083  7.90169072164949 11.6780165289256  8.09171134020619 11.9107438016529  C 8.28173195876289 12.1434710743802  8.5139793814433 12.2598347107438  8.78845360824742 12.2598347107438  L 16.9593402061856 12.2598347107438  C 17.2338144329897 12.2598347107438  17.4660618556701 12.1434710743802  17.6560824742268 11.9107438016529  C 17.8461030927835 11.6780165289256  17.9411134020619 11.4135537190083  17.9411134020619 11.1173553719008  C 17.9411134020619 10.8423140495868  17.8461030927835 10.5725619834711  17.6560824742268 10.3080991735537  C 17.4660618556701 10.0436363636364  17.2338144329897 9.91140495867769  16.9593402061856 9.91140495867769  Z M 4.25962886597938 23.7798347107438  C 4.44964948453608 23.9914049586777  4.68189690721649 24.0971900826446  4.95637113402062 24.0971900826446  C 5.23084536082474 24.0971900826446  5.46309278350515 23.9914049586777  5.65311340206186 23.7798347107438  C 5.84313402061856 23.5682644628099  5.93814432989691 23.3249586776859  5.93814432989691 23.0499173553719  C 5.93814432989691 22.7537190082645  5.84313402061856 22.4945454545455  5.65311340206186 22.2723966942149  C 5.46309278350515 22.0502479338843  5.23084536082474 21.939173553719  4.95637113402062 21.939173553719  C 4.68189690721649 21.939173553719  4.44964948453608 22.0502479338843  4.25962886597938 22.2723966942149  C 4.06960824742268 22.4945454545455  3.97459793814433 22.7537190082645  3.97459793814433 23.0499173553719  C 3.97459793814433 23.3249586776859  4.06960824742268 23.5682644628099  4.25962886597938 23.7798347107438  Z M 4.95637113402062 18.1309090909091  L 6.9199175257732 18.1309090909091  C 7.21550515463918 18.1309090909091  7.45830927835052 18.0251239669422  7.64832989690722 17.8135537190083  C 7.83835051546392 17.6019834710744  7.93336082474227 17.3586776859504  7.93336082474227 17.0836363636364  C 7.93336082474227 16.8085950413223  7.83835051546392 16.5652892561983  7.64832989690722 16.3537190082645  C 7.45830927835052 16.1421487603306  7.21550515463918 16.0363636363636  6.9199175257732 16.0363636363636  L 4.95637113402062 16.0363636363636  C 4.6818969072165 16.0363636363636  4.44964948453608 16.1421487603306  4.25962886597938 16.3537190082645  C 4.06960824742268 16.5652892561983  3.97459793814433 16.8085950413223  3.97459793814433 17.0836363636364  C 3.97459793814433 17.3586776859504  4.06960824742268 17.6019834710744  4.25962886597938 17.8135537190083  C 4.44964948453608 18.0251239669422  4.6818969072165 18.1309090909091  4.95637113402062 18.1309090909091  Z " fill-rule="nonzero" fill="#30a3f6" stroke="none" transform="matrix(1 0 0 1 230 1001 )" />
  </g>
</svg>