<?xml version="1.0" encoding="utf-8"?>
<svg version="1.1" xmlns:xlink="http://www.w3.org/1999/xlink" width="26px" height="26px" xmlns="http://www.w3.org/2000/svg">
  <g transform="matrix(1 0 0 1 -301 -1005 )">
    <path d="M 0.519677774902344 0.53588889453125  C 0.825311099609375 0.2178222109375  1.25726109960937 0.027444447265625  1.70098890039062 0  L 15.6423444501953 0  C 15.6423444501953 2.10686665820313  15.64205 4.2140222109375  15.6423444501953 6.32088889453125  C 16.3896444501953 5.759  17.1360611254883 5.19595555273437  17.8833610996094 4.6337777890625  C 18.6339 5.19768889453125  19.3826721992187 5.76333334179687  20.1332110996094 6.32724444726562  C 20.1335055498047 4.21835555273437  20.1332110996094 2.1091777890625  20.1332110996094 0  L 20.9673722250977 0  C 21.3798889003906 0.0245555527343743  21.782983324707 0.188644447265624  22.0836110996094 0.468288894531249  C 22.437533324707 0.790399999999999  22.6457055498047 1.25984444726562  22.6427610996094 1.7336222109375  C 22.6430555498047 5.811  22.64335 9.88837776367187  22.6427610996094 13.9657555527344  C 21.5698055498047 13.5263555527344  20.3817221992187 13.3654444472656  19.2269110996094 13.4968888945312  C 18.1825166494141 13.6133111054687  17.1675666494141 13.9726888945312  16.287766675293 14.5368888945312  C 15.455666675293 15.0687333417969  14.7437 15.7799777890625  14.2175277749023 16.6064888945312  C 13.6454222250977 17.5011777890625  13.2956222250977 18.5310666835937  13.2064055498047 19.5834888945312  C 13.1048222250977 20.7448222363281  13.3147610996094 21.9318666835937  13.81885 22.9877555527344  C 14.3830055498047 24.1802888945313  15.3155110996094 25.1994888945312  16.4588389003906 25.8841555527344  C 11.6791222250977 25.8847333417969  6.89911112548828 25.8841555527344  2.1191 25.8844444472656  C 1.88001109960937 25.8827111054688  1.63709445019531 25.8974444472656  1.40271667529297 25.8408222109375  C 0.907461125488279 25.7330666582031  0.469916675292967 25.4017111054688  0.234655549804686 24.9611555527344  C 0.113344450195312 24.7410222109375  0.04945 24.4940222109375  0 24.2452888945312  L 0 1.64406665820313  C 0.0550444501953125 1.23355555273438  0.227294450195312 0.832  0.519677774902344 0.53588889453125  Z M 4.38838332470703 4.38908889453125  C 4.34245 4.39024444726562  4.29622222509766 4.39342223632813  4.25146667529297 4.40411110546875  C 4.07597777490234 4.44426665820312  3.92316112548828 4.5682  3.85013890039062 4.7299777890625  C 3.75945 4.92411113085937  3.79154445019531 5.16648889453125  3.93111109960937 5.3305777890625  C 4.04594442431641 5.47242223632812  4.23115 5.55071113085938  4.41488332470703 5.54464444726563  C 7.53717222509766 5.54493334179688  10.6597555498047 5.54493334179688  13.7820444501953 5.54464444726563  C 13.9802055498047 5.55186665820313  14.17925 5.45855555273438  14.2920222250977 5.29764444726563  C 14.4145111254883 5.12922223632813  14.4324722250977 4.89464444726562  14.337366675293 4.71033334179687  C 14.2422611254883 4.5167777890625  14.0293777749023 4.38591113085938  13.810016675293 4.3893777890625  C 10.6694722250977 4.38908889453125  7.52892777490234 4.38908889453125  4.38838332470703 4.38908889453125  Z M 4.38897222509766 9.2424222109375  C 4.34245 9.24328886914063  4.29533890039062 9.247044421875  4.24999445019531 9.2580222109375  C 4.07538890039063 9.29817776367187  3.92375 9.42153331640625  3.85072777490234 9.58215555273438  C 3.75915554980469 9.77657776367188  3.79125 10.0204  3.9317 10.1847777890625  C 4.04682777490234 10.3260444472656  4.23144445019531 10.4040444472656  4.41458890039062 10.3979777890625  C 7.20327222509766 10.3982666835938  9.99195557568359 10.3982666835938  12.7806389003906 10.3976888945312  C 12.9705555756836 10.4031777890625  13.1610611254883 10.3162222363281  13.273833324707 10.1651333417969  C 13.4131055498047 9.98631113085938  13.4290055498047 9.72602223632813  13.3127 9.5321777890625  C 13.2122944501953 9.3574  13.01325 9.241555578125  12.8080222250977 9.24271110546875  C 10.0016722250977 9.24213331640625  7.19532222509765 9.24271110546875  4.38897222509766 9.2424222109375  Z M 4.53442777490234 14.0957555527344  C 4.43107777490234 14.0966222109375  4.32507777490234 14.0882444472656  4.22496667529297 14.1177111054688  C 4.04623890039062 14.1671111054688  3.89636667529297 14.3043333164063  3.83394445019531 14.4759333417969  C 3.76092222509766 14.6692  3.80420554980469 14.8997333417969  3.94495 15.0534222109375  C 4.06096109960937 15.1860222109375  4.23998332470703 15.2570888691406  4.41723890039062 15.2513111054687  C 5.9881 15.2513111054687  7.55925557568359 15.2521777636719  9.13011667529297 15.2507333417969  C 9.34123335058594 15.2547777890625  9.54911112548828 15.1389333417969  9.65128332470703 14.9572222109375  C 9.76287777490234 14.7682888691406  9.75051109960937 14.517244421875  9.62007222509765 14.3404444472656  C 9.51112777490234 14.1853111054687  9.32032777490234 14.0908444472656  9.12835 14.0957555527344  C 7.59694445019531 14.0960444472656  6.06553890039063 14.0957555527344  4.53442777490234 14.0957555527344  Z M 4.41547222509766 18.9488  C 4.35982222509766 18.9488  4.30358332470703 18.9514  4.24911109960938 18.9646888945312  C 4.00148332470703 19.0201555527344  3.80744442431641 19.2480888945313  3.79978890039063 19.4979777890625  C 3.78359445019531 19.7380444472656  3.93994445019531 19.9752222363281  4.16784445019531 20.0621777890625  C 4.28385554980469 20.111  4.41193890039062 20.1049333417969  4.53531109960938 20.1049333417969  C 5.68393887451172 20.1043555527344  6.83256664941406 20.1049333417969  7.98119445019531 20.1046444472656  C 8.17906112548828 20.1112888945312  8.37810554980469 20.0171111054688  8.48999445019531 19.8556222109375  C 8.62396667529297 19.6707333164062  8.62985554980469 19.4072666582031  8.50353890039062 19.2174666582031  C 8.39930557568359 19.0528  8.20585557568359 18.9470666582031  8.00798890039063 18.9493777890625  C 6.81048335058594 18.9488  5.61297780078125 18.9496666835938  4.41547222509766 18.9488  Z M 15.9465055498047 15.9328  C 16.9764722250977 14.9673333417969  18.3736110996094 14.3912888945313  19.7975444501953 14.3450666582031  C 20.827216675293 14.3054888691406  21.8669 14.5334222109375  22.7787944501953 15.0054666582031  C 23.6683111254883 15.4636444472656  24.4356333505859 16.1471555527344  24.9871277749023 16.9713555527344  C 25.4994610996094 17.7346  25.82335 18.6186  25.9228722250977 19.5274444472656  C 26.06715 20.7968222363281  25.773 22.1106888945313  25.0895944501953 23.1986444472656  C 24.5104222250977 24.1308888945312  23.6583 24.8967333417969  22.6616055498047 25.3820666582031  C 21.3118722250977 26.0465111054687  19.7003777749023 26.169  18.2599555498047 25.727  C 17.3580722250977 25.4528444472656  16.5256777749023 24.9620222109375  15.854933324707 24.3102888945313  C 15.1414944243164 23.6233111054688  14.6106110996094 22.7557777890625  14.3288277749023 21.8148666582031  C 14.0064110996094 20.7454  14.0064110996094 19.5846444472656  14.328533324707 18.5151777890625  C 14.6220944243164 17.5341111308594  15.1868388745117 16.6327777890625  15.9465055498047 15.9328  Z M 22.7667222250977 18.5122888945312  C 22.605366675293 18.3421333417969  22.3347722250977 18.2858  22.116883324707 18.3773777890625  C 22.01 18.4175333417969  21.9269666494141 18.4969777890625  21.849233324707 18.5767111054687  C 21.04275 19.3679777636719  20.2365610996094 20.1595333164063  19.429783324707 20.9502222109375  C 18.8741666494141 20.4068222109375  18.3206110996094 19.8616888691406  17.7652889003906 19.318  C 17.6277833505859 19.1784666582031  17.416666675293 19.1149111054687  17.2235110996094 19.1568  C 17.0162221992188 19.1972444472656  16.83985 19.3567111054688  16.7809610996094 19.5554666582031  C 16.7185388745117 19.7501777636719  16.7738944243164 19.9743555527344  16.9187610996094 20.1205333417969  C 17.6283721992187 20.8202222363281  18.3429888745117 21.5152888945313  19.0514222250977 22.2158444472656  C 19.2722555498047 22.4039111054688  19.6361889003906 22.3888888945312  19.8393555498047 22.1823333417969  C 20.7977722250977 21.2434444472656  21.7544222250977 20.3031111308594  22.7128389003906 19.3642222109375  C 22.7832111254883 19.2969111054687  22.8494611254883 19.2223777636719  22.8856777749023 19.1316666582031  C 22.9740110996094 18.9256888691406  22.9266055498047 18.6720444472656  22.7667222250977 18.5122888945312  Z " fill-rule="nonzero" fill="#30a3f6" stroke="none" transform="matrix(1 0 0 1 301 1005 )" />
  </g>
</svg>