<?xml version="1.0" encoding="utf-8"?>
<svg version="1.1" xmlns:xlink="http://www.w3.org/1999/xlink" width="27px" height="28px" xmlns="http://www.w3.org/2000/svg">
  <g transform="matrix(1 0 0 1 -230 -1253 )">
    <path d="M 10.772307703125 22.6834568009259  L 7.78153847235577 27.8271605046296  C 7.78153847235577 27.8271605046296  6.23076923076923 26.0849382824074  4.76307691225962 24.6469135694444  C 3.19846153846154 24.2182715833333  1.62 23.8172839398148  0.0276922968750016 23.4439506064815  L 3.25384616466346 17.8716049490741  C 4.95692308774038 20.0839506388889  7.94769231850962 21.992098787037  10.772307703125 22.6834568009259  Z M 26.972307703125 23.4439506064815  C 26.9584615384615 23.4577777777778  24.5907692307692 23.7896296296296  22.4999999891827 24.3703703703704  C 21.0323076706731 25.8083950509259  19.2046153629808 27.8271605046296  19.2046153954327 27.8271605046296  L 16.2415384615385 22.6834568009259  C 19.0661538461538 21.992098787037  21.7800000108173 20.0977777777778  23.4830769338942 17.8716049490741  L 26.972307703125 23.4439506064815  Z M 23.9400000108173 10.6261728287037  C 23.9400000432692 4.99851851851852  19.1076923076923 0.17283949537037  13.4861538353365 0.17283949537037  C 7.86461536298077 0.17283949537037  3.03230769230769 5.27506171759259  3.03230769230769 10.9027160601852  C 3.03230769230769 16.5303704027778  7.86461539543269 21.0795061944444  13.4861538353365 21.079506162037  C 19.1076922752404 21.0795061296296  23.9399999783654 16.2538271388889  23.9400000108173 10.6261728287037  Z M 19.5092307584135 8.52444444444445  C 19.9523076706731 8.98074074074074  19.9661538353365 9.72740740740741  19.5230769230769 10.1698765324074  L 17.6953846153846 12.0641975416667  C 17.4461538461538 12.3130864305556  17.3215384615385 12.6725925925926  17.4046153846154 13.0320987546296  L 17.4046153846154 13.0735802361111  L 17.82 15.645432087963  C 17.8615384615385 15.8943209768518  17.82 16.157037037037  17.6953846153846 16.3644444444444  C 17.3769230877404 16.9313580138889  16.6707692415865 17.1525925925926  16.1030769122596 16.834567912037  L 13.9984615384615 15.714567912037  C 13.6661538461538 15.5348148148148  13.2507692307692 15.5348148148148  12.9184615384615 15.7560493935185  L 10.8692307584135 16.8483950509259  C 10.6338461538461 16.9728394953704  10.3846153846154 17.0004938055556  10.1215384507211 16.9728394953704  C 9.49846152764422 16.8760493611111  9.05538461538461 16.2676543101852  9.15230770312499 15.645432087963  L 9.58153845072115 12.9767901342593  C 9.62307691225961 12.6587654537037  9.52615382451923 12.354567912037  9.30461538461538 12.119506162037  L 7.46307691225962 10.1698765324074  C 7.31076923076923 9.99012343518518  7.18615384615385 9.75506171759259  7.14461538461539 9.52  C 7.047692296875 8.89777777777778  7.50461537379808 8.30320986574074  8.127692296875 8.20641976388889  L 10.4815384723558 7.83308643055556  C 10.8553846262019 7.81925925925926  11.1876923185096 7.58419754166667  11.34 7.23851851851852  L 12.42 4.94320986574074  C 12.6138461430288 4.55604936111111  13.0292307584135 4.27950616203704  13.4861538353365 4.27950616203704  C 13.9430769122596 4.27950616203704  14.3446153629808 4.52839505092593  14.552307703125 4.94320986574074  L 15.6184615384615 7.22469134722222  C 15.7707692199519 7.58419750925926  16.1030769122596 7.81925925925926  16.5046153954327 7.84691356944445  L 18.8584615384615 8.20641976388889  C 19.0938461430288 8.24790124537037  19.3292307800481 8.35851851851852  19.5092307584135 8.52444444444445  Z " fill-rule="nonzero" fill="#30a3f6" stroke="none" transform="matrix(1 0 0 1 230 1253 )" />
  </g>
</svg>