<?xml version="1.0" encoding="utf-8"?>
<svg version="1.1" xmlns:xlink="http://www.w3.org/1999/xlink" width="30px" height="30px" xmlns="http://www.w3.org/2000/svg">
  <g transform="matrix(1 0 0 1 -369 -1164 )">
    <path d="M 30 15  C 30 23.2839999902344  23.2839999902344 30  15 30  C 6.71600000976562 30  0 23.2839999902344  0 15  C 0 6.71600000976562  6.71600000976562 0  15 0  C 23.2839999902344 0  30 6.71600000976562  30 15  Z M 24.9 11.4369999902344  C 24.9 10.0969999804688  25.1870000097656 9  24.1940000097656 9  L 5.80599999023438 9  C 4.81299999023437 9  5.1 10.0970000097656  5.1 11.4369999902344  L 5.1 12.2499999902344  L 24.9 12.2499999902344  L 24.9 11.4369999902344  Z M 5.1 13.3340000097656  L 5.1 13.3329999902344  L 5.1 19.7240000097656  C 5.1 20.976  4.81299999023437 22.0000000195312  5.80599999023438 22  L 24.1940000097656 22  C 25.1870000097656 21.9999999902344  24.9 20.976  24.9 19.7240000097656  L 24.9 13.3340000097656  L 5.1 13.3340000097656  Z M 22.9970000097656 19.2650000097656  L 19.8699999902344 19.2650000097656  L 19.5080000097656 16.182  L 22.6340000097656 16.182  L 22.9970000097656 19.2650000097656  Z " fill-rule="nonzero" fill="#30a3f6" stroke="none" transform="matrix(1 0 0 1 369 1164 )" />
  </g>
</svg>