<?xml version="1.0" encoding="utf-8"?>
<svg version="1.1" xmlns:xlink="http://www.w3.org/1999/xlink" width="28px" height="31px" xmlns="http://www.w3.org/2000/svg">
  <g transform="matrix(1 0 0 1 -160 -1165 )">
    <path d="M 26.3393617021277 29.1732142857143  C 28.4728723404255 27.0991666666667  28.4728723404255 23.567380952381  26.3393617021277 21.4896428571429  C 24.2058510638298 19.4119047619048  20.5755319148936 19.4119047619048  18.4420212765957 21.4896428571429  C 16.3085106382979 23.567380952381  16.3085106382979 27.0954761904762  18.4420212765957 29.1732142857143  C 20.5755319148936 31.2509523809524  24.2058510638298 31.2509523809524  26.3393617021277 29.1732142857143  Z M 23.718085106383 24.7261904761905  L 24.931914893617 24.7261904761905  L 24.931914893617 25.9255952380952  L 23.1148936170213 25.9255952380952  L 23.1148936170213 26.5271428571429  L 24.931914893617 26.5271428571429  L 24.931914893617 27.7265476190476  L 23.1148936170213 27.7265476190476  L 23.1148936170213 28.9259523809524  L 21.9047872340426 28.9259523809524  L 21.9047872340426 27.7265476190476  L 20.0877659574468 27.7265476190476  L 20.0877659574468 26.5271428571429  L 21.9047872340426 26.5271428571429  L 21.9047872340426 25.9255952380952  L 20.0877659574468 25.9255952380952  L 20.0877659574468 24.7261904761905  L 21.2978723404255 24.7261904761905  L 19.938829787234 22.32  L 21.2196808510638 22.32  L 22.2882978723404 23.9807142857143  C 22.5005319148936 24.187380952381  22.5005319148936 24.3977380952381  22.5005319148936 24.6044047619048  C 22.5005319148936 24.3977380952381  22.7127659574468 24.187380952381  22.7127659574468 23.9807142857143  L 23.7813829787234 22.32  L 25.0585106382979 22.32  L 23.718085106383 24.7261904761905  Z M 14.6292553191489 24.7261904761905  C 14.6292553191489 20.9877380952381  17.8015957446809 17.9615476190476  21.8563829787234 17.9615476190476  C 22.7090425531915 17.9615476190476  23.2898936170213 17.9135714285714  23.718085106383 18.1202380952381  L 23.718085106383 6.1077380952381  C 23.718085106383 4.44702380952381  22.6085106382979 3.10369047619048  20.6872340425532 3.10369047619048  L 17.0531914893617 3.10369047619048  C 17.0531914893617 1.64964285714286  15.668085106383 0.0996428571428567  14.3872340425532 0.0996428571428567  L 9.26382978723404 0.0996428571428567  C 7.98297872340426 0.0996428571428567  6.75053191489362 1.85630952380952  6.75053191489362 3.10369047619048  L 3.71968085106383 3.10369047619048  C 2.01063829787234 3.31035714285714  0.0856382978723409 4.25511904761905  0 5.91583333333333  L 0 25.6451190476191  C 0.0856382978723409 27.3058333333333  1.80212765957447 28.3317857142857  3.71968085106383 28  L 15.2324468085106 28  C 14.5101063829787 27.4202380952381  14.6292553191489 26.3869047619048  14.6292553191489 24.7261904761905  Z M 8.62340425531915 2.80107142857143  C 8.62340425531915 2.3877380952381  8.83563829787234 1.97071428571429  9.26382978723404 1.97071428571429  L 14.3872340425532 1.97071428571429  C 14.8154255319149 1.97071428571429  15.2398936170213 2.3877380952381  15.2398936170213 2.80107142857143  C 15.2398936170213 3.21809523809524  14.8117021276596 3.63142857142857  14.3872340425532 3.63142857142857  L 9.26382978723404 3.63142857142857  C 8.83563829787234 3.42476190476191  8.62340425531915 3.0077380952381  8.62340425531915 2.80107142857143  Z M 4.93351063829787 9.70964285714286  C 4.93351063829787 9.04904761904762  5.47712765957447 8.5102380952381  6.1436170212766 9  L 18.2632978723404 9  C 18.9335106382979 8.5102380952381  19.4734042553191 9.04904761904762  19.4734042553191 9.70964285714286  C 19.4734042553191 10.3739285714286  18.9297872340426 10.9127380952381  18.2632978723404 11  L 6.1436170212766 11  C 5.47340425531915 10.9127380952381  4.93351063829787 10.3739285714286  4.93351063829787 9.70964285714286  Z M 12.2015957446809 19.3196428571429  C 12.2053191489362 19.9839285714286  11.6617021276596 20.5227380952381  10.9914893617021 20.5227380952381  L 6.1436170212766 20.5227380952381  C 5.47340425531915 20.5227380952381  4.93351063829787 19.9839285714286  4.93351063829787 19.3196428571429  C 4.93351063829787 18.6553571428571  5.47712765957447 18.1202380952381  6.1436170212766 18.1202380952381  L 10.9914893617021 18.1202380952381  C 11.6617021276596 18.1202380952381  12.2015957446809 18.6590476190476  12.2015957446809 19.3196428571429  Z M 15.2324468085106 15.7177380952381  L 6.1436170212766 15.7177380952381  C 5.47340425531915 15.7177380952381  4.93351063829787 15.1789285714286  4.93351063829787 14.5183333333333  C 4.93351063829787 13.8540476190476  5.47712765957447 13.3152380952381  6.1436170212766 13.3152380952381  L 15.2324468085106 13.3152380952381  C 15.9026595744681 13.3152380952381  16.4425531914894 13.8540476190476  16.4425531914894 14.5183333333333  C 16.4425531914894 15.182619047619  15.8989361702128 15.7177380952381  15.2324468085106 15.7177380952381  Z " fill-rule="nonzero" fill="#30a3f6" stroke="none" transform="matrix(1 0 0 1 160 1165 )" />
  </g>
</svg>