<?xml version="1.0" encoding="utf-8"?>
<svg version="1.1" xmlns:xlink="http://www.w3.org/1999/xlink" width="29px" height="25px" xmlns="http://www.w3.org/2000/svg">
  <g transform="matrix(1 0 0 1 -299 -1166 )">
    <path d="M 29 4.89690721649485  L 29 7  L 0 7  L 0 4.89690721649485  C 0 3.75817577354476  0.927410161064785 2.83505154639175  2.07142857142857 2.83505154639175  L 4.8920238203125 2.83505154639175  C 4.85297987439047 2.72465705934257  4.83313197036565 2.60844428132762  4.83333332254464 2.49140892396907  L 4.83333332254464 1.11683849871134  C 4.83333332254464 0.547472777236296  5.29703840307704 0.0859106636597939  5.86904760825893 0.0859106636597939  C 6.44105681344082 0.0859106636597939  6.90476189397322 0.547472777236296  6.90476189397322 1.11683849871134  L 6.90476189397322 2.49140892396907  C 6.90476189397322 2.61168382731959  6.88404760825893 2.72783505154639  6.84607142857143 3  L 22.1539285714286 3  C 22.1148846365207 2.72465705743309  22.0950367434504 2.60844427947049  22.0952381060268 2.49140892396907  L 22.0952381060268 1.11683849871134  C 22.0952381060268 0.547472777236296  22.5589431865592 0.0859106636597944  23.1309523917411 0.0859106636597944  C 23.702961596923 0.0859106636597944  24.1666666774554 0.547472777236296  24.1666666774554 1.11683849871134  L 24.1666666774554 2.49140892396907  C 24.1666666774554 2.61168382731959  24.1459523917411 2.72783505154639  24.1079761796875 2.83505154639175  L 26.9285714285714 2.83505154639175  C 28.0725898389352 2.83505154639175  29 3.75817577354476  29 4.89690721649485  Z M 0 9  L 29 9  L 29 22.7663230347938  C 29 23.9050544777439  28.0725898389352 24.8281787048969  26.9285714285714 24.8281787048969  L 2.07142857142857 24.8281787048969  C 0.927410161064785 24.8281787048969  0 23.9050544777439  0 22.7663230347938  L 0 9  Z M 10.7023809631696 11.769759439433  L 4.48809524888393 11.769759439433  C 3.91608604370204 11.769759439433  3.45238096316964 12.2313215530095  3.45238096316964 12.8006872744845  C 3.45238096316964 13.3700529959596  3.91608604370203 13.8316151095361  4.48809524888393 13.8316151095361  L 10.7023809631696 13.8316151095361  C 11.2743901683515 13.8316151095361  11.7380952488839 13.3700529959596  11.7380952488839 12.8006872744845  C 11.7380952488839 12.2313215530095  11.2743901683515 11.769759439433  10.7023809631696 11.769759439433  Z " fill-rule="nonzero" fill="#30a3f6" stroke="none" transform="matrix(1 0 0 1 299 1166 )" />
  </g>
</svg>