<?xml version="1.0" encoding="utf-8"?>
<svg version="1.1" xmlns:xlink="http://www.w3.org/1999/xlink" width="21px" height="22px" xmlns="http://www.w3.org/2000/svg">
  <g transform="matrix(1 0 0 1 -827 -188 )">
    <path d="M 20.1339087701613 18.2703125  L 17.5094380040323 15.6092041015625  L 20.1315272177419 12.948095703125  C 20.433984375 12.6411376953125  20.433984375 12.1432373046875  20.1315272177419 11.836279296875  C 19.8290700604839 11.5293212890625  19.3384702620968 11.5293212890625  19.0360131048387 11.836279296875  L 16.4163054435484 14.4973876953125  L 13.7918346774194 11.836279296875  C 13.4893775201613 11.5293212890625  12.9987777217742 11.5293212890625  12.6963205645161 11.836279296875  C 12.3938634072581 12.1432373046875  12.3938634072581 12.6411376953125  12.6963205645161 12.948095703125  L 15.3184097782258 15.6092041015625  L 12.6987021169355 18.2703125  C 12.3962449596774 18.5772705078125  12.3962449596774 19.0751708984375  12.6987021169355 19.38212890625  C 12.8487399193548 19.5343994140625  13.0487903225806 19.6117431640625  13.2464591733871 19.6117431640625  C 13.4441280241935 19.6117431640625  13.641796875 19.5343994140625  13.7942162298387 19.38212890625  L 16.4163054435484 16.7210205078125  L 19.0383946572581 19.38212890625  C 19.1884324596774 19.5343994140625  19.3884828629032 19.6117431640625  19.5861517137097 19.6117431640625  C 19.7838205645161 19.6117431640625  19.9814894153226 19.5343994140625  20.1339087701613 19.38212890625  C 20.4363659274194 19.0751708984375  20.4363659274194 18.5772705078125  20.1339087701613 18.2703125  Z M 10.7886970766129 21.059521484375  C 10.7886970766129 20.5930419921875  10.4171748991935 20.21357421875  9.95515372983871 20.21357421875  L 2 20.21357421875  L 2 2  L 18.6906880040323 2  L 18.6906880040323 7.630712890625  C 18.6906880040323 8.0971923828125  19.064591733871 8.47666015625  19.5242313508065 8.47666015625  C 19.9838709677419 8.47666015625  20.3577746975806 8.0971923828125  20.3577746975806 7.630712890625  L 20.3577746975806 0.998486328125  C 20.3577746975806 0.5320068359375  19.9838709677419 0.1525390625  19.5242313508065 0.1525390625  L 0.979082661290323 0.1525390625  C 0.519443044354839 0.1525390625  0.145539314516129 0.5320068359375  0.145539314516129 0.998486328125  L 0.145539314516129 21.059521484375  C 0.145539314516129 21.5260009765625  0.519443044354839 21.90546875  0.979082661290323 21.90546875  L 9.95515372983871 21.90546875  C 10.4147933467742 21.90546875  10.7886970766129 21.5260009765625  10.7886970766129 21.059521484375  Z M 15.7518523185484 7  C 16.2138734879032 6.7726806640625  16.5877772177419 6.393212890625  16.5877772177419 5.9267333984375  C 16.5877772177419 5.46025390625  16.2138734879032 5.0807861328125  15.7542338709677 5  L 5.02295866935484 5  C 4.56331905241935 5.0807861328125  4.18941532258065 5.46025390625  4.18941532258065 5.9267333984375  C 4.18941532258065 6.393212890625  4.56331905241935 6.7726806640625  5.02295866935484 7  L 15.7518523185484 7  Z M 9.56457913306452 11.76376953125  C 10.02421875 11.76376953125  10.3981224798387 11.3843017578125  10.3981224798387 10.917822265625  C 10.3981224798387 10.4513427734375  10.02421875 10.071875  9.56457913306452 10.071875  L 5.02295866935484 10.071875  C 4.56331905241935 10.071875  4.18941532258065 10.4513427734375  4.18941532258065 10.917822265625  C 4.18941532258065 11.3843017578125  4.56331905241935 11.76376953125  5.02295866935484 11.76376953125  L 9.56457913306452 11.76376953125  Z M 7.55931199596774 15.065380859375  L 5.02295866935484 15.065380859375  C 4.56331905241935 15.065380859375  4.18941532258065 15.4448486328125  4.18941532258065 15.911328125  C 4.18941532258065 16.3778076171875  4.56331905241935 16.757275390625  5.02295866935484 16.757275390625  L 7.55931199596774 16.757275390625  C 8.01895161290323 16.757275390625  8.39285534274194 16.3778076171875  8.39285534274194 15.911328125  C 8.39285534274194 15.4448486328125  8.01895161290323 15.065380859375  7.55931199596774 15.065380859375  Z " fill-rule="nonzero" fill="#444444" stroke="none" transform="matrix(1 0 0 1 827 188 )" />
  </g>
</svg>