<?xml version="1.0" encoding="utf-8"?>
<svg version="1.1" xmlns:xlink="http://www.w3.org/1999/xlink" width="19px" height="20px" xmlns="http://www.w3.org/2000/svg">
  <g transform="matrix(1 0 0 1 -914 -1124 )">
    <path d="M 19 9.39584  C 19 14.50176  14.7578181818182 18.65792  9.5 18.65792  C 4.24218181818182 18.65792  0 14.50176  0 9.39584  C 0 4.28992  4.24218181818182 0.13376  9.5 0.13376  C 14.7578181818182 0.13376  19 4.28992  19 9.39584  Z M 1.72727272727273 9.39584  C 1.72727272727273 13.63648  5.21774545454545 17.05792  9.5 17.05792  C 13.7822545454545 17.05792  17.2727272727273 13.63648  17.2727272727273 9.39584  C 17.2727272727273 5.15392  13.7822545454545 1.73376  9.5 1.73376  C 5.21774545454545 1.73376  1.72727272727273 5.15392  1.72727272727273 9.39584  Z M 15.0410909090909 17.19744  L 15.0410909090909 17.19872  C 14.8929987789145 17.0507908935371  14.8107114149978 16.8564940616806  14.8107114149978 16.6547481956251  C 14.8107114149978 16.2129203957605  15.1973745855985 15.8547481956251  15.6743477786342 15.8547481956251  C 15.908719162423 15.8547481956251  16.1330260689693 15.9429831884795  16.2957818181818 16.0992  L 18.7637090909091 18.51712  C 18.9118012210855 18.6650491064629  18.9940885850022 18.8593459383194  18.9940885850022 19.0610918043749  C 18.9940885850022 19.5029196042395  18.6074254144015 19.8610918043749  18.1304522213658 19.8610918043749  C 17.896080837577 19.8610918043749  17.6717739310307 19.7728568115205  17.5090181818182 19.61664  L 15.0410909090909 17.19744  Z " fill-rule="nonzero" fill="#e1e1e1" stroke="none" transform="matrix(1 0 0 1 914 1124 )" />
  </g>
</svg>