<?xml version="1.0" encoding="utf-8"?>
<svg version="1.1" xmlns:xlink="http://www.w3.org/1999/xlink" width="22px" height="22px" preserveAspectRatio="xMinYMid meet" viewBox="841 1069  22 20" xmlns="http://www.w3.org/2000/svg">
  <path d="M 851 1079.5  L 870 1079.5  A 5 5 0 0 0 875.5 1074.5 L 875.5 979  A 5 5 0 0 1 880.5 974.5 L 886 974.5  " stroke-width="3" stroke="#d7af1f" fill="none" />
  <path d="M 852 1075.5  A 4 4 0 0 0 848 1079.5 A 4 4 0 0 0 852 1083.5 A 4 4 0 0 0 856 1079.5 A 4 4 0 0 0 852 1075.5 Z M 885 970.5  A 4 4 0 0 0 881 974.5 A 4 4 0 0 0 885 978.5 A 4 4 0 0 0 889 974.5 A 4 4 0 0 0 885 970.5 Z " fill-rule="nonzero" fill="#d7af1f" stroke="none" />
</svg>