<?xml version="1.0" encoding="utf-8"?>
<svg version="1.1" xmlns:xlink="http://www.w3.org/1999/xlink" width="12px" height="23px" preserveAspectRatio="xMidYMin meet" viewBox="1421 924  10 23" xmlns="http://www.w3.org/2000/svg">
  <path d="M 1259 1134.5  L 1275 1134.5  A 5 5 0 0 0 1280.5 1129.5 L 1280.5 935  A 5 5 0 0 1 1285.5 930.5 L 1421 930.5  A 5 5 0 0 1 1426.5 935.5 L 1426.5 944  " stroke-width="3" stroke="#d7af1f" fill="none" />
  <path d="M 1260 1130.5  A 4 4 0 0 0 1256 1134.5 A 4 4 0 0 0 1260 1138.5 A 4 4 0 0 0 1264 1134.5 A 4 4 0 0 0 1260 1130.5 Z M 1426.5 939  A 4 4 0 0 0 1422.5 943 A 4 4 0 0 0 1426.5 947 A 4 4 0 0 0 1430.5 943 A 4 4 0 0 0 1426.5 939 Z " fill-rule="nonzero" fill="#d7af1f" stroke="none" />
</svg>