<?xml version="1.0" encoding="utf-8"?>
<svg version="1.1" xmlns:xlink="http://www.w3.org/1999/xlink" width="22px" height="22px" preserveAspectRatio="xMinYMid meet" viewBox="485 250  22 20" xmlns="http://www.w3.org/2000/svg">
  <path d="M 497 260.5  L 473 260.5  A 5 5 0 0 1 468.5 255.5 L 468.5 94  A 5 5 0 0 0 463.5 89.5 L 449 89.5  " stroke-width="3" stroke="#d7af1f" fill="none" />
  <path d="M 496 256.5  A 4 4 0 0 0 492 260.5 A 4 4 0 0 0 496 264.5 A 4 4 0 0 0 500 260.5 A 4 4 0 0 0 496 256.5 Z M 450 85.5  A 4 4 0 0 0 446 89.5 A 4 4 0 0 0 450 93.5 A 4 4 0 0 0 454 89.5 A 4 4 0 0 0 450 85.5 Z " fill-rule="nonzero" fill="#d7af1f" stroke="none" />
</svg>