<?xml version="1.0" encoding="utf-8"?>
<svg version="1.1" xmlns:xlink="http://www.w3.org/1999/xlink" width="12px" height="650px" preserveAspectRatio="xMidYMin meet" viewBox="2485 1070  10 650" xmlns="http://www.w3.org/2000/svg">
  <path d="M 2465 1714.5  L 2485 1714.5  A 5 5 0 0 0 2490.5 1709.5 L 2490.5 1081  A 5 5 0 0 1 2495.5 1076.5 L 2497 1076.5  " stroke-width="3" stroke="#d7af1f" fill="none" />
  <path d="M 2466 1710.5  A 4 4 0 0 0 2462 1714.5 A 4 4 0 0 0 2466 1718.5 A 4 4 0 0 0 2470 1714.5 A 4 4 0 0 0 2466 1710.5 Z M 2496 1072.5  A 4 4 0 0 0 2492 1076.5 A 4 4 0 0 0 2496 1080.5 A 4 4 0 0 0 2500 1076.5 A 4 4 0 0 0 2496 1072.5 Z " fill-rule="nonzero" fill="#d7af1f" stroke="none" />
</svg>