<?xml version="1.0" encoding="utf-8"?>
<svg version="1.1" xmlns:xlink="http://www.w3.org/1999/xlink" width="17px" height="12px" xmlns="http://www.w3.org/2000/svg">
  <g transform="matrix(1 0 0 1 -780 -193 )">
    <path d="M 6.28826530612245 4.67647058823529  C 6.28826530612245 4.53027756622126  6.40476264162566 4.41176470588235  6.5484693877551 4.41176470588235  L 16.609693877551 4.41176470588235  C 16.7534006236805 4.41176470588235  16.8698979591837 4.53027756622126  16.8698979591837 4.67647058823529  L 16.8698979591837 5.91176470588235  C 16.8698979591837 6.05795772789639  16.7534006236805 6.17647058823529  16.609693877551 6  L 6.5484693877551 6  C 6.40476264162566 6.17647058823529  6.28826530612245 6.05795772789639  6.28826530612245 5.91176470588235  L 6.28826530612245 4.67647058823529  Z M 6.28826530612245 8.95588235294118  C 6.28826530612245 8.80968933092714  6.40476264162566 8.69117647058824  6.5484693877551 8.69117647058824  L 16.609693877551 8.69117647058824  C 16.7534006236805 8.69117647058824  16.8698979591837 8.80968933092714  16.8698979591837 8.95588235294118  L 16.8698979591837 10.1911764705882  C 16.8698979591837 10.3373694926023  16.7534006236805 10.4558823529412  16.609693877551 10.4558823529412  L 6.5484693877551 10.4558823529412  C 6.40476264162566 10.4558823529412  6.28826530612245 10.3373694926023  6.28826530612245 10.1911764705882  L 6.28826530612245 8.95588235294118  Z M 6.28826530612245 0.397058823529412  C 6.28826530612245 0.250865801515378  6.40476264162566 0.132352941176471  6.5484693877551 0.132352941176471  L 16.609693877551 0.132352941176471  C 16.7534006236805 0.132352941176471  16.8698979591837 0.250865801515378  16.8698979591837 0.397058823529412  L 16.8698979591837 1.63235294117647  C 16.8698979591837 1.7785459631905  16.7534006236805 1.89705882352941  16.609693877551 2  L 6.5484693877551 2  C 6.40476264162566 1.89705882352941  6.28826530612245 1.7785459631905  6.28826530612245 1.63235294117647  L 6.28826530612245 0.397058823529412  Z M 0.0433673469387755 0.661764705882353  C 0.0433673469387755 0.515571683868319  0.159864682441987 0.397058823529412  0.303571428571429 0.397058823529412  L 4.16326530612245 0.397058823529412  C 4.30697205225189 0.397058823529412  4.4234693877551 0.515571683868319  4.4234693877551 0.661764705882353  L 4.4234693877551 1.89705882352941  C 4.4234693877551 2.04325184554345  4.30697205225189 2.16176470588235  4.16326530612245 2.16176470588235  L 0.303571428571429 2.16176470588235  C 0.159864682441987 2.16176470588235  0.0433673469387755 2.04325184554345  0.0433673469387755 1.89705882352941  L 0.0433673469387755 0.661764705882353  Z M 0.0433673469387755 10.4558823529412  C 0.0433673469387755 10.3096893309271  0.159864682441987 10.1911764705882  0.303571428571429 10.1911764705882  L 4.16326530612245 10.1911764705882  C 4.30697205225189 10.1911764705882  4.4234693877551 10.3096893309271  4.4234693877551 10.4558823529412  L 4.4234693877551 11.6911764705882  C 4.4234693877551 11.8373694926023  4.30697205225189 11.9558823529412  4.16326530612245 11.9558823529412  L 0.303571428571429 11.9558823529412  C 0.159864682441987 11.9558823529412  0.0433673469387755 11.8373694926023  0.0433673469387755 11.6911764705882  L 0.0433673469387755 10.4558823529412  Z " fill-rule="nonzero" fill="#464646" stroke="none" transform="matrix(1 0 0 1 780 193 )" />
  </g>
</svg>