<?xml version="1.0" encoding="utf-8"?>
<svg version="1.1" xmlns:xlink="http://www.w3.org/1999/xlink" width="22px" height="23px" xmlns="http://www.w3.org/2000/svg">
  <g transform="matrix(1 0 0 1 -781 -187 )">
    <path d="M 18.2563025210084 2  L 3.78991596638655 2  C 2.77052100840336 1.796875  1.94117647058824 2.602953125  2 3.59375  L 2 19.40625  C 1.94117647058824 20.397046875  2.77052100840336 21.203125  3.78991596638655 21  L 18.2563025210084 21  C 19.2756974789916 21.203125  20.1050420168067 20.397046875  20 19.40625  L 20 3.59375  C 20.1050420168067 2.602953125  19.2756974789916 1.796875  18.2563025210084 2  Z M 0 3.59375  C 0.092436974789916 1.608966796875  1.74784453781513 0  3.78991596638655 0  L 18.2563025210084 0  C 20.2983739495798 0  21.953781512605 1.608966796875  22 3.59375  L 22 19.40625  C 21.953781512605 21.391033203125  20.2983739495798 23  18.2563025210084 23  L 3.78991596638655 23  C 1.74784453781513 23  0.092436974789916 21.391033203125  0 19.40625  L 0 3.59375  Z " fill-rule="nonzero" fill="#464646" stroke="none" transform="matrix(1 0 0 1 781 187 )" />
  </g>
</svg>