<?xml version="1.0" encoding="utf-8"?>
<svg version="1.1" xmlns:xlink="http://www.w3.org/1999/xlink" width="71px" height="38px" xmlns="http://www.w3.org/2000/svg">
  <g transform="matrix(1 0 0 1 -997 -1115 )">
    <path d="M 1032.5 1116  C 1051.82 1116  1067 1123.92  1067 1134  C 1067 1144.08  1051.82 1152  1032.5 1152  C 1013.18 1152  998 1144.08  998 1134  C 998 1123.92  1013.18 1116  1032.5 1116  Z " fill-rule="nonzero" fill="#ffffff" stroke="none" fill-opacity="0" />
    <path d="M 1032.5 1116  C 1051.82 1116  1067 1123.92  1067 1134  C 1067 1144.08  1051.82 1152  1032.5 1152  C 1013.18 1152  998 1144.08  998 1134  C 998 1123.92  1013.18 1116  1032.5 1116  Z " stroke-width="2" stroke="#ffdfdf" fill="none" />
  </g>
</svg>