<?xml version="1.0" encoding="utf-8"?>
<svg version="1.1" xmlns:xlink="http://www.w3.org/1999/xlink" width="11px" height="12px" xmlns="http://www.w3.org/2000/svg">
  <g transform="matrix(1 0 0 1 -1028 -1123 )">
    <path d="M 10.6622146540698 5.28504161157025  L 8.41186721705426 7.63675875619835  C 8.53507464276486 8.3026571446281  8.64378708139535 8.90533733471074  8.73800453294574 9.44479932644628  C 8.78148950839793 9.6723848553719  8.8213507370801 9.89997038016529  8.85758821899225 10.1275559008264  C 8.89382570090439 10.3551414214876  8.92825130587855 10.561654214876  8.96086503391473 10.7470942809917  C 8.99347876195091 10.9325343471074  9.02065686983204 11.0905798512397  9.04239935755814 11.2212307933884  C 9.06414184528424 11.3518817355372  9.07863683591732 11.4340653966942  9.08588432945737 11.4677817768595  C 9.10762681718347 11.6363636446281  9.07501308559432 11.7480491322314  8.98804313468992 11.8028382396694  C 8.90107318378553 11.8576273471074  8.80323198901809 11.8850219008264  8.6945195503876 11.8850219008264  C 8.65828206847545 11.8850219008264  8.60573772254522 11.8702709876033  8.5368865125969 11.840769161157  C 8.46803530264858 11.8112673347107  8.41549095671835 11.7880873264463  8.3792534748062 11.7712291363636  L 5.54185886918605 9.84939581404959  C 5.02728666440568 10.2034177396694  4.55982318540052 10.5195087479339  4.13946843217054 10.797668838843  C 3.95828103682171 10.9156761446281  3.77890551485788 11.0336834545455  3.60134186627907 11.151690768595  C 3.42377821770026 11.2696980826446  3.26252143669251 11.3792762975207  3.11757152325581 11.4804254132231  C 2.97262160981912 11.5815745289256  2.84760230717054 11.6658654628099  2.74251361531008 11.733298214876  C 2.63742492344961 11.8007309669422  2.56676184011628 11.8428764338843  2.53052436531008 11.8597346157025  C 2.45804940859173 11.9018800867769  2.3837625749354 11.916631  2.30766386434108 11.9039873553719  C 2.23156515374677 11.8913437107438  2.16271394379845 11.8597346115702  2.10111023449612 11.8091600578512  C 2.0395065251938 11.7585855041322  1.99420967635659 11.6974745743802  1.9652196879845 11.625827268595  C 1.9362296996124 11.5541799628099  1.92898220251938 11.480425392562  1.94347719670543 11.4045635578512  C 1.95072469024548 11.3708471859504  1.96884343120155 11.2886635247934  1.99783341957364 11.1580125743802  C 2.02682340794574 11.0273616239669  2.05943713953488 10.871423392562  2.09567461434108 10.6901978801653  C 2.13191208914729 10.5089723677686  2.17358519121447 10.3087813966942  2.22069392054264 10.0896249669422  C 2.2678026498708 9.87046853719008  2.31672324547804 9.64709755785124  2.36745570736434 9.41951202892562  C 2.47616814599483 8.89690822727273  2.5993755752584 8.30687167768595  2.73707799515504 7.64940238016529  C 2.30947574127907 7.21951861157025  1.9253584628553 6.8359948553719  1.58472615988372 6.49883111157025  C 1.43977624644703 6.35553652479339  1.29663820284238 6.21434920661157  1.15531202906977 6.07526915702479  C 1.01398585529716 5.93618910743802  0.887154679263565 5.80975270247934  0.774818500968992 5.69595994214876  C 0.662482322674418 5.58216718181818  0.570076751614986 5.48944715289256  0.497601787790697 5.4177998553719  C 0.425126823966407 5.34615255785124  0.385265595284237 5.30611436363637  0.378018101744185 5.29768527272727  C 0.291048150839793 5.20496523966942  0.216761317183462 5.10170884297521  0.155157600775193 4.98791608264463  C 0.0935538843669243 4.87412332231405  0.0699995232558132 4.75822328512397  0.0844945174418597 4.64021597107438  C 0.0989895116279062 4.52220865702479  0.138850740310077 4.42948862809917  0.204078203488371 4.36205588429752  C 0.269305666666666 4.29462314049587  0.341780623385012 4.25247767355372  0.42150307364341 4.23561948347108  L 3.78071737403101 3.88159755371901  L 5.03091040406977 0.493101954545456  C 5.07439537952196 0.358236458677687  5.13599909237726 0.242336421487604  5.21572154263566 0.145401842975208  C 5.29544399289406 0.0484672809917359  5.40415643152455 0  5.54185885852713 0  C 5.61433381524548 0  5.67774940503876 0.0189654504132235  5.73210562790698 0.0568963512396705  C 5.78646185077519 0.0948272520661176  5.8317586996124 0.139079991735539  5.8679961744186 0.189654570247935  C 5.90423364922481 0.240229148760331  5.93503550742894 0.290803710743802  5.96040174903101 0.341378256198348  C 5.98576799063307 0.391952801652894  6.00569860497416 0.434098268595043  6.02019359205426 0.467814657024795  L 7.23777289050387 3.85631025619835  L 10.5969871908915 4.22297582231405  C 10.7419371043282 4.26512129338843  10.8434020458656 4.3156958553719  10.9013820155039 4.37469950826446  C 10.9593619851421 4.43370316115703  10.9883519699612 4.52642319008265  10.9883519699612 4.65285959504132  C 10.9883519699612 4.77086690082645  10.9575501117571 4.87412329752066  10.8959463953488 4.96262878512397  C 10.8343426789406 5.05113427272727  10.7564320985142 5.15860521487603  10.6622146540698 5.28504161157025  Z " fill-rule="nonzero" fill="#fdecec" stroke="none" transform="matrix(1 0 0 1 1028 1123 )" />
  </g>
</svg>