<?xml version="1.0" encoding="utf-8"?>
<svg version="1.1" xmlns:xlink="http://www.w3.org/1999/xlink" width="13px" height="14px" xmlns="http://www.w3.org/2000/svg">
  <g transform="matrix(1 0 0 1 -610 -322 )">
    <path d="M 12.7214285665318 12.2999999869838  C 12.7214285665318 12.2999999869838  7.79999999020647 7.00000000292969  7.79999999020647 7.00000000292969  C 7.79999999020647 7.00000000292969  12.7214285665318 1.70000001887556  12.7214285665318 1.70000001887556  C 13.0928571444894 1.3000000116769  13.0928571444894 0.700000012597657  12.7214285665318 0.300000005398996  C 12.3499999885742 -0.100000001799665  11.7928571325195 -0.100000001799665  11.4214285545619 0.300000005398996  C 11.4214285545619 0.300000005398996  6.5 5.60000001289062  6.5 5.60000001289062  C 6.5 5.60000001289062  1.57857144543806 0.300000005398996  1.57857144543806 0.300000005398996  C 1.20714286748047 -0.100000001799665  0.650000011425782 -0.100000001799665  0.278571433468192 0.300000005398996  C -0.0928571444893976 0.700000012597656  -0.092857144489397 1.3000000116769  0.278571433468192 1.70000001887556  C 0.278571433468192 1.70000001887556  5.20000000979353 7.00000000292969  5.20000000979353 7.00000000292969  C 5.20000000979353 7.00000000292969  0.278571433468192 12.2999999869838  0.278571433468192 12.2999999869838  C -0.092857144489397 12.6999999941825  -0.092857144489397 13.2999999932617  0.278571433468192 13.7000000004604  C 0.46428571156529 13.899999992341  0.650000011425781 14  0.928571439453125 14  C 1.20714286748047 14  1.39285714557757 13.899999992341  1.57857144543806 13.7000000004604  C 1.57857144543806 13.7000000004604  6.5 8.39999999296875  6.5 8.39999999296875  C 6.5 8.39999999296875  11.4214285545619 13.7000000004604  11.4214285545619 13.7000000004604  C 11.607142832659 13.899999992341  11.8857142606864 14  12.0714285605469 14  C 12.2571428604074 14  12.5357142666713 13.899999992341  12.7214285665318 13.7000000004604  C 13.0928571444894 13.2999999932617  13.0928571444894 12.6999999941825  12.7214285665318 12.2999999869838  Z " fill-rule="nonzero" fill="#d4d0d0" stroke="none" transform="matrix(1 0 0 1 610 322 )" />
  </g>
</svg>