<?xml version="1.0" encoding="utf-8"?>
<svg version="1.1" xmlns:xlink="http://www.w3.org/1999/xlink" width="16px" height="16px" viewBox="200 543  16 16" xmlns="http://www.w3.org/2000/svg">
  <path d="M 200.5 544  A 0.5 0.5 0 0 1 201 543.5 L 215 543.5  A 0.5 0.5 0 0 1 215.5 544 L 215.5 558  A 0.5 0.5 0 0 1 215 558.5 L 201 558.5  A 0.5 0.5 0 0 1 200.5 558 L 200.5 544  Z " fill-rule="nonzero" fill="#040404" stroke="none" />
  <path d="M 200.5 544  A 0.5 0.5 0 0 1 201 543.5 L 215 543.5  A 0.5 0.5 0 0 1 215.5 544 L 215.5 558  A 0.5 0.5 0 0 1 215 558.5 L 201 558.5  A 0.5 0.5 0 0 1 200.5 558 L 200.5 544  Z " stroke-width="1" stroke="#0882ff" fill="none" />
</svg>