<?xml version="1.0" encoding="utf-8"?>
<svg version="1.1" xmlns:xlink="http://www.w3.org/1999/xlink" width="8px" height="4px" xmlns="http://www.w3.org/2000/svg">
  <g transform="matrix(1 0 0 1 -80 -8 )">
    <path d="M 4.32132722222222 3.77636822857143  C 4.22843723758425 3.84810668990038  4.11612187213025 3.8882890799965  4 3.89132752857143  C 3.88387812786975 3.88828907999649  3.77156276241575 3.84810668990037  3.67867277777778 3.77636822857143  L 0.255839333333333 1.05326971428571  C 0.11361721815972 0.952748910473056  0.0286411223767367 0.786638581650725  0.0286411223767367 0.609145173353309  C 0.0286411223767367 0.311534527658568  0.263200522395739 0.0702734304961658  0.55254420571007 0.0702734304961658  C 0.676707401869412 0.0702734304961658  0.796834986569579 0.115631334336157  0.891508402777778 0.1982599  L 4 2.66988492857143  L 7.10849159722222 0.198259900000001  C 7.20050252746816 0.125092983990222  7.31351693376136 0.0853982799641074  7.42981881944444 0.0853982799641074  C 7.7199651174943 0.0853982799641074  7.95517516531267 0.327328614863007  7.95517516531267 0.625764807142858  C 7.95517516531267 0.793070105318377  7.87983103461571 0.95093965365429  7.75114604166667 1.05326971428572  L 4.32132722222222 3.77636822857143  Z " fill-rule="nonzero" fill="#b0b0b0" stroke="none" transform="matrix(1 0 0 1 80 8 )" />
  </g>
</svg>