<?xml version="1.0" encoding="utf-8"?>
<svg version="1.1" xmlns:xlink="http://www.w3.org/1999/xlink" width="14px" height="14px" xmlns="http://www.w3.org/2000/svg">
  <g transform="matrix(1 0 0 1 -77 -3 )">
    <path d="M 14 7  C 13.9962094897368 10.8644220790759  10.8644220790759 13.9962094897368  7 14  C 3.13400675118445 14  0 10.8659932488156  0 7  C 0 3.13400675118445  3.13400675118445 0  7 0  C 10.8659932488156 0  14 3.13400675118445  14 7  Z M 7 1.03143418164063  C 3.70365212015877 1.03143418164063  1.03143418164063 3.70365212015877  1.03143418164063 7  C 1.03143418164063 10.2963478798412  3.70365212015877 12.9685658183594  7 12.9685658183594  C 10.2963478798412 12.9685658183594  12.9685658183594 10.2963478798412  12.9685658183594 7  C 12.9685658183594 3.70365212015877  10.2963478798412 1.03143418164063  7 1.03143418164063  Z " fill-rule="nonzero" fill="#b0b0b0" stroke="none" transform="matrix(1 0 0 1 77 3 )" />
  </g>
</svg>