<?xml version="1.0" encoding="utf-8"?>
<svg version="1.1" xmlns:xlink="http://www.w3.org/1999/xlink" width="25px" height="25px" xmlns="http://www.w3.org/2000/svg">
  <g transform="matrix(1 0 0 1 -308 -383 )">
    <path d="M 12.4766081962719 24.9335282620614  L 12.4781676535088 24.9319688048246  C 9.17405328356135 24.9362371221357  6.00461134223631 23.6228859387746  3.6719298245614 21.282845997807  C 1.33322886836093 18.9506708102791  0.0205155453116392 15.7825362570817  0.0243664747807017 12.4797270833333  C 0.0199254395977907 9.17557847132147  1.33330302063139 6.00607283573567  3.67348928179825 3.67348928179825  C 6.00540817115016 1.3342163087447  9.1735744498462 0.0209286051098536  12.4766081962719 0.0243664747807015  C 15.780722556722 0.0200981647698887  18.9501644868344 1.33344934757292  21.282845997807 3.67348928179825  C 23.6225024164555 6.00578949903517  24.9358218563296 9.17459358673796  24.9319688048246 12.4781676535088  C 24.9362371148354 15.7822820139588  23.6228859320323 18.9517239440712  21.282845997807 21.2844054550439  C 18.9501644868344 23.6244453892692  15.780722556722 24.9377965720722  12.4766081962719 24.9335282620614  Z M 20.0337231907895 4.92261208881579  C 18.0342913284032 2.91211451184165  15.3136163219388 1.78509805132951  12.4781676535088 1.79278752741228  C 9.6243664747807 1.79278752741228  6.94210526315789 2.90467837171053  4.92261208881579 4.92261208881579  C 2.91211450507538 6.92204395789165  1.78509804400123 9.64271897558369  1.79278752741228 12.4781676535088  C 1.79278752741228 15.3319688322368  2.90467837171053 18.0157894736842  4.92261208881579 20.0337231907895  C 6.92204395789165 22.0442207745299  9.64271897558369 23.171237235604  12.4781676535088 23.163547752193  C 15.3319688322368 23.163547752193  18.0157894736842 22.0516569078947  20.0337231907895 20.0337231907895  C 22.0442207677636 18.0342913284032  23.1712372282757 15.3136163219388  23.163547752193 12.4781676535088  C 23.163547752193 9.6243664747807  22.0516569078947 6.9421052631579  20.0337231907895 4.92261208881579  Z M 11.4520467927632 5.57914229714912  C 11.4520467927632 5.07543859649123  12.0477583059211 4.7011695997807  12.4781676535088 4.7011695997807  C 12.9085770010965 4.7011695997807  13.5042885142544 5.07543859649123  13.5042884868421 5.57914229714912  L 13.5042884868421 14.6754385964912  C 13.5042884868421 15.1775828399123  12.9085769736842 15.5752436677632  12.4781676535088 15.5752436677632  C 12.0477583333333 15.5752436677632  11.4520467927632 15.1775828399123  11.4520467927632 14.6754385964912  L 11.4520467927632 5.57914229714912  Z M 12.6153996162281 20.202144243421  C 11.7541368467786 20.202144243421  11.0559454221491 19.5039528187916  11.0559454221491 18.6426900493421  C 11.0559454221491 17.7814272798926  11.7541368467786 17.0832358552632  12.6153996162281 17.0832358552632  C 13.4766623856775 17.0832358552632  14.174853810307 17.7814272798926  14.174853810307 18.6426900493421  C 14.174853810307 19.5039528187916  13.4766623856775 20.202144243421  12.6153996162281 20.202144243421  Z " fill-rule="nonzero" fill="#b34f4f" stroke="none" transform="matrix(1 0 0 1 308 383 )" />
  </g>
</svg>