<?xml version="1.0" encoding="utf-8"?>
<svg version="1.1" xmlns:xlink="http://www.w3.org/1999/xlink" width="11px" height="11px" xmlns="http://www.w3.org/2000/svg">
  <g transform="matrix(1 0 0 1 -649 -253 )">
    <path d="M 10.7642857101423 9.66428570405871  C 10.7642857101423 9.66428570405871  6.59999999171317 5.5000000023019  6.59999999171317 5.5000000023019  C 6.59999999171317 5.5000000023019  10.7642857101423 1.33571430054508  10.7642857101423 1.33571430054508  C 11.0785714299526 1.02142858060328  11.0785714299526 0.550000009898159  10.7642857101423 0.235714289956354  C 10.449999990332 -0.0785714299854515  9.97857141982422 -0.0785714299854509  9.66428570001395 0.235714289956354  C 9.66428570001395 0.235714289956354  5.5 4.40000001012835  5.5 4.40000001012835  C 5.5 4.40000001012835  1.33571429998605 0.235714289956354  1.33571429998605 0.235714289956354  C 1.02142858017578 -0.0785714299854509  0.550000009667969 -0.0785714299854509  0.235714289857701 0.235714289956354  C -0.0785714299525672 0.550000009898159  -0.0785714299525667 1.02142858060328  0.235714289857701 1.33571430054508  C 0.235714289857701 1.33571430054508  4.40000000828683 5.5000000023019  4.40000000828683 5.5000000023019  C 4.40000000828683 5.5000000023019  0.235714289857701 9.66428570405871  0.235714289857701 9.66428570405871  C -0.0785714299525667 9.97857142400052  -0.0785714299525667 10.4499999947056  0.235714289857701 10.7642857146474  C 0.392857140555246 10.9214285654108  0.550000009667969 11  0.785714294921875 11  C 1.02142858017578 11  1.17857143087333 10.9214285654108  1.33571429998605 10.7642857146474  C 1.33571429998605 10.7642857146474  5.5 6.59999999447545  5.5 6.59999999447545  C 5.5 6.59999999447545  9.66428570001395 10.7642857146474  9.66428570001395 10.7642857146474  C 9.8214285507115 10.9214285654108  10.0571428359654 11  10.2142857050781 11  C 10.3714285741908 11  10.6071428410296 10.9214285654108  10.7642857101423 10.7642857146474  C 11.0785714299526 10.4499999947056  11.0785714299526 9.97857142400052  10.7642857101423 9.66428570405871  Z " fill-rule="nonzero" fill="#d9d3ea" stroke="none" transform="matrix(1 0 0 1 649 253 )" />
  </g>
</svg>