<?xml version="1.0" encoding="utf-8"?>
<svg version="1.1" xmlns:xlink="http://www.w3.org/1999/xlink" width="18px" height="18px" xmlns="http://www.w3.org/2000/svg">
  <g>
    <path d="M 18 9  C 18 13.9704  13.9704 18  9 18  C 4.0296 18  0 13.9704  0 9  C 0 4.0296  4.0296 0  9 0  C 13.9704 0  18 4.0296  18 9  Z M 1.2 9  C 1.2 13.308  4.692 16.8  9 16.8  C 13.308 16.8  16.8 13.308  16.8 9  C 16.8 4.692  13.308 1.2  9 1.2  C 4.692 1.2  1.2 4.692  1.2 9  Z M 13.8 9.6  L 4.2 9.6  C 3.86862915010152 9.6  3.6 9.33137084989848  3.6 9  C 3.6 8.66862915010152  3.86862915010152 8.4  4.2 8.4  L 13.8 8.4  C 14.1313708498985 8.4  14.4 8.66862915010152  14.4 9  C 14.4 9.33137084989848  14.1313708498985 9.6  13.8 9.6  Z M 8.4 13.8  L 8.4 4.2  C 8.4 3.86862915010152  8.66862915010152 3.6  9 3.6  C 9.33137084989848 3.6  9.6 3.86862915010152  9.6 4.2  L 9.6 13.8  C 9.6 14.1313708498985  9.33137084989848 14.4  9 14.4  C 8.66862915010152 14.4  8.4 14.1313708498985  8.4 13.8  Z " fill-rule="nonzero" fill="#579afb" stroke="none" />
  </g>
</svg>