<?xml version="1.0" encoding="utf-8"?>
<svg version="1.1" xmlns:xlink="http://www.w3.org/1999/xlink" width="12px" height="12px" viewBox="212 968  12 12" xmlns="http://www.w3.org/2000/svg">
  <path d="M 218 968  C 221.36 968  224 970.64  224 974  C 224 977.36  221.36 980  218 980  C 214.64 980  212 977.36  212 974  C 212 970.64  214.64 968  218 968  Z " fill-rule="nonzero" fill="#ffffff" stroke="none" />
  <path d="M 218 968.5  C 221.08 968.5  223.5 970.92  223.5 974  C 223.5 977.08  221.08 979.5  218 979.5  C 214.92 979.5  212.5 977.08  212.5 974  C 212.5 970.92  214.92 968.5  218 968.5  Z " stroke-width="1" stroke="#797979" fill="none" />
  <path d="M 218 977  C 216.32 977  215 975.68  215 974  C 215 972.32  216.32 971  218 971  C 219.68 971  221 972.32  221 974  C 221 975.68  219.68 977  218 977  " fill-rule="nonzero" fill="#797979" stroke="none" />
</svg>