<?xml version="1.0" encoding="utf-8"?>
<svg version="1.1" xmlns:xlink="http://www.w3.org/1999/xlink" width="12px" height="12px" viewBox="1285 2260  12 12" xmlns="http://www.w3.org/2000/svg">
  <path d="M 1291 2260  C 1294.36 2260  1297 2262.64  1297 2266  C 1297 2269.36  1294.36 2272  1291 2272  C 1287.64 2272  1285 2269.36  1285 2266  C 1285 2262.64  1287.64 2260  1291 2260  Z " fill-rule="nonzero" fill="#ffffff" stroke="none" />
  <path d="M 1291 2260.5  C 1294.08 2260.5  1296.5 2262.92  1296.5 2266  C 1296.5 2269.08  1294.08 2271.5  1291 2271.5  C 1287.92 2271.5  1285.5 2269.08  1285.5 2266  C 1285.5 2262.92  1287.92 2260.5  1291 2260.5  Z " stroke-width="1" stroke="#797979" fill="none" />
  <path d="M 1291 2269  C 1289.32 2269  1288 2267.68  1288 2266  C 1288 2264.32  1289.32 2263  1291 2263  C 1292.68 2263  1294 2264.32  1294 2266  C 1294 2267.68  1292.68 2269  1291 2269  " fill-rule="nonzero" fill="#797979" stroke="none" />
</svg>