<?xml version="1.0" encoding="utf-8"?>
<svg version="1.1" xmlns:xlink="http://www.w3.org/1999/xlink" width="14px" height="14px" xmlns="http://www.w3.org/2000/svg">
  <g>
    <path d="M 13.9952572128906 7  C 13.9952572128906 3.1366313671875  10.8633546464844 0.004742787109375  7 0.004742787109375  C 3.1366173671875 0.004742787109375  0.00474278710937504 3.13664535351562  0.00474278710937504 7  C 0.00474278710937504 10.8633826328125  3.13661738085937 13.9952572128906  7 13.9952572128906  C 10.8633546464844 13.9952572128906  13.9952572128906 10.8633826191406  13.9952572128906 7  Z M 10.8357933496094 4.27969837695313  C 11.0398310175781 4.48373604492188  11.0398449902344 4.81763363867188  10.8357933359375 5.02167130664063  L 6.13672929296875 9.7207353359375  C 6.0340948828125 9.82336974609375  5.89868068945312 9.87393147070312  5.7633924140625 9.87330189453125  C 5.628118125 9.87391747070312  5.49267595898438 9.82336974609375  5.39004154882813 9.7207353359375  L 3.16417869140625 7.4948584921875  C 2.9601410234375 7.29082082421875  2.9601410234375 6.956937203125  3.16417869140625 6.75291353515625  C 3.368216359375 6.5488758671875  3.70209998046875 6.5488758671875  3.9061376484375 6.75291353515625  L 5.76337844140625 8.610154328125  L 10.0938343925781 4.27969837695313  C 10.2978720605469 4.07566070898438  10.6317556816406 4.07566070898438  10.8357933496094 4.27969837695313  Z " fill-rule="nonzero" fill="#939393" stroke="none" />
  </g>
</svg>