<?xml version="1.0" encoding="utf-8"?>
<svg version="1.1" xmlns:xlink="http://www.w3.org/1999/xlink" width="12px" height="12px" viewBox="165 2881  12 12" xmlns="http://www.w3.org/2000/svg">
  <path d="M 171 2881  C 174.36 2881  177 2883.64  177 2887  C 177 2890.36  174.36 2893  171 2893  C 167.64 2893  165 2890.36  165 2887  C 165 2883.64  167.64 2881  171 2881  Z " fill-rule="nonzero" fill="#ffffff" stroke="none" />
  <path d="M 171 2881.5  C 174.08 2881.5  176.5 2883.92  176.5 2887  C 176.5 2890.08  174.08 2892.5  171 2892.5  C 167.92 2892.5  165.5 2890.08  165.5 2887  C 165.5 2883.92  167.92 2881.5  171 2881.5  Z " stroke-width="1" stroke="#797979" fill="none" />
  <path d="M 171 2890  C 169.32 2890  168 2888.68  168 2887  C 168 2885.32  169.32 2884  171 2884  C 172.68 2884  174 2885.32  174 2887  C 174 2888.68  172.68 2890  171 2890  " fill-rule="nonzero" fill="#797979" stroke="none" />
</svg>