<?xml version="1.0" encoding="utf-8"?>
<svg version="1.1" xmlns:xlink="http://www.w3.org/1999/xlink" width="12px" height="12px" viewBox="229 2881  12 12" xmlns="http://www.w3.org/2000/svg">
  <path d="M 235 2881  C 238.36 2881  241 2883.64  241 2887  C 241 2890.36  238.36 2893  235 2893  C 231.64 2893  229 2890.36  229 2887  C 229 2883.64  231.64 2881  235 2881  Z " fill-rule="nonzero" fill="#ffffff" stroke="none" />
  <path d="M 235 2881.5  C 238.08 2881.5  240.5 2883.92  240.5 2887  C 240.5 2890.08  238.08 2892.5  235 2892.5  C 231.92 2892.5  229.5 2890.08  229.5 2887  C 229.5 2883.92  231.92 2881.5  235 2881.5  Z " stroke-width="1" stroke="#797979" fill="none" />
  <path d="M 235 2890  C 233.32 2890  232 2888.68  232 2887  C 232 2885.32  233.32 2884  235 2884  C 236.68 2884  238 2885.32  238 2887  C 238 2888.68  236.68 2890  235 2890  " fill-rule="nonzero" fill="#797979" stroke="none" />
</svg>