<?xml version="1.0" encoding="utf-8"?>
<svg version="1.1" xmlns:xlink="http://www.w3.org/1999/xlink" width="68px" height="68px" xmlns="http://www.w3.org/2000/svg">
  <g transform="matrix(1 0 0 1 -187 -2806 )">
    <path d="M 0.645569594195015 34  C 0.645569594195015 15.5791819880835  15.5791819880835 0.645569594195015  34 0.645569594195015  C 52.4208180119165 0.645569594195015  67.354430405805 15.579181909909  67.354430405805 34  C 67.354430405805 52.420818090091  52.4208180119165 67.354430405805  34 67.354430405805  C 15.5791819880835 67.354430405805  0.645569594195015 52.4208180119165  0.645569594195015 34  Z M 49.0097941718271 25.6613922055965  C 49.0097941718271 24.9972447609319  48.7456911318578 24.3603570863574  48.2756961764735 23.8911060126582  C 47.8066482847663 23.4226413635917  47.1708327832782 23.1595096386769  46.5079111799644 23.1595096386769  C 45.8437637544444 23.1595096386769  45.2068760966099 23.4236126634629  44.7376250260582 23.8936075949367  L 29.8507088868176 38.8030379746835  L 23.2573718093849 32.2372183804885  C 22.7897374599768 31.7787508317971  22.160965715506 31.5219432875539  21.506080704264 31.5219432875539  C 20.1244949614119 31.5219432875539  19.0044984257829 32.6419398231829  19.0044984257829 34.0235255660349  C 19.0044984257829 34.6818814170146  19.2640279401362 35.3136983162496  19.726805405805 35.7819604690961  L 28.0904287714102 44.1113955696203  C 29.068484823055 45.0854764629009  30.6507031103437 45.083237474775  31.6259984177215 44.1063924050633  L 48.278197758752 27.429177241248  C 48.7466624317374 26.9601293463378  49.0097941718271 26.3243138280791  49.0097941718271 25.6613922055965  Z " fill-rule="nonzero" fill="#73e08b" stroke="none" transform="matrix(1 0 0 1 187 2806 )" />
  </g>
</svg>