<?xml version="1.0" encoding="utf-8"?>
<svg version="1.1" xmlns:xlink="http://www.w3.org/1999/xlink" width="22px" height="22px" xmlns="http://www.w3.org/2000/svg">
  <g transform="matrix(1 0 0 1 -331 -2780 )">
    <path d="M 22 11  C 22 17.0657016160714  17.0657016160714 22  11 22  C 4.93429838392857 22  0 17.0657016160714  0 11  C 0 4.93429838392857  4.93429838392857 0  11 0  C 17.0657016160714 0  22 4.93429838392857  22 11  Z M 20.4215178504464 11  C 20.4215178504464 5.80484575  16.194351765625 1.57848214955357  11 1.57848214955357  C 5.80484575 1.57848214955357  1.57848214955357 5.80484572544643  1.57848214955357 11  C 1.57848214955357 16.194351765625  5.80484572544643 20.4215178504464  11 20.4215178504464  C 16.194351765625 20.4215178504464  20.4215178504464 16.1943939977679  20.4215178504464 11  Z M 15.5067752321429 14.4453587633929  L 12.1062722098214 11.0337896183036  L 15.5036919174107 7.67328507589286  C 15.8124868147321 7.36841820982143  15.8148520848214 6.87107722321429  15.5099852433036 6.56228232589286  C 15.2051184017857 6.25348742857143  14.70697490625 6.25112215848214  14.3989824933036 6.555989  L 10.9968322455357 9.92042157366071  L 7.64654906026785 6.55991703125  C 7.33931692410714 6.25268489508929  6.84277844642857 6.25112213392857  6.53554631026785 6.55835427008929  C 6.22831417410714 6.86478389732143  6.227553921875 7.36212488392857  6.53398354910714 7.66935702008929  L 9.87953619419643 11.0251310223214  L 6.50644502455357 14.3620673035714  C 6.19765012723214 14.667694421875  6.19528485714286 15.16427515625  6.50015169866071 15.4730700535714  C 6.65414789285714 15.6286290334821  6.85608311830357 15.7064296272321  7.05877862053571 15.7064296272321  C 7.25834857589286 15.7064296272321  7.45791853125 15.6302340267857  7.61115444866071 15.4793633794643  L 10.9889339263393 12.1384990669643  L 14.3942097209821 15.5547987276786  C 14.5474456629464 15.708794921875  14.7485783794643 15.78579303125  14.9505136049107 15.78579303125  C 15.1516463214286 15.78579303125  15.3520187857143 15.708794921875  15.5052124709821 15.5563615133929  C 15.8124446071429 15.2499318861607  15.813204859375 14.7533511763393  15.5067752321429 14.4453587633929  Z " fill-rule="nonzero" fill="#989898" stroke="none" transform="matrix(1 0 0 1 331 2780 )" />
  </g>
</svg>