<?xml version="1.0" encoding="utf-8"?>
<svg version="1.1" xmlns:xlink="http://www.w3.org/1999/xlink" width="18px" height="18px" xmlns="http://www.w3.org/2000/svg">
  <g transform="matrix(1 0 0 1 -1425 -1873 )">
    <path d="M 13.2134042190265 7.54200394247788  C 12.9774551615044 7.30876484070796  12.5948427809735 7.30876484070796  12.3588937234513 7.54200394247788  L 8.94074993362832 10.921148920354  L 5.52256536504425 7.54200394247788  C 5.2865959380531 7.30876484070796  4.90400392699115 7.30876484070796  4.6680345 7.54200394247788  C 4.43206507300885 7.77530417256637  4.43206507300885 8.15351543362832  4.6680345 8.38679527433628  L 8.51347429646018 12.1882645951327  C 8.74944372345133 12.4215036969027  9.13197460619469 12.4215036969027  9.36800516150442 12.1882645951327  L 13.2134042190265 8.38679527433628  C 13.4493736460177 8.15349504424779  13.4493736460177 7.77528378318584  13.2134042190265 7.54200394247788  Z M 17.8439553119469 9.03465676991151  C 17.8439553119469 4.12280060176991  13.8620399734513 0.140885263274336  8.95018380530973 0.140885263274336  C 4.03826650884956 0.140885263274336  0.0564122986725661 4.12280060176991  0.0564122986725661 9.03465676991151  C 0.0564122986725661 13.9465129380531  4.03826650884956 17.9284282765487  8.95018380530973 17.9284282765487  C 13.8620399734513 17.9284282765487  17.8439553119469 13.9465129380531  17.8439553119469 9.03465676991151  Z M 16.7322440707965 9.03465676991151  C 16.7322440707965 13.3325767632743  13.2481037986726 16.8167170353982  8.95018380530973 16.8167170353982  C 4.6522638119469 16.8167170353982  1.16812353982301 13.3325767632743  1.16812353982301 9.03465676991151  C 1.16812353982301 4.73673677654867  4.6522638119469 1.25259650442478  8.95018380530973 1.25259650442478  C 13.2481037986726 1.25259650442478  16.7322440707965 4.73673677654867  16.7322440707965 9.03465676991151  Z " fill-rule="nonzero" fill="#266ab9" stroke="none" transform="matrix(1 0 0 1 1425 1873 )" />
  </g>
</svg>