<?xml version="1.0" encoding="utf-8"?>
<svg version="1.1" xmlns:xlink="http://www.w3.org/1999/xlink" width="12px" height="12px" viewBox="1221 2260  12 12" xmlns="http://www.w3.org/2000/svg">
  <path d="M 1227 2260  C 1230.36 2260  1233 2262.64  1233 2266  C 1233 2269.36  1230.36 2272  1227 2272  C 1223.64 2272  1221 2269.36  1221 2266  C 1221 2262.64  1223.64 2260  1227 2260  Z " fill-rule="nonzero" fill="#ffffff" stroke="none" />
  <path d="M 1227 2260.5  C 1230.08 2260.5  1232.5 2262.92  1232.5 2266  C 1232.5 2269.08  1230.08 2271.5  1227 2271.5  C 1223.92 2271.5  1221.5 2269.08  1221.5 2266  C 1221.5 2262.92  1223.92 2260.5  1227 2260.5  Z " stroke-width="1" stroke="#797979" fill="none" />
  <path d="M 1227 2269  C 1225.32 2269  1224 2267.68  1224 2266  C 1224 2264.32  1225.32 2263  1227 2263  C 1228.68 2263  1230 2264.32  1230 2266  C 1230 2267.68  1228.68 2269  1227 2269  " fill-rule="nonzero" fill="#797979" stroke="none" />
</svg>