<?xml version="1.0" encoding="utf-8"?>
<svg version="1.1" xmlns:xlink="http://www.w3.org/1999/xlink" width="24px" height="24px" xmlns="http://www.w3.org/2000/svg">
  <g transform="matrix(1 0 0 1 -418 -826 )">
    <path d="M 430 826  C 436.72 826  442 831.28  442 838  C 442 844.72  436.72 850  430 850  C 423.28 850  418 844.72  418 838  C 418 831.28  423.28 826  430 826  Z " fill-rule="nonzero" fill="#ffbf60" stroke="none" />
    <path d="M 430 826.5  C 436.44 826.5  441.5 831.56  441.5 838  C 441.5 844.44  436.44 849.5  430 849.5  C 423.56 849.5  418.5 844.44  418.5 838  C 418.5 831.56  423.56 826.5  430 826.5  Z " stroke-width="1" stroke="#ffffff" fill="none" />
  </g>
</svg>