<?xml version="1.0" encoding="utf-8"?>
<svg version="1.1" xmlns:xlink="http://www.w3.org/1999/xlink" width="12px" height="12px" viewBox="229 2925  12 12" xmlns="http://www.w3.org/2000/svg">
  <path d="M 235 2925  C 238.36 2925  241 2927.64  241 2931  C 241 2934.36  238.36 2937  235 2937  C 231.64 2937  229 2934.36  229 2931  C 229 2927.64  231.64 2925  235 2925  Z " fill-rule="nonzero" fill="#ffffff" stroke="none" />
  <path d="M 235 2925.5  C 238.08 2925.5  240.5 2927.92  240.5 2931  C 240.5 2934.08  238.08 2936.5  235 2936.5  C 231.92 2936.5  229.5 2934.08  229.5 2931  C 229.5 2927.92  231.92 2925.5  235 2925.5  Z " stroke-width="1" stroke="#797979" fill="none" />
  <path d="M 235 2934  C 233.32 2934  232 2932.68  232 2931  C 232 2929.32  233.32 2928  235 2928  C 236.68 2928  238 2929.32  238 2931  C 238 2932.68  236.68 2934  235 2934  " fill-rule="nonzero" fill="#797979" stroke="none" />
</svg>