<?xml version="1.0" encoding="utf-8"?>
<svg version="1.1" xmlns:xlink="http://www.w3.org/1999/xlink" width="39px" height="39px" xmlns="http://www.w3.org/2000/svg">
  <defs>
    <filter x="252px" y="530px" width="39px" height="39px" filterUnits="userSpaceOnUse" id="filter322">
      <feOffset dx="0" dy="2" in="SourceAlpha" result="shadowOffsetInner" />
      <feGaussianBlur stdDeviation="2.5" in="shadowOffsetInner" result="shadowGaussian" />
      <feComposite in2="shadowGaussian" operator="atop" in="SourceAlpha" result="shadowComposite" />
      <feColorMatrix type="matrix" values="0 0 0 0 0.823529411764706  0 0 0 0 0.56078431372549  0 0 0 0 0.16078431372549  0 0 0 0.349019607843137 0  " in="shadowComposite" />
    </filter>
    <g id="widget323">
      <path d="M 257.5 547.5  A 14 14 0 0 1 271.5 533.5 A 14 14 0 0 1 285.5 547.5 A 14 14 0 0 1 271.5 561.5 A 14 14 0 0 1 257.5 547.5 Z " fill-rule="nonzero" fill="#ffffff" stroke="none" fill-opacity="0" />
      <path d="M 257.5 547.5  A 14 14 0 0 1 271.5 533.5 A 14 14 0 0 1 285.5 547.5 A 14 14 0 0 1 271.5 561.5 A 14 14 0 0 1 257.5 547.5 Z " stroke-width="1" stroke="#f44056" fill="none" />
    </g>
  </defs>
  <g transform="matrix(1 0 0 1 -252 -530 )">
    <use xlink:href="#widget323" filter="url(#filter322)" />
    <use xlink:href="#widget323" />
  </g>
</svg>