<?xml version="1.0" encoding="utf-8"?>
<svg version="1.1" xmlns:xlink="http://www.w3.org/1999/xlink" width="13px" height="13px" xmlns="http://www.w3.org/2000/svg">
  <g transform="matrix(1 0 0 1 -415 -1730 )">
    <path d="M 5.93672049184783 0.0403726657608703  L 7.06327950815217 0.0403726657608698  C 7.16404969701087 0.0403726657608698  7.21314285461956 0.0881739130434786  7.21314285461956 0.183776389945652  L 7.21314285461956 5.81786334646739  L 12.8097639701087 5.81786334646739  C 12.9092422309783 5.81786334646739  12.9596273165761 5.86566459375  12.9596273342391 5.96126708831522  L 12.9596273342391 7.03873291168478  C 12.9596273342391 7.13433538858696  12.9092422486413 7.18084470788043  12.8097639701087 7.18084472554348  L 7.21314285461957 7.18084472554348  L 7.21314285461957 12.8162236100543  C 7.21314285461957 12.9118260869565  7.16404967934783 12.9596273342391  7.06327950815217 12.9596273342391  L 5.93672049184783 12.9596273342391  C 5.83595030298913 12.9596273342391  5.78685714538044 12.9118260869565  5.78685714538044 12.8162236100543  L 5.78556521739131 7.18084472554348  L 0.191527957880435 7.18084472554348  C 0.0907577690217395 7.18084472554348  0.0403726834239132 7.13433540625  0.0403726657608698 7.03873291168478  L 0.0403726657608698 5.96126708831522  C 0.0403726657608698 5.86566461141304  0.0907577513586961 5.81915529211957  0.190236029891304 5.81915527445652  L 5.78556521739131 5.81786334646739  L 5.78556521739131 0.185068317934783  C 5.78556521739131 0.0881739130434791  5.83724223097826 0.0403726657608703  5.93672049184783 0.0403726657608703  Z " fill-rule="nonzero" fill="#63a6f4" stroke="none" transform="matrix(1 0 0 1 415 1730 )" />
  </g>
</svg>