<?xml version="1.0" encoding="utf-8"?>
<svg version="1.1" xmlns:xlink="http://www.w3.org/1999/xlink" width="13px" height="11px" xmlns="http://www.w3.org/2000/svg">
  <g transform="matrix(1 0 0 1 -265 -541 )">
    <path d="M 9.19578947368421 7.68294573110465  L 9.13740351447369 7.79209302325581  L 3.70750877763158 7.79209302325581  L 3.70750877763158 7.68294573110465  L 3.70750877763158 7.51922480087209  C 3.70750877763158 5.60914727616279  4.93361404078947 2.77131782412791  6.45164911710526 2.77131782412791  C 7.96968419342105 2.77131782412791  9.19578947368421 5.66372093023256  9.19578947368421 7.51922480087209  L 9.19578947368421 7.68294573110465  Z M 7.91129825131579 1.35240310610465  C 7.91129826842105 2.06186046511628  7.26905263157895 2.66217054796512  6.45164911710526 2.66217054796512  C 5.63424560263158 2.66217054796512  4.992 2.06186046511628  4.992 1.35240310610465  C 4.992 0.642945747093023  5.63424561973684 0.0426356642441859  6.45164911710526 0.0426356642441859  C 7.26905261447369 0.0426356642441859  7.91129823421053 0.642945747093023  7.91129825131579 1.35240310610465  Z M 12.8741052631579 7.35550387063954  L 12.8741052631579 7.79209302325581  L 9.66287719868421 7.79209302325581  L 9.66287719868421 7.62837209302326  L 9.66287719868421 7.4100775247093  C 9.66287719868421 6.42775194331396  8.90385966052632 4.19023255813954  8.43677193552632 3.5353488372093  L 8.37838595921053 3.42620154505814  L 8.43677193552632 3.31705426889535  C 8.90385966052632 2.88046511627907  9.48771930394737 2.60759690988372  10.1299649065789 2.60759689389535  C 11.648 2.60759689389535  12.8741052631579 5.5  12.8741052631579 7.35550387063954  Z M 11.648 1.35240310610465  C 11.648 2.06186046511628  10.9473684210526 2.66217054796512  10.1883508828947 2.66217054796512  C 9.37094736842105 2.66217054796512  8.72870176578948 2.06186046511628  8.72870174868421 1.35240310610465  C 8.72870173157895 0.642945747093023  9.37094736842105 0.0426356642441859  10.1883508828947 0.0426356642441859  C 11.0057543973684 0.0426356642441859  11.648 0.642945747093023  11.648 1.35240310610465  Z M 3.29880701184211 7.57379845494186  C 3.29880701184211 7.62837209302325  3.29880701184211 7.68294574709302  3.24042105263158 7.79209302325581  L 0.0875789473684211 7.79209302325581  L 0.0875789473684211 7.68294573110465  L 0.0875789473684211 7.51922480087209  C 0.0875789473684211 5.60914729215116  1.31368421052632 2.77131782412791  2.83171930394737 2.77131782412791  C 3.41557894736842 2.77131782412791  3.99943860789474 2.98961239244186  4.524912275 3.48077519912791  L 4.58329825131579 3.5899224752907  L 4.524912275 3.69906976744186  C 4.05782455 4.2993798502907  3.29880701184211 6.59147287354651  3.29880701184211 7.57379845494186  Z M 4.2329824618421 1.35240310610465  C 4.2329824618421 2.06186048110465  3.53235088289474 2.66217054796512  2.77333332763158 2.66217054796512  C 1.95592983026316 2.66217054796512  1.31368421052632 2.06186046511628  1.31368421052632 1.35240310610465  C 1.31368421052632 0.642945747093024  1.95592983026316 0.0426356642441859  2.77333332763158 0.0426356642441859  C 3.590736825 0.0426356642441859  4.2329824618421 0.642945731104651  4.2329824618421 1.35240310610465  Z M 0.0291929881578954 11  L 0.0291929881578949 8.22868217587209  L 12.8741052631579 8.22868217587209  L 12.8741052631579 11  L 0.0291929881578954 11  Z " fill-rule="nonzero" fill="#df3e1b" stroke="none" transform="matrix(1 0 0 1 265 541 )" />
  </g>
</svg>