<?xml version="1.0" encoding="utf-8"?>
<svg version="1.1" xmlns:xlink="http://www.w3.org/1999/xlink" width="9px" height="9px" xmlns="http://www.w3.org/2000/svg">
  <g transform="matrix(1 0 0 1 -34 -179 )">
    <path d="M 38.5 179  C 41.02 179  43 180.98  43 183.5  C 43 186.02  41.02 188  38.5 188  C 35.98 188  34 186.02  34 183.5  C 34 180.98  35.98 179  38.5 179  Z " fill-rule="nonzero" fill="#d9001b" stroke="none" />
    <path d="M 38.5 179.5  C 40.74 179.5  42.5 181.26  42.5 183.5  C 42.5 185.74  40.74 187.5  38.5 187.5  C 36.26 187.5  34.5 185.74  34.5 183.5  C 34.5 181.26  36.26 179.5  38.5 179.5  Z " stroke-width="1" stroke="#bf051b" fill="none" />
  </g>
</svg>