<?xml version="1.0" encoding="utf-8"?>
<svg version="1.1" xmlns:xlink="http://www.w3.org/1999/xlink" width="11px" height="6px" xmlns="http://www.w3.org/2000/svg">
  <g transform="matrix(1 0 0 1 -919 -1232 )">
    <path d="M 8.19900497949219 2.24716419609375  C 8.19900497949219 1.38841792617187  8.82054725976563 0.692537325000001  9.58706467285156 0.692537325000001  C 10.3535820859375 0.692537325000001  10.9751243662109 1.38841792617188  10.9751243662109 2.24716419609375  L 10.9751243662109 3.57970150898438  C 10.9751243662109 4.43844777890625  10.3535820859375 5.13432838007813  9.58706467285156 5.13432834375  C 8.82054725976563 5.13432830742188  8.19900497949219 4.43844774257813  8.19900497949219 3.57970150898438  L 8.19900497949219 2.24716419609375  Z M 0.333333323242186 2.24716419609375  C 0.333333323242186 1.38841792617187  0.954875633789063 0.692537325000001  1.721393046875 0.692537325000001  C 2.48791045996094 0.692537325000001  3.10945274023438 1.38841792617188  3.10945274023438 2.24716419609375  L 3.10945274023438 3.57970150898438  C 3.10945274023438 4.43844777890625  2.48791045996094 5.13432838007813  1.721393046875 5.13432834375  C 0.954875633789062 5.13432830742188  0.333333353515624 4.43844774257813  0.333333323242186 3.57970150898438  L 0.333333323242186 2.24716419609375  Z " fill-rule="nonzero" fill="#514141" stroke="none" transform="matrix(1 0 0 1 919 1232 )" />
  </g>
</svg>