<?xml version="1.0" encoding="utf-8"?>
<svg version="1.1" xmlns:xlink="http://www.w3.org/1999/xlink" width="25px" height="23px" xmlns="http://www.w3.org/2000/svg">
  <g transform="matrix(1 0 0 1 -59 0 )">
    <path d="M 12.0106666666667 1.78300652696078  L 12.0088888888889 1.78300652696078  C 11.781787198226 1.77734668112624  11.5726409161845 1.90230133590154  11.4755555555556 2.10164705882353  L 9.65274075 5.64580392156863  C 9.04212577921448 6.82531022101253  7.87458528976106 7.63937538936839  6.528 7.82452288480392  L 2.45214813888889 8.39278431372549  C 2.22621631320357 8.41764959480395  2.03711449997856 8.57044890349226  1.97096297222222 8.7815947622549  C 1.89487793254862 8.98854864538767  1.95421759560298 9.21960644131458  2.12148147222222 9.3676862745098  L 5.07140741666667 12.1284705882353  C 6.04801362282473 13.0378183447576  6.49528471183785 14.3587037591646  6.26488888888889 15.6530719044118  L 5.56859258333333 19.5480784313726  C 5.53262892411832 19.7107493936913  5.57812518388586 19.880342229014  5.69125925 20.0053333333333  C 5.80709300688252 20.1383212835856  5.97590220375077 20.2169999864516  6.15525925 20.2215947622549  C 6.25227675487525 20.22040480428  6.34750918454231 20.1961119163955  6.43259258333333 20.1508496642157  L 10.0788148055556 18.3103268063726  C 11.2894873436598 17.7006171291829  12.7300682118958 17.7006171291829  13.94074075 18.3103268063726  L 17.5869629722222 20.1508496642157  C 17.6722228649369 20.1962030305019  17.7676703035101 20.2204988517785  17.8648888888889 20.2215947622549  C 18.044191503544 20.2167815990143  18.2129135607083 20.1381435102796  18.3288888888889 20.0053333333333  C 18.4415565964393 19.8801076251168  18.486796454546 19.7106519444479  18.4509629722222 19.5480784313725  L 17.75525925 15.6530719044118  C 17.5249291012411 14.3588171855043  17.9719401342722 13.0380439852153  18.9481481388889 12.1284705882353  L 21.8980740833333 9.3676862745098  C 22.0653379599526 9.21960644131458  22.1246776230069 8.98854864538768  22.0485925833333 8.7815947622549  C 21.98266152834 8.57053748068719  21.7937711361518 8.4177208108996  21.568 8.39278431372549  L 17.4915555555556 7.82452288480392  C 16.1449702657945 7.63937538936839  14.9774297763411 6.82531022101253  14.3668148055556 5.64580392156863  L 12.544 2.10164705882353  C 12.446914639371 1.90230133590154  12.2377683573295 1.77734668112624  12.0106666666667 1.78300652696078  Z M 9.88088888888889 1.34933333333333  C 10.2804120267924 0.564933930690295  11.1074034230015 0.071844022629193  12.0088888888889 0.0805228848039219  C 12.9102011226276 0.0719267582345305  13.7369761877571 0.565024992734206  14.1362963055556 1.34933333333333  L 15.9597036944444 4.89349019607843  C 16.3085153849288 5.56794082493521  16.975938201409 6.0334746848542  17.7457777777778 6.13929411764706  L 21.8222222222222 6.70755554656863  C 22.9840553694392 6.85810713767894  23.851661787196 7.82009277761841  23.851661787196 8.95775987732664  C 23.851661787196 9.5737258820066  23.5937779678995 10.1632502619134  23.1371851944444 10.5910588235294  L 20.1878518611111 13.3518431372549  C 19.6303013322706 13.8713910382664  19.3745628186726 14.6255219219581  19.5051851944444 15.3649150416667  L 20.2014814722222 19.2599215686274  C 20.2229469507512 19.3846188820024  20.2337350000965 19.5108275043987  20.2337350000965 19.6372532984085  C 20.2337350000965 20.9018337679427  19.1775249788084 21.9269787886046  17.8746238889854 21.9269787886046  C 17.870983809514 21.9269787886046  17.8673437349174 21.9269706114988  17.8637036944444 21.9269542573529  C 17.478513494064 21.9258938823507  17.0993150426435 21.8343265115738  16.7585185277778 21.6600784313725  L 13.1128888888889 19.8195555465686  C 12.4205703440189 19.4706639798194  11.5966148504256 19.4706639798194  10.9042963055556 19.8195555465686  L 7.25866666666667 21.6600784313725  C 6.91758882324478 21.8352566467806  6.53755338012856 21.926834448057  6.15166541099513 21.926834448057  C 4.84450968821306 21.926834448057  3.78485060543958 20.8983418088945  3.78485060543958 19.6296318426649  C 3.78485060543958 19.5057893647107  3.79516859408327 19.3821496731267  3.81570369444445 19.2599215686274  L 4.512 15.3649150416667  C 4.64277193236312 14.6256199052016  4.38726081728103 13.8715049789711  3.82992591666667 13.3518431372549  L 0.880000000000001 10.5910588235294  C 0.423407226544982 10.1632502619134  0.165523407248467 9.5737258820066  0.165523407248467 8.95775987732664  C 0.165523407248467 7.82009277761841  1.03312982500524 6.85810713767895  2.19496297222222 6.70755554656863  L 6.27140741666667 6.13929411764706  C 7.04146675491846 6.0336516817087  7.70914662512781 5.56809298730988  8.05807408333333 4.89349019607843  L 9.88088888888889 1.34933333333333  Z " fill-rule="nonzero" fill="#ffffff" stroke="none" transform="matrix(1 0 0 1 59 0 )" />
  </g>
</svg>