<?xml version="1.0" encoding="utf-8"?>
<svg version="1.1" xmlns:xlink="http://www.w3.org/1999/xlink" width="7px" height="7px" xmlns="http://www.w3.org/2000/svg">
  <g transform="matrix(1 0 0 1 -112 0 )">
    <path d="M 115.5 0  C 117.46 0  119 1.54  119 3.5  C 119 5.46  117.46 7  115.5 7  C 113.54 7  112 5.46  112 3.5  C 112 1.54  113.54 0  115.5 0  Z " fill-rule="nonzero" fill="#f23249" stroke="none" />
    <path d="M 115.5 0.5  C 117.18 0.5  118.5 1.82  118.5 3.5  C 118.5 5.18  117.18 6.5  115.5 6.5  C 113.82 6.5  112.5 5.18  112.5 3.5  C 112.5 1.82  113.82 0.5  115.5 0.5  Z " stroke-width="1" stroke="#fffefe" fill="none" />
  </g>
</svg>