<?xml version="1.0" encoding="utf-8"?>
<svg version="1.1" xmlns:xlink="http://www.w3.org/1999/xlink" width="20px" height="20px" xmlns="http://www.w3.org/2000/svg">
  <g transform="matrix(1 0 0 1 -98 -2 )">
    <path d="M 3.03225806451613 2.90322580645161  C 4.70967741935484 1.09677419354839  7.29032258064516 0.064516129032258  10 0.064516129032258  C 12.7096774193548 0.064516129032258  15.2903225806452 1.2258064516129  17.0967741935484 3.03225806451613  C 18.9032258064516 4.83870967741935  19.9354838709677 7.29032258064516  19.9354838709677 10  C 19.9354838709677 11.0322580645161  19.8064516129032 12.0645161290323  19.4193548387097 13.0967741935484  C 19.1612903225806 14  18.6451612903226 14.9032258064516  18.1290322580645 15.6774193548387  L 18.1290322580645 19.1612903225806  C 18.1290322580645 19.5483870967742  17.741935483871 19.9354838709677  17.3548387096774 19.9354838709677  L 10 19.9354838709677  C 7.29032258064516 19.9354838709677  4.70967741935484 18.7741935483871  2.90322580645161 16.9677419354839  C 1.09677419354839 15.2903225806452  0.064516129032258 12.7096774193548  0.064516129032258 10  C 0.064516129032258 7.29032258064516  1.2258064516129 4.70967741935484  3.03225806451613 2.90322580645161  Z M 4.45161290322581 7.54838709677419  C 4.58064516129032 7.80645161290323  4.70967741935484 8.06451612903226  4.96774193548387 8.06451612903226  L 14.9032258064516 8.06451612903226  C 15.1612903225806 8.06451612903226  15.4193548387097 7.80645161290323  15.4193548387097 7.54838709677419  C 15.4193548387097 7.29032258064516  15.1612903225806 7.03225806451613  14.9032258064516 7.03225806451613  L 4.96774193548387 7.03225806451613  C 4.70967741935484 7.03225806451613  4.45161290322581 7.29032258064516  4.45161290322581 7.54838709677419  Z M 4.58064516129032 10  C 4.58064516129032 10.258064516129  4.70967741935484 10.5161290322581  4.96774193548387 10.5161290322581  L 14.9032258064516 10.5161290322581  C 15.1612903225806 10.5161290322581  15.4193548387097 10.258064516129  15.4193548387097 10.1290322580645  C 15.4193548387097 9.87096774193548  15.1612903225806 9.61290322580645  14.9032258064516 9.61290322580645  L 4.96774193548387 9.61290322580645  C 4.70967741935484 9.48387096774194  4.58064516129032 9.74193548387097  4.58064516129032 10  Z M 4.45161290322581 12.4516129032258  C 4.58064516129032 12.7096774193548  4.70967741935484 12.9677419354839  4.96774193548387 12.9677419354839  L 14.9032258064516 12.9677419354839  C 15.1612903225806 12.9677419354839  15.4193548387097 12.7096774193548  15.4193548387097 12.4516129032258  C 15.4193548387097 12.1935483870968  15.1612903225806 11.9354838709677  14.9032258064516 11.9354838709677  L 4.96774193548387 11.9354838709677  C 4.70967741935484 11.9354838709677  4.45161290322581 12.1935483870968  4.45161290322581 12.4516129032258  Z M 18.3870967741935 10  C 18.3870967741935 7.67741935483871  17.4838709677419 5.61290322580645  15.9354838709677 4.06451612903226  C 14.3671164438571 2.48246896536375  12.227655743509 1.59877867608954  10 1.61290322580645  C 7.67741935483871 1.61290322580645  5.61290322580645 2.51612903225806  4.06451612903226 4.06451612903226  C 2.48246896536375 5.63288355614292  1.59877867608954 7.77234425649101  1.61290322580645 10  C 1.61290322580645 12.3225806451613  2.51612903225806 14.3870967741935  4.06451612903226 15.9354838709677  C 5.61290322580645 17.4838709677419  7.67741935483871 18.3870967741935  10 18.3870967741935  L 16.7096774193548 18.3870967741935  L 16.7096774193548 15.4193548387097  C 16.7096774193548 15.2903225806452  16.7096774193548 15.1612903225806  16.8387096774194 14.9032258064516  C 17.3548387096774 14.258064516129  17.741935483871 13.3548387096774  18 12.5806451612903  C 18.258064516129 11.8064516129032  18.3870967741935 10.9032258064516  18.3870967741935 10  Z " fill-rule="nonzero" fill="#fffbfb" stroke="none" transform="matrix(1 0 0 1 98 2 )" />
  </g>
</svg>