<?xml version="1.0" encoding="utf-8"?>
<svg version="1.1" xmlns:xlink="http://www.w3.org/1999/xlink" width="20px" height="20px" xmlns="http://www.w3.org/2000/svg">
  <g transform="matrix(1 0 0 1 -24 -1 )">
    <path d="M 7.56833984375 18.9375  C 7.56833984375 18.48884765625  7.20474609375 18.125  6.75583984375 18.125  L 1.875 18.125  L 1.875 14.0625  C 1.875 13.61384765625  1.51115234375 13.25  1.0625 13.25  C 0.61384765625 13.25  0.25 13.61384765625  0.25 14.0625  L 0.25 18.53125  C 0.25 19.20333984375  0.79666015625 19.75  1.46875 19.75  L 6.75583984375 19.75  C 7.2044921875 19.75  7.56833984375 19.38615234375  7.56833984375 18.9375  Z M 19.75 14.0625  C 19.75 13.61384765625  19.38615234375 13.25  18.9375 13.25  C 18.48884765625 13.25  18.125 13.61384765625  18.125 14.0625  L 18.125 18.125  L 13.25 18.125  C 12.80134765625 18.125  12.4375 18.48884765625  12.4375 18.9375  C 12.4375 19.38615234375  12.80134765625 19.75  13.25 19.75  L 18.53125 19.75  C 19.20333984375 19.75  19.75 19.20333984375  19.75 18.53125  L 19.75 14.0625  Z M 19.75 1.46875  C 19.75 0.79666015625  19.20333984375 0.25  18.53125 0.25  L 13.25 0.25  C 12.80134765625 0.25  12.4375 0.61384765625  12.4375 1.0625  C 12.4375 1.51115234375  12.80134765625 1.875  13.25 1.875  L 18.125 1.875  L 18.125 5.9375  C 18.125 6.38615234375  18.48884765625 6.75  18.9375 6.75  C 19.38615234375 6.75  19.75 6.38615234375  19.75 5.9375  L 19.75 1.46875  Z M 0.25 5.9375  C 0.25 6.38615234375  0.61384765625 6.75  1.0625 6.75  C 1.51115234375 6.75  1.875 6.38615234375  1.875 5.9375  L 1.875 1.875  L 6.75583984375 1.875  C 7.2044921875 1.875  7.56833984375 1.51115234375  7.56833984375 1.0625  C 7.56833984375 0.61384765625  7.2044921875 0.25  6.75583984375 0.25  L 1.46875 0.25  C 0.79666015625 0.25  0.25 0.79666015625  0.25 1.46875  L 0.25 5.9375  Z M 1.875 9.1875  C 1.42634765625 9.1875  1.0625 9.55134765625  1.0625 10  C 1.0625 10.44865234375  1.42634765625 10.8125  1.875 10.8125  L 18.125 10.8125  C 18.57365234375 10.8125  18.9375 10.44865234375  18.9375 10  C 18.9375 9.55134765625  18.57365234375 9.1875  18.125 9.1875  L 1.875 9.1875  Z " fill-rule="nonzero" fill="#ffffff" stroke="none" transform="matrix(1 0 0 1 24 1 )" />
  </g>
</svg>