<?xml version="1.0" encoding="utf-8"?>
<svg version="1.1" xmlns:xlink="http://www.w3.org/1999/xlink" width="6px" height="5px" xmlns="http://www.w3.org/2000/svg">
  <g transform="matrix(1 0 0 1 -68 -6 )">
    <path d="M 1.08171428571429 4.78202899456522  C 1.03932610656509 4.78826869962999  0.99654631126299 4.79136868155325  0.953714276785714 4.79130434782609  C 0.466820121443417 4.790761669468  0.0723978753741922 4.39018330567176  0.0723978753741922 3.89623241518907  C 0.0723978753741922 3.45154239579379  0.394204794940965 3.07428590297834  0.827999999999999 3.0104347826087  L 2.49771428571429 2.76405796195652  C 2.90054159036253 2.70488398276205  3.24875270417285 2.4481270468728  3.42857142857143 2.07768116847826  L 4.12285714285714 0.647536222826087  C 4.26865503578293 0.335411788314236  4.57865454044518 0.136427231074621  4.91911759879082 0.136427231074621  C 5.40575936121315 0.136427231074621  5.80026045593368 0.536645732965009  5.80026045593368 1.03034027455288  C 5.80026045593368 1.17286460064032  5.76666823584588 1.31332303076998  5.70228570535714 1.44  L 5.00799999107143 2.86956521739131  C 4.57206574210231 3.76785713482528  3.72807917479579 4.39077814636631  2.75142857142857 4.53507247282609  L 1.08171428571429 4.78202899456522  Z " fill-rule="nonzero" fill="#ffffff" stroke="none" transform="matrix(1 0 0 1 68 6 )" />
  </g>
</svg>