<?xml version="1.0" encoding="utf-8"?>
<svg version="1.1" xmlns:xlink="http://www.w3.org/1999/xlink" width="20px" height="22px" xmlns="http://www.w3.org/2000/svg">
  <g transform="matrix(1 0 0 1 -1771 -1714 )">
    <path d="M 2.80905641666667 9.80514856835938  C 2.22314604166667 10.0523236386719  1.370884375 11.15093684375  0.7583284375 12.6890082128906  C -0.0140382708333333 14.639038046875  -0.1472035 16.4792409375  0.465352416666667 16.8088077265625  C 0.891493666666667 17.05600428125  1.5839445625 16.5066976894531  2.22314604166667 15.5179329121094  C 2.46283095833333 16.6165461171875  3.1020324375 17.5778326582031  3.98091883333333 18.3743358261719  C 3.0487621875 18.7314022929687  2.43620625 19.3356223671875  2.43620625 19.9947988925781  C 2.43620625 21.0934120976563  4.08743852083333 21.9997636933594  6.1115834375 21.999763671875  C 7.9492511875 21.999763671875  9.4673390625 21.2856736855469  9.76029425 20.3243656601562  L 10.1864355 20.3243656601562  C 10.4793698541667 21.2856736855469  11.9974785416667 21.999763671875  13.8351463125 21.999763671875  C 15.8859159583333 21.999763671875  17.5105235 21.1208688066406  17.5105234791667 19.9947988925781  C 17.5105234791667 19.3356223886719  16.8979675625 18.7313808300781  15.9658109166667 18.3743358261719  C 16.8446973125 17.5778326582031  17.4838987708333 16.6165461171875  17.7236045416667 15.5179329121094  C 18.3627851666667 16.5066976894531  19.0286113541667 17.055982796875  19.4813773125 16.8088077265625  C 20.1205787708333 16.4792409589844  19.9874135416667 14.6115813378906  19.188422125 12.6890082128906  C 18.575845375 11.1784150585937  17.75022925 10.0523236386719  17.1110277708333 9.80514856835937  C 17.1110277708333 9.72273538671875  17.1376733125 9.61286547460938  17.1376733333333 9.503017046875  C 17.1376733333333 8.926253703125  16.977883375 8.37694711132812  16.7115320625 7.93748894726562  L 16.7115320625 7.82764051953125  C 16.7115320625 7.55298721289062  16.658282625 7.30579065820312  16.551742125 7.08607231835937  C 16.3919521666667 3.13105619921875  13.9416868333333 0  9.97337529166667 0  C 6.00504291666667 0  3.55479839583333 3.13105619921875  3.394987625 7.08607231835938  C 3.2884679375 7.30579065820313  3.23519766666667 7.552987234375  3.23519766666667 7.82764051953125  L 3.23519766666667 7.93748894726563  C 2.9688671875 8.37694711132812  2.80905641666667 8.92625372460938  2.80905641666667 9.50303853125  L 2.80905641666667 9.80514856835938  Z " fill-rule="nonzero" fill="#4cafe9" stroke="none" transform="matrix(1 0 0 1 1771 1714 )" />
  </g>
</svg>