<?xml version="1.0" encoding="utf-8"?>
<svg version="1.1" xmlns:xlink="http://www.w3.org/1999/xlink" width="20px" height="5px" xmlns="http://www.w3.org/2000/svg">
  <g transform="matrix(1 0 0 1 -1979 -1726 )">
    <path d="M 20 0.779999999999999  C 19.9894462931599 0.397210269671579  19.6299213520498 0.0890460344343974  19.1833333333333 0.0800000000000003  C 18.7367453146168 0.0890460344343995  18.3772203735068 0.397210269671583  18.3666666666667 0.780000000000001  C 18.3666666666667 2.32  17.1666666666667 3.58285714285714  15.64 3.58285714285714  L 4.36 3.58285714285714  C 2.83333333333333 3.57142857142857  1.63333333333333 2.32  1.63333333333333 0.779999999999999  C 1.6227796264932 0.397210269671581  1.26325468538315 0.0890460344343954  0.816666666666667 0.0799999999999983  C 0.370078647950179 0.0890460344343954  0.0105537068401302 0.397210269671581  0 0.779999999999999  C 0 3.11428571428571  1.96333333333333 4.98285714285714  4.36 5  L 15.64 5  C 18.0366666666667 4.98285714285714  20 3.11428571428571  20 0.779999999999999  Z " fill-rule="nonzero" fill="#48525d" stroke="none" transform="matrix(1 0 0 1 1979 1726 )" />
  </g>
</svg>