<?xml version="1.0" encoding="utf-8"?>
<svg version="1.1" xmlns:xlink="http://www.w3.org/1999/xlink" width="8px" height="13px" xmlns="http://www.w3.org/2000/svg">
  <g transform="matrix(1 0 0 1 -1985 -1714 )">
    <path d="M 0.268936170212766 9.53333333333333  L 3.32936170212766 12.64  C 3.68473412668079 12.9285305325266  4.19952119246815 12.9285305325266  4.55489361702128 12.64  L 7.72765957446809 9.53333333333333  C 7.86125890431039 9.38529014973186  7.93499639131844 9.19454183765865  7.93499639131844 8.99698270016737  C 7.93499639131844 8.54963205280442  7.56463109500825 8.18698270016737  7.10776234876525 8.18698270016737  C 6.90599982536989 8.18698270016737  6.71119303857172 8.25918398952942  6.56 8.39  L 4.83404255319149 10.08  L 4.83404255319149 0.813333333333333  C 4.8058894243749 0.381627396388049  4.44008698734237 0.0455880513553023  3.99829787234043 0.0455880513553023  C 3.55650875733848 0.0455880513553023  3.19070632030595 0.381627396388049  3.16255319148936 0.813333333333334  L 3.16255319148936 10.08  L 1.43659574468085 8.39  C 1.28540270610913 8.25918398952941  1.09059591931096 8.18698270016736  0.888833395915602 8.18698270016736  C 0.431964649672598 8.18698270016736  0.0615993533624109 8.54963205280442  0.0615993533624109 8.99698270016736  C 0.0615993533624109 9.19454183765865  0.135336840370463 9.38529014973186  0.268936170212766 9.53333333333333  Z " fill-rule="nonzero" fill="#48525d" stroke="none" transform="matrix(1 0 0 1 1985 1714 )" />
  </g>
</svg>