<?xml version="1.0" encoding="utf-8"?>
<svg version="1.1" xmlns:xlink="http://www.w3.org/1999/xlink" width="19px" height="19px" xmlns="http://www.w3.org/2000/svg">
  <g transform="matrix(1 0 0 1 -2036 -486 )">
    <path d="M 16.0841584158416 16.226  C 19.7407178217822 12.532875  19.7430693069307 6.524125  16.0841584158416 2.831  C 12.427599009901 -0.862125  6.47834158415842 -0.862125  2.82178217821782 2.831  C -0.834777227722772 6.524125  -0.834777227722772 12.532875  2.82178217821782 16.226  C 6.47834158415842 19.919125  12.427599009901 19.919125  16.0841584158416 16.226  Z M 15.3740099009901 3.54825  C 18.6378712871287 6.847125  18.6402227722772 12.21225  15.3740099009901 15.50875  C 12.1101485148515 18.807625  6.79579207920792 18.807625  3.53193069306931 15.50875  C 0.265717821782178 12.209875  0.265717821782178 6.84475  3.53193069306931 3.54825  C 6.79814356435644 0.251749999999999  12.1101485148515 0.249374999999999  15.3740099009901 3.54825  Z M 13.7561881188119 13.1575  L 10.1631188118812 9.5285  L 13.7561881188119 5.8995  C 13.9513613861386 5.702375  13.9513613861386 5.379375  13.7561881188119 5.18225  C 13.5610148514851 4.985125  13.2412128712871 4.985125  13.0460396039604 5.18225  L 9.4529702970297 8.81125  L 5.85990099009901 5.18225  C 5.66472772277228 4.985125  5.34492574257426 4.985125  5.14975247524753 5.18225  C 4.95457920792079 5.379375  4.95457920792079 5.702375  5.14975247524753 5.8995  L 8.74282178217822 9.5285  L 5.14975247524753 13.155125  C 4.95457920792079 13.35225  4.95457920792079 13.67525  5.14975247524753 13.872375  C 5.34492574257426 14.0695  5.66472772277228 14.0695  5.85990099009901 13.872375  L 9.4529702970297 10.24575  L 13.0460396039604 13.87475  C 13.2412128712871 14.071875  13.5610148514851 14.071875  13.7561881188119 13.87475  C 13.9513613861386 13.677625  13.9513613861386 13.354625  13.7561881188119 13.1575  Z " fill-rule="nonzero" fill="#373634" stroke="none" transform="matrix(1 0 0 1 2036 486 )" />
  </g>
</svg>