<?xml version="1.0" encoding="utf-8"?>
<svg version="1.1" xmlns:xlink="http://www.w3.org/1999/xlink" width="26px" height="26px" xmlns="http://www.w3.org/2000/svg">
  <g transform="matrix(1 0 0 1 -1871 -856 )">
    <path d="M 12.6649990535714 2.79493083080808  C 12.6578724668367 1.35427847979798  11.5157504693878 0.18183576010101  10.0762118852041 0.0925445378787881  L 10.0762118852041 0.0835415126262627  L 2.78845224489796 0.0835415126262627  C 1.26587181632653 0.0835415126262627  0.0327669642857143 1.29596038131313  0.0240793163265306 2.79493083080808  L 0.023298785714286 9.60941622727273  C 0.023298785714286 9.69044348737374  0.0398935841836739 9.76643170454546  0.0643955000000005 9.83922858585859  C 0.285862969387756 11.1276020883838  1.41851675510204 12.1097719166667  2.78845227806122 12.1097719166667  L 10.0762118852041 12.1097718838384  L 10.0762118852041 12.101978219697  C 11.3655150408163 12.0221267373737  12.4134641096939 11.0723745429293  12.6230878826531 9.8392285530303  C 12.648404255102 9.76643167171717  12.6658474693878 9.69044345454546  12.6658474693878 9.60941619444444  L 12.6658474693878 2.79493083080808  Z M 11.2104606581633 9.23985537878788  C 11.2104606581633 10.0325920959596  10.5586485510204 10.6746288737374  9.75507384693877 10.6746288737374  L 2.93315610714286 10.6746288737374  C 2.12958143622449 10.6746288737374  1.4786516377551 10.0325920959596  1.4786516377551 9.23985537878788  L 1.4786516377551 2.95389469949495  C 1.4786516377551 2.1611243989899  2.12958140306122 1.51871810606061  2.93315610714286 1.51871810606061  L 9.75510780612245 1.51871810606061  C 10.5586824770408 1.51871810606061  11.2104946173469 2.16115801515152  11.2104946173469 2.95389469949495  L 11.2104945841837 9.23985537878788  Z M 25.9418487780612 2.7284159040404  C 25.9346882321429 1.32337255555556  24.8203260765306 0.179484204545455  23.4163525739796 0.0921414065656571  L 23.4163525739796 0.0835415126262632  L 17.0586816811224 0.0835415126262627  C 15.5732953137755 0.0835415126262627  14.3711063188776 1.26659975  14.3623507857143 2.72838232070707  L 14.361570255102 9.37647966666666  C 14.361570255102 9.45552488636364  14.3773845229592 9.52990064393939  14.4027008954082 9.6007491010101  C 14.6178562346939 10.8578135808081  15.723598627551 11.8157625378788  17.0587156403061 11.8157625378788  L 23.4163865331633 11.8157625378788  L 23.4163865331633 11.8083383888889  C 24.6739933010204 11.7300321994949  25.6958454668367 10.8033586818182  25.9023470841837 9.60074906818182  C 25.926849 9.52990061111111  25.9426971938775 9.45552485353535  25.9426971938775 9.37647963383838  L 25.9426971938775 2.7284159040404  Z M 24.5229433826531 2.88338220707071  L 24.5229433494898 9.01592187626263  C 24.5229433494898 9.78907363383838  23.8877938928571 10.4158254318182  23.1031216530612 10.4158254318182  L 17.201077877551 10.4158254318182  C 16.4164735229592 10.4158254318182  15.7805435357143 9.78907363383838  15.7805435357143 9.01592187626263  L 15.7805435357143 2.88338220707071  C 15.7805435357143 2.11019686616162  16.4164735229592 1.48347865151515  17.201077877551 1.48347865151515  L 23.1031216862245 1.48347865151515  C 23.8877939260204 1.48347865151515  24.5229433826531 2.11023044949495  24.5229433826531 2.88338220707071  Z M 12.3240422831633 16.676826209596  C 12.3169156964286 15.2752765782828  11.2065240459184 14.1337733333333  9.80574055102041 14.0468000833333  L 9.80574055102041 14.0382337727273  L 2.71406415561224 14.038233739899  C 1.23264832653061 14.038233739899  0.0319864336734692 15.2182013914141  0.0240453903061223 16.6768261767677  L 0.0232648596938777 23.307287020202  C 0.0232648596938777 23.3867353712121  0.0391130535714288 23.4611783282828  0.0635810433673471 23.5312205227273  C 0.277955852040816 24.7846569191919  1.38132272704082 25.741094199495  2.71406418877551 25.741094199495  L 9.80574055102041 25.741094199495  L 9.80574055102041 25.7333341186869  C 11.0601233852041 25.6561701237374  12.0796678852041 24.7311090656566  12.284506630102 23.5312205227273  C 12.3097890765306 23.4611783282828  12.3256711964286 23.3867353712121  12.3256711964286 23.307287020202  L 12.3256712295918 16.676826209596  L 12.3240422831633 16.676826209596  Z M 10.9098879566327 22.9483081060606  C 10.9098879566327 23.7195450555556  10.2755529897959 24.3443148131313  9.49410468367347 24.3443148131313  L 3.08264493112245 24.3443148459596  C 3.08264493112245 24.3443148459596  3.08189832653061 24.3443148459596  3.08108386989796 24.3443148459596  L 2.85483140561224 24.3443148459596  C 2.07338309948979 24.3443148459596  1.43908205867347 23.7195450555556  1.43908205867347 22.9483081388889  L 1.43908205867347 16.8306503181818  C 1.43908205867347 16.0601860151515  2.07338309948979 15.4346099949495  2.85483140561225 15.4346099949495  L 9.49413860969388 15.4346099949495  C 10.2755869158163 15.4346099949495  10.9099218826531 16.0601860151515  10.9099218826531 16.8306503181818  L 10.9099218826531 22.9483081060606  Z M 20.820472744898 21.8905531919192  C 20.820472744898 21.4246801363636  20.4249805433673 21.0468889090909  19.9362317806122 21.0468889090909  C 19.447347247449 21.0468889090909  19.0518550459184 21.4246801363636  19.0518550459184 21.8905531919192  L 19.0518550459184 23.5777809747475  C 19.0518550459184 24.0448633914141  19.4473132882653 24.4221843207071  19.9362317806122 24.4221843207071  C 20.4249466505102 24.4221843207071  20.820472744898 24.0448970075758  20.820472744898 23.5777809747475  L 20.820472744898 21.8905531919192  Z M 24.5893903954082 21.0460826792929  C 24.5893903954082 20.5798736590909  24.1938642678571 20.2024855959596  23.7043010153061 20.2024855959596  C 23.2154843673469 20.2024855959596  22.8199921658163 20.5798401085859  22.8199921658163 21.0460826792929  L 22.8199921658163 23.5777473914141  C 22.8199921658163 24.0443930934343  23.2154504081633 24.4214788409091  23.7043010153061 24.4214788409091  C 24.1938982270408 24.4214788409091  24.5893903954082 24.044359510101  24.5893903954082 23.5777473914141  L 24.5893903954082 21.0460826792929  Z M 24.5893903954082 15.9839290328283  C 24.5893903954082 15.5172497146465  24.1938642678571 15.1394921035354  23.7043010153061 15.1394921035354  C 23.2154843673469 15.1394921035354  22.8199921658163 15.5172161313131  22.8199921658163 15.9839290328283  L 22.8199921658163 17.6711568156566  C 22.8199921658163 18.1369627045455  23.2154504081633 18.5147538989899  23.7043010153061 18.5147538989899  C 24.1938982270408 18.5147538989899  24.5893903954082 18.1369626717172  24.5893903954082 17.6711568156566  L 24.5893903954082 15.9839290328283  Z M 20.820472744898 15.9842649646465  C 20.820472744898 15.5180223611111  20.4249805433673 15.14026475  19.9362317806122 15.14026475  C 19.447347247449 15.14026475  19.0518550459184 15.5180223611111  19.0518550459184 15.9842649646465  L 19.0518550459184 19.3599970580808  C 19.0518550459184 19.825903729798  19.4473132882653 20.2032246262626  19.9362317806122 20.2032246262626  C 20.4249466505102 20.2032246262626  20.820472744898 19.8259373131313  20.820472744898 19.3599970580808  L 20.820472744898 15.9842649646465  Z M 17.0048928545918 20.2024855959596  C 17.0049267806122 19.7354031464646  16.6094346122449 19.3599970580808  16.1190229438775 19.3599970580808  C 15.6318691683673 19.3599970580808  15.2355285510204 19.7354031464646  15.2355285510204 20.2024855631313  L 15.2355285510204 23.5777809419192  C 15.2355285510204 24.0444266439394  15.6318691352041 24.4215123914141  16.1190229438775 24.4215123914141  C 16.6094346122449 24.4215123914141  17.0048928545918 24.0443930606061  17.0048928545918 23.5777809419192  L 17.0048928545918 20.2024855959596  Z M 17.0048928545918 15.9839290328283  C 17.0049267806122 15.5172497146465  16.6094346122449 15.1394921035354  16.1190229438775 15.1394921035354  C 15.6318691683673 15.1394921035354  15.2355285510204 15.5172161313131  15.2355285510204 15.9839290328283  L 15.2355285510204 16.8279292474747  C 15.2355285510204 17.2941382348485  15.6318691352041 17.6711568156566  16.1190229438775 17.6711568156566  C 16.6094346122449 17.6711568156566  17.0048928545918 17.2941382676768  17.0048928545918 16.8279292474747  L 17.0048928545918 15.9839290328283  Z " fill-rule="nonzero" fill="#424242" stroke="none" transform="matrix(1 0 0 1 1871 856 )" />
  </g>
</svg>