<?xml version="1.0" encoding="utf-8"?>
<svg version="1.1" xmlns:xlink="http://www.w3.org/1999/xlink" width="35px" height="28px" xmlns="http://www.w3.org/2000/svg">
  <g transform="matrix(1 0 0 1 -1994 -854 )">
    <path d="M 23.6342520491803 8.45339285714286  C 24.0287192622951 8.45339285714286  24.4231864754098 8.48967857142857  24.8156096311475 8.52396428571429  C 23.7599795081967 3.64514285714286  18.4645081967213 0  12.4322079918033 0  C 5.68667520491803 0.0235714285714285  0.159364754098359 4.56403571428571  0.159364754098359 10.3295  C 0.159364754098359 13.6533571428571  2.0018493852459 16.39475  5.06241290983606 18.5172142857143  L 3.82704918032787 22.1582142857143  L 8.12301229508197 20.0379285714286  C 9.66207991803279 20.33775  10.8975512295082 20.6375714285714  12.4170389344262 20.6375714285714  C 12.811506147541 20.6375714285714  13.1866086065574 20.6204285714286  13.5614959016393 20.5860714285714  C 13.3178707736468 19.7581253690789  13.1916748351417 18.9003219916173  13.1865727459016 18.0375714285714  C 13.2039651639344 12.7517857142857  17.8034170081967 8.45553571428571  23.6364754098361 8.45553571428571  L 23.6343237704918 8.45339285714285  Z M 15.189318647541 6.68846428571429  C 15.189318647541 5.76760714285714  16.1191854508197 5.16796428571428  17.0318391393443 5.16796428571428  C 17.9638575819672 5.16796428571428  18.5707274590164 5.76760714285714  18.5707274590164 6.6885  C 18.5707274590164 7.58807142857143  17.9638575819672 8.20917857142857  17.0318391393443 8.20917857142857  C 16.1191854508197 8.20917857142857  15.189318647541 7.60739285714286  15.189318647541 6.68846428571429  Z M 9.98070184426229 6.6885  C 9.98070184426229 7.58807142857143  9.37379610655738 8.20917857142857  8.44163422131147 8.20917857142857  C 7.53134733606557 8.20917857142857  6.59932889344262 7.60739285714286  6.59932889344262 6.68846428571429  C 6.59932889344262 5.76760714285714  7.53134733606557 5.16796428571428  8.44163422131147 5.16796428571428  C 9.35428790983606 5.16796428571428  9.98070184426229 5.76760714285714  9.98070184426229 6.6885  Z M 30.5271004098361 24.9123214285714  C 32.9981506147541 23.0576785714286  34.8406352459016 20.6332142857143  34.8406352459016 17.9111428571429  C 34.8406352459016 13.0666071428571  29.9375870901639 9.10660714285714  24.405794057377 9.10660714285714  C 18.5728790983607 9.10660714285714  13.9732838114754 13.0666071428571  13.9732838114754 17.9111428571429  C 13.9732838114754 22.7728571428571  18.5728790983607 26.7178214285714  24.405794057377 26.7178214285714  C 25.6240522540984 26.7178214285714  26.859487704918 26.418  28.0929149590164 26.1160357142857  L 31.4569672131147 27.9365  L 30.5271004098361 24.9123214285714  Z M 21.0244211065574 16.3904285714286  C 20.4175512295082 16.3904285714286  19.788949795082 15.7907857142857  19.788949795082 15.16975  C 19.788949795082 14.5701071428571  20.4175512295082 13.9490357142857  21.0244211065574 13.9490357142857  C 21.9564395491803 13.9490357142857  22.5634887295082 14.5508214285714  22.5634887295082 15.16975  C 22.5634887295082 15.7908214285714  21.9564395491803 16.3904642857143  21.0244211065574 16.3904642857143  Z M 27.7721413934426 16.3904285714286  C 27.1630840163934 16.3904285714286  26.5538831967213 15.7907857142857  26.5538831967213 15.16975  C 26.5538831967213 14.5701071428571  27.1608965163934 13.9490357142857  27.7721413934426 13.9490357142857  C 28.7020081967213 13.9490357142857  29.3110297131148 14.5508214285714  29.3110297131148 15.16975  C 29.3110297131148 15.7908214285714  28.7020081967213 16.3904642857143  27.7721413934426 16.3904642857143  Z " fill-rule="nonzero" fill="#09bb07" stroke="none" transform="matrix(1 0 0 1 1994 854 )" />
  </g>
</svg>