<?xml version="1.0" encoding="utf-8"?>
<svg version="1.1" xmlns:xlink="http://www.w3.org/1999/xlink" width="20px" height="8px" xmlns="http://www.w3.org/2000/svg">
  <g transform="matrix(1 0 0 1 -2513 -443 )">
    <path d="M 3.855025375 0.6842639609375  C 4.8033299453125 1.0294010234375  5.2923451796875 2.0780913828125  4.9472081171875 3.0265177578125  L 4.822091359375 3.36994925  C 4.581725875 4.0304974765625  4.0001218046875 4.4682233515625  3.3487106640625 4.5564263984375  C 3.72186803125 5.0360609140625  3.84759390625 5.6913705546875  3.624284265625 6.30464975  C 3.279147203125 7.2531979765625  2.230578671875 7.7422132109375  1.2821522734375 7.3969543203125  C 0.333725875 7.0518172578125  -0.155289359375 6.0031268984375  0.1898477265625 5.0547005  C 0.4303350390625 4.3941522734375  1.0119390859375 3.9565482265625  1.66335025 3.8682233515625  C 1.2901928828125 3.3885888359375  1.1644670078125 2.7332791953125  1.3877766484375 2.12  L 1.512771578125 1.776446703125  C 1.857908640625 0.828020304687502  2.906477171875 0.339126898437502  3.854903546875 0.684263960937503  Z M 16.0268020234375 0.705096453124998  C 16.975228421875 0.359959390624997  18.02391878125 0.848852796875001  18.36905584375 1.7972791953125  L 18.49405075 2.1408324921875  C 18.709685265625 2.7329137109375  18.600040609375 3.3641015234375  18.256365484375 3.838741109375  C 18.93835534375 3.901847703125  19.5566294453125 4.3474923828125  19.806375625 5.03386803125  C 20.151634515625 5.9822944296875  19.66261928125 7.0309847890625  18.7141928828125 7.376121828125  C 17.7658883125 7.721258890625  16.717197953125 7.232365484375  16.3720609140625 6.2839390859375  C 16.1564263984375 5.6918578671875  16.2660710546875 5.0605482265625  16.609746203125 4.585908640625  C 15.92775634375 4.522802046875  15.3094822421875 4.0771573671875  15.0597360390625 3.39078171875  L 14.934741109375 3.047228421875  C 14.58948221875 2.0989238515625  15.078497453125 1.0502334921875  16.0269238515625 0.705096453124998  Z " fill-rule="nonzero" fill="#4d4132" stroke="none" transform="matrix(1 0 0 1 2513 443 )" />
  </g>
</svg>