<?xml version="1.0" encoding="utf-8"?>
<svg version="1.1" xmlns:xlink="http://www.w3.org/1999/xlink" width="12px" height="4px" xmlns="http://www.w3.org/2000/svg">
  <g transform="matrix(1 0 0 1 -2517 -436 )">
    <path d="M 3.8788629375 3.086497453125  L 3.9052995 3.10440609375  L 3.921015234375 3.1152487265625  C 3.9344162578125 3.1231675078125  3.9472081171875 3.1318172578125  3.959390859375 3.1413198046875  C 4.105340109375 3.2543756484375  4.1087512734375 3.43516753125  3.96694415625 3.54505584375  C 3.8289137109375 3.6520203046875  3.6041421328125 3.6522639609375  3.45770559375 3.5478578671875  L 3.4458883359375 3.5392081171875  L 3.4446700546875 3.5401827421875  C 2.865015234375 3.1320609140625  1.983959390625 3.1305989765625  1.432690359375 3.542984765625  L 1.4145380625 3.5567512734375  C 1.2727309453125 3.666639609375  1.039553296875 3.663959390625  0.893482242187499 3.550903546875  C 0.751431492187499 3.440771578125  0.744487312499999 3.2664365390625  0.875086289062499 3.1559390859375  L 0.886050749999999 3.1471675078125  C 1.694741109375 2.5204873125  2.9995126875 2.503675125  3.8788629375 3.086497453125  Z M 10.823025375 3.086497453125  L 10.8494619375 3.10440609375  L 10.865177671875 3.1152487265625  C 10.8785786953125 3.1231675078125  10.8913705546875 3.1318172578125  10.903553296875 3.1413198046875  C 11.049502546875 3.2543756484375  11.0529137109375 3.43516753125  10.91110659375 3.54505584375  C 10.7730761484375 3.6520203046875  10.5483045703125 3.6522639609375  10.40186803125 3.5478578671875  L 10.39005075 3.5392081171875  L 10.3888324921875 3.5401827421875  C 9.809177671875 3.1320609140625  8.928121828125 3.1305989765625  8.376852796875 3.542984765625  L 8.3587005 3.5567512734375  C 8.2168933828125 3.666639609375  7.983715734375 3.663959390625  7.8376446796875 3.550903546875  C 7.6955939296875 3.440771578125  7.68864975 3.2664365390625  7.8192487265625 3.1559390859375  L 7.8302131875 3.1471675078125  C 8.638903546875 2.5204873125  9.943675125 2.503675125  10.823025375 3.086497453125  Z M 3.8788629375 0.877766507812499  L 3.9052995 0.9000609140625  L 3.921015234375 0.913461937499999  C 3.9344162578125 0.923451796875  3.9472081171875 0.934294429687499  3.959390859375 0.946233492187501  C 4.105340109375 1.087553296875  4.1087512734375 1.3135431328125  3.96694415625 1.4508426328125  C 3.8289137109375 1.584609140625  3.6041421328125 1.5849746015625  3.45770559375 1.454497453125  L 3.4458883359375 1.4435329921875  L 3.4446700546875 1.4447512734375  C 2.865015234375 0.934538085937501  1.983959390625 0.932710664062501  1.432690359375 1.448284265625  L 1.4145380625 1.4654619375  C 1.2727309453125 1.6027614375  1.039553296875 1.599472078125  0.893482242187499 1.4581522734375  C 0.751431492187499 1.3204872890625  0.744487312499999 1.102659890625  0.875086289062499 0.9645076171875  L 0.886050749999999 0.953543156249999  C 1.694741109375 0.170192906250001  2.9995126875 0.1492385859375  3.8788629375 0.877766507812499  Z M 10.7011979765625 0.877766507812499  L 10.727634515625 0.9000609140625  L 10.74335025 0.913461937499999  C 10.7567512734375 0.923451796875  10.7695431328125 0.934294429687499  10.7817258984375 0.946233492187501  C 10.9276751484375 1.087553296875  10.9310863125 1.3135431328125  10.7892791953125 1.4508426328125  C 10.65124875 1.584609140625  10.426477171875 1.5849746015625  10.280040609375 1.454497453125  L 10.2682233515625 1.4435329921875  L 10.2670050703125 1.4447512734375  C 9.68735025 0.934538085937501  8.80629440625 0.932710664062501  8.255025375 1.448284265625  L 8.2368731015625 1.4654619375  C 8.095065984375 1.6027614375  7.8618883359375 1.599472078125  7.7158172578125 1.4581522734375  C 7.5737665078125 1.3204872890625  7.566822328125 1.102659890625  7.697421328125 0.9645076171875  L 7.7083857890625 0.953543156249999  C 8.5170761484375 0.170192906250001  9.8218477265625 0.1492385859375  10.7011979765625 0.877766507812499  Z " fill-rule="nonzero" fill="#4d4132" stroke="none" transform="matrix(1 0 0 1 2517 436 )" />
  </g>
</svg>