<?xml version="1.0" encoding="utf-8"?>
<svg version="1.1" xmlns:xlink="http://www.w3.org/1999/xlink" width="10px" height="4px" xmlns="http://www.w3.org/2000/svg">
  <g transform="matrix(1 0 0 1 -2518 -439 )">
    <path d="M 7.0101522734375 1.206091359375  C 7.0101522734375 0.6408121875  7.5011167578125 0.182741109375002  8.1065989765625 0.182741109375002  C 8.71208121875 0.182741109375002  9.2030456796875 0.640812164062499  9.2030456796875 1.206091359375  L 9.2030456796875 2.0832487265625  C 9.2030456796875 2.648527921875  8.71208121875 3.1065989765625  8.1065989765625 3.1065989765625  C 7.501116734375 3.1065989765625  7.0101522734375 2.648527921875  7.0101522734375 2.0832487265625  L 7.0101522734375 1.206091359375  Z M 0.7969543203125 1.206091359375  C 0.7969543203125 0.6408121875  1.28791878125 0.182741109375002  1.8934010234375 0.182741109375002  C 2.498883265625 0.182741109375002  2.9898477265625 0.640812164062499  2.9898477265625 1.206091359375  L 2.9898477265625 2.0832487265625  C 2.9898477265625 2.648527921875  2.498883265625 3.1065989765625  1.8934010234375 3.1065989765625  C 1.28791878125 3.1065989765625  0.7969543203125 2.648527921875  0.7969543203125 2.0832487265625  L 0.7969543203125 1.206091359375  Z " fill-rule="nonzero" fill="#514141" stroke="none" transform="matrix(1 0 0 1 2518 439 )" />
  </g>
</svg>