<?xml version="1.0" encoding="utf-8"?>
<svg version="1.1" xmlns:xlink="http://www.w3.org/1999/xlink" width="12px" height="2px" xmlns="http://www.w3.org/2000/svg">
  <g transform="matrix(1 0 0 1 -2517 -442 )">
    <path d="M 0.8527918828125 0.472081218749999  L 1.0355329921875 0.472081218749995  C 1.18692070743746 0.472081218749995  1.3096446796875 0.594805191000034  1.3096446796875 0.746192882812496  L 1.3096446796875 1.6598984765625  C 1.3096446796875 1.81128616837496  1.18692070743746 1.934010140625  1.035533015625 1.934010140625  L 0.8527918828125 1.934010140625  C 0.70140416756254 1.934010140625  0.578680195312501 1.81128616837496  0.578680195312501 1.6598984765625  C 0.578680195312501 1.75126903125  0.578680195312501 1.568527921875  0.578680195312501 1.6598984765625  L 0.578680195312499 0.746192882812498  C 0.578680195312499 0.654822328124997  0.578680195312501 0.837563437499995  0.578680195312501 0.746192882812496  C 0.578680195312501 0.594805191000034  0.70140416756254 0.472081218749995  0.852791859374999 0.472081218749995  Z M 1.9492385859375 0.472081218749999  L 2.1319796953125 0.472081218749995  C 2.28336738712496 0.472081218749995  2.406091359375 0.594805191000036  2.406091359375 0.746192882812498  L 2.406091359375 1.6598984765625  C 2.406091359375 1.81128616837496  2.28336738712496 1.934010140625  2.1319796953125 1.934010140625  L 1.9492385859375 1.934010140625  C 1.79785087068754 1.934010140625  1.6751268984375 1.81128616837496  1.6751268984375 1.6598984765625  L 1.6751268984375 0.746192882812498  C 1.6751268984375 0.594805191000034  1.79785087068754 0.472081218749995  1.9492385625 0.472081218749995  Z M 9.8680203046875 0.472081218749999  L 10.0507614140625 0.472081218749995  C 10.2021491293125 0.472081218749995  10.3248731015625 0.594805191000034  10.3248731015625 0.746192882812496  C 10.3248731015625 0.563451773437496  10.3248731015625 0.928933992187499  10.3248731015625 0.746192882812498  L 10.3248731015625 1.6598984765625  C 10.3248731015625 1.8426395859375  10.3248731015625 1.4771573671875  10.3248731015625 1.6598984765625  C 10.3248731015625 1.81128616837496  10.2021491293125 1.934010140625  10.0507614375 1.934010140625  L 9.8680203046875 1.934010140625  C 9.71663261287504 1.934010140625  9.593908640625 1.81128616837496  9.593908640625 1.6598984765625  L 9.593908640625 0.746192882812498  C 9.593908640625 0.594805191000036  9.71663261287504 0.472081218749995  9.8680203046875 0.472081218749999  Z M 10.9644670078125 0.472081218749999  L 11.1472081171875 0.472081218749995  C 11.2985958324375 0.472081218749995  11.4213198046875 0.594805191000034  11.4213198046875 0.746192882812496  L 11.4213198046875 1.6598984765625  C 11.4213198046875 1.81128616837496  11.2985958324375 1.934010140625  11.147208140625 1.934010140625  L 10.9644670078125 1.934010140625  C 10.8130792925625 1.934010140625  10.6903553203125 1.81128616837496  10.6903553203125 1.6598984765625  L 10.6903553203125 0.746192882812498  C 10.6903553203125 0.594805191000034  10.8130792925625 0.472081218749995  10.964466984375 0.472081218749995  Z " fill-rule="nonzero" fill="#f5b196" stroke="none" transform="matrix(1 0 0 1 2517 442 )" />
  </g>
</svg>