<?xml version="1.0" encoding="utf-8"?>
<svg version="1.1" xmlns:xlink="http://www.w3.org/1999/xlink" width="19px" height="19px" xmlns="http://www.w3.org/2000/svg">
  <g transform="matrix(1 0 0 1 -2840 -430 )">
    <path d="M 18.1706349274089 9.5  C 18.1706349274089 14.2887916666667  14.2887916666667 18.1706349274089  9.5 18.1706349274089  C 4.71120833333333 18.1706349274089  0.829365072591146 14.2887916666667  0.829365072591146 9.5  C 0.829365072591146 4.71120833333333  4.71120833333333 0.829365072591146  9.5 0.829365072591146  C 14.2887916666667 0.829365072591146  18.1706349274089 4.71120833333333  18.1706349274089 9.5  Z M 6.02871130952381 9.06646826074219  C 5.79016571805437 9.06742423252255  5.59749457427293 9.26145357871686  5.59821428571429 9.5  C 5.59821428571429 9.74104364401972  5.79113590592448 9.93353173925781  6.02871130952381 9.93353173925781  L 12.9712886904762 9.93353173925781  C 13.2098342819456 9.93257576747745  13.4025054257271 9.73854642128314  13.4017857142857 9.5  C 13.4017857142857 9.25895635598028  13.2088640940755 9.06646826074219  12.9712886904762 9.06646826074219  L 6.02871130952381 9.06646826074219  Z " fill-rule="nonzero" fill="#e67c7c" stroke="none" transform="matrix(1 0 0 1 2840 430 )" />
  </g>
</svg>