<?xml version="1.0" encoding="utf-8"?>
<svg version="1.1" xmlns:xlink="http://www.w3.org/1999/xlink" width="16px" height="17px" xmlns="http://www.w3.org/2000/svg">
  <g transform="matrix(1 0 0 1 -2943 -307 )">
    <path d="M 16 7.986464  C 16 12.326496  12.4276363636364 15.859232  8 15.859232  C 3.57236363636364 15.859232  0 12.326496  0 7.986464  C 0 3.646432  3.57236363636364 0.113696  8 0.113696  C 12.4276363636364 0.113696  16 3.646432  16 7.986464  Z M 1.45454545454545 7.986464  C 1.45454545454545 11.591008  4.39389090909091 14.499232  8 14.499232  C 11.6061090909091 14.499232  14.5454545454545 11.591008  14.5454545454545 7.986464  C 14.5454545454545 4.380832  11.6061090909091 1.473696  8 1.473696  C 4.39389090909091 1.473696  1.45454545454545 4.380832  1.45454545454545 7.986464  Z M 12.6661818181818 14.617824  L 12.6661818181818 14.618912  C 12.541472655928 14.4931722595065  12.4721780336824 14.3280199524285  12.4721780336824 14.1565359662813  C 12.4721780336824 13.7809823363964  12.7977891247145 13.4765359662813  13.1994507609551 13.4765359662813  C 13.3968161367773 13.4765359662813  13.5857061633426 13.5515357102076  13.7227636363636 13.68432  L 15.8010181818182 15.739552  C 15.925727344072 15.8652917404935  15.9950219663176 16.0304440475715  15.9950219663176 16.2019280337187  C 15.9950219663176 16.5774816636036  15.6694108752855 16.8819280337187  15.2677492390449 16.8819280337187  C 15.0703838632227 16.8819280337187  14.8814938366574 16.8069282897924  14.7444363636364 16.674144  L 12.6661818181818 14.617824  Z " fill-rule="nonzero" fill="#e1e1e1" stroke="none" transform="matrix(1 0 0 1 2943 307 )" />
  </g>
</svg>