<?xml version="1.0" encoding="utf-8"?>
<svg version="1.1" xmlns:xlink="http://www.w3.org/1999/xlink" width="12px" height="262px" preserveAspectRatio="xMidYMin meet" viewBox="1790 862  10 262" xmlns="http://www.w3.org/2000/svg">
  <path d="M 1843 868  L 1800 868  A 5 5 0 0 0 1795 873 L 1795 1120  " stroke-width="4" stroke="#d7af1f" fill="none" />
  <path d="M 1842.5 863.5  A 4.5 4.5 0 0 0 1838 868 A 4.5 4.5 0 0 0 1842.5 872.5 A 4.5 4.5 0 0 0 1847 868 A 4.5 4.5 0 0 0 1842.5 863.5 Z M 1795 1115  A 4.5 4.5 0 0 0 1790.5 1119.5 A 4.5 4.5 0 0 0 1795 1124 A 4.5 4.5 0 0 0 1799.5 1119.5 A 4.5 4.5 0 0 0 1795 1115 Z " fill-rule="nonzero" fill="#d7af1f" stroke="none" />
</svg>