<?xml version="1.0" encoding="utf-8"?>
<svg version="1.1" xmlns:xlink="http://www.w3.org/1999/xlink" width="26px" height="13px" xmlns="http://www.w3.org/2000/svg">
  <g transform="matrix(1 0 0 1 -806 -980 )">
    <path d="M 9.9542858614948 5.32648621878895  L 2.22857133656575 5.32648621878895  L 2.22857133656575 6.35243242084066  L 9.9542858614948 6.35243242084066  L 9.9542858614948 5.32648621878895  Z M 10.6701302297884 5.32648621878895  C 10.6701302297884 5.32648621878895  9.61662291324933 5.32648621878895  9.61662291324933 5.32648621878895  C 9.61662291324933 5.32648621878895  9.61662291324933 5.52324276761825  9.61662291324933 5.52324276761825  C 9.44103836049282 9.69729676661138  9.23844101017137 11.2994588691393  8.87376558638084 11.6789183045549  C 8.73870079350649 11.8335128928442  8.57662304205728 11.8616211492568  8.30649345630859 11.8616211492568  C 7.98233779240023 11.8616211492568  7.14493494950976 11.8475675288981  6.25350667249935 11.7632432099169  C 6.44259754353337 12.0724323864955  6.57766185337791 12.5081082509677  6.59116897670508 12.8313515295749  C 7.44207749383332 12.8735136681233  8.29298729904102 12.8875668068121  8.73870143754623 12.8454045635528  C 9.2114290176561 12.8032424250043  9.50857091793993 12.7048648835657  9.77870130873828 12.3535135265543  C 10.2649352071257 11.8194595342626  10.4540257561398 10.1891891439088  10.6431166271738 5.83243263528848  C 10.6566229454513 5.69189182442414  10.6701302297884 5.32648621878895  10.6701302297884 5.32648621878895  Z M 5.1459737608304 0.618378059966829  C 5.1459737608304 0.618378059966829  4.07896060904361 0.295134655706596  4.07896060904361 0.295134655706596  C 3.22805168939054 2.45945937342676  1.72883111990088 4.39891854245794  0 5.60756700283081  C 0.256623347976155 5.80432371919748  0.688831168203857 6.21189110736423  0.877922039237873 6.43675598590377  C 2.57974020056388 5.08756713350996  4.17350636658048 2.99351336571839  5.1459737608304 0.618378059966829  Z M 12.8851934769674 5.3686480013205  C 11.4129854635278 4.28648606130383  9.67064931342887 2.15027000836862  8.79272735469597 0.267026912377135  C 8.79272735469597 0.267026912377135  7.82025955792122 0.674594216775202  7.82025955792122 0.674594216775202  C 8.83324711457814 2.7686487384849  10.5350636658048 5.04540451329159  12.0342843157994 6.3102692980102  C 12.236881505111 6.0151342234602  12.615063086169 5.59351287986004  12.8851934769674 5.3686480013205  Z M 6.15896099546745 5.60756700283081  C 6.15896099546745 5.60756700283081  5.07844136439322 5.60756700283081  5.07844136439322 5.60756700283081  C 4.8083113761197 8.26378309262424  4.26805204361239 10.8637831931467  0.729350606066161 12.0864857764903  C 0.958960935088721 12.3113506340877  1.25610370080094 12.732972982912  1.37766217539778 13  C 5.1459737608304 11.5945947394918  5.84831164983659 8.68540460376177  6.15896099546745 5.60756700283081  Z M 26 9.3037840040275  L 13.938699505427 9.3037840040275  L 13.938699505427 10  L 26 10  L 26 9.3037840040275  Z M 20.4488296064075 0  L 19.3953222898684 0  L 19.3953222898684 1.78486431896475  L 20.4488296064075 1.78486431896475  L 20.4488296064075 0  Z M 23.7309089035521 6.74594551849927  L 15.2083092024856 6.74594551849927  L 15.2083092024856 7.60324224490168  L 23.7309089035521 7.60324224490168  L 23.7309089035521 6.74594551849927  Z M 20.4623351196353 8.47459334558092  L 19.4088290911757 8.47459334558092  C 19.4088290911757 8.47459334558092  19.4088290911757 11.8335137410021  19.4088290911757 11.8335137410021  C 19.4088290911757 12.0443245384552  19.3277901349461 12.1005404701352  19.0846735882773 12.1145945250439  C 18.8550629573611 12.1145945250439  17.9231151619834 12.1286482605846  17.0046738458932 12.1005401507671  C 17.1397386387675 12.3535130867687  17.3018155851671 12.7048642343584  17.3558416633267 12.9718912514464  C 18.5714260067703 12.9718912514464  19.3548024494813 12.971891083909  19.8275296270663 12.8454045635528  C 20.3002572071762 12.704864066821  20.4623351196353 12.4518914240098  20.4623351196353 11.8616211492568  C 20.4623351196353 11.8616211492568  20.4623351196353 8.47459334558092  20.4623351196353 8.47459334558092  Z M 23.771426731315 6.74594551849927  L 23.5012984336458 6.74594551849927  C 23.5012984336458 6.74594551849927  23.5012984336458 6.95675577145594  23.5012984336458 6.95675577145594  C 22.6503899165176 7.54702633939935  21.0025955792122 8.20756714523757  19.5979204452395 8.57297262521974  C 19.7464919589162 8.71351301724068  19.9896088276049 8.9945946808537  20.1111673022018 9.17729731613393  C 21.7049329851886 8.76972980231416  23.460777868714 8.06702696263834  24.6763618096328 7.27999967832826  C 24.6763618096328 7.27999967832826  24.0010372012213 6.70378373596771  24.0010372012213 6.70378373596771  L 23.771426731315 6.74594551849927  Z M 16.7750633759869 5.10162092140601  L 16.7750633759869 3.83675672306816  L 23.1636361294401 3.83675672306816  L 23.1636361294401 5.10162092140601  L 16.7750633759869 5.10162092140601  Z M 24.2171434459792 3.04972952252676  L 15.775583264677 3.04972952252676  L 15.775583264677 5.88864745179795  L 24.2171434459792 5.88864745179795  L 24.2171434459792 3.04972952252676  Z M 25.824414159164 1.23675645500838  L 14.0602581410338 1.23675645500838  L 14.0602581410338 2.15027000836862  L 25.824414159164 2.15027000836862  L 25.824414159164 1.23675645500838  Z " fill-rule="nonzero" fill="#ffffff" stroke="none" transform="matrix(1 0 0 1 806 980 )" />
  </g>
</svg>