<?xml version="1.0" encoding="utf-8"?>
<svg version="1.1" xmlns:xlink="http://www.w3.org/1999/xlink" width="25px" height="8px" xmlns="http://www.w3.org/2000/svg">
  <g transform="matrix(1 0 0 1 -21 -5 )">
    <path d="M 7.35294129568703 0.806067111255458  L 3.28969777452212 0.806067111255458  L 3.28969777452212 1.42145154118795  L 7.35294129568703 1.42145154118795  L 7.35294129568703 0.806067111255458  Z M 7.76096593059828 0.806067111255458  C 7.76096593059828 0.806067111255458  7.11492737569537 0.806067111255458  7.11492737569537 0.806067111255458  C 7.11492737569537 0.806067111255458  7.11492737569537 0.962080167190918  7.11492737569537 0.962080167190918  C 7.0299223560155 5.24377055057901  6.91941528998379 6.79523290713609  6.65589932364029 7.10725891137855  C 6.56239390332641 7.2286023634522  6.47738905253651 7.26327225051141  6.32437981444479 7.25460486232683  C 6.12886806651314 7.25460486232683  5.67834109065192 7.25460524978931  5.17681137320671 7.2112683041577  C 5.28731759478861 7.4019508563265  5.36382204494451 7.68797449084848  5.38082335288241 7.87865708606868  C 5.83985106715757 7.90465924053222  6.30737833761692 7.92199340745519  6.59639601253234 7.88732384664476  C 6.87691278014386 7.84398694406454  7.06392378966158 7.76598112644468  7.25093513695922 7.49729206783383  C 7.57395441441067 7.06392261151773  7.66746000361452 5.59046594342635  7.76096593059828 1.17009740289932  C 7.76096593059828 1.07475632054615  7.76096593059828 0.806067111255458  7.76096593059828 0.806067111255458  Z M 5.39782415415043 1.06608904335343  C 5.39782415415043 1.06608904335343  4.75178559924752 1.06608904335343  4.75178559924752 1.06608904335343  C 4.70078268877358 3.43228585293578  4.64127870210578 6.15384671020252  2.66065985199727 7.49729206783383  C 2.83067014469195 7.60996813508629  3.04318286278158 7.82665284171865  3.16219024500232 7.99133323942391  C 5.21081331352268 6.50054227525541  5.33832084304248 3.63163581145146  5.39782415415043 1.06608904335343  Z M 2.0996259789943 3.4236187479486  L 1.47908879488339 4.18634878441829  L 1.47908879488339 7.98266510120348  L 2.0996259789943 7.98266510120348  L 2.0996259789943 3.4236187479486  Z M 2.8731725700869 1.60346677311265  L 0.238014278882832 1.60346677311265  L 0.238014278882832 2.19284954367253  L 2.8731725700869 2.19284954367253  L 2.8731725700869 1.60346677311265  Z M 2.0996259789943 0.00866727719271901  L 1.47908879488339 0.00866727719271901  L 1.47908879488339 1.92416033438184  L 2.0996259789943 1.92416033438184  L 2.0996259789943 0.00866727719271901  Z M 3.45120724435789 5.16576367820019  C 3.23869444182327 4.92307681710428  2.33764049010083 3.96099690822168  2.08262517772628 3.73564485981952  C 2.08262517772628 3.73564485981952  1.73410402281295 4.03900352229218  1.73410402281295 4.03900352229218  C 2.04862302629787 4.35102937585479  2.79666803548602 5.26110488970752  3.06018374849458 5.65113740039201  C 3.06018374849458 5.65113740039201  3.45120724435789 5.16576367820019  3.45120724435789 5.16576367820019  Z M 2.81366909008899 1.60346677311265  L 2.69466179231323 1.60346677311265  C 2.69466179231323 1.60346677311265  2.69466179231323 1.74214493025159  2.69466179231323 1.74214493025159  C 2.2016322221671 3.07692318289572  1.05406327425914 4.48970710247986  0 5.25243748336064  C 0.102006137616567 5.36511350756172  0.280516862612124 5.65980571081799  0.348520922689634 5.82448604394617  C 1.45358736075766 4.95774721741673  2.68616139167922 3.41495129855034  3.29819834404609 1.8114841810266  C 3.29819834404609 1.8114841810266  2.93267621897478 1.56879731993069  2.93267621897478 1.56879731993069  L 2.81366909008899 1.60346677311265  Z M 3.57021454213364 3.57096401007471  C 3.57021454213364 3.57096401007471  3.14518910595437 3.22426878943292  3.14518910595437 3.22426878943292  C 2.97517881325969 3.53629490130384  2.63515831231532 4.01300126020016  2.39714405454373 4.29035748837526  C 2.39714405454373 4.29035748837526  2.71166293136117 4.55904704207705  2.71166293136117 4.55904704207705  C 2.96667824373572 4.3076926454801  3.27269671991916 3.91765974733314  3.57021454213364 3.57096401007471  Z M 15.7344440726163 7.00325089624375  L 12.7677662511055 7.00325089624375  L 12.7677662511055 7.59263332239254  L 15.7344440726163 7.59263332239254  L 15.7344440726163 7.00325089624375  Z M 16.0659642573717 4.46370509869616  L 12.4362460663501 4.46370509869616  L 12.4362460663501 7.98266510120348  L 13.048283018717 7.98266510120348  L 13.048283018717 5.06175497424322  L 15.4369261659568 5.06175497424322  L 15.4369261659568 7.94799530361043  L 16.0659642573717 7.94799530361043  L 16.0659642573717 4.46370509869616  Z M 15.9554575291199 2.7648970710248  C 14.4423664561406 2.86890594718732  12.8612715869744 2.95557975234776  11.8582113920792 3.00758393212071  C 11.8582113920792 3.00758393212071  11.9347158422351 3.64897071024799  11.9347158422351 3.64897071024799  C 12.9887792009392 3.57963171778129  14.5103711812223 3.45828820113056  15.9469576351557 3.34561204777533  C 15.9469576351557 3.34561204777533  15.9554575291199 2.7648970710248  15.9554575291199 2.7648970710248  Z M 15.1819104313574 1.34344501322022  C 15.1819104313574 1.34344501322022  14.6718803132782 1.61213422251092  14.6718803132782 1.61213422251092  C 15.2329138485012 2.34886259960799  15.802448797698 3.33694477058261  16.0064609462637 3.98699882590261  C 16.0064609462637 3.98699882590261  16.5674944814867 3.67497305844277  16.5674944814867 3.67497305844277  C 16.337981131019 3.03358628031549  15.7514448738843 2.06283831931523  15.1819104313574 1.34344501322022  Z M 14.2128522612231 0.147345778742741  C 14.2128522612231 0.147345778742741  13.5158109647362 0  13.5158109647362 0  C 13.2777962002947 0.970747444383637  12.8187691615794 2.35752970459517  12.4362460663501 3.19826644123813  C 12.4362460663501 3.19826644123813  12.9802784625252 3.35427984158468  12.9802784625252 3.35427984158468  C 13.3798023590226 2.53087765932715  13.8643312751997 1.20476702828683  14.2128522612231 0.147345778742741  Z M 11.4501867571679 1.79414962664116  L 8.64501840549285 1.79414962664116  L 8.64501840549285 2.40953405657365  L 11.4501867571679 2.40953405657365  L 11.4501867571679 1.79414962664116  Z M 10.5491331432254 0.069339250775011  C 10.5491331432254 0.069339250775011  9.93709619085852 0  9.93709619085852 0  C 9.63957836864404 1.64680384789842  9.11254639373454 3.97833172091543  8.73002342517272 5.29577473035195  C 8.73002342517272 5.29577473035195  9.25705535785972 5.59046594342635  9.25705535785972 5.59046594342635  C 9.65657933880202 4.14301188183807  10.200612157202 1.80281690383388  10.5491331432254 0.069339250775011  Z M 9.42706539721946 4.5763812520514  C 9.42706539721946 4.5763812520514  9.07004417945204 5.0357533148706  9.07004417945204 5.0357533148706  C 10.0221013794283 5.59913356503015  11.1271678174964 6.47453962570092  11.6286980416115 7.12459381017507  C 11.6286980416115 7.12459381017507  12.0197215374748 6.59588284099194  12.0197215374748 6.59588284099194  C 11.5096909127257 5.9544959767619  10.3791225971958 5.12242668951719  9.42706539721946 4.5763812520514  Z M 11.3141789959041 1.79414962664116  L 11.2036722676523 1.79414962664116  C 11.2036722676523 1.79414962664116  11.2036722676523 1.9328277837801  11.2036722676523 1.9328277837801  C 10.9996601190866 4.87107280953688  10.1071064835532 6.7172268742593  8.69602182263668 7.47995716903731  C 8.83203000612544 7.60996800593214  9.00204027770887 7.84398700864162  9.09554588802396 8  C 10.6596397025872 7.04658719610457  11.5776941177977 5.2091009251915  11.8072079749353 1.85482108360682  C 11.8072079749353 1.85482108360682  11.4246857241558 1.77681438343355  11.4246857241558 1.77681438343355  L 11.3141789959041 1.79414962664116  Z M 21.5572929873862 0.216684512901123  L 20.9112551080431 0.216684512901123  C 20.9112551080431 0.216684512901123  20.9112551080431 6.63921939916108  20.9112551080431 6.63921939916108  C 20.9112551080431 7.59263220305651  21.1832706305708 7.85265404905172  22.0758243505492 7.85265404905172  C 22.2713360984808 7.85265404905172  23.6059174070262 7.85265404905172  23.8269308635298 7.85265404905172  C 24.7109836762043 7.85265404905172  24.8979936723822 7.35861399679767  25 5.9371621973014  C 24.8129886527024 5.89382516556702  24.5494740374785 5.77248083093996  24.3879643987528 5.65113740039201  C 24.3284610876449 6.91657623005558  24.2604567003431 7.23726996353031  23.7929285854339 7.23726996353031  C 23.5039109105185 7.23726996353031  22.3478403797468 7.23726996353031  22.1183265226092 7.23726996353031  C 21.642298007066 7.23726996353031  21.5572929873862 7.13326134567611  21.5572929873862 6.64788753738152  C 21.5572929873862 6.64788753738152  21.5572929873862 0.216684512901123  21.5572929873862 0.216684512901123  Z M 24.5664743320767 2.21018409805797  C 24.5664743320767 2.21018409805797  24.0989463860575 1.65547112509114  24.0989463860575 1.65547112509114  C 23.3764027054388 2.33152752860592  22.1608293702291 3.1375948981697  21.072763902319 3.718309961023  C 21.1662698293028 3.8569882042647  21.2937770210427 4.08234016656409  21.3362795308826 4.22968568699852  C 22.4583471079986 3.63163581145146  23.7079227213042 2.92957740415298  24.5664743320767 2.21018409805797  Z M 20.0527036661606 0.346695737258426  C 20.0527036661606 0.346695737258426  19.4321654687099 0.138677984933393  19.4321654687099 0.138677984933393  C 18.8711318068194 1.50812586296503  17.9360759570035 2.82556913070986  16.9500167322662 3.66630560904451  C 17.0775243673423 3.82231866497997  17.273036168052 4.16034678063459  17.3410402281295 4.31635983657005  C 18.3951035868337 3.35427966937913  19.4151652585567 1.87215615460889  20.0527036661606 0.346695737258426  Z M 19.0836454960263 1.76814727844638  L 18.4631072985756 2.40086660717539  L 18.4631072985756 7.96533020240695  L 19.0921453899904 7.96533020240695  L 19.0921453899904 1.77681438343355  L 19.0836454960263 1.76814727844638  Z " fill-rule="nonzero" fill="#dfbf9a" stroke="none" transform="matrix(1 0 0 1 21 5 )" />
  </g>
</svg>