<?xml version="1.0" encoding="utf-8"?>
<svg version="1.1" xmlns:xlink="http://www.w3.org/1999/xlink" width="27px" height="8px" xmlns="http://www.w3.org/2000/svg">
  <g transform="matrix(1 0 0 1 -19 -5 )">
    <path d="M 8.30485330385468 1.34636239520326  L 0.221462741324801 1.34636239520326  L 0.221462741324801 1.98045571687712  L 8.30485330385468 1.98045571687712  L 8.30485330385468 1.34636239520326  Z M 7.94497601690496 4.09989143023707  L 3.08202357024901 4.09989143023707  L 3.08202357024901 4.70792628301209  L 7.94497601690496 4.70792628301209  L 7.94497601690496 4.09989143023707  Z M 8.30485330385468 7.17481043436362  L 2.72214628329929 7.17481043436362  L 2.72214628329929 7.79153086817325  L 8.30485330385468 7.79153086817325  L 8.30485330385468 7.17481043436362  Z M 5.85953556179653 2.42345279458846  L 5.16746475870236 2.42345279458846  L 5.16746475870236 7.50488598449097  L 5.85953556179653 7.50488598449097  L 5.85953556179653 2.42345279458846  Z M 3.96787453554822 0.165037947643177  C 3.96787453554822 0.165037947643177  3.25734837414715 0  3.25734837414715 0  C 2.7406017332743 1.7893596454941  1.66097069743818 3.71769833828378  0 4.82084712027807  C 0.110731359203886 4.96851287037502  0.286056082892421 5.24647139641494  0.359877011945374 5.42019570170048  C 2.19617251328169 4.1780673546721  3.32194157821259 2.15418045361141  3.96787453554822 0.165037947643177  Z M 2.12235135505845 3.5787186006702  L 1.43028018529182 3.5787186006702  L 1.43028018529182 7.96525491458954  L 2.12235135505845 7.96525491458954  L 2.12235135505845 3.5787186006702  Z M 10.2795627091391 2.49294227509138  L 10.2795627091391 0.946797191993485  L 11.9405332232411 0.946797191993485  L 11.9405332232411 2.49294227509138  L 10.2795627091391 2.49294227509138  Z M 12.568011005606 0.382193005663541  L 9.6613126059276 0.382193005663541  L 9.6613126059276 3.05754611626232  L 12.568011005606 3.05754611626232  L 12.568011005606 0.382193005663541  Z M 11.5068352364087 2.77090123258004  L 10.8885851331972 2.77090123258004  L 10.8885851331972 6.74049962800489  L 11.5068352364087 6.74049962800489  L 11.5068352364087 2.77090123258004  Z M 10.2518796716788 3.86536382951147  L 9.67053955173613 3.86536382951147  L 9.67053955173613 7.00977196898194  L 10.2518796716788 7.00977196898194  L 10.2518796716788 3.86536382951147  Z M 12.8632952718265 6.02823089963449  C 11.5160635572389 6.37567938077095  10.1042378135729 6.73181335665228  9.19993158163487 6.93159621712641  C 9.19993158163487 6.93159621712641  9.37525601886054 7.54831665093605  9.37525601886054 7.54831665093605  C 10.3441556382002 7.28773032244236  11.6821604986474 6.93159654071297  12.9463436508626 6.58414812429383  C 12.9463436508626 6.58414812429383  12.8632952718265 6.02823089963449  12.8632952718265 6.02823089963449  Z M 12.8171576094042 4.24755735291351  L 11.1746409869193 4.24755735291351  L 11.1746409869193 4.82953339163069  L 12.8171576094042 4.82953339163069  L 12.8171576094042 4.24755735291351  Z M 13.989064795098 0.390879622175154  L 13.3154493503107 0.390879622175154  L 13.3154493503107 7.40933768993021  L 13.989064795098 7.26167176725377  L 13.989064795098 0.390879622175154  Z M 17.2187290317674 0.390879622175154  L 13.6753251705706 0.390879622175154  L 13.6753251705706 0.97285548831283  L 16.5451135869801 0.97285548831283  L 16.5451135869801 3.68295351174257  L 13.6753251705706 3.68295351174257  L 13.6753251705706 4.26492955045974  L 17.2187290317674 4.26492955045974  L 17.2187290317674 0.390879622175154  Z M 16.8127140823954 2.01520080228758  L 13.684553583069 2.01520080228758  L 13.684553583069 2.58849056965214  L 16.8127140823954 2.58849056965214  L 16.8127140823954 2.01520080228758  Z M 15.6315799508931 6.58414812429383  C 14.4965831151406 6.83604822457977  13.3339030585915 7.09663500609464  12.568011005606 7.24430060518453  C 12.568011005606 7.24430060518453  12.7248808178697 7.86102103899417  12.7248808178697 7.86102103899417  C 13.5461386707716 7.6699243635829  14.6442252482508 7.40933801351677  15.6869460258137 7.15743789165839  C 15.6869460258137 7.15743789165839  15.6315799508931 6.58414812429383  15.6315799508931 6.58414812429383  Z M 17.8369798683238 7.43539719430605  C 16.4805203829147 6.88816589584033  15.7146281465929 5.55917518044481  15.3732064012863 3.93485365517339  C 15.3732064012863 3.93485365517339  14.7549570314198 4.03040194973415  14.7549570314198 4.03040194973415  C 15.1517443016383 5.88925124831066  15.9268633004324 7.31378995625282  17.3755988440311 7.99131441896538  C 17.4771023980379 7.81759017839715  17.6801102393964 7.56569035855289  17.8369798683238 7.43539719430605  Z M 17.6524277519447 4.95114050024929  C 17.6524277519447 4.95114050024929  17.1633644235366 4.50814342253795  17.1633644235366 4.50814342253795  C 16.7573491074921 4.88165032942838  16.0468218460736 5.38545057314515  15.5577585176655 5.68946804267753  C 15.5577585176655 5.68946804267753  15.9453195754205 6.08034714711419  15.9453195754205 6.08034714711419  C 16.4620659412889 5.79370213399728  17.126453890259 5.36807854817841  17.6524277519447 4.95114050024929  Z M 19.4794950241189 2.50162854644399  L 19.4794950241189 0.929424476708757  L 21.0481887466864 0.929424476708757  L 21.0481887466864 2.50162854644399  L 19.4794950241189 2.50162854644399  Z M 21.6848949415497 0.364820808117311  L 18.8796995458694 0.364820808117311  L 18.8796995458694 3.06623238761494  L 21.6848949415497 3.06623238761494  L 21.6848949415497 0.364820808117311  Z M 20.7067682847334 2.79696004663788  L 20.088517448177 2.79696004663788  L 20.088517448177 6.82736234153103  L 20.7067682847334 6.82736234153103  L 20.7067682847334 2.79696004663788  Z M 24.7761461909522 0.0347449128309579  L 24.1025307461649 0.0347449128309579  L 24.1025307461649 1.40716612209206  L 24.7761461909522 1.40716612209206  L 24.7761461909522 0.0347449128309579  Z M 19.4702680783104 3.87405010086409  L 18.8889279583677 3.87405010086409  L 18.8889279583677 7.1053202635427  L 19.4702680783104 7.1053202635427  L 19.4702680783104 3.87405010086409  Z M 21.9248131328495 6.07166156607957  C 20.6329469431739 6.40173752608323  19.2672602369519 6.74049958486001  18.3814092716527 6.93159621712641  C 18.3814092716527 6.93159621712641  18.5475060297249 7.53963106990143  18.5475060297249 7.53963106990143  C 19.5071780615792 7.28773094804304  20.7805888929479 6.96634177713049  22.0078615118856 6.63626575240951  C 22.0078615118856 6.63626575240951  21.9248131328495 6.07166156607957  21.9248131328495 6.07166156607957  Z M 21.8602201121203 4.27361582181236  L 20.3561179435922 4.27361582181236  L 20.3561179435922 4.85559220568853  L 21.8602201121203 4.85559220568853  L 21.8602201121203 4.27361582181236  Z M 26.1971985137543 2.54505955804806  L 22.6907053691713 2.54505955804806  L 22.6907053691713 3.12703594192424  L 26.1971985137543 3.12703594192424  L 26.1971985137543 2.54505955804806  Z M 26.8431287210465 3.96959839542485  L 22.0724545326148 3.96959839542485  L 22.0724545326148 4.55157477930102  L 26.8431287210465 4.55157477930102  L 26.8431287210465 3.96959839542485  Z M 26.8708139585416 0.920738377935642  L 22.017089924384 0.920738377935642  L 22.017089924384 2.41476652323585  L 22.6537946525575 2.41476652323585  L 22.6537946525575 1.4940281453002  L 26.206423992873 1.4940281453002  L 26.206423992873 2.41476652323585  L 26.8708139585416 2.41476652323585  L 26.8708139585416 0.920738377935642  Z M 24.7576893659554 4.35179157366789  L 24.1025307461649 4.35179157366789  C 24.1025307461649 4.35179157366789  24.1025307461649 7.29641685266422  24.1025307461649 7.29641685266422  C 24.1025307461649 7.40065137543272  24.0656200295511 7.42671098227764  23.9456609339012 7.43539719430605  C 23.8164743424341 7.43539719430605  23.4012317139086 7.43539644466385  22.949078918778 7.42671023263544  C 23.0321274811503 7.60043444084501  23.1151760435227 7.83496201999817  23.1336310351571 8  C 23.7887920383186 8  24.1855780251836 7.99131444053782  24.4439512081179 7.89576612440462  C 24.6930968952349 7.80890400412051  24.7576893659554 7.63517981748337  24.7576893659554 7.30510381433483  C 24.7576893659554 7.30510381433483  24.7576893659554 4.35179157366789  24.7576893659554 4.35179157366789  Z M 23.3735492264569 5.21172656987373  C 23.3735492264569 5.21172656987373  22.7460699774021 5.0727469185499  22.7460699774021 5.0727469185499  C 22.5061520611066 5.7937024360114  22.1185933867227 6.53203045303327  21.6387572791274 7.02714451168717  C 21.8048544038721 7.11400661579196  22.0724551742916 7.28773123927095  22.2016420407631 7.38327956619036  C 22.6630226067153 6.84473449593239  23.1059485477054 6.028230381896  23.3735492264569 5.21172656987373  Z M 26.0310988223024 5.05537437584467  C 26.0310988223024 5.05537437584467  25.4497616357394 5.24647165528419  25.4497616357394 5.24647165528419  C 25.8557764017752 5.88925137774529  26.2617897011212 6.74918555419851  26.3725207509452 7.29641685266422  C 26.3725207509452 7.29641685266422  27 7.07926213980286  27 7.07926213980286  C 26.8615859127157 6.52334465627427  26.4463416341641 5.68946787009803  26.0310988223024 5.05537437584467  Z " fill-rule="nonzero" fill="#2a9df0" stroke="none" transform="matrix(1 0 0 1 19 5 )" />
  </g>
</svg>