<?xml version="1.0" encoding="utf-8"?>
<svg version="1.1" xmlns:xlink="http://www.w3.org/1999/xlink" width="24px" height="12px" xmlns="http://www.w3.org/2000/svg">
  <g transform="matrix(1 0 0 1 -1212 -958 )">
    <path d="M 1.47255127180016 0.105726288565646  C 1.47255127180016 0.105726288565646  0.813778407355673 0.72687211344186  0.813778407355673 0.72687211344186  C 1.51130273451996 1.40088084628294  2.37674928405133 2.3524221697328  2.7771798977772 2.94713598921802  C 2.7771798977772 2.94713598921802  3.46178727601357 2.23347972092635  3.46178727601357 2.23347972092635  C 3.06135646980769 1.66519806437742  2.17007559896445 0.753303646196946  1.47255127180016 0.105726288565646  Z M 2.88051672107264 3.97797317129554  L 0 3.97797317129554  L 0 4.94273081253149  L 2.88051672107264 4.94273081253149  L 2.88051672107264 3.97797317129554  Z M 11.7545753526414 0.95154116590455  L 4.4693222270482 0.95154116590455  L 4.4693222270482 1.94273112762209  L 11.7545753526414 1.94273112762209  L 11.7545753526414 0.95154116590455  Z M 9.45532918650964 1.29515376999079  L 8.43487651662704 1.29515376999079  C 8.43487651662704 1.29515376999079  8.43487651662704 10.5198228224535  8.43487651662704 10.5198228224535  C 8.43487651662704 10.7709241363183  8.34445710421156 10.8502195727738  8.08611504597295 10.8634354265397  C 7.81485526888637 10.8766512864598  6.88482216540326 10.8898668411358  5.91603867708844 10.8502192662989  C 6.08396132291156 11.1277522901573  6.26480122563062 11.6167395453726  6.31646979126235 11.9207042989176  C 7.54359533781577 11.9207042989176  8.34445695022754 11.8942731403326  8.82239021992099 11.7224669367553  C 9.28740654068653 11.5506607922575  9.45532918650964 11.207047794308  9.45532918650964 10.5330389826943  C 9.45532918650964 10.5330389826943  9.45532918650964 1.29515376999079  9.45532918650964 1.29515376999079  Z M 1.8213133583903 10.7048452847374  C 1.8213133583903 10.7048452847374  2.00215310712534 11.6696035561546  2.00215310712534 11.6696035561546  C 2.19590984328431 11.3920705322962  2.5834227381622 11.1145366419387  5.29601712137975 9.1982370470717  C 5.19268037507631 8.99999917288717  5.07642637187693 8.59030765814056  5.01184085731728 8.31277447673691  C 5.01184085731728 8.31277447673691  2.11840703333271 10.2555059194496  2.11840703333271 10.2555059194496  L 1.8213133583903 10.7048452847374  Z M 1.49838547762402 10.8237882061797  C 1.67922507237505 11.0220260803643  1.92465045115776 11.4185022422898  2.00215310712534 11.6696035561546  C 2.00215310712534 11.2863436529357  3.12594229233536 10.5330389826943  3.12594229233536 10.5330389826943  C 3.12594229233536 10.5330389826943  3.12594229233536 3.97797317129554  3.12594229233536 3.97797317129554  L 2.18299254789236 3.97797317129554  C 2.18299254789236 3.97797317129554  2.18299254789236 9.67400873284108  2.18299254789236 9.67400873284108  C 2.18299254789236 10.2555065102445  1.7438105869347 10.6651978969855  1.49838547762402 10.8237882061797  Z M 16.7276652091909 6.62114503714971  L 16.7276652091909 5.06167310379263  L 20.6157171892662 5.06167310379263  L 20.6157171892662 6.62114503714971  L 16.7276652091909 6.62114503714971  Z M 21.5328311880452 4.24229007429941  L 15.8622183901875 4.24229007429941  L 15.8622183901875 7.44052806664292  L 21.5328311880452 7.44052806664292  L 21.5328311880452 4.24229007429941  Z M 18.2131329679669 7.17621116363905  C 18.2131329679669 7.17621116363905  17.3347687380836 7.17621116363905  17.3347687380836 7.17621116363905  C 17.1797634261484 8.69603477381904  16.7276639773188 9.76651901871124  15.0484387509597 10.3612326806512  C 15.2551126285266 10.5198229799988  15.5005379688133 10.8898675500897  15.6038751000768 11.1013212694244  C 17.4639396132188 10.3348014629867  18.019376424288 9.02643121766448  18.2131329679669 7.17621116363905  Z M 21.171151074639 2.3392064821279  C 21.171151074639 2.3392064821279  20.2152848432202 2.08810542427422  20.2152848432202 2.08810542427422  C 19.9311088871257 2.76211415711531  19.3885897949046 3.76651925502919  18.949408141915 4.37444915598256  C 18.949408141915 4.37444915598256  19.7631865492706 4.62554989874563  19.7631865492706 4.62554989874563  C 20.2023682022603 4.03083647312366  20.7190524727215 3.14537366647093  21.171151074639 2.3392064821279  Z M 17.1151776806127 2.12775327481541  C 17.1151776806127 2.12775327481541  16.3530676849048 2.48458077878003  16.3530676849048 2.48458077878003  C 16.7922497228544 3.03964753545058  17.2185145039082 3.79295118164753  17.3864371497313 4.2819379248406  C 17.3864371497313 4.2819379248406  18.187298146207 3.88546194015358  18.187298146207 3.88546194015358  C 18.006458551456 3.38325950935562  17.5543593336024 2.66960355615455  17.1151776806127 2.12775327481541  Z M 24 0.581497501699126  L 23.069968590341 0.581497501699126  C 23.069968590341 0.581497501699126  23.069968590341 10.7577086653382  23.069968590341 10.7577086653382  C 23.069968590341 10.9427306746794  23.0182997167413 10.9955945082229  22.8374601219902 10.9955945082229  C 22.6695382460872 11.0088103619888  22.127018691914 11.0088103619888  21.5586660098051 10.9955945082229  C 21.6878370389244 11.2334799769375  21.8040905031797 11.6563868838915  21.8557590688115 11.9074881386768  C 22.6695376301511 11.9074881386768  23.2249733633322 11.8942721556745  23.5608178850583 11.7356818366337  C 23.8966631767046 11.5638756330564  24 11.2995591436089  24 10.770924825579  C 24 10.770924825579  24 0.581497501699126  24 0.581497501699126  Z M 14.3896668104193 2.81497753771608  L 13.4467167580083 2.81497753771608  L 13.4467167580083 12  L 14.3896668104193 12  L 14.3896668104193 2.81497753771608  Z M 14.3638319886594 0  C 14.3638319886594 0  13.6275568147113 0.475771055588179  13.6275568147113 0.475771055588179  C 14.1959098817803 1.03083702453222  14.8417654508329 1.79735635833406  15.1259419843673 2.32599095206831  C 15.1259419843673 2.32599095206831  15.9138855699631 1.77092482557897  15.9138855699631 1.77092482557897  C 15.6038749460928 1.26872239478101  14.9321852482084 0.515418118402856  14.3638319886594 0  Z M 23.6254049394581 0.581497501699126  L 16.8180846216064 0.581497501699126  L 16.8180846216064 1.46696007203391  L 23.6254049394581 1.46696007203391  L 23.6254049394581 0.581497501699126  Z M 19.9956950176214 7.14977884315746  L 19.1431643776259 7.14977884315746  C 19.1431643776259 7.14977884315746  19.1431643776259 9.64757641235949  19.1431643776259 9.64757641235949  C 19.1431643776259 10.5066072136212  19.3498381782008 10.7444925050974  20.2282022541001 10.7444925050974  C 20.3961241300032 10.7444925050974  21.2357368971667 10.7444925050974  21.4036595429898 10.7444925050974  C 22.0753501262823 10.7444925050974  22.307857824713 10.4273119064021  22.3982780070486 9.14537366647093  C 22.1657698466658 9.07929444071996  21.8170080680437 8.96035175559556  21.6490854222206 8.81497722262548  C 21.6103345754368 9.81938247808466  21.558664777933 9.95154179608575  21.3003227196944 9.95154179608575  C 21.1194831249433 9.95154179608575  20.4607105684669 9.95154179608575  20.3444564882755 9.95154179608575  C 20.0473635832532 9.95154179608575  19.9956950176214 9.91189323659072  19.9956950176214 9.6343602521187  C 19.9956950176214 9.6343602521187  19.9956950176214 7.14977884315746  19.9956950176214 7.14977884315746  Z " fill-rule="nonzero" fill="#ffffff" stroke="none" transform="matrix(1 0 0 1 1212 958 )" />
  </g>
</svg>