<?xml version="1.0" encoding="utf-8"?>
<svg version="1.1" xmlns:xlink="http://www.w3.org/1999/xlink" width="19px" height="16px" xmlns="http://www.w3.org/2000/svg">
  <g transform="matrix(1 0 0 1 -645 -722 )">
    <path d="M 13.9604427042303 9.64397735228779  C 13.9604427042303 9.64397735228779  18.4739070754941 9.65107559926622  18.4739070754941 9.65107559926622  C 19.0374488176949 9.65196103752284  19.168357813738 9.3263231838581  18.7686425856216 8.92374457833368  C 18.7686425856216 8.92374457833368  10.2085403734064 0.302320657754835  10.2085403734064 0.302320657754835  C 9.80642873124245 -0.102671313661527  9.15996872122213 -0.0994610088087471  8.75927873022563 0.304099641777085  C 8.75927873022563 0.304099641777085  0.233909611194865 8.89054015234624  0.233909611194865 8.89054015234624  C -0.170970948480333 9.29832132183353  -0.0356138040091867 9.62196816783133  0.526879003930583 9.62285360608795  C 0.526879003930583 9.62285360608795  4.75221782338854 9.62949783256188  4.75221782338854 9.62949783256188  C 4.75221782338854 9.62949783256188  4.75221782338854 14.9671879283122  4.75221782338854 14.9671879283122  C 4.75221782338854 16.1041840090072  5.66717036551631 15.9972562838262  6.79582137400893 15.9972562838262  C 6.79582137400893 15.9972562838262  11.9168391536099 15.9972562838262  11.9168391536099 15.9972562838262  C 13.0438582392627 15.9972562838262  13.9604427042303 16.1051893401243  13.9604427042303 14.9671879283122  C 13.9604427042303 14.9671879283122  13.9604427042303 9.64397735228779  13.9604427042303 9.64397735228779  Z " fill-rule="nonzero" fill="#000000" stroke="none" transform="matrix(1 0 0 1 645 722 )" />
  </g>
</svg>