<?xml version="1.0" encoding="utf-8"?>
<svg version="1.1" xmlns:xlink="http://www.w3.org/1999/xlink" width="15px" height="4px" xmlns="http://www.w3.org/2000/svg">
  <g transform="matrix(1 0 0 1 -693 -775 )">
    <path d="M 0 0.80912235369705  C 0.0929705012070073 0.919633950638746  0.264686413772833 1.10045116493401  0.51361027108194 1.32794739788066  C 0.921773180071402 1.70097529586733  1.40368438538578 2.07267070738333  1.95790759363533 2.41905622152673  C 3.51794796237284 3.39406952925178  5.34018799005768 3.98482282729046  7.40540282222396 3.99973139697568  C 9.49432008649269 4.01481136330359  11.3676255207257 3.39414837170741  12.994816941117 2.35198896009739  C 13.5571175405939 1.99185510911355  14.0498743755683 1.60566076588835  14.4703920237175 1.21831439237197  C 14.7262899067318 0.98260232257142  14.9037851016861 0.795708730014539  15 0.682217953357587  C 15 0.682217953357587  14.2677214908404 0  14.2677214908404 0  C 14.2529139524029 0.0174658879362228  14.2179809053854 0.0564818889452593  14.1633810854414 0.113973319419191  C 14.0688096005991 0.213551264368548  13.955439296847 0.325527950629932  13.823739187012 0.446838790928906  C 13.4439238173683 0.796693893431444  12.9960632819761 1.1477010568317  12.4840591696119 1.47562188823274  C 11.0038322645696 2.42365577285929  9.30522850267561 2.98643664910749  7.41214885233869 2.97277070508171  C 5.53149617334116 2.95919437701483  3.87701465300712 2.4228267028134  2.45959132165572 1.53694797426308  C 1.95783775556995 1.22335577976413  1.52295460422979 0.887932672460526  1.15739612673885 0.55384180677526  C 0.942087122963204 0.357066799882667  0.800423994135658 0.207895266979653  0.734759745843631 0.129841893942696  C 0.734759745843631 0.129841893942696  0 0.80912235369705  0 0.80912235369705  Z " fill-rule="nonzero" fill="#000000" stroke="none" transform="matrix(1 0 0 1 693 775 )" />
  </g>
</svg>