<?xml version="1.0" encoding="utf-8"?>
<svg version="1.1" xmlns:xlink="http://www.w3.org/1999/xlink" width="15px" height="4px" xmlns="http://www.w3.org/2000/svg">
  <g transform="matrix(1 0 0 1 -693 -785 )">
    <path d="M 0.734759745843631 3.87015822053546  C 0.800423994135658 3.79210516408934  0.942087122963204 3.64293327007981  1.15739612673885 3.44615864902709  C 1.52295460422979 3.11206739561255  1.95783775556995 2.77664414535048  2.45959132165572 2.46305242136031  C 3.87701465300712 1.57717339373025  5.53149617334116 1.04080580912228  7.41214885233869 1.02722935779816  C 9.30522850267561 1.01356329050968  11.0038322645696 1.57634420120743  12.4840591696119 2.52437814386607  C 12.9960632819761 2.85229911776633  13.4439238173683 3.20330624143973  13.823739187012 3.5531615796038  C 13.955439296847 3.67447221308277  14.0688096005991 3.78644907453459  14.1633810854414 3.88602710209578  C 14.2179809053854 3.94351843661767  14.2529139524029 3.98253419133682  14.2677214908404 4  C 14.2677214908404 4  15 3.31778206609483  15 3.31778206609483  C 14.9037851016861 3.20429152734312  14.7262899067318 3.01739767849355  14.4703920237175 2.78168565547742  C 14.0498743755683 2.39433950310274  13.5571175405939 2.0081450138112  12.994816941117 1.64801114078246  C 11.3676255207257 0.605851604165551  9.49432008649269 -0.0148113460376001  7.40540282222396 0.000268507245860465  C 5.34018799005768 0.0151772530243093  3.51794796237284 0.605930385412921  1.95790759363533 1.5809439976739  C 1.40368438538578 1.92732928816827  0.921773180071402 2.29902484486307  0.51361027108194 2.67205252083158  C 0.264686413772833 2.8995492574087  0.0929705012070073 3.08036636034616  0 3.1908780252657  C 0 3.1908780252657  0.734759745843631 3.87015822053546  0.734759745843631 3.87015822053546  Z " fill-rule="nonzero" fill="#000000" stroke="none" transform="matrix(1 0 0 1 693 785 )" />
  </g>
</svg>