<?xml version="1.0" encoding="utf-8"?>
<svg version="1.1" xmlns:xlink="http://www.w3.org/1999/xlink" width="20px" height="20px" xmlns="http://www.w3.org/2000/svg">
  <g>
    <path d="M 19.58 19.58  C 20.02 19.1  20.02 18.38  19.56 17.92  L 14.28 12.64  C 14.18 12.54  14.06 12.46  13.94 12.4  C 14.9 11.12  15.48 9.52  15.48 7.78  C 15.48 3.54  12.04 0.1  7.8 0.1  C 3.56 0.1  0.1 3.54  0.1 7.8  C 0.1 12.04  3.54 15.5  7.8 15.5  C 9.54 15.5  11.14 14.92  12.42 13.96  C 12.48 14.08  12.56 14.2  12.66 14.3  L 17.94 19.58  C 18.4 20.04  19.12 20.04  19.58 19.58  Z M 13.94 7.8  C 13.94 11.18  11.18 13.94  7.8 13.94  C 4.4 13.94  1.64 11.18  1.64 7.8  C 1.64 4.4  4.4 1.64  7.8 1.64  C 11.2 1.64  13.94 4.4  13.94 7.8  Z " fill-rule="nonzero" fill="#f7f7f7" stroke="none" />
  </g>
</svg>