<?xml version="1.0" encoding="utf-8"?>
<svg version="1.1" xmlns:xlink="http://www.w3.org/1999/xlink" width="29px" height="14px" xmlns="http://www.w3.org/2000/svg">
  <g transform="matrix(1 0 0 1 -784 -233 )">
    <path d="M 28.0336770369767 12.9448770371826  C 27.7174696294185 13.3112414815397  27.2115377778682 13.5554844446191  26.7056059257751 13.5554844443571  L 2.23115259244181 13.5554844443571  C 1.72522074062012 13.5554844443571  1.21928888879842 13.3112414815397  0.903081481511638 12.9448770371826  C 0.586874073953451 12.5174518520557  0.460391111201579 12.0289659261589  0.586874074224854 11.54048  C 1.85170370391479 5.31228444435709  7.10074666666667 0.671668148206377  13.424894814845 0.183182222309566  C 15.5434844445349 0.183182222309566  17.8359881481783 0.442690370515946  20.1284918518217 1.34333629615071  C 20.7925274072868 1.60284444435709  21.0138725927132 1.77076148127766  21.3933214815116 1.95394370384928  C 25.0613274072868 3.96894814820638  27.5909866666667 7.44941037051595  28.4131259257751 11.54048  C 28.5396088887984 12.0289659258968  28.4131259257751 12.5174518517936  28.0336770369767 12.9448770371826  Z " fill-rule="nonzero" fill="#d6d6d7" stroke="none" transform="matrix(1 0 0 1 784 233 )" />
  </g>
</svg>