<?xml version="1.0" encoding="utf-8"?>
<svg version="1.1" xmlns:xlink="http://www.w3.org/1999/xlink" width="27px" height="13px" xmlns="http://www.w3.org/2000/svg">
  <g transform="matrix(1 0 0 1 -785 -234 )">
    <path d="M 25.9450909090297 12.6990471111436  L 1.07096727272727 12.6990471111436  C 0.86221090906028 12.6990471111436  0.66951272742587 12.6139982222871  0.557105454576083 12.4609102222871  C 0.541047272819158 12.4439004445742  0.541047272819158 12.4268906665693  0.524989091062233 12.4098808888564  C 0.364407272941672 12.2397831111436  0.348349090909091 11.9506168888564  0.380465454698597 11.7805191111436  C 1.56877090939719 5.31680355542578  6.56286545454546 0.46901688885644  12.536509091001 0.00975288885644296  L 13.0182545453627 0.00975288885644296  C 15.8926690908785 0.00975288885644296  18.6546763635445 0.962300444574216  20.0035636363636 1.86381866656933  C 23.5363636363943 4.10910933343066  25.8969163634832 7.63013333343066  26.635592727334 11.7805191111436  C 26.6677090911235 12.018656  26.6195345455771 12.2397831111436  26.4589527271808 12.4609102222871  C 26.3465454546067 12.6139982222871  26.1538472726966 12.6990471111436  25.9450909090297 12.6990471111436  Z " fill-rule="nonzero" fill="#d6d6d7" stroke="none" transform="matrix(1 0 0 1 785 234 )" />
  </g>
</svg>