<?xml version="1.0" encoding="utf-8"?>
<svg version="1.1" xmlns:xlink="http://www.w3.org/1999/xlink" width="28px" height="28px" xmlns="http://www.w3.org/2000/svg">
  <g transform="matrix(1 0 0 1 -785 -219 )">
    <path d="M 13.0601955555859 15.6088177779297  C 13.2035555555859 15.6247466667578  13.3628444444141 15.6088177779297  13.5221333332422 15.6088177779297  C 16.29376 15.6088177779297  18.9538844444141 16.4689777779297  20.2441244444141 17.2813511111719  L 20.2600533332422 17.2813511111719  C 23.6688355553125 19.30432  25.9307377776563 22.5060266667578  26.6316088888281 26.2971022220703  C 26.6475377776563 26.3767466664844  26.6475377776563 26.4882488888281  26.5201066667578 26.6316088888281  C 26.5041777779297 26.6634666667578  26.4245333335156 26.6953244444141  26.32896 26.6953244444141  L 1.67104 26.6953244444141  C 1.57546666675781 26.6953244444141  1.49582222207031 26.6634666664844  1.47989333324219 26.6316088888281  C 1.46396444441406 26.5997511108984  1.43210666648437 26.5678933332422  1.40024888882812 26.5519644444141  C 1.36839111089844 26.5201066664844  1.33653333324219 26.4245333332422  1.36839111117187 26.3130311111719  C 2.51527111117187 20.4352711111719  7.30986666675781 16.0388977779297  13.0601955555859 15.6088177779297  Z M 20.6742044444141 16.6123377779297  C 19.3202488888281 15.7681066667578  16.5486222223437 14.8123733335156  13.5221333332422 14.8123733332422  C 13.3628444444141 14.8123733332422  13.1876266664844 14.8123733332422  13.0283377779297 14.8283022220703  C 6.91164444441406 15.2743111111719  1.8144 19.9255466667578  0.603804444414063 26.1696711111719  C 0.540088888828125 26.4882488891016  0.603804444414063 26.8705422223437  0.858666666757813 27.1254044444141  C 1.04981333351563 27.3802666664844  1.36839111117188 27.5076977776563  1.68696888882813 27  L 26.3448888888281 27  C 26.6634666667578 27.5076977779297  26.9820444444141 27.3802666667578  27.1731911111719 27.1254044444141  C 27.3643377779297 26.8705422223437  27.4917688891016 26.5519644444141  27.4280533332422 26.1696711111719  C 26.6634666664844 22.0918755555859  24.2422755553125 18.7468088891016  20.6742044444141 16.6123377779297  Z M 21.3272888888281 7.43729777792969  C 21.3272888888281 11.4513777782031  18.01408 14.7645866667578  14 14.7645866667578  C 9.98592 14.7645866667578  6.67271111117187 11.4513777779297  6.67271111117187 7.43729777792969  C 6.67271111117187 3.42321777792969  9.98592 0.110008888828125  14 0.110008888828125  C 18.01408 0.110008888828125  21.3272888888281 3.42321777765625  21.3272888888281 7.43729777792969  Z " fill-rule="nonzero" fill="#d6d6d7" stroke="none" transform="matrix(1 0 0 1 785 219 )" />
  </g>
</svg>