<?xml version="1.0" encoding="utf-8"?>
<svg version="1.1" xmlns:xlink="http://www.w3.org/1999/xlink" width="14px" height="14px" xmlns="http://www.w3.org/2000/svg">
  <g transform="matrix(1 0 0 1 -792 -220 )">
    <path d="M 0.838416161679688 6.82860212575577  C 0.838416161679688 3.57910879251359  3.60280242433771 0.93491323692765  7 0.934913236654212  C 10.3971975756623 0.934913236654212  13.1615838383203 3.57910879224015  13.1615838383203 6.82860212575577  C 13.1615838383203 10.0780954592714  10.3971975756623 12.7222910145839  7 12.7222910145839  C 3.60280242433771 12.7222910145839  0.838416161679688 10.078095458998  0.838416161679688 6.82860212575577  Z M 13.994230302935 6.82860212575577  C 13.994230302935 3.13309990368546  10.8634795958008 0.138468792240149  7 0.138468792240149  C 3.13652040419922 0.138468792240149  0.00576969706498528 3.13309990341202  0.00576969706498528 6.82860212575577  C 0.00576969706498528 10.5241043480995  3.13652040419922 13.518735458998  7 13.518735458998  C 10.8634795958008 13.518735458998  13.994230302935 10.5241043478261  13.994230302935 6.82860212575577  Z " fill-rule="nonzero" fill="#d6d6d7" stroke="none" transform="matrix(1 0 0 1 792 220 )" />
  </g>
</svg>