<?xml version="1.0" encoding="utf-8"?>
<svg version="1.1" xmlns:xlink="http://www.w3.org/1999/xlink" width="12px" height="9px" xmlns="http://www.w3.org/2000/svg">
  <g transform="matrix(1 0 0 1 -92 -768 )">
    <path d="M 11.952 8.04521739130435  C 11.9733333375 8.54608695652174  11.568 8.92173913043478  11.0986666625 9  L 0.9013333375 9  C 0.432 8.92173913043478  0.0266666625 8.54608695652174  0.0266666625 8.06608696059783  L 0.0266666625 0.866086960597826  C 0.0266666625 0.386086964673913  0.432 0.0104347907608694  0.9013333375 0  L 11.0773333375 0  C 11.568 0.0104347785326086  11.952 0.40695652173913  11.952 0.866086960597826  L 11.952 8.04521739130435  Z M 11.0773333375 0.636521735054348  L 0.9013333375 0.636521735054348  C 0.7733333375 0.636521735054348  0.666666675 0.740869557065218  0.6666666625 0.866086960597826  L 0.6666666625 8.04521739130435  C 0.6666666625 8.19130435190218  0.773333325 8.29565217391304  0.9013333375 8.29565217391304  L 11.0773333375 8.29565217391304  C 11.2053333375 8.29565217391304  11.312 8.19130435190218  11.312 8.04521739130435  L 11.312 0.866086960597826  C 11.312 0.740869569293478  11.2053333375 0.636521747282608  11.0773333375 0.636521735054348  Z " fill-rule="nonzero" fill="#333333" stroke="none" transform="matrix(1 0 0 1 92 768 )" />
  </g>
</svg>