<?xml version="1.0" encoding="utf-8"?>
<svg version="1.1" xmlns:xlink="http://www.w3.org/1999/xlink" width="6px" height="7px" xmlns="http://www.w3.org/2000/svg">
  <g transform="matrix(1 0 0 1 -95 -767 )">
    <path d="M 0.639999996093746 2.38837607211539  C 0.639999996093746 2.54153846153846  0.519999996093753 2.67555555929488  0.339999996093746 2.67555555929488  C 0.179999999999998 2.67555555929488  0.0399999960937464 2.54153846153846  0.0399999960937464 2.38837607211539  L 0.0399999960937464 0.358974358974374  C 0.0399999960937464 0.205811969551277  0.179999999999998 0.0717948717948881  0.339999996093746 0.0717948717948881  C 0.499999992187503 0.0717948717948881  0.639999996093746 0.205811969551277  0.639999996093746 0.358974358974374  L 0.639999996093746 2.38837607211539  Z M 5.96000000390625 4.66666666666667  C 5.96000000390625 4.81982905608973  5.84000000390624 4.95384615384615  5.66000000390625 4.95384615384615  L 0.339999996093746 4.95384615384615  C 0.179999999999998 4.95384615384615  0.0399999960937464 4.81982905608973  0.0399999960937464 4.66666666666667  C 0.0399999960937464 4.5135042772436  0.179999999999998 4.37948717948718  0.339999996093746 4.37948717948718  L 5.66000000390625 4.37948717948718  C 5.81999999999999 4.37948717948718  5.96000000390625 4.5135042772436  5.96000000390625 4.66666666666667  Z M 5.94 6.69606837980768  C 5.94 6.84923076923075  5.82 6.98324786698717  5.64 6.98324786698717  L 0.339999996093746 6.98324786698717  C 0.179999999999998 6.98324786698717  0.0399999960937464 6.84923076923075  0.0399999960937464 6.69606837980768  C 0.0399999960937464 6.54290599038462  0.179999999999998 6.4088888926282  0.339999996093746 6.4088888926282  L 5.64 6.4088888926282  C 5.79999999609375 6.4088888926282  5.94 6.54290599038462  5.94 6.69606837980768  Z M 5.94 2.38837607211539  C 5.94 2.54153846153846  5.82 2.67555555929488  5.64 2.67555555929488  C 5.48000000390625 2.67555555929488  5.34 2.54153846153846  5.34 2.38837607211539  L 5.34 0.358974358974374  C 5.34 0.205811969551277  5.48000000390625 0.0717948717948881  5.64 0.0717948717948881  C 5.79999999609375 0.0717948717948881  5.94 0.205811969551277  5.94 0.358974358974374  L 5.94 2.38837607211539  Z " fill-rule="nonzero" fill="#333333" stroke="none" transform="matrix(1 0 0 1 95 767 )" />
  </g>
</svg>