<?xml version="1.0" encoding="utf-8"?>
<svg version="1.1" xmlns:xlink="http://www.w3.org/1999/xlink" width="8px" height="8px" xmlns="http://www.w3.org/2000/svg">
  <g transform="matrix(1 0 0 1 -93 -996 )">
    <path d="M 3.75 0.282924107142857  C 2.86458333333335 1.51209077380952  1.62760416666664 2.48865327380952  0.0390625 3.21261160714286  C 0.205729166666645 3.44177827380952  0.356770833333355 3.6553199404762  0.4921875 3.85323660714286  C 2.03385416666665 2.99386160714286  3.21354166666665 2.03552827380952  4.03125 0.978236607142857  C 4.90104166666664 2.05636160714286  6.046875 2.9521949404762  7.46875 3.66573660714286  C 7.640625 3.38448660714286  7.78385416666664 3.16052827380952  7.8984375 2.99386160714286  C 6.40364583333336 2.40011160714286  5.25 1.56677827380952  4.4375 0.493861607142857  L 4.59375 0.282924107142857  C 4.59375 0.282924107142857  3.75 0.282924107142857  3.75 0.282924107142857  Z M 0.4609375 6.98604910714286  L 0.4609375 7.56417410714286  L 7.5546875 7.56417410714286  L 7.5546875 6.98604910714286  L 4.4296875 6.98604910714286  L 4.4296875 4.91573660714286  L 6.8125 4.91573660714286  L 6.8125 4.34542410714286  L 4.4296875 4.34542410714286  L 4.4296875 2.61886160714286  L 3.78125 2.61886160714286  L 3.78125 6.98604910714286  L 2.1640625 6.98604910714286  L 2.1640625 3.95479910714286  L 1.515625 3.95479910714286  L 1.515625 6.98604910714286  L 0.4609375 6.98604910714286  Z " fill-rule="nonzero" fill="#383838" stroke="none" transform="matrix(1 0 0 1 93 996 )" />
  </g>
</svg>