<?xml version="1.0" encoding="utf-8"?>
<svg version="1.1" xmlns:xlink="http://www.w3.org/1999/xlink" width="24px" height="11px" xmlns="http://www.w3.org/2000/svg">
  <g transform="matrix(1 0 0 1 -14 -21 )">
    <path d="M 2.8118197469604 8.95238079510625  L 2.8118197469604 4.73809517297366  L 0.161741858617688 4.73809517297366  L 0.161741858617688 5.57142849770605  L 1.90357700526704 5.57142849770605  L 1.90357700526704 8.95238079510625  L 2.8118197469604 8.95238079510625  Z M 5.93468146982713 9.90476189984702  C 4.50388826200503 9.84523809854022  3.39657891973474 9.44047616805221  2.8118197469604 8.55952377389121  C 2.8118197469604 8.55952377389121  1.96578534112172 8.55952377389121  1.96578534112172 8.55952377389121  C 1.33125972213816 9.07142857511474  0.597200654549795 9.59523748733466  0 9.9761898298899  C 0 9.9761898298899  0.497667168865917 10.8928569696093  0.497667168865917 10.8928569696093  C 1.16951793767862 10.3690474542472  1.80404359374131 9.85714254658683  2.40124428537018 9.34523781632129  C 3.19751187420871 10.2857139585707  4.31726325444089 10.7023800355341  5.93468146982713 10.76190387232  C 7.31570786064907 10.8095229240091  9.89113489314695 10.7857139480883  11.2597197651143 10.7380949407478  C 11.297044321678 10.4642854157096  11.4587861432167 10.0357135070204  11.5583197772169 9.82142780102845  C 10.0902012712493 9.91666589553699  7.2908248229399 9.95238095153627  5.93468146982713 9.90476189984702  Z M 0.982892744719038 0.333333273126641  C 0.982892744719038 0.333333273126641  0.298600345814464 0.869047857417058  0.298600345814464 0.869047857417058  C 1.10730952766573 1.39285769208971  2.04043538122647 2.20238080800777  2.43856899025025 2.77380978306701  C 2.43856899025025 2.77380978306701  3.17262839155046 2.19047620030585  3.17262839155046 2.19047620030585  C 2.73716966977656 1.60714332712382  1.8040435195831 0.833333182816546  0.982892744719038 0.333333273126641  Z M 10.1772938313441 1.28571466169899  L 4.65318826805634 1.28571466169899  L 4.65318826805634 2.0357141714444  L 9.26905123796712 2.0357141714444  L 9.26905123796712 3.64285764048395  L 4.65318826805634 3.64285764048395  L 4.65318826805634 4.40476218367871  L 10.1772938313441 4.40476218367871  L 10.1772938313441 1.28571466169899  Z M 7.75116665658118 0.166666636563264  C 7.75116665658118 0.166666636563264  6.68118209334915 0  6.68118209334915 0  C 6.58164845934886 0.464286086584366  6.35769845027187 1.13095263283753  6.17107344270778 1.58333340214097  C 6.17107344270778 1.58333340214097  7.02954877413555 1.76190464640615  7.02954877413555 1.76190464640615  C 7.24105756099067 1.35714301748931  7.51477483201688 0.75000021932442  7.75116665658118 0.166666636563264  Z M 5.11353025001392 1.28571466169899  L 4.20528795326965 1.28571466169899  L 4.20528795326965 8.92857072820766  L 5.11353025001392 8.92857072820766  L 5.11353025001392 1.28571466169899  Z M 10.6749605181818 5.53571453268466  L 4.70295493674013 5.53571453268466  L 4.70295493674013 6.29761850821615  L 9.75427714753209 6.29761850821615  L 9.75427714753209 8.15476171922694  L 4.70295493674013 8.15476171922694  L 4.70295493674013 8.92857072820766  L 10.6749605181818 8.92857072820766  L 10.6749605181818 5.53571453268466  Z M 13.860029687005 3.46428554472402  L 13.860029687005 1.30952387710272  L 15.9751160723926 1.30952387710272  L 15.9751160723926 3.46428554472402  L 13.860029687005 3.46428554472402  Z M 16.8335914038204 0.535714300458835  L 13.051321024261 0.535714300458835  L 13.051321024261 4.23809512136791  L 16.8335914038204 4.23809512136791  L 16.8335914038204 0.535714300458835  Z M 15.514772903904 3.8690475993883  L 14.6811803135527 3.8690475993883  L 14.6811803135527 9.39285681479203  L 15.514772903904 9.39285681479203  L 15.514772903904 3.8690475993883  Z M 21.0015531690462 0.083333673071138  L 20.0933111689347 0.083333673071138  L 20.0933111689347 1.96428595756993  L 21.0015531690462 1.96428595756993  L 21.0015531690462 0.083333673071138  Z M 13.8475877232013 5.34523853880182  L 13.0637629880647 5.34523853880182  L 13.0637629880647 9.77380880255771  L 13.8475877232013 9.77380880255771  L 13.8475877232013 5.34523853880182  Z M 17.1570753435304 8.35714274655913  C 15.415240159802 8.80952358682043  13.5738716387061 9.27380907026259  12.3794704037646 9.53571381020413  C 12.3794704037646 9.53571381020413  12.6034198195761 10.3690468511049  12.6034198195761 10.3690468511049  C 13.8973545402014 10.0238087574027  15.6143074278025 9.58333270223807  17.2690506447016 9.13095175553985  C 17.2690506447016 9.13095175553985  17.1570753435304 8.35714274655913  17.1570753435304 8.35714274655913  Z M 17.0699827834355 5.89285758887831  L 15.0419901446737 5.89285758887831  L 15.0419901446737 6.69047552943107  L 17.0699827834355 6.69047552943107  L 17.0699827834355 5.89285758887831  Z M 22.9175728796988 3.523809576644  L 18.1897346086168 3.523809576644  L 18.1897346086168 4.32142865252331  L 20.1845906902087 4.32142865252331  L 22.9175728796988 4.32142865252331  L 22.9175728796988 3.523809576644  Z M 23.7884913614612 5.47619050076469  L 17.3561420182655 5.47619050076469  L 17.3561420182655 6.273809576644  L 23.7884913614612 6.273809576644  L 23.7884913614612 5.47619050076469  Z M 23.8258148798104 1.29761941131676  L 17.2814914219743 1.29761941131676  L 17.2814914219743 3.34523804854723  L 18.1399679399331 3.34523804854723  L 18.1399679399331 2.08333345374672  L 22.9300148435025 2.08333345374672  L 22.9300148435025 3.34523804854723  L 23.8258148798104 3.34523804854723  L 23.8258148798104 1.29761941131676  Z M 20.9766716145008 5.99999948394247  L 20.0933111689347 5.99999948394247  C 20.0933111689347 5.99999948394247  20.0933111689347 10.0357138618099  20.0933111689347 10.0357138618099  C 20.0933111689347 10.1785709991378  20.043544500251 10.2142850927705  19.8818025303959 10.2261898556928  C 19.7076190416864 10.2261898556928  19.1477431290958 10.2261895851658  18.5381012894032 10.2142848222435  C 18.6500764422581 10.4523800274708  18.7620515951129 10.7738095798693  18.7869346328221 11  C 19.6702943368063 11  20.2052873600041 10.9880953745586  20.5536543374233 10.8571430045879  C 20.8895797959879 10.738095375365  20.9766716145008 10.4999998064784  20.9766716145008 10.0476188952592  C 20.9766716145008 10.0476188952592  20.9766716145008 5.99999948394247  20.9766716145008 5.99999948394247  Z M 19.1104185725321 7.17857168291403  C 19.1104185725321 7.17857168291403  18.264385204908 6.98809568903118  18.264385204908 6.98809568903118  C 17.9409016359889 7.97619090070918  17.418350279962 8.98809433438032  16.7713827713329 9.66666577216699  C 16.9953330770426 9.7857133747807  17.3561420924236 10.0238095468094  17.5303259519241 10.15476192565  C 18.1524096812622 9.41666673977477  18.7496100762584 8.29761914038647  19.1104185725321 7.17857168291403  Z M 22.6936222773564 6.96428562213259  C 22.6936222773564 6.96428562213259  21.9097975422197 7.22619068138476  21.9097975422197 7.22619068138476  C 22.4572310460576 8.10714314650363  23.0046657364264 9.28571392631716  23.153965445845 10.0357138618099  C 23.153965445845 10.0357138618099  24 9.73809483753632  24 9.73809483753632  C 23.8133749924359 8.97619015242583  23.2534980416306 7.8333333376338  22.6936222773564 6.96428562213259  Z " fill-rule="nonzero" fill="#ffffff" stroke="none" transform="matrix(1 0 0 1 14 21 )" />
  </g>
</svg>