<?xml version="1.0" encoding="utf-8"?>
<svg version="1.1" xmlns:xlink="http://www.w3.org/1999/xlink" width="29px" height="27px" xmlns="http://www.w3.org/2000/svg">
  <g transform="matrix(1 0 0 1 -367 -469 )">
    <path d="M 28.4931531531532 12.3130485436893  C 28.9000483866178 13.0544243740009  28.9000483866178 13.9532649573098  28.4931531531532 14.6946407876214  L 22.5377898006757 25.5295922220874  C 22.1155875313883 26.3024950526509  21.3076737435487 26.7836700876327  20.4292372263514 26.7853980691748  L 8.60281081081081 26.7853980691748  C 7.72437430532271 26.7836700756987  6.91646053279157 26.3024950423818  6.49425826914414 25.5295922220874  L 0.538894884009008 14.6946407876214  C 0.131999650544365 13.9532649573098  0.131999650544366 13.0544243740009  0.538894884009008 12.3130485436893  L 6.49425826914414 1.47809707645631  C 6.91646054137468 0.705194268818605  7.72437431224654 0.224019249044882  8.60281081081081 0.222291262135918  L 20.4292372263514 0.222291262135919  C 21.3076737366249 0.22401923711092  22.1155875228052 0.705194258549472  22.5377898006757 1.47809707645631  L 28.4931531531532 12.3130485436893  Z M 20.7197597488739 24.5090097196602  L 26.6646726835586 13.6740582524272  C 26.7226801713721 13.5681696049332  26.7226801713721 13.4398692190959  26.6646726835586 13.3339805716019  L 20.7197597488739 2.49902913713592  C 20.6597418119025 2.3885817779796  20.5445121081588 2.31972156984348  20.4191351351351 2.3193786407767  L 8.61291290202703 2.3193786407767  C 8.48753592900338 2.31972156984348  8.37230622525964 2.3885817779796  8.31228828828829 2.49902913713592  L 2.36737538626126 13.3339805716019  C 2.30936789844768 13.4398692190959  2.30936789844768 13.5681696049332  2.36737538626126 13.6740582524272  L 8.31228828828829 24.5090097196602  C 8.37239798108081 24.6193220371513  8.48760991958768 24.6880376761458  8.61291290202703 24.688310690534  L 20.4191351351351 24.688310690534  C 20.5444381175745 24.6880376761458  20.6596500560814 24.6193220371513  20.7197597488739 24.5090097196602  Z M 19.9997237128378 13.368932038835  C 19.9997236801802 16.4575922548544  17.5041561452703 18.961165059466  14.426150161036 18.961165059466  C 11.3477958175676 18.961165059466  8.85257657657658 16.4575922548544  8.85257657657658 13.368932038835  C 8.85257657657658 10.2802718228155  11.3477957849099 7.77669901820388  14.426150161036 7.77669901820388  C 17.5041561779279 7.77669901820388  19.9997237454955 10.2802718228155  19.9997237128378 13.368932038835  Z M 10.9426666666667 13.368932038835  C 10.9426666666667 15.2993009708738  12.5022222331081 16.8640776808252  14.426150161036 16.8640776808252  C 16.350078088964 16.8640776808252  17.9096336554054 15.2993009708738  17.9096336227477 13.368932038835  C 17.9096335900901 11.4385631067961  16.3500780563063 9.87378639684466  14.426150161036 9.87378639684466  C 12.5022222657658 9.87378639684466  10.9426666666667 11.4385631067961  10.9426666666667 13.368932038835  Z " fill-rule="nonzero" fill="#606060" stroke="none" transform="matrix(1 0 0 1 367 469 )" />
  </g>
</svg>