<?xml version="1.0" encoding="utf-8"?>
<svg version="1.1" xmlns:xlink="http://www.w3.org/1999/xlink" width="10px" height="13px" xmlns="http://www.w3.org/2000/svg">
  <g transform="matrix(1 0 0 1 -914 -1273 )">
    <path d="M 0.972416661241319 2.40528261090353  C 0.972416661241319 1.66993477708899  2.66380555772569 0.847826089164402  4.92713889322917 0.847826089164402  C 7.19047221679688 0.847826089164402  8.88186111328125 1.66993477708899  8.88186111328125 2.40528261090353  C 8.88186111328125 3.14006522070313  7.19047221679688 3.96245652063519  4.92713889322917 3.96245652063519  C 2.66380555772569 3.96245652063519  0.972416661241319 3.14006522070313  0.972416661241319 2.40528261090353  Z M 0.139083337673611 2.40528261090353  C 0.139083337673611 3.77621739351223  2.19741666992188 4.81028260979959  4.92713889322917 4.81028260979959  C 7.65686111653646 4.81028260979959  9.71519444878472 3.77621739351223  9.71519444878472 2.40528261090353  C 9.71519444878472 1.03406521628736  7.65686111653646 0  4.92713889322917 0  C 2.19741666992188 0  0.139083337673611 1.03406521628736  0.139083337673611 2.40528261090353  Z M 9.71527777235243 4.508484777089  C 9.71527777235243 4.27448477929688  9.52861111436632 4.08457174465014  9.29861111653646 4.08457174465014  C 9.06861110677083 4.08457174465014  8.88194444878472 4.27448477929688  8.88194444878472 4.508484777089  C 8.88194444878472 4.9171369554178  7.48611111002604 5.71324565438179  4.92722221679688 5.71324565438179  C 2.36833333550347 5.71324565438179  0.972222227647569 4.9171369554178  0.972222227647569 4.508484777089  C 0.972222227647569 4.27448477929688  0.78583333875868 4.08457174465014  0.555555559895833 4.08457174465014  C 0.325555550130208 4.08457174465014  0.138888892144097 4.27448477929688  0.138888892144097 4.508484777089  C 0.138888892144097 5.85596304237432  2.54777778211806 6.5610717435462  4.92722221679688 6.5610717435462  C 7.30638889431424 6.5610717435462  9.71527777235243 5.85596304237432  9.71527777235243 4.508484777089  Z M 9.71527777235243 6.47103261200747  C 9.71527777235243 6.23703261421535  9.52861111436632 6.04711956742527  9.29861111653646 6.04711956742527  C 9.06861110677083 6.04711956742527  8.88194444878472 6.23703261421535  8.88194444878472 6.47103261200747  C 8.88194444878472 6.88901086514946  7.48611111002604 7.70320652615489  4.92722221679688 7.70320652615489  C 2.36833333550347 7.70320652615489  0.972222227647569 6.88901086514946  0.972222227647569 6.47103261200747  C 0.972222227647569 6.23703261421535  0.78583333875868 6.04711956742527  0.555555559895833 6.04711956742527  C 0.325555550130208 6.04711956742527  0.138888892144097 6.23703261421535  0.138888892144097 6.47103261200747  C 0.138888892144097 7.8219021728091  2.60583333767361 8.55103260317595  4.92722221679688 8.55103260317595  C 7.24833333875868 8.55103260317595  9.71527777235243 7.8219021728091  9.71527777235243 6.47103261200747  Z M 9.71527777235243 8.40568695872962  C 9.71527777235243 8.1716869609375  9.52861111436632 7.98177391414742  9.29861111653646 7.98177391414742  C 9.06861110677083 7.98177391414742  8.88194444878472 8.1716869609375  8.88194444878472 8.40568695872962  C 8.88194444878472 8.84994782498302  7.38055555881076 9.6658391337466  4.92722221679688 9.6658391337466  C 2.47388888671875 9.6658391337466  0.972222227647569 8.84994782498302  0.972222227647569 8.40568695872962  C 0.972222227647569 8.1716869609375  0.78583333875868 7.98177391414742  0.555555559895833 7.98177391414742  C 0.325555550130208 7.98177391414742  0.138888892144097 8.1716869609375  0.138888892144097 8.40568695872962  C 0.138888892144097 9.77492608143682  2.60583333767361 10.513665222911  4.92722221679688 10.513665222911  C 7.24833333875868 10.513665222911  9.71527777235243 9.77492608143682  9.71527777235243 8.40568695872962  Z M 9.71527777235243 10.2434630434783  C 9.71527777235243 10.0094630456861  9.52861111436632 9.81954999889606  9.29861111653646 9.81954999889606  C 9.06861110677083 9.81954999889606  8.88194444878472 10.0094630456861  8.88194444878472 10.2434630434783  C 8.88194444878472 10.7046804358865  7.34166666775173 11.586984777089  4.92722221679688 11.586984777089  C 2.51249999674479 11.586984777089  0.972222227647569 10.7046804358865  0.972222227647569 10.2434630434783  C 0.972222227647569 10.0094630456861  0.78583333875868 9.81954999889606  0.555555559895833 9.81954999889606  C 0.325555550130208 9.81954999889606  0.138888892144097 10.0094630456861  0.138888892144097 10.2434630434783  C 0.138888892144097 11.5968760880605  2.62444444010417 12.4348108662534  4.92722221679688 12.4348108662534  C 7.23000000542535 12.4348108662534  9.71527777235243 11.5968760880605  9.71527777235243 10.2434630434783  Z " fill-rule="nonzero" fill="#a2a2a2" stroke="none" transform="matrix(1 0 0 1 914 1273 )" />
  </g>
</svg>