<?xml version="1.0" encoding="utf-8"?>
<svg version="1.1" xmlns:xlink="http://www.w3.org/1999/xlink" width="6px" height="7px" xmlns="http://www.w3.org/2000/svg">
  <g transform="matrix(1 0 0 1 -1090 -1278 )">
    <path d="M 5.11427824589198 0.577319989149039  C 5.11427824589198 0.314472139135158  4.88600983288068 0.101376124182677  4.60438714285714 0.10132  C 4.4690863157558 0.101138401460685  4.33929063634228 0.151308583267661  4.24374428571429 0.24072  L 3 1.401548  L 1.75625571428571 0.240719999999999  C 1.66070022159328 0.151321336711273  1.53091048845363 0.101153453329351  1.39561285714286 0.10132  C 1.11396171379729 0.101338581700258  0.885648907313933 0.314445597698209  0.885648907313933 0.57731999881081  C 0.885648907313933 0.703538142125352  0.93935975610138 0.824588819580624  1.03497 0.913852  L 2.13307285714286 1.93868  L 0.668571428571429 1.93868  C 0.386906206157724 1.93868  0.158571428571428 2.15179245908054  0.158571428571428 2.41468  C 0.158571428571428 2.67756754091946  0.386906206157724 2.89068  0.668571428571429 2.89068  L 2.49 2.89068  L 2.49 3.77468  L 0.668571428571429 3.77468  C 0.386906206157724 3.77468  0.158571428571427 3.98779245908054  0.158571428571427 4.25068  C 0.158571428571427 4.51356754091946  0.386906206157723 4.72668  0.668571428571429 4.72668  L 2.49 4.72668  L 2.49 6.49468  C 2.49 6.75756754091946  2.7183347775863 6.97068  3 6.97068  C 3.2816652224137 6.97068  3.51 6.75756754091946  3.51 6.49468  L 3.51 4.72668  L 5.33142857142857 4.72668  C 5.61309379384228 4.72668  5.84142857142857 4.51356754091946  5.84142857142857 4.25068  C 5.84142857142857 3.98779245908054  5.61309379384228 3.77468  5.33142857142857 3.77468  L 3.51 3.77468  L 3.51 2.89068  L 5.33142857142857 2.89068  C 5.61309379384228 2.89068  5.84142857142857 2.67756754091946  5.84142857142857 2.41468  C 5.84142857142857 2.15179245908054  5.61309379384228 1.93868  5.33142857142857 1.93868  L 3.86692714285714 1.93868  L 4.96495714285714 0.913851999999999  C 5.06056739308674 0.824588818793838  5.11427824589198 0.703538137197606  5.11427824589198 0.577319989149039  Z " fill-rule="nonzero" fill="#c1c1c1" stroke="none" transform="matrix(1 0 0 1 1090 1278 )" />
  </g>
</svg>