<?xml version="1.0" encoding="utf-8"?>
<svg version="1.1" xmlns:xlink="http://www.w3.org/1999/xlink" width="14px" height="12px" xmlns="http://www.w3.org/2000/svg">
  <g transform="matrix(1 0 0 1 -1091 -1162 )">
    <path d="M 13.9135802523148 1.41662920786517  C 13.9135900827248 0.650946220942777  13.3188489618665 0.0291255454773764  12.5827160439815 0  L 1.41728395601852 0  C 0.681151038133484 0.0291255454773768  0.0864099172751848 0.650946220942777  0.0864197476851851 1.41662920786517  L 0.0864197476851851 10.4880898820225  C 0.0864197476851863 11.2565723923488  0.685363260133769 11.8795505561798  1.42419752546296 11.8795505561798  L 12.5896296296296 11.8795505561798  C 13.3230583891281 11.8716652803279  13.913619431945 11.250990722917  13.9135802523148 10.4880898820225  L 13.9135802523148 1.41662920786517  Z M 13.2222222222222 1.41662920786517  L 13.2222222222222 10.4880898820225  C 13.2222222222222 10.859423821952  12.932810243173 11.1604494438202  12.575802474537 11.1604494438202  L 12.575802474537 11  L 1.41728395601852 11  C 1.06297902725257 11.1565078066844  0.777757503282555 10.8566335827961  0.777777777777778 10.4880898820225  L 0.777777777777778 1.41662920786517  C 0.777757512164726 1.04808551365886  1.06297903356664 0.748211299987413  1.41728395601852 0.744269662921349  L 12.5827160439815 0.744269662921349  C 12.9370209664334 0.748211299987414  13.2222424878353 1.04808551365886  13.2222222222222 1.41662920786517  Z M 11.4938271550926 6.59415729775281  C 11.4938271550926 6.39558300878154  11.3390613920202 6.23460674157303  11.1481481481481 6.23460674157303  C 10.9572349042761 6.23460674157303  10.8024691412037 6.39558300878154  10.8024691412037 6.59415729775281  L 10.8024691412037 7.59011236516854  L 8.14074074074074 4.82157303370787  C 7.80439250517614 4.4832036693769  7.27066922862015 4.4832036693769  6.93432099305556 4.82157303370787  L 5.40296296296296 6.41438202808989  C 5.37282482726932 6.44617703932055  5.3318138012384 6.46427383124162  5.28888888888889 6.46471909550562  C 5.24588446363921 6.46467490860516  5.20473093281839 6.44651523409421  5.17481481481481 6.41438202808989  L 2.38864196990741 3.51640449438202  C 2.32325086768582 3.44791037200146  2.23428465904354 3.409390253633  2.14148148148148 3.409390253633  C 1.94911092713274 3.409390253633  1.79316378049901 3.57159531144786  1.79316378049901 3.77168539044944  C 1.79316378049901 3.86733161150888  1.8295267131169 3.95909730757474  1.89432099305555 4.02696628651685  L 4.68049382175926 6.92134832022472  C 5.0168420593827 7.25971769542307  5.5505653480247 7.25971769542307  5.88691358564815 6.92134832022472  L 7.42172840046296 5.3285393258427  C 7.451671750911 5.29646806006325  7.4928218206141 5.2783706608094  7.53580247453704 5.2783706608094  C 7.57878312845997 5.2783706608094  7.61993319816308 5.29646806006325  7.64987654861111 5.3285393258427  L 10.3185185185185 8.08988764044944  L 9.07407407407407 8.08988764044944  C 8.88316082572748 8.08988764044944  8.72839505902778 8.25086391143082  8.72839505902778 8.44943820505618  C 8.72839505902778 8.64801249868153  8.88316082572748 8.80898876966292  9.07407407407407 8.80898876966292  L 10.9338271550926 8.80898876966292  C 11.2400345759224 8.80140235622267  11.4865334273561 8.54501189758865  11.4938271550926 8.22651685955056  L 11.4938271550926 6.59415729775281  Z " fill-rule="nonzero" fill="#a2a2a2" stroke="none" transform="matrix(1 0 0 1 1091 1162 )" />
  </g>
</svg>