<?xml version="1.0" encoding="utf-8"?>
<svg version="1.1" xmlns:xlink="http://www.w3.org/1999/xlink" width="9px" height="6px" xmlns="http://www.w3.org/2000/svg">
  <g transform="matrix(1 0 0 1 -915 -1165 )">
    <path d="M 8.67743999999993 0.54336000000003  C 8.67743999999993 0.416639999999916  8.57136000000009 0.312960000000021  8.4340799999999 0.312960000000021  L 0.580799999999908 0.312960000000021  C 0.44351999999999 0.312960000000021  0.331200000000081 0.416639999999916  0.331200000000081 0.54336000000003  C 0.331200000000081 0.670079999999871  0.44351999999999 0.773760000000038  0.580799999999908 0.773760000000038  L 8.42784000000011 0.773760000000038  C 8.56512000000003 0.773760000000038  8.67743999999993 0.670079999999871  8.67743999999993 0.54336000000003  Z M 8.67743999999993 2.97407999999996  C 8.67743999999993 2.84736000000012  8.57136000000009 2.74367999999995  8.4340799999999 2.74367999999995  L 0.580799999999908 2.74367999999995  C 0.44351999999999 2.74367999999995  0.331200000000081 2.84736000000012  0.331200000000081 2.97407999999996  C 0.331200000000081 3.10080000000007  0.44351999999999 3.20447999999997  0.580799999999908 3.20447999999997  L 8.42784000000011 3.20447999999997  C 8.56512000000003 3.20447999999997  8.67743999999993 3.10080000000007  8.67743999999993 2.97407999999996  Z M 8.67743999999993 5.39903999999997  C 8.68368 5.27232000000013  8.57136000000009 5.16863999999996  8.4340799999999 5.16863999999996  L 0.580799999999908 5.16863999999996  C 0.44351999999999 5.16863999999996  0.331200000000081 5.27232000000013  0.331200000000081 5.39903999999997  C 0.331200000000081 5.52576000000008  0.44351999999999 5.62943999999998  0.580799999999908 5.62943999999998  L 8.42784000000011 5.62943999999998  C 8.56512000000003 5.62943999999998  8.67743999999993 5.52576000000008  8.67743999999993 5.39903999999997  Z " fill-rule="nonzero" fill="#c8c8c8" stroke="none" transform="matrix(1 0 0 1 915 1165 )" />
  </g>
</svg>