<?xml version="1.0" encoding="utf-8"?>
<svg version="1.1" xmlns:xlink="http://www.w3.org/1999/xlink" width="18px" height="10px" preserveAspectRatio="xMinYMid meet" viewBox="1227 948  18 8" xmlns="http://www.w3.org/2000/svg">
  <path d="M 297 524  L 297 915  A 5 5 0 0 0 302 920 L 1235 920  A 5 5 0 0 1 1240 925 L 1240 947  A 5 5 0 0 1 1235 952 L 1229 952  " stroke-width="2" stroke="#f2c21f" fill="none" />
  <path d="M 297 522  A 3.5 3.5 0 0 0 293.5 525.5 A 3.5 3.5 0 0 0 297 529 A 3.5 3.5 0 0 0 300.5 525.5 A 3.5 3.5 0 0 0 297 522 Z M 1230.5 948.5  A 3.5 3.5 0 0 0 1227 952 A 3.5 3.5 0 0 0 1230.5 955.5 A 3.5 3.5 0 0 0 1234 952 A 3.5 3.5 0 0 0 1230.5 948.5 Z " fill-rule="nonzero" fill="#f2c21f" stroke="none" />
</svg>