<?xml version="1.0" encoding="utf-8"?>
<svg version="1.1" xmlns:xlink="http://www.w3.org/1999/xlink" width="27px" height="27px" xmlns="http://www.w3.org/2000/svg">
  <g transform="matrix(1 0 0 1 71 -676 )">
    <path d="M 26.9698660714286 25.4029017857143  C 26.9698660714286 26.2350272458388  26.2952951029817 26.9095982142857  25.4631696428571 26.9095982142857  L 17.0256696428571 26.9095982142857  C 16.1935441827326 26.9095982142857  15.5189732142857 26.2350272458388  15.5189732142857 25.4029017857143  L 15.5189732142857 21.1841517857143  C 15.5189732142857 20.3520263255898  16.1935441827326 19.6774553571429  17.0256696428571 19.6774553571429  L 17.3270089285714 19.6774553571429  L 17.3270089285714 18.2912946428571  C 17.3270627573616 16.1279230080417  19.0808370686594 14.3741923334328  21.2442087041446 14.3741923334328  C 23.2982461450198 14.3741923334328  25.0034457905988 15.9607998190628  25.1512533482143 18.0095122767857  C 25.1576532439687 18.0530355699413  25.1608660095248 18.0969681473637  25.1608660095248 18.1409594614242  C 25.1608660095248 18.6399684573517  24.7563392911666 19.0444951757099  24.2573302952391 19.0444951757099  C 23.7583212993117 19.0444951757099  23.3537945809534 18.6399684573517  23.3537945809534 18.1409594614242  L 23.3477678571429 18.140625  C 23.2680735744386 17.0376495401637  22.3499988446713 16.1835159504896  21.244148021234 16.1835159504896  C 20.0798396106429 16.1835159504896  19.135776151533 17.1269864620612  19.1350446428571 18.2912946428571  L 19.1350446428571 19.6774553571429  L 25.4631696428571 19.6774553571429  C 26.2952951029817 19.6774553571429  26.9698660714286 20.3520263255898  26.9698660714286 21.1841517857143  L 26.9698660714286 25.4029017857143  Z M 25.1618303571429 24.4988839285714  L 25.1618303571429 22.0881696428571  C 25.1618303571429 21.7553194588073  24.8920019697641 21.4854910714286  24.5591517857143 21.4854910714286  L 17.9296875 21.4854910714286  C 17.5968373159502 21.4854910714286  17.3270089285714 21.7553194588073  17.3270089285714 22.0881696428571  L 17.3270089285714 24.4988839285714  C 17.3270089285714 24.8317341126212  17.5968373159502 25.1015625  17.9296875 25.1015625  L 24.5591517857143 25.1015625  C 24.8920019697641 25.1015625  25.1618303571429 24.8317341126212  25.1618303571429 24.4988839285714  Z M 5.45424107142857 20.9430803571429  C 5.45424107142857 21.2759305411927  5.72406945880733 21.5457589285714  6.05691964285714 21.5457589285714  L 12.5959821428571 21.5457589285714  C 13.0952574189319 21.5457589285714  13.5 21.9505015096396  13.5 22.4497767857143  C 13.5 22.949052061789  13.0952574189319 23.3537946428571  12.5959821428571 23.3537946428571  L 5.15290178571429 23.3537946428571  C 4.32077632558977 23.3537946428571  3.64620535714286 22.6792236744102  4 21.8470982142857  L 4 5.15290178571429  C 3.64620535714286 4.32077632558977  4.32077632558977 3.64620535714286  5.15290178571429 4  L 19.3158482142857 4  C 20.1479736744102 3.64620535714286  20.8225446428571 4.32077632558977  20.8225446428571 5.15290178571429  L 20.8225446428571 11.4508928571429  C 20.8225446428571 11.9501681332176  20.417802061789 12.3549107142857  19.9185267857143 12.3549107142857  C 19.4192515096396 12.3549107142857  19.0145089285714 11.9501681332176  19.0145089285714 11.4508928571429  L 19.0145089285714 6.05691964285714  C 19.0145089285714 5.72406945880733  18.7446805411927 5.45424107142857  18.4118303571429 5.45424107142857  L 6.05691964285714 5.45424107142857  C 5.72406945880733 5.45424107142857  5.45424107142857 5.72406945880733  5.45424107142857 6.05691964285714  L 5.45424107142857 20.9430803571429  Z M 24.4386160714286 11.4508928571429  C 24.4386160714286 11.9501681332176  24.0338734903604 12.3549107142857  23.5345982142857 12.3549107142857  C 23.035322938211 12.3549107142857  22.6305803571429 11.9501681332176  22.6305803571429 11.4508928571429  L 22.6305803571429 2.44084821428571  C 22.6305803571429 2.10799803023591  22.3607519697641 1.83816964285714  22.0279017857143 2  L 2.44084821428571 2  C 2.10799803023591 1.83816964285714  1.83816964285714 2.10799803023591  2 2.44084821428571  L 2 24.5591517857143  C 1.83816964285714 24.8920019697641  2.10799803023591 25.1618303571429  2.44084821428571 25  L 12.5959821428571 25  C 12.5959821428571 25.1618303571429  12.5959821428571 25.1618303571429  12.5959821428571 25.1618303571429  C 13.0952574189319 25.1618303571429  13.5 25.566572938211  13.5 26.0658482142857  C 13.5 26.5651234903604  13.0952574189319 26.9698660714286  12.5959821428571 26.9698660714286  C 12.5959821428571 26.9698660714286  12.5959821428571 26.9698660714286  12.5959821428571 27  L 1.53683035714286 27  C 0.704704897018336 26.9698660714286  0.0301339285714286 26.2952951029817  0 25.4631696428571  L 0 1.53683035714286  C 0.0301339285714286 0.704704897018336  0.704704897018336 0.0301339285714286  1.53683035714286 0  L 22.9319196428571 0  C 23.7640451029817 0.0301339285714286  24.4386160714286 0.704704897018336  24.4386160714286 1.53683035714286  L 24.4386160714286 11.4508928571429  Z " fill-rule="nonzero" fill="#7c7c7c" stroke="none" transform="matrix(1 0 0 1 -71 676 )" />
  </g>
</svg>