<?xml version="1.0" encoding="utf-8"?>
<svg version="1.1" xmlns:xlink="http://www.w3.org/1999/xlink" width="27px" height="8px" xmlns="http://www.w3.org/2000/svg">
  <g transform="matrix(1 0 0 1 -1386 -1288 )">
    <path d="M 7.09692960640459 7.18103428268854  L 2.17005870327276 7.18103428268854  L 2.17005870327276 7.68103432550797  L 7.09692960640459 7.68103432550797  L 7.09692960640459 7.18103428268854  Z M 4.62883780695054 1.78448297640915  L 3.94894791537136 1.78448297640915  L 3.94894791537136 2.74137931477442  L 4.62883780695054 2.74137931477442  L 4.62883780695054 1.78448297640915  Z M 8.2797513308345 2.45689663810126  L 0.409796455598387 2.45689663810126  L 0.409796455598387 4.07758640253703  L 1.08037263366079 4.07758640253703  L 1.08037263366079 2.97413800855241  L 7.59054855843533 2.97413800855241  L 7.59054855843533 4.07758640253703  L 8.2797513308345 4.07758640253703  L 8.2797513308345 2.45689663810126  Z M 6.91065866685615 3.5086210491907  L 2.1328042192931 3.5086210491907  L 2.1328042192931 3.99999965744459  L 6.22145589445698 3.99999965744459  L 6.22145589445698 4.74137931477442  L 2.1328042192931 4.74137931477442  L 2.1328042192931 5.24137935759385  L 6.91065866685615 5.24137935759385  L 6.91065866685615 3.5086210491907  Z M 7.50672670965603 5.83620695930433  L 2.16074508227784 5.83620695930433  L 2.16074508227784 6.34482706646765  L 6.81752319708193 6.34482706646765  L 6.81752319708193 7.95689625272642  L 7.50672670965603 7.95689625272642  L 7.50672670965603 5.83620695930433  Z M 2.43083824069304 3.5086210491907  L 1.76026215515251 3.5086210491907  L 1.76026215515251 7.97413775163585  L 2.43083824069304 7.97413775163585  L 2.43083824069304 3.5086210491907  Z M 4.18178695989436 0.698276081333959  L 1.173508103435 0.698276081333959  L 1.173508103435 1.23275860813913  L 4.18178695989436 1.23275860813913  L 4.18178695989436 0.698276081333959  Z M 8.56847136115207 0.698276081333959  L 4.80579512550406 0.698276081333959  L 4.80579512550406 1.23275860813913  L 8.56847136115207 1.23275860813913  L 8.56847136115207 0.698276081333959  Z M 2.0117282566216 0.155172462518657  C 2.0117282566216 0.155172462518657  1.35046560703225 0  1.35046560703225 0  C 1.06174534541003 0.672413832969811  0.558813373776491 1.35344807283893  0 1.80172379020776  C 0.167644032950367 1.87931002146709  0.447050685142913 2.06034507490531  0.577440523244453 2.15517246251866  C 1.11762674755298 1.66379334043165  1.66712654659549 0.913793104924808  2.0117282566216 0.155172462518657  Z M 5.68126883745167 0.146551884341647  C 5.68126883745167 0.146551884341647  5.02000692803723 0  5.02000692803723 0  C 4.72197309168103 0.6637932547928  4.18178649728504 1.30172408994375  3.56709167510466 1.71551698077142  C 3.74404917870191 1.79310321203075  4.03277013423812 1.94827601710482  4.17247333889945 2.04310340471817  C 4.75922757566068 1.59482768734933  5.34598070215953 0.896551948570786  5.68126883745167 0.146551884341647  Z M 2.30044828693917 0.956896509642978  C 2.30044828693917 0.956896509642978  1.6950673633193 1.10344839398462  1.6950673633193 1.10344839398462  C 1.90927916585247 1.42241389719895  2.13280440433683 1.85344845821376  2.21662643815987 2.12068946469979  C 2.21662643815987 2.12068946469979  2.84994822476448 1.94827584582711  2.84994822476448 1.94827584582711  C 2.75681247742466 1.68103432550797  2.51466008947234 1.25862085650328  2.30044828693917 0.956896509642978  Z M 6.25870963826171 0.939655353288956  C 6.25870963826171 0.939655353288956  5.64401509364693 1.11206897216164  5.64401509364693 1.11206897216164  C 5.94204893000314 1.42241389719895  6.25870982330544 1.86206886511307  6.38909959201558 2.13793096360923  C 6.38909959201558 2.13793096360923  7.0224213786202 1.94827584582711  7.0224213786202 1.94827584582711  C 6.88271817395887 1.66379316915395  6.54742948353555 1.24137918631614  6.25870963826171 0.939655353288956  Z M 13.392893728646 3.74137922913557  L 13.392893728646 2.62931025697394  L 16.8575370531564 2.62931025697394  L 16.8575370531564 3.74137922913557  L 13.392893728646 3.74137922913557  Z M 13.392893728646 2.09482790144647  L 13.392893728646 0.999999914361147  L 16.8575370531564 0.999999914361147  L 16.8575370531564 2.09482790144647  L 13.392893728646 2.09482790144647  Z M 17.5281118433908 0.439655139191824  L 12.7595719420413 0.439655139191824  L 12.7595719420413 4.30172383302719  L 17.5281118433908 4.30172383302719  L 17.5281118433908 0.439655139191824  Z M 17.6585025373196 5.31034466812076  L 12.6384956092824 5.31034466812076  L 12.6384956092824 5.90517226983124  L 17.6585025373196 5.90517226983124  L 17.6585025373196 5.31034466812076  Z M 17.965849809627 7.0948274732522  L 11.9213512337236 7.0948274732522  L 11.9213512337236 7.68103432550797  L 17.965849809627 7.68103432550797  L 17.965849809627 7.0948274732522  Z M 12.2938938529953 0.62068985007463  L 9.38806408730511 0.62068985007463  L 9.38806408730511 1.23275860813913  L 12.2938938529953 1.23275860813913  L 12.2938938529953 0.62068985007463  Z M 12.1635046394164 3.11206931471705  L 9.49051317807424 3.11206931471705  L 9.49051317807424 3.72413773022614  L 12.1635046394164 3.72413773022614  L 12.1635046394164 3.11206931471705  Z M 12.2473264881957 5.55172428263116  C 11.1669538545349 5.88793107065779  10.0493266906335 6.2241378372747  9.2949286175309 6.41379306210538  C 9.2949286175309 6.41379306210538  9.4625723150895 7.07758597434277  9.4625723150895 7.07758597434277  C 10.2914788472812 6.81896528911719  11.3532252566927 6.4913789508093  12.3684028209546 6.17241344759497  C 12.3684028209546 6.17241344759497  12.2473264881957 5.55172428263116  12.2473264881957 5.55172428263116  Z M 11.2228348403295 0.862069122029627  L 10.5522585697452 0.862069122029627  L 10.5522585697452 6.32758625266904  L 11.2228348403295 6.20689644541384  L 11.2228348403295 0.862069122029627  Z M 15.4325611828587 0.70689665951097  L 14.8178666382439 0.70689665951097  L 14.8178666382439 4.02586190580874  L 14.7712992734443 4.02586190580874  L 14.7712992734443 7.36206865101594  L 15.4791300280082 7.36206865101594  L 15.4791300280082 4.02586190580874  L 15.4325611828587 4.02586190580874  L 15.4325611828587 0.70689665951097  Z M 20.7692297443732 1.96551700218114  L 20.7692297443732 0.991379336184137  L 25.1186589214763 0.991379336184137  L 25.1186589214763 1.96551700218114  L 20.7692297443732 1.96551700218114  Z M 25.8823714020097 0.422413982837803  L 20.0427717478194 0.422413982837803  L 20.0427717478194 2.53448269808288  L 25.8823714020097 2.53448269808288  L 25.8823714020097 0.422413982837803  Z M 23.265262406812 4.45689663810126  L 22.5201786486182 4.45689663810126  C 22.5201786486182 4.45689663810126  22.5201786486182 5.25000010704857  22.5201786486182 5.25000010704857  C 22.5201786486182 5.93965535328896  22.250085490203 6.86206869383536  18.8878916265492 7.46551695936171  C 19.0555356248039 7.60344798720007  19.2604333206023 7.86206895075192  19.3442553544254 8  C 22.8368388017456 7.28448276231202  23.265262406812 6.17241327631727  23.265262406812 5.26724092084718  C 23.265262406812 5.26724092084718  23.265262406812 4.45689663810126  23.265262406812 4.45689663810126  Z M 23.5539824371295 6.2499995075766  C 23.5539824371295 6.2499995075766  23.2093806808425 6.7241379871427  23.2093806808425 6.7241379871427  C 24.3456343002978 7.07758625266904  25.8730587062335 7.63793100642865  26.6460838825431 8  C 26.6460838825431 8  27 7.45689620990699  27 7.45689620990699  C 26.1897205247544 7.09482721633564  24.6622957487313 6.57758571742621  23.5539824371295 6.2499995075766  Z M 26.2456018806364 3.31034518195387  L 19.7167972335222 3.31034518195387  L 19.7167972335222 6.48275837263229  L 20.4339408689061 6.48275837263229  L 20.4339408689061 3.91379284800825  L 25.500515161743 3.91379284800825  L 25.500515161743 6.4224138115601  L 26.2456018806364 6.4224138115601  L 26.2456018806364 3.31034518195387  Z " fill-rule="nonzero" fill="#ffffff" stroke="none" transform="matrix(1 0 0 1 1386 1288 )" />
  </g>
</svg>