<?xml version="1.0" encoding="utf-8"?>
<svg version="1.1" xmlns:xlink="http://www.w3.org/1999/xlink" width="14px" height="14px" viewBox="814 287  14 14" xmlns="http://www.w3.org/2000/svg">
  <path d="M 814.5 289  A 1.5 1.5 0 0 1 816 287.5 L 826 287.5  A 1.5 1.5 0 0 1 827.5 289 L 827.5 299  A 1.5 1.5 0 0 1 826 300.5 L 816 300.5  A 1.5 1.5 0 0 1 814.5 299 L 814.5 289  Z " fill-rule="nonzero" fill="#ffffff" stroke="none" />
  <path d="M 814.5 289  A 1.5 1.5 0 0 1 816 287.5 L 826 287.5  A 1.5 1.5 0 0 1 827.5 289 L 827.5 299  A 1.5 1.5 0 0 1 826 300.5 L 816 300.5  A 1.5 1.5 0 0 1 814.5 299 L 814.5 289  Z " stroke-width="1" stroke="#266ab9" fill="none" />
  <path d="M 817.5 294.5  L 820.5 297.5  " stroke-width="3" stroke="#266ab9" fill="none" />
  <path d="M 820.5 297.5  L 825.5 290.5  " stroke-width="3" stroke="#266ab9" fill="none" />
</svg>