<?xml version="1.0" encoding="utf-8"?>
<svg version="1.1" xmlns:xlink="http://www.w3.org/1999/xlink" width="14px" height="14px" viewBox="929 287  14 14" xmlns="http://www.w3.org/2000/svg">
  <path d="M 929.5 289  A 1.5 1.5 0 0 1 931 287.5 L 941 287.5  A 1.5 1.5 0 0 1 942.5 289 L 942.5 299  A 1.5 1.5 0 0 1 941 300.5 L 931 300.5  A 1.5 1.5 0 0 1 929.5 299 L 929.5 289  Z " fill-rule="nonzero" fill="#ffffff" stroke="none" />
  <path d="M 929.5 289  A 1.5 1.5 0 0 1 931 287.5 L 941 287.5  A 1.5 1.5 0 0 1 942.5 289 L 942.5 299  A 1.5 1.5 0 0 1 941 300.5 L 931 300.5  A 1.5 1.5 0 0 1 929.5 299 L 929.5 289  Z " stroke-width="1" stroke="#266ab9" fill="none" />
</svg>