<?xml version="1.0" encoding="utf-8"?>
<svg version="1.1" xmlns:xlink="http://www.w3.org/1999/xlink" width="14px" height="14px" viewBox="598 337  14 14" xmlns="http://www.w3.org/2000/svg">
  <path d="M 598.5 339  A 1.5 1.5 0 0 1 600 337.5 L 610 337.5  A 1.5 1.5 0 0 1 611.5 339 L 611.5 349  A 1.5 1.5 0 0 1 610 350.5 L 600 350.5  A 1.5 1.5 0 0 1 598.5 349 L 598.5 339  Z " fill-rule="nonzero" fill="#ffffff" stroke="none" />
  <path d="M 598.5 339  A 1.5 1.5 0 0 1 600 337.5 L 610 337.5  A 1.5 1.5 0 0 1 611.5 339 L 611.5 349  A 1.5 1.5 0 0 1 610 350.5 L 600 350.5  A 1.5 1.5 0 0 1 598.5 349 L 598.5 339  Z " stroke-width="1" stroke="#266ab9" fill="none" />
  <path d="M 601.5 344.5  L 604.5 347.5  " stroke-width="3" stroke="#266ab9" fill="none" />
  <path d="M 604.5 347.5  L 609.5 340.5  " stroke-width="3" stroke="#266ab9" fill="none" />
</svg>