<?xml version="1.0" encoding="utf-8"?>
<svg version="1.1" xmlns:xlink="http://www.w3.org/1999/xlink" width="14px" height="14px" viewBox="705 337  14 14" xmlns="http://www.w3.org/2000/svg">
  <path d="M 705.5 339  A 1.5 1.5 0 0 1 707 337.5 L 717 337.5  A 1.5 1.5 0 0 1 718.5 339 L 718.5 349  A 1.5 1.5 0 0 1 717 350.5 L 707 350.5  A 1.5 1.5 0 0 1 705.5 349 L 705.5 339  Z " fill-rule="nonzero" fill="#ffffff" stroke="none" />
  <path d="M 705.5 339  A 1.5 1.5 0 0 1 707 337.5 L 717 337.5  A 1.5 1.5 0 0 1 718.5 339 L 718.5 349  A 1.5 1.5 0 0 1 717 350.5 L 707 350.5  A 1.5 1.5 0 0 1 705.5 349 L 705.5 339  Z " stroke-width="1" stroke="#266ab9" fill="none" />
</svg>