<?xml version="1.0" encoding="utf-8"?>
<svg version="1.1" xmlns:xlink="http://www.w3.org/1999/xlink" width="14px" height="14px" viewBox="480 337  14 14" xmlns="http://www.w3.org/2000/svg">
  <path d="M 480.5 339  A 1.5 1.5 0 0 1 482 337.5 L 492 337.5  A 1.5 1.5 0 0 1 493.5 339 L 493.5 349  A 1.5 1.5 0 0 1 492 350.5 L 482 350.5  A 1.5 1.5 0 0 1 480.5 349 L 480.5 339  Z " fill-rule="nonzero" fill="#ffffff" stroke="none" />
  <path d="M 480.5 339  A 1.5 1.5 0 0 1 482 337.5 L 492 337.5  A 1.5 1.5 0 0 1 493.5 339 L 493.5 349  A 1.5 1.5 0 0 1 492 350.5 L 482 350.5  A 1.5 1.5 0 0 1 480.5 349 L 480.5 339  Z " stroke-width="1" stroke="#266ab9" fill="none" />
  <path d="M 483.5 344.5  L 486.5 347.5  " stroke-width="3" stroke="#266ab9" fill="none" />
  <path d="M 486.5 347.5  L 491.5 340.5  " stroke-width="3" stroke="#266ab9" fill="none" />
</svg>