<?xml version="1.0" encoding="utf-8"?>
<svg version="1.1" xmlns:xlink="http://www.w3.org/1999/xlink" width="14px" height="14px" viewBox="705 391  14 14" xmlns="http://www.w3.org/2000/svg">
  <path d="M 705.5 393  A 1.5 1.5 0 0 1 707 391.5 L 717 391.5  A 1.5 1.5 0 0 1 718.5 393 L 718.5 403  A 1.5 1.5 0 0 1 717 404.5 L 707 404.5  A 1.5 1.5 0 0 1 705.5 403 L 705.5 393  Z " fill-rule="nonzero" fill="#ffffff" stroke="none" />
  <path d="M 705.5 393  A 1.5 1.5 0 0 1 707 391.5 L 717 391.5  A 1.5 1.5 0 0 1 718.5 393 L 718.5 403  A 1.5 1.5 0 0 1 717 404.5 L 707 404.5  A 1.5 1.5 0 0 1 705.5 403 L 705.5 393  Z " stroke-width="1" stroke="#266ab9" fill="none" />
  <path d="M 708.5 398.5  L 711.5 401.5  " stroke-width="3" stroke="#266ab9" fill="none" />
  <path d="M 711.5 401.5  L 716.5 394.5  " stroke-width="3" stroke="#266ab9" fill="none" />
</svg>