<?xml version="1.0" encoding="utf-8"?>
<svg version="1.1" xmlns:xlink="http://www.w3.org/1999/xlink" width="14px" height="14px" viewBox="929 337  14 14" xmlns="http://www.w3.org/2000/svg">
  <path d="M 929.5 339  A 1.5 1.5 0 0 1 931 337.5 L 941 337.5  A 1.5 1.5 0 0 1 942.5 339 L 942.5 349  A 1.5 1.5 0 0 1 941 350.5 L 931 350.5  A 1.5 1.5 0 0 1 929.5 349 L 929.5 339  Z " fill-rule="nonzero" fill="#ffffff" stroke="none" />
  <path d="M 929.5 339  A 1.5 1.5 0 0 1 931 337.5 L 941 337.5  A 1.5 1.5 0 0 1 942.5 339 L 942.5 349  A 1.5 1.5 0 0 1 941 350.5 L 931 350.5  A 1.5 1.5 0 0 1 929.5 349 L 929.5 339  Z " stroke-width="1" stroke="#266ab9" fill="none" />
</svg>