<?xml version="1.0" encoding="utf-8"?>
<svg version="1.1" xmlns:xlink="http://www.w3.org/1999/xlink" width="14px" height="14px" viewBox="598 440  14 14" xmlns="http://www.w3.org/2000/svg">
  <path d="M 598.5 442  A 1.5 1.5 0 0 1 600 440.5 L 610 440.5  A 1.5 1.5 0 0 1 611.5 442 L 611.5 452  A 1.5 1.5 0 0 1 610 453.5 L 600 453.5  A 1.5 1.5 0 0 1 598.5 452 L 598.5 442  Z " fill-rule="nonzero" fill="#ffffff" stroke="none" />
  <path d="M 598.5 442  A 1.5 1.5 0 0 1 600 440.5 L 610 440.5  A 1.5 1.5 0 0 1 611.5 442 L 611.5 452  A 1.5 1.5 0 0 1 610 453.5 L 600 453.5  A 1.5 1.5 0 0 1 598.5 452 L 598.5 442  Z " stroke-width="1" stroke="#266ab9" fill="none" />
</svg>