<?xml version="1.0" encoding="utf-8"?>
<svg version="1.1" xmlns:xlink="http://www.w3.org/1999/xlink" width="14px" height="14px" viewBox="929 440  14 14" xmlns="http://www.w3.org/2000/svg">
  <path d="M 929.5 442  A 1.5 1.5 0 0 1 931 440.5 L 941 440.5  A 1.5 1.5 0 0 1 942.5 442 L 942.5 452  A 1.5 1.5 0 0 1 941 453.5 L 931 453.5  A 1.5 1.5 0 0 1 929.5 452 L 929.5 442  Z " fill-rule="nonzero" fill="#ffffff" stroke="none" />
  <path d="M 929.5 442  A 1.5 1.5 0 0 1 931 440.5 L 941 440.5  A 1.5 1.5 0 0 1 942.5 442 L 942.5 452  A 1.5 1.5 0 0 1 941 453.5 L 931 453.5  A 1.5 1.5 0 0 1 929.5 452 L 929.5 442  Z " stroke-width="1" stroke="#266ab9" fill="none" />
  <path d="M 932.5 447.5  L 935.5 450.5  " stroke-width="3" stroke="#266ab9" fill="none" />
  <path d="M 935.5 450.5  L 940.5 443.5  " stroke-width="3" stroke="#266ab9" fill="none" />
</svg>