<?xml version="1.0" encoding="utf-8"?>
<svg version="1.1" xmlns:xlink="http://www.w3.org/1999/xlink" width="14px" height="14px" viewBox="480 485  14 14" xmlns="http://www.w3.org/2000/svg">
  <path d="M 480.5 487  A 1.5 1.5 0 0 1 482 485.5 L 492 485.5  A 1.5 1.5 0 0 1 493.5 487 L 493.5 497  A 1.5 1.5 0 0 1 492 498.5 L 482 498.5  A 1.5 1.5 0 0 1 480.5 497 L 480.5 487  Z " fill-rule="nonzero" fill="#ffffff" stroke="none" />
  <path d="M 480.5 487  A 1.5 1.5 0 0 1 482 485.5 L 492 485.5  A 1.5 1.5 0 0 1 493.5 487 L 493.5 497  A 1.5 1.5 0 0 1 492 498.5 L 482 498.5  A 1.5 1.5 0 0 1 480.5 497 L 480.5 487  Z " stroke-width="1" stroke="#266ab9" fill="none" />
  <path d="M 483.5 492.5  L 486.5 495.5  " stroke-width="3" stroke="#266ab9" fill="none" />
  <path d="M 486.5 495.5  L 491.5 488.5  " stroke-width="3" stroke="#266ab9" fill="none" />
</svg>