<?xml version="1.0" encoding="utf-8"?>
<svg version="1.1" xmlns:xlink="http://www.w3.org/1999/xlink" width="14px" height="14px" viewBox="814 440  14 14" xmlns="http://www.w3.org/2000/svg">
  <path d="M 814.5 442  A 1.5 1.5 0 0 1 816 440.5 L 826 440.5  A 1.5 1.5 0 0 1 827.5 442 L 827.5 452  A 1.5 1.5 0 0 1 826 453.5 L 816 453.5  A 1.5 1.5 0 0 1 814.5 452 L 814.5 442  Z " fill-rule="nonzero" fill="#ffffff" stroke="none" />
  <path d="M 814.5 442  A 1.5 1.5 0 0 1 816 440.5 L 826 440.5  A 1.5 1.5 0 0 1 827.5 442 L 827.5 452  A 1.5 1.5 0 0 1 826 453.5 L 816 453.5  A 1.5 1.5 0 0 1 814.5 452 L 814.5 442  Z " stroke-width="1" stroke="#266ab9" fill="none" />
  <path d="M 817.5 447.5  L 820.5 450.5  " stroke-width="3" stroke="#266ab9" fill="none" />
  <path d="M 820.5 450.5  L 825.5 443.5  " stroke-width="3" stroke="#266ab9" fill="none" />
</svg>