<?xml version="1.0" encoding="utf-8"?>
<svg version="1.1" xmlns:xlink="http://www.w3.org/1999/xlink" width="14px" height="14px" viewBox="814 485  14 14" xmlns="http://www.w3.org/2000/svg">
  <path d="M 814.5 487  A 1.5 1.5 0 0 1 816 485.5 L 826 485.5  A 1.5 1.5 0 0 1 827.5 487 L 827.5 497  A 1.5 1.5 0 0 1 826 498.5 L 816 498.5  A 1.5 1.5 0 0 1 814.5 497 L 814.5 487  Z " fill-rule="nonzero" fill="#ffffff" stroke="none" />
  <path d="M 814.5 487  A 1.5 1.5 0 0 1 816 485.5 L 826 485.5  A 1.5 1.5 0 0 1 827.5 487 L 827.5 497  A 1.5 1.5 0 0 1 826 498.5 L 816 498.5  A 1.5 1.5 0 0 1 814.5 497 L 814.5 487  Z " stroke-width="1" stroke="#266ab9" fill="none" />
  <path d="M 817.5 492.5  L 820.5 495.5  " stroke-width="3" stroke="#266ab9" fill="none" />
  <path d="M 820.5 495.5  L 825.5 488.5  " stroke-width="3" stroke="#266ab9" fill="none" />
</svg>