<?xml version="1.0" encoding="utf-8"?>
<svg version="1.1" xmlns:xlink="http://www.w3.org/1999/xlink" width="14px" height="14px" viewBox="929 530  14 14" xmlns="http://www.w3.org/2000/svg">
  <path d="M 929.5 532  A 1.5 1.5 0 0 1 931 530.5 L 941 530.5  A 1.5 1.5 0 0 1 942.5 532 L 942.5 542  A 1.5 1.5 0 0 1 941 543.5 L 931 543.5  A 1.5 1.5 0 0 1 929.5 542 L 929.5 532  Z " fill-rule="nonzero" fill="#f0f0f0" stroke="none" />
  <path d="M 929.5 532  A 1.5 1.5 0 0 1 931 530.5 L 941 530.5  A 1.5 1.5 0 0 1 942.5 532 L 942.5 542  A 1.5 1.5 0 0 1 941 543.5 L 931 543.5  A 1.5 1.5 0 0 1 929.5 542 L 929.5 532  Z " stroke-width="1" stroke="#266ab9" fill="none" />
</svg>