<?xml version="1.0" encoding="utf-8"?>
<svg version="1.1" xmlns:xlink="http://www.w3.org/1999/xlink" width="14px" height="14px" viewBox="480 530  14 14" xmlns="http://www.w3.org/2000/svg">
  <path d="M 480.5 532  A 1.5 1.5 0 0 1 482 530.5 L 492 530.5  A 1.5 1.5 0 0 1 493.5 532 L 493.5 542  A 1.5 1.5 0 0 1 492 543.5 L 482 543.5  A 1.5 1.5 0 0 1 480.5 542 L 480.5 532  Z " fill-rule="nonzero" fill="#ffffff" stroke="none" />
  <path d="M 480.5 532  A 1.5 1.5 0 0 1 482 530.5 L 492 530.5  A 1.5 1.5 0 0 1 493.5 532 L 493.5 542  A 1.5 1.5 0 0 1 492 543.5 L 482 543.5  A 1.5 1.5 0 0 1 480.5 542 L 480.5 532  Z " stroke-width="1" stroke="#266ab9" fill="none" />
</svg>