<?xml version="1.0" encoding="utf-8"?>
<svg version="1.1" xmlns:xlink="http://www.w3.org/1999/xlink" width="14px" height="14px" viewBox="705 584  14 14" xmlns="http://www.w3.org/2000/svg">
  <path d="M 705.5 586  A 1.5 1.5 0 0 1 707 584.5 L 717 584.5  A 1.5 1.5 0 0 1 718.5 586 L 718.5 596  A 1.5 1.5 0 0 1 717 597.5 L 707 597.5  A 1.5 1.5 0 0 1 705.5 596 L 705.5 586  Z " fill-rule="nonzero" fill="#ffffff" stroke="none" />
  <path d="M 705.5 586  A 1.5 1.5 0 0 1 707 584.5 L 717 584.5  A 1.5 1.5 0 0 1 718.5 586 L 718.5 596  A 1.5 1.5 0 0 1 717 597.5 L 707 597.5  A 1.5 1.5 0 0 1 705.5 596 L 705.5 586  Z " stroke-width="1" stroke="#266ab9" fill="none" />
  <path d="M 708.5 591.5  L 711.5 594.5  " stroke-width="3" stroke="#266ab9" fill="none" />
  <path d="M 711.5 594.5  L 716.5 587.5  " stroke-width="3" stroke="#266ab9" fill="none" />
</svg>