<?xml version="1.0" encoding="utf-8"?>
<svg version="1.1" xmlns:xlink="http://www.w3.org/1999/xlink" width="14px" height="14px" viewBox="598 584  14 14" xmlns="http://www.w3.org/2000/svg">
  <path d="M 598.5 586  A 1.5 1.5 0 0 1 600 584.5 L 610 584.5  A 1.5 1.5 0 0 1 611.5 586 L 611.5 596  A 1.5 1.5 0 0 1 610 597.5 L 600 597.5  A 1.5 1.5 0 0 1 598.5 596 L 598.5 586  Z " fill-rule="nonzero" fill="#ffffff" stroke="none" />
  <path d="M 598.5 586  A 1.5 1.5 0 0 1 600 584.5 L 610 584.5  A 1.5 1.5 0 0 1 611.5 586 L 611.5 596  A 1.5 1.5 0 0 1 610 597.5 L 600 597.5  A 1.5 1.5 0 0 1 598.5 596 L 598.5 586  Z " stroke-width="1" stroke="#266ab9" fill="none" />
</svg>