<?xml version="1.0" encoding="utf-8"?>
<svg version="1.1" xmlns:xlink="http://www.w3.org/1999/xlink" width="14px" height="14px" viewBox="929 584  14 14" xmlns="http://www.w3.org/2000/svg">
  <path d="M 929.5 586  A 1.5 1.5 0 0 1 931 584.5 L 941 584.5  A 1.5 1.5 0 0 1 942.5 586 L 942.5 596  A 1.5 1.5 0 0 1 941 597.5 L 931 597.5  A 1.5 1.5 0 0 1 929.5 596 L 929.5 586  Z " fill-rule="nonzero" fill="#ffffff" stroke="none" />
  <path d="M 929.5 586  A 1.5 1.5 0 0 1 931 584.5 L 941 584.5  A 1.5 1.5 0 0 1 942.5 586 L 942.5 596  A 1.5 1.5 0 0 1 941 597.5 L 931 597.5  A 1.5 1.5 0 0 1 929.5 596 L 929.5 586  Z " stroke-width="1" stroke="#266ab9" fill="none" />
  <path d="M 932.5 591.5  L 935.5 594.5  " stroke-width="3" stroke="#266ab9" fill="none" />
  <path d="M 935.5 594.5  L 940.5 587.5  " stroke-width="3" stroke="#266ab9" fill="none" />
</svg>