<?xml version="1.0" encoding="utf-8"?>
<svg version="1.1" xmlns:xlink="http://www.w3.org/1999/xlink" width="14px" height="14px" viewBox="814 633  14 14" xmlns="http://www.w3.org/2000/svg">
  <path d="M 814.5 635  A 1.5 1.5 0 0 1 816 633.5 L 826 633.5  A 1.5 1.5 0 0 1 827.5 635 L 827.5 645  A 1.5 1.5 0 0 1 826 646.5 L 816 646.5  A 1.5 1.5 0 0 1 814.5 645 L 814.5 635  Z " fill-rule="nonzero" fill="#f0f0f0" stroke="none" />
  <path d="M 814.5 635  A 1.5 1.5 0 0 1 816 633.5 L 826 633.5  A 1.5 1.5 0 0 1 827.5 635 L 827.5 645  A 1.5 1.5 0 0 1 826 646.5 L 816 646.5  A 1.5 1.5 0 0 1 814.5 645 L 814.5 635  Z " stroke-width="1" stroke="#266ab9" fill="none" />
</svg>