<?xml version="1.0" encoding="utf-8"?>
<svg version="1.1" xmlns:xlink="http://www.w3.org/1999/xlink" width="14px" height="14px" viewBox="480 678  14 14" xmlns="http://www.w3.org/2000/svg">
  <path d="M 480.5 680  A 1.5 1.5 0 0 1 482 678.5 L 492 678.5  A 1.5 1.5 0 0 1 493.5 680 L 493.5 690  A 1.5 1.5 0 0 1 492 691.5 L 482 691.5  A 1.5 1.5 0 0 1 480.5 690 L 480.5 680  Z " fill-rule="nonzero" fill="#f0f0f0" stroke="none" />
  <path d="M 480.5 680  A 1.5 1.5 0 0 1 482 678.5 L 492 678.5  A 1.5 1.5 0 0 1 493.5 680 L 493.5 690  A 1.5 1.5 0 0 1 492 691.5 L 482 691.5  A 1.5 1.5 0 0 1 480.5 690 L 480.5 680  Z " stroke-width="1" stroke="#266ab9" fill="none" />
</svg>