<?xml version="1.0" encoding="utf-8"?>
<svg version="1.1" xmlns:xlink="http://www.w3.org/1999/xlink" width="14px" height="14px" viewBox="705 678  14 14" xmlns="http://www.w3.org/2000/svg">
  <path d="M 705.5 680  A 1.5 1.5 0 0 1 707 678.5 L 717 678.5  A 1.5 1.5 0 0 1 718.5 680 L 718.5 690  A 1.5 1.5 0 0 1 717 691.5 L 707 691.5  A 1.5 1.5 0 0 1 705.5 690 L 705.5 680  Z " fill-rule="nonzero" fill="#f0f0f0" stroke="none" />
  <path d="M 705.5 680  A 1.5 1.5 0 0 1 707 678.5 L 717 678.5  A 1.5 1.5 0 0 1 718.5 680 L 718.5 690  A 1.5 1.5 0 0 1 717 691.5 L 707 691.5  A 1.5 1.5 0 0 1 705.5 690 L 705.5 680  Z " stroke-width="1" stroke="#266ab9" fill="none" />
</svg>