<?xml version="1.0" encoding="utf-8"?>
<svg version="1.1" xmlns:xlink="http://www.w3.org/1999/xlink" width="14px" height="14px" viewBox="1038 288  14 14" xmlns="http://www.w3.org/2000/svg">
  <path d="M 1038.5 290  A 1.5 1.5 0 0 1 1040 288.5 L 1050 288.5  A 1.5 1.5 0 0 1 1051.5 290 L 1051.5 300  A 1.5 1.5 0 0 1 1050 301.5 L 1040 301.5  A 1.5 1.5 0 0 1 1038.5 300 L 1038.5 290  Z " fill-rule="nonzero" fill="#ffffff" stroke="none" />
  <path d="M 1038.5 290  A 1.5 1.5 0 0 1 1040 288.5 L 1050 288.5  A 1.5 1.5 0 0 1 1051.5 290 L 1051.5 300  A 1.5 1.5 0 0 1 1050 301.5 L 1040 301.5  A 1.5 1.5 0 0 1 1038.5 300 L 1038.5 290  Z " stroke-width="1" stroke="#266ab9" fill="none" />
</svg>