<?xml version="1.0" encoding="utf-8"?>
<svg version="1.1" xmlns:xlink="http://www.w3.org/1999/xlink" width="14px" height="14px" viewBox="1263 337  14 14" xmlns="http://www.w3.org/2000/svg">
  <path d="M 1263.5 339  A 1.5 1.5 0 0 1 1265 337.5 L 1275 337.5  A 1.5 1.5 0 0 1 1276.5 339 L 1276.5 349  A 1.5 1.5 0 0 1 1275 350.5 L 1265 350.5  A 1.5 1.5 0 0 1 1263.5 349 L 1263.5 339  Z " fill-rule="nonzero" fill="#f0f0f0" stroke="none" />
  <path d="M 1263.5 339  A 1.5 1.5 0 0 1 1265 337.5 L 1275 337.5  A 1.5 1.5 0 0 1 1276.5 339 L 1276.5 349  A 1.5 1.5 0 0 1 1275 350.5 L 1265 350.5  A 1.5 1.5 0 0 1 1263.5 349 L 1263.5 339  Z " stroke-width="1" stroke="#266ab9" fill="none" />
</svg>