<?xml version="1.0" encoding="utf-8"?>
<svg version="1.1" xmlns:xlink="http://www.w3.org/1999/xlink" width="14px" height="14px" viewBox="1263 391  14 14" xmlns="http://www.w3.org/2000/svg">
  <path d="M 1263.5 393  A 1.5 1.5 0 0 1 1265 391.5 L 1275 391.5  A 1.5 1.5 0 0 1 1276.5 393 L 1276.5 403  A 1.5 1.5 0 0 1 1275 404.5 L 1265 404.5  A 1.5 1.5 0 0 1 1263.5 403 L 1263.5 393  Z " fill-rule="nonzero" fill="#ffffff" stroke="none" />
  <path d="M 1263.5 393  A 1.5 1.5 0 0 1 1265 391.5 L 1275 391.5  A 1.5 1.5 0 0 1 1276.5 393 L 1276.5 403  A 1.5 1.5 0 0 1 1275 404.5 L 1265 404.5  A 1.5 1.5 0 0 1 1263.5 403 L 1263.5 393  Z " stroke-width="1" stroke="#266ab9" fill="none" />
</svg>