<?xml version="1.0" encoding="utf-8"?>
<svg version="1.1" xmlns:xlink="http://www.w3.org/1999/xlink" width="14px" height="14px" viewBox="1038 530  14 14" xmlns="http://www.w3.org/2000/svg">
  <path d="M 1038.5 532  A 1.5 1.5 0 0 1 1040 530.5 L 1050 530.5  A 1.5 1.5 0 0 1 1051.5 532 L 1051.5 542  A 1.5 1.5 0 0 1 1050 543.5 L 1040 543.5  A 1.5 1.5 0 0 1 1038.5 542 L 1038.5 532  Z " fill-rule="nonzero" fill="#ffffff" stroke="none" />
  <path d="M 1038.5 532  A 1.5 1.5 0 0 1 1040 530.5 L 1050 530.5  A 1.5 1.5 0 0 1 1051.5 532 L 1051.5 542  A 1.5 1.5 0 0 1 1050 543.5 L 1040 543.5  A 1.5 1.5 0 0 1 1038.5 542 L 1038.5 532  Z " stroke-width="1" stroke="#266ab9" fill="none" />
  <path d="M 1041.5 537.5  L 1044.5 540.5  " stroke-width="3" stroke="#266ab9" fill="none" />
  <path d="M 1044.5 540.5  L 1049.5 533.5  " stroke-width="3" stroke="#266ab9" fill="none" />
</svg>