<?xml version="1.0" encoding="utf-8"?>
<svg version="1.1" xmlns:xlink="http://www.w3.org/1999/xlink" width="14px" height="14px" viewBox="1263 530  14 14" xmlns="http://www.w3.org/2000/svg">
  <path d="M 1263.5 532  A 1.5 1.5 0 0 1 1265 530.5 L 1275 530.5  A 1.5 1.5 0 0 1 1276.5 532 L 1276.5 542  A 1.5 1.5 0 0 1 1275 543.5 L 1265 543.5  A 1.5 1.5 0 0 1 1263.5 542 L 1263.5 532  Z " fill-rule="nonzero" fill="#f0f0f0" stroke="none" />
  <path d="M 1263.5 532  A 1.5 1.5 0 0 1 1265 530.5 L 1275 530.5  A 1.5 1.5 0 0 1 1276.5 532 L 1276.5 542  A 1.5 1.5 0 0 1 1275 543.5 L 1265 543.5  A 1.5 1.5 0 0 1 1263.5 542 L 1263.5 532  Z " stroke-width="1" stroke="#266ab9" fill="none" />
</svg>