<?xml version="1.0" encoding="utf-8"?>
<svg version="1.1" xmlns:xlink="http://www.w3.org/1999/xlink" width="14px" height="14px" viewBox="1156 584  14 14" xmlns="http://www.w3.org/2000/svg">
  <path d="M 1156.5 586  A 1.5 1.5 0 0 1 1158 584.5 L 1168 584.5  A 1.5 1.5 0 0 1 1169.5 586 L 1169.5 596  A 1.5 1.5 0 0 1 1168 597.5 L 1158 597.5  A 1.5 1.5 0 0 1 1156.5 596 L 1156.5 586  Z " fill-rule="nonzero" fill="#f0f0f0" stroke="none" />
  <path d="M 1156.5 586  A 1.5 1.5 0 0 1 1158 584.5 L 1168 584.5  A 1.5 1.5 0 0 1 1169.5 586 L 1169.5 596  A 1.5 1.5 0 0 1 1168 597.5 L 1158 597.5  A 1.5 1.5 0 0 1 1156.5 596 L 1156.5 586  Z " stroke-width="1" stroke="#266ab9" fill="none" />
</svg>