<?xml version="1.0" encoding="utf-8"?>
<svg version="1.1" xmlns:xlink="http://www.w3.org/1999/xlink" width="14px" height="14px" viewBox="1038 584  14 14" xmlns="http://www.w3.org/2000/svg">
  <path d="M 1038.5 586  A 1.5 1.5 0 0 1 1040 584.5 L 1050 584.5  A 1.5 1.5 0 0 1 1051.5 586 L 1051.5 596  A 1.5 1.5 0 0 1 1050 597.5 L 1040 597.5  A 1.5 1.5 0 0 1 1038.5 596 L 1038.5 586  Z " fill-rule="nonzero" fill="#ffffff" stroke="none" />
  <path d="M 1038.5 586  A 1.5 1.5 0 0 1 1040 584.5 L 1050 584.5  A 1.5 1.5 0 0 1 1051.5 586 L 1051.5 596  A 1.5 1.5 0 0 1 1050 597.5 L 1040 597.5  A 1.5 1.5 0 0 1 1038.5 596 L 1038.5 586  Z " stroke-width="1" stroke="#266ab9" fill="none" />
  <path d="M 1041.5 591.5  L 1044.5 594.5  " stroke-width="3" stroke="#266ab9" fill="none" />
  <path d="M 1044.5 594.5  L 1049.5 587.5  " stroke-width="3" stroke="#266ab9" fill="none" />
</svg>