<?xml version="1.0" encoding="utf-8"?>
<svg version="1.1" xmlns:xlink="http://www.w3.org/1999/xlink" width="14px" height="14px" viewBox="1263 584  14 14" xmlns="http://www.w3.org/2000/svg">
  <path d="M 1263.5 586  A 1.5 1.5 0 0 1 1265 584.5 L 1275 584.5  A 1.5 1.5 0 0 1 1276.5 586 L 1276.5 596  A 1.5 1.5 0 0 1 1275 597.5 L 1265 597.5  A 1.5 1.5 0 0 1 1263.5 596 L 1263.5 586  Z " fill-rule="nonzero" fill="#ffffff" stroke="none" />
  <path d="M 1263.5 586  A 1.5 1.5 0 0 1 1265 584.5 L 1275 584.5  A 1.5 1.5 0 0 1 1276.5 586 L 1276.5 596  A 1.5 1.5 0 0 1 1275 597.5 L 1265 597.5  A 1.5 1.5 0 0 1 1263.5 596 L 1263.5 586  Z " stroke-width="1" stroke="#266ab9" fill="none" />
  <path d="M 1266.5 591.5  L 1269.5 594.5  " stroke-width="3" stroke="#266ab9" fill="none" />
  <path d="M 1269.5 594.5  L 1274.5 587.5  " stroke-width="3" stroke="#266ab9" fill="none" />
</svg>