<?xml version="1.0" encoding="utf-8"?>
<svg version="1.1" xmlns:xlink="http://www.w3.org/1999/xlink" width="55px" height="57px" xmlns="http://www.w3.org/2000/svg">
  <g transform="matrix(1 0 0 1 -607 -798 )">
    <path d="M 21.9709035799794 46.3652198024446  L 15.9085440294176 56.947802220027  C 15.9085440294176 56.947802220027  12.7650983146067 53.363379143104  9.79005147620041 50.4048076700828  C 6.6185393258427 49.5229257797261  3.4189606741573 48.6979395382147  0.191315521144227 47.9298488788741  L 6.73080526537263 36.4653846376095  C 10.1829822316648 41.0170330114827  16.2453417822266 44.9428297147794  21.9709035799794 46.3652198024446  Z M 54.8086844788558 47.9298488788741  C 54.7806179775281 47.9582967032967  49.98125 48.641043956044  45.74321158856 49.8358516483516  C 42.7681647501536 52.7944230546982  39.0633894692547 56.947802220027  39.0633895350356 56.947802220027  L 33.0571629213483 46.3652198024446  C 38.7827247191011 44.9428297147794  44.2837547035749 41.0454807692308  47.735931669867 36.4653846376095  L 54.8086844788558 47.9298488788741  Z M 48.6621254900917 21.5587362415114  C 48.6621255558725 9.98048076923076  38.8669241573034 0.0521977799729563  27.4719334986723 0.0521977799729563  C 16.0769428400413 0.0521977799729563  6.28174157303371 10.549436790962  6.28174157303371 22.1276923299172  C 6.28174157303371 33.7059478688723  16.0769429058221 43.0652747697244  27.4719334986723 43.0652747030499  C 38.8669240915226 43.0652746363753  48.6621254243109 33.1369917137921  48.6621254900917 21.5587362415114  Z M 39.6808520379982 17.2346703296703  C 40.5789793568952 18.1734478021978  40.6070458582229 19.7096291208791  39.7089185393259 20.6199587689839  L 36.004143258427 24.5173077145325  C 35.4989466292135 25.029368154093  35.2463483146067 25.769010989011  35.4147471910112 26.508653823929  L 35.4147471910112 26.5939972305224  L 36.2567415730337 31.8852884393136  C 36.3409410112359 32.397348878874  36.2567415730337 32.9378571428571  36.004143258427 33.3645741758242  C 35.3586142541367 34.5309340437092  33.9272238046985 34.9860989010989  32.7764981054139 34.3317994727743  L 28.510393258427 32.0275274947523  C 27.836797752809 31.657706043956  26.9948033707865 31.657706043956  26.3212078651685 32.1128709013457  L 22.1673688919307 34.3602472305224  C 21.6902387640449 34.6162774503026  21.1850421348314 34.6731730324734  20.6517790042903 34.6162774503026  C 19.3887874312566 34.4171428126932  18.4906601123595 33.1654395382147  18.6871254900917 31.8852884393136  L 19.5571863076611 26.3948626595875  C 19.6413857458633 25.7405632312629  19.4449203681311 25.1147115606864  18.995856741573 24.6310988788741  L 15.2630149593465 20.6199587689839  C 14.9542837078652 20.2501373181877  14.7016853932584 19.7665247030499  14.6174859550562 19.2829120879121  C 14.421020577324 18.002760989011  15.3472143975487 16.7795054722806  16.6102059705824 16.5803709013457  L 21.3815075125636 15.8122802420051  C 22.1393024563839 15.7838324175824  22.8128979620018 15.3002198024446  23.1216292134831 14.5890247252747  L 25.3108146067416 9.86668953821472  C 25.7037452964251 9.07015105445141  26.5457396784476 8.50119503272021  27.4719334986723 8.50119503272021  C 28.398127318897 8.50119503272021  29.2120551995918 9.01325547228065  29.6330524563839 9.86668953821472  L 31.7941713483146 14.5605769008521  C 32.1029025997959 15.3002197357701  32.7764981054139 15.7838324175824  33.5904260518895 15.8407279997532  L 38.3617275280899 16.5803709013457  C 38.8388576559757 16.6657143079391  39.3159878496423 16.8932967032967  39.6808520379982 17.2346703296703  Z " fill-rule="nonzero" fill="#f09c9c" stroke="none" transform="matrix(1 0 0 1 607 798 )" />
  </g>
</svg>