<?xml version="1.0" encoding="utf-8"?>
<svg version="1.1" xmlns:xlink="http://www.w3.org/1999/xlink" width="19px" height="19px" xmlns="http://www.w3.org/2000/svg">
  <g transform="matrix(1 0 0 1 -524 -880 )">
    <path d="M 18.9463276769068 9.5  C 18.9463276769068 14.7169491525424  14.7169491525424 18.9463276769068  9.5 18.9463276769068  C 4.28305084745763 18.9463276769068  0.0536723230932203 14.7169491525424  0.0536723230932203 9.5  C 0.0536723230932203 4.28305084745763  4.28305084745763 0.0536723230932203  9.5 0.0536723230932203  C 14.7169491525424 0.0536723230932203  18.9463276769068 4.28305084745763  18.9463276769068 9.5  Z M 14.9007231705508 5.16499435699152  L 8.48494915254237 12.3828474576271  L 5.44666665995763 9.34542372881356  C 5.32744612750976 9.23433290403658  5.1705474945917 9.17256309935946  5.00759134494775 9.17256309935946  C 4.65188252302283 9.17256309935946  4.36352354833758 9.46092207404472  4.36352354833758 9.81663089596964  C 4.36352354833758 9.97958705053148  4.42529335673432 10.1364856878088  4.5363841875 10.2557062213983  L 8.05299435699153 13.7731751345339  C 8.05526725131233 13.7754822162917  8.05755733168076 13.7777723033693  8.05986440677966 13.7800452044492  L 8.06501694915254 13.7843389830508  C 8.18579546853014 13.9050678438869  8.3495764921485 13.9728884387238  8.52034800201421 13.9728884387238  C 8.74638252737172 13.9728884387238  8.95587420541588 13.8543982856968  9.07233898305085 13.6606779661017  L 15.8642485942797 6.02031639088983  C 15.9688909532472 5.90243614313723  16.026682479706 5.75028080368  16.026682479706 5.59265537394068  C 16.026682479706 5.23687541736413  15.7382658389918 4.94845877664997  15.3824858824153 4.94845877664997  C 15.1983297917732 4.94845877664997  15.0229783661427 5.02727314268028  14.9007231705508 5.16499435699152  Z " fill-rule="nonzero" fill="#75d747" stroke="none" transform="matrix(1 0 0 1 524 880 )" />
  </g>
</svg>