<?xml version="1.0" encoding="utf-8"?>
<svg version="1.1" xmlns:xlink="http://www.w3.org/1999/xlink" width="60px" height="28px" xmlns="http://www.w3.org/2000/svg">
  <g transform="matrix(1 0 0 1 -1002 -1119 )">
    <path d="M 1032 1119  C 1048.8 1119  1062 1125.16  1062 1133  C 1062 1140.84  1048.8 1147  1032 1147  C 1015.2 1147  1002 1140.84  1002 1133  C 1002 1125.16  1015.2 1119  1032 1119  Z " fill-rule="nonzero" fill="#ffffff" stroke="none" fill-opacity="0" />
    <path d="M 1032 1119.5  C 1048.52 1119.5  1061.5 1125.44  1061.5 1133  C 1061.5 1140.56  1048.52 1146.5  1032 1146.5  C 1015.48 1146.5  1002.5 1140.56  1002.5 1133  C 1002.5 1125.44  1015.48 1119.5  1032 1119.5  Z " stroke-width="1" stroke="#fff2f2" fill="none" />
  </g>
</svg>