<?xml version="1.0" encoding="utf-8"?>
<svg version="1.1" xmlns:xlink="http://www.w3.org/1999/xlink" width="182px" height="56px" xmlns="http://www.w3.org/2000/svg">
  <defs>
    <filter x="848px" y="1621px" width="182px" height="56px" filterUnits="userSpaceOnUse" id="filter202">
      <feOffset dx="0" dy="0" in="SourceAlpha" result="shadowOffsetInner" />
      <feGaussianBlur stdDeviation="3" in="shadowOffsetInner" result="shadowGaussian" />
      <feComposite in2="shadowGaussian" operator="atop" in="SourceAlpha" result="shadowComposite" />
      <feColorMatrix type="matrix" values="0 0 0 0 0.827450980392157  0 0 0 0 0.874509803921569  0 0 0 0 0.901960784313726  0 0 0 0.349019607843137 0  " in="shadowComposite" />
    </filter>
    <g id="widget203">
      <path d="M 854.5 1649  A 21.5 21.5 0 0 1 876 1627.5 L 1002 1627.5  A 21.5 21.5 0 0 1 1023.5 1649 A 21.5 21.5 0 0 1 1002 1670.5 L 876 1670.5  A 21.5 21.5 0 0 1 854.5 1649 Z " fill-rule="nonzero" fill="#2a76f9" stroke="none" fill-opacity="0" />
      <path d="M 854.5 1649  A 21.5 21.5 0 0 1 876 1627.5 L 1002 1627.5  A 21.5 21.5 0 0 1 1023.5 1649 A 21.5 21.5 0 0 1 1002 1670.5 L 876 1670.5  A 21.5 21.5 0 0 1 854.5 1649 Z " stroke-width="1" stroke="#2a76f9" fill="none" />
    </g>
  </defs>
  <g transform="matrix(1 0 0 1 -848 -1621 )">
    <use xlink:href="#widget203" filter="url(#filter202)" />
    <use xlink:href="#widget203" />
  </g>
</svg>