<?xml version="1.0" encoding="utf-8"?>
<svg version="1.1" xmlns:xlink="http://www.w3.org/1999/xlink" width="26px" height="21px" xmlns="http://www.w3.org/2000/svg">
  <g transform="matrix(1 0 0 1 -1884 207 )">
    <path d="M 17.5568729508197 6.34004464285714  C 17.8499057377049 6.34004464285714  18.1429385245902 6.36725892857143  18.4344528688525 6.39297321428571  C 17.6502704918033 2.73385714285714  13.7164918032787 0  9.23535450819672 0  C 4.22438729508197 0.0176785714285713  0.118385245901638 3.42302678571429  0.118385245901638 7.747125  C 0.118385245901638 10.2400178571429  1.4870881147541 12.2960625  3.76064959016393 13.8879107142857  L 2.84295081967213 16.6186607142857  L 6.03423770491803 15.0284464285714  C 7.17754508196721 15.2533125  8.0953237704918 15.4781785714286  9.22408606557377 15.4781785714286  C 9.51711885245902 15.4781785714286  9.79576639344262 15.4653214285714  10.0742540983607 15.4395535714286  C 9.89327543185191 14.8185940268092  9.7995298775338 14.175241493713  9.79573975409836 13.5281785714286  C 9.80865983606558 9.56383928571428  13.2253954918033 6.34165178571428  17.5585245901639 6.34165178571428  L 17.5569262295082 6.34004464285714  Z M 11.283493852459 5.01634821428571  C 11.283493852459 4.32570535714286  11.9742520491803 3.87597321428571  12.6522233606557 3.87597321428571  C 13.3445799180328 3.87597321428571  13.7953975409836 4.32570535714286  13.7953975409836 5.016375  C 13.7953975409836 5.69105357142857  13.3445799180328 6.15688392857143  12.6522233606557 6.15688392857143  C 11.9742520491803 6.15688392857143  11.283493852459 5.70554464285714  11.283493852459 5.01634821428571  Z M 7.4142356557377 5.016375  C 7.4142356557377 5.69105357142857  6.96339139344262 6.15688392857143  6.27092827868852 6.15688392857143  C 5.59471516393442 6.15688392857143  4.90235860655738 5.70554464285714  4.90235860655738 5.01634821428571  C 4.90235860655738 4.32570535714286  5.59471516393443 3.87597321428571  6.27092827868852 3.87597321428571  C 6.94889959016393 3.87597321428571  7.4142356557377 4.32570535714286  7.4142356557377 5.016375  Z M 22.6772745901639 18.6842410714286  C 24.5129118852459 17.2932589285714  25.8816147540984 15.4749107142857  25.8816147540984 13.4333571428571  C 25.8816147540984 9.79995535714286  22.2393504098361 6.82995535714286  18.1300184426229 6.82995535714286  C 13.7969959016393 6.82995535714286  10.3801536885246 9.79995535714286  10.3801536885246 13.4333571428571  C 10.3801536885246 17.0796428571429  13.7969959016393 20.0383660714286  18.1300184426229 20.0383660714286  C 19.0350102459016 20.0383660714286  19.952762295082 19.8135  20.8690225409836 19.5870267857143  L 23.3680327868852 20.952375  L 22.6772745901639 18.6842410714286  Z M 15.6181413934426 12.2928214285714  C 15.1673237704918 12.2928214285714  14.700362704918 11.8430892857143  14.700362704918 11.3773125  C 14.700362704918 10.9275803571429  15.1673237704918 10.4617767857143  15.6181413934426 10.4617767857143  C 16.3104979508197 10.4617767857143  16.7614487704918 10.9131160714286  16.7614487704918 11.3773125  C 16.7614487704918 11.8431160714286  16.3104979508197 12.2928482142857  15.6181413934426 12.2928482142857  Z M 20.6307336065574 12.2928214285714  C 20.1782909836066 12.2928214285714  19.7257418032787 11.8430892857143  19.7257418032787 11.3773125  C 19.7257418032787 10.9275803571429  20.1766659836066 10.4617767857143  20.6307336065574 10.4617767857143  C 21.3214918032787 10.4617767857143  21.7739077868852 10.9131160714286  21.7739077868852 11.3773125  C 21.7739077868852 11.8431160714286  21.3214918032787 12.2928482142857  20.6307336065574 12.2928482142857  Z " fill-rule="nonzero" fill="#09bb07" stroke="none" transform="matrix(1 0 0 1 1884 -207 )" />
  </g>
</svg>