<?xml version="1.0" encoding="utf-8"?>
<svg version="1.1" xmlns:xlink="http://www.w3.org/1999/xlink" width="346px" height="64px" xmlns="http://www.w3.org/2000/svg">
  <defs>
    <filter x="-990px" y="744px" width="346px" height="64px" filterUnits="userSpaceOnUse" id="filter160">
      <feOffset dx="0" dy="0" in="SourceAlpha" result="shadowOffsetInner" />
      <feGaussianBlur stdDeviation="3" in="shadowOffsetInner" result="shadowGaussian" />
      <feComposite in2="shadowGaussian" operator="atop" in="SourceAlpha" result="shadowComposite" />
      <feColorMatrix type="matrix" values="0 0 0 0 0.827450980392157  0 0 0 0 0.874509803921569  0 0 0 0 0.901960784313726  0 0 0 0.349019607843137 0  " in="shadowComposite" />
    </filter>
    <g id="widget161">
      <path d="M -983.5 758  A 7.5 7.5 0 0 1 -976 750.5 L -658 750.5  A 7.5 7.5 0 0 1 -650.5 758 L -650.5 794  A 7.5 7.5 0 0 1 -658 801.5 L -976 801.5  A 7.5 7.5 0 0 1 -983.5 794 L -983.5 758  Z " fill-rule="nonzero" fill="#2a76f9" stroke="none" fill-opacity="0" />
      <path d="M -983.5 758  A 7.5 7.5 0 0 1 -976 750.5 L -658 750.5  A 7.5 7.5 0 0 1 -650.5 758 L -650.5 794  A 7.5 7.5 0 0 1 -658 801.5 L -976 801.5  A 7.5 7.5 0 0 1 -983.5 794 L -983.5 758  Z " stroke-width="1" stroke="#2a76f9" fill="none" />
    </g>
  </defs>
  <g transform="matrix(1 0 0 1 990 -744 )">
    <use xlink:href="#widget161" filter="url(#filter160)" />
    <use xlink:href="#widget161" />
  </g>
</svg>