<?xml version="1.0" encoding="utf-8"?>
<svg version="1.1" xmlns:xlink="http://www.w3.org/1999/xlink" width="8px" height="15px" xmlns="http://www.w3.org/2000/svg">
  <g transform="matrix(1 0 0 1 -1640 -2187 )">
    <path d="M 1.21303601886792 14.7073863671875  C 1.08130360377359 14.84375  0.905660377358491 14.8892045507813  0.773927962264151 14.8892045507813  C 0.598284735849057 14.8892045507813  0.422641509433963 14.84375  0.290909094339623 14.7073863671875  C 0.0274442641509433 14.4346591015625  0.0274442641509433 14.0255681835937  0.290909094339623 13.7528409179688  L 6.35060033962264 7.4801136328125  L 0.290909094339623 1.2073863671875  C 0.0274442641509433 0.9346591015625  0.0274442641509433 0.52556818359375  0.290909094339623 0.25284091796875  C 0.554373924528302 -0.01988634765625  0.949571188679245 -0.01988634765625  1.21303601886792 0.25284091796875  L 7.71183533962264 6.9801136328125  C 7.97530016981132 7.2528408984375  7.97530016981132 7.66193181640625  7.71183533962264 7.93465908203125  L 1.21303601886792 14.7073863671875  Z " fill-rule="nonzero" fill="#80b6f6" stroke="none" transform="matrix(1 0 0 1 1640 2187 )" />
  </g>
</svg>