<?xml version="1.0" encoding="utf-8"?>
<svg version="1.1" xmlns:xlink="http://www.w3.org/1999/xlink" width="17px" height="22px" xmlns="http://www.w3.org/2000/svg">
  <g transform="matrix(1 0 0 1 -488 -236 )">
    <path d="M 15.725 10.2290178571429  L 11 10.2290178571429  L 11 20.8607142857143  C 11.3244791666667 21.45  10.890625 21.93125  10.359375 21.93125  L 6.49895833333333 21.93125  C 5.96770833333333 21.93125  5.53385416666667 21.45  5.53385416666667 20.8607142857143  L 5.53385416666667 10.2290178571429  L 1.275 10.2290178571429  C 0.743750000000001 10.2290178571429  0.309895833333333 9.75267857142857  0.309895833333333 9.15848214285714  C 0.309895833333333 8.87366071428571  0.41171875 8.59866071428572  0.593229166666666 8.39732142857143  L 7.82265625 0.383035714285715  C 8.19895833333333 -0.0343749999999994  8.80989583333333 -0.0343749999999994  9.18619791666667 0.383035714285715  L 16.4111979166667 8.40223214285714  C 16.7875 8.81964285714286  16.7875 9.49732142857143  16.4111979166667 9.91473214285715  C 16.2296875 10.1160714285714  15.9817708333333 10.2290178571429  15.725 10.2290178571429  Z " fill-rule="nonzero" fill="#ea5858" stroke="none" transform="matrix(1 0 0 1 488 236 )" />
  </g>
</svg>