<?xml version="1.0" encoding="utf-8"?>
<svg version="1.1" xmlns:xlink="http://www.w3.org/1999/xlink" width="31px" height="24px" xmlns="http://www.w3.org/2000/svg">
  <g transform="matrix(1 0 0 1 -241 -170 )">
    <path d="M 3.60621874404762 7.39968277894737  C 3.60621874404762 10.1903965578947  5.76320938492063 12.4495458  8.52415743353174 12.4495457684211  C 9.30067406547619 12.4495457684211  10.0771906974206 12.2723575894737  10.8105675079365 11.8736842105263  C 11.3282452728175 11.6079019578947  11.5439443184524 10.9434462947368  11.2851054513889 10.3675847052632  C 11.0262665843254 9.83602016842105  10.3791693859127 9.61453496842105  9.81835183035714 9.88031722105263  C 9.43009349900794 10.1018024526316  8.99869537698413 10.1903965263158  8.52415743353174 10.1903965263158  C 6.97112416964286 10.1903965263158  5.72006959424603 8.90578225263158  5.72006959424603 7.31108867368421  C 5.72006959424603 5.71639509473684  6.97112416964286 4.43178082105263  8.52415743353174 4.43178082105263  C 8.69671668849206 4.43178082105263  8.91241576488095 4.43178082105263  9.0849749890873 4.47607787368421  C 9.34381385615079 4.52037492631579  9.60265275396825 4.47607787368421  9.81835183035714 4.34318674736842  C 9.64579257539683 4.87475128421053  9.55951296329365 5.45061284210526  9.55951293253968 6.07077145263158  C 9.55951293253968 9.34875271578947  12.1479017261905 11.9622783157895  15.2971080753968 11.9622782842105  C 18.4463144246032 11.9622782526316  21.0778430089286 9.34875271578947  21.0778430089286 6.07077145263158  C 21.0778430089286 5.40631578947369  20.9484235753968 4.78615717894737  20.7758643204365 4.16599856842105  C 21.0347031875 4.43178082105263  21.3798216974206 4.52037492631579  21.7680800287698 4.47607787368421  C 21.9406392837302 4.43178082105263  22.156338360119 4.43178082105263  22.3288975843254 4.43178082105263  C 23.8819308482143 4.43178082105263  25.1329854236111 5.71639509473684  25.1329854236111 7.31108867368421  C 25.1329854236111 8.90578225263158  23.8819308482143 10.1903965263158  22.3288975843254 10.1903965263158  C 21.854359640873 10.1903965263158  21.4229615188492 10.1018024526316  21.0347031875 9.88031722105263  C 20.517025422619 9.61453496842105  19.8699282242064 9.83602016842105  19.5679495664683 10.3675847052632  C 19.3091106994048 10.8991492421053  19.5248097450397 11.5636049052632  20.0424875099206 11.8736842105263  C 20.7327245297619 12.228060568421  21.5092411617063 12.4495457684211  22.3288975843254 12.4495457684211  C 25.0898456021825 12.4495457684211  27.2899760644841 10.1460994736842  27.2899760952381 7.35538572631579  C 27.2899761259921 4.56467197894737  25.0467058115079 2.26122568421053  22.3288975843254 2.26122565263158  C 21.9837790744048 2.26122565263158  21.6386605644841 2.30552270526316  21.3366818759921 2.34981975789474  C 20.8190041111111 2.43841383157895  20.4738856011905 2.92568131578947  20.4738856319444 3.45724585263158  C 19.5248097450397 1.55247296842105  17.5835181498016 0.223561642105264  15.3402478660714 0.223561642105264  C 13.226397015873 0.223561642105264  11.3713850634921 1.41958184210526  10.3791693859127 3.1914636  C 10.2928897738095 2.79279018947369  9.99091105456349 2.48271088421053  9.55951293253968 2.39411681052632  C 9.21439442261905 2.30552273684211  8.91241573412698 2.30552273684211  8.56729722420635 2.30552270526316  C 5.80634920634921 2.30552270526316  3.60621874404762 4.608969  3.60621874404762 7.39968277894737  Z M 11.7165035734127 6.07077145263158  C 11.7165035426587 4.03310744210526  13.3126766587302 2.39411681052632  15.2971080753968 2.39411681052632  C 17.2815394613095 2.39411681052632  18.877712546627 4.03310744210526  18.877712546627 6.07077145263158  C 18.877712546627 8.1084354631579  17.2815394613095 9.74742609473684  15.2971080753968 9.74742609473684  C 13.3126766894841 9.74742609473684  11.7165036041667 8.1084354631579  11.7165035734127 6.07077145263158  Z M 30.8274407450397 21.2203604842105  C 30.7843009236111 16.4362797473684  26.9879973759921 12.5381398736842  22.2857577628968 12.5381398736842  C 21.9406392529762 12.5381398736842  21.5955207430556 12.5381398736842  21.2504022638889 12.5824369263158  C 20.6464448869048 12.671031  20.2581865555556 13.2025955368421  20.3013263769841 13.8227541473684  C 20.3013263769841 13.8670512  20.3013263769841 13.9113482210526  20.3444661984127 13.9556452736842  C 18.877712546627 13.0697043789474  17.1521200277778 12.5381398736842  15.2971080753968 12.5381398736842  C 13.528375735119 12.5381398736842  11.889062859127 13.0254073578947  10.4654489980159 13.8227541473684  C 10.551728610119 13.2025955368421  10.1203304880952 12.671031  9.51637311111111 12.5824369263158  C 9.21439442261905 12.5381398736842  8.86927591269841 12.5381398736842  8.52415743353174 12.5381398736842  C 3.82191782043651 12.5381398736842  0.0256142728174603 16.4362797473684  0.0256142728174603 21.2203604842105  C 0.0256142728174603 21.8405190947368  0.500152216269841 22.3277865789474  1.10410959325397 22.3277865789474  C 1.7080669702381 22.3277865789474  2.18260491369048 21.8405190947368  2.18260491369048 21.2203604842105  C 2.18260491369048 17.6322999157895  5.02983257440476 14.7086950105263  8.52415743353174 14.7086950105263  C 8.73985650992063 14.7086950105263  8.91241576488095 14.7086950105263  9.12811481051587 14.7529920631579  C 6.84170473611111 16.6134678947368  5.3749510843254 19.4927757789474  5.3749510843254 22.7264599894737  C 5.3749510843254 23.3466186  5.84948902777778 23.8338860842105  6.4534464047619 23.8338860842105  C 7.05740378174603 23.8338860842105  7.53194172519841 23.3466186  7.53194172519841 22.7264599894737  C 7.53194172519841 18.2967555789474  11.0262665843254 14.7086950421053  15.3402478660714 14.7086950105263  C 19.6542291785714 14.7086950105263  23.1485540069444 18.2967555789474  23.1485540376984 22.7264599894737  C 23.1485540376984 23.3466186  23.6230919811508 23.8338860842105  24.2270493581349 23.8338860842105  C 24.8310067351191 23.8338860842105  25.3055446785714 23.3466186  25.3055446785714 22.7264599894737  C 25.3055446785714 19.4927757789474  23.8387910267857 16.6134679263158  21.552380952381 14.7529920631579  C 21.8112198194444 14.7086950105263  22.0700587172619 14.7086950105263  22.3288975843254 14.7086950105263  C 25.8232224434524 14.7086950105263  28.6704501041667 17.6322999157895  28.6704501041667 21.2203604842105  C 28.6704501041667 21.8405190947368  29.144988047619 22.3277865789474  29.7489454246032 22.3277865789474  C 30.3529028015873 22.3277865789474  30.8274407450397 21.8405190947368  30.8274407450397 21.2203604842105  Z " fill-rule="nonzero" fill="#a1a1a1" stroke="none" transform="matrix(1 0 0 1 241 170 )" />
  </g>
</svg>