<?xml version="1.0" encoding="utf-8"?>
<svg version="1.1" xmlns:xlink="http://www.w3.org/1999/xlink" width="16px" height="14px" xmlns="http://www.w3.org/2000/svg">
  <g transform="matrix(1 0 0 1 -19 -133 )">
    <path d="M 0.107744101010101 2.07582328614458  L 1.40067339393939 2.07582328614458  L 1.40067339393939 12.5597429789157  L 11.6945454545455 12.5597429789157  L 11.6945454545455 13.9091405692771  L 2.24624915151515 13.9091405692771  C 1.06535370835145 13.9091405943047  0.107982085087422 12.9101574179128  0.107744101010101 11.677686746988  L 0.107744101010101 2.07582328614458  Z M 14.6040673333333 0  C 15.3181324644277 0  15.8969966262626 0.6041458797464  15.8969966262626 1.34939759036145  L 15.8969966262626 10.2761124427711  C 15.8969966262626 11.0213641533861  15.3181324644277 11.6255100331325  14.6040673333333 11.6255100331325  L 3.66329965656566 11.6255100331325  C 2.9492345254713 11.6255100331325  2.37037036363636 11.0213641533861  2.37037036363636 10.2761124427711  L 2.37037036363636 1.34939759036145  C 2.37037036363636 0.6041458797464  2.9492345254713 0  3.66329965656566 0  L 14.6036363636364 0  Z M 14.6040673333333 1.34939759036145  L 3.66329965656566 1.34939759036145  L 3.66329965656566 10  L 14.6036363636364 10  L 14.6036363636364 1.34939759036145  Z M 8.64495622222222 5.61304418373494  C 9.40907743434343 3.90110843373494  10.9571447676768 3.04334137951807  13.1857238989899 3.01905220180723  L 13.1857238989899 4.36665060240964  C 11.4493198585859 4.38374297891566  10.3619663232323 4.98827309939759  9.8266935959596 6.16134939759036  L 9.7792862020202 6.26930120481928  L 9.72325925252525 6.40019277108434  C 8.8630303030303 8.33567870783133  7.17187878787879 9.26361445783133  4.78297642424242 9.15881123795181  L 4.93080135353535 9.16375903614458  L 4.93166329292929 7.81436144578313  C 6.76245117171717 7.87148593674699  7.92479460606061 7.22377509337349  8.5432457979798 5.84783936445783  L 8.59323905050505 5.7326907560241  L 8.64495622222222 5.61304418373494  Z M 5.96902357575758 2.73567870783133  C 6.40841165495052 2.73567870783133  6.76460607070707 3.10742980740857  6.76460607070707 3.56600802861446  C 6.76460607070707 4.02458624982035  6.40841165495052 4.39633734939759  5.96902357575758 4.39633734939759  C 5.529516487569 4.39633734939759  5.1732255959596 4.02448556041368  5.1732255959596 3.56578313253012  C 5.1732255959596 3.10708070464656  5.529516487569 2.73522891566265  5.96902357575758 2.73522891566265  Z " fill-rule="nonzero" fill="#e4e6ea" stroke="none" transform="matrix(1 0 0 1 19 133 )" />
  </g>
</svg>