<?xml version="1.0" encoding="utf-8"?>
<svg version="1.1" xmlns:xlink="http://www.w3.org/1999/xlink" width="15px" height="17px" xmlns="http://www.w3.org/2000/svg">
  <g transform="matrix(1 0 0 1 -21 -187 )">
    <path d="M 15 14.7092756709838  C 14.9735059474342 15.9328548904861  14.0038998278289 16.9290370611458  12.8118421951974 17  L 2.29023870473684 17  C 1.09818107210526 16.9290370784606  0.128574952697368 15.9328549078009  0.1285749525 14.7092756709838  L 0.1285749525 2.24045422519676  C 0.128574952302632 1.01617099555556  1.09818107210526 0.0199888248958333  2.29023870473684 0  L 12.8097236090132 0  C 14.0010750519079 0.0199888248958333  14.9713873610526 1.01617099555556  15 2.24045422539352  L 15 14.7092756709838  Z M 13.8880837955921 2.24045422539352  C 13.8880837955921 1.63077666288195  13.4050462184211 1.13514963851852  12.8118421951974 1.13514963851852  L 2.29023870473684 1.13514963851852  C 1.69703466434211 1.13514963851852  1.21399710453947 1.63077666268519  1.2139971043421 2.24045422539352  L 1.2139971043421 14.7092756709838  C 1.2139971043421 15.3182492235532  1.69703468151316 15.8145802578588  2.29023870473684 15.8145802751736  L 12.8097236090132 15.8145802751736  C 13.4029276494079 15.8145802751736  13.8859652092105 15.3182492235532  13.8859652092105 14.7092756709838  L 13.8880837955921 2.24045422539352  Z M 11.7334820086184 12.2149481806019  C 11.7378068527025 12.5176961875311  11.4955046530394 12.7668089495679  11.1918302259868 12.7718245600579  L 5.52602548835526 12.7718245600579  C 5.22235106102782 12.7668089496751  4.98004886124555 12.5176961876066  4.98437370532895 12.2149481806019  C 4.98044175989935 11.9124733293204  5.22263042949719 11.6637920647027  5.52602548835526 11.6587757939699  L 11.1918302259868 11.6587757939699  C 11.4952252846899 11.6637920649169  11.7374139540497 11.9124733294715  11.7334820086184 12.2149481806019  Z M 11.7334820086184 9.72132468324074  C 11.7378068623747 10.0240726968873  11.4955046599158 10.2731854695439  11.1918302259868 10.2782010800116  L 5.52602548835526 10.2782010800116  C 5.22235105415135 10.2731854696512  4.98004885157337 10.0240726969628  4.98437370532895 9.72132468324074  C 4.98044176944427 9.41884983860226  5.22263043628493 9.17016858446959  5.52602548835526 9.16515231372685  L 11.1918302259868 9.16515231372685  C 11.4952252779021 9.17016858468382  11.7374139445047 9.4188498387533  11.7334820086184 9.72132468324074  Z M 11.7334820086184 7.22770120299769  C 11.7378068622648 7.5304492165679  11.4955046598377 7.77956198910388  11.1918302259868 7.78457759957176  L 5.52602548835526 7.78457759957176  C 5.22235105422949 7.77956198921109  4.98004885168328 7.53044921664344  4.98437370532895 7.22770120299769  C 4.98044176955398 6.92522635843556  5.22263043636295 6.67654510442341  5.52602548835526 6.67152883368056  L 11.1918302259868 6.67152883368056  C 11.4952252778241 6.67654510463764  11.737413944395 6.9252263585866  11.7334820086184 7.22770120299769  Z M 11.7334820086184 4.73407772275463  C 11.7378068527025 5.03682572968387  11.4955046530394 5.28593849172063  11.1918302259868 5.29095410221065  L 5.52602548835526 5.29095410221065  C 5.22235106102782 5.28593849182785  4.98004886124555 5.03682572975941  4.98437370532895 4.73407772275463  C 4.98044175989935 4.4316028714732  5.22263042949719 4.18292160685544  5.52602548835526 4.17790533612269  L 11.1918302259868 4.17790533612269  C 11.4952252846899 4.18292160706967  11.7374139540497 4.43160287162424  11.7334820086184 4.73407772275463  Z M 4.44978388796053 12.2149481806019  C 4.45410873204464 12.5176961875311  4.21180653238147 12.7668089495679  3.90813210513158 12.7718245600579  C 3.60445767788169 12.7668089495679  3.36215547821851 12.5176961875311  3.36648032230263 12.2149481806019  C 3.36254837687221 11.9124733293959  3.60473704635104 11.6637920648098  3.90813210513158 11.6587757939699  C 4.21152716391212 11.6637920648098  4.45371583339095 11.9124733293959  4.44978388796053 12.2149481806019  Z M 4.44978388796053 9.72132468324074  C 4.45410874171683 10.0240726968873  4.21180653925794 10.273185469544  3.90813210513158 10.2782010800116  C 3.60445767100521 10.2731854695439  3.36215546854633 10.0240726968873  3.36648032230263 9.72132468324074  C 3.36254838641713 9.41884983867778  3.60473705313877 9.1701685845767  3.90813210513158 9.16515231372685  C 4.21152715712438 9.1701685845767  4.45371582384603 9.41884983867777  4.44978388796053 9.72132468324074  Z M 4.44978388796053 7.22770120299769  C 4.45410874160692 7.5304492165679  4.2118065391798 7.77956198910388  3.90813210513158 7.78457759957176  C 3.60445767108336 7.77956198910388  3.36215546865624 7.5304492165679  3.36648032230263 7.22770120299769  C 3.36254838652684 6.92522635851108  3.60473705321679 6.67654510453052  3.90813210513158 6.67152883368056  C 4.21152715704636 6.67654510453052  4.45371582373631 6.92522635851108  4.44978388796053 7.22770120299769  Z M 4.44978388796053 4.73407772275463  C 4.45410873204465 5.03682572968387  4.21180653238147 5.28593849172063  3.90813210513158 5.29095410221065  C 3.60445767788169 5.28593849172063  3.36215547821851 5.03682572968387  3.36648032230263 4.73407772275463  C 3.36254837687221 4.43160287154872  3.60473704635104 4.18292160696255  3.90813210513158 4.17790533612269  C 4.21152716391212 4.18292160696255  4.45371583339095 4.43160287154872  4.44978388796053 4.73407772275463  Z " fill-rule="nonzero" fill="#f2f2f2" stroke="none" transform="matrix(1 0 0 1 21 187 )" />
  </g>
</svg>