<?xml version="1.0" encoding="utf-8"?>
<svg version="1.1" xmlns:xlink="http://www.w3.org/1999/xlink" width="17px" height="12px" xmlns="http://www.w3.org/2000/svg">
  <g transform="matrix(1 0 0 1 -21 -694 )">
    <path d="M 3.34997540983607 11.3604285714286  C 3.34997540983607 9.13305357142857  4.67385040983607 7.22507142857143  6.55318647540984 6.43017857142857  C 5.84531762295082 5.84073214285714  5.3924487704918 4.93767857142857  5.3924487704918 3.92535714285714  C 5.3924487704918 2.149375  6.78630942622951 0.709642857142858  8.5057131147541 0.709642857142858  C 10.2251342213115 0.709642857142858  11.6189948770492 2.149375  11.6189948770492 3.92535714285714  C 11.6189948770492 4.93767857142857  11.1661260245902 5.84073214285714  10.4582571721311 6.43017857142857  C 12.3375758196721 7.22507142857143  13.6614508196721 9.13305357142857  13.6614508196721 11.3604285714286  C 13.6614508196721 11.5752857142857  13.6491362704918 11.7871785714286  13.6251864754098 11.995375  L 12.5045799180328 11.995375  C 12.5355409901495 11.7852168401663  12.551051886917 11.5729702763453  12.550981557377 11.3604285714286  C 12.550981557377 9.05276785714286  10.7398545081967 7.18203571428571  8.5057131147541 7.18203571428571  C 6.27157172131148 7.18203571428571  4.46044467213115 9.05276785714286  4.46044467213115 11.3604285714286  C 4.46044467213115 11.5762857142857  4.47629508196721 11.7883214285714  4.50684631147541 11.995375  L 3.38623975409836 11.995375  C 3.36203915352462 11.7846363870266  3.34993019692438 11.5726226610526  3.34997540983607 11.3604285714286  Z M 6.5029006147541 3.925375  C 6.5029006147541 5.067875  7.39958094262295 5.99407142857143  8.5057131147541 5.99407142857143  C 9.61182786885246 5.99407142857143  10.5085256147541 5.06789285714286  10.5085256147541 3.925375  C 10.5085256147541 2.78285714285714  9.61184528688525 1.85666071428571  8.5057131147541 1.85666071428571  C 7.39959836065574 1.85666071428571  6.5029006147541 2.78285714285714  6.5029006147541 3.925375  Z M 11.7586875 0.0178571428571429  C 13.4770112704918 0.0178571428571429  14.8700010245902 1.45785714285714  14.8700010245902 3.23421428571429  C 14.8700010245902 4.24671428571428  14.4174282786885 5.14994642857143  13.7099948770492 5.73951785714286  C 15.5881290983607 6.53457142857143  16.9111680327869 8.44294642857143  16.9111680327869 10.67075  C 16.9111680327869 10.8856428571429  16.8988534836066 11.0975714285714  16.8749211065574 11.3058214285714  L 15.7550112704918 11.3058214285714  C 15.7859569388288 11.0956197499698  15.8014619417667 10.8833323796661  15.8013954918033 10.67075  C 15.8013954918033 8.362625  14.1655809426229 6.49153571428572  11.9328504098361 6.49153571428572  C 11.6003924180328 6.48214285714286  11.3665901639344 6.22555357142857  11.3665901639344 5.89742857142857  C 11.3665901639344 5.56932142857143  11.5829743852459 5.32142857142857  11.9328504098361 5.30332142857143  C 13.038268442623 5.30332142857143  13.7602110655738 4.37694642857143  13.7602110655738 3.23421428571429  C 13.7602110655738 2.09146428571429  12.8640881147541 1.16510714285714  11.7586700819672 1.16510714285714  C 11.6813340163934 1.16510714285714  11.5910040983607 1.174625  11.4876977459016 1.19371428571429  C 11.2184149590164 1.24344642857143  10.9607674180328 1.05994642857143  10.9122581967213 0.783839285714288  C 10.9100421189878 0.771215276866804  10.9082932559823 0.758509740016149  10.9070153688525 0.745750000000002  C 10.872231557377 0.398964285714287  11.1130706967213 0.0868035714285728  11.4502663934426 0.0416428571428585  C 11.5687612704918 0.0257857142857156  11.6715625 0.0178571428571444  11.7586700819672 0.0178571428571444  Z M 5.54799180327869 0.0416428571428585  C 5.42947950819672 0.0257857142857156  5.32667827868852 0.0178571428571444  5.2395881147541 0.0178571428571429  C 3.52124692622951 0.0178571428571429  2.12827459016393 1.45785714285714  2.12827459016393 3.23421428571429  C 2.12827459016393 4.24671428571428  2.58084733606557 5.14994642857143  3.28828073770492 5.73951785714286  C 1.41012909836066 6.53457142857143  0.0870901639344262 8.44294642857143  0.0870901639344262 10.67075  C 0.0870901639344262 10.8856428571429  0.0994047131147541 11.0975714285714  0.123319672131148 11.3058214285714  L 1.24322950819672 11.3058214285714  C 1.21228967014488 11.0956192992227  1.19679048977179 10.8833319314252  1.19686270491803 10.67075  C 1.19686270491803 8.362625  2.83265983606557 6.49153571428572  5.06540778688525 6.49153571428572  C 5.32991803278688 6.51785714285715  5.63166803278688 6.22555357142857  5.63166803278688 5.89742857142857  C 5.63166803278688 5.56932142857143  5.32991803278688 5.30357142857143  5.06540778688525 5.30332142857143  C 3.95998975409836 5.30332142857143  3.23804713114754 4.37694642857143  3.23804713114754 3.23421428571429  C 3.23804713114754 2.09146428571429  4.13417008196721 1.16510714285714  5.2395881147541 1.16510714285714  C 5.31692418032787 1.16510714285714  5.40723668032787 1.174625  5.51054303278688 1.19371428571429  C 5.77984323770492 1.24344642857143  6.03749077868852 1.05994642857143  6.086 0.783839285714288  C 6.08821209016393 0.771214285714288  6.08995389344262 0.758517857142859  6.09122540983607 0.745750000000002  C 6.12602663934426 0.398964285714287  5.88517008196721 0.0868035714285728  5.54799180327869 0.0416428571428585  Z " fill-rule="nonzero" fill="#eaeaea" stroke="none" transform="matrix(1 0 0 1 21 694 )" />
  </g>
</svg>