<?xml version="1.0" encoding="utf-8"?>
<svg version="1.1" xmlns:xlink="http://www.w3.org/1999/xlink" width="16px" height="19px" xmlns="http://www.w3.org/2000/svg">
  <g transform="matrix(1 0 0 1 -21 -522 )">
    <path d="M 13.6267755102041 0.117283943287037  L 2.37322448979592 0.117283943287037  C 1.15129051584405 0.122441351593204  0.163248152270163 1.19128113188732  0.163248152270163 2.50798166044982  C 0.163248152270163 2.51111535717895  0.163253870231977 2.514249050879  0.163265306122449 2.51738272337963  L 0.163265306122449 16.4826172766204  C 0.163253870231978 16.4857509491208  0.163248152270163 16.4888846428212  0.163248152270163 16.4920183395502  C 0.163248152270163 17.8087188681127  1.15129051584405 18.8775586484068  2.37322448979592 18.882716056713  L 13.6267755102041 18.882716056713  C 14.8487094841559 18.8775586484068  15.8367518477298 17.8087188681127  15.8367518477298 16.4920183395502  C 15.8367518477298 16.488884642821  15.836746129768 16.485750949121  15.8367346938776 16.4826172766204  L 15.8367346938775 2.51738272337963  C 15.836746129768 2.51424905087936  15.8367518477298 2.51111535717859  15.8367518477298 2.50798166044982  C 15.8367518477298 1.19128113188732  14.8487094841559 0.122441351593204  13.6267755102041 0.117283943287037  Z M 1.36925169387755 16.4826172766204  L 1.36925169387755 2.51738272337963  C 1.36925169387755 1.91501235300926  1.81855781632653 1.42617285416667  2.37322448979592 1.42617283217593  L 13.6267755102041 1.42617283217593  C 14.1814421836735 1.42617283217593  14.6307483061224 1.91501233101852  14.6307483061224 2.51738272337963  L 14.6307483061224 16.4826172766204  C 14.6307483061224 17.0849876469907  14.1814421836735 17.5738271458333  13.6267755102041 17.5738271678241  L 2.37322448979592 17.5738271678241  C 1.81855781632653 17.5738271678241  1.36925169387755 17.0859259259259  1.36925169387755 16.4826172766204  Z M 11.2148027142857 13.2099259259259  L 4.78519728571428 13.2099259259259  C 4.45165137864846 13.2109587104041  4.18176620129564 13.5026093510905  4.18176620129564 13.8620219917679  C 4.18176620129564 13.8626484094531  4.18176703895987 13.8632748268141  4.18176871428571 13.8639012418981  C 4.18176871428571 14.2260740740741  4.45170069387755 14.5188148148148  4.78519728571429 14.5188148148148  L 11.2148027142857 14.5188148148148  C 11.5483498501635 14.5177838888729  11.8182369344305 14.2261326987101  11.8182369344305 13.8667187392722  C 11.8182369344305 13.8657795701933  11.8182350515207 13.8648404022108  11.8182312857143 13.8639012418981  C 11.8182329610401 13.8632748268138  11.8182337987044 13.8626484094534  11.8182337987044 13.8620219917679  C 11.8182337987044 13.5026093510905  11.5483486213515 13.2109587104041  11.2148027142857 13.2099259259259  Z M 9.50987755102041 5.49733333333334  L 8.49719728571429 3.89288888888889  C 8.38512630014412 3.71569655000594  8.19899902121685 3.60967434547491  8 3.60967434547491  C 7.80100097878315 3.60967434547491  7.61487369985589 3.71569655000594  7.50280271428571 3.89288888888889  L 6.49012244897959 5.49733333333333  L 4.77213606122449 6.04716050115741  C 4.51565713599057 6.13219973676589  4.34064093565323 6.38754289508325  4.34064093565323 6.67669838364794  C 4.34064093565323 6.82035824263856  4.38422878494163 6.96007901636072  4.46476189795918 7.07456790856481  L 5.55668026530612 8.61614814814815  L 5.50791836734694 10.5611851851852  C 5.50247062607161 10.7763218242777  5.59518406147775 10.9806848447051  5.75608163265306 11.1081975381944  C 5.91717006122449 11.2358024837963  6.12527891836735 11.2677037037037  6.31248979591837 11.1954567974537  L 8 10.5442962962963  L 9.68751020408163 11.1954567974537  C 9.87517018319831 11.2681240071733  10.0840841920783 11.2354120543918  10.244789122449 11.1081975381944  C 10.4053581353317 10.9804810330091  10.4977310767738 10.7761515933064  10.4920816326531 10.5611851851852  L 10.4433197346939 8.61614814814815  L 11.5352381020408 7.07456790856482  C 11.6157712150584 6.96007901636072  11.6593590643468 6.82035824263857  11.6593590643468 6.67669838364795  C 11.6593590643468 6.38754289508325  11.4843428640094 6.1321997367659  11.2278639387755 6.04716050115741  L 9.50987755102041 5.49733333333334  Z M 7.36435373469388 6.42997531597222  L 8 5.42133333333333  L 8.636517 6.42997531597222  C 8.71488434693878 6.55382716782407  8.83069387755102 6.64577777777778  8.9630476122449 6.688  L 10.0427755102041 7.03328394328704  L 9.35662585714286 8.00251851851852  C 9.27201346746828 8.12224733491135  9.22806329497137 8.26962119405349  9.23210883673469 8.4200493900463  L 9.2634557755102 9.64167901967593  L 8.2020136122449 9.23259259259259  C 8.07140085509734 9.18218067745061  7.92859914490266 9.18218067745061  7.7979863877551 9.23259259259259  L 6.7365442244898 9.64167901967593  L 6.7678911632653 8.4200493900463  C 6.77193670502863 8.26962119405349  6.72798653253172 8.12224733491135  6.64337414285714 8.00251851851852  L 5.95635373469388 7.03328394328704  L 7.03608163265306 6.688  C 7.16957663993331 6.64527666032873  7.28524931314565 6.55411514442512  7.363483 6.42997531597222  Z " fill-rule="nonzero" fill="#eaeaf0" stroke="none" transform="matrix(1 0 0 1 21 522 )" />
  </g>
</svg>