<?xml version="1.0" encoding="utf-8"?>
<svg version="1.1" xmlns:xlink="http://www.w3.org/1999/xlink" width="16px" height="19px" xmlns="http://www.w3.org/2000/svg">
  <g transform="matrix(1 0 0 1 -21 -580 )">
    <path d="M 16 17.6059428571429  C 15.9758222222222 18.3529142857143  15.3841777777778 18.9551238095238  14.6503111111111 19  L 1.34968888888889 19  C 0.615822222222222 18.9551238095238  0.0184888888888887 18.3471238095238  0 17.6001523809524  L 0 1.38681904761905  C 0.0184888888888887 0.639847619047619  0.615822222222222 0.0318476190476194  1.34968888888889 0.0318476190476194  L 4.5696 0.0318476190476194  C 4.91662222222222 0.0318476190476194  5.19537777777778 0.315580952380953  5.19537777777778 0.6688  L 5.19537777777778 1.68213333333333  C 5.19537777777778 1.72266666666667  5.22951111111111 1.7632  5.27502222222222 1.7632  L 10.7249777777778 1.7632  C 10.7648 1.7632  10.8046222222222 1.72845714285714  10.8046222222222 1.68213333333333  L 10.8046222222222 0.6688  C 10.8046222222222 0.315580952380953  11.0833777777778 0.0318476190476194  11.4304 0.0318476190476194  L 14.6503111111111 0.0318476190476194  C 15.3841777777778 0.0318476190476194  15.9815111111111 0.639847619047619  16 1.38681904761905  L 16 17.6059428571429  Z M 3.94382222222222 1.30575238095238  L 1.34968888888889 1.30575238095238  C 1.30986666666667 1.30575238095238  1.27004444444444 1.34049523809524  1.27004444444444 1.38681904761905  L 1.27004444444444 17.6059428571429  C 1.27004444444444 17.6464761904762  1.30417777777778 17.6870095238095  1.34968888888889 17.6870095238095  L 14.6503111111111 17.6870095238095  C 14.6901333333333 17.6870095238095  14.7299555555556 17.6522666666667  14.7299555555556 17.6059428571429  L 14.7299555555556 1.38681904761905  C 14.7299555555556 1.34628571428571  14.6958222222222 1.30575238095238  14.6503111111111 1.30575238095238  L 12.0561777777778 1.30575238095238  L 12.0561777777778 1.68213333333333  C 12.0561777777778 2.42910476190476  11.4588444444444 3.03710476190476  10.7249777777778 3.03710476190476  L 5.27502222222222 3.03710476190476  C 4.54115555555556 3.03710476190476  3.94382222222222 2.42910476190476  3.94382222222222 1.68213333333333  L 3.94382222222222 1.30575238095238  Z " fill-rule="nonzero" fill="#eaeaf0" stroke="none" transform="matrix(1 0 0 1 21 580 )" />
  </g>
</svg>