<?xml version="1.0" encoding="utf-8"?>
<svg version="1.1" xmlns:xlink="http://www.w3.org/1999/xlink" width="10px" height="14px" xmlns="http://www.w3.org/2000/svg">
  <g transform="matrix(1 0 0 1 -24 -578 )">
    <path d="M 9.87172413793103 6.51397530864197  C 9.87172413793103 6.85135802469136  9.59586206896552 7.12237037037037  9.25931034482758 7.12237037037037  L 0.740689655172414 7.12237037037037  C 0.404137931034483 7.12237037037037  0.133793103448275 6.85135802469136  0.133793103448275 6.51397530864197  C 0.133793103448275 6.17659259259259  0.404137931034482 5.90558024691358  0.740689655172414 5.90558024691358  L 9.26482758620689 5.90558024691358  C 9.60137931034483 5.90558024691358  9.87172413793103 6.17659259259259  9.87172413793103 6.51397530864197  Z M 9.87172413793103 9.93204938271605  C 9.87172413793103 10.2694320987654  9.59586206896552 10.5404444444444  9.25931034482758 10.5404444444444  L 0.740689655172414 10.5404444444444  C 0.404137931034483 10.5404444444444  0.133793103448275 10.2694320987654  0.133793103448275 9.93204938271605  C 0.133793103448275 9.59466666666667  0.404137931034482 9.32365432098765  0.740689655172414 9.32365432098765  L 9.26482758620689 9.32365432098765  C 9.60137931034483 9.32365432098765  9.87172413793103 9.59466666666667  9.87172413793103 9.93204938271605  Z M 9.87172413793103 13.3501234567901  C 9.87172413793103 13.6875061728395  9.59586206896552 13.9585185185185  9.25931034482758 13.9585185185185  L 0.740689655172414 13.9585185185185  C 0.404137931034483 13.9585185185185  0.133793103448275 13.6875061728395  0.133793103448275 13.3501234567901  C 0.133793103448275 13.0127407407407  0.404137931034482 12.7417283950617  0.740689655172414 12.7417283950617  L 9.26482758620689 12.7417283950617  C 9.60137931034483 12.7417283950617  9.87172413793103 13.0127407407407  9.87172413793103 13.3501234567901  Z M 6.74344827586207 0.651259259259259  C 6.74344827586207 0.988641975308642  6.47310344827586 1.25965432098765  6.13655172413793 1.25965432098765  L 3.86344827586207 1.25965432098765  C 3.52689655172414 1.25965432098765  3.25655172413793 0.988641975308642  3.25655172413793 0.651259259259259  C 3.25655172413793 0.313876543209877  3.52689655172414 0.0428641975308644  3.86344827586207 0.0428641975308644  L 6.13655172413793 0.0428641975308644  C 6.47310344827586 0.0428641975308644  6.74344827586207 0.313876543209877  6.74344827586207 0.651259259259259  Z " fill-rule="nonzero" fill="#eaeaf0" stroke="none" transform="matrix(1 0 0 1 24 578 )" />
  </g>
</svg>