<?xml version="1.0" encoding="utf-8"?>
<svg version="1.1" xmlns:xlink="http://www.w3.org/1999/xlink" width="16px" height="17px" xmlns="http://www.w3.org/2000/svg">
  <g transform="matrix(1 0 0 1 -21 -634 )">
    <path d="M 15.9828571428571 12.4464285714286  C 15.9847619047619 11.1145089285714  15.3085714285714 10.51875  13.7904761904762 10.5206473214286  L 11.5047619047619 10.5206473214286  C 11.3733333333333 10.4295758928571  11.2495238095238 10.3252232142857  11.1371428571429 10.2094866071429  C 10.6704761904762 9.73136160714286  10.6419047619048 9.32154017857143  10.6514285714286 9.16785714285714  L 10.6533333333333 9.06160714285714  L 10.6533333333333 9.0578125  C 10.6533333333333 9.01227678571429  10.727619047619 8.79408482142857  10.9142857142857 8.47723214285714  C 10.9847619047619 8.35770089285714  11.0590476190476 8.24006696428571  11.1371428571429 8.12433035714286  C 11.3066666666667 7.86819196428571  11.4914285714286 7.61774553571428  11.6819047619048 7.37868303571428  C 12.3485714285714 6.5875  12.7142857142857 5.58002232142857  12.7142857142857 4.54408482142857  C 12.7142857142857 2.11930803571428  10.752380952381 0.127120535714283  8.24761904761905 0.00948660714285499  L 7.90666666666667 0.00948660714285499  C 5.39047619047619 0.127120535714284  3.41714285714286 2.11930803571428  3.41714285714286 4.54408482142857  C 3.41904761904762 5.58571428571428  3.78857142857143 6.59698660714286  4.45714285714286 7.39386160714286  L 4.49142857142858 7.4375  C 4.67428571428572 7.66897321428571  4.84761904761905 7.90803571428571  5.01333333333334 8.15279017857143  C 5.34666666666667 8.65747767857143  5.48190476190477 8.99520089285714  5.47809523809524 9.05591517857143  L 5.47809523809524 9.1640625  C 5.48761904761905 9.31584821428571  5.46095238095239 9.71808035714286  5.01714285714286 10.1886160714286  L 4.9904761904762 10.2151785714286  C 4.88571428571429 10.3233258928571  4.76380952380953 10.4276785714286  4.62476190476191 10.5225446428571  L 2.34666666666667 10.5225446428571  C 0.824761904761904 10.5206473214286  0.146666666666666 11.1145089285714  0.146666666666666 12.4464285714286  L 0.146666666666666 15.4100446428571  C 0.146666666666666 15.8293526785714  0.31047619047619 16.2239955357143  0.609523809523809 16.521875  C 0.908571428571428 16.8159598214286  1.30285714285714 16.9810267857143  1.72190476190476 17  L 14.4114285714286 17  C 15.28 16.9506696428571  15.9828571428571 16.2505580357143  15.9828571428571 15.3853794642857  L 15.9828571428571 12.4464285714286  Z M 1.43047619047619 15.6984375  C 1.35619047619048 15.6244419642857  1.31428571428572 15.5200892857143  1.31238095238095 15.4100446428571  L 1.31238095238095 12.4483258928571  C 1.31238095238095 12.0897321428571  1.35809523809524 11.9208705357143  1.48190476190476 11.8241071428571  C 1.6152380952381 11.7216517857143  1.85904761904762 11.6799107142857  2.34666666666667 11.6799107142857  L 4.9752380952381 11.6799107142857  L 5.11619047619048 11.5888392857143  C 5.3752380952381 11.4275669642857  5.6152380952381 11.2359375  5.83047619047619 11.0196428571429  C 6.58857142857143 10.2417410714286  6.66666666666667 9.48470982142857  6.64571428571429 9.09765625  C 6.66095238095238 8.70111607142857  6.46285714285714 8.22488839285715  5.98857142857143 7.50580357142857  C 5.78792958881451 7.20538492539167  5.57374224512943 6.91416442031169  5.34666666666667 6.63303571428572  C 4.85714285714286 6.04486607142857  4.58857142857143 5.30491071428572  4.58666666666667 4.54029017857143  C 4.58666666666667 2.73783482142857  6.05904761904762 1.25602678571429  7.93714285714286 1.16685267857143  L 8.21904761904762 1.16685267857143  C 10.0857142857143 1.25602678571429  11.5466666666667 2.7359375  11.5466666666667 4.53839285714286  C 11.5466666666667 5.30491071428572  11.2742857142857 6.04676339285715  10.7809523809524 6.63493303571429  C 10.5638095238095 6.90625  10.3561904761905 7.18895089285714  10.1638095238095 7.47734375  C 10.0742857142857 7.61205357142857  9.98857142857143 7.75055803571429  9.90666666666667 7.89095982142857  C 9.60190476190476 8.41462053571429  9.47619047619048 8.77511160714286  9.48761904761905 9.09765625  C 9.46666666666667 9.4828125  9.54476190476191 10.23984375  10.3009523809524 11.0177455357143  C 10.5161904761905 11.2359375  10.7561904761905 11.4275669642857  11.0152380952381 11.5907366071429  L 11.16 11.6818080357143  L 13.7980952380952 11.6818080357143  C 14.7314285714286 11.6818080357143  14.8190476190476 11.8165178571429  14.8190476190476 12.4464285714286  L 14.8190476190476 15.3834821428571  C 14.8190476190476 15.4916294642857  14.7771428571429 15.5940848214286  14.6990476190476 15.671875  C 14.6228571428571 15.7477678571429  14.5180952380952 15.79140625  14.4095238095238 15.79140625  L 1.72 15.81796875  C 1.61142857142857 15.81796875  1.50666666666667 15.7762276785714  1.43047619047619 15.6984375  Z " fill-rule="nonzero" fill="#eaeaf0" stroke="none" transform="matrix(1 0 0 1 21 634 )" />
  </g>
</svg>