<?xml version="1.0" encoding="utf-8"?>
<svg version="1.1" xmlns:xlink="http://www.w3.org/1999/xlink" width="17px" height="17px" xmlns="http://www.w3.org/2000/svg">
  <g transform="matrix(1 0 0 1 -22 -748 )">
    <path d="M 8.44137931034483 16.8817391304348  C 8.85172413793103 16.8817391304348  9.20344827586207 16.4678260869565  9.84827586206897 15.6991304347826  C 10.3172413793103 15.1078260869565  10.551724137931 14.8713043478261  10.6103448275862 14.8713043478261  C 14.4206896551724 14.1617391304348  16.9413793103448 11.2052173913044  16.9413793103448 7.53913043478261  C 17 3.34086956521739  13.1896551724138 0.0295652173913058  8.5 0.0295652173913058  C 3.81034482758621 0.0295652173913058  0 3.34086956521739  0 7.53913043478261  C 0 11.2052173913044  2.57931034482759 14.1617391304348  6.33103448275862 14.8713043478261  C 6.38965517241379 14.8713043478261  6.62413793103448 15.1078260869565  7.09310344827586 15.6991304347826  C 7.67931034482759 16.4678260869565  8.03103448275862 16.8817391304348  8.44137931034483 16.8817391304348  Z M 16.1793103448276 7.42086956521739  C 16.1206896551724 10.6730434782609  13.8931034482759 13.215652173913  10.4931034482759 13.8069565217391  C 10.1413793103448 13.8660869565217  9.90689655172414 14.1617391304348  9.26206896551724 14.9895652173913  C 8.85172413793103 15.4626086956522  8.5 15.8173913043478  8.5 15.8173913043478  L 8.32413793103448 15.64  C 8.20689655172414 15.5217391304348  8.03103448275862 15.2852173913043  7.8551724137931 15.0486956521739  C 7.15172413793103 14.1617391304348  6.91724137931034 13.8660869565217  6.56551724137931 13.8069565217391  C 3.16551724137931 13.215652173913  0.937931034482756 10.6139130434783  0.937931034482756 7.42086956521739  C 0.937931034482756 3.87304347826087  4.33793103448276 0.916521739130433  8.55862068965517 0.916521739130433  C 12.7793103448276 0.916521739130433  16.1793103448276 3.87304347826087  16.1793103448276 7.42086956521739  Z M 4.27931034482759 7.65739130434783  C 4.27931034482759 8.14724386506731  4.64674561910438 8.54434782608696  5.1 8.54434782608696  C 5.55325438089562 8.54434782608696  5.92068965517241 8.14724386506731  5.92068965517241 7.65739130434783  C 5.92068965517241 7.16753874362834  5.55325438089562 6.7704347826087  5.1 6.7704347826087  C 4.64674561910438 6.7704347826087  4.27931034482759 7.16753874362834  4.27931034482759 7.65739130434783  Z M 7.67931034482759 7.65739130434783  C 7.67931034482759 8.14724386506731  8.04674561910438 8.54434782608696  8.5 8.54434782608696  C 8.95325438089561 8.54434782608696  9.32068965517241 8.14724386506731  9.32068965517241 7.65739130434783  C 9.32068965517241 7.16753874362834  8.95325438089561 6.7704347826087  8.5 6.7704347826087  C 8.04674561910438 6.7704347826087  7.67931034482758 7.16753874362834  7.67931034482758 7.65739130434783  Z M 11.0793103448276 7.65739130434783  C 11.0793103448276 8.14724386506732  11.4467456191044 8.54434782608696  11.9 8.54434782608696  C 12.3532543808956 8.54434782608696  12.7206896551724 8.14724386506732  12.7206896551724 7.65739130434783  C 12.7206896551724 7.16753874362834  12.3532543808956 6.77043478260869  11.9 6.77043478260869  C 11.4467456191044 6.77043478260869  11.0793103448276 7.16753874362834  11.0793103448276 7.65739130434783  Z " fill-rule="nonzero" fill="#eaeaf0" stroke="none" transform="matrix(1 0 0 1 22 748 )" />
  </g>
</svg>