<?xml version="1.0" encoding="utf-8"?>
<svg version="1.1" xmlns:xlink="http://www.w3.org/1999/xlink" width="27px" height="24px" xmlns="http://www.w3.org/2000/svg">
  <g transform="matrix(1 0 0 1 -1080 -170 )">
    <path d="M 25.12265625 5.6234693877551  L 25.1256696428571 6  L 1.79899553571429 6  L 1.79899553571429 3.79897959183673  C 1.79899553571429 2.79183673469388  2.60357142857143 1.97755102040816  3.59196428571429 2  L 23.3296875 2  C 24.32109375 1.97755102040816  25.12265625 2.79489795918367  25.12265625 3.79897959183673  L 25.12265625 5.6234693877551  Z M 25 20.2071428571429  L 25.1256696428571 20.2071428571429  C 25.1256696428571 21.2142857142857  24.32109375 22.0285714285714  23.3327008928571 22  L 3.59497767857143 22  C 2.60357142857143 22.0285714285714  1.80200892857143 21.2112244897959  2 20.2071428571429  L 2 7.44795918367347  L 25 7.44795918367347  L 25 20.2071428571429  Z M 27 3.80204081632653  C 26.9186383928571 1.78775510204082  25.3125 0.156122448979592  23.3296875 0.156122448979589  L 3.59196428571428 0.156122448979589  C 1.60915178571428 0.156122448979589  0.00301339285714097 1.78775510204081  0 3.80204081632653  L 0 20.2071428571429  C 0.00301339285714097 22.2214285714286  1.60915178571428 23.8530612244898  3.59196428571428 23.8530612244898  L 23.3296875 23.8530612244898  C 25.3125 23.8530612244898  26.9186383928571 22.2214285714286  27 20.2071428571429  L 27 3.80204081632653  Z M 12.5658482142857 16.5612244897959  L 9.87488839285714 16.5612244897959  C 9.38069196428571 16.5612244897959  8.97689732142857 16.9683673469388  8.97689732142857 17.4734693877551  C 8.97689732142857 17.9755102040816  9.37767857142857 18.3857142857143  9.87488839285714 18.3857142857143  L 12.5658482142857 18.3857142857143  L 12.5658482142857 20.2071428571429  C 12.5658482142857 20.7091836734694  12.9666294642857 21.119387755102  13.4638392857143 21.119387755102  C 13.9580357142857 21.119387755102  14.3618303571429 20.7122448979592  14.3618303571429 20.2071428571429  L 14.3618303571429 18.3857142857143  L 17.0527901785714 18.3857142857143  C 17.5469866071429 18.3857142857143  17.95078125 17.9785714285714  17.95078125 17.4734693877551  C 17.95078125 16.9714285714286  17.55 16.5612244897959  17.0527901785714 16.5612244897959  L 14.3618303571429 16.5612244897959  L 14.3618303571429 14.7397959183673  L 17.0527901785714 14.7397959183673  C 17.5469866071429 14.7397959183673  17.95078125 14.3326530612245  17.95078125 13.8275510204082  C 17.95078125 13.3255102040816  17.55 12.915306122449  17.0527901785714 12.915306122449  L 14.8198660714286 12.915306122449  L 14.7897321428571 12.884693877551  L 17.6614955357143 9.96734693877551  C 18.0020089285714 9.59081632653061  17.9899553571429 9.00918367346939  17.634375 8.64795918367347  C 17.2787946428571 8.28673469387755  16.70625 8.27448979591837  16.3356026785714 8.62040816326531  L 13.4638392857143 11.5377551020408  L 10.5920758928571 8.62040816326531  C 10.2214285714286 8.27448979591837  9.64888392857143 8.28673469387755  9.29330357142857 8.64795918367347  C 8.93772321428571 9.00918367346939  8.92566964285714 9.59081632653061  9.26618303571428 9.96734693877551  L 12.1379464285714 12.884693877551  L 12.1078125 12.915306122449  L 9.87488839285714 12.915306122449  C 9.38069196428571 12.915306122449  8.97689732142857 13.3224489795918  8.97689732142857 13.8275510204082  C 8.97689732142857 14.3295918367347  9.37767857142857 14.7397959183673  9.87488839285714 14.7397959183673  L 12.5658482142857 14.7397959183673  L 12.5658482142857 16.5612244897959  Z " fill-rule="nonzero" fill="#a2a2a2" stroke="none" transform="matrix(1 0 0 1 1080 170 )" />
  </g>
</svg>