<?xml version="1.0" encoding="utf-8"?>
<svg version="1.1" xmlns:xlink="http://www.w3.org/1999/xlink" width="14px" height="14px" viewBox="255 287  14 14" xmlns="http://www.w3.org/2000/svg">
  <path d="M 255.5 288  A 0.5 0.5 0 0 1 256 287.5 L 268 287.5  A 0.5 0.5 0 0 1 268.5 288 L 268.5 300  A 0.5 0.5 0 0 1 268 300.5 L 256 300.5  A 0.5 0.5 0 0 1 255.5 300 L 255.5 288  Z " fill-rule="nonzero" fill="#ffffff" stroke="none" />
  <path d="M 255.5 288  A 0.5 0.5 0 0 1 256 287.5 L 268 287.5  A 0.5 0.5 0 0 1 268.5 288 L 268.5 300  A 0.5 0.5 0 0 1 268 300.5 L 256 300.5  A 0.5 0.5 0 0 1 255.5 300 L 255.5 288  Z " stroke-width="1" stroke="#bbbbbb" fill="none" />
  <path d="M 258.5 294.5  L 261.5 297.5  " stroke-width="3" stroke="#bbbbbb" fill="none" />
  <path d="M 261.5 297.5  L 266.5 290.5  " stroke-width="3" stroke="#bbbbbb" fill="none" />
</svg>