<?xml version="1.0" encoding="utf-8"?>
<svg version="1.1" xmlns:xlink="http://www.w3.org/1999/xlink" width="14px" height="14px" viewBox="255 555  14 14" xmlns="http://www.w3.org/2000/svg">
  <path d="M 255.5 556  A 0.5 0.5 0 0 1 256 555.5 L 268 555.5  A 0.5 0.5 0 0 1 268.5 556 L 268.5 568  A 0.5 0.5 0 0 1 268 568.5 L 256 568.5  A 0.5 0.5 0 0 1 255.5 568 L 255.5 556  Z " fill-rule="nonzero" fill="#ffffff" stroke="none" />
  <path d="M 255.5 556  A 0.5 0.5 0 0 1 256 555.5 L 268 555.5  A 0.5 0.5 0 0 1 268.5 556 L 268.5 568  A 0.5 0.5 0 0 1 268 568.5 L 256 568.5  A 0.5 0.5 0 0 1 255.5 568 L 255.5 556  Z " stroke-width="1" stroke="#bbbbbb" fill="none" />
</svg>