<?xml version="1.0" encoding="utf-8"?>
<svg version="1.1" xmlns:xlink="http://www.w3.org/1999/xlink" width="12px" height="12px" viewBox="563 231  12 12" xmlns="http://www.w3.org/2000/svg">
  <path d="M 569 231  C 572.36 231  575 233.64  575 237  C 575 240.36  572.36 243  569 243  C 565.64 243  563 240.36  563 237  C 563 233.64  565.64 231  569 231  Z " fill-rule="nonzero" fill="#ffffff" stroke="none" />
  <path d="M 569 231.5  C 572.08 231.5  574.5 233.92  574.5 237  C 574.5 240.08  572.08 242.5  569 242.5  C 565.92 242.5  563.5 240.08  563.5 237  C 563.5 233.92  565.92 231.5  569 231.5  Z " stroke-width="1" stroke="#b6b6b6" fill="none" />
  <path d="M 569 240  C 567.32 240  566 238.68  566 237  C 566 235.32  567.32 234  569 234  C 570.68 234  572 235.32  572 237  C 572 238.68  570.68 240  569 240  " fill-rule="nonzero" fill="#b6b6b6" stroke="none" />
</svg>