<?xml version="1.0" encoding="utf-8"?>
<svg version="1.1" xmlns:xlink="http://www.w3.org/1999/xlink" width="18px" height="18px" xmlns="http://www.w3.org/2000/svg">
  <g transform="matrix(1 0 0 1 -104 -11 )">
    <path d="M 12.0936004804687 7.59387869319732  C 12.0936004804687 6.52689969327968  11.5539587226563 5.58648164601393  10.7313126328125 5.02926197622194  C 11.4010309160156 4.50544032193011  11.8264162851562 3.68630984257033  11.8123539609375 2.76698526397572  C 11.7877448847656 1.22364496701071  10.5063154277344 -0.0191131025623316  8.962975125 0.000222606349762143  C 7.42666600195312 0.0195582976837309  6.1874235 1.27110532425516  6.1874235 2.81268782630488  C 6.1874235 3.71267669598739  6.61105107421875 4.5142292789285  7.268464828125 5.02926197622194  C 6.44757653320312 5.58648164601393  5.90617698046875 6.52689969327968  5.90617698046875 7.59387869319732  C 5.90617698046875 7.90500765492488  6.15754105664062 8.1563717301571  6.46867001953125 8.1563717301571  L 11.5311074414063 8.1563717301571  C 11.8422364042969 8.1563717301571  12.0936004804687 7.90500765492488  12.0936004804687 7.59387869319732  Z M 8.99988873046875 4.50016695476232  C 8.0700174140625 4.50016695476232  7.31240959570313 3.74255913923506  7.31240959570313 2.81268782630488  C 7.31240959570313 1.8828165133747  8.0700174140625 1.12520869784743  8.99988873046875 1.12520869784743  C 9.929760046875 1.12520869784743  10.6873678652344 1.8828165133747  10.6873678652344 2.81268782630488  C 10.6873678652344 3.74255913923506  9.929760046875 4.50016695476232  8.99988873046875 4.50016695476232  Z M 10.6873678652344 7.03138565623755  L 7.31065180078125 7.03138565623755  C 7.21045771875 7.03138565623755  7.14190389257813 6.92943379724367  7.18057529296875 6.83627087767006  C 7.27901158007813 6.6024846988565  7.42139263476563 6.38627643403974  7.60596064453125 6.20170840738595  C 7.98037008398438 5.82905676424775  8.474309296875 5.62515304625999  8.99988873046875 5.62515304625999  C 9.5254681640625 5.62515304625999  10.0194073769531 5.82905678182588  10.3920590214844 6.20170840738595  C 10.5766270488281 6.38627643403974  10.7207658984375 6.6024846988565  10.817444390625 6.83627087767006  C 10.8561157910156 6.92943377966554  10.7893197421875 7.03138565623755  10.6873678652344 7.03138565623755  Z M 17.9997774609375 17.4375069630402  C 17.9997774609375 16.3705279631226  17.460135703125 15.4301099158568  16.6374896132813 14.8728902284867  C 17.3072078964844 14.3490685741949  17.732593265625 13.5299380948351  17.7185309414063 12.6106135338186  C 17.6939218652344 11.0672732368536  16.4124924082031 9.8245151848587  14.8709099003906 9.84385085861454  C 13.3328429824219 9.86318654994851  12.0936004804687 11.1147335765199  12.0936004804687 12.6563160785697  C 12.0936004804687 13.5563049482522  12.5172280546875 14.3578575311933  13.1746418085937 14.8728902284867  C 12.3537535136719 15.4301098982787  11.8123539609375 16.3705279631226  11.8123539609375 17.4375069630402  C 11.8123539609375 17.7486359247678  12.0637180371094 18  12.374847 18  L 17.437284421875 18  C 17.7484133847656 18  17.9997774609375 17.7486359247678  17.9997774609375 17.4375069630402  Z M 14.9060657109375 14.3437952246052  C 13.9761943945313 14.3437952421833  13.2185865761719 13.586187409078  13.2185865761719 12.6563160785697  C 13.2185865761719 11.7264447656395  13.9761943945313 10.9688369501122  14.9060657109375 10.9688369501122  C 15.8359370273438 10.9688369501122  16.5935448457031 11.7264447656395  16.5935448457031 12.6563160785697  C 16.5935448457031 13.5861873914998  15.8359370273438 14.3437952070271  14.9060657109375 14.3437952246052  Z M 16.5935448457031 16.8750139085023  L 13.21682878125 16.8750139085023  C 13.1166346992187 16.8750139085023  13.0480808730469 16.7730620495084  13.0867522734375 16.6798991299348  C 13.1851885605469 16.4461129511213  13.3275696152344 16.2299046863045  13.512137625 16.0453366772288  C 13.8865470644531 15.6726850340907  14.3804862773437 15.4687812985248  14.9060657109375 15.4687812985248  C 15.4316451445312 15.4687812985248  15.9255843574219 15.6726850340907  16.2982360019531 16.0453366772289  C 16.4828040292969 16.2299047038826  16.6269428789063 16.4461129686994  16.7236213710937 16.6798991299348  C 16.7622927714844 16.7730620319303  16.6954967226563 16.8750139085023  16.5935448457031 16.8750139085023  Z M 6.1874235 17.4375069630402  C 6.1874235 16.3705279631226  5.6477817421875 15.4301099158568  4.82513565234375 14.8728902284867  C 5.49485393554687 14.3490685741949  5.9202393046875 13.5299380948351  5.90617698046875 12.6106135338186  C 5.88156790429687 11.0672732368536  4.60013844726562 9.8245151848587  3.05855593945312 9.84385085861454  C 1.52048902148437 9.86318654994851  0.281246519531249 11.1147335765199  0.281246519531249 12.6563160785697  C 0.281246519531249 13.5563049482522  0.704874093749999 14.3578575311933  1.36228784765625 14.8728902284867  C 0.541399552734375 15.4301098982787  0 16.3705279631226  0 17.4375069630402  C 0 17.7486359247678  0.251364076171875 18  0.5624930390625 18  L 5.6249304609375 18  C 5.93605942382812 18  6.1874235 17.7486359247678  6.1874235 17.4375069630402  Z M 3.09371175 14.3437952246052  C 2.16384043359375 14.3437952421833  1.40623261523437 13.586187409078  1.40623261523437 12.6563160785697  C 1.40623261523437 11.7264447656395  2.16384043359375 10.9688369501122  3.09371175 10.9688369501122  C 4.02358306640625 10.9688369501122  4.78119088476562 11.7264447656395  4.78119088476562 12.6563160785697  C 4.78119088476562 13.5861873914998  4.02358306640625 14.3437952070271  3.09371175 14.3437952246052  Z M 4.78119088476563 16.8750139085023  L 1.4044748203125 16.8750139085023  C 1.30428073828125 16.8750139085023  1.23572691210938 16.7730620495084  1.2743983125 16.6798991299348  C 1.37283459960937 16.4461129511213  1.51521565429688 16.2299046863045  1.6997836640625 16.0453366772288  C 2.07419310351563 15.6726850340907  2.56813231640625 15.4687812985248  3.09371175 15.4687812985248  C 3.61929118359375 15.4687812985248  4.11323039648437 15.6726850340907  4.48588204101562 16.0453366772289  C 4.67045006835937 16.2299047038826  4.81458891796875 16.4461129686994  4.91126741015625 16.6798991299348  C 4.94993881054688 16.7730620319303  4.88314276171875 16.8750139085023  4.78119088476563 16.8750139085023  Z M 10.9615832226563 11.8864037337915  C 11.2305252128906 12.0428471121129  11.3219303378906 12.3873741069188  11.1672447539062 12.6563160785697  C 11.0635350996094 12.837368532971  10.8736936875 12.9375625970495  10.680336703125 12.9375626146277  C 10.5854160058594 12.9375626146277  10.4887375136719 12.9129535385478  10.3990901835937 12.8619776090508  L 8.99988873046875 12.0551516413638  L 7.60068727734375 12.8619776090508  C 7.33174528710938 13.016663192457  6.98721829101563 12.9252580677987  6.83253270703125 12.6563160785697  C 6.78155677734375 12.568426543742  6.75694770117188 12.4717480519159  6.75694771875 12.3750695600898  C 6.75694771875 12.1799547815223  6.85714180078125 11.991871182616  7.03819423828125 11.8881615287068  L 8.43739569140625 11.0813355610198  L 8.43739569140625 9.56260434013465  C 8.43739569140625 9.2514753784071  8.68875976757813 9.00011130317488  8.99988873046875 9.00011130317488  C 9.15457431445313 9.00011130317488  9.29519757421875 9.0633917619227  9.39714945117188 9.16534363849471  C 9.49910131054687 9.26729549748859  9.56238178710938 9.40791875672853  9.56238176953125 9.56260434013466  L 9.56238176953125 11.0795777661045  L 10.9615832226563 11.8864037337915  Z " fill-rule="nonzero" fill="#555555" stroke="none" transform="matrix(1 0 0 1 104 11 )" />
  </g>
</svg>