<?xml version="1.0" encoding="utf-8"?>
<svg version="1.1" xmlns:xlink="http://www.w3.org/1999/xlink" width="42px" height="10px" preserveAspectRatio="xMinYMid meet" viewBox="2018 423  42 8" xmlns="http://www.w3.org/2000/svg">
  <path d="M 2025 427  L 2050 427  A 5 5 0 0 0 2055 422 L 2055 150  A 5 5 0 0 1 2060 145 L 2071 145  " stroke-width="2" stroke="#f2c21f" fill="none" />
  <path d="M 2026.5 423.5  A 3.5 3.5 0 0 0 2023 427 A 3.5 3.5 0 0 0 2026.5 430.5 A 3.5 3.5 0 0 0 2030 427 A 3.5 3.5 0 0 0 2026.5 423.5 Z M 2069.5 141.5  A 3.5 3.5 0 0 0 2066 145 A 3.5 3.5 0 0 0 2069.5 148.5 A 3.5 3.5 0 0 0 2073 145 A 3.5 3.5 0 0 0 2069.5 141.5 Z " fill-rule="nonzero" fill="#f2c21f" stroke="none" />
</svg>