<?xml version="1.0" encoding="utf-8"?>
<svg version="1.1" xmlns:xlink="http://www.w3.org/1999/xlink" width="14px" height="14px" viewBox="255 400  14 14" xmlns="http://www.w3.org/2000/svg">
  <path d="M 255.5 401  A 0.5 0.5 0 0 1 256 400.5 L 268 400.5  A 0.5 0.5 0 0 1 268.5 401 L 268.5 413  A 0.5 0.5 0 0 1 268 413.5 L 256 413.5  A 0.5 0.5 0 0 1 255.5 413 L 255.5 401  Z " fill-rule="nonzero" fill="#ffffff" stroke="none" />
  <path d="M 255.5 401  A 0.5 0.5 0 0 1 256 400.5 L 268 400.5  A 0.5 0.5 0 0 1 268.5 401 L 268.5 413  A 0.5 0.5 0 0 1 268 413.5 L 256 413.5  A 0.5 0.5 0 0 1 255.5 413 L 255.5 401  Z " stroke-width="1" stroke="#bbbbbb" fill="none" />
  <path d="M 258.5 407.5  L 261.5 410.5  " stroke-width="3" stroke="#bbbbbb" fill="none" />
  <path d="M 261.5 410.5  L 266.5 403.5  " stroke-width="3" stroke="#bbbbbb" fill="none" />
</svg>