<?xml version="1.0" encoding="utf-8"?>
<svg version="1.1" xmlns:xlink="http://www.w3.org/1999/xlink" width="215px" height="50px" xmlns="http://www.w3.org/2000/svg">
  <g transform="matrix(1 0 0 1 -851 -368 )">
    <path d="M 1046.23035628095 368.5  C 1046.23035628095 368.5  1049.74610704498 368.908808228376  1049.74610704498 368.908808228376  C 1049.74610704498 368.908808228376  1065.45676101548 393  1065.45676101548 393  C 1065.45676101548 393  1049.74610704498 417.091191771624  1049.74610704498 417.091191771624  C 1049.74610704498 417.091191771624  1046.23035628095 417.5  1046.23035628095 417.5  C 1046.23035628095 417.5  856 417.5  856 417.5  C 853.48 417.5  851.5 415.52  851.5 413  C 851.5 413  851.5 373  851.5 373  C 851.5 370.48  853.48 368.5  856 368.5  C 856 368.5  1046.23035628095 368.5  1046.23035628095 368.5  Z " fill-rule="nonzero" fill="#f2f2f2" stroke="none" />
    <path d="M 1046.23035628095 368.5  C 1046.23035628095 368.5  1049.74610704498 368.908808228376  1049.74610704498 368.908808228376  C 1049.74610704498 368.908808228376  1065.45676101548 393  1065.45676101548 393  C 1065.45676101548 393  1049.74610704498 417.091191771624  1049.74610704498 417.091191771624  C 1049.74610704498 417.091191771624  1046.23035628095 417.5  1046.23035628095 417.5  C 1046.23035628095 417.5  856 417.5  856 417.5  C 853.48 417.5  851.5 415.52  851.5 413  C 851.5 413  851.5 373  851.5 373  C 851.5 370.48  853.48 368.5  856 368.5  C 856 368.5  1046.23035628095 368.5  1046.23035628095 368.5  Z " stroke-width="1" stroke="#e4e4e4" fill="none" />
  </g>
</svg>