<?xml version="1.0" encoding="utf-8"?>
<svg version="1.1" xmlns:xlink="http://www.w3.org/1999/xlink" width="217px" height="50px" xmlns="http://www.w3.org/2000/svg">
  <g transform="matrix(1 0 0 1 -674 -368 )">
    <path d="M 871.23457919331 368.5  C 871.23457919331 368.5  874.746457437771 368.904594267795  874.746457437771 368.904594267795  C 874.746457437771 368.904594267795  890.457114471051 393  890.457114471051 393  C 890.457114471051 393  874.746457437771 417.095405732205  874.746457437771 417.095405732205  C 874.746457437771 417.095405732205  871.23457919331 417.5  871.23457919331 417.5  C 871.23457919331 417.5  679 417.5  679 417.5  C 676.48 417.5  674.5 415.52  674.5 413  C 674.5 413  674.5 373  674.5 373  C 674.5 370.48  676.48 368.5  679 368.5  C 679 368.5  871.23457919331 368.5  871.23457919331 368.5  Z " fill-rule="nonzero" fill="#f2f2f2" stroke="none" />
    <path d="M 871.23457919331 368.5  C 871.23457919331 368.5  874.746457437771 368.904594267795  874.746457437771 368.904594267795  C 874.746457437771 368.904594267795  890.457114471051 393  890.457114471051 393  C 890.457114471051 393  874.746457437771 417.095405732205  874.746457437771 417.095405732205  C 874.746457437771 417.095405732205  871.23457919331 417.5  871.23457919331 417.5  C 871.23457919331 417.5  679 417.5  679 417.5  C 676.48 417.5  674.5 415.52  674.5 413  C 674.5 413  674.5 373  674.5 373  C 674.5 370.48  676.48 368.5  679 368.5  C 679 368.5  871.23457919331 368.5  871.23457919331 368.5  Z " stroke-width="1" stroke="#e4e4e4" fill="none" />
  </g>
</svg>