<?xml version="1.0" encoding="utf-8"?>
<svg version="1.1" xmlns:xlink="http://www.w3.org/1999/xlink" width="184px" height="50px" xmlns="http://www.w3.org/2000/svg">
  <g transform="matrix(1 0 0 1 -1042 -368 )">
    <path d="M 1206.16490113937 368.5  C 1206.16490113937 368.5  1209.73978654464 368.985718125716  1209.73978654464 368.985718125716  C 1209.73978654464 368.985718125716  1225.45046339751 393  1225.45046339751 393  C 1225.45046339751 393  1209.73978654464 417.014281874284  1209.73978654464 417.014281874284  C 1209.73978654464 417.014281874284  1206.16490113937 417.5  1206.16490113937 417.5  C 1206.16490113937 417.5  1047 417.5  1047 417.5  C 1044.48 417.5  1042.5 415.52  1042.5 413  C 1042.5 413  1042.5 373  1042.5 373  C 1042.5 370.48  1044.48 368.5  1047 368.5  C 1047 368.5  1206.16490113937 368.5  1206.16490113937 368.5  Z " fill-rule="nonzero" fill="#f2f2f2" stroke="none" />
    <path d="M 1206.16490113937 368.5  C 1206.16490113937 368.5  1209.73978654464 368.985718125716  1209.73978654464 368.985718125716  C 1209.73978654464 368.985718125716  1225.45046339751 393  1225.45046339751 393  C 1225.45046339751 393  1209.73978654464 417.014281874284  1209.73978654464 417.014281874284  C 1209.73978654464 417.014281874284  1206.16490113937 417.5  1206.16490113937 417.5  C 1206.16490113937 417.5  1047 417.5  1047 417.5  C 1044.48 417.5  1042.5 415.52  1042.5 413  C 1042.5 413  1042.5 373  1042.5 373  C 1042.5 370.48  1044.48 368.5  1047 368.5  C 1047 368.5  1206.16490113937 368.5  1206.16490113937 368.5  Z " stroke-width="1" stroke="#e4e4e4" fill="none" />
  </g>
</svg>