<?xml version="1.0" encoding="utf-8"?>
<svg version="1.1" xmlns:xlink="http://www.w3.org/1999/xlink" width="200px" height="50px" xmlns="http://www.w3.org/2000/svg">
  <g transform="matrix(1 0 0 1 -508 -368 )">
    <path d="M 688.19868443825 368.5  C 688.19868443825 368.5  691.74327325079 368.943073601568  691.74327325079 368.943073601568  C 691.74327325079 368.943073601568  707.453919062011 393  707.453919062011 393  C 707.453919062011 393  691.74327325079 417.056926398433  691.74327325079 417.056926398433  C 691.74327325079 417.056926398433  688.19868443825 417.5  688.19868443825 417.5  C 688.19868443825 417.5  513 417.5  513 417.5  C 510.48 417.5  508.5 415.52  508.5 413  C 508.5 413  508.5 373  508.5 373  C 508.5 370.48  510.48 368.5  513 368.5  C 513 368.5  688.19868443825 368.5  688.19868443825 368.5  Z " fill-rule="nonzero" fill="#0079fe" stroke="none" />
    <path d="M 688.19868443825 368.5  C 688.19868443825 368.5  691.74327325079 368.943073601568  691.74327325079 368.943073601568  C 691.74327325079 368.943073601568  707.453919062011 393  707.453919062011 393  C 707.453919062011 393  691.74327325079 417.056926398433  691.74327325079 417.056926398433  C 691.74327325079 417.056926398433  688.19868443825 417.5  688.19868443825 417.5  C 688.19868443825 417.5  513 417.5  513 417.5  C 510.48 417.5  508.5 415.52  508.5 413  C 508.5 413  508.5 373  508.5 373  C 508.5 370.48  510.48 368.5  513 368.5  C 513 368.5  688.19868443825 368.5  688.19868443825 368.5  Z " stroke-width="1" stroke="#0079fe" fill="none" />
  </g>
</svg>