<?xml version="1.0" encoding="utf-8"?>
<svg version="1.1" xmlns:xlink="http://www.w3.org/1999/xlink" width="355px" height="155px" xmlns="http://www.w3.org/2000/svg">
  <defs>
    <mask fill="white" id="clip465">
      <path d="M 0 32.7032966864735  C 0 32.7032966864735  0 9.31578558683395  0 9.31578558683395  C 0 4.1708174285136  4.1670544484941 0  9.30737594165288 0  C 9.30737594165288 0  345.692624058347 0  345.692624058347 0  C 350.832941113403 0  355 4.17082131536381  355 9.31578947368416  C 355 9.31578947368416  355 32.1311079075463  355 32.1311079075463  C 347.165009008223 32.3563875273655  342.882643863037 36.7843294394643  342.882643863037 44.6809210526317  C 342.882643863037 52.5775126657988  347.165009008223 57.0054523568404  355 57.2307341977169  C 355 57.2307341977169  355 145.684210526316  355 145.684210526316  C 355 150.829174242522  350.832941113403 155  345.692624058347 155  C 345.692624058347 155  9.30736762021033 155  9.30736762021033 155  C 4.16704612705155 155  0 150.829174242522  0 145.684210526316  C 0 145.684210526316  0 56.6585454187896  0 56.6585454187896  C 6.0498418497732 54.8959054695933  9.47079793435948 51.3051666711506  9.47079793435948 44.6809210526317  C 9.47079793435948 38.0566776551698  6.0498418497732 34.4659388567272  0 32.7032966864735  Z " fill-rule="evenodd" />
    </mask>
  </defs>
  <g transform="matrix(1 0 0 1 -44 -225 )">
    <path d="M 0 32.7032966864735  C 0 32.7032966864735  0 9.31578558683395  0 9.31578558683395  C 0 4.1708174285136  4.1670544484941 0  9.30737594165288 0  C 9.30737594165288 0  345.692624058347 0  345.692624058347 0  C 350.832941113403 0  355 4.17082131536381  355 9.31578947368416  C 355 9.31578947368416  355 32.1311079075463  355 32.1311079075463  C 347.165009008223 32.3563875273655  342.882643863037 36.7843294394643  342.882643863037 44.6809210526317  C 342.882643863037 52.5775126657988  347.165009008223 57.0054523568404  355 57.2307341977169  C 355 57.2307341977169  355 145.684210526316  355 145.684210526316  C 355 150.829174242522  350.832941113403 155  345.692624058347 155  C 345.692624058347 155  9.30736762021033 155  9.30736762021033 155  C 4.16704612705155 155  0 150.829174242522  0 145.684210526316  C 0 145.684210526316  0 56.6585454187896  0 56.6585454187896  C 6.0498418497732 54.8959054695933  9.47079793435948 51.3051666711506  9.47079793435948 44.6809210526317  C 9.47079793435948 38.0566776551698  6.0498418497732 34.4659388567272  0 32.7032966864735  Z " fill-rule="nonzero" fill="#ffffff" stroke="none" transform="matrix(1 0 0 1 44 225 )" />
    <path d="M 0 32.7032966864735  C 0 32.7032966864735  0 9.31578558683395  0 9.31578558683395  C 0 4.1708174285136  4.1670544484941 0  9.30737594165288 0  C 9.30737594165288 0  345.692624058347 0  345.692624058347 0  C 350.832941113403 0  355 4.17082131536381  355 9.31578947368416  C 355 9.31578947368416  355 32.1311079075463  355 32.1311079075463  C 347.165009008223 32.3563875273655  342.882643863037 36.7843294394643  342.882643863037 44.6809210526317  C 342.882643863037 52.5775126657988  347.165009008223 57.0054523568404  355 57.2307341977169  C 355 57.2307341977169  355 145.684210526316  355 145.684210526316  C 355 150.829174242522  350.832941113403 155  345.692624058347 155  C 345.692624058347 155  9.30736762021033 155  9.30736762021033 155  C 4.16704612705155 155  0 150.829174242522  0 145.684210526316  C 0 145.684210526316  0 56.6585454187896  0 56.6585454187896  C 6.0498418497732 54.8959054695933  9.47079793435948 51.3051666711506  9.47079793435948 44.6809210526317  C 9.47079793435948 38.0566776551698  6.0498418497732 34.4659388567272  0 32.7032966864735  Z " stroke-width="2" stroke="#ececec" fill="none" transform="matrix(1 0 0 1 44 225 )" mask="url(#clip465)" />
  </g>
</svg>