<?xml version="1.0" encoding="utf-8"?>
<svg version="1.1" xmlns:xlink="http://www.w3.org/1999/xlink" width="8px" height="5px" xmlns="http://www.w3.org/2000/svg">
  <g transform="matrix(1 0 0 1 -1587 -823 )">
    <path d="M 7.814 1.23706896551724  C 8.048 0.982758620689656  8.048 0.575431034482757  7.814 0.323275862068966  C 7.7015848405614 0.201202448299079  7.54859467949605 0.132543052346352  7.389 0.132543052346352  C 7.22940532050395 0.132543052346352  7.07641515943861 0.201202448299079  6.964 0.323275862068966  L 4.568 2.9051724137931  C 4.256 3.24137931034483  3.75 3.24137931034483  3.436 2.9051724137931  L 1.038 0.321120689655172  C 0.804 0.0689655172413791  0.424 0.0689655172413791  0.19 0.321120689655172  C -0.0439999999999998 0.573275862068964  -0.0439999999999998 0.982758620689656  0.19 1.23491379310345  L 3.442 4.73922413793103  C 3.754 5.07543103448276  4.262 5.07543103448276  4.574 4.73922413793103  L 7.814 1.23706896551724  Z " fill-rule="nonzero" fill="#ffffff" stroke="none" transform="matrix(1 0 0 1 1587 823 )" />
  </g>
</svg>