<?xml version="1.0" encoding="utf-8"?>
<svg version="1.1" xmlns:xlink="http://www.w3.org/1999/xlink" width="14px" height="16px" xmlns="http://www.w3.org/2000/svg">
  <g transform="matrix(1 0 0 1 -1584 -815 )">
    <path d="M 13.8770833333333 15.2673267326733  C 13.8770833333333 15.5960396039604  13.5979166666667 15.8613861386139  13.2520833333333 15.8613861386139  L 0.752083333333334 15.8613861386139  C 0.406250000000001 15.8613861386139  0.127083333333334 15.5960396039604  0.127083333333334 15.2673267326733  C 0.127083333333334 14.9386138613861  0.406250000000001 14.6732673267327  0.752083333333334 14.6732673267327  L 13.2520833333333 14.6732673267327  C 13.5979166666667 14.6732673267327  13.8770833333333 14.9386138613861  13.8770833333333 15.2673267326733  Z M 7 11.7821782178218  C 6.65416666666667 11.7821782178218  6.375 11.5168316831683  6.375 11.1881188118812  L 6.375 0.613861386138614  C 6.375 0.285148514851485  6.65416666666667 0.0198019801980198  7 0.0198019801980198  C 7.34583333333333 0.0198019801980198  7.625 0.285148514851485  7.625 0.613861386138614  L 7.625 11.1881188118812  C 7.625 11.5168316831683  7.34583333333333 11.7821782178218  7 11.7821782178218  Z " fill-rule="nonzero" fill="#ffffff" stroke="none" transform="matrix(1 0 0 1 1584 815 )" />
  </g>
</svg>