<?xml version="1.0" encoding="utf-8"?>
<svg version="1.1" xmlns:xlink="http://www.w3.org/1999/xlink" width="64px" height="64px" xmlns="http://www.w3.org/2000/svg">
  <g transform="matrix(1 0 0 1 -299 -213 )">
    <path d="M 64 32  C 64 14.3268880054146  49.6731119945854 0  32 0  C 14.3268880054146 0  0 14.3268880054146  0 32  C 0 49.6731119945854  14.3268880054146 64  32 64  C 49.6731119945854 64  64 49.6731119945854  64 32  Z M 53 48  C 48.2972164657694 54.7148224705042  40.3935280844417 58.6666666727458  32 58.6666666875  C 23.6064719155583 58.6666666727457  15.7027835342305 54.7148224705042  11 48  L 11 27  L 37.3333333125 27  L 40 16  L 42.6666666875 27  L 53 27  L 53 48  Z " fill-rule="nonzero" fill="#333333" stroke="none" transform="matrix(1 0 0 1 299 213 )" />
  </g>
</svg>