<?xml version="1.0" encoding="utf-8"?>
<svg version="1.1" xmlns:xlink="http://www.w3.org/1999/xlink" width="94px" height="94px" xmlns="http://www.w3.org/2000/svg">
  <g transform="matrix(1 0 0 1 -284 -198 )">
    <path d="M 331 198.5  C 357.04 198.5  377.5 218.96  377.5 245  C 377.5 271.04  357.04 291.5  331 291.5  C 304.96 291.5  284.5 271.04  284.5 245  C 284.5 218.96  304.96 198.5  331 198.5  Z " fill-rule="nonzero" fill="#95ccff" stroke="none" fill-opacity="0" />
    <path d="M 331 198.5  C 357.04 198.5  377.5 218.96  377.5 245  C 377.5 271.04  357.04 291.5  331 291.5  C 304.96 291.5  284.5 271.04  284.5 245  C 284.5 218.96  304.96 198.5  331 198.5  Z " stroke-width="1" stroke="#3c469f" fill="none" stroke-opacity="0.349019607843137" />
  </g>
</svg>