<?xml version="1.0" encoding="utf-8"?>
<svg version="1.1" xmlns:xlink="http://www.w3.org/1999/xlink" width="27px" height="11px" xmlns="http://www.w3.org/2000/svg">
  <g transform="matrix(1 0 0 1 -318 -245 )">
    <path d="M 2.8333333125 0  C 1.36057399251972 0  0.166666687499998 1.19390736751972  0.166666687499998 2.6666666875  L 0.166666687499998 8  C 0.166892132394256 9.47259989878565  1.36073342770732 10.6662584392156  2.83333334375 10.6662584392156  C 4.30593325979267 10.6662584392156  5.49977455510574 9.47259989878565  5.5 8  L 5.5 2.6666666875  C 5.5 1.19390734311195  4.30609265688805 0  2.8333333125 0  Z M 26.8333333125 2.6666666875  C 26.8333333125 1.19390736751972  25.6394260074803 0  24.1666666875 0  C 22.693907343112 0  21.5 1.19390734311196  21.5 2.6666666875  L 21.5 8  C 21.5002254449028 9.47259989877961  22.6940667402134 10.6662584392001  24.16666665625 10.6662584392001  C 25.6392665722866 10.6662584392001  26.8331078675972 9.47259989877961  26.8333333125 8  L 26.8333333125 2.6666666875  Z " fill-rule="nonzero" fill="#333333" stroke="none" transform="matrix(1 0 0 1 318 245 )" />
  </g>
</svg>