<?xml version="1.0" encoding="utf-8"?>
<svg version="1.1" xmlns:xlink="http://www.w3.org/1999/xlink" width="94px" height="94px" xmlns="http://www.w3.org/2000/svg">
  <g transform="matrix(1 0 0 1 -109 -198 )">
    <path d="M 156 198  C 182.32 198  203 218.68  203 245  C 203 271.32  182.32 292  156 292  C 129.68 292  109 271.32  109 245  C 109 218.68  129.68 198  156 198  Z " fill-rule="nonzero" fill="#95ccff" stroke="none" />
    <path d="M 156 198.5  C 182.04 198.5  202.5 218.96  202.5 245  C 202.5 271.04  182.04 291.5  156 291.5  C 129.96 291.5  109.5 271.04  109.5 245  C 109.5 218.96  129.96 198.5  156 198.5  Z " stroke-width="1" stroke="#1585ec" fill="none" />
  </g>
</svg>