<?xml version="1.0" encoding="utf-8"?>
<svg version="1.1" xmlns:xlink="http://www.w3.org/1999/xlink" width="19px" height="19px" xmlns="http://www.w3.org/2000/svg">
  <g transform="matrix(1 0 0 1 -181 -275 )">
    <path d="M 19 9.5  C 19 14.746375  14.746375 19  9.5 19  C 4.253625 19  0 14.746375  0 9.5  C 0 4.253625  4.253625 0  9.5 0  C 14.746375 0  19 4.253625  19 9.5  Z M 4.24808332714844 10.0969166728516  L 7.3815 13.2303333271484  C 7.5670903690856 13.4159726431182  7.81883430646367 13.5202678405358  8.08133333642578 13.5202678405358  C 8.34383236638789 13.5202678405358  8.59557630376596 13.4159726431182  8.78116667285156 13.2303333271484  L 14.7804166728516 7.23108332714844  C 14.9660240097432 7.0454759877963  15.0702971256399 6.79373841484794  15.0702971256399 6.53125  C 15.0702971256399 5.98464616751982  14.627187168906 5.54153621078592  14.0805833364258 5.54153621078592  C 13.8180949170314 5.54153621078592  13.5663573401064 5.64580933028462  13.38075 5.83141667285156  L 8.03858332714844 11.0880833271484  L 5.64775 8.69725  C 5.46214265904046 8.51164265904046  5.21040508243521 8.40736954065163  4.94791666357422 8.40736954065163  C 4.40131282747101 8.40736954065163  3.95820286780007 8.85047950032257  3.95820286780007 9.39708333642578  C 3.95820286780007 9.65957175528678  4.0624759861889 9.91130933189202  4.24808332714844 10.0969166728516  Z " fill-rule="nonzero" fill="#1890ff" stroke="none" transform="matrix(1 0 0 1 181 275 )" />
  </g>
</svg>