<?xml version="1.0" encoding="utf-8"?>
<svg version="1.1" xmlns:xlink="http://www.w3.org/1999/xlink" width="59px" height="66px" xmlns="http://www.w3.org/2000/svg">
  <g transform="matrix(1 0 0 1 -127 -212 )">
    <path d="M 16.1648104281915 44.8380609693396  C 16.1648104281915 46.1928808256588  17.2719604609252 47.2911793231132  18.6376992393617 47.2911793231132  C 20.0034380177982 47.2911793231132  21.1105880505319 46.1928808256588  21.1105880505319 44.8380609693396  C 21.1105880505319 43.4832411130205  20.0034380177982 42.384942615566  18.6376992393617 42.384942615566  C 17.2719604609252 42.384942615566  16.1648104281915 43.4832411130205  16.1648104281915 44.8380609693396  Z M 36.7982300159574 44.8380609693396  C 36.7982300159574 46.1928808256588  37.9053800486911 47.2911793231132  39.2711188271277 47.2911793231132  C 40.6368576055642 47.2911793231132  41.7440076382979 46.1928808256588  41.7440076382979 44.8380609693396  C 41.7440076382979 43.4832411130205  40.6368576055642 42.384942615566  39.2711188271277 42.384942615566  C 37.9053800486911 42.384942615566  36.7982300159574 43.4832411130205  36.7982300159574 44.8380609693396  Z M 56.9807633656915 39.4810384245283  C 58.170762375 36.0138913231132  59.2021965305851 31.731188370283  58.909232893617 27.8151668632075  C 58.909232893617 27.8151668632075  58.1809586263298 21.6203680259434  54.8322299574468 18.0269051745283  C 54.8322299574468 18.0269051745283  57.1865363789894 16.7688467193396  54.6515864720745 14.6146327146226  C 54.6515864720745 14.6146327146226  52.3900103976064 14.075760615566  51.9358325558511 14.256393509434  C 51.9358325558511 14.256393509434  50.7610879494681 10.3037357759434  48.4069420518617 9.31598942688679  C 48.4069420518617 9.31598942688679  46.4140028630319 8.83653188207547  45.9599856236702 10.7530878254717  C 45.9599856236702 10.7530878254717  40.6670513736702 8.08182421698113  36.8394969853723 7.40731822641509  C 36.8394969853723 7.40731822641509  27.0655606728723 5.54396450943396  24.4410115771277 1.03244399292453  C 24.4410115771277 1.03244399292453  23.8741121954787 -0.111882608490566  22.0207903869681 0.560472933962265  C 22.0207903869681 0.560472933962265  20.2524111609043 1.95185559198113  20.7945021409575 7.51945705188679  C 20.7945021409575 7.51945705188679  20.945600356383 8.65804928066038  13.401045418883 3.86841153537736  C 13.401045418883 3.86841153537736  11.5315058284575 3.38975042688679  10.9894951103723 4.82565413207547  C 10.9894951103723 4.82565413207547  10.0262237646277 8.23768765330189  11.2303531170213 10.7530080495283  C 11.2303531170213 10.7530080495283  6.88599780053192 11.5304142665094  5.01196220611703 13.3872371745283  C 5.01196220611703 13.3872371745283  2.90292945478724 16.0818365306604  6.46024124734043 16.5006849056604  C 6.46024124734043 16.5006849056604  1.1538189069149 19.4939496721698  0.244820892287243 27.9346329339623  C 0.244820892287243 27.9346329339623  0.138682795212775 33.8568896745283  2.05270085372341 40.4266530353774  C 1.64460719015958 41.4995389174528  1.48066313696809 42.6752453278302  1.61152929521278 43.8765174764151  C 1.98526055851065 47.3061523726415  4.65661634707448 50.0262377688679  8.11509607845746 50.5077660636792  C 9.20618268617022 53.8011298726415  11.0685768430851 56.818447125  13.6113947765958 59.3409355259434  C 17.8825292101064 63.5780024363208  23.5613179680851 65.9114157028302  29.6016345611702 65.9114157028302  C 35.6419511542553 65.9114157028302  41.3207399122341 63.5780024363208  45.5918743457447 59.3409355259434  C 48.189126212766 56.764448384434  50.0751243710107 53.6712302759434  51.155854125 50.2955145  C 54.4914962486702 49.871648490566  57.1528965718085 47.3453372264151  57.6892069640958 44.0409825495283  C 57.9493335704787 42.4378262051887  57.6767626715426 40.8528286556604  56.9807633656915 39.4810384245283  Z M 7.53093503856383 48.3993474976415  L 7.63627035904255 49.3662271061321  C 4.95937484707447 48.7320210424528  2.9486121662234 46.5121006132075  2.64930595079787 43.7651750872642  C 2.59583547473404 43.2746469764151  2.60033147872341 42.7890568018868  2.65621051994681 42.31541325  C 3.13840818351064 43.6977961698113  3.71630675 45.0864709599057  4.41005801462766 46.4339696886792  C 4.41005801462766 46.4339696886792  5.84203893351064 47.8545020872642  7.31825745611702 47.3303641768868  C 7.38047907579787 47.6890016391509  7.45145191755319 48.0454090330189  7.53093503856383 48.3993474976415  Z M 50.2591398789894 49.6385303419811  C 47.5859375159574 58.4436650589623  39.3375153244681 64.8760423372642  29.6017148231383 64.8760423372642  C 19.3333773404255 64.8760423372642  10.7190115718085 57.7208947004717  8.55602669414893 48.1729990188679  L 8.37995955319149 46.5571792358491  C 8.54928272739362 46.3580689882075  8.71451128590425 46.1204109268868  8.87315640159574 45.8364796273585  C 8.87315640159574 45.8364796273585  9.05966073670213 39.1894614764151  13.0428093444149 35.2382372971698  C 13.0428093444149 35.2382372971698  16.5425559667553 36.1990638962264  21.0088656954787 33.7411668466981  C 21.0088656954787 33.7411668466981  19.1363555492021 36.016758509434  17.4459339960106 37.2139687783019  C 17.4459339960106 37.2139687783019  16.4794512300532 39.5492934764151  18.6531141662234 39.7896594056604  C 18.6531141662234 39.7896594056604  25.3516955638298 41.0471603632075  32.0502770398936 36.6762116745283  C 32.0502770398936 36.6762116745283  31.6889900691489 38.8915923466981  34.8892699521277 38.2315816061321  C 34.8892699521277 38.2315816061321  37.4799382978723 38.1726449292453  41.6465404228723 34.9986677264151  C 41.6465404228723 34.9986677264151  42.5527284055851 36.4954195400943  45.9599856236702 34.6409063985849  C 45.9599856236702 34.6409063985849  45.8718316210106 37.602711735849  48.587505275266 42.1826465448113  C 48.587505275266 42.1826465448113  49.7651401755319 44.0877337429245  49.7651401755319 47.4450517853773  C 49.7651401755319 47.4450517853773  50.0744017779255 47.6980811533019  50.5380534348404 47.9198103325472  L 50.2591398789894 49.6385303419811  Z M 56.4528028071809 40.9454549080189  C 56.7408688949468 41.8708398962264  56.8222788523936 42.8694177948113  56.658816606383 43.8763583136792  C 56.2210974109043 46.5731080400943  54.1396027526596 48.6681464292453  51.4771587101064 49.1942754693396  C 51.560174456117 48.8793626179245  51.6364460784575 48.5622197759434  51.7057329481383 48.2431654245283  C 52.522562606383 48.2884829080189  53.4202403098404 47.9090583254717  54.018772400266 46.4051385849057  C 54.018772400266 46.4051385849057  55.2298865837766 44.1793245424528  56.4528028071809 40.9454549080189  Z " fill-rule="nonzero" fill="#000000" stroke="none" transform="matrix(1 0 0 1 127 212 )" />
  </g>
</svg>