<?xml version="1.0" encoding="utf-8"?>
<svg version="1.1" xmlns:xlink="http://www.w3.org/1999/xlink" width="21px" height="21px" xmlns="http://www.w3.org/2000/svg">
  <g transform="matrix(1 0 0 1 -504 -402 )">
    <path d="M 20.920466733871 10.5141622983871  C 20.920466733871 4.76761391129032  16.2618538306452 0.109001008064516  10.5153054435484 0.109001008064516  C 4.76875705645161 0.109001008064516  0.110144153225806 4.76761391129032  0.110144153225806 10.5141622983871  C 0.110144153225806 16.2607106854839  4.76875705645161 20.9193235887097  10.5153054435484 20.9193235887097  C 16.2618538306452 20.9193235887097  20.920466733871 16.2607106854839  20.920466733871 10.5141622983871  Z M 16.5688094758065 7.25272681451613  C 16.5688094758065 7.25272681451613  8.95628830645161 14.3944203629032  8.95395967741935 14.3964526209677  C 8.78314415322581 14.5629495967742  8.50741330645161 14.5594566532258  8.34091633064516 14.3886411290323  L 4.45343951612903 10.5523306451613  C 4.28694254032258 10.3815151209677  4.29043548387097 10.1057842741935  4.46125100806452 9.9392872983871  C 4.63206653225806 9.77279032258064  4.90779737903226 9.77628326612903  5.07429435483871 9.94709879032258  L 8.65396875 13.4724314516129  L 15.9633024193548 6.63189314516129  C 16.1341179435484 6.46539616935484  16.4098487903226 6.46888911290323  16.576345766129 6.63970463709678  C 16.7431179435484 6.81052016129032  16.7396461693548 7.08625100806452  16.5688306451613 7.25274798387097  Z " fill-rule="nonzero" fill="#419fe3" stroke="none" transform="matrix(1 0 0 1 504 402 )" />
  </g>
</svg>