<?xml version="1.0" encoding="utf-8"?>
<svg version="1.1" xmlns:xlink="http://www.w3.org/1999/xlink" width="11px" height="11px" xmlns="http://www.w3.org/2000/svg">
  <g transform="matrix(1 0 0 1 -37 -5 )">
    <path d="M 5.5 0.0967324561403508  C 8.48396710526316 0.0967324561403508  10.90375 2.51552631578947  10.90375 5.5  C 10.90375 8.48396710526316  8.48447368421053 10.90375  5.5 10.90375  C 2.51603289473684 10.90375  0.0962500000000002 8.48447368421053  0.0962500000000002 5.5  C 0.0967324561403508 2.51603289473684  2.51603289473684 0.09625  5.5 0.09625  Z M 5.99902313469871 7.55839912280702  C 5.99902313469871 7.28022893481516  5.77803983645109 7.05237450870327  5.5 7.04385964912281  C 5.49474901624464 7.04369883983049  5.48949587848297 7.04361842105263  5.48424243294432 7.04361842105263  C 5.19993690185818 7.04361842105263  4.96946173118994 7.27409359172087  4.96946173118994 7.55839912280702  C 4.96946173118994 7.84270465389316  5.19993690185818 8.0731798245614  5.48424243294432 8.0731798245614  C 5.48949587848297 8.0731798245614  5.49474901624464 8.07309940578355  5.5 8.07293859649123  C 5.77803983645109 8.06442373691076  5.99902313469871 7.83656931079887  5.99902313469871 7.55839912280702  Z M 5.58052192982456 2.92706140350877  L 5.41947807017544 2.92706140350877  C 5.1351273956696 2.92706140152936  4.90465222500136 3.1575365721976  4.90465222500136 3.44184210328374  C 4.90465222500136 3.45701748360881  4.9053232644719 3.47218544214327  4.90666337719298 3.48730153508772  L 5.14972478070176 6.2089451754386  C 5.16640110689363 6.38994545502949  5.31823311339179 6.52843160045741  5.5 6.52843160045741  C 5.68176688660821 6.52843160045741  5.83359889310637 6.38994545502949  5.85027521929825 6.2089451754386  L 6.09333662280702 3.48730153508772  C 6.0946767355281 3.47218544214328  6.09534777499864 3.4570174836088  6.09534777499864 3.44184210328374  C 6.09534777499864 3.1575365721976  5.8648726043304 2.92706140152936  5.58056707324426 2.92706140152936  Z " fill-rule="nonzero" fill="#f14163" stroke="none" transform="matrix(1 0 0 1 37 5 )" />
  </g>
</svg>