<?xml version="1.0" encoding="utf-8"?>
<svg version="1.1" xmlns:xlink="http://www.w3.org/1999/xlink" width="9px" height="10px" xmlns="http://www.w3.org/2000/svg">
  <g transform="matrix(1 0 0 1 -38 -6 )">
    <path d="M 8.97804878048781 8.1063829787234  L 0.021951219512195 8.1063829787234  L 0.021951219512195 6.87234042553191  C 0.021951219512195 6.19148936170213  0.592682926829268 5.63829787234043  1.29512195121951 5.63829787234043  L 3.22682926829268 5.63829787234043  L 3.22682926829268 4.65957446808511  C 2.48048780487805 4.23404255319149  1.95365853658537 3.42553191489362  1.95365853658537 2.53191489361702  C 1.95365853658537 1.17021276595745  3.09512195121951 0.0638297872340438  4.5 0.0638297872340438  C 5.90487804878049 0.0638297872340438  7.04634146341463 1.17021276595745  7.04634146341463 2.53191489361702  C 7.04634146341463 3.46808510638298  6.51951219512195 4.23404255319149  5.77317073170732 4.65957446808511  L 5.77317073170732 5.63829787234043  L 7.70487804878049 5.63829787234043  C 8.40731707317073 5.63829787234043  8.97804878048781 6.19148936170213  8.97804878048781 6.87234042553191  L 8.97804878048781 8.1063829787234  Z M 7.09024390243902 9.97872340425532  L 7.04634146341463 9.97872340425532  L 1.95365853658537 9.97872340425532  L 1.95365853658537 8.74468085106383  L 7.09024390243902 8.74468085106383  L 7.09024390243902 9.97872340425532  Z " fill-rule="nonzero" fill="#4b68fa" stroke="none" transform="matrix(1 0 0 1 38 6 )" />
  </g>
</svg>