<?xml version="1.0" encoding="utf-8"?>
<svg version="1.1" xmlns:xlink="http://www.w3.org/1999/xlink" width="18px" height="22px" xmlns="http://www.w3.org/2000/svg">
  <g transform="matrix(1 0 0 1 -101 -442 )">
    <path d="M 1.69073807565789 2.934765625  C 1.69073807565789 2.1806640625  2.29718338815789 1.5705078125  3.04194078947368 2  L 17.6306743421053 2  L 17.6306743421053 0.2599609375  L 3.68243215460526 0.2578125  C 1.8524568256579 0.2578125  0.369325657894738 1.757421875  0.369325657894738 3.6072265625  L 0.369325657894738 18.394921875  C 0.369325657894738 20.2447265625  1.8524568256579 21.7443359375  3.68243215460526 21.7443359375  L 14.3175678453947 21.7443359375  C 16.1475431743421 21.7443359375  17.6306743421053 20.2447265625  17.6306743421053 18.394921875  L 17.6306743421053 4.301171875  L 10.6874074835526 4.301171875  L 10.6874074835526 13.6275390625  L 7.88711965460526 10.944140625  L 5.02725123355263 13.6275390625  L 5.02725123355263 4.301171875  L 3.04194078947368 4.301171875  C 2.29505550986842 4.301171875  1.69073807565789 3.6888671875  1.69073807565789 2.934765625  Z " fill-rule="nonzero" fill="#57c1ae" stroke="none" transform="matrix(1 0 0 1 101 442 )" />
  </g>
</svg>