<?xml version="1.0" encoding="utf-8"?>
<svg version="1.1" xmlns:xlink="http://www.w3.org/1999/xlink" width="20px" height="15px" xmlns="http://www.w3.org/2000/svg">
  <g transform="matrix(1 0 0 1 -99 -628 )">
    <path d="M 19.5518612440944 0.456060204896423  C 19.3523104269942 0.247289787624942  19.0799157671235 0.129754981933371  18.7956551152504 0.129766949152543  L 1.15742964000837 0.129766949152543  C 0.873143635362306 0.129753598873121  0.600721888703995 0.247286787469863  0.401137909018623 0.456060204896422  C 0.201571512081194 0.66480434887243  0.091513148262305 0.947360089813828  0 1.24046610169492  L 0 13.8446548376648  C 0.0956037539386329 14.4506973870684  0.569752016100744 14.9432379944758  1.15742964000837 15  L 18.7956551152504 15  C 18.7957003089746 14.9475194269188  18.7957455027182 14.9475194298948  18.7957906964428 14.9475194298948  C 19.3821145679889 14.9475194298948  19.857423978415 14.4573566003928  19.857423978415 13.8527101078609  C 19.857423978415 13.850032347114  19.8574144519374 13.8473545953783  19.8573953991744 13.8446769067169  L 19.8573953991744 1.24046610169492  C 19.8615172742373 0.947354096743736  19.751454241854 0.664786370073949  19.5518612440944 0.456060204896423  Z M 10.1331615351709 4.44670286026365  L 10.1331615351709 4.4073093220339  L 13.0817362657384 4.4073093220339  C 13.4129509549735 4.4073093220339  13.6813767383819 4.68412341092279  13.6813767383819 5.02568855919648  C 13.6813767383819 5.36723163816698  13.412950955217 5.64404572730697  13.0817362657384 5.64404572730697  L 10.1331615351709 5.64404572730697  C 9.81249726535411 5.64404572730697  9.55258885916795 5.3760372527307  9.55258885916795 5.04541843214062  C 9.55258885916795 4.71473340389203  9.81249726535411 4.44670286001255  10.1331615351709 4.44670286026365  Z M 3.21989753949286 5.28957009190207  C 3.21989753949286 4.21930173032015  4.06127744031654 3.35169491525424  5.09913482759801 3.35169491525424  C 5.85917163639407 3.35169491525424  6.54432828765242 3.82386564268675  6.83524593867869 4.54800052956686  C 7.12605658750975 5.27215748575016  6.96531784423519 6.10568944205901  6.42786706531987 6.65993555781544  C 5.89043768669748 7.21415960451978  5.08216427476269 7.37994350282486  4.37995146876676 7.08002295191463  C 3.67776006330727 6.78001412429379  3.21989753973635 6.07335805072191  3.21989753949286 5.28957009190207  Z M 7.55883778926744 11.749205508349  L 2.63172770568206 11.7492055086001  C 2.63172770568206 9.74046610169491  3.73175338615534 8.10979431512869  5.09913482735453 8.10979431487759  C 6.46649486850425 8.10979431487759  7.55883778926744 9.74048817074702  7.55883778926744 11.749205508349  Z M 17.1532565534212 11.7965660311362  L 17.1456593953699 11.7965660311362  L 10.1331615354144 11.7965660311362  C 9.8124972655976 11.7964777544256  9.5526744613137 11.5284251412429  9.5526744613137 11.1978504590082  C 9.5526744613137 10.8672095691149  9.81249726559759 10.5992231638418  10.1331615354144 10.5991348868801  L 17.1532565534212 10.5991348868801  C 17.3606873257764 10.5990471472595  17.5523889840045 10.7131476646423  17.6560814121783 10.8984154307596  C 17.7598304763131 11.0836476890824  17.7598304763131 11.3118987445648  17.6560814121783 11.4971310028876  C 17.5523817931387 11.6824115475221  17.3607016696839 11.796558137894  17.1532565534212 11.7965660311362  Z M 17.1532565534212 8.70063117940992  L 17.1456593953699 8.70063117940992  L 10.1331615354144 8.70063117940992  C 9.8124972655976 8.70054290269931  9.5526744613137 8.43253442787194  9.5526744613137 8.10191560728186  C 9.5526744613137 7.77131885574388  9.81249726559759 7.5032883121155  10.1331615354144 7.5032000354049  L 17.1532565534212 7.5032000354049  C 17.4738352215793 7.5032883121155  17.7337436275219 7.77131885599498  17.7337436275219 8.10191560728186  C 17.7337436275219 8.43253442787194  17.4738352213358 8.70054290244821  17.1532565534212 8.70063117940992  Z " fill-rule="nonzero" fill="#1d92ff" stroke="none" transform="matrix(1 0 0 1 99 628 )" />
  </g>
</svg>