<?xml version="1.0" encoding="utf-8"?>
<svg version="1.1" xmlns:xlink="http://www.w3.org/1999/xlink" width="20px" height="20px" xmlns="http://www.w3.org/2000/svg">
  <g transform="matrix(1 0 0 1 -100 -708 )">
    <path d="M 19.4814814814815 19.1345029239766  L 18.2261208576998 15.7894736842105  C 19.3879142300195 14.1325536062378  20 12.1910331384016  20 10.1559454191033  C 20 4.73684210526316  15.5945419103314 0.331384015594542  10.1754385964912 0.331384015594542  C 4.75633528265107 0.331384015594542  0.350877192982456 4.73684210526316  0.350877192982456 10.1559454191033  C 0.350877192982456 15.5750487329435  4.75633528265107 19.9805068226121  10.1754385964912 19.9805068226121  C 11.7309941520468 19.9805068226121  13.270955165692 19.6101364522417  14.6471734892788 18.9044834307992  L 18.7368421052632 19.9610136452242  C 18.7875243664717 19.9727095516569  18.8421052631579 19.9805068226121  18.8927875243665 19.9805068226121  C 19.0682261208577 19.9805068226121  19.2397660818713 19.906432748538  19.3606237816764 19.7738791423002  C 19.5165692007797 19.598440545809  19.5633528265107 19.3528265107212  19.4814814814815 19.1345029239766  Z M 7.81286549707602 10.1559454191033  C 7.8167641325536 10.5653021442495  7.59454191033138 10.9473684210526  7.23976608187134 11.1500974658869  C 6.8849902534113 11.3567251461988  6.44444444444444 11.3567251461988  6.0896686159844 11.1500974658869  C 5.73489278752437 10.943469785575  5.51656920077973 10.5653021442495  5.51656920077973 10.1559454191033  C 5.51656920077973 9.74658869395711  5.73489278752437 9.364522417154  6.0896686159844 9.16179337231969  C 6.44444444444444 8.9551656920078  6.8849902534113 8.9551656920078  7.23976608187134 9.16179337231969  C 7.59454191033138 9.36842105263158  7.81286549707602 9.74658869395711  7.81286549707602 10.1559454191033  Z M 11.3216374269006 10.1559454191033  C 11.3255360623782 10.5653021442495  11.1072124756335 10.9473684210526  10.7485380116959 11.1500974658869  C 10.3937621832359 11.3567251461988  9.953216374269 11.3567251461988  9.59844054580897 11.1500974658869  C 9.24366471734893 10.943469785575  9.02534113060429 10.5653021442495  9.02534113060429 10.1559454191033  C 9.02534113060429 9.74658869395711  9.24366471734893 9.364522417154  9.59844054580897 9.16179337231969  C 9.953216374269 8.9551656920078  10.3937621832359 8.9551656920078  10.7485380116959 9.16179337231969  C 11.1033138401559 9.36842105263158  11.3216374269006 9.74658869395711  11.3216374269006 10.1559454191033  Z M 14.8343079922027 10.1559454191033  C 14.8343079922027 10.5653021442495  14.6159844054581 10.9473684210526  14.261208576998 11.1500974658869  C 13.906432748538 11.3567251461988  13.4658869395711 11.3567251461988  13.1111111111111 11.1500974658869  C 12.7563352826511 10.943469785575  12.5380116959064 10.5653021442495  12.5380116959064 10.1559454191033  C 12.5380116959064 9.74658869395711  12.7563352826511 9.364522417154  13.1111111111111 9.16179337231969  C 13.4658869395711 8.9551656920078  13.906432748538 8.9551656920078  14.261208576998 9.16179337231969  C 14.6159844054581 9.36842105263158  14.8343079922027 9.74658869395711  14.8343079922027 10.1559454191033  Z " fill-rule="nonzero" fill="#eb4682" stroke="none" transform="matrix(1 0 0 1 100 708 )" />
  </g>
</svg>