<?xml version="1.0" encoding="utf-8"?>
<svg version="1.1" xmlns:xlink="http://www.w3.org/1999/xlink" width="20px" height="19px" xmlns="http://www.w3.org/2000/svg">
  <g transform="matrix(1 0 0 1 -101 -805 )">
    <path d="M 19.8799330752212 9.50002169308036  C 19.8799330752212 14.7270366261161  15.4590239159292 18.9644208459821  10.0055716150442 18.9644208459821  C 4.55207404867257 18.9644208459821  0.131210154867257 14.7270366473214  0.131210154867257 9.50002171428572  C 0.131210154867257 4.27300678125  4.55207404867257 0.035579154017857  10.0055716150442 0.035579154017857  C 15.4590239159292 0.035579154017857  19.8799330752212 4.27300676004464  19.8799330752212 9.50002169308036  Z M 11.2097675663717 5.34487888839286  C 11.2097675663717 4.707475625  10.6706300884956 4.19072197991071  10.0055716150442 4.19072197991071  C 9.34051314159292 4.19072197991071  8.80137566371681 4.707475625  8.80137566371681 5.34487888839286  C 8.80137566371681 5.9823689453125  9.34051314159292 6.49912259040179  10.0055716150442 6.49912259040179  C 10.6706300884956 6.49912259040179  11.2097675663717 5.9823689453125  11.2097675663717 5.34487888839286  Z M 11.2097675663717 14.347641296875  L 11.2097675663717 8.8075015078125  C 11.2097675663717 8.29753983258929  10.7784168362832 7.88414126785714  10.2464108185841 7.88414126785714  L 9.76473243362832 7.88414126785714  C 9.23268112831859 7.88414126785714  8.80137568584071 8.29751813950893  8.80137568584071 8.8075015078125  L 8.80137568584071 14.347641296875  C 8.80137568584071 14.8575595647321  9.23265849557522 15.2710015368304  9.76473243362832 15.2710015368304  L 10.2464108185841 15.2710015368304  C 10.7784168362832 15.2710015368304  11.2097675663717 14.8575595647321  11.2097675663717 14.347641296875  Z " fill-rule="nonzero" fill="#a8d7ec" stroke="none" transform="matrix(1 0 0 1 101 805 )" />
  </g>
</svg>