<?xml version="1.0" encoding="utf-8"?>
<svg version="1.1" xmlns:xlink="http://www.w3.org/1999/xlink" width="16px" height="21px" xmlns="http://www.w3.org/2000/svg">
  <g transform="matrix(1 0 0 1 -102 -529 )">
    <path d="M 15.7947368421053 20.6870192307692  C 15.7947368421053 20.8536057692308  15.6526315789474 20.9899038461538  15.4789473684211 20.9899038461538  L 5.85526315789474 20.9899038461538  C 5.68157894736842 20.9899038461538  5.53947368421053 20.8536057692308  5.53947368421053 20.6870192307692  L 5.53947368421053 20.4850961538462  C 5.53947368421053 20.3185096153846  5.68157894736842 20.1822115384615  5.85526315789474 20.1822115384615  L 15.4789473684211 20.1822115384615  C 15.6526315789474 20.1822115384615  15.7947368421053 20.3185096153846  15.7947368421053 20.4850961538462  L 15.7947368421053 20.6870192307692  Z M 13.6473684210526 20.1796875  L 7.77894736842105 20.1822115384615  C 10.9210526315789 17.5875  10.7368421052632 14.0588942307692  9.8421052631579 12.1658653846154  C 11.4947368421053 11.5525240384615  12.0026315789474 11.0578125  12.1736842105263 9.4828125  C 14.0131578947368 11.1057692307692  13.8394736842105 18.1528846153846  13.6473684210526 20.1796875  Z M 14.5473684210526 4.01322115384615  L 10.8184210526316 7.63016826923077  C 10.6684210526316 7.56706730769231  10.5105263157895 7.51911057692308  10.35 7.48629807692308  C 10.3473684210526 7.48629807692308  10.3447368421053 7.48377403846154  10.3394736842105 7.48377403846154  C 10.1736842105263 7.45096153846154  10 7.43329326923077  9.82631578947369 7.43329326923077  C 8.43421052631579 7.43329326923077  7.30789473684211 8.52620192307692  7.30789473684211 9.8765625  C 7.30789473684211 10.0481971153846  7.32894736842106 10.2147836538462  7.36052631578948 10.3763221153846  C 7.36052631578948 10.3788461538462  7.36315789473685 10.3813701923077  7.36315789473685 10.3864182692308  C 7.39736842105264 10.5429086538462  7.44736842105263 10.696875  7.51315789473685 10.8407451923077  L 4.29473684210526 13.9554086538462  C 3.87105263157895 14.3643028846154  3.18947368421053 14.3643028846154  2.76578947368421 13.9554086538462  L 0.473684210526315 11.7342548076923  C 0.0499999999999994 11.3253605769231  0.0499999999999994 10.6615384615385  0.473684210526315 10.2551682692308  L 10.7263157894737 0.312980769230769  C 11.15 -0.0959134615384622  11.8315789473684 -0.0959134615384622  12.2552631578947 0.312980769230769  L 14.5473684210526 2.53413461538461  C 14.9710526315789 2.94302884615385  14.9710526315789 3.60685096153846  14.5473684210526 4.01322115384615  Z " fill-rule="nonzero" fill="#1976d2" stroke="none" transform="matrix(1 0 0 1 102 529 )" />
  </g>
</svg>