<?xml version="1.0" encoding="utf-8"?>
<svg version="1.1" xmlns:xlink="http://www.w3.org/1999/xlink" width="20px" height="20px" xmlns="http://www.w3.org/2000/svg">
  <g transform="matrix(1 0 0 1 -99 -574 )">
    <path d="M 9.81818181640625 7.18181818359375  C 9.772727265625 6.95454544921875  9.54545455078125 6.727272734375  9.272727265625 6.727272734375  L 7.227272734375 6.727272734375  C 6.95454546875 6.727272734375  6.727272734375 6.95454546875  6.727272734375 7.227272734375  L 6.727272734375 10.3636363671875  C 6.727272734375 10.4090909179688  6.727272734375 10.4545454492188  6.772727265625 10.5  C 6.86363634765625 10.6363636328125  7 10.6363636328125  7.1363636328125 10.5909090820312  L 8.18181818359375 9.90909091796875  C 8.272727265625 9.8636363671875  8.3636363671875 9.8636363671875  8.45454544921875 9.90909091796875  L 9.40909091796875 10.5454545507813  C 9.45454546875 10.5909091015625  9.5 10.5909091015625  9.54545455078125 10.5909090820312  C 9.68181818359375 10.5909090820312  9.81818181640625 10.4545454492188  9.81818181640625 10.3181818164063  L 9.81818181640625 7.18181818359375  Z M 19.9545454492188 9.40909091796875  C 20 7.04545455078125  19.6363636328125 5.5  18.9090909179688 4.18181818359375  C 18.1818181835937 2.8636363671875  17.1363636328125 1.81818181640625  15.8181818164062 1.09090908203125  C 14.5 0.3636363671875  12.9545454492188 0  10.5909090820312 0  L 9.3636363671875 0  C 7.04545455078125 0  5.5 0.3636363671875  4.18181818359375 1.09090908203125  C 2.8636363671875 1.81818181640625  1.81818181640625 2.8636363671875  1.09090908203125 4.18181818359375  C 0.3636363671875 5.5  0 7.04545455078125  0 9.40909091796875  L 0 10.6363636328125  C 0 12.9545454492188  0.3636363671875 14.5  1.09090908203125 15.8181818164062  C 1.81818181640625 17.1363636328125  2.8636363671875 18.1818181835937  4.18181818359375 18.9090909179688  C 5.5 19.6363636523437  7.04545455078125 20  9.3636363671875 20  L 10.5909090820312 20  C 12.9090908984375 20  14.4545454492187 19.6363636328125  15.772727265625 18.9090909179688  C 17.0909090820313 18.1818181835937  18.1363636328125 17.1363636523437  18.8636363671875 15.8181818164062  C 19.5909091015625 14.5  19.9545454492188 12.9545454492188  19.9545454492188 10.6363636328125  L 19.9545454492188 9.40909091796875  Z M 14.4090909179688 13.6363636328125  L 14.3636363671875 13.6363636328125  C 14.3636363671875 14.3636363671875  13.7727272851563 15  13 15  L 6.81818181640625 15  C 6.09090908203125 15  5.45454544921875 14.4090909179688  5.45454544921875 13.6363636328125  L 5.45454544921875 6.81818181640625  C 5.45454544921875 6.09090908203125  6.04545453125 5.45454544921875  6.81818181640625 5.45454544921875  L 13.0454545507813 5.45454544921875  C 13.7727272851563 5.45454544921875  14.4090909179688 6.04545453125  14.4090909179688 6.81818181640625  L 14.4090909179688 13.6363636328125  Z " fill-rule="nonzero" fill="#6146ff" stroke="none" transform="matrix(1 0 0 1 99 574 )" />
  </g>
</svg>