<?xml version="1.0" encoding="utf-8"?>
<svg version="1.1" xmlns:xlink="http://www.w3.org/1999/xlink" width="21px" height="22px" xmlns="http://www.w3.org/2000/svg">
  <g transform="matrix(1 0 0 1 -101 -398 )">
    <path d="M 20.9733334294355 20.7559808671875  C 20.9733334294355 19.9170653945312  19.9663093366935 18.7942583769531  17.9648332288306 18.4051036640625  C 17.6405665206507 18.3147267087794  17.4158143854856 18.0155439075874  17.4158143854856 17.6742674682751  C 17.4158143854856 17.4638934742171  17.5019735204114 17.2629843645704  17.6536741118952 17.1196172167969  C 18.3071632146117 16.4212566268305  18.6677827322474 15.4925674668297  18.6594409989919 14.5295055898438  C 18.6594409989919 12.9824561582031  17.6979907167339 12.0382775175781  16.5118143961694 12.0382775175781  C 15.3256380756048 12.0382775175781  14.3645020947581 12.9824561367188  14.3645020947581 14.5295055898438  C 14.3569375994192 15.4903310972469  14.7150929857516 16.4170409355068  15.364297233871 17.1164274316406  L 15.3605256169355 17.1164274316406  C 15.5151395626328 17.2600562399885  15.6031908712394 17.4629960544292  15.6031908712394 17.675719990252  C 15.6031908712394 18.0191728389677  15.3757106399003 18.3197321041159  15.0487378760081 18.4082934707031  C 13.0522906118952 18.7974481835938  12.0509239657258 19.9170653945313  12.0509239657258 20.7559808671875  C 12.0509239657258 21.7862839003906  13.8012726532258 22  16.5118143961694 22  C 19.2223561391129 22  20.9733334294355 21.7862839003906  20.9733334294355 20.7559808671875  Z M 12.5767514546371 5.42902711914062  L 12.5767514546371 7.34609250976562  L 5.07593061895161 7.34609250976562  L 5.07593061895161 5.42902711914062  L 12.5767514546371 5.42902711914062  Z M 12.5767514546371 9.58851673828125  L 12.5767514546371 11.5087719355469  L 5.07593061895161 11.5087719355469  L 5.07593061895161 9.58851673828125  L 12.5767514546371 9.58851673828125  Z M 9.74803210584678 13.7065390644531  L 9.74803210584677 15.6236044550781  L 5.07593061895161 15.6236044550781  L 5.07593061895161 13.7065390644531  L 9.74803210584678 13.7065390644531  Z M 9.7668902328629 19.4704944199219  L 9.76563302721774 19.4704944199219  L 2 19.4704944199219  L 2 2  L 15.7339165614919 2  L 15.7339165614919 10.2073365195312  L 17.6235010917339 10.2073365195312  L 17.6235010917339 1.6395534375  C 17.6219412660477 0.735599564152492  16.8996316692314 0.00354021204614848  16.008930952621 0  L 1.64532264919355 0  C 0.754673028581983 0.00354055089872003  0.0324535059511688 0.735651129807199  0 1.6395534375  L 0 19.7511961796875  C 0.0324535176137659 20.6550984789881  0.754673036832946 21.3872090448261  1.64532264919355 21.3875598105469  L 9.7668902328629 21.3875598105469  L 9.7668902328629 19.4704944199219  Z " fill-rule="nonzero" fill="#ff7245" stroke="none" transform="matrix(1 0 0 1 101 398 )" />
  </g>
</svg>