<?xml version="1.0" encoding="utf-8"?>
<svg version="1.1" xmlns:xlink="http://www.w3.org/1999/xlink" width="9px" height="10px" xmlns="http://www.w3.org/2000/svg">
  <g transform="matrix(1 0 0 1 -37 -5 )">
    <path d="M 8.93262857142857 2.41216666992188  C 8.93212194237107 2.27658275062523  8.8471950123038 2.15480670375161  8.71782857477679 2.10416666992188  C 7.43948572098214 1.59666666992188  6.31114286383929 0.984166669921875  5.37685714285714 0.289166669921875  C 4.85942372999983 -0.0958614535536  4.14074770191982 -0.0958614535536  3.6233142890625 0.289166669921875  C 2.689028578125 0.984  1.56068572098214 1.59666666992188  0.282171425223215 2.10416666992188  C 0.152804987696207 2.15480670375161  0.0678780576289321 2.27658275062523  0.0673714285714294 2.41216666992187  L 0.0673714285714294 5.15083333007813  C 0.0673714285714294 7.52116666015625  3.85062857477679 9.99966666015625  4.5 9.99966666992188  C 5.14937142522322 9.99966666992188  8.93262857142857 7.521  8.93262857142857 5.15083333007813  L 8.93262857142857 2.41216666992188  Z M 4.88657142522321 6.69783333007812  L 4.88657142522321 7.03116666992187  C 4.88657142522321 7.21526157068539  4.73306905523568 7.36449998595105  4.54371428571428 7.36449998595105  C 4.35435952183611 7.36449998595105  4.20085715418606 7.21526157924788  4.20085714620536 7.03116666992187  L 4.20085714620536 6.69783333007812  C 4.20085715418606 6.51373842075212  4.35435952183611 6.36450001404895  4.54371428571428 6.36450001404895  C 4.73306905523568 6.36450001404895  4.88657142522321 6.51373842931461  4.88657142522321 6.69783334412707  Z M 4.88657142522321 3.13533333007812  L 4.88657142522321 5.46866666992187  C 4.88657142522321 5.65276157068539  4.73306905523568 5.80199998595105  4.54371428571428 5.80199998595105  C 4.35435952183611 5.80199998595105  4.20085715418606 5.65276157924788  4.20085714620536 5.46866666992187  L 4.20085714620536 3.13533333007812  C 4.20085715418606 2.95123842075212  4.35435952183611 2.80200001404895  4.54371428571428 2.80200001404895  C 4.73306905523568 2.80200001404895  4.88657142522321 2.95123842931461  4.88657142522321 3.13533334412707  Z " fill-rule="nonzero" fill="#757575" stroke="none" transform="matrix(1 0 0 1 37 5 )" />
  </g>
</svg>