<?xml version="1.0" encoding="utf-8"?>
<svg version="1.1" xmlns:xlink="http://www.w3.org/1999/xlink" width="20px" height="20px" xmlns="http://www.w3.org/2000/svg">
  <g transform="matrix(1 0 0 1 -100 -487 )">
    <path d="M 0 2.94117646484375  C 0 1.31676470703125  1.31676470703125 0  2.94117646484375 0  L 17.0588235351563 0  C 18.6832352929688 0  20 1.31676470703125  20 2.94117646484375  L 20 17.0588235351563  C 20 18.6832352929688  18.6832352929687 20  17.0588235351563 20  L 2.94117646484375 20  C 1.31676470703125 20  0 18.6832352929687  0 17.0588235351563  L 0 2.94117646484375  Z M 6.95911765625 7.25117646484375  C 6.95911765625 7.32705880859375  7.035 7.47911763671875  7.11088234375 7.47911765625  C 7.33852939453125 8.31441177734375  8.17264705078125 8.31441177734375  8.47617646484375 7.47911765625  C 8.627941171875 7.47911765625  8.703823515625 7.327058828125  8.70382353515625 7.175  C 8.70382353515625 7.02323529296875  8.70382353515625 6.87117646484375  8.627941171875 6.87117646484375  C 8.627941171875 6.41529412109375  8.40058822265625 6.11176470703125  7.8694117578125 6.11176470703125  C 7.26264705078125 6.18764705078125  7.035 6.4155882421875  7.035 6.947058828125  C 6.88323529296875 6.947058828125  6.88323529296875 7.09911765625  6.95911765625 7.25117646484375  Z M 6.607941171875 12.5882352929688  L 9.0205882421875 12.6667647070312  L 9.0205882421875 12.352941171875  C 9.33176470703125 12.352941171875  9.64323529296875 12.1176470507813  9.64323529296875 11.7255882421875  L 12.0555882421875 9.29411765625  C 12.1335294140625 9.2155882421875  12.1335294140625 9.13735294921875  12.0555882421875 9.05882353515625  C 11.9779411914062 8.98029412109375  11.8997058984375 8.98029412109375  11.822058828125 9.05882353515625  L 9.64323529296875 11.255  L 9.64323529296875 9.13735294921875  C 9.64323529296875 8.66676470703125  9.33176470703125 8.27441177734375  8.865 8.19617646484375  L 8.5535294140625 8.19617646484375  L 7.85323529296875 9.607941171875  L 7.15264705078125 8.19617646484375  L 6.7635294140625 8.19617646484375  C 6.29676470703125 8.352941171875  5.98529412109375 8.745  5.98529412109375 9.13735294921875  L 5.98529412109375 11.647058828125  C 5.98529412109375 11.9608823632813  6.21882353515625 12.2744117773438  6.607941171875 12.2744117578125  L 6.607941171875 12.5882352929688  Z M 4.11764705078125 5.84323529296875  L 4.11764705078125 10.54911765625  C 4.11764705078125 11.4902941210937  4.89588234375 12.2744117773438  5.82970587890625 12.2744117578125  C 5.752058828125 12.1176470507813  5.67382353515625 11.96088234375  5.67382353515625 11.7255882421875  L 5.67382353515625 11.4902941210937  C 5.12941177734375 11.4117647070312  4.81794119140625 11.097941171875  4.817941171875 10.54911765625  L 4.817941171875 5.84323529296875  C 4.817941171875 5.29411763671875  5.285 4.902058828125  5.752058828125 4.902058828125  L 14.0011764648438 4.902058828125  C 14.54588234375 4.902058828125  14.935 5.3726470703125  14.935 5.84323529296875  L 14.935 10.54911765625  C 14.935 11.0979411914063  14.4682352929688 11.4902941210937  14.0011764648438 11.4902941210937  L 10.3435294140625 11.4902941210937  L 10.0323529492188 11.8038235351563  C 10.0323529492188 11.9608823632813  9.95441177734375 12.03911765625  9.8764705859375 12.1176470507813  L 14.0011764648438 12.1176470507813  C 14.935 12.1176470507813  15.7132352929688 11.3332352929688  15.7132352929688 10.392058828125  L 15.7132352929688 5.84323529296875  C 15.7132352929688 4.902058828125  14.935 4.11764705078125  14.0011764648438 4.11764705078125  L 5.82970587890625 4.11764705078125  C 4.89588234375 4.11764705078125  4.11764705078125 4.902058828125  4.11764705078125 5.84323529296875  Z M 6.53029412109375 13.29411765625  L 5.207058828125 13.29411765625  C 4.58470587890625 13.29411765625  4.11764705078125 13.8432352929687  4.11764705078125 14.392058828125  L 4.11764705078125 15.8823529492187  L 7.69764705078125 15.8823529492187  L 7.69764705078125 14.392058828125  C 7.69764705078125 13.7647058789063  7.15264705078125 13.29411765625  6.53 13.29411765625  Z M 11.822058828125 14.392058828125  C 11.7444117578125 13.7647058789062  11.2 13.29411765625  10.577058828125 13.29411765625  L 9.33176470703125 13.29411765625  C 8.70911765625 13.29411765625  8.24235294921875 13.8432353125  8.24235294921875 14.392058828125  L 8.24235294921875 15.8823529492187  L 11.822058828125 15.8823529492187  L 11.822058828125 14.392058828125  Z M 14.7017647070313 13.29411765625  L 13.3785294140625 13.29411765625  C 12.7561764648438 13.29411765625  12.28911765625 13.8432353125  12.28911765625 14.392058828125  L 12.28911765625 15.8823529492187  L 15.86911765625 15.8823529492187  L 15.86911765625 14.392058828125  C 15.791176484375 13.7647058789063  15.2464706054687 13.29411765625  14.7014705859375 13.29411765625  Z " fill-rule="nonzero" fill="#42d8ec" stroke="none" transform="matrix(1 0 0 1 100 487 )" />
  </g>
</svg>