<?xml version="1.0" encoding="utf-8"?>
<svg version="1.1" xmlns:xlink="http://www.w3.org/1999/xlink" width="21px" height="22px" xmlns="http://www.w3.org/2000/svg">
  <g transform="matrix(1 0 0 1 -99 -668 )">
    <path d="M 21 7.7728  C 21.0064 6.9152  20.3024 6.224  19.4448 6.224  L 17.8576 6.224  L 18.1392 5.4048  C 18.4848 4.3552  17.9088 3.216  16.872 2.8576  L 9.0128 0.2592  C 8.5008 0.0928000000000001  7.9504 0.1312  7.4768 0.3744  C 6.9904 0.6048  6.6448 1.0272  6.4784 1.5392  C 6.4656 1.5904  6.3632 1.9232  6.3376 2.0512  L 6.2864 2.0384  C 5.7744 1.9104  5.224 1.9872  4.7632 2.2688  C 4.3152 2.5376  3.9696 2.9984  3.8544 3.5104  L 3.1888 6.224  L 1.9984 6.224  C 0.987199999999999 6.224  0.168 7.0432  0.168 8.0544  L 0.168 18.4096  C 0.168 20.3552  1.7552 21.9424  3.7008 22  L 19.4448 22  C 20.3024 21.9424  20.9936 21.2512  21 20.3936  L 21 7.7728  Z M 7.592 2.3456  C 7.6048 2.32  7.6176 2.2944  7.6304 2.256  L 7.7328 1.9488  C 7.848 1.6032  8.232 1.3984  8.5904 1.5264  L 16.4496 4.1248  C 16.616 4.176  16.7696 4.304  16.8464 4.4576  C 16.9232 4.6112  16.936 4.8032  16.8848 4.9696  L 16.4624 6.224  L 15.848 6.224  C 15.912 5.7632  15.8096 5.3024  15.5792 4.9056  C 15.3104 4.4576  14.8624 4.112  14.3376 3.9968  L 7.592 2.3456  Z M 4.584 6.224  L 5.16 3.856  L 5.1728 3.8304  C 5.224 3.6512  5.3264 3.5104  5.4928 3.408  C 5.6464 3.3184  5.8256 3.28  6.0048 3.3312  L 14.0432 5.3024  C 14.2224 5.3536  14.3632 5.456  14.4656 5.6224  C 14.5552 5.7632  14.5936 5.9552  14.5424 6.1344  C 14.5296 6.16  14.5296 6.1856  14.5168 6.224  L 4.584 6.224  Z M 11.9312 12.7904  L 12.2384 13.136  L 12.2768 13.136  C 12.4432 13.1616  12.648 13.1488  12.8272 13.136  C 13.16 13.1104  13.4672 13.1104  13.7488 13.2256  C 14.0048 13.3536  14.056 13.6096  14.0432 13.8144  C 14.0176 14.032  13.8768 14.2752  13.608 14.3392  C 13.224 14.3776  12.8528 14.3776  12.4688 14.3648  C 12.2384 14.3648  11.9952 14.352  11.7648 14.3648  L 11.6624 14.3648  L 11.6624 15.504  L 13.416 15.504  C 13.7232 15.4784  14.0304 15.7344  14.056 16.0544  C 14.0816 16.2208  14.0304 16.3744  13.9024 16.5152  C 13.7744 16.656  13.608 16.7456  13.4032 16.7328  L 11.6752 16.7328  L 11.6752 17.552  C 11.6752 17.872  11.6752 18.2176  11.6624 18.5376  C 11.6624 18.6912  11.5728 18.8448  11.432 18.96  C 11.3168 19.0624  11.1888 19.1136  11.048 19.1136  L 10.984 19.1136  C 10.6896 19.088  10.4336 18.8192  10.4208 18.5376  C 10.408 18.2176  10.408 17.872  10.408 17.552  L 10.408 16.7328  L 9.576 16.7328  C 9.256 16.7328  8.9744 16.7456  8.68 16.7328  C 8.5264 16.7456  8.36 16.6816  8.232 16.5664  C 8.1168 16.4512  8.0528 16.2976  8.0528 16.144  C 8.0272 15.8496  8.2832 15.5424  8.5904 15.5296  C 8.9232 15.504  9.2944 15.5168  9.6144 15.5168  L 10.4464 15.5168  L 10.4464 14.3776  L 10.344 14.3776  C 10.1008 14.3648  9.8448 14.3648  9.6272 14.3776  C 9.2048 14.3904  8.7952 14.4032  8.424 14.3008  C 8.1424 14.1984  8.0528 13.9296  8.0528 13.7376  C 8.0528 13.5456  8.1552 13.2768  8.4112 13.1744  C 8.7056 13.0976  8.9872 13.1232  9.2944 13.136  C 9.4608 13.136  9.6656 13.1488  9.832 13.136  L 9.8576 13.136  L 10.1904 12.8032  L 10.1136 12.7264  C 9.8448 12.4448  9.5632 12.176  9.32 11.9328  C 8.9616 11.5744  8.5776 11.1904  8.1936 10.7936  C 8.0528 10.6656  8.0144 10.4864  8.0528 10.2688  C 8.104 10.0384  8.2448 9.8592  8.4496 9.7952  L 8.4624 9.7952  C 8.7184 9.6672  9.0256 9.8336  9.192 10.0256  L 11.0608 11.92  L 11.1376 11.8432  L 11.9696 11.0112  L 12.008 10.9728  C 12.3024 10.6784  12.5968 10.3712  12.8912 10.0896  C 13.1728 9.7952  13.4032 9.7184  13.6336 9.7952  C 13.8256 9.8336  14.0048 10.0256  14.056 10.2304  C 14.1072 10.4224  14.056 10.64  13.9152 10.768  C 13.6208 11.0752  13.3136 11.3824  13.0192 11.6896  L 12.9936 11.7152  C 12.6608 12.0352  12.3152 12.3936  11.9824 12.7392  L 11.9312 12.7904  Z " fill-rule="nonzero" fill="#f75831" stroke="none" transform="matrix(1 0 0 1 99 668 )" />
  </g>
</svg>