<?xml version="1.0" encoding="utf-8"?>
<svg version="1.1" xmlns:xlink="http://www.w3.org/1999/xlink" width="19px" height="19px" xmlns="http://www.w3.org/2000/svg">
  <g transform="matrix(1 0 0 1 -101 -760 )">
    <path d="M 18.8759244647177 9.5  C 18.8759244647177 4.32181086693548  14.6781891330645 0.124075535282257  9.5 0.124075535282258  C 4.32181086693548 0.124075535282258  0.124075535282258 4.32181086693548  0.124075535282258 9.5  C 0.124075535282258 14.6781891330645  4.32181086693548 18.8759244647177  9.5 18.8759244647177  C 14.6781891330645 18.8759244647177  18.8759244647177 14.6781891330645  18.8759244647177 9.5  Z M 10.232278827621 11.940419202621  L 10.232278827621 13.89845665625  L 8.61215735080645 13.89845665625  L 8.61215735080645 11.940419202621  L 10.232278827621 11.940419202621  Z M 12.1616144828629 7.38486797983871  C 12.1616144828629 8.20229551814516  11.8958357217742 8.75643178225806  10.985605671371 9.59280251209677  C 10.419031953629 10.1191937006048  10.2322788467742 10.5355612903226  10.232278827621 11.0820437530242  L 10.232278827621 11.2048874868952  L 8.61215735080645 11.2048874868952  L 8.61215735080645 10.9892412217742  C 8.61215735080645 10.2089346844758  8.90089755443548 9.59088906653226  9.8497793891129 8.74590779334677  C 10.4387405272177 8.21836854133064  10.5830149586694 7.80353171572581  10.5830149395161 7.33607490725806  C 10.5830149395161 6.81351062903226  10.272270016129 6.32385776008064  9.54707096774193 6.32385774092742  C 8.7675298125 6.32385774092742  8.4583156532258 6.84029896270161  8.37067945564516 7.53430872580645  L 6.8383855171371 7.53430872580645  C 6.89349298689516 6.57949519455645  7.50943381854839 5.09274145967742  9.57711218951613 5.10154334375  C 11.5560062802419 5.11034522782258  12.1616144637097 6.4181910171371  12.1616144828629 7.38486797983871  Z " fill-rule="nonzero" fill="#f77320" stroke="none" transform="matrix(1 0 0 1 101 760 )" />
  </g>
</svg>