<?xml version="1.0" encoding="utf-8"?>
<svg version="1.1" xmlns:xlink="http://www.w3.org/1999/xlink" width="21px" height="21px" xmlns="http://www.w3.org/2000/svg">
  <g transform="matrix(1 0 0 1 -496 -397 )">
    <path d="M 0 3.08823528808594  C 0 1.38260294238281  1.38260294238281 0  3.08823528808594 0  L 17.9117647119141 0  C 19.6173970576172 0  21 1.38260294238281  21 3.08823528808594  L 21 17.9117647119141  C 21 19.6173970576172  19.6173970576172 21  17.9117647119141 21  L 3.08823528808594 21  C 1.38260294238281 21  0 19.6173970576172  0 17.9117647119141  L 0 3.08823528808594  Z M 7.3070735390625 7.61373528808594  C 7.3070735390625 7.69341174902344  7.38675 7.85307351855469  7.4664264609375 7.8530735390625  C 7.70545586425781 8.73013236621094  8.58127940332031 8.73013236621094  8.89998528808594 7.8530735390625  C 9.05933823046875 7.8530735390625  9.13901469140625 7.69341176953125  9.13901471191406 7.53375  C 9.13901471191406 7.37439705761719  9.13901471191406 7.21473528808594  9.05933823046875 7.21473528808594  C 9.05933823046875 6.73605882714844  8.82061763378906 6.41735294238281  8.26288234570312 6.41735294238281  C 7.62577940332031 6.49702940332031  7.38675 6.73636765429687  7.38675 7.29441176953125  C 7.22739705761719 7.29441176953125  7.22739705761719 7.4540735390625  7.3070735390625 7.61373528808594  Z M 6.93833823046875 13.2176470576172  L 9.47161765429688 13.3001029423828  L 9.47161765429688 12.9705882304688  C 9.79835294238281 12.9705882304688  10.1253970576172 12.7235294033203  10.1253970576172 12.3118676542969  L 12.6583676542969 9.7588235390625  C 12.7402058847656 9.67636765429688  12.7402058847656 9.59422059667969  12.6583676542969 9.51176471191406  C 12.5768382509766 9.42930882714844  12.4946911933594 9.42930882714844  12.4131617695312 9.51176471191406  L 10.1253970576172 11.81775  L 10.1253970576172 9.59422059667969  C 10.1253970576172 9.10010294238281  9.79835294238281 8.68813236621094  9.30825 8.60598528808594  L 8.98120588476563 8.60598528808594  L 8.24589705761719 10.0883382304688  L 7.51027940332031 8.60598528808594  L 7.10170588476563 8.60598528808594  C 6.61160294238281 8.77058823046875  6.28455882714844 9.18225  6.28455882714844 9.59422059667969  L 6.28455882714844 12.2294117695313  C 6.28455882714844 12.5589264814453  6.52976471191406 12.8881323662109  6.93833823046875 12.8881323457031  L 6.93833823046875 13.2176470576172  Z M 4.32352940332031 6.13539705761719  L 4.32352940332031 11.0765735390625  C 4.32352940332031 12.0648088271484  5.1406764609375 12.8881323662109  6.12119117285156 12.8881323457031  C 6.03966176953125 12.7235294033203  5.95751471191406 12.5589264609375  5.95751471191406 12.3118676542969  L 5.95751471191406 12.0648088271484  C 5.38588236621094 11.9823529423828  5.05883825097656 11.6528382304687  5.05883823046875 11.0765735390625  L 5.05883823046875 6.13539705761719  C 5.05883823046875 5.55882351855469  5.54925 5.14716176953125  6.03966176953125 5.14716176953125  L 14.7012352880859 5.14716176953125  C 15.2731764609375 5.14716176953125  15.68175 5.64127942382812  15.68175 6.13539705761719  L 15.68175 11.0765735390625  C 15.68175 11.6528382509766  15.1916470576172 12.0648088271484  14.7012352880859 12.0648088271484  L 10.8607058847656 12.0648088271484  L 10.5339705966797 12.3940147119141  C 10.5339705966797 12.5589264814453  10.4521323662109 12.6410735390625  10.3702941152344 12.7235294033203  L 14.7012352880859 12.7235294033203  C 15.68175 12.7235294033203  16.4988970576172 11.8998970576172  16.4988970576172 10.9116617695313  L 16.4988970576172 6.13539705761719  C 16.4988970576172 5.14716176953125  15.68175 4.32352940332031  14.7012352880859 4.32352940332031  L 6.12119117285156 4.32352940332031  C 5.1406764609375 4.32352940332031  4.32352940332031 5.14716176953125  4.32352940332031 6.13539705761719  Z M 6.85680882714844 13.9588235390625  L 5.46741176953125 13.9588235390625  C 4.81394117285156 13.9588235390625  4.32352940332031 14.5353970576172  4.32352940332031 15.1116617695313  L 4.32352940332031 16.6764705966797  L 8.08252940332031 16.6764705966797  L 8.08252940332031 15.1116617695313  C 8.08252940332031 14.4529411728516  7.51027940332031 13.9588235390625  6.8565 13.9588235390625  Z M 12.4131617695313 15.1116617695313  C 12.3316323457031 14.4529411728516  11.76 13.9588235390625  11.1059117695313 13.9588235390625  L 9.79835294238281 13.9588235390625  C 9.1445735390625 13.9588235390625  8.65447059667969 14.535397078125  8.65447059667969 15.1116617695313  L 8.65447059667969 16.6764705966797  L 12.4131617695313 16.6764705966797  L 12.4131617695313 15.1116617695313  Z M 15.4368529423828 13.9588235390625  L 14.0474558847656 13.9588235390625  C 13.3939852880859 13.9588235390625  12.9035735390625 14.535397078125  12.9035735390625 15.1116617695313  L 12.9035735390625 16.6764705966797  L 16.6625735390625 16.6764705966797  L 16.6625735390625 15.1116617695313  C 16.5807353085937 14.4529411728516  16.0087941357422 13.9588235390625  15.4365441152344 13.9588235390625  Z " fill-rule="nonzero" fill="#42d8ec" stroke="none" transform="matrix(1 0 0 1 496 397 )" />
  </g>
</svg>