<?xml version="1.0" encoding="utf-8"?>
<svg version="1.1" xmlns:xlink="http://www.w3.org/1999/xlink" width="9px" height="2px" xmlns="http://www.w3.org/2000/svg">
  <g transform="matrix(1 0 0 1 -104 -538 )">
    <path d="M 0.95390625 1.62692307692308  C 0.95390625 1.44807692307692  0.778125 1.30384615384615  0.560156249999999 1.30384615384615  C 0.342187499999999 1.30384615384615  0.166406249999999 1.45  0.166406249999999 1.62692307692308  C 0.166406249999999 1.80576923076923  0.34453125 1.95  0.560156249999999 1.95  C 0.778125 1.95  0.95390625 1.80384615384615  0.95390625 1.62692307692308  Z M 7.6828125 0.00384615384615253  C 8.33671875 0.00384615384615253  8.86875 0.440384615384614  8.86875 0.976923076923077  C 8.86875 1.51538461538462  8.33671875 1.95  7.6828125 1.95  C 7.02890625 1.95  6.496875 1.51346153846154  6.496875 0.976923076923076  C 6.496875 0.440384615384614  7.02890625 0.00384615384615253  7.6828125 0.00384615384615253  Z " fill-rule="nonzero" fill="#42a5f5" stroke="none" transform="matrix(1 0 0 1 104 538 )" />
  </g>
</svg>