<?xml version="1.0" encoding="utf-8"?>
<svg version="1.1" xmlns:xlink="http://www.w3.org/1999/xlink" width="8px" height="9px" xmlns="http://www.w3.org/2000/svg">
  <g transform="matrix(1 0 0 1 -37 -6 )">
    <path d="M 7.96443181818182 8.61417091836735  C 7.96443181818182 8.80335459183673  7.81261363636364 8.95672193877551  7.62522727272727 8.95672193877551  L 0.374772727272727 8.95672193877551  C 0.1875 8.95672193877551  0.035681818181818 8.80335459183673  0.035681818181818 8.61417091836735  C 0.035681818181818 8.42498724489796  0.1875 8.27161989795918  0.374772727272727 8.27161989795918  L 7.62534090909091 8.27161989795918  C 7.81261363636364 8.27161989795918  7.96443181818182 8.42498724489796  7.96443181818182 8.61417091836735  Z M 7.96375 7.2513137755102  C 7.96363636363636 7.44049744897959  7.81181818181818 7.59375  7.62454545454545 7.59375  L 0.390454545454546 7.59375  C 0.203181818181818 7.59375  0.0513636363636365 7.44038265306122  0.0513636363636365 7.25119897959184  L 0.0513636363636365 6.03987244897959  C 0.0513636363636365 5.44086734693878  0.533522727272727 4.95355867346939  1.12613636363636 4.95355867346939  L 2.49659090909091 4.95355867346939  C 2.47818181818182 4.59275510204082  2.35625 4.01452806122449  2.24659090909091 3.8865306122449  C 1.88363636363636 3.41483418367347  1.68579545454545 2.86829081632653  1.66272727272727 2.29144132653061  C 1.66079545454545 1.66029336734694  1.91704545454546 1.06335459183673  2.36590909090909 0.641020408163265  C 2.80761363636364 0.225229591836735  3.40431818181818 0.00929846938775513  4.00818181818182 0.0478698979591837  C 4.60715909090909 0.00872448979591843  5.20079545454546 0.222359693877551  5.64193181818182 0.63390306122449  C 6.08988636363636 1.05176020408163  6.34886363636364 1.64341836734694  6.3525 2.25711734693878  C 6.33102272727273 2.85141581632653  6.13306818181818 3.40059948979592  5.78 3.85989795918367  C 5.66193181818182 3.999375  5.53909090909091 4.57576530612245  5.51875 4.93656887755102  L 6.88897727272727 4.93656887755102  C 7.48159090909091 4.93656887755102  7.96375 5.42387755102041  7.96375 6.02276785714286  L 7.96375 7.2513137755102  Z M 0.729545454545454 6.90864795918367  L 7.28534090909091 6.90864795918367  L 7.28534090909091 6.02265306122449  C 7.28534090909091 5.80155612244898  7.10738636363636 5.62155612244898  6.88875 5.62155612244898  L 5.28693181818182 5.62155612244898  C 5.17647727272727 5.62155612244898  5.07284090909091 5.56714285714286  5.00931818181818 5.47576530612245  C 4.91511363636364 5.34019132653061  4.85670454545455 5.18039540816326  4.84 5.01382653061224  C 4.83852272727273 4.99924744897959  4.83806818181818 4.98455357142857  4.83840909090909 4.96963010204082  C 4.84454545454545 4.7534693877551  4.93806818181818 3.79917091836735  5.25477272727273 3.42654336734694  C 5.50977272727273 3.09420918367347  5.65840909090909 2.68151785714286  5.67443181818182 2.24621173469388  C 5.67170454545455 1.83627551020408  5.49215909090909 1.42656887755102  5.18181818181818 1.13705357142857  C 4.87227272727273 0.848341836734694  4.45488636363636 0.701288265306122  4.03352272727273 0.732627551020408  C 4.01670454545455 0.734005102040817  4 0.733890306122449  3.98318181818182 0.732742346938776  C 3.56034090909091 0.699795918367347  3.13829545454546 0.850293367346939  2.82818181818182 1.14210459183673  C 2.51715909090909 1.43494897959184  2.33954545454546 1.84844387755102  2.34068181818182 2.27663265306122  C 2.35772727272727 2.69724489795918  2.50647727272727 3.10809948979592  2.77068181818182 3.45225765306122  C 3.08102272727273 3.8134056122449  3.17136363636364 4.77149234693877  3.17647727272727 4.98857142857143  C 3.17681818181818 5.00108418367347  3.17636363636364 5.01371173469388  3.17534090909091 5.02610969387755  C 3.16113636363636 5.1922193877551  3.10238636363636 5.35373724489796  3.00534090909091 5.49309948979592  C 2.94177826200343 5.58424747169799  2.83832289351325 5.63849387972677  2.72795454545455 5.63854591836735  L 1.12625 5.63854591836735  C 0.907613636363636 5.63854591836735  0.729659090909091 5.81854591836735  0.729659090909091 6.03975765306122  L 0.729659090909091 6.90864795918367  Z " fill-rule="nonzero" fill="#000000" stroke="none" transform="matrix(1 0 0 1 37 6 )" />
  </g>
</svg>