<?xml version="1.0" encoding="utf-8"?>
<svg version="1.1" xmlns:xlink="http://www.w3.org/1999/xlink" width="8px" height="13px" xmlns="http://www.w3.org/2000/svg">
  <g transform="matrix(1 0 0 1 -1489 -214 )">
    <path d="M 7.77263194736842 6.99297522193877  C 7.82034484210526 6.94571143367347  7.84560459649123 6.88786536352041  7.87816766666667 6.83375588137755  C 7.88716098245614 6.81729769897959  7.90173740350877 6.80352075  7.90961410526316 6.78652063010204  C 8.06400950877193 6.48299988010204  8.01345978947369 6.11159269897959  7.74006889473684 5.86748682397959  L 1.54273549122807 0.327384405612245  C 1.20476168421053 0.025460980867347  0.672013052631579 0.0397798839285715  0.351995701754386 0.358703428571429  C 0.0325517543859652 0.678140406887755  0.0471583508771936 1.18166940688776  0.385132157894737 1.48413478571429  L 5.9458410877193 6.45595939923469  L 0.407011877192983 11.5015463112245  C 0.0724181052631581 11.8066358660714  0.0623081578947365 12.3101933864796  0.385132157894737 12.6269776683673  C 0.550180719298246 12.7893346020408  0.770818859649123 12.8705415892857  0.991457 12.8705415892857  C 1.20198521052632 12.8705415892857  1.41251340350877 12.7962658571429  1.57587194736842 12.647685872449  L 7.71707254385965 7.05344546811224  C 7.72887250877193 7.04229269515306  7.73333898245614 7.02691842091837  7.74513894736842 7.01525223086734  C 7.75413226315789 7.007294125  7.76366880701754 7.00144676147959  7.77263194736842 6.99297522193877  Z " fill-rule="nonzero" fill="#464646" stroke="none" transform="matrix(1 0 0 1 1489 214 )" />
  </g>
</svg>