<?xml version="1.0" encoding="utf-8"?>
<svg version="1.1" xmlns:xlink="http://www.w3.org/1999/xlink" width="44px" height="41px" xmlns="http://www.w3.org/2000/svg">
  <g transform="matrix(1 0 0 1 -1355 -202 )">
    <path d="M 44 41  C 44 32.5266666666667  39.325 28.1533333333333  32.725 24.3266666666667  C 29.975 26.7866666666667  26.4 28.4266666666667  22.275 28.4266666666667  C 18.15 28.4266666666667  14.575 26.7866666666667  11.55 24.3266666666667  C 4.675 27.88  0 32.5266666666667  0 41  L 44 41  Z M 9.625 12.5733333333333  C 9.625 19.68  15.4 25.1466666666667  22 25.1466666666667  C 28.875 25.1466666666667  34.375 19.4066666666667  34.375 12.5733333333333  C 34.375 5.74  28.875 0  22 0  C 15.125 0  9.625 5.74  9.625 12.5733333333333  Z " fill-rule="nonzero" fill="#8e7872" stroke="none" transform="matrix(1 0 0 1 1355 202 )" />
  </g>
</svg>