<?xml version="1.0" encoding="utf-8"?>
<svg version="1.1" xmlns:xlink="http://www.w3.org/1999/xlink" width="28px" height="24px" xmlns="http://www.w3.org/2000/svg">
  <g transform="matrix(1 0 0 1 -122 -1184 )">
    <path d="M 136 1184  C 143.84 1184  150 1189.28  150 1196  C 150 1202.72  143.84 1208  136 1208  C 128.16 1208  122 1202.72  122 1196  C 122 1189.28  128.16 1184  136 1184  Z " fill-rule="nonzero" fill="#ffbf60" stroke="none" />
    <path d="M 136 1184.5  C 143.56 1184.5  149.5 1189.56  149.5 1196  C 149.5 1202.44  143.56 1207.5  136 1207.5  C 128.44 1207.5  122.5 1202.44  122.5 1196  C 122.5 1189.56  128.44 1184.5  136 1184.5  Z " stroke-width="1" stroke="#ffffff" fill="none" />
  </g>
</svg>