<?xml version="1.0" encoding="utf-8"?>
<svg version="1.1" xmlns:xlink="http://www.w3.org/1999/xlink" width="20px" height="19px" xmlns="http://www.w3.org/2000/svg">
  <g transform="matrix(1 0 0 1 -101 -349 )">
    <path d="M 17.5767326000158 5.89427055172414  C 17.6464690643094 7.67461071494386  18.1869363935336 9.40533556665183  19.1437884336779 10.9124137931034  L 19.1437884336779 18  L 0 18  L 0 10.9124137931034  C 0.514534395960482 10.001006277794  0.927209659556506 9.03646538916757  1.2306721186775 8.03597877586207  C 1.61765012230727 6.04637665517241  1.76396336778979 4.01195755172414  2.03334381125227 2.000626  C 2.1193071698644 1.5516280522862  2.23209012030935 1.10810712616007  2.37109493569005 1  L 16.7590193513769 1  C 16.8586487242937 0.833202295321326  16.9354910119567 1.00686084149411  16.9873774070859 1.18848806896552  C 17.1979590878245 2.75572413793103  17.4358890270654 4.32024403448276  17.5767326000158 5.89427055172414  Z M 2.14000206107473 10.4737506551724  L 2.14136947052789 10.4764668448276  L 5.81560943423025 10.4764668448276  C 5.86119413501079 10.466451285017  5.90774195603267 10.4613987777689  5.95442876771229 10.4613987777689  C 6.30937351541132 10.4613987777689  6.59711308555337 10.7471764872054  6.59711308555337 11.0997011570792  C 6.59711308555337 11.1097076617136  6.59687616604178 11.1197127828554  6.5964025234751 11.1297082241379  C 6.67291193835296 12.7046243572361  7.98086427144632 13.9424931836157  9.56843685525389 13.9424931836157  C 11.146485969358 13.9424931836157  12.4500772519449 12.7189430677339  12.5391814187643 11.1541538448276  C 12.5385256008195 11.1421849956124  12.538197510065 11.1302006513039  12.538197510065 11.1182140920084  C 12.538197510065 10.7529385289286  12.8363446824078 10.4568241782153  13.2041278580489 10.4568241782153  C 13.256505374487 10.4568241782153  13.3086999998039 10.4629614561813  13.3596295036692 10.4751087586207  L 17.0010515363371 10.4751087586207  L 15.9454083484573 2  L 3.1942778395013 2  L 2.14000206107473 10.4737506551724  Z M 5.79646564980668 2.92005305172414  L 9.60197730292748 2.92005305172414  L 13.3473227838712 2.92005305172414  C 13.7684861279886 2.92005305172414  14.1281158731161 2.99882227586207  14.1281158557563 3.49995755172414  C 14.1281158383966 4.00109282758621  13.7671187011757 4.07986206896552  13.3473227838712 4.07850398275862  L 5.79646564980668 4.07850398275862  C 5.37666971514243 4.07850398275862  5.01567256056182 4.00245093103448  5.01567256056182 3.49995755172414  C 5.01567256056182 2.99746417241379  5.37666971514243 2.91869494827586  5.79646564980668 2.92005305172414  Z M 9.58420092795707 6.428  L 9.58283351850391 6.428  L 5.83885546437308 6.428  C 5.40265056419159 6.428  5.00746808648307 6.37367639655173  5.0184073968279 5.83044031034483  C 5.02797929771956 5.32658884482759  5.40265058155133 5.26954906896552  5.81697686104316 5.26954906896552  L 13.3076677882112 5.26954906896552  C 13.7438726883926 5.26954906896552  14.1390551661012 5.3225145862069  14.1281158557563 5.86575065517242  C 14.1199113816776 6.37096020689655  13.7438726710329 6.4293580862069  13.330913818354 6.428  L 9.58420092795707 6.428  Z M 9.50762579026276 8.78836074137931  L 9.51309542807543 8.78157029310345  L 5.82107908940267 8.78157029310345  C 5.38077196086167 8.78157029310345  4.992426530419 8.71502387931035  5.01157033220232 8.17314589655173  C 5.02934670717273 7.66793634482759  5.41222248244299 7.62990982758621  5.82107908940267 7.62990981034483  L 13.3117700339304 7.62990981034483  C 13.7534445892843 7.62990981034483  14.1404225929141 7.69781432758621  14.1212787911308 8.23833422413793  C 14.1035024161603 8.74354377586207  13.721994067703 8.78971884482759  13.3117700339304 8.78836074137931  L 9.50762579026276 8.78836074137931  Z " fill-rule="nonzero" fill="#4a9dfd" stroke="none" transform="matrix(1 0 0 1 101 349 )" />
  </g>
</svg>