<?xml version="1.0" encoding="utf-8"?>
<svg version="1.1" xmlns:xlink="http://www.w3.org/1999/xlink" width="18px" height="18px" xmlns="http://www.w3.org/2000/svg">
  <g transform="matrix(1 0 0 1 -572 -450 )">
    <path d="M 17.9653752808989 9.03187415730337  C 17.9653752808989 4.10804494382022  13.9735011235955 0.118759550561798  9.0522606741573 0.118759550561798  C 4.12843146067416 0.118759550561798  0.13914606741573 4.11063370786517  0.13914606741573 9.03187415730337  C 0.13914606741573 13.9557033707865  4.1310202247191 17.9449887640449  9.0522606741573 17.9449887640449  C 13.9735011235955 17.9449887640449  17.9653752808989 13.9531146067416  17.9653752808989 9.03187415730337  Z M 16.3085662921348 12.0995595505618  C 15.9124853932584 13.0366921348315  15.3455460674157 13.8780404494382  14.6206921348315 14.6028943820225  C 13.8958382022472 15.3277483146067  13.0544898876405 15.8946876404494  12.1173573033708 16.2907685393258  C 11.1465707865169 16.7023820224719  10.1162426966292 16.9094831460674  9.0522606741573 16.9094831460674  C 7.98827865168539 16.9094831460674  6.95795056179775 16.7023820224719  5.98716404494382 16.2907685393258  C 5.05003146067416 15.8946876404494  4.20609438202247 15.3251595505618  3.48382921348315 14.6028943820225  C 2.75897528089888 13.8780404494382  2.19203595505618 13.0366921348315  1.79595505617978 12.0995595505618  C 1.38434157303371 11.1287730337079  1.1772404494382 10.0984449438202  1.1772404494382 9.03446292134831  C 1.1772404494382 7.9704808988764  1.38434157303371 6.94015280898877  1.79595505617978 5.96936629213483  C 2.19203595505618 5.03223370786517  2.76156404494382 4.18829662921348  3.48382921348315 3.46603146067416  C 4.20868314606742 2.74117752808989  5.05003146067416 2.17423820224719  5.98716404494382 1.77815730337079  C 6.95795056179775 1.36654382022472  7.98827865168539 1.15944269662921  9.0522606741573 1.15944269662921  C 10.1162426966292 1.15944269662921  11.1465707865169 1.36654382022472  12.1173573033708 1.77815730337079  C 13.0544898876405 2.17423820224719  13.8984269662921 2.74376629213483  14.6206921348315 3.46603146067416  C 15.3455460674157 4.19088539325843  15.9124853932584 5.03223370786517  16.3085662921348 5.96936629213483  C 16.7201797752809 6.94015280898876  16.9272808988764 7.9704808988764  16.9272808988764 9.03446292134831  C 16.9272808988764 10.0984449438202  16.7201797752809 11.1287730337079  16.3085662921348 12.0995595505618  Z " fill-rule="nonzero" fill="#d06958" stroke="none" transform="matrix(1 0 0 1 572 450 )" />
  </g>
</svg>