<?xml version="1.0" encoding="utf-8"?>
<svg version="1.1" xmlns:xlink="http://www.w3.org/1999/xlink" width="31px" height="33px" xmlns="http://www.w3.org/2000/svg">
  <g transform="matrix(1 0 0 1 -114 -2393 )">
    <path d="M 30.9403685393258 16.5584359550562  C 30.9403685393258 7.53141573033708  24.0654741573034 0.21772584269663  15.590004494382 0.217725842696629  C 7.11007640449438 0.217725842696629  0.239640449438202 7.53616179775281  0.239640449438202 16.5584359550562  C 0.239640449438202 25.5854561797753  7.11453483146068 32.8991460674157  15.590004494382 32.8991460674157  C 24.0654741573034 32.8991460674157  30.9403685393258 25.5807101123596  30.9403685393258 16.5584359550562  Z M 28.0869752808989 22.1825258426966  C 27.4048359550562 23.900602247191  26.4284404494382 25.4430741573034  25.1800808988764 26.7719730337079  C 23.9317213483146 28.1008719101124  22.4827325842697 29.1402606741573  20.8687820224719 29.866408988764  C 19.1968719101124 30.6210337078652  17.4224179775281 31.0007191011236  15.590004494382 31.0007191011236  C 13.757591011236 31.0007191011236  11.9831370786517 30.6210337078652  10.3112269662921 29.866408988764  C 8.69727640449438 29.1402606741573  7.24382921348315 28.0961258426966  5.99992808988764 26.7719730337079  C 4.75156853932584 25.4430741573034  3.77517303370787 23.900602247191  3.09303370786517 22.1825258426966  C 2.38414382022472 20.4027505617978  2.02746966292135 18.5138157303371  2.02746966292135 16.5631820224719  C 2.02746966292135 14.6125483146067  2.38414382022472 12.7236134831461  3.09303370786517 10.9438382022472  C 3.77517303370787 9.22576179775281  4.75602696629214 7.67854382022472  5.99992808988764 6.35439101123595  C 7.24828764044944 5.02549213483146  8.69727640449438 3.98610337078652  10.3112269662921 3.25995505617978  C 11.9831370786517 2.50533033707865  13.757591011236 2.12564494382022  15.590004494382 2.12564494382022  C 17.4224179775281 2.12564494382022  19.1968719101124 2.50533033707865  20.8687820224719 3.25995505617978  C 22.4827325842697 3.98610337078652  23.9361797752809 5.03023820224719  25.1800808988764 6.35439101123595  C 26.4284404494382 7.68328988764045  27.4048359550562 9.22576179775281  28.0869752808989 10.9438382022472  C 28.7958651685393 12.7236134831461  29.1525393258427 14.6125483146067  29.1525393258427 16.5631820224719  C 29.1525393258427 18.5138157303371  28.7958651685393 20.4027505617978  28.0869752808989 22.1825258426966  Z " fill-rule="nonzero" fill="#d06958" stroke="none" transform="matrix(1 0 0 1 114 2393 )" />
  </g>
</svg>