<?xml version="1.0" encoding="utf-8"?>
<svg version="1.1" xmlns:xlink="http://www.w3.org/1999/xlink" width="139px" height="55px" xmlns="http://www.w3.org/2000/svg">
  <defs>
    <filter x="158px" y="784px" width="139px" height="55px" filterUnits="userSpaceOnUse" id="filter318">
      <feOffset dx="0" dy="0" in="SourceAlpha" result="shadowOffsetInner" />
      <feGaussianBlur stdDeviation="3" in="shadowOffsetInner" result="shadowGaussian" />
      <feComposite in2="shadowGaussian" operator="atop" in="SourceAlpha" result="shadowComposite" />
      <feColorMatrix type="matrix" values="0 0 0 0 0.827450980392157  0 0 0 0 0.874509803921569  0 0 0 0 0.901960784313726  0 0 0 0.349019607843137 0  " in="shadowComposite" />
    </filter>
    <g id="widget319">
      <path d="M 164.5 798  A 7.5 7.5 0 0 1 172 790.5 L 283 790.5  A 7.5 7.5 0 0 1 290.5 798 L 290.5 825  A 7.5 7.5 0 0 1 283 832.5 L 172 832.5  A 7.5 7.5 0 0 1 164.5 825 L 164.5 798  Z " fill-rule="nonzero" fill="#2a76f9" stroke="none" fill-opacity="0" />
      <path d="M 164.5 798  A 7.5 7.5 0 0 1 172 790.5 L 283 790.5  A 7.5 7.5 0 0 1 290.5 798 L 290.5 825  A 7.5 7.5 0 0 1 283 832.5 L 172 832.5  A 7.5 7.5 0 0 1 164.5 825 L 164.5 798  Z " stroke-width="1" stroke="#5182ff" fill="none" />
    </g>
  </defs>
  <g transform="matrix(1 0 0 1 -158 -784 )">
    <use xlink:href="#widget319" filter="url(#filter318)" />
    <use xlink:href="#widget319" />
  </g>
</svg>