<?xml version="1.0" encoding="utf-8"?>
<svg version="1.1" xmlns:xlink="http://www.w3.org/1999/xlink" width="17px" height="13px" xmlns="http://www.w3.org/2000/svg">
  <g transform="matrix(1 0 0 1 -56 -259 )">
    <path d="M 14.9470507822524 12.110227859082  C 14.8728587921569 12.5311059701141  14.5049565892423 12.83797683549  14.0751367201782 12.8375  L 2.40401693974413 12.8375  C 1.91502857818596 12.8374806595635  1.51863550620559 12.4434036329181  1.51863550620559 11.9572916728646  C 1.51863550620559 11.9060203090754  1.52314176537386 11.8548469844381  1.53210287766987 11.80435546875  L 2.09865885590886 8.6125  L 1.41666666874186 8.6125  C 1.22106581841083 8.6125  1.0624999994812 8.45486692110475  1.0624999994812 8.26041666391602  C 1.0624999994812 8.06596640672728  1.22106581841083 7.90833332783203  1.41666666874186 7.90833332783203  L 2.22372397108217 7.90833332783203  L 3.22369141297671 2.275  L 0.354166669260661 2.275  C 0.158565818929632 2.275  0 2.11736692110475  0 1.92291666391602  C 0 1.72846640672728  0.158565818929632 1.57083332783203  0.354166669260661 1.57083332783203  L 3.34864584553289 1.57083332783203  L 3.46961588648944 0.88977214091797  C 3.54380787658493 0.468894029885923  3.91171007949952 0.162023164510036  4.34152994856371 0.162500000000001  L 16.0126497455993 0.162500000000001  C 16.5016381071575 0.162519340436539  16.8980311791378 0.556596367081921  16.8980311791378 1.04270832713538  C 16.8980311791378 1.09397969092465  16.8935249199696 1.14515301556195  16.8845638076736 1.19564453125  L 14.9470507822524 12.110227859082  Z M 4.60416666718546 8.6125  L 2.81794922567483 8.6125  L 2.22970053357925 11.926704421582  C 2.22790831019737 11.9368027274477  2.22700705789725 11.9470373952062  2.22700705789725 11.95729167081  C 2.22700705789725 12.0544882849354  2.3062452061841 12.1332930091589  2.40401693974413 12  L 14.0751367201782 12  C 14.1610394935375 12.1332979024478  14.2345275206764 12.0719774638507  14.249453126343 11.98787890625  L 16.1152474017992 1.477861328125  L 9.84882162360897 6.772974609375  C 9.6887447083156 6.90821983767513  9.48551011885192 6.98247649812781  9.27543157222529 6.98247649812781  C 9.01086780667667 6.98247649812781  8.76016537672063 6.86486552871938  8.59197266035548 6.66184831279297  L 4.12205729242087 1.26606120341797  L 2.94301432424658 7.90833332783203  L 4.60416666718546 7.90833332783203  C 4.79976751751649 7.90833332783203  4.95833333644613 8.06596640672728  4.95833333644613 8.26041666391602  C 4.95833333644613 8.45486692110475  4.79976751751649 8.6125  4.60416666718546 8.6125  Z M 15.7448111929957 1  L 4.7087565108844 1  L 9.13871744622133 6.21393229716797  C 9.17235740488929 6.25445205063767  9.2224441281726 6.27791757492482  9.27529282642574 6.27791757492482  C 9.3173510919678 6.27791757492482  9.35803633219204 6.26303619857139  9.3900651023486 6.2359375  L 15.7448111929957 1  Z M 0.708333346822103 11.429166672168  L 0.354166669260661 11.429166672168  C 0.158565818929632 11.429166672168  0 11.2715335932727  0 11.077083336084  C 0 10.8826330788952  0.158565818929632 10.725  0.354166669260661 10.725  L 0.708333346822103 10.725  C 0.903934197153133 10.725  1.06250001608276 10.8826330788952  1.06250001608276 11.077083336084  C 1.06250001608276 11.2715335932727  0.903934197153133 11.429166672168  0.708333346822103 11.429166672168  Z M 1.7708333463033 5.79583332783203  L 0.354166669260661 5.79583332783203  C 0.158565823514026 5.79583332783203  0 5.63820025263131  0 5.44375  C 0 5.24929974736869  0.158565823514026 5.09166667216797  0.354166669260661 5.09166667216797  L 1.7708333463033 5.09166667216797  C 1.96643419204994 5.09166667216797  2.12500000726318 5.24929974736869  2.12500000726318 5.44375  C 2.12500000726318 5.63820025263131  1.96643419204994 5.79583332783203  1.7708333463033 5.79583332783203  Z " fill-rule="nonzero" fill="#727377" stroke="none" transform="matrix(1 0 0 1 56 259 )" />
  </g>
</svg>