<?xml version="1.0" encoding="utf-8"?>
<svg version="1.1" xmlns:xlink="http://www.w3.org/1999/xlink" width="36px" height="31px" xmlns="http://www.w3.org/2000/svg">
  <defs>
    <mask fill="white" id="clip332">
      <path d="M 35.2881214315555 30.9749150347953  L 0.334883720930214 0.754054054054035  L 29.3023255813953 0  C 33.053023255814 0  36 2.94918918918917  36 6.7027027027027  L 35.2881214315555 30.9749150347953  Z " fill-rule="evenodd" />
    </mask>
  </defs>
  <g transform="matrix(1 0 0 1 -764 -541 )">
    <path d="M 35.2881214315555 30.9749150347953  L 0.334883720930214 0.754054054054035  L 29.3023255813953 0  C 33.053023255814 0  36 2.94918918918917  36 6.7027027027027  L 35.2881214315555 30.9749150347953  Z " fill-rule="nonzero" fill="#0079fe" stroke="none" transform="matrix(1 0 0 1 764 541 )" />
    <path d="M 35.2881214315555 30.9749150347953  L 0.334883720930214 0.754054054054035  L 29.3023255813953 0  C 33.053023255814 0  36 2.94918918918917  36 6.7027027027027  L 35.2881214315555 30.9749150347953  Z " stroke-width="2" stroke="#0079fe" fill="none" transform="matrix(1 0 0 1 764 541 )" mask="url(#clip332)" />
  </g>
</svg>