<?xml version="1.0" encoding="utf-8"?>
<svg version="1.1" xmlns:xlink="http://www.w3.org/1999/xlink" width="217px" height="50px" xmlns="http://www.w3.org/2000/svg">
  <g transform="matrix(1 0 0 1 -706 -368 )">
    <path d="M 903.23457919331 368.5  C 903.23457919331 368.5  906.746457437771 368.904594267795  906.746457437771 368.904594267795  C 906.746457437771 368.904594267795  922.457114471051 393  922.457114471051 393  C 922.457114471051 393  906.746457437771 417.095405732205  906.746457437771 417.095405732205  C 906.746457437771 417.095405732205  903.23457919331 417.5  903.23457919331 417.5  C 903.23457919331 417.5  711 417.5  711 417.5  C 708.48 417.5  706.5 415.52  706.5 413  C 706.5 413  706.5 373  706.5 373  C 706.5 370.48  708.48 368.5  711 368.5  C 711 368.5  903.23457919331 368.5  903.23457919331 368.5  Z " fill-rule="nonzero" fill="#0079fe" stroke="none" />
    <path d="M 903.23457919331 368.5  C 903.23457919331 368.5  906.746457437771 368.904594267795  906.746457437771 368.904594267795  C 906.746457437771 368.904594267795  922.457114471051 393  922.457114471051 393  C 922.457114471051 393  906.746457437771 417.095405732205  906.746457437771 417.095405732205  C 906.746457437771 417.095405732205  903.23457919331 417.5  903.23457919331 417.5  C 903.23457919331 417.5  711 417.5  711 417.5  C 708.48 417.5  706.5 415.52  706.5 413  C 706.5 413  706.5 373  706.5 373  C 706.5 370.48  708.48 368.5  711 368.5  C 711 368.5  903.23457919331 368.5  903.23457919331 368.5  Z " stroke-width="1" stroke="#0079fe" fill="none" />
  </g>
</svg>