<?xml version="1.0" encoding="utf-8"?>
<svg version="1.1" xmlns:xlink="http://www.w3.org/1999/xlink" width="201px" height="50px" xmlns="http://www.w3.org/2000/svg">
  <defs>
    <filter x="540px" y="368px" width="201px" height="50px" filterUnits="userSpaceOnUse" id="filter330">
      <feOffset dx="1" dy="0" in="SourceAlpha" result="shadowOffsetInner" />
      <feGaussianBlur stdDeviation="0" in="shadowOffsetInner" result="shadowGaussian" />
      <feComposite in2="shadowGaussian" operator="atop" in="SourceAlpha" result="shadowComposite" />
      <feColorMatrix type="matrix" values="0 0 0 0 0.996078431372549  0 0 0 0 0.996078431372549  0 0 0 0 0.996078431372549  0 0 0 1 0  " in="shadowComposite" />
    </filter>
    <g id="widget331">
      <path d="M 720 368  C 720 368  724 368.5  724 368.5  C 724 368.5  740 393  740 393  C 740 393  724 417.5  724 417.5  C 724 417.5  720 418  720 418  C 720 418  545 418  545 418  C 542.2 418  540 415.8  540 413  C 540 413  540 373  540 373  C 540 370.2  542.2 368  545 368  C 545 368  720 368  720 368  Z " fill-rule="nonzero" fill="#0079fe" stroke="none" />
    </g>
  </defs>
  <g transform="matrix(1 0 0 1 -540 -368 )">
    <use xlink:href="#widget331" filter="url(#filter330)" />
    <use xlink:href="#widget331" />
  </g>
</svg>