<?xml version="1.0" encoding="utf-8"?>
<svg version="1.1" xmlns:xlink="http://www.w3.org/1999/xlink" width="12px" height="12px" viewBox="889 4828  12 12" xmlns="http://www.w3.org/2000/svg">
  <path d="M 895 4828  C 898.36 4828  901 4830.64  901 4834  C 901 4837.36  898.36 4840  895 4840  C 891.64 4840  889 4837.36  889 4834  C 889 4830.64  891.64 4828  895 4828  Z " fill-rule="nonzero" fill="#ffffff" stroke="none" />
  <path d="M 895 4828.5  C 898.08 4828.5  900.5 4830.92  900.5 4834  C 900.5 4837.08  898.08 4839.5  895 4839.5  C 891.92 4839.5  889.5 4837.08  889.5 4834  C 889.5 4830.92  891.92 4828.5  895 4828.5  Z " stroke-width="1" stroke="#797979" fill="none" />
  <path d="M 895 4837  C 893.32 4837  892 4835.68  892 4834  C 892 4832.32  893.32 4831  895 4831  C 896.68 4831  898 4832.32  898 4834  C 898 4835.68  896.68 4837  895 4837  " fill-rule="nonzero" fill="#797979" stroke="none" />
</svg>