<?xml version="1.0" encoding="utf-8"?>
<svg version="1.1" xmlns:xlink="http://www.w3.org/1999/xlink" width="12px" height="12px" viewBox="889 4932  12 12" xmlns="http://www.w3.org/2000/svg">
  <path d="M 895 4932  C 898.36 4932  901 4934.64  901 4938  C 901 4941.36  898.36 4944  895 4944  C 891.64 4944  889 4941.36  889 4938  C 889 4934.64  891.64 4932  895 4932  Z " fill-rule="nonzero" fill="#ffffff" stroke="none" />
  <path d="M 895 4932.5  C 898.08 4932.5  900.5 4934.92  900.5 4938  C 900.5 4941.08  898.08 4943.5  895 4943.5  C 891.92 4943.5  889.5 4941.08  889.5 4938  C 889.5 4934.92  891.92 4932.5  895 4932.5  Z " stroke-width="1" stroke="#797979" fill="none" />
  <path d="M 895 4941  C 893.32 4941  892 4939.68  892 4938  C 892 4936.32  893.32 4935  895 4935  C 896.68 4935  898 4936.32  898 4938  C 898 4939.68  896.68 4941  895 4941  " fill-rule="nonzero" fill="#797979" stroke="none" />
</svg>