<?xml version="1.0" encoding="utf-8"?>
<svg version="1.1" xmlns:xlink="http://www.w3.org/1999/xlink" width="12px" height="12px" viewBox="948 4932  12 12" xmlns="http://www.w3.org/2000/svg">
  <path d="M 954 4932  C 957.36 4932  960 4934.64  960 4938  C 960 4941.36  957.36 4944  954 4944  C 950.64 4944  948 4941.36  948 4938  C 948 4934.64  950.64 4932  954 4932  Z " fill-rule="nonzero" fill="#ffffff" stroke="none" />
  <path d="M 954 4932.5  C 957.08 4932.5  959.5 4934.92  959.5 4938  C 959.5 4941.08  957.08 4943.5  954 4943.5  C 950.92 4943.5  948.5 4941.08  948.5 4938  C 948.5 4934.92  950.92 4932.5  954 4932.5  Z " stroke-width="1" stroke="#797979" fill="none" />
  <path d="M 954 4941  C 952.32 4941  951 4939.68  951 4938  C 951 4936.32  952.32 4935  954 4935  C 955.68 4935  957 4936.32  957 4938  C 957 4939.68  955.68 4941  954 4941  " fill-rule="nonzero" fill="#797979" stroke="none" />
</svg>