<?xml version="1.0" encoding="utf-8"?>
<svg version="1.1" xmlns:xlink="http://www.w3.org/1999/xlink" width="12px" height="12px" viewBox="913 810  12 12" xmlns="http://www.w3.org/2000/svg">
  <path d="M 919 810  C 922.36 810  925 812.64  925 816  C 925 819.36  922.36 822  919 822  C 915.64 822  913 819.36  913 816  C 913 812.64  915.64 810  919 810  Z " fill-rule="nonzero" fill="#ffffff" stroke="none" />
  <path d="M 919 810.5  C 922.08 810.5  924.5 812.92  924.5 816  C 924.5 819.08  922.08 821.5  919 821.5  C 915.92 821.5  913.5 819.08  913.5 816  C 913.5 812.92  915.92 810.5  919 810.5  Z " stroke-width="1" stroke="#797979" fill="none" />
  <path d="M 919 819  C 917.32 819  916 817.68  916 816  C 916 814.32  917.32 813  919 813  C 920.68 813  922 814.32  922 816  C 922 817.68  920.68 819  919 819  " fill-rule="nonzero" fill="#797979" stroke="none" />
</svg>