<?xml version="1.0" encoding="utf-8"?>
<svg version="1.1" xmlns:xlink="http://www.w3.org/1999/xlink" width="12px" height="12px" viewBox="972 810  12 12" xmlns="http://www.w3.org/2000/svg">
  <path d="M 978 810  C 981.36 810  984 812.64  984 816  C 984 819.36  981.36 822  978 822  C 974.64 822  972 819.36  972 816  C 972 812.64  974.64 810  978 810  Z " fill-rule="nonzero" fill="#ffffff" stroke="none" />
  <path d="M 978 810.5  C 981.08 810.5  983.5 812.92  983.5 816  C 983.5 819.08  981.08 821.5  978 821.5  C 974.92 821.5  972.5 819.08  972.5 816  C 972.5 812.92  974.92 810.5  978 810.5  Z " stroke-width="1" stroke="#797979" fill="none" />
  <path d="M 978 819  C 976.32 819  975 817.68  975 816  C 975 814.32  976.32 813  978 813  C 979.68 813  981 814.32  981 816  C 981 817.68  979.68 819  978 819  " fill-rule="nonzero" fill="#797979" stroke="none" />
</svg>