<?xml version="1.0" encoding="utf-8"?>
<svg version="1.1" xmlns:xlink="http://www.w3.org/1999/xlink" width="10px" height="10px" xmlns="http://www.w3.org/2000/svg">
  <g transform="matrix(1 0 0 1 -108 -472 )">
    <path d="M 0.748299311224489 0.641025649038462  L 0.748299311224491 3.71794872596154  C 0.748299311224491 4.00117167680539  0.991953871043255 4.23076924278846  1.29251700255102 4.23076924278846  C 1.59308013405878 4.23076924278846  1.83673469387755 4.00117167680539  1.83673469387755 3.71794872596154  L 1.83673469387755 0.641025649038462  C 1.83673469387755 0.357802698194606  1.59308013405878 0.128205132211541  1.29251700255102 0.128205132211541  C 0.991953871043256 0.128205132211541  0.748299311224488 0.357802698194607  0.748299311224488 0.641025649038462  Z M 8.36734693877551 0.641025649038462  L 8.36734693877551 3.71794872596154  C 8.36734693877551 4.00117167680539  8.61100149859428 4.23076924278846  8.91156463010204 4.23076924278846  C 9.21212776160981 4.23076924278846  9.45578232142857 4.00117167680539  9.45578232142857 3.71794872596154  L 9.45578232142857 0.641025649038462  C 9.45578232142857 0.357802698194607  9.21212776160981 0.128205132211541  8.91156463010204 0.128205132211541  C 8.61100149859428 0.128205132211541  8.36734693877551 0.357802698194607  8.36734693877551 0.641025649038462  Z M 0.315102040816326 7.6205128125  L 0.312925178571428 7.6205128125  C 1.4443945621983 9.03927847404226  3.21865593883642 9.87332866661902  5.10204081632653 9.87179487980769  C 7.00680272959184 9.87179487980769  8.76462584183674 9.02564103365384  9.89115645408163 7.61538461538461  C 9.95078105448904 7.53113261476041  9.98259912647856 7.43213194618377  9.98259912647856 7.33086436831523  C 9.98259912647856 7.04764142410942  9.73894457237045 6.81804386350754  9.43838144790713 6.81804386350754  C 9.27811101355441 6.81804386350754  9.12598919036825 6.8846136984849  9.0225850255102 7  C 8.09735032370591 8.1630135767962  6.64455612440366 8.84712309211022  5.10204081632653 8.84615384615384  C 3.5608660780699 8.8472032212822  2.10913195089841 8.1643530872019  1.18367346938775 7.00307692307692  C 1.08158413029698 6.86779976341853  0.91632193789679 6.7874531837597  0.740164211813828 6.7874531837597  C 0.439601087350512 6.7874531837597  0.1959465332424 7.01705074436158  0.1959465332424 7.3002736885674  C 0.1959465332424 7.41666908684625  0.237966934672625 7.52960198281802  0.315102040816326 7.6205128125  Z " fill-rule="nonzero" fill="#757575" stroke="none" transform="matrix(1 0 0 1 108 472 )" />
  </g>
</svg>