<?xml version="1.0" encoding="utf-8"?>
<svg version="1.1" xmlns:xlink="http://www.w3.org/1999/xlink" width="23px" height="23px" xmlns="http://www.w3.org/2000/svg">
  <g transform="matrix(1 0 0 1 -102 -465 )">
    <path d="M 16.1780083513469 19.8164458844946  C 16.7156204736093 19.8164458844946  17.2153154850711 20.0933850154621  17.5002711864407 20.5492655286017  C 20.4286779661017 18.8568813559322  21.9037966101695 15.6904180709746  21.9037966101695 11.5301468845339  C 21.9037966101695 5.67021468114407  17.4337401048729 1.1086779661017  11.5031186440678 1.1086779661017  C 5.57561582733051 1.1086779661017  1.11283616631356 5.66813559322034  1.11283616631356 11.5301468845339  C 1.11283616631356 14.2818305084746  2.23242938665254 16.8640677966102  4.2034124375 18.7986666747881  C 4.30302122036278 18.8964618545405  4.35913585615614 19.0301937474549  4.35913585615614 19.1697853188559  C 4.35913585615614 19.4570203377757  4.12628586637743 19.6898703275544  3.83905084745763 19.6898703275544  C 3.70277066518935 19.6898703275544  3.57193512224662 19.6363792469101  3.47468925741526 19.5409039629237  C 1.30827118644068 17.4139887086864  0.073288135593222 14.5656271186441  0.073288135593222 11.5301468845339  C 0.073288135593222 5.09846326059322  4.9965875625 0.0691299353813573  11.5031186440678 0.0691299353813573  C 18.0117288135593 0.0691299353813573  22.9433446408898 5.10054237288136  22.9433446408898 11.5301468845339  C 22.9433446408898 16.1738079014831  21.1979435190678 19.7696045116525  17.7185762711864 21.6168813559322  C 17.5998072550672 22.3757429854273  16.9461079880542 22.9350899522912  16.1780083513469 22.9350899522912  C 15.3168185719497 22.9350899522912  14.6186863174486 22.23695769779  14.6186863174486 21.3757679183929  C 14.6186863174486 20.5145781389957  15.3168185719497 19.8164458844946  16.1780083513469 19.8164458844946  Z " fill-rule="nonzero" fill="#757575" stroke="none" transform="matrix(1 0 0 1 102 465 )" />
  </g>
</svg>