<?xml version="1.0" encoding="utf-8"?>
<svg version="1.1" xmlns:xlink="http://www.w3.org/1999/xlink" width="19px" height="19px" xmlns="http://www.w3.org/2000/svg">
  <g transform="matrix(1 0 0 1 -104 -10 )">
    <path d="M 12.7654671738281 8.01576084281939  C 12.7654671738281 6.88950523179522  12.1958453183594 5.89684173745915  11.3274966679687 5.30866541934538  C 12.0344215224609 4.75574256203734  12.4834394121094 3.89110483382424  12.4685958476562 2.92070666752993  C 12.4426196005859 1.29162524295574  11.0899996181641 -0.0201749415935735  9.4609181875 0.000234973369192108  C 7.83925855761719 0.0206448697772703  6.53116925 1.34172228671378  6.53116925 2.96894826109959  C 6.53116925 3.91893651243113  6.97833168945312 4.76501979442453  7.6722684296875 5.30866541934538  C 6.80577522949219 5.89684173745915  6.23429792382812 6.88950523179522  6.23429792382812 8.01576084281939  C 6.23429792382812 8.34417474686515  6.49962667089844 8.6095034929436  6.82804057617187 8.6095034929436  L 12.1717245214844 8.6095034929436  C 12.5001384267578 8.6095034929436  12.7654671738281 8.34417474686515  12.7654671738281 8.01576084281939  Z M 9.49988254882813 4.75017623002689  C 8.51835171484375 4.75017623002689  7.71865457324219 3.95047909141478  7.71865457324219 2.96894826109959  C 7.71865457324219 1.9874174307844  8.51835171484375 1.18772029217229  9.49988254882813 1.18772029217229  C 10.4814133828125 1.18772029217229  11.2811105244141 1.9874174307844  11.2811105244141 2.96894826109959  C 11.2811105244141 3.95047909141478  10.4814133828125 4.75017623002689  9.49988254882813 4.75017623002689  Z M 11.2811105244141 7.42201819269519  L 7.71679912304687 7.42201819269519  C 7.611038703125 7.42201819269519  7.53867633105469 7.31440234153498  7.57949614257813 7.21606370420728  C 7.68340111230469 6.96928940434853  7.83369222558594 6.74106956926417  8.02851401367188 6.54624776335183  C 8.42372397753906 6.15289325115041  8.9451042578125 5.93766154882999  9.49988254882813 5.93766154882999  C 10.0546608398437 5.93766154882999  10.5760411201172 6.15289326970509  10.9693956337891 6.54624776335183  C 11.1642174404297 6.74106956926417  11.3163640039062 6.96928940434853  11.4184135234375 7.21606370420728  C 11.4592333349609 7.3144023229803  11.3887263945313 7.42201819269519  11.2811105244141 7.42201819269519  Z M 18.9997650976562 18.4062573498758  C 18.9997650976562 17.2800017388516  18.4301432421875 16.2873382445155  17.5617945917969 15.6991619078471  C 18.2687194462891 15.146239050539  18.7177373359375 14.2816013223259  18.7028937714844 13.3112031745863  C 18.6769175244141 11.6821217500121  17.3242975419922 10.3703215840175  15.6970715615234 10.3907314618709  C 14.0735564814453 10.411141358279  12.7654671738281 11.7322187752155  12.7654671738281 13.3594447496013  C 12.7654671738281 14.3094330009328  13.2126296132812 15.1555162829262  13.9065663535156 15.6991619078471  C 13.0400731533203 16.2873382259609  12.4685958476562 17.2800017388516  12.4685958476562 18.4062573498758  C 12.4685958476562 18.7346712539215  12.7339245947266 19  13.0623385 19  L 18.4060224453125 19  C 18.7344363505859 19  18.9997650976562 18.7346712539215  18.9997650976562 18.4062573498758  Z M 15.7341804726563 15.1406727370833  C 14.7526496386719 15.140672755638  13.9529524970703 14.3409755984712  13.9529524970703 13.3594447496013  C 13.9529524970703 12.3779139192861  14.7526496386719 11.578216780674  15.7341804726563 11.578216780674  C 16.7157113066406 11.578216780674  17.5154084482422 12.3779139192861  17.5154084482422 13.3594447496013  C 17.5154084482422 14.3409755799165  16.7157113066406 15.1406727185286  15.7341804726563 15.1406727370833  Z M 17.5154084482422 17.8125146811969  L 13.951097046875 17.8125146811969  C 13.8453366269531 17.8125146811969  13.7729742548828 17.7048988300367  13.8137940664063 17.606560192709  C 13.9176990361328 17.3597858928502  14.0679901494141 17.1315660577659  14.2628119375 16.9367442704082  C 14.6580219013672 16.5433897582068  15.1794021816406 16.3281580373317  15.7341804726563 16.3281580373317  C 16.2889587636719 16.3281580373317  16.8103390439453 16.5433897582068  17.2036935576172 16.9367442704082  C 17.3985153642578 17.1315660763206  17.5506619277344 17.3597859114049  17.6527114472656 17.606560192709  C 17.6935312587891 17.704898811482  17.6230243183594 17.8125146811969  17.5154084482422 17.8125146811969  Z M 6.53116925 18.4062573498758  C 6.53116925 17.2800017388516  5.96154739453125 16.2873382445155  5.09319874414062 15.6991619078471  C 5.80012359863281 15.146239050539  6.24914148828125 14.2816013223259  6.23429792382812 13.3112031745863  C 6.20832167675781 11.6821217500121  4.85570169433594 10.3703215840175  3.22847571386719 10.3907314618709  C 1.60496063378906 10.411141358279  0.296871326171874 11.7322187752155  0.296871326171874 13.3594447496013  C 0.296871326171874 14.3094330009328  0.744033765624999 15.1555162829262  1.43797050585937 15.6991619078471  C 0.571477305664063 16.2873382259609  0 17.2800017388516  0 18.4062573498758  C 0 18.7346712539215  0.265328747070313 19  0.59374265234375 19  L 5.93742659765625 19  C 6.26584050292969 19  6.53116925 18.7346712539215  6.53116925 18.4062573498758  Z M 3.265584625 15.1406727370833  C 2.28405379101563 15.140672755638  1.48435664941406 14.3409755984712  1.48435664941406 13.3594447496013  C 1.48435664941406 12.3779139192861  2.28405379101563 11.578216780674  3.265584625 11.578216780674  C 4.24711545898437 11.578216780674  5.04681260058594 12.3779139192861  5.04681260058594 13.3594447496013  C 5.04681260058594 14.3409755799165  4.24711545898437 15.1406727185286  3.265584625 15.1406727370833  Z M 5.04681260058594 17.8125146811969  L 1.48250119921875 17.8125146811969  C 1.37674077929688 17.8125146811969  1.30437840722656 17.7048988300367  1.34519821875 17.606560192709  C 1.44910318847656 17.3597858928502  1.59939430175781 17.1315660577659  1.79421608984375 16.9367442704082  C 2.18942605371094 16.5433897582068  2.71080633398438 16.3281580373317  3.265584625 16.3281580373317  C 3.82036291601563 16.3281580373317  4.34174319628906 16.5433897582068  4.73509770996094 16.9367442704082  C 4.92991951660156 17.1315660763206  5.08206608007812 17.3597859114049  5.18411559960937 17.606560192709  C 5.22493541113281 17.704898811482  5.15442847070312 17.8125146811969  5.04681260058594 17.8125146811969  Z M 11.5705600683594 12.5467594967799  C 11.8544432802734 12.711894173897  11.9509264677734 13.0755615573031  11.7876472402344 13.3594447496013  C 11.6781759384766 13.5505556736916  11.47778778125 13.6563160746634  11.2736887421875 13.6563160932181  C 11.1734946728516 13.6563160932181  11.0714451533203 13.6303398462449  10.9768174160156 13.5765319206648  L 9.49988254882813 12.7248822881063  L 8.02294768164063 13.5765319206648  C 7.73906446972656 13.7398111475935  7.37539708496094 13.6433279604541  7.21211785742187 13.3594447496013  C 7.15830993164063 13.2666724628387  7.13233368457031 13.164622943689  7.132333703125 13.0625734245392  C 7.132333703125 12.8566189360513  7.23809412304688 12.6580862483169  7.42920502929688 12.5486149469683  L 8.90613989648438 11.6969653144098  L 8.90613989648438 10.0938601368088  C 8.90613989648438 9.76544623276305  9.17146864355469 9.5001174866846  9.49988254882813 9.5001174866846  C 9.66316177636719 9.5001174866846  9.81159743945313 9.56691352647396  9.91921330957031 9.67452939618886  C 10.0268291611328 9.78214524734906  10.0936252197266 9.93058090988012  10.0936252011719 10.0938601368088  L 10.0936252011719 11.6951098642214  L 11.5705600683594 12.5467594967799  Z " fill-rule="nonzero" fill="#d9001b" stroke="none" transform="matrix(1 0 0 1 104 10 )" />
  </g>
</svg>