<?xml version="1.0" encoding="utf-8"?>
<svg version="1.1" xmlns:xlink="http://www.w3.org/1999/xlink" width="9px" height="14px" xmlns="http://www.w3.org/2000/svg">
  <g transform="matrix(1 0 0 1 -1646 -397 )">
    <path d="M 0.462162162162162 13.7375  C -0.0243243243243247 13.3875  -0.0243243243243247 12.775  0.462162162162162 12.425  L 6.3972972972973 7  L 0.462162162162162 1.575  C 0.0729729729729723 1.225  0.0729729729729723 0.6125  0.462162162162162 0.2625  C 0.851351351351351 -0.0875  1.53243243243243 -0.0875  1.92162162162162 0.2625  L 8.63513513513514 6.3  C 8.82972972972973 6.475  8.92702702702703 6.7375  8.92702702702703 7  C 8.92702702702703 7.2625  8.82972972972973 7.4375  8.63513513513514 7.7  L 1.92162162162162 13.7375  C 1.53243243243243 14.0875  0.851351351351351 14.0875  0.462162162162162 13.7375  Z " fill-rule="nonzero" fill="#c1c1c1" stroke="none" transform="matrix(1 0 0 1 1646 397 )" />
  </g>
</svg>