<?xml version="1.0" encoding="utf-8"?>
<svg version="1.1" xmlns:xlink="http://www.w3.org/1999/xlink" width="19px" height="19px" xmlns="http://www.w3.org/2000/svg">
  <g transform="matrix(1 0 0 1 -1055 -451 )">
    <path d="M 18.9625596887729 9.46504087121951  C 18.9625596887729 4.22447117756098  14.7686457380979 0.0105012536585366  9.55496090548686 0.0105012536585366  C 4.34063611062961 0.0105012536585366  0.14726800577803 4.22447117756098  0.14726800577803 9.46504087121951  C 0.14726800577803 14.7055915834146  4.34061729470221 18.9727874214634  9.55496090548686 18.9727874214634  C 14.7686457564908 18.9727874214634  18.9625596887729 14.7055915834146  18.9625596887729 9.46504087121951  Z M 14.2311961222462 13.8676914907317  L 14.1783639961581 14.3259918995122  L 13.1299090329968 15.1373169795122  C 12.1353590164644 15.4347257034146  9.6892527175345 15.9208909931707  6.65181065365854 11.5991983541463  C 3.21117315412365 6.92575194926829  4.58238020295708 4.27824716487805  5.09285853876347 3.81941564585366  L 6.19467262112309 3.03586061365854  L 6.65181065365854 3.17129643219512  L 8.50643064183021 5.87200814926829  L 8.45307152263188 6.30428363707317  L 7.37760762917754 7.06063769463415  C 6.89411940773681 7.46569324487805  7.21625040226886 7.97896465756098  7.5658985042768 8.9511624595122  C 7.88857530784647 9.51885480292683  8.61435346743808 10.6531203434146  9.0978605048062 11.0854147941463  C 9.93101564418227 11.7878790497561  10.3076915108036 12.2473744936585  10.872187725589 11.9232959053659  L 11.8930879310267 11.1941807482927  L 12.2973185553715 11.2474066439024  L 14.2311961222462 13.8676914907317  Z " fill-rule="nonzero" fill="#ffebc1" stroke="none" transform="matrix(1 0 0 1 1055 451 )" />
  </g>
</svg>