<?xml version="1.0" encoding="utf-8"?>
<svg version="1.1" xmlns:xlink="http://www.w3.org/1999/xlink" width="10px" height="11px" xmlns="http://www.w3.org/2000/svg">
  <g transform="matrix(1 0 0 1 -933 -455 )">
    <path d="M 9.99896694214876 11  C 9.62603305785124 8.709765625  8.71694214876033 6.8427734375  6.86570247933884 6.0865234375  L 5.03409090909091 10.969921875  L 3.20557851239669 6.08544921875  C 1.35330578512397 6.840625  0.442148760330578 8.70869140625  0.0702479338842975 11  L 9.99896694214876 11  Z M 7.75826446280992 2.81015625  C 7.75723140495868 1.258984375  6.54752066115702 0.00107421875  5.0547520661157 0  C 3.56198347107438 0.00107421875  2.35227272727273 1.258984375  2.35227272727273 2.81015625  C 2.35227272727273 4.36240234375  3.56301652892562 5.6203125  5.05578512396694 5.6203125  C 6.54855371900826 5.6203125  7.75826446280992 4.36240234375  7.75826446280992 2.81015625  Z M 7.29545454545454 2.81015625  C 7.29235537190083 4.09599609375  6.29132231404959 5.13798828125  5.0547520661157 5.14013671875  C 3.8595041322314 5.13798828125  2.88739669421488 4.1658203125  2.82128099173554 2.9412109375  C 3.33367768595041 2.47392578125  3.69421487603306 1.860546875  3.81818181818182 1.16875  C 4.44318181818182 1.89599609375  5.39772727272727 2.3611328125  6.46797520661157 2.3611328125  C 6.73140495867768 2.3611328125  6.98657024793388 2.3310546875  7.23347107438016 2.27734375  C 7.27169421487603 2.44921875  7.29442148760331 2.62646484375  7.29545454545454 2.81015625  Z " fill-rule="nonzero" fill="#ffffff" stroke="none" transform="matrix(1 0 0 1 933 455 )" />
  </g>
</svg>