<?xml version="1.0" encoding="utf-8"?>
<svg version="1.1" xmlns:xlink="http://www.w3.org/1999/xlink" width="23px" height="23px" xmlns="http://www.w3.org/2000/svg">
  <g transform="matrix(1 0 0 1 -1744 -14 )">
    <path d="M 11.4999999143183 0  C 5.14872533858488 0  0 5.14872537694588  0 11.5  C 0 17.8512746230541  5.14872533858488 23  11.4999999143183 23  C 17.8512744900518 23  22.9999998286366 17.8512746230541  22.9999998286366 11.5  C 22.9999998286366 5.14872537694588  17.8512744900518 0  11.4999999143183 0  Z M 11.4264001378675 4.0296  C 13.3402508766885 4.0296  14.8917334453821 5.58108258025302  14.8917334453821 7.49493333333333  C 14.8917334453821 9.40878408641364  13.3402508766885 10.9602666666667  11.4264001378675 10.9602666666667  C 9.51254939904652 10.9602666666667  7.96106683035294 9.40878408641364  7.96106683035294 7.49493333333333  C 7.96106683035294 5.58108258025302  9.51254939904652 4.0296  11.4264001378675 4.0296  Z M 17.6318000399962 17.7836  C 13.772400068751 19.3138666666667  9.70446676572611 19.4242666666667  5.36666679804524 17.7805333333333  C 5.33140013164133 14.2293333333333  7.06713345204244 12.0244  9.24293343583147 11.1580666666667  L 11.477000085853 14.8856  L 13.8306667349835 11.2439333333333  C 15.9298000526771 12.1639333333333  17.5980667069142 14.3428  17.6318000399962 17.7836  Z " fill-rule="nonzero" fill="#c4e9ff" stroke="none" transform="matrix(1 0 0 1 1744 14 )" />
  </g>
</svg>