<?xml version="1.0" encoding="utf-8"?>
<svg version="1.1" xmlns:xlink="http://www.w3.org/1999/xlink" width="12px" height="13px" xmlns="http://www.w3.org/2000/svg">
  <g transform="matrix(1 0 0 1 -1795 -52 )">
    <path d="M 10.9959183673469 6.89902203818544  C 10.9959183673469 4.99280738823294  9.95456434958114 3.24571120382131  8.29616326530612 2.3696  C 8.13377149213592 2.28357624988822  8.03184968664401 2.11236566786868  8.03184968664401 1.9256  C 8.03184968664401 1.64933606083178  8.25123532489643 1.4253798884491  8.5218612244898 1.4253798884491  C 8.60042085005638 1.4253798884491  8.67782893303756 1.44466181317666  8.74755918367347 1.4816  C 10.7304911657108 2.52972139082699  11.9755102040816 4.61902729049436  11.9755102040816 6.89852689262094  C 11.9755102040816 10.2674638665888  9.30018315817258 12.9985268926209  6 12.9985268926209  C 2.69981684182742 12.9985268926209  0.0244897959183679 10.2674638665888  0.0244897959183679 6.89852689262094  C 0.0244897959183679 4.61902729049436  1.26950883428921 2.52972139082699  3.25244081632653 1.4816  C 3.32217106696243 1.44466181317666  3.39957914994362 1.4253798884491  3.4781387755102 1.4253798884491  C 3.74876467510356 1.4253798884491  3.96815031335599 1.64933606083178  3.96815031335599 1.9256  C 3.96815031335599 2.11236566786868  3.86622850786408 2.28357624988822  3.70383673469388 2.3696  C 2.04543565041886 3.24571120382131  1.00408163265306 4.99280738823294  1.00408163265306 6.89902203818544  C 1.00408163265306 9.71567426232249  3.24083047431473 11.9990220381854  6 11.9990220381854  C 8.75916952568527 11.9990220381854  10.9959183673469 9.71567426232249  10.9959183673469 6.89902203818544  Z M 6.48979591836735 0.5  L 6.48979591836735 4.5  C 6.48979591836735 4.7761423749154  6.27050681624365 5  6 5  C 5.72949318375635 5  5.51020408163265 4.7761423749154  5.51020408163265 4.5  L 5.51020408163265 0.5  C 5.51020408163265 0.223857625084603  5.72949318375635 0  6 0  C 6.27050681624365 0  6.48979591836735 0.223857625084603  6.48979591836735 0.5  Z " fill-rule="nonzero" fill="#d9d8d8" stroke="none" transform="matrix(1 0 0 1 1795 52 )" />
  </g>
</svg>