<?xml version="1.0" encoding="utf-8"?>
<svg version="1.1" xmlns:xlink="http://www.w3.org/1999/xlink" width="11px" height="6px" xmlns="http://www.w3.org/2000/svg">
  <g transform="matrix(1 0 0 1 -1864 -21 )">
    <path d="M 0.2904 0.321280005  C 0.588361990882 0.0415689149245145  1.06401259414421 0.0198548206578133  1.38951317296512 0.271104000000001  L 1.44790697674419 0.320767995000001  L 5.4961798502907 4.118784  L 9.51716589680233 0.29568  C 9.81339013168938 0.0141186071235995  10.2891313607919 -0.0102589993511558  10.6162790697674 0.239359995  L 10.6752186046512 0.288511995  C 10.9753325019544 0.566424188234961  11.0013163850589 1.01275597005181  10.7352496177326 1.319680005  L 10.6828589200581 1.374463995  L 6.08230078052326 5.747968005  C 5.7837730209151 6.03167893603072  5.30349534573656 6.05391919931723  4.97663875436047 5.799168  L 4.9209736380814 5.751552  L 0.290400000000003 1.407232005  C 0.136768362187149 1.26318994291937  0.0504507273732276 1.06777154754978  0.0504507273732276 0.864  C 0.0504507273732276 0.660228452450221  0.136768362187148 0.464810057080634  0.290400000000003 0.320767995  Z " fill-rule="nonzero" fill="#d0d0d0" stroke="none" transform="matrix(1 0 0 1 1864 21 )" />
  </g>
</svg>