<?xml version="1.0" encoding="utf-8"?>
<svg version="1.1" xmlns:xlink="http://www.w3.org/1999/xlink" width="361px" height="1px" xmlns="http://www.w3.org/2000/svg">
  <defs>
    <mask fill="white" id="clip252">
      <path d="M 0 1  L 0 0  L 361 0  L 361 1  L 171.741165552325 1  L 104.784926626845 1  L 0 1  Z " fill-rule="evenodd" />
    </mask>
  </defs>
  <g transform="matrix(1 0 0 1 -886 -225 )">
    <path d="M 0 1  L 0 0  L 361 0  L 361 1  L 171.741165552325 1  L 104.784926626845 1  L 0 1  Z " fill-rule="nonzero" fill="#ffffff" stroke="none" fill-opacity="0" transform="matrix(1 0 0 1 886 225 )" />
    <path d="M 0 1  L 0 0  L 361 0  L 361 1  L 171.741165552325 1  L 104.784926626845 1  L 0 1  Z " stroke-width="1" stroke="#eeeeee" fill="none" transform="matrix(1 0 0 1 886 225 )" mask="url(#clip252)" />
  </g>
</svg>