<?xml version="1.0" encoding="utf-8"?>
<svg version="1.1" xmlns:xlink="http://www.w3.org/1999/xlink" width="373px" height="1px" xmlns="http://www.w3.org/2000/svg">
  <defs>
    <mask fill="white" id="clip138">
      <path d="M 0 1  L 0 0  L 373 0  L 373 1  L 177.450013160712 1  L 108.268082082585 1  L 0 1  Z " fill-rule="evenodd" />
    </mask>
  </defs>
  <g transform="matrix(1 0 0 1 -874 -177 )">
    <path d="M 0 1  L 0 0  L 373 0  L 373 1  L 177.450013160712 1  L 108.268082082585 1  L 0 1  Z " fill-rule="nonzero" fill="#ffffff" stroke="none" fill-opacity="0" transform="matrix(1 0 0 1 874 177 )" />
    <path d="M 0 1  L 0 0  L 373 0  L 373 1  L 177.450013160712 1  L 108.268082082585 1  L 0 1  Z " stroke-width="1" stroke="#eeeeee" fill="none" transform="matrix(1 0 0 1 874 177 )" mask="url(#clip138)" />
  </g>
</svg>