<?xml version="1.0" encoding="utf-8"?>
<svg version="1.1" xmlns:xlink="http://www.w3.org/1999/xlink" width="15px" height="10px" xmlns="http://www.w3.org/2000/svg">
  <g transform="matrix(1 0 0 1 -888 -774 )">
    <path d="M 14.5 9.02499999999998  C 14.5 9.29100000000005  14.3166666666666 9.5  14.0833333333333 9.5  L 12.4166666666667 9.5  C 12.1833333333334 9.5  12 9.29100000000005  12 9.02499999999998  L 12 0.475000000000023  C 12 0.208999999999946  12.1833333333334 0  12.4166666666667 0  L 14.0833333333333 0  C 14.3166666666666 0  14.5 0.208999999999946  14.5 0.475000000000023  L 14.5 9.02499999999998  Z M 10.5 9  C 10.5 9.27999999999997  10.3166666666666 9.5  10.0833333333333 9.5  L 8.41666666666674 9.5  C 8.18333333333339 9.5  8 9.27999999999997  8 9  L 8 3  C 8 2.72000000000003  8.18333333333339 2.5  8.41666666666674 2.5  L 10.0833333333333 2.5  C 10.3166666666666 2.5  10.5 2.72000000000003  10.5 3  L 10.5 9  Z M 6.08333333333326 9.5  L 4.41666666666674 9.5  C 4.18333333333339 9.5  4 9.27999999999997  4 9  L 4 5  C 4 4.72000000000003  4.18333333333339 4.5  4.41666666666674 4.5  L 6.08333333333326 4.5  C 6.31666666666661 4.5  6.5 4.72000000000003  6.5 5  L 6.5 9  C 6.5 9.27999999999997  6.31666666666661 9.5  6.08333333333326 9.5  Z M 0.416666666666742 9.5  C 0.183333333333394 9.5  0 9.27999999999997  0 9  L 0 7  C 0 6.72000000000003  0.183333333333394 6.5  0.416666666666742 6.5  L 2.08333333333326 6.5  C 2.31666666666661 6.5  2.5 6.72000000000003  2.5 7  L 2.5 9  C 2.5 9.27999999999997  2.31666666666661 9.5  2.08333333333326 9.5  L 0.416666666666742 9.5  Z " fill-rule="nonzero" fill="#000000" stroke="none" transform="matrix(1 0 0 1 888 774 )" />
  </g>
</svg>