<?xml version="1.0" encoding="utf-8"?>
<svg version="1.1" xmlns:xlink="http://www.w3.org/1999/xlink" width="16px" height="21px" xmlns="http://www.w3.org/2000/svg">
  <g>
    <path d="M 6.96216216216216 18.0477669902913  C 6.96216216216216 18.5697087378641  7.44648648648649 19.0264077669903  8 19.0264077669903  C 8.55351351351351 19.0264077669903  9.03783783783784 18.5697087378641  9.03783783783784 18.0477669902913  C 9.03783783783784 17.5258252427184  8.55351351351351 17.0691262135922  8 17.0691262135922  C 7.44648648648649 17.0691262135922  6.96216216216216 17.5258252427184  6.96216216216216 18.0477669902913  Z M 16 2.7157281553398  C 15.9567567567568 1.28038834951456  14.7113513513514 0.106019417475727  13.1891891891892 0.106019417475727  L 2.81081081081081 0.106019417475727  C 1.28864864864865 0.106019417475727  0.0432432432432431 1.28038834951456  0 2.71572815533981  L 0 18.3739805825243  C 0.0432432432432431 19.8093203883495  1.28864864864865 20.9836893203883  2.81081081081081 21  L 13.1891891891892 21  C 14.7113513513514 20.9836893203883  15.9567567567568 19.8093203883495  16 18.3739805825243  L 16 2.7157281553398  Z M 14.572972972973 16  L 14.572972972973 18.3739805825243  C 14.572972972973 19.0916504854369  13.9502702702703 19.6788349514563  13.1891891891892 19.6788349514563  L 2.81081081081081 19.6788349514563  C 2.04972972972973 19.6788349514563  1.42702702702703 19.0916504854369  1.42702702702703 18.3739805825243  L 1.42702702702703 16  L 14.572972972973 16  Z M 14.572972972973 5  L 14.572972972973 15  L 1.42702702702703 15  L 1.42702702702703 5  L 14.572972972973 5  Z M 14.572972972973 2.7157281553398  L 14.572972972973 3.36815533980582  L 1.42702702702703 3.36815533980582  L 1.42702702702703 2.7157281553398  C 1.42702702702703 1.99805825242718  2.04972972972973 1.41087378640776  2.81081081081081 1.41087378640776  L 13.1891891891892 1.41087378640776  C 13.9502702702703 1.41087378640776  14.572972972973 1.99805825242718  14.572972972973 2.7157281553398  Z " fill-rule="nonzero" fill="#999999" stroke="none" />
  </g>
</svg>