<?xml version="1.0" encoding="utf-8"?>
<svg version="1.1" xmlns:xlink="http://www.w3.org/1999/xlink" width="10px" height="16px" xmlns="http://www.w3.org/2000/svg">
  <g transform="matrix(1 0 0 1 -889 -148 )">
    <path d="M 9.78861634350844 14.8573794377513  C 10.0704382605608 15.1184675759068  10.0704382605608 15.5424997889205  9.78861634350844 15.8036199071749  C 9.50820587242084 16.0654600309417  9.05195147046286 16.0654600309417  8.77145492267798 15.8036199071749  C 8.77145492267798 15.8036199071749  0.205001790343924 8.50729626138347  0.205001790343924 8.50729626138347  C 0.0553382239970704 8.36739219098317  -0.008795927395536 8.18235210291657  0.000963629810180661 8.00004800140953  C -0.0087959105803969 7.81763190703397  0.0553210221097235 7.6322238133712  0.205001790343924 7.49270375424709  C 0.205001790343924 7.49270375424709  8.77147214138046 0.19638009282508  8.77147214138046 0.19638009282508  C 9.05196868916534 -0.0654600309416934  9.50822309112333 -0.0654600309416934  9.78863356221092 0.19638009282508  C 10.0704554792633 0.457740218127164  10.0704554792633 0.881500443994234  9.78863356221092 1.1426205622487  C 9.78863356221092 1.1426205622487  1.73990100917487 8.00003201136006  1.73990100917487 8.00003201136006  L 9.78861634350844 14.8573794377513  Z " fill-rule="nonzero" fill="#333333" stroke="none" transform="matrix(1 0 0 1 889 148 )" />
  </g>
</svg>