<?xml version="1.0" encoding="utf-8"?>
<svg version="1.1" xmlns:xlink="http://www.w3.org/1999/xlink" width="10px" height="20px" xmlns="http://www.w3.org/2000/svg">
  <g transform="matrix(1 0 0 1 -888 -146 )">
    <path d="M 0.297189837768637 9.19378798392005  C -0.088682053520927 9.63178654702347  -0.0951132517090866 10.2910190782251  0.256458915910295 10.7357217009678  C 0.269321312286614 10.7535991933394  0.286471174121705 10.7737113722574  0.301477303227411 10.791588864629  C 0.301477303227411 10.791588864629  8.02963379266563 19.6163660365444  8.02963379266563 19.6163660365444  C 8.44980540762538 20.0968236440303  9.16366840651107 20.130343942227  9.62457094332916 19.6923453791236  C 10.0854734801472 19.2543468160201  10.117629471088 18.5101961960536  9.6974578561283 18.0297385885677  C 9.6974578561283 18.0297385885677  2.65958330555252 9.98933639445484  2.65958330555252 9.98933639445484  C 2.65958330555252 9.98933639445484  9.70388905431646 1.97128106580643  9.70388905431646 1.97128106580643  C 10.1240606692762 1.49305814486698  10.0940484110648 0.748907524900449  9.63314587424671 0.308674275250578  C 9.174387070158 -0.129324287852846  8.46052407127231 -0.0980386762026018  8.03820872358317 0.382418931283297  C 8.03820872358317 0.382418931283297  0.297189837768637 9.19378798392005  0.297189837768637 9.19378798392005  Z " fill-rule="nonzero" fill="#000000" stroke="none" transform="matrix(1 0 0 1 888 146 )" />
  </g>
</svg>