<?xml version="1.0" encoding="utf-8"?>
<svg version="1.1" xmlns:xlink="http://www.w3.org/1999/xlink" width="300px" height="10px" preserveAspectRatio="xMinYMid meet" viewBox="3420 1526  300 8" xmlns="http://www.w3.org/2000/svg">
  <defs>
    <mask fill="white" id="clip133">
      <path d="M 3518.5 1514  L 3555.5 1514  L 3555.5 1546  L 3518.5 1546  Z M 3415 1449  L 3730 1449  L 3730 1546  L 3415 1546  Z " fill-rule="evenodd" />
    </mask>
  </defs>
  <path d="M 3425 1461  L 3425 1530  L 3714 1530  " stroke-width="2" stroke="#3b95e8" fill="none" mask="url(#clip133)" />
  <path d="M 3425 1459  A 3.5 3.5 0 0 0 3421.5 1462.5 A 3.5 3.5 0 0 0 3425 1466 A 3.5 3.5 0 0 0 3428.5 1462.5 A 3.5 3.5 0 0 0 3425 1459 Z M 3713 1537.6  L 3720 1530  L 3713 1522.4  L 3713 1537.6  Z " fill-rule="nonzero" fill="#3b95e8" stroke="none" mask="url(#clip133)" />
</svg>