<?xml version="1.0" encoding="utf-8"?>
<svg version="1.1" xmlns:xlink="http://www.w3.org/1999/xlink" width="21px" height="20px" preserveAspectRatio="xMinYMid meet" viewBox="3508 1396  21 18" xmlns="http://www.w3.org/2000/svg">
  <defs>
    <mask fill="white" id="clip243">
      <path d="M 3598.5 1389  L 3635.5 1389  L 3635.5 1421  L 3598.5 1421  Z M 3505 1389  L 3730 1389  L 3730 1421  L 3505 1421  Z " fill-rule="evenodd" />
    </mask>
  </defs>
  <path d="M 3598.5 1405  L 3517 1405  M 3635.5 1405  L 3714 1405  " stroke-width="2" stroke="#3b95e8" fill="none" />
  <path d="M 3518.5 1401.5  A 3.5 3.5 0 0 0 3515 1405 A 3.5 3.5 0 0 0 3518.5 1408.5 A 3.5 3.5 0 0 0 3522 1405 A 3.5 3.5 0 0 0 3518.5 1401.5 Z M 3713 1412.6  L 3720 1405  L 3713 1397.4  L 3713 1412.6  Z " fill-rule="nonzero" fill="#3b95e8" stroke="none" mask="url(#clip243)" />
</svg>