<?xml version="1.0" encoding="utf-8"?>
<svg version="1.1" xmlns:xlink="http://www.w3.org/1999/xlink" width="20px" height="21px" preserveAspectRatio="xMidYMin meet" viewBox="3821 2422  18 21" xmlns="http://www.w3.org/2000/svg">
  <path d="M 3830 2431  L 3830 2550  L 3428 2550  A 3 3 0 0 0 3425 2547 A 3 3 0 0 0 3422 2550 L 3030 2550  L 3030 2579  " stroke-width="2" stroke-dasharray="18,8" stroke="#bdbfc1" fill="none" />
  <path d="M 3830 2429  A 3.5 3.5 0 0 0 3826.5 2432.5 A 3.5 3.5 0 0 0 3830 2436 A 3.5 3.5 0 0 0 3833.5 2432.5 A 3.5 3.5 0 0 0 3830 2429 Z M 3022.4 2578  L 3030 2585  L 3037.6 2578  L 3022.4 2578  Z " fill-rule="nonzero" fill="#bdbfc1" stroke="none" />
</svg>