<?xml version="1.0" encoding="utf-8"?>
<svg version="1.1" xmlns:xlink="http://www.w3.org/1999/xlink" width="14px" height="10px" xmlns="http://www.w3.org/2000/svg">
  <g transform="matrix(1 0 0 1 -906 -774 )">
    <path d="M 4.86016521842566 7.40531769436495  C 4.86016521842566 7.40531769436495  7.02253908176385 9.5  7.02253908176385 9.5  L 9.14442080351637 7.43850431527051  C 8.626373959072 6.84544555453829  7.85236158936686 6.46891191709847  6.98756302874381 6.46891191709847  C 6.13900728158455 6.46891191709847  5.3778594245407 6.8314341297089  4.86016521842566 7.40531769436495  Z M 6.98756302874403 4.97668393782385  C 8.27688358515798 4.97668393782385  9.43563051801902 5.51823503643095  10.2346215209286 6.37932931442401  C 10.2346215209286 6.37932931442401  11.3234963676189 5.32144245171582  11.3234963676189 5.32144245171582  C 10.2447793614256 4.19174563474451  8.70143865752721 3.48445595854923  6.98756302874403 3.48445595854923  C 5.28827230125285 3.48445595854923  3.75662637995856 4.17975893399955  2.67926975512637 5.29269359412729  C 2.67926975512637 5.29269359412729  3.76929868949196 6.3485999571094  3.76929868949196 6.3485999571094  C 4.56720497529022 5.50537080436095  5.7136480405668 4.97668393782385  6.98756302874403 4.97668393782385  Z M 12.4118698107936 4.26404272322111  C 12.4118698107936 4.26404272322111  13.5 3.20687932599833  13.5 3.20687932599833  C 11.8629577744018 1.53943671589343  9.55056992342338 0.5  6.98756302874403 0.5  C 4.43751030486419 0.5  2.1355496261217 1.52895604750734  0.5 3.18164431053629  C 0.5 3.18164431053629  1.58955792391339 4.23709440761093  1.58955792391339 4.23709440761093  C 2.94607980321257 2.85431654729018  4.86289213909299 1.99222797927462  6.98756302874403 1.99222797927462  C 9.12600260893419 1.99222797927462  11.0538808983258 2.86552608691295  12.4118698107936 4.26404272322111  Z " fill-rule="nonzero" fill="#000000" stroke="none" transform="matrix(1 0 0 1 906 774 )" />
  </g>
</svg>