<?xml version="1.0" encoding="utf-8"?>
<svg version="1.1" xmlns:xlink="http://www.w3.org/1999/xlink" width="21px" height="10px" xmlns="http://www.w3.org/2000/svg">
  <g transform="matrix(1 0 0 1 -1207 -292 )">
    <path d="M 20.8690109201023 1.237805031977  C 21.0943131982553 0.891949690446174  21.0191836618772 0.430787305242209  20.7187518473462 0.161774086387435  C 20.3807660559988 -0.107261062296869  19.930096751457 -0.0303750799617564  19.6671973309971 0.3155021913986  C 19.6296217714354 0.353901322907095  15.4609792656006 5.38831035847175  10.5035953328953 5.38831035847175  C 5.69649205569146 5.38831035847175  1.34001491753883 0.3155021913986  1.30248252346775 0.277059200231044  C 1.03956152026252 -0.0303970097912868  0.551359821649629 -0.0687961412997826  0.250906424373321 0.200195147725461  C -0.0495253901576906 0.469208366580235  -0.087079366974067 0.968791813122227  0.175776887995271 1.27626995297409  C 0.250884841628024 1.39153313698817  1.15222345071165 2.42916495106924  2.57931773522455 3.58208187899392  C 2.57931773522455 3.58208187899392  0.663957003862868 5.61892444581803  0.663957003862868 5.61892444581803  C 0.363525189331856 5.92635872601083  0.401079166148233 6.42594217255282  0.701532563424541 6.6949553914076  C 0.77666209980259 6.84868349641876  0.964431983884472 6.92554754892434  1.15222345071165 6.92554754892434  C 1.33999333479353 6.92554754892434  1.52776321887542 6.84868349641876  1.67797912614092 6.6949553914076  C 1.67797912614092 6.6949553914076  3.74355576476811 4.50442857923138  3.74355576476811 4.50442857923138  C 4.72000232748449 5.19618312195209  5.88421877428275 5.84951660333478  7.16111873427544 6.31065705870921  C 7.16111873427544 6.31065705870921  6.37244205564094 9.03925416825404  6.37244205564094 9.03925416825404  C 6.25978012519181 9.46197356229045  6.48512556883537 9.88469295632686  6.89821931381551 10  C 6.89821931381551 10  7.12354317471377 10  7.12354317471377 10  C 7.46152896606115 10  7.76200394608276 9.76940784248325  7.83711189971551 9.42353057112289  C 7.83711189971551 9.42353057112289  8.62574541285942 6.6949553914076  8.62574541285942 6.6949553914076  C 9.22665220741203 6.81026243508074  9.86511297878103 6.88712648758632  10.5035521674047 6.88712648758632  C 11.1419697732831 6.88712648758632  11.7804521273974 6.81026243508074  12.38135892195 6.6949553914076  C 12.38135892195 6.6949553914076  13.1699924350939 9.38510950978487  13.1699924350939 9.38510950978487  C 13.2451435542173 9.73098678114523  13.5831293455647 9.96155700883244  13.883582742841 9.96155700883244  C 13.9586906964737 9.96155700883244  14.0337986501065 9.96155700883244  14.0713526269229 9.92313594749442  C 14.484446371903 9.80778504416222  14.7098133982918 9.38510950978487  14.5971514678427 8.96239011574846  C 14.5971514678427 8.96239011574846  13.8084747892082 6.27221406754166  13.8084747892082 6.27221406754166  C 15.0853963319462 5.81102975250816  16.2495911959992 5.15771820095501  17.2260377587155 4.46598558806382  C 17.2260377587155 4.46598558806382  19.2540604205264 6.61809133890202  19.2540604205264 6.61809133890202  C 19.4042763277919 6.77181944391318  19.5920462118737 6.84868349641876  19.7798160959556 6.84868349641876  C 19.9675859800375 6.84868349641876  20.1553774468647 6.77179751408365  20.3055717713849 6.61811326873155  C 20.6060251686612 6.31065705870922  20.6060251686612 5.84949467350525  20.3431473309466 5.54201653365339  C 20.3431473309466 5.54201653365339  18.4277865995849 3.50523975631786  18.4277865995849 3.50523975631786  C 19.9676075627828 2.35227896873412  20.8690109201023 1.237805031977  20.8690109201023 1.237805031977  Z " fill-rule="nonzero" fill="#999999" stroke="none" transform="matrix(1 0 0 1 1207 292 )" />
  </g>
</svg>