<?xml version="1.0" encoding="utf-8"?>
<svg version="1.1" xmlns:xlink="http://www.w3.org/1999/xlink" width="9px" height="5px" xmlns="http://www.w3.org/2000/svg">
  <g transform="matrix(1 0 0 1 -1737 -1117 )">
    <path d="M 8.75342465753425 1.2093023255814  C 9.0986301369863 0.883720930232558  9.04931506849315 0.465116279069767  8.8027397260274 0.186046511627907  C 8.65479452054795 0.0465116279069766  8.45753424657534 0  8.26027397260274 0  L 0.863013698630137 0.0465116279069766  C 0.665753424657534 0.0465116279069766  0.468493150684932 0.0930232558139532  0.32054794520548 0.232558139534884  C 0.0246575342465757 0.511627906976744  0.0246575342465757 0.930232558139535  0.32054794520548 1.2093023255814  L 4.01917808219178 4.69767441860465  C 4.06849315068493 4.74418604651163  4.16712328767123 4.7906976744186  4.21643835616438 4.83720930232558  C 4.21643835616438 4.83720930232558  4.26575342465753 4.88372093023256  4.26575342465753 4.88372093023256  C 4.51232876712329 4.97674418604651  4.85753424657534 4.93023255813954  5.05479452054795 4.74418604651163  L 8.75342465753425 1.2093023255814  Z " fill-rule="nonzero" fill="#7b7b7b" stroke="none" transform="matrix(1 0 0 1 1737 1117 )" />
  </g>
</svg>