<?xml version="1.0" encoding="utf-8"?>
<svg version="1.1" xmlns:xlink="http://www.w3.org/1999/xlink" width="12px" height="148px" preserveAspectRatio="xMidYMin meet" viewBox="787 39  10 148" xmlns="http://www.w3.org/2000/svg">
  <path d="M 792.5 184  L 792.5 50  A 5 5 0 0 1 797.5 45.5 L 1765 45.5  A 5 5 0 0 1 1770.5 50.5 L 1770.5 69  " stroke-width="3" stroke="#d7af1f" fill="none" />
  <path d="M 792.5 179  A 4 4 0 0 0 788.5 183 A 4 4 0 0 0 792.5 187 A 4 4 0 0 0 796.5 183 A 4 4 0 0 0 792.5 179 Z M 1770.5 64  A 4 4 0 0 0 1766.5 68 A 4 4 0 0 0 1770.5 72 A 4 4 0 0 0 1774.5 68 A 4 4 0 0 0 1770.5 64 Z " fill-rule="nonzero" fill="#d7af1f" stroke="none" />
</svg>