<?xml version="1.0" encoding="utf-8"?>
<svg version="1.1" xmlns:xlink="http://www.w3.org/1999/xlink" width="22px" height="22px" preserveAspectRatio="xMinYMid meet" viewBox="874 82  22 20" xmlns="http://www.w3.org/2000/svg">
  <path d="M 851 199.5  L 869 199.5  A 5 5 0 0 0 874.5 194.5 L 874.5 97  A 5 5 0 0 1 879.5 92.5 L 886 92.5  " stroke-width="3" stroke="#d7af1f" fill="none" />
  <path d="M 852 195.5  A 4 4 0 0 0 848 199.5 A 4 4 0 0 0 852 203.5 A 4 4 0 0 0 856 199.5 A 4 4 0 0 0 852 195.5 Z M 885 88.5  A 4 4 0 0 0 881 92.5 A 4 4 0 0 0 885 96.5 A 4 4 0 0 0 889 92.5 A 4 4 0 0 0 885 88.5 Z " fill-rule="nonzero" fill="#d7af1f" stroke="none" />
</svg>