<?xml version="1.0" encoding="utf-8"?>
<svg version="1.1" xmlns:xlink="http://www.w3.org/1999/xlink" width="12px" height="623px" preserveAspectRatio="xMidYMin meet" viewBox="465 357  10 623" xmlns="http://www.w3.org/2000/svg">
  <path d="M 485 363.5  L 475 363.5  A 5 5 0 0 0 470.5 368.5 L 470.5 969  A 5 5 0 0 0 475.5 974.5 L 485 974.5  " stroke-width="3" stroke="#d7af1f" fill="none" />
  <path d="M 484 359.5  A 4 4 0 0 0 480 363.5 A 4 4 0 0 0 484 367.5 A 4 4 0 0 0 488 363.5 A 4 4 0 0 0 484 359.5 Z M 484 970.5  A 4 4 0 0 0 480 974.5 A 4 4 0 0 0 484 978.5 A 4 4 0 0 0 488 974.5 A 4 4 0 0 0 484 970.5 Z " fill-rule="nonzero" fill="#d7af1f" stroke="none" />
</svg>