<?xml version="1.0" encoding="utf-8"?>
<svg version="1.1" xmlns:xlink="http://www.w3.org/1999/xlink" width="22px" height="22px" preserveAspectRatio="xMinYMid meet" viewBox="1611 1611  22 20" xmlns="http://www.w3.org/2000/svg">
  <path d="M 1621 1621.5  L 1645 1621.5  A 5 5 0 0 0 1650.5 1616.5 L 1650.5 972  A 5 5 0 0 1 1655.5 967.5 L 1692 967.5  " stroke-width="3" stroke="#d7af1f" fill="none" />
  <path d="M 1622 1617.5  A 4 4 0 0 0 1618 1621.5 A 4 4 0 0 0 1622 1625.5 A 4 4 0 0 0 1626 1621.5 A 4 4 0 0 0 1622 1617.5 Z M 1691 963.5  A 4 4 0 0 0 1687 967.5 A 4 4 0 0 0 1691 971.5 A 4 4 0 0 0 1695 967.5 A 4 4 0 0 0 1691 963.5 Z " fill-rule="nonzero" fill="#d7af1f" stroke="none" />
</svg>