<?xml version="1.0" encoding="utf-8"?>
<svg version="1.1" xmlns:xlink="http://www.w3.org/1999/xlink" width="818px" height="12px" preserveAspectRatio="xMinYMid meet" viewBox="1472 1755  818 10" xmlns="http://www.w3.org/2000/svg">
  <path d="M 1478.5 1716  L 1478.5 1755  A 5 5 0 0 0 1483.5 1760.5 L 2279 1760.5  A 5 5 0 0 0 2284.5 1755.5 L 2284.5 1744  " stroke-width="3" stroke="#d7af1f" fill="none" />
  <path d="M 1478.5 1713  A 4 4 0 0 0 1474.5 1717 A 4 4 0 0 0 1478.5 1721 A 4 4 0 0 0 1482.5 1717 A 4 4 0 0 0 1478.5 1713 Z M 2284.5 1741  A 4 4 0 0 0 2280.5 1745 A 4 4 0 0 0 2284.5 1749 A 4 4 0 0 0 2288.5 1745 A 4 4 0 0 0 2284.5 1741 Z " fill-rule="nonzero" fill="#d7af1f" stroke="none" />
</svg>