<?xml version="1.0" encoding="utf-8"?>
<svg version="1.1" xmlns:xlink="http://www.w3.org/1999/xlink" width="12px" height="168px" preserveAspectRatio="xMidYMin meet" viewBox="2029 86  10 168" xmlns="http://www.w3.org/2000/svg">
  <path d="M 2034.5 251  L 2034.5 97  A 5 5 0 0 1 2039.5 92.5 L 2089 92.5  " stroke-width="3" stroke="#d7af1f" fill="none" />
  <path d="M 2034.5 246  A 4 4 0 0 0 2030.5 250 A 4 4 0 0 0 2034.5 254 A 4 4 0 0 0 2038.5 250 A 4 4 0 0 0 2034.5 246 Z M 2088 88.5  A 4 4 0 0 0 2084 92.5 A 4 4 0 0 0 2088 96.5 A 4 4 0 0 0 2092 92.5 A 4 4 0 0 0 2088 88.5 Z " fill-rule="nonzero" fill="#d7af1f" stroke="none" />
</svg>