<?xml version="1.0" encoding="utf-8"?>
<svg version="1.1" xmlns:xlink="http://www.w3.org/1999/xlink" width="22px" height="22px" preserveAspectRatio="xMinYMid meet" viewBox="2044 331  22 20" xmlns="http://www.w3.org/2000/svg">
  <path d="M 2052 340.5  L 2073.68613138686 340.5  A 5 5 0 0 0 2079.18613138686 335 L 2079.18613138686 95  A 3 3 0 0 0 2082.18613138686 92 A 3 3 0 0 0 2079.18613138686 89 L 2079.18613138686 65  A 5 5 0 0 1 2084.18613138686 60.5 L 2574 60.5  A 5 5 0 0 1 2579.5 65.5 L 2579.5 69  " stroke-width="3" stroke="#d7af1f" fill="none" />
  <path d="M 2054.4292036732 336.5  A 4 4 0 0 0 2050.4292036732 340.5 A 4 4 0 0 0 2054.4292036732 344.5 A 4 4 0 0 0 2058.4292036732 340.5 A 4 4 0 0 0 2054.4292036732 336.5 Z M 2579.5 64  A 4 4 0 0 0 2575.5 68 A 4 4 0 0 0 2579.5 72 A 4 4 0 0 0 2583.5 68 A 4 4 0 0 0 2579.5 64 Z " fill-rule="nonzero" fill="#d7af1f" stroke="none" />
</svg>