<?xml version="1.0" encoding="utf-8"?>
<svg version="1.1" xmlns:xlink="http://www.w3.org/1999/xlink" width="19px" height="19px" xmlns="http://www.w3.org/2000/svg">
  <defs>
    <mask fill="white" id="clip280">
      <path d="M 19 9.5  C 19 4.275  14.725 0  9.5 0  C 4.275 0  0 4.275  0 9.5  C 0 14.725  4.275 19  9.5 19  C 14.725 19  19 14.725  19 9.5  Z " fill-rule="evenodd" />
    </mask>
  </defs>
  <g transform="matrix(1 0 0 1 -3576 -805 )">
    <path d="M 19 9.5  C 19 4.275  14.725 0  9.5 0  C 4.275 0  0 4.275  0 9.5  C 0 14.725  4.275 19  9.5 19  C 14.725 19  19 14.725  19 9.5  Z " fill-rule="nonzero" fill="#ffffff" stroke="none" fill-opacity="0" transform="matrix(1 0 0 1 3576 805 )" />
    <path d="M 19 9.5  C 19 4.275  14.725 0  9.5 0  C 4.275 0  0 4.275  0 9.5  C 0 14.725  4.275 19  9.5 19  C 14.725 19  19 14.725  19 9.5  Z " stroke-width="2" stroke="#e4e4e4" fill="none" transform="matrix(1 0 0 1 3576 805 )" mask="url(#clip280)" />
  </g>
</svg>