<?xml version="1.0" encoding="utf-8"?>
<svg version="1.1" xmlns:xlink="http://www.w3.org/1999/xlink" width="18px" height="18px" xmlns="http://www.w3.org/2000/svg">
  <g transform="matrix(1 0 0 1 -179 -11 )">
    <path d="M 18 2.27668965517241  C 17.9379310344828 1.06510344827586  16.9448275862069 0.0720000000000001  15.7332413793103 0.0720000000000001  L 10.8074482758621 0.0720000000000001  C 10.0626206896552 0.0720000000000001  9.39724137931034 0.449379310344828  9 1.01544827586207  C 8.60275862068965 0.449379310344828  7.93737931034483 0.0720000000000001  7.19255172413793 0.0720000000000001  L 2.26675862068966 0.0720000000000001  C 1.0551724137931 0.0720000000000001  0.0620689655172414 1.06510344827586  0 2.27668965517241  L 0 14.4422068965517  C 0.0620689655172414 15.663724137931  1.0551724137931 16.6468965517241  2.26675862068966 16.6468965517241  L 6.36827586206897 16.6468965517241  C 6.99393103448276 17.4513103448276  7.95724137931034 17.9180689655172  8.99006896551724 17.9180689655172  C 10.0129655172414 17.9180689655172  10.976275862069 17.4413793103448  11.6118620689655 16.6468965517241  L 15.7133793103448 16.6468965517241  C 16.9348965517241 16.6468965517241  17.9180689655172 15.6537931034483  18 14.4422068965517  L 18 2.27668965517241  Z M 17 14.4422068965517  L 17.1434482758621 14.4422068965517  C 17.1434482758621 15.2168275862069  16.5078620689655 15.8524137931034  15.7332413793103 15.8524137931034  L 11.4231724137931 15.8524137931034  C 11.2940689655172 15.8524137931034  11.1649655172414 15.9219310344828  11.0954482758621 16.0212413793103  C 10.6187586206897 16.7064827586207  9.84413793103449 17.1235862068966  9.00993103448276 17.1235862068966  C 8.17572413793104 17.1235862068966  7.39117241379311 16.7164137931034  6.92441379310345 16.0212413793103  C 6.85489655172414 15.912  6.72579310344828 15.8524137931034  6.59668965517242 15.8524137931034  L 2.28662068965517 15.8524137931034  C 1.512 15.8524137931034  0.876413793103448 15.2168275862069  1 14.4422068965517  L 1 2.27668965517241  C 0.876413793103448 1.50206896551724  1.512 0.86648275862069  2.28662068965517 0.86648275862069  L 7.21241379310345 0.86648275862069  C 7.98703448275862 0.86648275862069  8.62262068965517 1.50206896551724  8.62262068965517 2.27668965517241  L 8.62262068965517 11.2841379310345  C 8.62262068965517 11.5026206896552  8.80137931034483 11.6813793103448  9.01986206896552 11.6813793103448  C 9.23834482758621 11.6813793103448  9.41710344827586 11.5026206896552  9.41710344827586 11.2841379310345  L 9.41710344827586 2.27668965517241  C 9.41710344827586 1.50206896551724  10.0526896551724 0.86648275862069  10.8273103448276 0.86648275862069  L 15.7531034482759 0.86648275862069  C 16.527724137931 0.86648275862069  17.1633103448276 1.50206896551724  17 2.27668965517241  L 17 14.4422068965517  Z " fill-rule="nonzero" fill="#d9001b" stroke="none" transform="matrix(1 0 0 1 179 11 )" />
  </g>
</svg>