<?xml version="1.0" encoding="utf-8"?>
<svg version="1.1" xmlns:xlink="http://www.w3.org/1999/xlink" width="27px" height="32px" xmlns="http://www.w3.org/2000/svg">
  <g transform="matrix(1 0 0 1 -696 -275 )">
    <path d="M 3.28909089375 24  L 3.28909089375 26  L 23.7109090725 26  L 23.7109090725 24  L 3.28909089375 24  Z M 26.852727285 7.48774702608696  C 26.852727285 5.25194626086957  25.09488 3.44031620869565  22.92545453625 3.44031620869565  L 15.8563636425 3.44031620869565  L 15.8563636425 2.63083005217391  C 15.8563636425 1.29032097391304  14.80071274875 0.202371547826087  13.5 0.202371547826087  C 12.199287285 0.202371547826087  11.1436363575 1.29032093913043  11.1436363575 2.63083005217391  L 11.1436363575 3.44031620869565  L 4.07454546375 3.44031620869565  C 1.90512 3.44031620869565  0.147272715 5.25194626086957  0.147272715 7.48774702608696  L 0.147272715 27.7249011826087  C 0.147272715 29.9607019826087  1.90512 31.772332  4.07454546375 31.772332  L 22.92545457 31.772332  C 25.09488003375 31.772332  26.852727285 29.9607019478261  26.852727285 27.7249011826087  L 26.852727285 7.48774702608696  Z M 12.71454546375 4.2498024  L 12.71454546375 2.63083005217391  C 12.71454546375 2.18399370434783  13.06642910625 1.82134389565217  13.5 1.82134389565217  C 13.93357089375 1.82134389565217  14.28545453625 2.18399370434783  14.28545453625 2.63083005217391  L 14.28545453625 4.2498024  C 14.28545453625 4.69663874782609  13.93357089375 5.05928855652174  13.5 5.05928855652174  C 13.06642910625 5.05928855652174  12.71454546375 4.69663874782609  12.71454546375 4.2498024  Z M 25 8.2972331826087  L 25 26.915415026087  C 25.28181817875 28.7027604869565  23.87585453625 30.1533596869565  22.14 30  L 4.86 30  C 3.12414546375 30.1533596869565  1.71818182125 28.7043794434783  2 26.915415026087  L 2 8.29723321739131  C 1.71818182125 6.5082688  3.12414546375 5.05928855652174  4.86 5.05928855652174  L 11.1436363575 5.05928855652174  L 11.1436363575 4.24980236521739  C 11.1436363575 5.59031144347826  12.19928725125 6.67826086956522  13.5 6.67826086956522  C 14.800712715 6.67826086956522  15.8563636425 5.59031147826087  15.8563636425 4.24980236521739  L 15.8563636425 5.05928852173913  L 22.14 5.05928852173913  C 23.87585453625 5.05928852173913  25.28181817875 6.50826876521739  25 8.2972331826087  Z M 10.9834036425 16.2382924869565  C 9.2208436425 17.1821533565217  8.00181817875 19.0601612521739  8.00181817875 21.2490118608696  C 8.00181817875 21.6958482086957  8.35370182125 22.0584980173913  8.787272715 22.0584980173913  C 9.22084360875 22.0584980173913  9.57272725125 21.6958482086957  9.57272725125 21.2490118608696  C 9.57272725125 19.0132110608696  11.33057453625 17.2015810434783  13.49999996625 17.2015810434783  C 15.66942543 17.2015810434783  17.42727268125 19.0132110956522  17.42727268125 21.2490118608696  C 17.42727268125 21.6958482086957  17.77915632375 22.0584980173913  18.2127272175 22.0584980173913  C 18.64629811125 22.0584980173913  18.99818175375 21.6958482086957  18.99818175375 21.2490118608696  C 18.99818175375 19.0585422956522  17.77915629 17.1821533565217  16.01659629 16.2382924869565  C 16.87117089375 15.495184173913  17.427272715 14.3975209391304  17.427272715 13.1541501913043  C 17.427272715 10.9183493913043  15.66942546375 9.10671937391304  13.5 9.10671937391304  C 11.33057453625 9.10671937391304  9.572727285 10.9183493913043  9.572727285 13.1541501913043  C 9.572727285 14.3975209391304  10.12882910625 15.495184173913  10.9834036425 16.2382924869565  Z M 11.1436363575 13.1541501913043  C 11.1436363575 11.8136411130435  12.199287285 10.7256916869565  13.5 10.7256916869565  C 14.800712715 10.7256916869565  15.8563636425 11.8136410782609  15.8563636425 13.1541501913043  C 15.8563636425 14.4946592695652  14.80071274875 15.5826086956522  13.5 15.5826086956522  C 12.199287285 15.5826086956522  11.1436363575 14.4946593043478  11.1436363575 13.1541501913043  Z " fill-rule="nonzero" fill="#3587c3" stroke="none" transform="matrix(1 0 0 1 696 275 )" />
  </g>
</svg>