<?xml version="1.0" encoding="utf-8"?>
<svg version="1.1" xmlns:xlink="http://www.w3.org/1999/xlink" width="35px" height="31px" xmlns="http://www.w3.org/2000/svg">
  <g transform="matrix(1 0 0 1 -620 -275 )">
    <path d="M 34.2523268400688 17.3451175159222  L 28.5452485081685 17.3451175159222  C 28.1953326526225 13.7476233132099  25.282652755804 10.699065556169  21.1526599785039 9.52767440768732  C 22.2632884555319 8.50713913432639  22.894846672399 7.07167579654243  22.894846672399 5.56787298341454  C 22.894846672399 2.5903180739069  20.4676786164622 0.176532899481583  17.4736150859845 0.176532899481583  C 14.4795515555068 0.176532899481583  12.0523834995701 2.5903180739069  12.0523834995701 5.56787298341454  C 12.0523834995701 7.07167579654243  12.6839417164372 8.50713913432639  13.7945701934652 9.52767440768732  C 9.68921937231299 10.6941643509979  6.77653947549441 13.7427221080388  6.40198166380052 17.3451175159222  L 0.739258865004301 17.3451175159222  C 0.330977467685206 17.3451175159222  0 17.6742700451891  0 18.0803002668839  C 0 18.4863304885787  0.330977467685204 18.8154830178456  0.739258865004301 18.8154830178456  L 2.56769242046432 18.8154830178456  L 4.27784457437661 30.1961118028088  C 4.33147932780719 30.5558620920445  4.6415483976874 30.8225513248253  5.00724662080825 30.823467740719  L 29.9794106749785 30.823467740719  C 30.3451089095244 30.8225513396075  30.6551779963665 30.5558621032413  30.7088127515047 30.1961118028088  L 32.4238932846088 18.8154830178456  L 34.2523268400688 18.8154830178456  C 34.6606082373879 18.8154830178456  34.9915857050731 18.4863304885787  34.9915857050731 18.0803002668839  C 34.9915857050731 17.6742700451891  34.6606082373879 17.3451175159222  34.2523268400688 17.3451175159222  Z M 17.4957928374893 9.50316832197433  C 15.3182920967816 9.50316830544519  13.5530789810834 7.74768818099541  13.5530789810834 5.58219371003605  C 13.5530789810834 3.41669922738883  15.3182921151235 1.66121909809778  17.4957928675838 1.66121909809778  C 19.6732936200441 1.66121909809778  21.4385067540843 3.41669922738883  21.4385067540843 5.58219371003605  C 21.4385067540843 7.74768819268327  19.6732936200441 9.50316832197433  17.4957928675838 9.50316832197433  Z M 7.93471168529665 17  C 8.33391145313844 14.0269927561811  11.438798650043 11.2872117329954  15.6279321582115 10.635349739301  C 16.8322755187934 11.0842001681878  18.1593101862796 11.0842001681878  19.3636535468616 10.635349739301  C 23.5527870550301 11.2872117629241  26.6576742218401 14.0269927861097  27.0568740197764 17  L 7.93471168529665 17  Z M 30.9305904170249 18.8154830178456  L 29.3436480739467 29  L 5.6479376311264 29  L 4.06099528804815 18.8154830178456  L 30.9305904170249 18.8154830178456  Z M 20.9455183541661 24.4518840038014  C 20.9455183541661 24.0459117089914  20.6146317867017 23.7167831788135  20.2064086457438 23.7167012678041  L 18.2350517024936 23.7167012678041  L 18.2350517024936 21.7562139618349  C 18.2349693373404 21.3502416752883  17.9040160018037 21.0211795450379  17.4957928525365 21.0211795450379  C 17.0875697032694 21.0211795450379  16.7566163677326 21.3502416752883  16.7565340025795 21.7562139618349  L 16.7565340025795 23.7167012678041  L 14.7851770593293 23.7167012678041  C 14.3769539183714 23.7167831788135  14.0460673509069 24.0459117089914  14.0460673509069 24.4518840038014  C 14.0460673509069 24.8578562986114  14.3769539183714 25.1869848287894  14.7851770593293 25.1870667397988  L 16.7565340025795 25.1870667397988  L 16.7565340025795 27.1475540457679  C 16.7566163677362 27.553526332312  17.0875697032719 27.8825884625584  17.4957928525365 27.8825884625584  C 17.9040160018011 27.8825884625584  18.2349693373368 27.553526332312  18.2350517024936 27.1475540457679  L 18.2350517024936 25.1870667397988  L 20.2064086457438 25.1870667397988  C 20.6146317867017 25.1869848287894  20.9455183541661 24.8578562986114  20.9455183541661 24.4518840038014  Z " fill-rule="nonzero" fill="#3587c3" stroke="none" transform="matrix(1 0 0 1 620 275 )" />
  </g>
</svg>