<?xml version="1.0" encoding="utf-8"?>
<svg version="1.1" xmlns:xlink="http://www.w3.org/1999/xlink" width="30px" height="26px" xmlns="http://www.w3.org/2000/svg">
  <g transform="matrix(1 0 0 1 -481 -278 )">
    <path d="M 18.1262019230769 24.6434782608696  C 17.2572115384615 25.4383152173913  16.1322115384615 25.8869565217391  14.9387019230769 25.8869565217391  C 13.7415865384615 25.8869565217391  12.6201923076923 25.4383152173913  11.7764423076923 24.6152173913043  C 11.7007211538462 24.5410326086956  3.91947115384615 16.9741847826087  3.046875 16.1228260869565  C 2.14543269230769 15.2538043478261  1.42067307692308 14.2116847826087  0.948317307692309 13.070652173913  C 0.461538461538462 11.94375  0.209134615384616 10.7709239130435  0.209134615384616 9.55570652173913  C 0.209134615384616 8.32635869565217  0.429086538461539 7.12527173913043  0.905048076923078 5.99483695652174  C 1.39182692307692 4.80788043478261  2.10216346153846 3.75163043478261  3.03245192307692 2.85434782608696  C 4.84975961538462 1.07391304347826  7.27283653846154 0.0918478260869553  9.85456730769231 0.0918478260869553  C 11.6862980769231 0.0918478260869553  13.4423076923077 0.582880434782608  14.9783653846154 1.52608695652174  C 16.5144230769231 0.614673913043476  18.2560096153846 0.137771739130434  20.0733173076923 0.137771739130434  C 22.6442307692308 0.137771739130434  25.0637019230769 1.09157608695652  26.8810096153846 2.84375  C 27.8257211538462 3.75516304347826  28.5504807692308 4.81141304347826  29.0516826923077 5.99836956521739  C 29.5240384615385 7.14293478260869  29.7620192307692 8.35815217391304  29.7620192307692 9.5875  C 29.7475961538462 10.8027173913043  29.4951923076923 11.9896739130435  29.0084134615385 13.1165760869565  C 28.5072115384615 14.2611413043478  27.7680288461539 15.285597826087  26.8377403846154 16.1546195652174  C 26.4735576923077 16.5114130434783  22.1754807692308 20.6763586956522  19.7524038461538 23.0502717391304  L 18.1262019230769 24.6434782608696  Z M 14.4302884615385 3.32771739130435  C 13.0925480769231 2.37391304347826  11.4951923076923 1.88288043478261  9.84014423076923 1.88288043478261  C 7.75600961538461 1.88288043478261  5.79447115384615 2.67771739130435  4.33052884615384 4.12608695652174  C 3.57692307692308 4.86440217391304  3 5.70163043478261  2.61778846153846 6.65896739130435  C 2.23197115384615 7.58451086956522  2.05528846153846 8.55597826086957  2.05528846153846 9.53804347826087  C 2.05528846153846 10.5236413043478  2.24639423076923 11.4633152173913  2.63221153846154 12.360597826087  C 3.01442307692308 13.2861413043478  3.59134615384615 14.1127717391304  4.33052884615384 14.8192934782609  C 5.203125 15.6741847826087  12.9987980769231 23.2551630434783  13.0745192307692 23.3258152173913  C 13.5612980769231 23.8027173913043  14.2247596153846 24.0782608695652  14.9350961538462 24.0782608695652  C 15.6454326923077 24.0782608695652  16.3088942307692 23.816847826087  16.7956730769231 23.3258152173913  L 18.4362980769231 21.7326086956522  C 20.8882211538462 19.3586956521739  25.2295673076923 15.1336956521739  25.5252403846154 14.8298913043478  L 25.5396634615385 14.8157608695652  C 26.2932692307692 14.1057065217391  26.8990384615385 13.2826086956522  27.2956730769231 12.3711956521739  C 27.6959134615385 11.4739130434783  27.9014423076923 10.5201086956522  27.9014423076923 9.54864130434783  C 27.9158653846154 8.54891304347826  27.7247596153846 7.58097826086956  27.3389423076923 6.6554347826087  C 26.9387019230769 5.70163043478261  26.3509615384615 4.84673913043478  25.5829326923077 4.10842391304348  C 24.1045673076923 2.69184782608695  22.1574519230769 1.92527173913043  20.0733173076923 1.92527173913043  C 18.4182692307692 1.92527173913043  16.8389423076923 2.41630434782609  15.4939903846154 3.32771739130435  C 15.1694711538461 3.54320652173913  14.7548076923077 3.54320652173913  14.4302884615385 3.32771739130435  Z " fill-rule="nonzero" fill="#3587c3" stroke="none" transform="matrix(1 0 0 1 481 278 )" />
  </g>
</svg>