<?xml version="1.0" encoding="utf-8"?>
<svg version="1.1" xmlns:xlink="http://www.w3.org/1999/xlink" width="31px" height="25px" xmlns="http://www.w3.org/2000/svg">
  <g transform="matrix(1 0 0 1 -551 -281 )">
    <path d="M 21.2674418604651 19.0476190625  L 25.1124030857558 19.0476190625  L 25.1124030857558 15.2380952232143  L 27.0348837209302 15.2380952232143  L 27.0348837209302 19.0476190625  L 30.8798449462209 19.0476190625  L 30.8798449462209 20.9523809375  L 27.0348837209302 20.9523809375  L 27.0348837209302 24.7619047767857  L 25.1124030857558 24.7619047767857  L 25.1124030857558 20.9523809375  L 21.2674418604651 20.9523809375  L 21.2674418604651 19.0476190625  Z M 0.120155053779069 2  L 0.120155053779069 0  L 30.8798449462209 0  L 30.8798449462209 2  L 0.120155053779069 2  Z M 0.120155053779069 21  L 0.120155053779069 19  L 19.3449612252907 19  L 19.3449612252907 21  L 0.120155053779069 21  Z M 0.120155053779069 11.4285714285714  L 0.120155053779069 10  L 30.8798449462209 10  L 30.8798449462209 11.4285714285714  L 0.120155053779069 11.4285714285714  Z " fill-rule="nonzero" fill="#3587c3" stroke="none" transform="matrix(1 0 0 1 551 281 )" />
  </g>
</svg>