<?xml version="1.0" encoding="utf-8"?>
<svg version="1.1" xmlns:xlink="http://www.w3.org/1999/xlink" width="30px" height="30px" xmlns="http://www.w3.org/2000/svg">
  <g transform="matrix(1 0 0 1 -773 -277 )">
    <path d="M 9.19215144230769 13.5810216346154  C 8.31731971153846 13.5810216346154  7.60817307692308 12.871875  7.60817307692308 11.9970793269231  C 7.60817307692308 11.1222836538462  8.31731971153846 10.4131009615385  9.19215144230769 10.4131009615385  C 10.0669110576923 10.4131009615385  10.77609375 11.1222836538462  10.77609375 11.9970793269231  C 10.77609375 12.8718389423077  10.0669471153846 13.5810216346154  9.19215144230769 13.5810216346154  Z M 20.8078485576923 13.5810216346154  C 19.9330889423077 13.5810216346154  19.22390625 12.871875  19.22390625 11.9970793269231  C 19.22390625 11.1222836538462  19.9330528846154 10.4131009615385  20.8078485576923 10.4131009615385  C 21.6826802884615 10.4131009615385  22.3918269230769 11.1222836538462  22.3918269230769 11.9970793269231  C 22.3918269230769 12.8718389423077  21.6826802884615 13.5810216346154  20.8078485576923 13.5810216346154  Z M 0.216346153846154 15  C 0.216346153846154 6.83599759615385  6.83599759615385 0.216346153846154  15 0.216346153846154  C 23.1640024038462 0.216346153846154  29.7836538461538 6.83599759615385  29.7836538461538 15  C 29.7836538461538 23.1640024038462  23.1640024038462 29.7836538461538  15 29.7836538461538  C 6.83599759615385 29.7836538461538  0.216346153846154 23.1640024038462  0.216346153846154 15  Z M 19.7749759615385 26.3121274038462  C 21.2368629807692 25.6917548076923  22.5502283653846 24.8073677884615  23.6787980769231 23.6787980769231  C 24.8074038461538 22.5535096153846  25.6950360576923 21.2401442307692  26.3121274038462 19.7782932692308  C 26.9523317307692 18.2669350961538  27.2756971153846 16.65984375  27.2756971153846 15  C 27.2756971153846 13.34015625  26.9523317307692 11.7330649038462  26.3154447115385 10.2250240384615  C 25.6950360576923 8.76313701923077  24.8106850961538 7.44977163461539  23.6820793269231 6.32120192307692  C 22.5535096153846 5.19259615384615  21.2401442307692 4.30496394230769  19.7782932692308 3.68787259615385  C 18.2669350961538 3.04766826923077  16.65984375 2.72430288461538  15 2.72430288461538  C 13.34015625 2.72430288461538  11.7330649038461 3.04766826923077  10.2250240384615 3.68455528846154  C 8.76313701923076 4.30496394230769  7.44977163461538 5.18931490384615  6.32120192307692 6.31792067307692  C 5.19259615384615 7.44649038461538  4.30496394230769 8.75985576923077  3.68787259615384 10.2217067307692  C 3.04766826923077 11.7330649038462  2.72430288461538 13.34015625  2.72430288461538 15  C 2.72430288461538 16.65984375  3.04766826923076 18.2669350961538  3.68455528846153 19.7749759615385  C 4.30496394230769 21.2368629807692  5.18931490384615 22.5502283653846  6.31792067307692 23.6787980769231  C 7.44649038461538 24.8074038461538  8.75985576923076 25.6950360576923  10.2217067307692 26.3121274038462  C 11.7330649038461 26.9523317307692  13.34015625 27.2756971153846  15 27.2756971153846  C 16.65984375 27.2756971153846  18.2669350961538 26.9523317307692  19.7749759615385 26.3121274038462  Z M 9.72010817307692 20.6956730769231  C 9.8653125 17.9138221153846  12.1785576923077 15.6929927884615  15 15.6929927884615  C 17.8214423076923 15.6929927884615  20.1346875 17.9138221153846  20.2798918269231 20.6956370192308  C 20.2864903846154 20.8474399038462  20.1676802884615 20.9728485576923  20.0158774038462 20.9728485576923  L 18.4286177884615 20.9728485576923  C 18.2900120192308 20.9728485576923  18.1712379807692 20.8672716346154  18.1613221153846 20.7286658653846  C 18.0392307692308 19.0952163461538  16.6664783653846 17.8049278846154  15 17.8049278846154  C 13.3335216346154 17.8049278846154  11.9640865384615 19.0952163461538  11.8386778846154 20.7286658653846  C 11.8287620192308 20.8672716346154  11.7099519230769 20.9728485576923  11.5713822115385 20.9728485576923  L 9.98412259615385 20.9728485576923  C 9.83231971153846 20.9728485576923  9.71350961538462 20.8474759615385  9.72010817307692 20.6956730769231  Z " fill-rule="nonzero" fill="#3587c3" stroke="none" transform="matrix(1 0 0 1 773 277 )" />
  </g>
</svg>