<?xml version="1.0" encoding="utf-8"?>
<svg version="1.1" xmlns:xlink="http://www.w3.org/1999/xlink" width="14px" height="15px" xmlns="http://www.w3.org/2000/svg">
  <g transform="matrix(1 0 0 1 -30 -1474 )">
    <path d="M 3.75758426966292 8.6439393939394  L 8.87191011235955 3.69507575757576  C 9.11179775280899 3.5094696969697  9.44803370786517 3.5094696969697  9.71151685393259 3.71780303030303  C 9.95140449438203 3.94886363636364  9.95140449438203 4.27272727272727  9.71151685393259 4.50378787878788  L 4.57359550561798 9.42992424242424  C 4.2373595505618 9.73106060606061  4.2373595505618 10.2632575757576  4.57359550561798 10.6098484848485  C 4.88623595505618 10.9337121212121  5.43876404494382 10.9337121212121  5.79859550561798 10.6098484848485  L 11.8252808988764 4.78219696969697  C 12.6648876404494 3.97348484848485  12.6648876404494 2.63257575757576  11.8252808988764 1.8219696969697  C 10.9856741573034 1.01325757575757  9.5935393258427 1.01325757575757  8.75196629213483 1.8219696969697  L 8.03230337078652 2.51515151515151  L 7.83960674157304 2.70075757575757  L 2.29466292134832 8.04166666666666  C 0.926123595505621 9.35984848484848  0.926123595505621 11.4640151515152  2.29466292134832 12.782196969697  C 3.66320224719102 14.1003787878788  5.84775280898877 14.1003787878788  7.21629213483146 12.782196969697  L 12.786797752809 7.46401515151515  C 12.8831460674157 7.4185606060606  12.9303370786517 7.34848484848485  12.9794943820225 7.27840909090909  C 13.2193820224719 7.04734848484848  13.5556179775281 7.04734848484848  13.7955056179775 7.27840909090909  C 14.035393258427 7.5094696969697  14.035393258427 7.83333333333333  13.7955056179775 8.06439393939394  L 13.7483146067416 8.10984848484848  C 13.7011235955056 8.13257575757576  13.6519662921348 8.20265151515151  13.6047752808989 8.24810606060606  L 8.03230337078652 13.5681818181818  C 6.2311797752809 15.3030303030303  3.27780898876404 15.3030303030303  1.47865168539326 13.5681818181818  C -0.32247191011236 11.8333333333333  -0.32247191011236 8.98863636363636  1.47865168539326 7.25568181818182  L 7.93595505617977 1.01136363636364  C 9.23174157303371 -0.236742424242425  11.3455056179775 -0.236742424242425  12.6648876404494 1.01136363636364  C 13.9606741573034 2.2594696969697  13.9606741573034 4.29545454545454  12.6648876404494 5.56628787878788  L 6.61460674157303 11.3958333333333  C 5.82219101123595 12.1590909090909  4.52640449438202 12.1590909090909  3.75758426966292 11.3958333333333  C 2.96516853932584 10.6325757575758  2.96516853932584 9.3844696969697  3.75758426966292 8.6439393939394  Z " fill-rule="nonzero" fill="#b0b0b0" stroke="none" transform="matrix(1 0 0 1 30 1474 )" />
  </g>
</svg>