<?xml version="1.0" encoding="utf-8"?>
<svg version="1.1" xmlns:xlink="http://www.w3.org/1999/xlink" width="22px" height="22px" xmlns="http://www.w3.org/2000/svg">
  <g transform="matrix(1 0 0 1 -1478 -280 )">
    <path d="M 5.228125 0.39375  C 3.63125 0.678125  2.340625 1.028125  1.4 1.4875  C 0.459375 1.946875  0 2.45  0 2.996875  L 0 4.50625  C 0 5.053125  0.459375 5.55625  1.4 6.015625  C 2.340625 6.475  3.609375 6.846875  5.228125 7.109375  C 6.846875 7.371875  8.596875 7.503125  10.5 7.503125  C 12.403125 7.503125  14.153125 7.371875  15.771875 7.109375  C 17.390625 6.846875  18.659375 6.475  19.6 6.015625  C 20.540625 5.55625  21 5.053125  21 4.50625  L 21 2.996875  C 21 2.45  20.540625 1.946875  19.6 1.4875  C 18.659375 1.028125  17.390625 0.656250000000001  15.771875 0.393750000000001  C 14.153125 0.13125  12.403125 0  10.5 0  C 8.596875 0  6.846875 0.13125  5.228125 0.39375  Z M 0 11.50625  L 0 11.59375  L 0 13.496875  C 0 14.04375  0.459375000000001 14.546875  1.4 15.00625  C 2.340625 15.465625  3.609375 15.8375  5.228125 16.1  C 6.846875 16.3625  8.596875 16.49375  10.5 16.49375  C 12.403125 16.49375  14.153125 16.3625  15.771875 16.1  C 17.390625 15.8375  18.659375 15.465625  19.6 15.00625  C 20.540625 14.546875  21 14.04375  21 13.496875  L 21 11.50625  C 19.90625 12.1625  18.440625 12.665625  16.559375 12.99375  C 14.678125 13.34375  12.665625 13.496875  10.5 13.496875  C 8.334375 13.496875  6.321875 13.34375  4.440625 12.99375  C 2.559375 12.665625  1.09375 12.1625  0 11.50625  Z M 0 16.0125  L 0 15.96875  L 0 18.003125  C 0 18.55  0.459375000000001 19.053125  1.4 19.5125  C 2.340625 19.971875  3.609375 20.34375  5.228125 20.60625  C 6.846875 20.86875  8.596875 21  10.5 21  C 12.403125 21  14.153125 20.86875  15.771875 20.60625  C 17.390625 20.34375  18.659375 19.971875  19.6 19.5125  C 20.540625 19.053125  21 18.55  21 18.003125  L 21 16.0125  C 19.90625 16.66875  18.440625 17.171875  16.559375 17.5  C 14.678125 17.828125  12.665625 18.003125  10.5 18.003125  C 8.334375 18.003125  6.321875 17.828125  4.440625 17.5  C 2.559375 17.171875  1.09375 16.66875  0 16.0125  Z M 4.440625 8.4875  C 2.559375 8.159375  1.09375 7.65625  0 7  L 0 8.990625  C 0 9.5375  0.459375000000001 10.040625  1.4 10.5  C 2.340625 10.959375  3.609375 11.33125  5.228125 11.59375  C 6.846875 11.85625  8.596875 11.9875  10.5 11.9875  C 12.403125 11.9875  14.153125 11.85625  15.771875 11.59375  C 17.390625 11.33125  18.659375 10.959375  19.6 10.5  C 20.540625 10.040625  21 9.5375  21 8.990625  L 21 7  C 19.90625 7.65625  18.440625 8.159375  16.559375 8.4875  C 14.678125 8.815625  12.665625 8.990625  10.5 8.990625  C 8.334375 8.990625  6.321875 8.815625  4.440625 8.4875  Z " fill-rule="nonzero" fill="#ffffff" stroke="none" transform="matrix(1 0 0 1 1478 280 )" />
  </g>
</svg>