<?xml version="1.0" encoding="utf-8"?>
<svg version="1.1" xmlns:xlink="http://www.w3.org/1999/xlink" width="13px" height="13px" xmlns="http://www.w3.org/2000/svg">
  <g transform="matrix(1 0 0 1 -3602 -397 )">
    <path d="M 12.9786885245902 11.0146229508197  C 12.9786885245902 12.0648524590164  12.1262295081967 12.924131147541  11.0691803278689 12.924131147541  L 1.99901639344262 12.924131147541  C 0.948786885245902 12.924131147541  0.0895081967213115 12.0648524590164  0.0895081967213115 11.0146229508197  L 0.0895081967213115 1.94445901639344  C 0.0895081967213115 0.89422950819672  0.948786885245902 0.0349508196721299  1.99901639344262 0.0349508196721299  L 9.70524590163934 0.0349508196721299  C 10.0053114754098 0.0349508196721299  10.2508196721311 0.280459016393441  10.2508196721311 0.580524590163933  C 10.2508196721311 0.880590163934425  10.0053114754098 1.12609836065574  9.70524590163934 1.12609836065574  L 1.99901639344262 1.12609836065574  C 1.54891803278689 1.12609836065574  1.18065573770492 1.4943606557377  1.18065573770492 1.94445901639344  L 1.18065573770492 11.0146229508197  C 1.18065573770492 11.4647213114754  1.54891803278689 11.8329836065574  1.99901639344262 11.8329836065574  L 11.0691803278689 11.8329836065574  C 11.5192786885246 11.8329836065574  11.8875409836066 11.4647213114754  11.8875409836066 11.0146229508197  L 11.8875409836066 5.01331147540983  C 11.8875409836066 4.71324590163934  12.1330491803279 4.46773770491803  12.4331147540984 4.46773770491803  C 12.7331803278689 4.46773770491803  12.9786885245902 4.71324590163934  12.9786885245902 5.01331147540983  L 12.9786885245902 11.0146229508197  Z " fill-rule="nonzero" fill="#579afb" stroke="none" transform="matrix(1 0 0 1 3602 397 )" />
  </g>
</svg>