<?xml version="1.0" encoding="utf-8"?>
<svg version="1.1" xmlns:xlink="http://www.w3.org/1999/xlink" width="21px" height="15px" xmlns="http://www.w3.org/2000/svg">
  <g transform="matrix(1 0 0 1 -3861 -1072 )">
    <path d="M 20.73841875 7.11309027777778  C 21.036421875 6.87640625  21.036421875 6.49324652777778  20.73841875 6.25673611111111  C 20.440415625 6.02022569444444  19.95765625 6.02022569444444  19.659653125 6.25673611111111  L 10.4890625 13.5351736111111  L 1.318471875 6.25673611111111  C 1.02046875 6.02022569444444  0.537709375 6.02022569444444  0.23970625 6.25673611111111  C -0.058296875 6.49324652777778  -0.058296875 6.87638888888889  0.23970625 7.11289930555555  L 9.94966875 14.81921875  C 10.247671875 15.0557291666667  10.73043125 15.0557291666667  11.028434375 14.81921875  L 20.73841875 7.11309027777778  Z M 20.73841875 1.05840277777778  C 21.036421875 0.82171875  21.036421875 0.438559027777778  20.73841875 0.202048611111111  C 20.440415625 -0.0344618055555554  19.95765625 -0.0344618055555554  19.659653125 0.202048611111111  L 10.4890625 7.48048611111111  L 1.318471875 0.202048611111111  C 1.02046875 -0.0344618055555554  0.537709375 -0.0344618055555554  0.23970625 0.202048611111111  C -0.058296875 0.438559027777778  -0.058296875 0.821701388888889  0.23970625 1.05821180555556  L 9.94966875 8.76453125  C 10.247671875 9.00104166666667  10.73043125 9.00104166666667  11.028434375 8.76453125  L 20.73841875 1.05840277777778  Z " fill-rule="nonzero" fill="#7d7d7d" stroke="none" transform="matrix(1 0 0 1 3861 1072 )" />
  </g>
</svg>