<?xml version="1.0" encoding="utf-8"?>
<svg version="1.1" xmlns:xlink="http://www.w3.org/1999/xlink" width="1024px" height="10px" preserveAspectRatio="xMinYMid meet" viewBox="1245 58  1024 8" xmlns="http://www.w3.org/2000/svg">
  <path d="M 1277 334  L 1255 334  A 5 5 0 0 1 1250 329 L 1250 67  A 5 5 0 0 1 1255 62 L 1846 62  A 3 3 0 0 1 1849 59 A 3 3 0 0 1 1852 62 L 2259 62  A 5 5 0 0 1 2264 67 L 2264 93  " stroke-width="2" stroke="#ecbe20" fill="none" />
  <path d="M 1274.2 338.4  L 1279 334  L 1274.2 329.6  L 1269.6 334  L 1274.2 338.4  Z M 2259.6 90.2  L 2264 95  L 2268.4 90.2  L 2264 85.6  L 2259.6 90.2  Z " fill-rule="nonzero" fill="#ecbe20" stroke="none" />
</svg>