<?xml version="1.0" encoding="utf-8"?>
<svg version="1.1" xmlns:xlink="http://www.w3.org/1999/xlink" width="154px" height="154px" xmlns="http://www.w3.org/2000/svg">
  <g transform="matrix(1 0 0 1 -160 -355 )">
    <path d="M 145.6805199375 4  L 133.9972501875 4  C 132.892749723432 3.99974999999995  131.9973751875 3.10437546406774  131.9973751875 1.99987499999997  C 131.9973751875 0.895374535932206  132.892749723432 0  133.9972501875 0  L 145.6805199375 0  C 150.27623275 0  153.99600025 3.71976749999999  154 8.31548031249986  L 154 19.9987500625  C 153.99600025 19.9987501419678  153.99600025 19.998750102234  153.99600025 19.9987501817018  C 153.99600025 21.1032506457695  153.100625714068 21.9986251817018  151.99612525 21.9986251817018  C 150.891624785932 21.9986251817018  149.99625025 21.1032506457695  149.99625025 19.9987501817018  C 149.99625025 19.998750102234  149.99625025 19.9987501419678  150 19.9987500625  L 150 8.31548031249986  C 149.99625025 5.93162925000001  148.064371 3.99974999999995  145.6805199375 4  Z M 150 145.6805199375  L 150 133.0493094375  C 149.99625025 133.0493094375  149.99625025 133.049309318298  149.99625025 133.049309318298  C 149.99625025 131.94480885423  150.891624785932 131.049434318298  151.99612525 131.049434318298  C 153.100625714068 131.049434318298  153.99600025 131.94480885423  153.99600025 133.049309318298  C 153.99600025 133.049309318298  153.99600025 133.0493094375  154 133.0493094375  L 154 145.6805199375  C 153.99600025 150.27623275  150.27623275 153.99600025  145.6805199375 153.99600025  L 137.7850134375 153.99600025  C 136.68051285423 153.99600025  135.785138318298 153.100625714068  135.785138318298 151.99612525  C 135.785138318298 150.891624785932  136.68051285423 149.99625025  137.785013318298 149.99625025  L 145.6805199375 149.99625025  C 148.0643709375 149.99625025  149.9962501875 148.064371  150 145.6805199375  Z M 8.31548031249986 150  L 20.9466908125 150  C 20.9466908125 149.99625025  20.9466909317018 149.99625025  20.9466909317018 149.99625025  C 22.0511913957698 149.99625025  22.9465659317018 150.891624785932  22.9465659317018 151.99612525  C 22.9465659317018 153.100625714068  22.0511913957698 153.99600025  20.9466909317018 153.99600025  C 20.9466909317018 153.99600025  20.9466908125 153.99600025  20.9466908125 154  L 8.31548031249986 154  C 3.72296734838801 153.99600025  0 150.273032901612  0 145.6805199375  L 0 133.9972501875  C 0 132.892749723432  0.895374535932206 131.9973751875  1.99987499999997 131.9973751875  C 3.10437546406774 131.9973751875  3.99974999999995 132.892749723432  3.99974999999995 133.9972501875  L 4 145.6805199375  C 3.99974999999995 148.064371  5.93162925000001 149.99625025  8.31548031249986 150  Z M 4 8.31548031249986  L 4 19.9987500625  C 3.99974999999995 21.103250526568  3.10437546406774 21.9986250625  1.99987499999997 21.9986250625  C 0.895374535932206 21.9986250625  0 21.103250526568  0 19.9987500625  L 0 8.31548031249986  C 0 3.71976749999999  3.71976749999999 0  8.31548031249986 0  L 19.9987500625 0  C 21.103250526568 0  21.9986250625 0.895374535932206  21.9986250625 1.99987499999997  C 21.9986250625 3.10437546406774  21.103250526568 3.99974999999995  19.9987500625 3.99974999999995  L 8.31548031249986 4  C 5.93162925000001 3.99974999999995  3.99974999999995 5.93162925000001  4 8.31548031249986  Z " fill-rule="nonzero" fill="#ffffff" stroke="none" transform="matrix(1 0 0 1 160 355 )" />
  </g>
</svg>