<?xml version="1.0" encoding="utf-8"?>
<svg version="1.1" xmlns:xlink="http://www.w3.org/1999/xlink" width="12px" height="12px" xmlns="http://www.w3.org/2000/svg">
  <g transform="matrix(1 0 0 1 -228 -780 )">
    <path d="M 4.87394958403361 11.1525423686441  C 4.33613445378151 11.6949152542373  3.58319328151261 11.966101690678  2.88403361344538 11.966101690678  C 2.18487394537815 11.966101690678  1.43193277310924 11.6949152542373  0.894117642857143 11.1525423686441  C 0.356302512605042 10.6101694830508  0.0873949537815127 9.90508474576271  0.0873949537815127 9.14576271610169  C 0.0873949537815127 8.38644068644068  0.356302512605042 7.68135593644068  0.894117642857143 7.13898305084746  L 3.0453781512605 4.96949152118644  C 4.12100839915966 3.88474576271186  5.89579831512605 3.88474576271186  7.02521007983193 4.96949152118644  C 7.24033613445378 5.1864406779661  7.24033613445378 5.51186440677966  7.02521007983193 5.72881356355932  C 6.81008402521008 5.94576272033898  6.48739494957983 5.94576272033898  6.27226890756303 5.72881356355932  C 5.62689075630252 5.0779661059322  4.49747899159664 5.0779661059322  3.85210084033613 5.72881356355932  L 1.70084033193277 7.89830508050848  C 1.37815125630252 8.22372880932203  1.2168067184874 8.65762711016949  1.2168067184874 9.14576271610169  C 1.2168067184874 9.6338983220339  1.37815125630252 10.0677966101695  1.70084033193277 10.3932203389831  C 2.34621848319328 11.0440677966102  3.47563024789916 11.0440677966102  4.12100839915967 10.3932203389831  L 6.27226890756303 8.22372880932203  C 6.48739496218487 8.00677965254237  6.81008403781513 8.00677965254237  7.02521007983193 8.22372880932203  C 7.24033612184874 8.4406779661017  7.24033613445378 8.76610169491526  7.02521007983193 8.98305085169492  L 4.87394958403361 11.1525423686441  Z M 8.96134453361345 7.08474575847458  C 8.42352940336135 7.57288135169492  7.67058823109244 7.84406778813559  6.97142857563025 7.84406780084746  C 6.27226890756303 7.84406780084746  5.51932773529412 7.57288136440678  4.98151260504202 7.03050847881356  C 4.76638655042017 6.8135593220339  4.76638655042017 6.48813559322034  4.98151260504202 6.27118643644068  C 5.19663865966387 6.05423727966102  5.51932773529412 6.05423727966102  5.73445377731093 6.27118643644068  C 6.37983192857143 6.9220338940678  7.50924369327731 6.9220338940678  8.15462184453782 6.27118643644068  L 10.3058823529412 4.10169491949153  C 10.9512605042017 3.45084746186441  10.9512605042017 2.31186441101695  10.3058823529412 1.66101695338983  C 9.66050420168067 1.01016949576271  8.53109243697479 1.01016949576271  7.88571428571429 1.66101695338983  L 5.73445377731093 3.83050847033898  C 5.51932772268908 4.04745762711864  5.19663864705882 4.04745762711864  4.98151260504202 3.83050847033898  C 4.76638656302521 3.61355931355932  4.76638655042017 3.28813558474576  4.98151260504202 3.07118644067797  L 7.13277311344538 0.90169491101695  C 8.20840336134454 -0.183050847457627  9.98319327731092 -0.183050847457627  11.1126050420168 0.90169491101695  C 12.188235289916 1.98644066949153  12.188235289916 3.7762711779661  11.1126050420168 4.91525424152542  L 8.96134453361345 7.08474575847458  Z " fill-rule="nonzero" fill="#ffffff" stroke="none" transform="matrix(1 0 0 1 228 780 )" />
  </g>
</svg>