<?xml version="1.0" encoding="utf-8"?>
<svg version="1.1" xmlns:xlink="http://www.w3.org/1999/xlink" width="12px" height="12px" viewBox="244 666  12 12" xmlns="http://www.w3.org/2000/svg">
  <path d="M 244.5 668  A 1.5 1.5 0 0 1 246 666.5 L 254 666.5  A 1.5 1.5 0 0 1 255.5 668 L 255.5 676  A 1.5 1.5 0 0 1 254 677.5 L 246 677.5  A 1.5 1.5 0 0 1 244.5 676 L 244.5 668  Z " fill-rule="nonzero" fill="#f0f0f0" stroke="none" />
  <path d="M 244.5 668  A 1.5 1.5 0 0 1 246 666.5 L 254 666.5  A 1.5 1.5 0 0 1 255.5 668 L 255.5 676  A 1.5 1.5 0 0 1 254 677.5 L 246 677.5  A 1.5 1.5 0 0 1 244.5 676 L 244.5 668  Z " stroke-width="1" stroke="#d9d9d9" fill="none" />
</svg>