<?xml version="1.0" encoding="utf-8"?>
<svg version="1.1" xmlns:xlink="http://www.w3.org/1999/xlink" width="14px" height="16px" xmlns="http://www.w3.org/2000/svg">
  <g transform="matrix(1 0 0 1 -1759 -168 )">
    <path d="M 14 2.15424837254902  C 13.9481481416667 1.04658823529412  13.0554666666667 0.146405235294118  11.9570370305556 0.146405235294118  L 2.99703703055556 0.146405235294118  C 1.71608888888889 0.146405235294118  0.674074061111111 1.19717647058824  0.674074080555555 2.48888888235294  L 0.674074080555555 4.83137254901961  L 2.001481475 4.83137254901961  L 2.001481475 2.48888888235294  C 2.001481475 1.93673201960784  2.449481475 1.48496731372549  2.99703703055556 1.48496731372549  L 11.9570370305556 1.48496731372549  C 12.3220740611111 1.48496731372549  12.6207407277778 1.78614378431372  12.6207407472222 2.15424837254902  L 12.6207407472222 13.8666666666667  C 12.6207407472222 14.2347712352941  12.3220740805556 14.5359477058824  11.9570370305556 14.5359477058824  L 2.99703703055556 14.5359477058824  C 2.449481475 14.5359477058824  2.001481475 14.084183  2.001481475 13.5320261372549  L 2.001481475 10.5202614313725  L 0.674074080555556 10.5202614313725  L 0.674074080555556 13.5320261372549  C 0.674074080555556 14.8237385490196  1.71608888888889 15.8745098039216  2.99703703055556 15.8745098039216  L 11.9570370305556 15.8745098039216  C 13.0554666666667 15.8745098039216  13.9481481416667 14.9743268039216  14 13.8666666666667  L 14 2.15424837254902  Z M 6.90625185833333 8.51241829411765  L 5.05783703055556 10.3763660196078  L 5.99697777777778 11.3200522941176  L 9.61084444444445 7.675817  L 5.99697777777778 4.03158170588235  L 5.05783703055556 4.97526798039216  L 7.23810369722222 7.17385621568627  L 0.0103703638888889 7.17385621568627  L 0.0103703638888889 8.51241829411765  L 6.90625185833333 8.51241829411765  Z " fill-rule="nonzero" fill="#2998ff" stroke="none" transform="matrix(1 0 0 1 1759 168 )" />
  </g>
</svg>