<?xml version="1.0" encoding="utf-8"?>
<svg version="1.1" xmlns:xlink="http://www.w3.org/1999/xlink" width="16px" height="15px" xmlns="http://www.w3.org/2000/svg">
  <g transform="matrix(1 0 0 1 -40 -650 )">
    <path d="M 15.0022119140625 7.5153955078125  C 15.0022119140625 3.3817236328125  11.6512939453125 0.0307763671875  7.517607421875 0.0307763671875  C 3.383935546875 0.0307763671875  0.0330029296875 3.381708984375  0.0330029296875 7.5153955078125  C 0.0330029296875 11.64908203125  3.383935546875 15  7.517607421875 15  C 11.651279296875 15  15.0022119140625 11.6490673828125  15.0022119140625 7.5153955078125  Z M 1.0536474609375 7.5153955078125  C 1.0536328125 3.9451904296875  3.9480615234375 1.05140625  7.517607421875 1.05140625  C 11.0878125 1.05140625  13.98158203125 3.94517578125  13.98158203125 7.515380859375  C 13.98158203125 8.7838623046875  13.61080078125 9.963955078125  12.97921875 10.962333984375  C 11.9137646484375 9.823095703125  10.5017578125 9.0111181640625  8.90501953125 8.71177734375  C 9.8984033203125 8.2057763671875  10.5794970703125 7.1758447265625  10.5794970703125 5.9847802734375  C 10.5794970703125 4.2937060546875  9.2086962890625 2.9229052734375  7.5176220703125 2.9229052734375  C 5.8265478515625 2.9229052734375  4.455732421875 4.2937060546875  4.455732421875 5.9847802734375  C 4.455732421875 7.175859375  5.1374853515625 8.2057763671875  6.1301953125 8.71177734375  C 4.534130859375 9.0111328125  3.122138671875 9.823095703125  2.0563330078125 10.9623486328125  C 1.4247509765625 9.963984375  1.0536474609375 8.783876953125  1.0536474609375 7.5153955078125  Z M 9.72896484375 5.984765625  C 9.72896484375 7.2060791015625  8.73890625 8.1961376953125  7.517607421875 8.1961376953125  C 6.29630859375 8.1961376953125  5.3062353515625 7.206064453125  5.3062353515625 5.984765625  C 5.3062353515625 4.763466796875  6.29630859375 3.773408203125  7.517607421875 3.773408203125  C 8.73890625 3.773408203125  9.72896484375 4.763466796875  9.72896484375 5.984765625  Z M 12.35595703125 11.79158203125  C 11.17154296875 13.1305078125  9.4459130859375 13.9793701171875  7.517607421875 13.9793701171875  C 5.5899755859375 13.9793701171875  3.8640087890625 13.1305078125  2.6795947265625 11.79193359375  C 3.86302734375 10.4510302734375  5.58931640625 9.6018310546875  7.517607421875 9.6018310546875  C 9.446572265625 9.6018310546875  11.172861328125 10.4510302734375  12.35595703125 11.79158203125  Z " fill-rule="nonzero" fill="#f2f2f2" stroke="none" transform="matrix(1 0 0 1 40 650 )" />
  </g>
</svg>