<?xml version="1.0" encoding="utf-8"?>
<svg version="1.1" xmlns:xlink="http://www.w3.org/1999/xlink" width="12px" height="12px" xmlns="http://www.w3.org/2000/svg">
  <g transform="matrix(1 0 0 1 -650 713 )">
    <path d="M 11.9752577319588 1.87113402061856  C 11.9752577319588 0.896907216494845  11.1912371134021 0.111340206185567  10.2154639175258 0.111340206185567  L 3.62474226804124 0.111340206185567  C 2.65051546391753 0.111340206185567  1.86494845360825 0.895360824742268  1.86494845360825 1.87113402061856  L 1.86494845360825 8.46185567010309  C 1.86494845360825 9.4360824742268  2.64896907216495 10.2216494845361  3.62474226804124 10.2216494845361  L 10.2154639175258 10.2216494845361  C 11.1896907216495 10.2216494845361  11.9752577319588 9.43762886597938  11.9752577319588 8.46185567010309  L 11.9752577319588 1.87113402061856  Z M 11.0257731958763 1.91752577319588  L 11.0257731958763 8.41546391752577  C 11.0257731958763 8.87474226804124  10.65 9.27216494845361  10.1690721649485 9.27216494845361  L 3.67113402061856 9.27216494845361  C 3.21185567010309 9.27216494845361  2.81443298969072 8.89639175257732  2.81443298969072 8.41546391752577  L 2.81443298969072 1.91752577319588  C 2.81443298969072 1.45824742268041  3.19020618556701 1.06082474226804  3.67113402061856 1.06082474226804  L 10.1690721649485 1.06082474226804  C 10.6283505154639 1.06082474226804  11.0257731958763 1.43659793814433  11.0257731958763 1.91752577319588  Z M 0.995876288659794 2.90876288659794  C 0.995876288659794 2.65515463917526  0.784020618556702 2.46340206185567  0.550515463917526 2.46340206185567  C 0.315463917525773 2.46340206185567  0.132989690721649 2.64587628865979  0.108247422680412 2.85773195876289  L 0.108247422680412 10.1798969072165  C 0.163917525773196 11.1881443298969  0.989690721649485 11.9783505154639  2.01185567010309 11.9783505154639  L 9.19639175257732 11.9783505154639  C 9.4298969072165 11.9783505154639  9.62010309278351 11.7881443298969  9.64175257731959 11.5546391752577  C 9.64175257731959 11.3010309278351  9.4298969072165 11.1092783505155  9.19639175257732 11.1092783505155  L 2.03505154639175 11.110824742268  C 1.46288659793814 11.110824742268  0.995876288659794 10.6438144329897  0.995876288659794 10.0716494845361  L 0.995876288659794 2.90876288659794  Z " fill-rule="nonzero" fill="#82b9e1" stroke="none" transform="matrix(1 0 0 1 650 -713 )" />
  </g>
</svg>