<?xml version="1.0" encoding="utf-8"?>
<svg version="1.1" xmlns:xlink="http://www.w3.org/1999/xlink" width="19px" height="19px" xmlns="http://www.w3.org/2000/svg">
  <g transform="matrix(1 0 0 1 -65 -377 )">
    <path d="M 1.99833984375 13.2910319010417  L 4.99940592447917 13.2910319010417  C 5.29890950520833 13.2910319010417  5.52403971354167 13.3654052734375  5.749169921875 13.516162109375  C 5.749169921875 13.516162109375  10.24775390625 16.9594482421875  10 16.8830647786458  L 10 2.13904622395833  L 5.749169921875 5.58233235677083  C 5.52403971354167 5.7310791015625  5.29890950520833 5.80746256510417  4.99940592447917 5.80746256510417  L 1.99833984375 5.80746256510417  L 1.99833984375 13.2910319010417  Z M 11.7472819010417 6.62958984375  L 11.7472819010417 12.46689453125  C 13.0216796875 12.1673909505208  13.9965738932292 10.9693766276042  13.9965738932292 9.5482421875  C 13.9965738932292 8.12710774739583  13.0216796875 7.003466796875  11.7472819010417 6.62958984375  Z M 11.7452718098958 5.13207194010417  L 11.7472819010417 5.13207194010417  C 13.8478271484375 5.50594889322917  15.4961018880208 7.30297037760417  15.4961018880208 9.5482421875  C 15.4961018880208 11.7935139973958  13.8458170572917 13.5905354817708  11.7472819010417 13.9644124348958  L 11.7472819010417 16.8830647786458  C 11.7472819010417 17.8559488932292  11.0718912760417 18.5293294270833  10.24775390625 18.5293294270833  C 10.0226236979167 18.5293294270833  9.87186686197916 18.4549560546875  9.64874674479167 18.3805826822917  L 4.99940592447917 14.7865397135417  L 1.99833984375 14.7865397135417  C 1.17420247395833 14.7865397135417  0.498811848958334 14.1875325520833  0.498811848958334 13.2890218098958  L 0.498811848958334 5.80545247395833  C 0.498811848958334 4.90694173177083  1.17420247395833 4.3079345703125  1.99833984375 4.3079345703125  L 4.99739583333333 4.3079345703125  L 9.64673665364583 0.717911783854167  C 9.87186686197917 0.643538411458333  10.0226236979167 0.5691650390625  10.2457438151042 0.5691650390625  C 11.0698811848958 0.5691650390625  11.7452718098958 1.24254557291667  11.7452718098958 2.2154296875  L 11.7452718098958 5.13207194010417  Z M 13.6970703125 4.15918782552084  C 13.3211832682292 4.01044108072917  13.1724365234375 3.5601806640625  13.3211832682292 3.1863037109375  C 13.5463134765625 2.8124267578125  13.9201904296875 2.661669921875  14.2960774739583 2.8124267578125  C 16.844873046875 4.084814453125  18.4951578776042 6.62958984375  18.4951578776042 9.5482421875  C 18.4951578776042 12.46689453125  16.9212565104167 15.011669921875  14.2960774739583 16.2840576171875  C 14.2217041015625 16.3584309895833  14.070947265625 16.3584309895833  13.9965738932292 16.3584309895833  C 13.6970703125 16.3584309895833  13.4719401041667 16.2096842447917  13.3211832682292 15.9101806640625  C 13.1704264322917 15.5363037109375  13.3211832682292 15.0860432942708  13.6970703125 14.9372965494792  C 15.7212320963542 13.8900390625  16.9956298828125 11.8698974609375  16.9956298828125 9.5482421875  C 16.9956298828125 7.22859700520834  15.7212320963542 5.20845540364584  13.6970703125 4.15918782552084  Z " fill-rule="nonzero" fill="#a48b4a" stroke="none" transform="matrix(1 0 0 1 65 377 )" />
  </g>
</svg>