<?xml version="1.0" encoding="utf-8"?>
<svg version="1.1" xmlns:xlink="http://www.w3.org/1999/xlink" width="21px" height="22px" xmlns="http://www.w3.org/2000/svg">
  <g transform="matrix(1 0 0 1 -1717 848 )">
    <path d="M 21 10.335424  C 21 15.951936  16.3112727272727 20.523712  10.5 20.523712  C 4.68872727272727 20.523712  0 15.951936  0 10.335424  C 0 4.718912  4.68872727272727 0.147136  10.5 0.147136  C 16.3112727272727 0.147136  21 4.718912  21 10.335424  Z M 1.90909090909091 10.335424  C 1.90909090909091 15.000128  5.76698181818182 18.763712  10.5 18.763712  C 15.2330181818182 18.763712  19.0909090909091 15.000128  19.0909090909091 10.335424  C 19.0909090909091 5.669312  15.2330181818182 1.907136  10.5 1.907136  C 5.76698181818182 1.907136  1.90909090909091 5.669312  1.90909090909091 10.335424  Z M 16.6243636363636 18.917184  L 16.6243636363636 18.918592  C 16.4606828609055 18.7558699828908  16.3697336692081 18.5421434678487  16.3697336692081 18.3202230151876  C 16.3697336692081 17.8342124353365  16.7970982261878 17.4402230151876  17.3242791237536 17.4402230151876  C 17.5833211795201 17.4402230151876  17.8312393393871 17.5372815073275  18.0111272727273 17.70912  L 20.7388363636364 20.368832  C 20.9025171390945 20.5315540171092  20.9934663307919 20.7452805321513  20.9934663307919 20.9672009848124  C 20.9934663307919 21.4532115646635  20.5661017738122 21.8472009848124  20.0389208762464 21.8472009848124  C 19.7798788204799 21.8472009848124  19.5319606606129 21.7501424926725  19.3520727272727 21.578304  L 16.6243636363636 18.917184  Z " fill-rule="nonzero" fill="#d9d9d9" stroke="none" transform="matrix(1 0 0 1 1717 -848 )" />
  </g>
</svg>