<?xml version="1.0" encoding="utf-8"?>
<svg version="1.1" xmlns:xlink="http://www.w3.org/1999/xlink" width="11px" height="11px" xmlns="http://www.w3.org/2000/svg">
  <g transform="matrix(1 0 0 1 -554 -1600 )">
    <path d="M 0 5.5  C 0 2.462625  2.462625 0  5.5 0  C 8.537375 0  11 2.462625  11 5.5  C 11 8.537375  8.537375 11  5.5 11  C 2.462625 11  0 8.537375  0 5.5  Z M 10.5416666630859 5.5  C 10.5416666630859 2.715625  8.284375 0.458333336914062  5.5 0.458333336914062  C 2.715625 0.458333336914062  0.458333336914062 2.715625  0.458333336914062 5.5  C 0.458333336914062 8.284375  2.715625 10.5416666630859  5.5 10.5416666630859  C 8.284375 10.5416666630859  10.5416666630859 8.284375  10.5416666630859 5.5  Z M 4.93441666308594 8.53370833691406  C 5.06229166308594 8.40491667382812  5.21170832617188 8.35129167382812  5.39275 8.35129166308594  C 5.57379166308594 8.35129166308594  5.73375 8.40491666308594  5.86208333691406 8.53325  C 5.97895833691406 8.65104166308594  6.043125 8.80091666308594  6.043125 8.98241666308594  C 6.043125 9.175375  5.97895833691406 9.32525  5.85108333691406 9.44304166308594  C 5.72320833691406 9.56083332617187  5.57379167382812 9.625  5.39275 9.625  C 5.21170832617188 9.625  5.06229166308594 9.56083333691406  4.93441666308594 9.44304166308594  C 4.80608332617188 9.31470832617187  4.75291666308594 9.16483332617188  4.75291666308594 8.982875  C 4.75291666308594 8.80091667382812  4.80654166308594 8.65104166308594  4.93441666308594 8.53370833691406  Z M 3.76154166308594 2.539625  C 4.18779166308594 2.06891666308594  4.785 1.83333333691406  5.55270833691406 1.83333333691406  C 6.23516667382812 1.83333333691406  6.77875 2.01529167382812  7.19445833691406 2.40075  C 7.58908333691406 2.76466666308594  7.79166666308594 3.26745833691406  7.79166666308594 3.90958333691406  C 7.79166666308594 4.39129167382812  7.65325 4.80883333691406  7.3865 5.16175  C 7.30125 5.264875  7.10004166308594 5.46333333691406  6.78241666308594 5.75254166308594  L 6.43866666308594 6.06191666308594  C 6.249375 6.23745832617187  6.11508332617188 6.406125  6.02158333691406 6.57479166308594  C 5.95604167382813 6.686625  5.902875 6.89195832617188  5.86208333691406 7.19170833691406  C 5.82783467734147 7.44243502833568  5.60264531356347 7.62202152654636  5.35058333691406 7.599625  C 5.13593182483286 7.57633121528446  4.98080164938713 7.38344448759803  5.00408333691406 7.16879166308594  C 5.04395833691406 6.80441666308594  5.09529167382813 6.55645832617188  5.15808333691406 6.42491666308594  C 5.3075 6.10408332617187  5.6595 5.69708332617187  6.23516666308594 5.18329166308594  C 6.40566666308594 5.011875  6.53354166308594 4.88354166308594  6.59725 4.79829166308594  C 6.81083333691406 4.530625  6.917625 4.25195832617188  6.917625 3.95266666308594  C 6.917625 3.52458332617187  6.78929166308594 3.19275  6.55508333691406 2.95716666308594  C 6.309875 2.7005  5.957875 2.58270832617187  5.51008333691406 2.58270833691406  C 4.97704167382813 2.58270833691406  4.58241667382813 2.75366667382812  4.32666666308594 3.10704166308594  C 4.2075 3.25920832617187  4.11125 3.53375  4.037 3.931125  C 3.99955035383249 4.13155103500422  3.82459946955943 4.27684013948348  3.62070471360532 4.27684013948348  C 3.58960488454507 4.27684013948348  3.55859967772197 4.27341443515688  3.52825 4.266625  C 3.30743245916064 4.21652411640926  3.16883246449672 3.99714247218786  3.21841666308594 3.77620833691406  C 3.3495 3.19504167382812  3.53054166308594 2.783  3.76154166308594 2.539625  Z " fill-rule="nonzero" fill="#bbbbbb" stroke="none" transform="matrix(1 0 0 1 554 1600 )" />
  </g>
</svg>