<?xml version="1.0" encoding="utf-8"?>
<svg version="1.1" xmlns:xlink="http://www.w3.org/1999/xlink" width="89px" height="91px" xmlns="http://www.w3.org/2000/svg">
  <g transform="matrix(1 0 0 1 -349 -362 )">
    <path d="M 35.5529167021484 74.0216667021484  L 25.7429167021484 90.9166667021484  C 25.7429167021484 90.9166667021484  20.65625 85.1941667021484  15.8420832978516 80.4708332978516  C 10.71 79.0629165957031  5.5325 77.7458332978516  0.309583297851567 76.5195832978516  L 10.8916667021484 58.2166667021484  C 16.4779167021484 65.4833334042969  26.2879167021484 71.7508334042969  35.5529167021484 74.0216667021484  Z M 88.6904167021484 76.5195832978516  C 88.645 76.565  80.87875 77.655  74.0208332978516 79.5625  C 69.2066665957031 84.2858332978516  63.2116665957031 90.9166667021484  63.2116667021485 90.9166667021484  L 53.4925 74.0216667021484  C 62.7575 71.7508334042969  71.6591667021484 65.52875  77.2454167021484 58.2166667021484  L 88.6904167021484 76.5195832978516  Z M 78.7441667021484 34.4183332978516  C 78.7441668085937 15.93375  62.89375 0.0833332978515617  44.4545832978516 0.0833332978515617  C 26.0154165957031 0.0833332978515617  10.165 16.8420832978516  10.165 35.3266667021484  C 10.165 53.8112501064453  26.0154167021484 68.7533334042969  44.4545832978516 68.7533332978516  C 62.8937498935547 68.7533331914062  78.7441665957031 52.9029165957031  78.7441667021484 34.4183332978516  Z M 64.2108332978516 27.515  C 65.6641665957031 29.01375  65.7095832978516 31.46625  64.25625 32.9195832978516  L 58.26125 39.1416667021484  C 57.44375 39.9591667021484  57.035 41.14  57.3075 42.3208332978516  L 57.3075 42.4570832978516  L 58.67 50.9045832978516  C 58.80625 51.7220832978515  58.67 52.585  58.26125 53.26625  C 57.2166667021484 55.1283332978516  54.9004167021484 55.855  53.0383332978515 54.8104167021484  L 46.135 51.1316667021484  C 45.045 50.54125  43.6825 50.54125  42.5925 51.2679167021484  L 35.8708332978515 54.8558332978516  C 35.09875 55.2645832978516  34.28125 55.3554165957031  33.4183332978515 55.2645832978516  C 31.3745832978515 54.9466665957031  29.92125 52.9483332978516  30.2391667021484 50.9045832978516  L 31.6470832978515 42.1391667021484  C 31.7833332978515 41.0945834042969  31.4654165957031 40.0954167021484  30.73875 39.3233332978516  L 24.6983332978516 32.9195832978516  C 24.19875 32.3291665957031  23.79 31.5570832978516  23.65375 30.785  C 23.3358332978516 28.74125  24.8345832978516 26.7883332978516  26.8783332978516 26.4704167021484  L 34.5991667021484 25.2441667021484  C 35.8254167021484 25.19875  36.9154167021484 24.4266667021484  37.415 23.29125  L 40.9575 15.7520832978516  C 41.5933332978516 14.4804165957031  42.9558332978516 13.5720832978516  44.4545832978516 13.5720832978516  C 45.9533332978516 13.5720832978516  47.2704165957031 14.3895832978516  47.9516667021484 15.7520832978516  L 51.44875 23.2458332978516  C 51.9483332978516 24.4266665957031  53.0383332978516 25.19875  54.3554167021484 25.2895832978516  L 62.07625 26.4704167021484  C 62.8483332978516 26.6066667021484  63.6204167021484 26.97  64.2108332978516 27.515  Z " fill-rule="nonzero" fill="#9cc0f0" stroke="none" transform="matrix(1 0 0 1 349 362 )" />
  </g>
</svg>