<?xml version="1.0" encoding="utf-8"?>
<svg version="1.1" xmlns:xlink="http://www.w3.org/1999/xlink" width="39px" height="30px" xmlns="http://www.w3.org/2000/svg">
  <defs>
    <mask fill="white" id="clip3">
      <path d="M 25.2 29.5  C 15.7 29.5  10 20.8  0.5 15  C 10 9.19999999999999  15.7 0.5  25.2 0.5  C 30.1400000000001 0.5  38.5 3.40000000000001  38.5 15  C 38.5 26.6  30.1400000000001 29.5  25.2 29.5  Z " fill-rule="evenodd" />
    </mask>
  </defs>
  <g transform="matrix(1 0 0 1 -1890 -118 )">
    <path d="M 25.2 29.5  C 15.7 29.5  10 20.8  0.5 15  C 10 9.19999999999999  15.7 0.5  25.2 0.5  C 30.1400000000001 0.5  38.5 3.40000000000001  38.5 15  C 38.5 26.6  30.1400000000001 29.5  25.2 29.5  Z " fill-rule="nonzero" fill="#ffbf60" stroke="none" transform="matrix(1 0 0 1 1890 118 )" />
    <path d="M 25.2 29.5  C 15.7 29.5  10 20.8  0.5 15  C 10 9.19999999999999  15.7 0.5  25.2 0.5  C 30.1400000000001 0.5  38.5 3.40000000000001  38.5 15  C 38.5 26.6  30.1400000000001 29.5  25.2 29.5  Z " stroke-width="2" stroke="#ffffff" fill="none" transform="matrix(1 0 0 1 1890 118 )" mask="url(#clip3)" />
  </g>
</svg>