<?xml version="1.0" encoding="utf-8"?>
<svg version="1.1" xmlns:xlink="http://www.w3.org/1999/xlink" width="13px" height="17px" xmlns="http://www.w3.org/2000/svg">
  <g transform="matrix(1 0 0 1 -306 -11 )">
    <path d="M 2.5 4.25  C 2.5 6.59721018678087  4.29086100067683 8.5  6.5 8.5  C 8.70913899932317 8.5  10.5 6.59721018678087  10.5 4.25  C 10.5 1.90278981321913  8.70913899932317 0  6.5 0  C 4.29086100067683 0  2.5 1.90278981321913  2.5 4.25  Z M 12.9 14.45  C 12.9 11.633347775863  10.7509667991878 9.35  8.1 9.35  L 4.9 9.35  C 2.24903320081219 9.35  0.100000000000001 11.633347775863  0.100000000000001 14.45  L 0.100000000000001 17  L 12.9 17  L 12.9 14.45  Z " fill-rule="nonzero" fill="#606060" stroke="none" transform="matrix(1 0 0 1 306 11 )" />
  </g>
</svg>