<?xml version="1.0" encoding="utf-8"?>
<svg version="1.1" xmlns:xlink="http://www.w3.org/1999/xlink" width="23px" height="23px" xmlns="http://www.w3.org/2000/svg">
  <g transform="matrix(1 0 0 1 -116 -451 )">
    <path d="M 22.8831076924159 11.5  C 22.8831076924159 17.776646153738  17.7766461540144 22.8830769230048  11.4998461540505 22.8830769230048  C 5.22335384626202 22.8830769230048  0.116892307860578 17.776646153738  0.116892307584135 11.5  C 0.116892307584135 5.22350769221154  5.22335384598558 0.117046153810095  11.4998461540505 0.117046153810095  C 17.7766461540144 0.117046153810095  22.8831076924159 5.22350769221154  22.8831076924159 11.5  Z M 21.2796615385457 11.5  C 21.2796615385457 6.10744615365385  16.8923692309856 1.72030769231971  11.4998461540505 1.72030769231971  C 6.10729230770433 1.72030769231971  1.72015384637019 6.10744615393029  1.72015384609375 11.5  C 1.72015384609375 16.8925538463462  6.10729230770433 21.2796923076803  11.4998461540505 21.2796923076803  C 16.8922153850361 21.2796923076803  21.2796615385457 16.8925538460697  21.2796615385457 11.5  Z " fill-rule="nonzero" fill="#757575" stroke="none" transform="matrix(1 0 0 1 116 451 )" />
  </g>
</svg>