<?xml version="1.0" encoding="utf-8"?>
<svg version="1.1" xmlns:xlink="http://www.w3.org/1999/xlink" width="9px" height="15px" xmlns="http://www.w3.org/2000/svg">
  <g transform="matrix(1 0 0 1 -123 -455 )">
    <path d="M 5.74744695665625 13.7415652172575  C 5.7474469569375 14.4260558079291  5.18806956515625 14.9826502270522  4.500313043625 14.9826502270522  C 3.81240000028125 14.9826502270522  3.252553043625 14.4260246594216  3.25255304334375 13.7415652172575  C 3.2525530430625 13.0571057750933  3.8122747824375 12.5001687215485  4.50034434759375 12.5001687215485  C 5.18810086940625 12.5001687215485  5.747446956375 13.0570746265858  5.74744695665625 13.7415652172575  Z M 4.5 10.8823724854478  C 4.04829254638811 10.8823724854478  3.68211130440533 10.5180130408141  3.68211130425 10.0685528879664  C 3.68211130425 8.41122907248134  5.01977739121875 7.3521142119403  5.90500173909375 6.65120830634328  C 6.10278260878125 6.49443737854478  6.28966956515625 6.34641920848881  6.396104347875 6.2405451005597  C 6.90066938142711 5.74123061401305  7.18347507495803 5.06179318348631  7.1814678260625 4.35371836455224  C 7.1814678260625 2.88235171958955  5.9784104345625 1.68543543134328  4.49984347846875 1.68543543162313  C 3.021276522375 1.68543543190298  1.81821913059375 2.88235171958955  1.8182191303125 4.35371836455224  C 1.8182191303125 4.803187118932  1.45203088058916 5.16755353656716  1.0003147824375 5.16755353656716  C 0.548598684285834 5.16755353656716  0.182410434562496 4.803187118932  0.182410434562496 4.35371836455224  C 0.182410434562496 1.98496041520522  2.11905391275 0.0579519791977597  4.49984347846875 0.0579519791977597  C 6.8804452175625 0.0579519791977597  8.8172452175625 1.98496041520522  8.81724521728125 4.35371836455224  C 8.81724521728125 5.50117066847015  8.36815304334375 6.57990914972015  7.55283130424999 7.39117456175373  C 7.38084521728125 7.56230499654851  7.16878956515625 7.73007138190298  6.92339478243749 7.9245009733209  C 6.20793391274999 8.49096950037313  5.31757565212499 9.19601817005597  5.31757565212499 10.0683971445896  C 5.31757589190659 10.5182222412792  4.95160488148563 10.8823725004046  4.50015676159409 10.8823725004046  Z " fill-rule="nonzero" fill="#757575" stroke="none" transform="matrix(1 0 0 1 123 455 )" />
  </g>
</svg>