<?xml version="1.0" encoding="utf-8"?>
<svg version="1.1" xmlns:xlink="http://www.w3.org/1999/xlink" width="23px" height="25px" xmlns="http://www.w3.org/2000/svg">
  <g transform="matrix(1 0 0 1 -117 -493 )">
    <path d="M 19.0633684210526 20.4348214285714  C 22.0430789473684 20.4348214285714  23.8821710526316 17.0502976190476  22.0509473684211 14.5901785714286  C 21.0891842105263 13.2982142857143  21.0891842105263 11.5425595238095  22.0509473684211 10.2505952380952  C 23.8824736842105 7.79017857142857  22.0433815789474 4.40595238095238  19.0633684210526 4.40595238095238  C 18.9226447368421 4.40595238095238  18.7788947368421 4.41339285714286  18.6333289473684 4.42916666666667  C 18.497447368421 4.44375  18.3621710526316 4.45089285714286  18.2278026315789 4.45089285714286  C 16.7615526315789 4.45089285714286  15.4133289473684 3.6014880952381  14.8116973684211 2.25952380952381  C 14.1568026315789 0.798809523809524  12.7752894736842 0.0681547619047625  11.3940789473684 0.0681547619047625  C 10.0128684210526 0.0681547619047625  8.63135526315789 0.798511904761905  7.97646052631579 2.25952380952381  C 7.37482894736842 3.60178571428571  6.02690789473684 4.45089285714286  4.56035526315789 4.45089285714286  C 4.42598684210526 4.45089285714286  4.29071052631579 4.44375  4.15482894736842 4.42916666666667  C 4.00896052631579 4.41369047619048  3.86581578947368 4.40595238095238  3.72478947368421 4.40595238095238  C 0.745078947368423 4.40595238095238  -1.09401315789474 7.79047619047619  0.737210526315791 10.2505952380952  C 1.69897368421053 11.5425595238095  1.69897368421053 13.2982142857143  0.737210526315791 14.5901785714286  C -1.09431578947368 17.0505952380952  0.744776315789475 20.4348214285714  3.72478947368421 20.4348214285714  C 3.86551315789474 20.4348214285714  4.00926315789474 20.427380952381  4.15482894736842 20.4116071428571  C 4.29071052631579 20.3970238095238  4.42598684210526 20.389880952381  4.56035526315789 20.389880952381  C 6.02660526315789 20.389880952381  7.37482894736842 21.2392857142857  7.97646052631579 22.58125  C 8.63135526315789 24.0419642857143  10.0128684210526 24.772619047619  11.3940789473684 24.772619047619  C 12.7752894736842 24.772619047619  14.1568026315789 24.0422619047619  14.8116973684211 22.58125  C 15.4133289473684 21.2389880952381  16.76125 20.389880952381  18.2278026315789 20.389880952381  C 18.3621710526316 20.389880952381  18.4974473684211 20.3970238095238  18.6333289473684 20.4116071428571  C 18.7791973684211 20.4270833333333  18.9223421052632 20.4348214285714  19.0633684210526 20.4348214285714  Z M 19.5136842105263 12.4205357142857  C 19.5136842105263 12.9907738095238  19.6038684210526 13.5547619047619  19.7818157894737 14.0970238095238  C 19.9638289013543 14.6519566740259  20.2352083517923 15.1745720951988  20.5856052631579 15.6449404761905  C 21.2138684210526 16.4889880952381  20.9109342105263 17.2991071428571  20.7514473684211 17.6083333333333  C 20.5913552631579 17.91875  20.354697368421 18.1794642857143  20.0675 18.3625  C 19.7685 18.5526785714286  19.4304605263158 18.6491071428571  19.0630657894737 18.6491071428571  C 18.9865 18.6491071428571  18.9081184210526 18.6449404761905  18.8294342105263 18.6363095238095  C 18.629629577231 18.6148961778354  18.4287901889174 18.6041661031632  18.2278026315789 18.6041666666667  C 16.0303947368421 18.6041666666667  14.0372631578947 19.8824404761905  13.15025 21.8607142857143  C 12.9862236842105 22.2264880952381  12.7404868421053 22.5110119047619  12.4193947368421 22.70625  C 12.1179736842105 22.8895833333333  11.7635921052632 22.9866071428571  11.3940789473684 22.9866071428571  C 11.0245657894737 22.9866071428571  10.6698815789474 22.8895833333333  10.3687631578947 22.70625  C 10.0479736842105 22.5107142857143  9.80193421052631 22.2264880952381  9.63790789473684 21.8607142857143  C 8.7508947368421 19.8824404761905  6.75776315789473 18.6041666666667  4.56035526315789 18.6041666666667  C 4.36031578947368 18.6041666666667  4.15785526315789 18.614880952381  3.95872368421052 18.6363095238095  C 3.88003947368421 18.6446428571429  3.80135526315789 18.6491071428571  3.72509210526316 18.6491071428571  C 3.35769736842105 18.6491071428571  3.01965789473684 18.5526785714286  2.72035526315789 18.3625  C 2.43315789473684 18.1797619047619  2.1965 17.9190476190476  2.03640789473684 17.608630952381  C 1.87692105263158 17.2994047619048  1.57398684210526 16.4895833333333  2.20255263157894 15.6452380952381  C 2.55294686343091 15.1748680906112  2.82432608491424 14.6522531103532  3.00634210526316 14.0973214285714  C 3.18428947368421 13.5550595238095  3.27447368421052 12.9910714285714  3.27447368421052 12.4208333333333  C 3.27447368421052 11.8505952380952  3.18428947368421 11.2863095238095  3.00634210526316 10.7443452380952  C 2.82432899338251 10.1894123735931  2.55294954294454 9.66679695242028  2.20255263157895 9.19642857142857  C 1.57428947368421 8.35238095238095  1.87722368421053 7.54226190476191  2.03671052631579 7.23303571428571  C 2.19680263157895 6.92261904761905  2.43346052631579 6.66190476190476  2.72065789473684 6.47886904761905  C 3.01965789473684 6.28869047619048  3.35769736842105 6.1922619047619  3.72509210526316 6.1922619047619  C 3.80165789473684 6.1922619047619  3.88003947368421 6.19642857142857  3.95872368421053 6.20505952380952  C 4.15852831750584 6.22647286978369  4.35936770581939 6.23720294445583  4.5603552631579 6.23720238095238  C 6.75776315789474 6.23720238095238  8.75089473684211 4.95892857142857  9.63790789473684 2.98065476190476  C 9.80193421052632 2.61488095238095  10.0476710526316 2.33035714285714  10.3687631578947 2.13511904761905  C 10.6701842105263 1.95178571428571  11.0245657894737 1.8547619047619  11.3940789473684 1.8547619047619  C 11.7635921052632 1.8547619047619  12.1182763157895 1.95178571428571  12.4193947368421 2.13511904761905  C 12.7404868421053 2.33065476190476  12.9862236842105 2.61488095238095  13.15025 2.98065476190476  C 14.0372631578947 4.95892857142857  16.0303947368421 6.23720238095238  18.2278026315789 6.23720238095238  C 18.4278421052632 6.23720238095238  18.6303026315789 6.22648809523809  18.8294342105263 6.20505952380952  C 18.9081184210526 6.19672619047619  18.9868026315789 6.1922619047619  19.0630657894737 6.1922619047619  C 19.4304605263158 6.1922619047619  19.7685 6.28869047619048  20.0678026315789 6.47886904761905  C 20.355 6.66160714285714  20.5916578947368 6.92232142857143  20.75175 7.2327380952381  C 20.9112368421053 7.54196428571429  21.2141710526316 8.35178571428571  20.5856052631579 9.19613095238095  C 20.2352110313059 9.66650095700785  19.9638318098226 10.1891159372658  19.7818157894737 10.7440476190476  C 19.6039778876108 11.2856810369241  19.5135042200856 11.8513660902623  19.5136842105263 12.4205357142857  Z " fill-rule="nonzero" fill="#757575" stroke="none" transform="matrix(1 0 0 1 117 493 )" />
  </g>
</svg>