<?xml version="1.0" encoding="utf-8"?>
<svg version="1.1" xmlns:xlink="http://www.w3.org/1999/xlink" width="9px" height="9px" xmlns="http://www.w3.org/2000/svg">
  <g transform="matrix(1 0 0 1 -124 -501 )">
    <path d="M 8.86559210526316 4.51480263157895  C 8.86559210526316 2.11203947368421  6.91756578947369 0.164013157894736  4.51480263157895 0.164013157894737  C 2.11203947368421 0.164013157894737  0.164013157894736 2.11203947368421  0.164013157894736 4.51480263157895  C 0.164013157894736 6.91756578947368  2.11203947368421 8.86559210526316  4.51480263157895 8.86559210526316  C 6.91756578947369 8.86559210526316  8.86559210526316 6.91756578947369  8.86559210526316 4.51480263157895  Z M 7.08927631578947 4.51480263157895  C 7.08927631578947 5.934375  5.934375 7.08927631578947  4.51480263157895 7.08927631578947  C 3.0952302631579 7.08927631578947  1.94032894736842 5.934375  1.94032894736842 4.51480263157895  C 1.94032894736842 3.09523026315789  3.0952302631579 1.94032894736842  4.51480263157895 1.94032894736842  C 5.934375 1.94032894736842  7.08927631578947 3.0952302631579  7.08927631578947 4.51480263157895  Z " fill-rule="nonzero" fill="#757575" stroke="none" transform="matrix(1 0 0 1 124 501 )" />
  </g>
</svg>