<?xml version="1.0" encoding="utf-8"?>
<svg version="1.1" xmlns:xlink="http://www.w3.org/1999/xlink" width="20px" height="22px" xmlns="http://www.w3.org/2000/svg">
  <g transform="matrix(1 0 0 1 -119 -539 )">
    <path d="M 20 2.32571428571429  C 19.9918367346939 1.144  18.9861224489796 0.188571428571428  17.7714285714286 0.188571428571429  L 2.22857142857143 0.188571428571429  C 1.00081632653061 0.188571428571429  0.00816326530612264 1.144  0 2.32571428571429  L 0 19.6868571428571  C 0.00816326530612264 20.8685714285714  1.00081632653061 21.824  2.22857142857143 21.824  L 17.7714285714286 21.824  C 18.9991836734694 21.824  19.9918367346939 20.8685714285714  20 19.6868571428571  L 20 2.32571428571429  Z M 18 2.32571428571429  L 18 19.6868571428571  C 18.2938775510204 19.9634285714286  18.0587755102041 20.1897142857143  17.7714285714286 20  L 2.22857142857143 20  C 1.94122448979592 20.1897142857143  1.70612244897959 19.9634285714286  2 19.6868571428571  L 2 2.32571428571429  C 1.70612244897959 2.04914285714286  1.94122448979592 1.82285714285714  2.22857142857143 2  L 17.7714285714286 2  C 18.0587755102041 1.82285714285714  18.2938775510204 2.04914285714286  18 2.32571428571429  Z " fill-rule="nonzero" fill="#757575" stroke="none" transform="matrix(1 0 0 1 119 539 )" />
  </g>
</svg>