<?xml version="1.0" encoding="utf-8"?>
<svg version="1.1" xmlns:xlink="http://www.w3.org/1999/xlink" width="70px" height="69px" xmlns="http://www.w3.org/2000/svg">
  <g transform="matrix(1 0 0 1 -129 -265 )">
    <path d="M 164 266  C 183.04 266  198 280.74  198 299.5  C 198 318.26  183.04 333  164 333  C 144.96 333  130 318.26  130 299.5  C 130 280.74  144.96 266  164 266  Z " fill-rule="nonzero" fill="#d6d6d7" stroke="none" />
    <path d="M 164 266  C 183.04 266  198 280.74  198 299.5  C 198 318.26  183.04 333  164 333  C 144.96 333  130 318.26  130 299.5  C 130 280.74  144.96 266  164 266  Z " stroke-width="2" stroke="#b7b3b3" fill="none" />
  </g>
</svg>