<?xml version="1.0" encoding="utf-8"?>
<svg version="1.1" xmlns:xlink="http://www.w3.org/1999/xlink" width="24px" height="20px" xmlns="http://www.w3.org/2000/svg">
  <g transform="matrix(1 0 0 1 -115 -409 )">
    <path d="M 23.98125 3.6304347826087  C 23.98125 1.65760869565217  22.4089285714286 0.0543478260869573  20.4776785714286 0  L 3.51160714285714 0  C 1.57767857142857 0.0543478260869565  0.00535714285714255 1.65760869565217  0.00535714285714255 3.6304347826087  L 0.00535714285714255 12.9076086956522  C 0.00535714285714255 14.8804347826087  1.57767857142857 16.4836956521739  3.51160714285714 16.4836956521739  L 7.74375 16.4836956521739  C 8.20446428571429 16.9375  8.05714285714286 16.7934782608696  8.19107142857143 16.9239130434783  L 10.7303571428571 19.4130434782609  C 11.0705357142857 19.7445652173913  11.5151785714286 19.929347826087  11.98125 19.929347826087  C 12.4473214285714 19.929347826087  12.8919642857143 19.7472826086957  13.2321428571429 19.4130434782609  L 15.7714285714286 16.9239130434783  L 16.2080357142857 16.4809782608696  L 20.475 16.4809782608696  C 22.4089285714286 16.4809782608696  23.98125 14.8777173913044  23.98125 12.9048913043478  L 23.98125 3.6304347826087  Z M 22.3901785714286 12.9076086956522  L 22.3875 12.9076086956522  C 22.3875 13.9836956521739  21.5303571428571 14.8586956521739  20.475 14.8586956521739  L 15.4607142857143 14.8586956521739  L 13.8133928571429 16.4836956521739  L 13.3660714285714 16.9266304347826  L 12.0642857142857 18.2038043478261  C 12.0160714285714 18.25  11.94375 18.25  11.8982142857143 18.2038043478261  L 10.5589285714286 16.8913043478261  L 8.48035714285714 14.8586956521739  L 3.51160714285714 14.8586956521739  C 2.45625 14.8586956521739  1.59910714285714 13.9836956521739  1.59910714285714 12.9076086956522  L 1.59910714285714 3.6304347826087  C 1.59910714285714 2.55434782608696  2.45625 1.67934782608696  3.51160714285714 2  L 20.4776785714286 2  C 21.5303571428571 1.67934782608696  22.3901785714286 2.55434782608696  22.3901785714286 3.6304347826087  L 22.3901785714286 12.9076086956522  Z " fill-rule="nonzero" fill="#757575" stroke="none" transform="matrix(1 0 0 1 115 409 )" />
  </g>
</svg>