<?xml version="1.0" encoding="utf-8"?>
<svg version="1.1" xmlns:xlink="http://www.w3.org/1999/xlink" width="15px" height="3px" xmlns="http://www.w3.org/2000/svg">
  <g transform="matrix(1 0 0 1 -120 -416 )">
    <path d="M 14.8483455882353 1.56  C 14.8511029411765 0.805000000000001  14.1755514705882 0.190000000000001  13.3455882352941 0.190000000000001  C 12.515625 0.190000000000001  11.8428308823529 0.805000000000001  11.8428308823529 1.56  C 11.8428308823529 2.315  12.5183823529412 2.93  13.3455882352941 2.93  C 14.1755514705882 2.93  14.8483455882353 2.315  14.8483455882353 1.56  Z M 8.99724264705882 1.56  C 8.99724264705882 0.805000000000001  8.32169117647059 0.190000000000001  7.49448529411765 0.190000000000001  C 6.66452205882353 0.190000000000001  5.99172794117647 0.805000000000001  5.99172794117647 1.56  C 5.99172794117647 2.315  6.66727941176471 2.93  7.49448529411765 2.93  C 8.32444852941176 2.93  8.99724264705882 2.315  8.99724264705882 1.56  Z M 3.14338235294118 1.56  C 3.14338235294118 0.805000000000001  2.47058823529412 0.190000000000001  1.640625 0.190000000000001  C 0.810661764705882 0.190000000000001  0.137867647058824 0.805000000000001  0.137867647058824 1.56  C 0.137867647058824 2.315  0.813419117647059 2.93  1.640625 2.93  C 2.47058823529412 2.93  3.14338235294118 2.315  3.14338235294118 1.56  Z " fill-rule="nonzero" fill="#757575" stroke="none" transform="matrix(1 0 0 1 120 416 )" />
  </g>
</svg>