<?xml version="1.0" encoding="utf-8"?>
<svg version="1.1" xmlns:xlink="http://www.w3.org/1999/xlink" width="12px" height="6px" xmlns="http://www.w3.org/2000/svg">
  <g transform="matrix(1 0 0 1 -123 -550 )">
    <path d="M 11.952 4.99862068965517  C 11.952 4.52193103448276  11.5808 4.13793103448276  11.12 4.13793103448276  L 0.88 4.13793103448276  C 0.419199999999999 4.13793103448276  0.047999999999999 4.52193103448276  0.047999999999999 4.99862068965517  C 0.047999999999999 5.47531034482759  0.419199999999999 5.85931034482758  0.879999999999998 5.85931034482758  L 11.12 5.85931034482758  C 11.5808 5.85931034482758  11.952 5.47531034482759  11.952 4.99862068965517  Z M 11.952 0.96  C 11.952 0.483310344827586  11.5808 0.099310344827587  11.12 0  L 0.88 0  C 0.419199999999999 0.099310344827587  0.047999999999999 0.483310344827586  0.047999999999999 0.96  C 0.047999999999999 1.43668965517241  0.419199999999999 1.82068965517241  0.879999999999998 1.82068965517241  L 11.12 1.82068965517241  C 11.5808 1.82068965517241  11.952 1.43668965517241  11.952 0.96  Z " fill-rule="nonzero" fill="#757575" stroke="none" transform="matrix(1 0 0 1 123 550 )" />
  </g>
</svg>