<?xml version="1.0" encoding="utf-8"?>
<svg version="1.1" xmlns:xlink="http://www.w3.org/1999/xlink" width="18px" height="18px" xmlns="http://www.w3.org/2000/svg">
  <g transform="matrix(1 0 0 1 -155 -280 )">
    <path d="M 1.07796363644531 8.77963130454314  C 1.07796363644531 4.60171130466033  4.63217454557706 1.20203130462126  9 1.2020313042697  C 13.3678254544229 1.2020313042697  16.9220363635547 4.60171130430876  16.9220363635547 8.77963130454314  C 16.9220363635547 12.9575513047775  13.3678254544229 16.357231304465  9 16.357231304465  C 4.63217454557706 16.357231304465  1.07796363644531 12.9575513044259  1.07796363644531 8.77963130454314  Z M 17.9925818180593 8.77963130454314  C 17.9925818180593 4.02827130473845  13.9673309088867 0.178031304308764  9 0.178031304308763  C 4.03266909111328 0.178031304308763  0.00741818194069536 4.02827130438689  0.00741818194069536 8.77963130454314  C 0.00741818194069536 13.5309913046994  4.03266909111328 17.3812313044259  9 17.3812313044259  C 13.9673309088867 17.3812313044259  17.9925818180593 13.5309913043478  17.9925818180593 8.77963130454314  Z " fill-rule="nonzero" fill="#d6d6d7" stroke="none" transform="matrix(1 0 0 1 155 280 )" />
  </g>
</svg>