<?xml version="1.0" encoding="utf-8"?>
<svg version="1.1" xmlns:xlink="http://www.w3.org/1999/xlink" width="37px" height="18px" xmlns="http://www.w3.org/2000/svg">
  <g transform="matrix(1 0 0 1 -145 -297 )">
    <path d="M 35.7671051851082 16.6434133335205  C 35.3636681478788 17.1144533334082  34.7181688890043 17.4284800002246  34.0726696294373 17.4284799998877  L 2.84664296277059 17.4284799998877  C 2.2011437035498 17.4284799998877  1.55564444432902 17.1144533334082  1.15220740744588 16.6434133335205  C 0.748770370216472 16.0938666669287  0.58739555567098 15.4658133336328  0.748770370562744 14.83776  C 2.36251851878784 6.83007999988769  9.05957333333333 0.863573333408199  17.1283140741125 0.2355200001123  C 19.8313422223376 0.2355200001123  22.7562607407792 0.569173333520502  25.6811792592208 1.72714666647948  C 26.5283970368831 2.06079999988769  26.8108029631169 2.27669333307128  27.2949274074459 2.5122133335205  C 31.9747970368831 5.1029333334082  35.2022933333333 9.5778133335205  36.2512296294373 14.83776  C 36.412604444329 15.4658133332959  36.2512296294373 16.0938666665918  35.7671051851082 16.6434133335205  Z " fill-rule="nonzero" fill="#d6d6d7" stroke="none" transform="matrix(1 0 0 1 145 297 )" />
  </g>
</svg>