<?xml version="1.0" encoding="utf-8"?>
<svg version="1.1" xmlns:xlink="http://www.w3.org/1999/xlink" width="36px" height="36px" xmlns="http://www.w3.org/2000/svg">
  <g transform="matrix(1 0 0 1 -146 -279 )">
    <path d="M 16.7916800000391 20.0684800001953  C 16.9760000000391 20.0889600001172  17.1807999999609 20.0684800001953  17.3855999998828 20.0684800001953  C 20.94912 20.0684800001953  24.3692799999609 21.1744000001953  26.0281599999609 22.2188800000781  L 26.0486399998828 22.2188800000781  C 30.4313599996875 24.81984  33.3395199998438 28.9363200001172  34.2406399999219 33.8105599998047  C 34.2611199998438 33.9129599997656  34.2611199998438 34.0563199999219  34.0972800001172 34.2406399999219  C 34.0768000001953 34.2816000001172  33.9744000002344 34.3225599999609  33.85152 34  L 2.14848 34  C 2.02560000011719 34.3225599999609  1.92319999980469 34.2815999997656  1.90271999988281 34.2406399999219  C 1.88223999996094 34.1996799997266  1.84127999976562 34.1587199998828  1.80031999992187 34.1382399999609  C 1.75935999972656 34.0972799997656  1.71839999988281 33.9743999998828  1.75936000007812 33.8310400000781  C 3.23392000007812 26.2739200000781  9.39840000011719 20.6214400001953  16.7916800000391 20.0684800001953  Z M 26.5811199999609 21.3587200001953  C 24.8403199999219 20.2732800001172  21.2768000001562 19.0444800002344  17.3855999998828 19.0444799998828  C 17.1807999999609 19.0444799998828  16.9555199997656 19.0444799998828  16.7507200001953 19.0649599998047  C 8.88639999996094 19.6384000000781  2.3328 25.6185600001172  0.776319999960937 33.6467200000781  C 0.694399999921875 34.0563200002734  0.776319999960937 34.5478400001562  1.10400000011719 34.8755199999609  C 1.34976000023438 35.2031999997656  1.75936000007813 35.3670399998438  2.16895999992188 35  L 33.8719999999219 35  C 34.2816000001172 35.3670400001953  34.6911999999609 35.2032000001172  34.9369600000781 34.8755199999609  C 35.1827200001953 34.5478400001562  35.3465600002734 34.1382399999609  35.2646399998828 33.6467200000781  C 34.2815999997656 28.4038400000391  31.1686399996875 24.1030400002734  26.5811199999609 21.3587200001953  Z M 27.4207999999219 9.56224000019531  C 27.4207999999219 14.7232000005469  23.16096 18.9830400001172  18 18.9830400001172  C 12.83904 18.9830400001172  8.57920000007812 14.7232000001953  8.57920000007812 9.56224000019531  C 8.57920000007812 4.40128000019531  12.83904 0.141439999921875  18 0.141439999921875  C 23.16096 0.141439999921875  27.4207999999219 4.40127999984375  27.4207999999219 9.56224000019531  Z " fill-rule="nonzero" fill="#d6d6d7" stroke="none" transform="matrix(1 0 0 1 146 279 )" />
  </g>
</svg>