<?xml version="1.0" encoding="utf-8"?>
<svg version="1.1" xmlns:xlink="http://www.w3.org/1999/xlink" width="34px" height="16px" xmlns="http://www.w3.org/2000/svg">
  <g transform="matrix(1 0 0 1 -146 -298 )">
    <path d="M 32.6715959595188 15.6295964444844  L 1.34862545454545 15.6295964444844  C 1.0857470706685 15.6295964444844  0.843090101202947 15.5249208889688  0.701540202058771 15.3365048889688  C 0.681318787994496 15.3155697779375  0.681318787994496 15.2946346665469  0.66109737393022 15.2736995555156  C 0.458883232593217 15.0643484444844  0.438661818181818 14.7084515555156  0.479104646657493 14.4991004444844  C 1.97548929331499 6.5437582220625  8.26434909090909 0.577251555515619  15.7867151516309 0.0120035555156221  L 16.3933575756419 0.0120035555156221  C 20.0129907070321 0.0120035555156221  23.4910739392782 1.1843697779375  25.1896727272727 2.29393066654687  C 29.6383838384224 5.05736533345312  32.6109317169789 9.39093333345313  33.5411167677539 14.4991004444844  C 33.5815595962296 14.792192  33.5208953536896 15.0643484444844  33.3186812120055 15.3365048889688  C 33.1771313132084 15.5249208889688  32.9344743433958 15.6295964444844  32.6715959595188 15.6295964444844  Z " fill-rule="nonzero" fill="#d6d6d7" stroke="none" transform="matrix(1 0 0 1 146 298 )" />
  </g>
</svg>