<?xml version="1.0" encoding="utf-8"?>
<svg version="1.1" xmlns:xlink="http://www.w3.org/1999/xlink" width="18px" height="12px" xmlns="http://www.w3.org/2000/svg">
  <g transform="matrix(1 0 0 1 -1108 -303 )">
    <path d="M 0 0.666666671875191  C 0.0906318026143936 0.298476835777819  0.415249746885365 0  0.815686274509835 0  L 17.1843137254902 0  C 17.5847502531146 0  17.9093681973856 0.298476835777819  18 0.666666671875191  L 18 11.3333333281248  C 17.9093681973856 11.7015231642222  17.5847502531146 12  17.1843137254902 12  L 0.815686274509835 12  C 0.415249746885365 12  0.0906318026143936 11.7015231642222  0 11.3333333281248  L 0 0.666666671875191  Z M 10.1838780013072 3.66666667187519  L 8.73376905751632 3.66666667187519  L 8.73376905751632 8.33333332812481  L 10.1838780013072 8.33333332812481  L 10.1838780013072 3.66666667187519  Z M 6.63401133464054 8.30933332812492  L 8.5271285346405 3.66666667187519  L 6.9943633986928 3.66666667187519  L 5.90895686274509 6.40866667187493  L 4.82355032679739 3.66666667187519  L 3.29078519084962 3.66666667187519  L 5.18390239084965 8.30933332812492  L 6.63401133464054 8.30933332812492  Z M 12.3590414 8.33333332812481  L 12.3590414 7  L 13.4466230993464 7  C 14.4478899214565 7.00000000781256  15.2594347783298 6.25380792186525  15.2594347783298 5.33333333593737  C 15.2594347783298 4.41285875000949  14.4478899214565 3.66666666406263  13.4467986070879 3.66666666406263  L 10.9089324562092 3.66666667187519  L 10.9089324562092 8.33333332812481  L 12.3590414 8.33333332812481  Z M 13.4466230993464 5.66666667187519  L 12.3590414 5.66666667187519  L 12.3590414 5  L 13.4466230993464 5  C 13.6468413631586 5  13.8091503352941 5.14923841788914  13.8091503352941 5.33333333593737  C 13.8091503352941 5.51742825398605  13.6468413631586 5.66666667187519  13.4466230993464 5.66666667187519  Z " fill-rule="nonzero" fill="#aeaeae" stroke="none" transform="matrix(1 0 0 1 1108 303 )" />
  </g>
</svg>