<?xml version="1.0" encoding="utf-8"?>
<svg version="1.1" xmlns:xlink="http://www.w3.org/1999/xlink" width="21px" height="20px" preserveAspectRatio="xMinYMid meet" viewBox="648 578  21 18" xmlns="http://www.w3.org/2000/svg">
  <path d="M 1132 587  L 661 587  M 1146 587  L 1137.4 587  " stroke-width="2" stroke="#2a76f9" fill="none" />
  <path d="M 1144.69289321881 581.292893218813  L 1139.69289321881 586.292893218813  L 1138.98578643763 587  L 1139.69289321881 587.707106781187  L 1144.69289321881 592.707106781187  L 1146.10710678119 591.292893218813  L 1141.81421356237 587  L 1146.10710678119 582.707106781187  L 1144.69289321881 581.292893218813  Z M 1135.4 583.5  A 3.5 3.5 0 0 0 1131.9 587 A 3.5 3.5 0 0 0 1135.4 590.5 A 3.5 3.5 0 0 0 1138.9 587 A 3.5 3.5 0 0 0 1135.4 583.5 Z M 1135.4 585.5  A 1.5 1.5 0 0 1 1136.9 587 A 1.5 1.5 0 0 1 1135.4 588.5 A 1.5 1.5 0 0 1 1133.9 587 A 1.5 1.5 0 0 1 1135.4 585.5 Z M 658.5 583.5  A 3.5 3.5 0 0 0 655 587 A 3.5 3.5 0 0 0 658.5 590.5 A 3.5 3.5 0 0 0 662 587 A 3.5 3.5 0 0 0 658.5 583.5 Z M 658.5 585.5  A 1.5 1.5 0 0 1 660 587 A 1.5 1.5 0 0 1 658.5 588.5 A 1.5 1.5 0 0 1 657 587 A 1.5 1.5 0 0 1 658.5 585.5 Z " fill-rule="nonzero" fill="#2a76f9" stroke="none" />
</svg>