<?xml version="1.0" encoding="utf-8"?>
<svg version="1.1" xmlns:xlink="http://www.w3.org/1999/xlink" width="495px" height="10px" preserveAspectRatio="xMinYMid meet" viewBox="655 1248  495 8" xmlns="http://www.w3.org/2000/svg">
  <path d="M 1139 1252  L 655 1252  " stroke-width="2" stroke="#2a76f9" fill="none" />
  <path d="M 1141.5 1248.5  A 3.5 3.5 0 0 0 1138 1252 A 3.5 3.5 0 0 0 1141.5 1255.5 A 3.5 3.5 0 0 0 1145 1252 A 3.5 3.5 0 0 0 1141.5 1248.5 Z M 1141.5 1250.5  A 1.5 1.5 0 0 1 1143 1252 A 1.5 1.5 0 0 1 1141.5 1253.5 A 1.5 1.5 0 0 1 1140 1252 A 1.5 1.5 0 0 1 1141.5 1250.5 Z M 656.307106781187 1257.70710678119  L 661.307106781187 1252.70710678119  L 662.014213562373 1252  L 661.307106781187 1251.29289321881  L 656.307106781187 1246.29289321881  L 654.892893218813 1247.70710678119  L 659.185786437627 1252  L 654.892893218813 1256.29289321881  L 656.307106781187 1257.70710678119  Z M 663 1257  L 663 1247  L 661 1247  L 661 1257  L 663 1257  Z " fill-rule="nonzero" fill="#2a76f9" stroke="none" />
</svg>