<?xml version="1.0" encoding="utf-8"?>
<svg version="1.1" xmlns:xlink="http://www.w3.org/1999/xlink" width="10px" height="576px" preserveAspectRatio="xMidYMin meet" viewBox="563 634  8 576" xmlns="http://www.w3.org/2000/svg">
  <path d="M 567 1205  L 567 640  " stroke-width="2" stroke="#2a76f9" fill="none" />
  <path d="M 572.707106781187 1203.69289321881  L 567.707106781187 1198.69289321881  L 567 1197.98578643763  L 566.292893218813 1198.69289321881  L 561.292893218813 1203.69289321881  L 562.707106781187 1205.10710678119  L 567 1200.81421356237  L 571.292893218813 1205.10710678119  L 572.707106781187 1203.69289321881  Z M 572 1197  L 562 1197  L 562 1199  L 572 1199  L 572 1197  Z M 567 634  A 3.5 3.5 0 0 0 563.5 637.5 A 3.5 3.5 0 0 0 567 641 A 3.5 3.5 0 0 0 570.5 637.5 A 3.5 3.5 0 0 0 567 634 Z M 567 636  A 1.5 1.5 0 0 1 568.5 637.5 A 1.5 1.5 0 0 1 567 639 A 1.5 1.5 0 0 1 565.5 637.5 A 1.5 1.5 0 0 1 567 636 Z " fill-rule="nonzero" fill="#2a76f9" stroke="none" />
</svg>