<?xml version="1.0" encoding="utf-8"?>
<svg version="1.1" xmlns:xlink="http://www.w3.org/1999/xlink" width="152px" height="83px" xmlns="http://www.w3.org/2000/svg">
  <g transform="matrix(1 0 0 1 -256 -1338 )">
    <path d="M 332 1339  C 374 1339  407 1356.82  407 1379.5  C 407 1402.18  374 1420  332 1420  C 290 1420  257 1402.18  257 1379.5  C 257 1356.82  290 1339  332 1339  Z " fill-rule="nonzero" fill="#fefefe" stroke="none" />
    <path d="M 332 1339  C 374 1339  407 1356.82  407 1379.5  C 407 1402.18  374 1420  332 1420  C 290 1420  257 1402.18  257 1379.5  C 257 1356.82  290 1339  332 1339  Z " stroke-width="2" stroke="#419fe3" fill="none" />
  </g>
</svg>