<?xml version="1.0" encoding="utf-8"?>
<svg version="1.1" xmlns:xlink="http://www.w3.org/1999/xlink" width="29px" height="20px" preserveAspectRatio="xMinYMid meet" viewBox="3393 1822  29 18" xmlns="http://www.w3.org/2000/svg">
  <defs>
    <mask fill="white" id="clip473">
      <path d="M 3292.5 1811  L 3357.5 1811  L 3357.5 1851  L 3292.5 1851  Z M 3225 1811  L 3424 1811  L 3424 1851  L 3225 1851  Z " fill-rule="evenodd" />
    </mask>
  </defs>
  <path d="M 3292.5 1831  L 3249 1831  M 3357.5 1831  L 3400 1831  M 3235 1831  L 3243.6 1831  M 3405.4 1831  L 3414 1831  " stroke-width="2" stroke="#2a76f9" fill="none" />
  <path d="M 3236.30710678119 1836.70710678119  L 3241.30710678119 1831.70710678119  L 3242.01421356237 1831  L 3241.30710678119 1830.29289321881  L 3236.30710678119 1825.29289321881  L 3234.89289321881 1826.70710678119  L 3239.18578643763 1831  L 3234.89289321881 1835.29289321881  L 3236.30710678119 1836.70710678119  Z M 3245.6 1827.5  A 3.5 3.5 0 0 0 3242.1 1831 A 3.5 3.5 0 0 0 3245.6 1834.5 A 3.5 3.5 0 0 0 3249.1 1831 A 3.5 3.5 0 0 0 3245.6 1827.5 Z M 3245.6 1829.5  A 1.5 1.5 0 0 1 3247.1 1831 A 1.5 1.5 0 0 1 3245.6 1832.5 A 1.5 1.5 0 0 1 3244.1 1831 A 1.5 1.5 0 0 1 3245.6 1829.5 Z M 3412.69289321881 1825.29289321881  L 3407.69289321881 1830.29289321881  L 3406.98578643763 1831  L 3407.69289321881 1831.70710678119  L 3412.69289321881 1836.70710678119  L 3414.10710678119 1835.29289321881  L 3409.81421356237 1831  L 3414.10710678119 1826.70710678119  L 3412.69289321881 1825.29289321881  Z M 3403.4 1827.5  A 3.5 3.5 0 0 0 3399.9 1831 A 3.5 3.5 0 0 0 3403.4 1834.5 A 3.5 3.5 0 0 0 3406.9 1831 A 3.5 3.5 0 0 0 3403.4 1827.5 Z M 3403.4 1829.5  A 1.5 1.5 0 0 1 3404.9 1831 A 1.5 1.5 0 0 1 3403.4 1832.5 A 1.5 1.5 0 0 1 3401.9 1831 A 1.5 1.5 0 0 1 3403.4 1829.5 Z " fill-rule="nonzero" fill="#2a76f9" stroke="none" mask="url(#clip473)" />
</svg>