<?xml version="1.0" encoding="utf-8"?>
<svg version="1.1" xmlns:xlink="http://www.w3.org/1999/xlink" width="47px" height="72px" xmlns="http://www.w3.org/2000/svg">
  <defs>
    <linearGradient gradientUnits="userSpaceOnUse" x1="1054" y1="2606" x2="1054" y2="2671" id="LinearGradient498">
      <stop id="Stop499" stop-color="#337cb1" offset="0" />
      <stop id="Stop500" stop-color="#f2f2f2" offset="0" />
      <stop id="Stop501" stop-color="#e4e4e4" offset="1" />
      <stop id="Stop502" stop-color="#ffffff" offset="1" />
    </linearGradient>
  </defs>
  <g transform="matrix(1 0 0 1 -1031 -2603 )">
    <path d="M 1054 2611.5  C 1055.4 2611.5  1056.5 2612.6  1056.5 2614  C 1056.5 2615.4  1055.4 2616.5  1054 2616.5  C 1052.6 2616.5  1051.5 2615.4  1051.5 2614  C 1051.5 2612.6  1052.6 2611.5  1054 2611.5  Z " fill-rule="nonzero" fill="url(#LinearGradient498)" stroke="none" />
    <path d="M 1054 2609  C 1056.8 2609  1059 2611.2  1059 2614  C 1059 2616.8  1056.8 2619  1054 2619  C 1051.2 2619  1049 2616.8  1049 2614  C 1049 2611.2  1051.2 2609  1054 2609  Z " stroke-width="6" stroke="#c8a011" fill="none" />
    <path d="M 1034 2630  L 1074 2630  M 1054 2622  L 1054 2651  M 1038 2671  L 1054 2651  M 1054 2651  L 1070 2671  " stroke-width="6" stroke="#c8a011" fill="none" />
  </g>
</svg>