<?xml version="1.0" encoding="utf-8"?>
<svg version="1.1" xmlns:xlink="http://www.w3.org/1999/xlink" width="47px" height="72px" xmlns="http://www.w3.org/2000/svg">
  <defs>
    <linearGradient gradientUnits="userSpaceOnUse" x1="559" y1="2354" x2="559" y2="2419" id="LinearGradient493">
      <stop id="Stop494" stop-color="#337cb1" offset="0" />
      <stop id="Stop495" stop-color="#f2f2f2" offset="0" />
      <stop id="Stop496" stop-color="#e4e4e4" offset="1" />
      <stop id="Stop497" stop-color="#ffffff" offset="1" />
    </linearGradient>
  </defs>
  <g transform="matrix(1 0 0 1 -536 -2351 )">
    <path d="M 559 2359.5  C 560.4 2359.5  561.5 2360.6  561.5 2362  C 561.5 2363.4  560.4 2364.5  559 2364.5  C 557.6 2364.5  556.5 2363.4  556.5 2362  C 556.5 2360.6  557.6 2359.5  559 2359.5  Z " fill-rule="nonzero" fill="url(#LinearGradient493)" stroke="none" />
    <path d="M 559 2357  C 561.8 2357  564 2359.2  564 2362  C 564 2364.8  561.8 2367  559 2367  C 556.2 2367  554 2364.8  554 2362  C 554 2359.2  556.2 2357  559 2357  Z " stroke-width="6" stroke="#2a76f9" fill="none" />
    <path d="M 539 2378  L 579 2378  M 559 2370  L 559 2399  M 543 2419  L 559 2399  M 559 2399  L 575 2419  " stroke-width="6" stroke="#2a76f9" fill="none" />
  </g>
</svg>