<?xml version="1.0" encoding="utf-8"?>
<svg version="1.1" xmlns:xlink="http://www.w3.org/1999/xlink" width="135px" height="135px" xmlns="http://www.w3.org/2000/svg">
  <g transform="matrix(1 0 0 1 -1909 -2571 )">
    <path d="M 1976.5 2572  C 2013.74 2572  2043 2601.26  2043 2638.5  C 2043 2675.74  2013.74 2705  1976.5 2705  C 1939.26 2705  1910 2675.74  1910 2638.5  C 1910 2601.26  1939.26 2572  1976.5 2572  Z " fill-rule="nonzero" fill="#fefefe" stroke="none" />
    <path d="M 1976.5 2572  C 2013.74 2572  2043 2601.26  2043 2638.5  C 2043 2675.74  2013.74 2705  1976.5 2705  C 1939.26 2705  1910 2675.74  1910 2638.5  C 1910 2601.26  1939.26 2572  1976.5 2572  Z " stroke-width="2" stroke="#d4524a" fill="none" />
  </g>
</svg>