<?xml version="1.0" encoding="utf-8"?>
<svg version="1.1" xmlns:xlink="http://www.w3.org/1999/xlink" width="47px" height="72px" xmlns="http://www.w3.org/2000/svg">
  <defs>
    <linearGradient gradientUnits="userSpaceOnUse" x1="2334" y1="1946" x2="2334" y2="2011" id="LinearGradient509">
      <stop id="Stop510" stop-color="#337cb1" offset="0" />
      <stop id="Stop511" stop-color="#f2f2f2" offset="0" />
      <stop id="Stop512" stop-color="#e4e4e4" offset="1" />
      <stop id="Stop513" stop-color="#ffffff" offset="1" />
    </linearGradient>
  </defs>
  <g transform="matrix(1 0 0 1 -2311 -1943 )">
    <path d="M 2334 1951.5  C 2335.4 1951.5  2336.5 1952.6  2336.5 1954  C 2336.5 1955.4  2335.4 1956.5  2334 1956.5  C 2332.6 1956.5  2331.5 1955.4  2331.5 1954  C 2331.5 1952.6  2332.6 1951.5  2334 1951.5  Z " fill-rule="nonzero" fill="url(#LinearGradient509)" stroke="none" />
    <path d="M 2334 1949  C 2336.8 1949  2339 1951.2  2339 1954  C 2339 1956.8  2336.8 1959  2334 1959  C 2331.2 1959  2329 1956.8  2329 1954  C 2329 1951.2  2331.2 1949  2334 1949  Z " stroke-width="6" stroke="#792af9" fill="none" />
    <path d="M 2314 1970  L 2354 1970  M 2334 1962  L 2334 1991  M 2318 2011  L 2334 1991  M 2334 1991  L 2350 2011  " stroke-width="6" stroke="#792af9" fill="none" />
  </g>
</svg>