<?xml version="1.0" encoding="utf-8"?>
<svg version="1.1" xmlns:xlink="http://www.w3.org/1999/xlink" width="148px" height="148px" xmlns="http://www.w3.org/2000/svg">
  <g transform="matrix(1 0 0 1 -2389 -3191 )">
    <path d="M 2463 3192  C 2503.88 3192  2536 3224.12  2536 3265  C 2536 3305.88  2503.88 3338  2463 3338  C 2422.12 3338  2390 3305.88  2390 3265  C 2390 3224.12  2422.12 3192  2463 3192  Z " fill-rule="nonzero" fill="#fefefe" stroke="none" />
    <path d="M 2463 3192  C 2503.88 3192  2536 3224.12  2536 3265  C 2536 3305.88  2503.88 3338  2463 3338  C 2422.12 3338  2390 3305.88  2390 3265  C 2390 3224.12  2422.12 3192  2463 3192  Z " stroke-width="2" stroke="#87c13e" fill="none" />
  </g>
</svg>