<?xml version="1.0" encoding="utf-8"?>
<svg version="1.1" xmlns:xlink="http://www.w3.org/1999/xlink" width="40px" height="40px" xmlns="http://www.w3.org/2000/svg">
  <g transform="matrix(1 0 0 1 -1090 -2066 )">
    <path d="M 1091 2070  A 3 3 0 0 1 1094 2067 L 1126 2067  A 3 3 0 0 1 1129 2070 L 1129 2102  A 3 3 0 0 1 1126 2105 L 1094 2105  A 3 3 0 0 1 1091 2102 L 1091 2070  Z " fill-rule="nonzero" fill="#eaeaea" stroke="none" />
    <path d="M 1090.5 2070  A 3.5 3.5 0 0 1 1094 2066.5 L 1126 2066.5  A 3.5 3.5 0 0 1 1129.5 2070 L 1129.5 2102  A 3.5 3.5 0 0 1 1126 2105.5 L 1094 2105.5  A 3.5 3.5 0 0 1 1090.5 2102 L 1090.5 2070  Z " stroke-width="1" stroke-dasharray="3,1" stroke="#c8c8c8" fill="none" stroke-dashoffset="0.5" />
  </g>
</svg>