<?xml version="1.0" encoding="utf-8"?>
<svg version="1.1" xmlns:xlink="http://www.w3.org/1999/xlink" width="17px" height="17px" xmlns="http://www.w3.org/2000/svg">
  <g transform="matrix(1 0 0 1 -1101 -2077 )">
    <path d="M 16.9977550892857 8.43012847676991  C 16.9977550892857 8.82893264269912  16.6714985837054 9.16138490597345  16.2693666573661 9  L 0.730633342633929 9  C 0.328501416294643 9.16138490597345  0.00226432031249974 8.82893264269912  0.00226432031249974 8.43012847676991  C 0.00226432031249974 8.03132431084071  0.328520825892857 7.69887204756637  0.730633342633928 8  L 16.2693666573661 8  C 16.6714985837054 7.69887204756637  16.9977550892857 8.03132431084071  16.9977550892857 8.43012847676991  Z M 9 16.1277954048673  C 9.24153267633928 16.5265995707965  8.90587909821429 16.8497379214602  8.503747171875 16.8497379214602  C 8.10161524553571 16.8497379214602  7.76596166741072 16.5265995519912  8 16.1278146426991  L 8 0.726573004424779  C 7.76596168638393 0.327768838495575  8.10161526450893 0.00464972566371668  8.50374719084821 0.00464972566371668  C 8.9058791171875 0.00464972566371668  9.2415326953125 0.327788095132743  9 0.726573004424779  L 9 16.1277954048673  Z " fill-rule="nonzero" fill="#b7b7b7" stroke="none" transform="matrix(1 0 0 1 1101 2077 )" />
  </g>
</svg>