<?xml version="1.0" encoding="utf-8"?>
<svg version="1.1" xmlns:xlink="http://www.w3.org/1999/xlink" width="12px" height="12px" xmlns="http://www.w3.org/2000/svg">
  <g transform="matrix(1 0 0 1 -1017 -2060 )">
    <path d="M 12 6  C 12 2.686125  9.313875 0  6 0  C 2.686125 0  0 2.686125  0 6  C 0 9.313875  2.686125 12  6 12  C 9.313875 12  12 9.313875  12 6  Z M 6.53025 6  L 8.31075 7.7805  C 8.499 7.96875  8.533125 8.24025  8.3865 8.3865  C 8.239875 8.53275  7.96875 8.499  7.7805 8.31075  L 6 6.53025  L 4.2195 8.31075  C 4.03125 8.499  3.75975 8.533125  3.6135 8.3865  C 3.46725 8.239875  3.501 7.96875  3.68925 7.7805  L 5.46975 6  L 3.68925 4.2195  C 3.501 4.03125  3.466875 3.75975  3.6135 3.6135  C 3.760125 3.466875  4.03125 3.501  4.2195 3.68925  L 6 5.46975  L 7.7805 3.68925  C 7.96875 3.501  8.24025 3.466875  8.3865 3.6135  C 8.533125 3.760125  8.499 4.03125  8.31075 4.2195  L 6.53025 6  Z " fill-rule="nonzero" fill="#ea5252" stroke="none" transform="matrix(1 0 0 1 1017 2060 )" />
  </g>
</svg>