<?xml version="1.0" encoding="utf-8"?>
<svg version="1.1" xmlns:xlink="http://www.w3.org/1999/xlink" width="15px" height="11px" xmlns="http://www.w3.org/2000/svg">
  <g transform="matrix(1 0 0 1 -1278 -1398 )">
    <path d="M 7.40128279109589 10.8579339622642  L 7.42624854452055 10.8579339622642  C 10.8149642979452 10.8352075471698  13.5307605308219 10.1890353773585  14.4510002568493 9.94109433962264  C 14.6703752568493 9.88194339622641  14.7877297089041 9.77599056603774  14.7877297089041 9.77599056603774  C 14.7885002568493 9.74558490566038  14.8016509417808 9.23242452830189  14.8016509417808 8.96772405660377  C 14.8016509417808 4.50981839622642  12.6658975171233 0.030431603773585  7.41371429794521 0.0301462264150943  C 2.16155676369863 0.030431603773585  0.0257005993150684 4.50979245283019  0.0257005993150684 8.96772405660377  C 0.0257005993150684 9.23242452830189  0.0389540239726024 9.74558490566038  0.0397502568493149 9.77599056603774  C 0.0397502568493149 9.77599056603774  0.135221147260274 9.87512028301887  0.310186900684931 9.92308962264151  C 1.15979306506849 10.1560613207547  3.92670231164383 10.8347146226415  7.40128279109589 10.8579339622642  Z " fill-rule="nonzero" fill="#000000" stroke="none" transform="matrix(1 0 0 1 1278 1398 )" />
  </g>
</svg>