<?xml version="1.0" encoding="utf-8"?>
<svg version="1.1" xmlns:xlink="http://www.w3.org/1999/xlink" width="58px" height="58px" xmlns="http://www.w3.org/2000/svg">
  <g transform="matrix(1 0 0 1 -1256 -1380 )">
    <path d="M 1285 1380  C 1301.24 1380  1314 1392.76  1314 1409  C 1314 1425.24  1301.24 1438  1285 1438  C 1268.76 1438  1256 1425.24  1256 1409  C 1256 1392.76  1268.76 1380  1285 1380  Z " fill-rule="nonzero" fill="#ffffff" stroke="none" />
    <path d="M 1285 1380.5  C 1300.96 1380.5  1313.5 1393.04  1313.5 1409  C 1313.5 1424.96  1300.96 1437.5  1285 1437.5  C 1269.04 1437.5  1256.5 1424.96  1256.5 1409  C 1256.5 1393.04  1269.04 1380.5  1285 1380.5  Z " stroke-width="1" stroke="#dfdfdf" fill="none" />
  </g>
</svg>