<?xml version="1.0" encoding="utf-8"?>
<svg version="1.1" xmlns:xlink="http://www.w3.org/1999/xlink" width="8px" height="5px" xmlns="http://www.w3.org/2000/svg">
  <g transform="matrix(1 0 0 1 -1282 -1401 )">
    <path d="M 2.73114805147059 1.96002631578947  C 2.77044584558824 3.00942105263158  2.22022525735294 3.88634210526316  1.50249363970588 3.91886842105263  C 0.78447893382353 3.9515  0.170820845588235 3.12660526315789  0.132346580882353 2.07792105263158  C 0.0932804044117652 1.02852631578947  0.643398051470588 0.151421052631578  1.36156716911765 0.118605263157893  C 2.07893849264706 0.0863947368421042  2.69215908088235 0.910947368421052  2.73114805147059 1.96002631578947  Z M 6.821206875 2.07792105263158  C 6.78275834558823 3.12660526315789  6.16907452205882 3.95144736842105  5.45105981617647 3.91886842105263  C 4.73335393382353 3.88628947368421  4.18310761029412 3.00942105263158  4.22240540441176 1.96005263157895  C 4.26134290441177 0.910894736842103  4.87456349264706 0.0863421052631558  5.59193481617647 0.118631578947366  C 6.31018113970588 0.151447368421051  6.86029878676471 1.02852631578947  6.82123261029412 2.07792105263158  Z " fill-rule="nonzero" fill="#ffffff" stroke="none" transform="matrix(1 0 0 1 1282 1401 )" />
  </g>
</svg>