<?xml version="1.0" encoding="utf-8"?>
<svg version="1.1" xmlns:xlink="http://www.w3.org/1999/xlink" width="8px" height="3px" xmlns="http://www.w3.org/2000/svg">
  <g transform="matrix(1 0 0 1 -1281 -1405 )">
    <path d="M 7.91985477272727 1.15513392857143  C 7.91985477272727 1.13110714285714  7.91530931818181 1.10863392857143  7.90778659090909 1.08822321428571  C 7.74135477272727 0.616553571428572  6.06546840909091 0.0910714285714295  3.99067295454545 0.0910714285714295  L 3.96840022727273 0.0910714285714295  C 1.8936275 0.0910714285714295  0.21769568181818 0.616553571428572  0.0513093181818156 1.08822321428571  C 0.0433654622927264 1.10935862684287  0.0392253287624323 1.13220536504591  0.0391502272727241 1.15532142857143  C 0.0391502272727241 1.1893125  0.0480820454545417 1.21998214285714  0.0620138636363598 1.24601785714286  C 0.202195681818178 1.50758035714286  2.06324113636363 2.80007142857143  3.96842295454545 2.80007142857143  L 3.99069568181818 2.80007142857143  C 5.89585477272727 2.80007142857143  7.75683204545454 1.50766071428572  7.89708204545454 1.24607142857143  C 7.91183078481845 1.21891443111562  7.91972838897721 1.18737721690382  7.91985477272727 1.15513392857143  Z " fill-rule="nonzero" fill="#faad08" stroke="none" transform="matrix(1 0 0 1 1281 1405 )" />
  </g>
</svg>