<?xml version="1.0" encoding="utf-8"?>
<svg version="1.1" xmlns:xlink="http://www.w3.org/1999/xlink" width="19px" height="11px" xmlns="http://www.w3.org/2000/svg">
  <g transform="matrix(1 0 0 1 -1276 -1410 )">
    <path d="M 18.7255294140625 6.84441898148148  C 18.9617924348958 6.81503472222222  19.2721010286458 5.50430324074074  18.3142833203125 2.33704166666667  C 18.1133979036458 1.67281481481482  17.8391843619792 0.898231481481483  17.5615320182292 0.154356481481482  C 17.5615320182292 0.154356481481482  17.4018132682292 0.134113425925927  17.3211127473958 0.158125000000001  C 14.8295893098958 0.901770833333335  11.8098015494792 1.37571296296296  9.50855024739583 1.34711805555556  L 9.48475076822917 1.34711805555556  C 7.1963887890625 1.37543287037037  4.19708540364583 0.906914351851851  1.71394868489583 0.170550925925925  C 1.6190723828125 0.142465277777778  1.4317442578125 0.154381944444444  1.4317442578125 0.154381944444444  C 1.1540919140625 0.89823148148148  0.879903111979167 1.67281481481482  0.679042434895833 2.33704166666667  C -0.278824752604167 5.50427777777778  0.0314838411458333 6.81500925925926  0.267796341145834 6.84439351851852  C 0.774858841145834 6.90738888888889  2.24152029947917 4.46011805555556  2.24152029947917 4.46011805555556  C 2.24152029947917 6.94683101851852  4.4266192578125 10.7651805555556  9.43024946614583 10.8002939814815  C 9.4745084261725 10.800123729607  9.51876784986916 10.800123729607  9.56302680989583 10.8002939814815  C 14.5667064973958 10.7651805555556  16.7517312369792 6.94685648148148  16.7517312369792 4.46014351851852  C 16.7517312369792 4.46014351851852  18.2183926953125 6.90741435185185  18.7255294140625 6.84441898148148  Z " fill-rule="nonzero" fill="#000000" stroke="none" transform="matrix(1 0 0 1 1276 1410 )" />
  </g>
</svg>