<?xml version="1.0" encoding="utf-8"?>
<svg version="1.1" xmlns:xlink="http://www.w3.org/1999/xlink" width="6px" height="2px" xmlns="http://www.w3.org/2000/svg">
  <g transform="matrix(1 0 0 1 -1283 -1402 )">
    <path d="M 0.6181128125 0.17786111111111  C 0.9908315625 0.134833333333332  1.3245815625 0.458083333333332  1.3634878125 0.899361111111111  C 1.4028628125 1.34063888888889  1.1329565625 1.73269444444444  0.7614253125 1.77552777777778  C 0.389331562500001 1.81841666666667  0.0561440624999996 1.49544444444444  0.0165503124999997 1.05391666666667  C -0.0222934375000001 0.612388888888888  0.247206562500001 0.22036111111111  0.6181128125 0.17786111111111  Z M 3.7163940625 1.34575  C 3.6327065625 1.29480555555556  3.5980815625 1.1915  3.6477690625 1.11977777777778  C 3.7269253125 1.00538888888889  4.2673628125 0.403944444444443  5.3858940625 0.622944444444443  C 5.6796753125 0.680444444444443  5.8155815625 0.765055555555555  5.8442690625 0.798388888888888  C 5.8866128125 0.847555555555555  5.8982065625 0.917555555555555  5.8552690625 1.01183333333333  C 5.7702065625 1.19863888888889  5.5947065625 1.19355555555555  5.4973315625 1.157  C 5.4345190625 1.13338888888889  4.6554565625 0.715638888888888  3.9378003125 1.33902777777778  C 3.8884565625 1.38194444444444  3.8001440625 1.39663888888889  3.7163940625 1.34575  Z " fill-rule="nonzero" fill="#000000" stroke="none" transform="matrix(1 0 0 1 1283 1402 )" />
  </g>
</svg>