<?xml version="1.0" encoding="utf-8"?>
<svg version="1.1" xmlns:xlink="http://www.w3.org/1999/xlink" width="25px" height="25px" xmlns="http://www.w3.org/2000/svg">
  <g transform="matrix(1 0 0 1 -1187 -1396 )">
    <path d="M 8.91325451704546 0.758201164772727  L 17.4898032670455 9.32861201704545  L 17.4898032670455 1.2431678125  C 17.4898032670455 1.2431678125  13.5323841193182 -0.876724431818182  8.91325451704546 0.758201164772727  Z M 24.2370070738636 8.84527494318182  L 18 14.0841832102273  L 18 1.57729355113636  C 18.2398458806818 1.57729355113636  22.9184010795455 3.69718579545455  24.2370070738636 8.84527494318182  Z M 23.60902375 17.7189858522727  L 15.7230976988636 17.7189858522727  L 24.3590720454545 9.60110340909091  C 24.3590720454545 9.60110340909091  25.8880751420455 12.0843175284091  23.60902375 17.7189858522727  Z M 16.5293578693182 24.1386844318182  L 11.3127583522727 18.7489296022727  L 22.9778323863636 18.7489296022727  C 22.9778323863636 18.7489296022727  21.5692873863636 22.5653875  16.5293578693182 24.1386844318182  Z M 15.7230976988636 24.4111644318182  L 7.50470954545454 16.1732611079545  L 7.50470954545454 23.7737386647727  C 7.50470954545454 23.7737386647727  10.5338035511364 25.7135938920455  15.7230976988636 24.4111644318182  Z M 7 23.3195977272727  C 6.66472221590909 23.3195977272727  3.09597707386364 22.0804208522727  0.755893181818182 16.5673973011364  L 7 11.2668490340909  L 7 23.3195977272727  Z M 9.27301630681818 7.57365982954545  L 0.606528551136364 15.7191144886364  C 0.606528551136364 15.7191144886364  -0.744197698863636 11.3592977272727  1.14617403409091 7.57365982954545  L 9.27301630681818 7.57365982954545  Z M 13.561285 7  L 1.65691298295455 7  C 1.65691298295455 6.723753125  3.36579980113636 2.84890301136364  8.0138359375 1.03069255681818  L 13.561285 7  Z " fill-rule="nonzero" fill="#b7b7b7" stroke="none" transform="matrix(1 0 0 1 1187 1396 )" />
  </g>
</svg>