<?xml version="1.0" encoding="utf-8"?>
<svg version="1.1" xmlns:xlink="http://www.w3.org/1999/xlink" width="33px" height="27px" xmlns="http://www.w3.org/2000/svg">
  <g transform="matrix(1 0 0 1 -1097 -1396 )">
    <path d="M 23.5905206557377 7.71768  C 22.0990504918033 2.5121664  15.8032131147541 -0.8548416  9.62743081967213 0.2441664  C -0.0115986885245901 1.9626624  -3.22460852459016 12.8330784  4.44255737704918 17.8086816  C 4.86296655737705 18.0784224  4.86296655737705 18.0484416  4.23230950819672 19.926864  L 3.69184524590164 21.5353728  L 5.63367344262295 20.4964128  L 7.57550163934426 19.4573664  L 8.60648655737705 19.7071488  C 9.68741508196721 19.9768896  11.0687842622951 20.1667104  11.9895816393443 20.1667104  L 12.5401731147541 20.1667104  L 12.34992 19.4373216  C 10.8385416393443 13.8822336  16.0634045901639 8.3770848  22.8597167213115 8.3770848  L 23.7806872131147 8.3770848  L 23.5905206557377 7.71768  Z M 6.5044406557377 5.5794528  C 6.97488 4.8801312  8.10601180327869 4.6503072  8.78661245901639 5.1098688  C 9.80755672131148 5.7993408  9.86762754098361 7.2880128  8.88667278688525 7.9274592  C 7.29522885245902 8.9665056  5.4334662295082 7.1381088  6.5044406557377 5.5794528  Z M 15.2826570491803 5.069952  C 15.7831318032787 4.8002112  16.5638793442623 4.8201696  16.9943291803279 5.1098688  C 18.6759659016393 6.238944  17.4147383606557 8.8465824  15.5328944262295 8.127216  C 14.1716931147541 7.6076928  14.0114754098361 5.7393792  15.2826570491803 5.069952  Z M 29.566182295082 23.7135168  C 37.11312 18.30816  30.4869796721311 7.4578752  20.7078137704918 9.2263104  C 15.933308852459 10.0954944  12.6201521311475 13.7122848  12.8104052459016 17.8685568  C 13.0606426229508 23.4337536  19.5967632786885 27.2702592  25.8726059016393 25.5518496  L 26.6132773770492 25.3520064  L 28.1747724590164 26.1913824  C 29.0355855737705 26.6609664  29.756262295082 27.0006048  29.7762570491803 26.9606016  C 29.7963383606557 26.9106624  29.6262531147541 26.3111328  29.4059645901639 25.6218336  C 28.9055763934426 24.083136  28.8955357377049 24.1930368  29.566182295082 23.7135168  Z M 18.5256157377049 15.32088  C 18.0252275409836 14.1119712  19.4065967213115 12.9929184  20.5176472131148 13.7122848  C 20.9378832786885 13.992048  21.1581718032787 14.691456  20.9779593442623 15.2009568  C 20.5976262295082 16.2899424  18.9661927868852 16.3698624  18.5256157377049 15.32088  Z M 25.1719239344262 14.1819552  C 25.5723383606557 13.442544  26.6033232786885 13.2627456  27.2038583606557 13.8322944  C 27.8644642622951 14.461632  27.7543632786885 15.5307456  26.9836563934426 15.9303456  C 25.8024944262295 16.5297888  24.5614347540984 15.3309024  25.1719239344262 14.1819552  Z " fill-rule="nonzero" fill="#b7b7b7" stroke="none" transform="matrix(1 0 0 1 1097 1396 )" />
  </g>
</svg>