<?xml version="1.0" encoding="utf-8"?>
<svg version="1.1" xmlns:xlink="http://www.w3.org/1999/xlink" width="26px" height="26px" xmlns="http://www.w3.org/2000/svg">
  <g transform="matrix(1 0 0 1 -1014 -1396 )">
    <path d="M 20.0318872232143 15.5509295848214  C 19.850040234375 15.7327765736607  19.6117743482143 15.8237297678571  19.3735084620536 15.8237297678571  C 19.1352722611607 15.8237297678571  18.8969470044643 15.7327765736607  18.715100015625 15.5508998995536  C 18.3512872388393 15.1874731473214  18.3512872388393 14.5975097299107  18.715100015625 14.2340236071429  L 22.5407759107143 10.4082883125  C 23.4790220669643 9.47004215625  23.995937875 8.22288773660714  23.995937875 6.89633114508928  C 23.995937875 5.56977455357143  23.4790220669643 4.32262013392857  22.5407759107143 3.38467091741071  C 21.6025594397321 2.44612782142857  20.3554050200893 1.92956832366071  19.0288187433036 1.92956832366071  C 17.7019355267857 1.92956832366071  16.4550780178571 2.44612782142857  15.517158515625 3.38437397767857  L 11.69112628125 7.21010921428571  C 11.32734321875 7.57386259151786  10.7380033660714 7.57386259151786  10.3742499888393 7.21010921428571  C 10.0104669263393 6.84662309151786  10.0104669263393 6.25671904464286  10.3742499888393 5.893232921875  L 14.1999555982143 2.0675273125  C 15.4895726607143 0.777613310267858  17.2044694017857 0.0670322075892863  19.0285218325893 0.0670322075892863  C 20.852871203125 0.0670322075892863  22.5677976294643 0.777613281250001  23.8576522611607 2.0675273125  C 25.147863203125 3.35711468973214  25.8584443058036 5.07233805580357  25.8584443058036 6.89636080133929  C 25.8584443058036 8.72041323214286  25.1478632321429 10.4356069129464  23.8576522611607 11.7254912299107  L 20.0318872232143 15.5509295848214  Z M 11.6736363772321 23.9098930513393  C 10.38401934375 25.2000743080357  8.66879597767857 25.9105960111607  6.84447629241071 25.9105960111607  C 5.02015660714286 25.9105960111607  3.30493324107143 25.2000743080357  2.01501923883928 23.9098633660714  C -0.647239763392858 21.2472777388393  -0.647239763392858 16.9146632455357  2.01501923883928 14.2515728236607  L 5.84167503794643 10.42580784375  C 6.20545810044643 10.0620544665179  6.79539183258928 10.0620544665179  7.15855133035714 10.42580784375  C 7.52230470758928 10.78959090625  7.52230470758928 11.3791980133929  7.15855133035714 11.7426841361607  L 3.33222218526786 15.5684491160714  C 1.39601492410714 17.5052502566964  1.39601492410714 20.6564531584821  3.33222218526786 22.592957359375  C 4.27046834151786 23.531203515625  5.51762276116071 24.0480896383929  6.84447629241071 24.0480896383929  C 8.17138922321429 24.0480896383929  9.41851395758928 23.531203515625  10.3564334598214 22.592957359375  L 14.1824953794643 18.76725175  C 14.5462784419643 18.4034983727679  15.1355589241071 18.4034983727679  15.499371671875 18.76725175  C 15.863154734375 19.1307675580357  15.863154734375 19.7206419196429  15.499371671875 20.0840983571429  L 11.6736363772321 23.9098930513393  Z M 7.98479116964286 19.2572944107143  C 7.80285509598214 19.4391710558036  7.56458920982143 19.53012425  7.32635300892857 19.53012425  C 7.0880574375 19.53012425  6.84979155133929 19.4391710558036  6.66788516294643 19.2572943816964  C 6.30413178571428 18.8935410044643  6.30413178571428 18.3039338973214  6.66788516294643 17.9404180892857  L 16.6615117790179 7.94744475223214  C 17.02526515625 7.583691375  17.6145753236607 7.583691375  17.9783583861607 7.94744475223214  C 18.3421414486607 8.31122781473214  18.3421414486607 8.90086460714286  17.9783583861607 9.26435075892857  L 7.98479116964286 19.2572944107143  Z " fill-rule="nonzero" fill="#bbbbbb" stroke="none" transform="matrix(1 0 0 1 1014 1396 )" />
  </g>
</svg>