<?xml version="1.0" encoding="utf-8"?>
<svg version="1.1" xmlns:xlink="http://www.w3.org/1999/xlink" width="47px" height="47px" xmlns="http://www.w3.org/2000/svg">
  <g transform="matrix(1 0 0 1 -983 -258 )">
    <path d="M 1006.5 258  C 1019.66 258  1030 268.34  1030 281.5  C 1030 294.66  1019.66 305  1006.5 305  C 993.34 305  983 294.66  983 281.5  C 983 268.34  993.34 258  1006.5 258  Z " fill-rule="nonzero" fill="#ffffff" stroke="none" fill-opacity="0" />
    <path d="M 1006.5 258.5  C 1019.38 258.5  1029.5 268.62  1029.5 281.5  C 1029.5 294.38  1019.38 304.5  1006.5 304.5  C 993.62 304.5  983.5 294.38  983.5 281.5  C 983.5 268.62  993.62 258.5  1006.5 258.5  Z " stroke-width="1" stroke="#dbdbdb" fill="none" />
  </g>
</svg>