<?xml version="1.0" encoding="utf-8"?>
<svg version="1.1" xmlns:xlink="http://www.w3.org/1999/xlink" width="47px" height="47px" xmlns="http://www.w3.org/2000/svg">
  <g transform="matrix(1 0 0 1 -983 -339 )">
    <path d="M 1006.5 339  C 1019.66 339  1030 349.34  1030 362.5  C 1030 375.66  1019.66 386  1006.5 386  C 993.34 386  983 375.66  983 362.5  C 983 349.34  993.34 339  1006.5 339  Z " fill-rule="nonzero" fill="#ffffff" stroke="none" fill-opacity="0" />
    <path d="M 1006.5 339.5  C 1019.38 339.5  1029.5 349.62  1029.5 362.5  C 1029.5 375.38  1019.38 385.5  1006.5 385.5  C 993.62 385.5  983.5 375.38  983.5 362.5  C 983.5 349.62  993.62 339.5  1006.5 339.5  Z " stroke-width="1" stroke="#e3e1e1" fill="none" />
  </g>
</svg>