<?xml version="1.0" encoding="utf-8"?>
<svg version="1.1" xmlns:xlink="http://www.w3.org/1999/xlink" width="23px" height="23px" xmlns="http://www.w3.org/2000/svg">
  <g transform="matrix(1 0 0 1 -995 -271 )">
    <path d="M 16.3490418604651 19.9927370786517  C 15.2159441860465 20.9321707865169  13.8209674418605 21.4085033707865  12.1914976744186 21.4085033707865  C 11.9672744186047 21.4085033707865  11.7396279069767 21.4002337078652  11.5068465116279 21.3820404494382  C 11.4041488372093 21.3737707865169  11.3117209302326 21.3224988764045  11.2535255813953 21.2414561797753  C 11.1953302325581 21.1604134831461  11.1782139534884 21.0578696629213  11.2056 20.9619415730337  L 12.1178976744186 17.8757033707865  L 9.19272558139534 18.7456719101124  C 9.0712 18.7820584269663  8.93940465116279 18.7506337078652  8.8504 18.6629752808989  L 4.64321860465116 14.597608988764  C 4.56619534883721 14.5231820224719  4.53025116279069 14.4156764044944  4.54736744186046 14.3114786516854  L 5.12760930232558 10.8398741573034  L 1.89947906976744 12.1762516853933  C 1.81047441860465 12.2126382022472  1.7112 12.2126382022472  1.6221953488372 12.1729438202247  C 1.53490232558139 12.1349033707865  1.4681488372093 12.0621303370787  1.43733953488372 11.9728179775281  C 1.39112558139534 11.8338876404494  0.323069767441856 8.54256179775281  2.20586046511627 6.23863370786517  C 3.51354418604651 4.6392808988764  5.88928372093023 3.95124494382023  9.27146046511627 4.18941123595506  C 10.3395162790698 3.50799101123595  18.7487441860465 -1.71843595505618  22.3106418604651 0.580530337078651  C 22.3619906976744 0.613608988764044  22.4047813953488 0.661573033707865  22.4304558139535 0.716152808988763  C 24.3748651162791 4.74017078651685  19.7004093023256 13.1834966292135  19.1989023255814 14.0683505617978  C 19.1458418604651 14.6290337078652  18.7350511627907 18.0063640449438  16.3490418604651 19.9927370786517  Z M 12.9463255813953 17.4704898876404  L 11.9809674418605 20.7436224719101  C 13.5351255813954 20.7849707865169  14.8479441860465 20.3648719101124  15.8971720930233 19.4932494382022  C 18.2318325581395 17.5515325842697  18.5176744186046 13.984  18.5210976744186 13.9476134831461  C 18.5245209302326 13.8996494382022  18.5382139534884 13.8516853932584  18.563888372093 13.8103370786517  C 18.6152372093023 13.7210247191011  23.5977860465116 4.97999101123595  21.8502139534884 1.08332584269663  C 18.4440744186046 -0.936125842696629  9.64459534883721 4.74678651685393  9.55559069767441 4.80467415730337  C 9.4905488372093 4.84602247191011  9.41352558139535 4.86586966292135  9.33650232558139 4.86090786516854  C 6.1340465116279 4.6177797752809  3.91577674418604 5.21981123595506  2.74331162790697 6.65211685393258  C 1.4168 8.27297078651685  1.7848 10.5520898876404  1.99190697674418 11.4187505617978  L 5.42714418604651 9.99636853932584  C 5.46987275270898 9.97854834200777  5.51592007963598 9.96935601025361  5.56245857532007 9.96935601025361  C 5.75104712040648 9.96935601025361  5.90392834276193 10.1170839329791  5.90392834276193 10.2993155608154  C 5.90392834276193 10.3169498236235  5.90246537211856 10.3345557094049  5.89955348837209 10.3519640449438  L 5.24913488372092 14.2502831460674  L 9.18587906976744 18.0543280898876  L 12.5167069767442 17.0636224719101  C 12.6365209302325 17.0272359550562  12.7666046511628 17.0586606741573  12.8573209302326 17.1430112359551  C 12.9463255813953 17.2273617977528  12.9805581395349 17.3530606741573  12.9463255813953 17.4704898876404  Z M 0.851962790697675 20.4971865168539  C 0.783497674418605 20.5633438202247  0.696204651162791 20.5947685393258  0.608911627906978 20.5947685393258  C 0.420012839221755 20.594033762429  0.267282165633763 20.4458560275768  0.267282165633763 20.2633231348816  C 0.267282165633763 20.1755007421675  0.303352531398221 20.0912683245454  0.367572093023256 20.0291235955056  L 3.69326511627907 16.8155325842697  C 3.82677209302326 16.6865258426966  4.0441488372093 16.6865258426966  4.17765581395349 16.8155325842697  C 4.31116279069768 16.9445393258427  4.31116279069768 17.1545887640449  4.17765581395349 17.283595505618  L 0.851962790697675 20.4971865168539  Z M 3.15923720930232 22.6621842696629  C 3.09077209302325 22.7266876404494  3.00347906976744 22.7597662921348  2.91618604651163 22.7597662921348  C 2.72728725782641 22.759031515238  2.57455658423842 22.6108537803858  2.57455658423842 22.4283208876906  C 2.57455658423842 22.3404984949765  2.61062695000288 22.2562660773544  2.67484651162791 22.1941213483146  L 6.00053953488372 18.9805303370787  C 6.13404651162791 18.8515235955056  6.35142325581395 18.8515235955056  6.48493023255814 18.9805303370787  C 6.61843720930233 19.1095370786517  6.61843720930233 19.3195865168539  6.48493023255814 19.448593258427  L 3.15923720930232 22.6621842696629  Z " fill-rule="nonzero" fill="#aaaaaa" stroke="none" transform="matrix(1 0 0 1 995 271 )" />
  </g>
</svg>