<?xml version="1.0" encoding="utf-8"?>
<svg version="1.1" xmlns:xlink="http://www.w3.org/1999/xlink" width="6px" height="6px" xmlns="http://www.w3.org/2000/svg">
  <g transform="matrix(1 0 0 1 -1006 -277 )">
    <path d="M 5.9472 2.95968  C 5.9472 4.5552  4.64736 5.85504  3.05184 5.85504  C 1.4544 5.85504  0.156479999999998 4.5552  0.156479999999998 2.95968  C 0.156479999999998 1.36224  1.45632 0.0643199999999993  3.05184 0.0643199999999993  C 4.64928 0.0643199999999993  5.9472 1.36416  5.9472 2.95968  Z M 5.1792 2.95776  C 5.1792 1.78656  4.22496 0.8304  3.05184 0.8304  C 1.87872 0.8304  0.924479999999998 1.78464  0.924479999999998 2.95776  C 0.924479999999998 4.13088  1.87872 5.08512  3.05184 5.08512  C 4.22496 5.08512  5.1792 4.13088  5.1792 2.95776  Z " fill-rule="nonzero" fill="#aaaaaa" stroke="none" transform="matrix(1 0 0 1 1006 277 )" />
  </g>
</svg>