<?xml version="1.0" encoding="utf-8"?>
<svg version="1.1" xmlns:xlink="http://www.w3.org/1999/xlink" width="24px" height="17px" xmlns="http://www.w3.org/2000/svg">
  <g transform="matrix(1 0 0 1 -995 -354 )">
    <path d="M 17.926754075 10.0550908363095  C 17.926728475 11.0476064910714  18.72470265 11.855054453869  19.70554165 11.855054453869  C 20.686329475 11.855054453869  21.484252475 11.0476064657738  21.484252475 10.0550908363095  C 21.484252475 9.06265284523809  20.686329475 8.25523076190476  19.70554165 8.25523076190476  C 18.72470265 8.25523076190476  17.926754075 9.06265284523809  17.926754075 10.0550908363095  Z M 18.84772965 10.0550908363095  C 18.84770405 9.57651397023809  19.23251835 9.18717033184524  19.70554165 9.18717033184524  C 20.1784882 9.18717033184524  20.5632769 9.576539875  20.5632769 10.0550908363095  C 20.5632769 10.5337194613095  20.178488175 10.9231148839286  19.70554165 10.9231148839286  C 19.23254395 10.9231148839286  18.84772965 10.5337194613095  18.84772965 10.0550908363095  Z M 14.24226335 6.79029942559524  C 14.24226335 7.78278917559524  15.040160775 8.59026304315476  16.0209486 8.59026304315476  C 17.001736425 8.59026304315476  17.79963385 7.78281505505952  17.79963385 6.79029942559524  C 17.79963385 5.79786143452381  17.001736425 4.99043935119048  16.0209486 4.99043935119048  C 15.040160775 4.99043935119048  14.24226335 5.79786143452381  14.24226335 6.79029942559524  Z M 15.163238925 6.79027352083333  C 15.163238925 6.31172255952381  15.54800205 5.92235301636905  16.0209486 5.92235301636905  C 16.49389515 5.92235301636905  16.878658275 6.31172255952381  16.878658275 6.79027352083333  C 16.878658275 7.26890214583333  16.49389515 7.65829756845238  16.0209486 7.65829756845238  C 15.54800205 7.65829756845238  15.163238925 7.26890214583333  15.163238925 6.79027352083333  Z M 23.93399635 9.97634195386905  L 23.9336126 9.27526450892857  L 23.9336126 6.86772805059524  C 23.9336126 5.90182445386905  23.7716488 5.04837489583333  23.452249375 4.33106619494048  C 23.16513525 3.68631933779762  22.750107825 3.14682987797619  22.21865375 2.72763826190476  C 21.115452925 1.85741380208333  19.807053625 1.72748588839286  19.125327025 1.72748588839286  L 12.665067075 1.72748591369048  L 12.665067075 0.531134364583333  C 12.665067075 0.273789604166667  12.45889645 0.0651645669642858  12.204579275 0.0651645669642858  C 11.9502621 0.0651645669642858  11.744091475 0.273789604166667  11.744091475 0.531134364583333  L 11.744091475 1.72748591369048  L 4.9237301 1.72748591369048  C 4.2420035 1.72748591369048  2.9336042 1.85743970684524  1.830403375 2.72763828720238  C 1.298974875 3.14682987797619  0.8839219 3.68631933779762  0.596833325 4.3310662202381  C 0.2774083 5.04837492113095  0.1154701 5.90182447916667  0.1154701 6.86772807589286  L 0.1154701 9.27500566369048  L 0.11508635 9.97660084970238  L 0.11508635 13.8166837455357  C 0.11508635 15.4714460119048  1.4455379 16.8177103913691  3.08088355 16.8177103913691  L 4.2797635 16.8177103913691  C 4.360783775 16.8216711383929  4.707914825 16.8328026473214  5.123146875 16.7632437068452  C 5.78512365 16.6524464345238  6.2930161 16.4002273511905  6.6327026 16.013524202381  C 6.995515825 15.6004937708333  7.2065983 15.2916593497024  7.2505493 15.2257505014881  C 7.619476775 14.726748641369  8.169862 14.4233246473214  8.886662425 14.3237624270833  C 9.0329952 14.3034409761905  9.1858004 14.2899537276786  9.3535203 14.2826276383929  L 11.110920775 14.2826276383929  L 11.118825825 14.282679422619  L 11.128189075 14.2822911041667  C 11.1387803 14.2820840178571  12.182092125 14.2529350133929  12.65682945 14.8534406354167  C 12.81567215 15.0543771696429  13.105446875 15.0870468184524  13.304070625 14.9262354702381  C 13.502668775 14.76547590625  13.53485175 14.4722514568452  13.37600905 14.2712890431548  C 12.634981875 13.3339390461309  11.254158075 13.3463649077381  11.10360415 13.3506880684524  L 9.34372215 13.3506880684524  L 9.32453515 13.351102266369  C 9.1237369 13.3595673809524  8.9395162 13.3757469032738  8.76138417499999 13.4004950580357  C 7.78578962499999 13.5359628214286  7.02641967499999 13.9662600416667  6.50432884999999 14.6794009092262  L 6.490130475 14.6999294717262  C 6.48823735 14.702802952381  6.29792799999999 14.9918595431548  5.94437569999999 15.3943538958333  C 5.54080932499999 15.8537483363095  4.63513217499999 15.9053415401786  4.32123299999999 15.8867027604167  L 4.30654855 15.8857449419643  L 3.08088354999999 15.8857449419643  C 1.953353625 15.8857449419643  1.03606195 14.9575849122024  1.03606195 13.8166578660714  L 1.03606195 9.97685969494048  L 1.0364457 9.27526450892857  L 1.0364457 6.86772805059524  C 1.0364457 5.32021650744048  1.494093825 4.17457800744048  2.3966243 3.46262794940476  C 3.2826028 2.76375094196429  4.360220975 2.65939957886905  4.923730125 2.65939957886905  L 19.12530145 2.65939957886905  C 19.6888106 2.65939957886905  20.766428775 2.76375091666667  21.652407275 3.46262794940476  C 22.55496335 4.17457800744048  23.01261145 5.32021650744048  23.01261145 6.86772805059524  L 23.01261145 9.27552337946429  L 23.0129952 9.97660079910714  L 23.0129952 13.8166836949405  C 23.0129952 14.9575848363095  22.095703525 15.8857707708333  20.9681736 15.8857707708333  L 19.75719305 15.8857707708333  L 19.72782415 15.8867285892857  C 19.43564465 15.9057039032738  18.50998745 15.8557933705357  18.104707025 15.3943797247024  C 17.75112915 14.9918853720238  17.560819775 14.70282878125  17.559284825 14.7004730416667  L 17.544753875 14.6794267380952  C 17.02266305 13.9662858705357  16.263267525 13.5359886502976  15.2878009 13.4005467663691  C 15.14745445 13.3810019270833  14.805542275 13.3702587366071  14.373144225 13.3582211681548  C 14.26958565 13.3553476875  14.184804725 13.353017827381  14.1399839 13.3511280699405  C 13.885948125 13.3404107589286  13.67130965 13.540156483631  13.66071845 13.7972682529762  C 13.65012725 14.0543800223214  13.847523 14.2715219583333  14.101609925 14.2822392440476  C 14.150958875 14.2843102083333  14.237837575 14.2867436116071  14.347842975 14.2897982991071  C 14.56115115 14.2957264672619  15.06070365 14.3096537931548  15.16249705 14.3237882053571  C 15.87916955 14.4233245208333  16.429554775 14.726748514881  16.798507825 15.2257244955357  C 16.842458825 15.2916074389881  17.053515725 15.600467764881  17.4163801 16.0135499806548  C 17.756041 16.4002013452381  18.26393345 16.6524463333333  18.92591025 16.7632436056548  C 19.21292205 16.8112902604167  19.46736715 16.8208167619048  19.6239074 16.8208167619048  C 19.693850375 16.8208167619048  19.7442738 16.8189270044643  19.769293625 16.8177102901786  L 20.968199175 16.8177102901786  C 22.6035448 16.8177102901786  23.933996375 15.4714459107143  23.933996375 13.8166836443452  L 23.93399635 9.97634195386905  Z M 5.64948445 11.1090368511905  C 5.648947225 11.3664074910714  5.854682925 11.575498485119  6.1090001 11.5760162261905  C 6.363828925 11.5760162261905  6.5699228 11.3680383779762  6.570460025 11.1110301517857  L 6.5759603 8.44708087202381  L 9.202608225 8.44104916071429  C 9.4569254 8.44047963541667  9.66260995 8.23136276190476  9.662047125 7.9740180014881  C 9.6614843 7.71700977529762  9.4554416 7.50910959077381  9.201584925 7.50910959077381  C 9.201226775 7.50910959077381  9.2008686 7.50910959077381  9.20051045 7.50910959077381  L 6.577879 7.51514130208333  L 6.583379275 4.85517867410714  C 6.5839165 4.59783391369048  6.3781808 4.38876879910714  6.123863625 4.38822517857143  C 5.869009225 4.38822517857143  5.662940925 4.59622890625  5.6624037 4.85321125297619  L 5.656903425 7.51723819642857  L 3.0302555 7.5232699077381  C 2.775938325 7.52383943303572  2.570253775 7.73295630654762  2.5708166 7.99030106696429  C 2.571379425 8.24730929315476  2.777422125 8.45520947767857  3.0312788 8.45520947767857  C 3.031611375 8.45520947767857  3.031995125 8.45520947767857  3.032353275 8.45520947767857  L 5.654984725 8.44917776636905  L 5.64948445 11.1090368511905  Z " fill-rule="nonzero" fill="#cecece" stroke="none" transform="matrix(1 0 0 1 995 354 )" />
  </g>
</svg>