<?xml version="1.0" encoding="utf-8"?>
<svg version="1.1" xmlns:xlink="http://www.w3.org/1999/xlink" width="9px" height="9px" xmlns="http://www.w3.org/2000/svg">
  <g transform="matrix(1 0 0 1 -1002 -435 )">
    <path d="M 8.915625 4.48235294117647  C 8.915625 6.94632352941176  6.95120192307692 8.94926470588235  4.53894230769231 8.94926470588235  C 2.12451923076923 8.94926470588235  0.162259615384615 6.94632352941176  0.162259615384615 4.48235294117647  C 0.162259615384615 2.02058823529412  2.12668269230769 0.0154411764705892  4.53894230769231 0.0154411764705892  C 6.95336538461538 0.0154411764705892  8.915625 2.01838235294118  8.915625 4.48235294117647  Z M 7.61754807692308 4.48455882352941  C 7.61754807692308 2.75073529411765  6.23725961538462 1.34117647058824  4.53894230769231 1.34117647058824  C 2.840625 1.34117647058824  1.46033653846154 2.75073529411765  1.46033653846154 4.48455882352941  C 1.46033653846154 6.21838235294118  2.84278846153846 7.62794117647059  4.53894230769231 7.62794117647059  C 6.23509615384615 7.62794117647059  7.61754807692308 6.21838235294118  7.61754807692308 4.48455882352941  Z " fill-rule="nonzero" fill="#cecece" stroke="none" transform="matrix(1 0 0 1 1002 435 )" />
  </g>
</svg>