<?xml version="1.0" encoding="utf-8"?>
<svg version="1.1" xmlns:xlink="http://www.w3.org/1999/xlink" width="18px" height="10px" xmlns="http://www.w3.org/2000/svg">
  <g transform="matrix(1 0 0 1 -998 -443 )">
    <path d="M 8.57109375 8.44907407407407  L 8.57109375 9.83796296296296  L 0.00937500000000013 9.83796296296296  L 0.00937500000000013 9.14351851851852  C 0.00937500000000013 6.72453703703704  0.88359375 4.44675925925926  2.46796875 2.73148148148148  C 3.24375 1.8912037037037  4.15078125 1.23148148148148  5.1609375 0.768518518518518  C 6.2109375 0.287037037037037  7.32890625 0.043981481481481  8.4796875 0.043981481481481  L 8.4796875 1.43287037037037  C 6.6046875 1.43287037037037  4.83984375 2.22685185185185  3.50625 3.66898148148148  C 2.30859375 4.96296296296296  1.5890625 6.6412037037037  1.44375 8.44907407407407  L 8.57109375 8.44907407407407  Z M 17.97421875 6.59259259259259  C 17.97421875 8.35879629629629  16.51875 9.80092592592593  14.728125 9.80092592592593  C 12.9375 9.80092592592593  11.48203125 8.36111111111111  11.48203125 6.59490740740741  C 11.48203125 4.8287037037037  12.9375 3.38657407407407  14.728125 3.38657407407407  C 16.51875 3.38657407407407  17.97421875 4.82638888888889  17.97421875 6.59259259259259  Z M 16.56796875 6.59259259259259  C 16.56796875 5.59027777777778  15.74296875 4.77546296296296  14.728125 4.77546296296296  C 13.71328125 4.77546296296296  12.88828125 5.59027777777778  12.88828125 6.59259259259259  C 12.88828125 7.5949074074074  13.71328125 8.40972222222222  14.728125 8.40972222222222  C 15.74296875 8.40972222222222  16.56796875 7.5949074074074  16.56796875 6.59259259259259  Z " fill-rule="nonzero" fill="#cecece" stroke="none" transform="matrix(1 0 0 1 998 443 )" />
  </g>
</svg>