<?xml version="1.0" encoding="utf-8"?>
<svg version="1.1" xmlns:xlink="http://www.w3.org/1999/xlink" width="20px" height="18px" xmlns="http://www.w3.org/2000/svg">
  <g transform="matrix(1 0 0 1 -169 -1726 )">
    <path d="M 19.58 17.622  C 20.02 17.19  20.02 16.542  19.56 16.128  L 14.28 11.376  C 14.18 11.286  14.06 11.214  13.94 11.16  C 14.9 10.008  15.48 8.568  15.48 7.002  C 15.48 3.186  12.04 0.09  7.8 0.09  C 3.56 0.09  0.1 3.186  0.1 7.02  C 0.1 10.836  3.54 13.95  7.8 13.95  C 9.54 13.95  11.14 13.428  12.42 12.564  C 12.48 12.672  12.56 12.78  12.66 12.87  L 17.94 17.622  C 18.4 18.036  19.12 18.036  19.58 17.622  Z M 13.94 7.02  C 13.94 10.062  11.18 12.546  7.8 12.546  C 4.4 12.546  1.64 10.062  1.64 7.02  C 1.64 3.96  4.4 1.476  7.8 1.476  C 11.2 1.476  13.94 3.96  13.94 7.02  Z " fill-rule="nonzero" fill="#bbbbbb" stroke="none" transform="matrix(1 0 0 1 169 1726 )" />
  </g>
</svg>