<?xml version="1.0" encoding="utf-8"?>
<svg version="1.1" xmlns:xlink="http://www.w3.org/1999/xlink" width="39px" height="30px" xmlns="http://www.w3.org/2000/svg">
  <defs>
    <mask fill="white" id="clip14">
      <path d="M 13.8 29.5  C 23.3 29.5  29 20.8  38.5 15  C 29 9.19999999999999  23.3 0.500000000000002  13.8 0.500000000000002  C 8.85999999999996 0.500000000000002  0.499999999999998 3.39999999999998  0.499999999999998 15  C 0.499999999999998 26.6  8.85999999999996 29.5  13.8 29.5  Z " fill-rule="evenodd" />
    </mask>
  </defs>
  <g transform="matrix(1 0 0 1 -187 -111 )">
    <path d="M 13.8 29.5  C 23.3 29.5  29 20.8  38.5 15  C 29 9.19999999999999  23.3 0.500000000000002  13.8 0.500000000000002  C 8.85999999999996 0.500000000000002  0.499999999999998 3.39999999999998  0.499999999999998 15  C 0.499999999999998 26.6  8.85999999999996 29.5  13.8 29.5  Z " fill-rule="nonzero" fill="#ffbf60" stroke="none" transform="matrix(1 0 0 1 187 111 )" />
    <path d="M 13.8 29.5  C 23.3 29.5  29 20.8  38.5 15  C 29 9.19999999999999  23.3 0.500000000000002  13.8 0.500000000000002  C 8.85999999999996 0.500000000000002  0.499999999999998 3.39999999999998  0.499999999999998 15  C 0.499999999999998 26.6  8.85999999999996 29.5  13.8 29.5  Z " stroke-width="2" stroke="#ffffff" fill="none" transform="matrix(1 0 0 1 187 111 )" mask="url(#clip14)" />
  </g>
</svg>