<?xml version="1.0" encoding="utf-8"?>
<svg version="1.1" xmlns:xlink="http://www.w3.org/1999/xlink" width="106px" height="12px" preserveAspectRatio="xMinYMid meet" viewBox="1330 2041  106 10" xmlns="http://www.w3.org/2000/svg">
  <path d="M 1334 2046.5  L 1430.5 2046.5  " stroke-width="3" stroke="#1890ff" fill="none" />
  <path d="M 1335 2042.5  A 4 4 0 0 0 1331 2046.5 A 4 4 0 0 0 1335 2050.5 A 4 4 0 0 0 1339 2046.5 A 4 4 0 0 0 1335 2042.5 Z M 1427.5 2042.5  A 4 4 0 0 0 1423.5 2046.5 A 4 4 0 0 0 1427.5 2050.5 A 4 4 0 0 0 1431.5 2046.5 A 4 4 0 0 0 1427.5 2042.5 Z " fill-rule="nonzero" fill="#1890ff" stroke="none" />
</svg>