<?xml version="1.0" encoding="utf-8"?>
<svg version="1.1" xmlns:xlink="http://www.w3.org/1999/xlink" width="12px" height="10px" preserveAspectRatio="xMinYMid meet" viewBox="604 2442  12 8" xmlns="http://www.w3.org/2000/svg">
  <path d="M 454 2447.5  L 610.5 2447.5  L 610.5 2449  " stroke-width="3" stroke="#1890ff" fill="none" />
  <path d="M 455 2443.5  A 4 4 0 0 0 451 2447.5 A 4 4 0 0 0 455 2451.5 A 4 4 0 0 0 459 2447.5 A 4 4 0 0 0 455 2443.5 Z M 610.5 2444  A 4 4 0 0 0 606.5 2448 A 4 4 0 0 0 610.5 2452 A 4 4 0 0 0 614.5 2448 A 4 4 0 0 0 610.5 2444 Z " fill-rule="nonzero" fill="#1890ff" stroke="none" />
</svg>