<?xml version="1.0" encoding="utf-8"?>
<svg version="1.1" xmlns:xlink="http://www.w3.org/1999/xlink" width="12px" height="7px" preserveAspectRatio="xMinYMid meet" viewBox="604 2119  12 5" xmlns="http://www.w3.org/2000/svg">
  <path d="M 373 2119.5  L 610.5 2119.5  " stroke-width="3" stroke="#1890ff" fill="none" />
  <path d="M 374 2115.5  A 4 4 0 0 0 370 2119.5 A 4 4 0 0 0 374 2123.5 A 4 4 0 0 0 378 2119.5 A 4 4 0 0 0 374 2115.5 Z M 607.5 2115.5  A 4 4 0 0 0 603.5 2119.5 A 4 4 0 0 0 607.5 2123.5 A 4 4 0 0 0 611.5 2119.5 A 4 4 0 0 0 607.5 2115.5 Z " fill-rule="nonzero" fill="#1890ff" stroke="none" />
</svg>