<?xml version="1.0" encoding="utf-8"?>
<svg version="1.1" xmlns:xlink="http://www.w3.org/1999/xlink" width="39px" height="30px" xmlns="http://www.w3.org/2000/svg">
  <defs>
    <mask fill="white" id="clip10">
      <path d="M 25.2 0.5  C 15.7 0.5  10 9.19999999999999  0.499999999999998 15  C 10 20.8  15.7 29.5  25.2 29.5  C 30.14 29.5  38.5 26.6  38.5 15  C 38.5 3.39999999999998  30.14 0.5  25.2 0.5  Z " fill-rule="evenodd" />
    </mask>
  </defs>
  <g transform="matrix(1 0 0 1 -1861 -284 )">
    <path d="M 25.2 0.5  C 15.7 0.5  10 9.19999999999999  0.499999999999998 15  C 10 20.8  15.7 29.5  25.2 29.5  C 30.14 29.5  38.5 26.6  38.5 15  C 38.5 3.39999999999998  30.14 0.5  25.2 0.5  Z " fill-rule="nonzero" fill="#ffbf60" stroke="none" transform="matrix(1 0 0 1 1861 284 )" />
    <path d="M 25.2 0.5  C 15.7 0.5  10 9.19999999999999  0.499999999999998 15  C 10 20.8  15.7 29.5  25.2 29.5  C 30.14 29.5  38.5 26.6  38.5 15  C 38.5 3.39999999999998  30.14 0.5  25.2 0.5  Z " stroke-width="2" stroke="#ffffff" fill="none" transform="matrix(1 0 0 1 1861 284 )" mask="url(#clip10)" />
  </g>
</svg>