<?xml version="1.0" encoding="utf-8"?>
<svg version="1.1" xmlns:xlink="http://www.w3.org/1999/xlink" width="30px" height="26px" xmlns="http://www.w3.org/2000/svg">
  <g transform="matrix(1 0 0 1 -727 -2044 )">
    <path d="M 21.4907349557522 14.1883504046392  C 21.4907349557522 13.601339257732  21.0194141482301 13.1254834046392  20.4379973893805 13  L 9.80796275442478 13  C 9.22654599557522 13.1254834046392  8.7552251880531 13.601339257732  8.7552251880531 14.1883504046392  L 8.7552251880531 14.2056305541237  C 8.7552251880531 14.7926417010309  9.22654599557522 15.2684975541237  9.80796275442478 15  L 20.4379973893805 15  C 21.0194141482301 15.2684975541237  21.4907349557522 14.7926417010309  21.4907349557522 14.2056305541237  L 21.4907349557522 14.1883504046392  Z M 15.1144393141593 19.5545259201031  C 14.5330225553097 19.5545259201031  14.0617017477876 20.0303817731959  14.0617017477876 20.6173929201031  L 14.0617017477876 24.9207014020619  C 14.0617017477876 25.5077125489691  14.5330225553097 25.9835684020619  15.1144393141593 25.983568435567  L 15.1315547787611 25.983568435567  C 15.7129715376106 25.983568435567  16.1842923451327 25.5077125824742  16.1842923451327 24.9207014020619  L 16.1842923451327 20.6173929201031  C 16.1842923451327 20.0303817731959  15.7129715376106 19.5545259201031  15.1315547787611 19.5545259201031  L 15.1144393141593 19.5545259201031  Z M 21.4907349557522 24.9034212525773  C 21.4907349557522 24.3164101056701  21.0194141482301 23.8405542525773  20.4379973893805 23.8405542525773  L 9.80796275442478 23.8405542525773  C 9.22654599557522 23.8405542525773  8.7552251880531 24.3164101056701  8.7552251880531 24.9034212525773  L 8.7552251880531 24.9207014020619  C 8.7552251880531 25.5077125489691  9.22654599557522 25.9835684020619  9.80796275442478 26  L 20.4379973893805 26  C 21.0194141482301 25.983568435567  21.4907349557522 25.5077125824742  21.4907349557522 24.9207014020619  L 21.4907349557522 24.9034212525773  Z M 23.6133255530973 7.75930788917526  C 23.6133255530973 7.17233101804124  23.1420047455752 6.69644088917526  22.5605879867257 7  L 7.68537215707964 7  C 7.10395539823009 6.69644088917526  6.63263459070796 7.17229674226804  6.63263459070796 7.75930788917526  L 6.63263459070796 7.77658803865979  C 6.63263459070796 8.36359918556701  7.10395539823009 8.83945503865979  7.68537215707964 9  L 22.5605879867257 9  C 23.1420047455752 8.83945507216495  23.6133255530973 8.36359921907216  23.6133255530973 7.77658803865979  L 23.6133255530973 7.75930788917526  Z M 30 2.41030969587629  C 29.9809615818584 1.22682444072165  29.0307131084071 0.267432682989691  27.8585068141593 0.267432649484536  L 2.3873175 0.267432649484536  C 1.21511120575221 0.267432649484536  0.264862732300885 1.2268244072165  0.264862732300885 2.41030969587629  L 0.264862732300885 19.554663056701  C 0.264862732300885 20.7381483118557  1.21511120575221 21.6975400695876  2.3873175 21.6975400695876  L 27.8585068141593 21.6975400695876  C 29.0307131084071 21.6975400695876  29.9809615818584 20.7381483118557  30 19.554663056701  L 30 2.41030969587629  Z M 27.8585068141593 3.47317669587629  L 27.8585068141593 4.55332384536082  L 27.8585068141593 19.5544230592784  L 27.8585068141593 18.4918303324742  C 27.8585068141593 19.0788414793814  27.3871860066372 19.5546973324742  26.8057692146018 19.5546973324742  L 3.44019092920354 19.5546973324742  C 2.85877417035398 19.5546973324742  2.38745336283186 19.0788414793814  2.38745332964602 18.4918303324742  L 2.38745332964602 19.5544230592784  L 2.38745332964602 3.47317669587629  C 2.38745332964602 2.88616554896907  2.85877413716814 2.41030969587629  3.44019092920354 2.41030969587629  L 26.8057692146018 2.41030969587629  C 27.3871859734513 2.41030969587629  27.8585067809734 2.88616554896907  27.8585068141593 3.47317669587629  Z " fill-rule="nonzero" fill="#5d5d5d" stroke="none" transform="matrix(1 0 0 1 727 2044 )" />
  </g>
</svg>