<?xml version="1.0" encoding="utf-8"?>
<svg version="1.1" xmlns:xlink="http://www.w3.org/1999/xlink" width="15px" height="8px" xmlns="http://www.w3.org/2000/svg">
  <g transform="matrix(1 0 0 1 -739 -2115 )">
    <path d="M 14.7969544017857 7.84305375  C 14.7898319464286 5.496442475  13.2941165357143 3.46226955  11.0719108125 2.392002075  L 12.2043810535714 0.464191125  C 12.2613606964286 0.364476775  12.2257484196429 0.231524275  12.1189115892857 0.178343275  C 12.0049523303571 0.125162275  11.8696256785714 0.1584004  11.8126460625 0.2647624  L 10.6730533928571 2.212516225  C 9.71152205357143 1.813658775  8.63603148214286 1.587639575  7.50356121428571 1.5942872  C 6.37109097321428 1.5942872  5.295600375 1.8136588  4.34119151785714 2.212516225  L 3.20159884821428 0.271410025  C 3.14461920535714 0.171695675  3.002170125 0.131809925  2.89533332142857 0.1849909  C 2.78849651785714 0.238171875  2.74576178571428 0.371124375  2.80274140178571 0.47083875  L 3.93521164285714 2.3986497  C 1.71300589285714 3.468917175  0.210168053571428 5.5030901  0.210168053571428 7.84305375  L 14.7969544017857 7.84305375  Z M 4.78990615178571 4.798441975  C 4.78990615178571 5.1108803  4.51925290178571 5.37013765  4.17737507142857 5.370137625  C 3.84261972321428 5.370137625  3.56484399107143 5.117527925  3.56484401785714 4.798441975  C 3.56484401785714 4.48600365  3.83549726785714 4.2267463  4.17737507142857 4.2267463  C 4.51213041964285 4.2267463  4.78990615178571 4.486003625  4.78990615178571 4.798441975  Z M 11.4351559821429 4.798441975  C 11.4351559821429 5.1108803  11.1573802767857 5.37013765  10.8226249285714 5.370137625  C 10.4878695803571 5.370137625  10.2100938482143 5.117527925  10.2100938482143 4.798441975  C 10.2100938482143 4.48600365  10.4807470982143 4.2267463  10.8226249285714 4.2267463  C 11.1573802767857 4.2267463  11.4351560089286 4.486003625  11.4351559821429 4.798441975  Z " fill-rule="nonzero" fill="#ffffff" stroke="none" transform="matrix(1 0 0 1 739 2115 )" />
  </g>
</svg>