<?xml version="1.0" encoding="utf-8"?>
<svg version="1.1" xmlns:xlink="http://www.w3.org/1999/xlink" width="18px" height="18px" xmlns="http://www.w3.org/2000/svg">
  <g transform="matrix(1 0 0 1 -739 -2123 )">
    <path d="M 0 1  L 0 11.1380832672414  C 0.0498921825842696 12.0595815  0.77590236235955 12.8091583965517  1.68341508707865 12.8091583965517  L 2.79259728370787 12.8091583965517  L 2.79259728370787 16.2750920172414  C 2.79259728370787 17.1346985689655  3.47827355898876 17.8361375172414  4.31856310955056 17.8361374913793  C 5.16557497752809 17.8361374913793  5.84452893539326 17.1346985431034  5.84452893539326 16.2682151637931  L 5.84452893539326 12.8022815431034  L 7.90828005337079 12.8022815431034  L 7.90828005337079 16.2682151637931  C 7.90828005337079 17.1278217155172  8.59395632865169 17.8292606637931  9.43424587921348 17.829260637931  C 10.281257747191 17.829260637931  10.9602117050562 17.1278216896552  10.9602117050562 16.2682151637931  L 10.9602117050562 12.8022815431034  L 12.0761162191011 12.8022815431034  C 12.9769066264045 12.8022815431034  13.7096390983146 12.0527046206896  13.7096391235955 11.1312064137931  L 13.7096391235955 1  L 0 1  Z M 17.9178091685393 8.80683028448276  C 17.9178091685393 9.98964889655172  16.9834071994382 10.9455313706897  15.8271687808989 10.9455313965517  C 14.6776526797753 10.9455313965517  13.7365283932584 9.98964892241379  13.7365283679775 8.80683028448276  L 13.7365283679775 2.26006681034483  C 13.7365283679775 1.07724819827586  14.6709303370786 0.12136572413793  15.8271687808989 0.121365698275861  C 16.9834071994382 0.121365698275861  17.9178091685393 1.07724817241379  17.9178091685393 2.26006681034483  L 17.9178091685393 8.80683028448276  Z " fill-rule="nonzero" fill="#ffffff" stroke="none" transform="matrix(1 0 0 1 739 2123 )" />
  </g>
</svg>