<?xml version="1.0" encoding="utf-8"?>
<svg version="1.1" xmlns:xlink="http://www.w3.org/1999/xlink" width="18px" height="18px" xmlns="http://www.w3.org/2000/svg">
  <g transform="matrix(1 0 0 1 -736 -2115 )">
    <path d="M 3.09205547191011 9.98473125  C 3.09205547191011 9.15377825  2.40637919662921 8.4757206  1.56608964606742 8.4757206  C 0.719077778089887 8.4757206  0.0401238202247191 9.15377825  0.0401238202247191 9.98473125  L 0.0401238202247191 16.313269275  C 0.0401238202247191 17.1508699  0.725800095505618 17.822279925  1.56608964606742 17.82892755  C 2.41310151404494 17.82892755  3.09205547191011 17.1508699  3.09205547191011 16.313269275  L 3.09205547191011 9.98473125  Z M 17.9618193455056 8.24305375  L 17.9618193455056 9  L 3.06516620224719 9  L 3.06516620224719 8.2297585  C 3.06516620224719 5.949623475  4.32223935674157 3.829031425  6.37926818258427 2.572630475  L 5.57931253651685 1.1367437  C 5.4784778005618 0.9705531  5.45831084831461 0.7511815  5.51208936235955 0.558400425  C 5.57259021910112 0.365619325  5.70703654213483 0.1927811  5.88853908707865 0.0997143500000001  C 6.00281848314607 0.033238125  6.13054248876404 0  6.25826649438202 0  C 6.5406037752809 0  6.80277412921348 0.15289535  6.93722045224719 0.39885745  L 7.77751000280899 1.907868075  C 8.64468882303371 1.59542975  9.55892383988764 1.435886775  10.5067704691011 1.435886775  C 11.4680617078652 1.435886775  12.3890190674157 1.59542975  13.2561978623596 1.9145157  L 14.0897650955056 0.39885745  C 14.2242114185393 0.15289535  14.4863817724719 0  14.7687190533708 0  C 14.8964430589888 0  15.0241670646067 0.033238125  15.1384464606742 0.093066725  C 15.3266713230337 0.192781075  15.4611176460674 0.358971675  15.5148961853933 0.558400425  C 15.5753970421348 0.75782915  15.5485077724719 0.9639055  15.447673011236 1.143391325  L 14.6477173651685 2.585925725  C 16.7047461657303 3.842326675  17.9618193455056 5.962918725  17.9618193455056 8.24305375  Z " fill-rule="nonzero" fill="#ffffff" stroke="none" transform="matrix(1 0 0 1 736 2115 )" />
  </g>
</svg>