<?xml version="1.0" encoding="utf-8"?>
<svg version="1.1" xmlns:xlink="http://www.w3.org/1999/xlink" width="21px" height="25px" xmlns="http://www.w3.org/2000/svg">
  <g transform="matrix(1 0 0 1 -736 -2115 )">
    <path d="M 3.08710025480769 9.66202746975806  C 3.08710025480769 8.8243732358871  2.40252281971154 8.14084737903226  1.56357988701923 8.14084737903226  C 0.717925409855769 8.14084737903226  0.0400595192307692 8.8243732358871  0.0400595192307692 9.66202746975807  L 0.0400595192307692 16.0416020917339  C 0.0400595192307692 16.8859575604839  0.724636954326923 17.5627821824597  1.56357988701923 17.5627821824597  C 2.40923436418269 17.5627821824597  3.08710025480769 16.8792563256048  3.08710025480769 16.0416020917339  L 3.08710025480769 9.66202746975806  Z M 17.36926471875 8  C 17.36926471875 5.54076862399193  15.9598405817308 3.49019105342742  13.8658390348558 2.41129241431452  L 14.9329744543269 0.467934601814516  C 14.9866668100962 0.367416103830645  14.9531090877404 0.240092641129032  14.8524359206731 0.179781527217742  C 14.7517627788462 0.126171648185484  14.6175318894231 0.159677822580645  14.5638395588942 0.266897580645161  L 13.4899926201923 2.23035909778226  C 12.5839342427885 1.82828505544355  11.5704912043269 1.60044311995968  10.4966442403846 1.60044311995968  C 9.42950882091346 1.60044311995968  8.41606575721154 1.82158384576613  7.51671892427884 2.22365786290323  L 6.44287198557692 0.266897580645161  C 6.38917962980769 0.16637908266129  6.254948765625 0.126171673387097  6.15427562379808 0.179781527217742  C 6.05360248197115 0.233391381048387  6.01333321514423 0.367416078629032  6.06702554567308 0.467934601814516  L 7.13416096514423 2.41129241431452  C 5.04015941826923 3.49019107862903  3.62402373677884 5.54076862399194  3.62402373677884 8  L 17.36926471875 8  Z M 7.94625771995192 4.83713908770161  C 7.94625771995192 5.1520970766129  7.69121908052884 5.41344521169355  7.36906497115384 5.41344518649194  C 7.05362243149038 5.41344518649194  6.79187222235576 5.15879831149193  6.79187224759615 4.83713908770161  C 6.79187224759615 4.52218109879032  7.04691088701923 4.26083296370968  7.36906497115384 4.26083296370968  C 7.6845075108173 4.26083296370968  7.94625771995192 4.52218107358871  7.94625771995192 4.83713908770161  Z M 14.2081277524038 4.83713908770161  C 14.2081277524038 5.1520970766129  13.9463775685096 5.41344521169355  13.6309350288461 5.41344518649194  C 13.3154924891827 5.41344518649194  13.0537422800481 5.15879831149193  13.0537422800481 4.83713908770161  C 13.0537422800481 4.52218109879032  13.3087809194711 4.26083296370968  13.6309350288461 4.26083296370968  C 13.9463775685096 4.26083296370968  14.2081277776442 4.52218107358871  14.2081277524038 4.83713908770161  Z M 17.3155723882211 8.42229919354839  L 3.67771606730769 8.42900042842742  L 3.67771606730769 18.3200216229839  C 3.67771606730769 19.2179869707661  4.40256276923076 19.9484214465726  5.30862114663461 19.9484214465726  L 6.4160258076923 19.9484214465726  L 6.4160258076923 23.325843296371  C 6.4160258076923 24.1634975302419  7.10060324278846 24.8470233870968  7.93954617548076 24.8470233870968  C 8.78520065264423 24.8470233870968  9.46306654326923 24.1634975302419  9.46306654326923 23.3191420866935  L 9.46306654326923 19.9417202116935  L 11.5235103677885 19.9417202116935  L 11.5235103677885 23.3191420866935  C 11.5235103677885 24.1567963205645  12.2080878028846 24.8403221774194  13.0470307355769 24.8403221522177  C 13.8926852127404 24.8403221522177  14.5705511033654 24.1567962953629  14.5705511033654 23.3191420866935  L 14.5705511033654 19.9417202116935  L 15.6846673088942 19.9417202116935  C 16.5840141418269 19.9417202116935  17.3155723629808 19.2179869455645  17.3155723882211 18.3133203881048  L 17.3155723882211 8.42229919354839  Z M 20.9666520252404 16.0416020917339  L 20.9666520252404 9.66202746975806  C 20.9666520252404 8.81767200100806  20.2820745901442 8.14084737903226  19.4431316574519 8.14084737903226  C 18.5974771802885 8.14084737903226  17.9196112896635 8.82437323588709  17.9196112896635 9.66202746975806  L 17.9196112896635 16.0416020917339  C 17.9196112896635 16.8859575604839  18.6041887247596 17.5627821824597  19.4431316574519 17.5627821824597  C 20.2887861346154 17.5627821824597  20.9666520252404 16.8792563256048  20.9666520252404 16.0416020917339  Z " fill-rule="nonzero" fill="#a4c439" stroke="none" transform="matrix(1 0 0 1 736 2115 )" />
  </g>
</svg>