<?xml version="1.0" encoding="utf-8"?>
<svg version="1.1" xmlns:xlink="http://www.w3.org/1999/xlink" width="15px" height="18px" xmlns="http://www.w3.org/2000/svg">
  <g transform="matrix(1 0 0 1 -738 -2123 )">
    <path d="M 7.03848420608108 15.8612989137931  C 7.03174674831081 17.0372406724138  6.0885028125 18  4.93639771114865 18  C 3.7842926097973 18  2.84104867398649 17.0441175258621  2.84104864864865 15.8612989137931  L 2.84104864864865 12.9730208793103  L 2.28857721283784 12.9730208793103  C 1.70241848817568 12.9730208793103  1.14994702702703 12.739207887931  0.732224695945946 12.3197199051724  C 0.314502364864865 11.8933550431034  0.0854288513513519 11.3363300172414  0 10.7311670172414  L 0 0  L 15 0  L 15 10.7311670172414  C 14.9213086064189 11.9690004568966  13.9376399239865 12.9730209051724  12.7248977027027 12.9730208793103  L 12.1724262668919 12.9730208793103  L 12.1724262668919 15.8612989137931  C 12.1724262668919 17.0372406724138  11.2359197888514 18  10.0770772043919 18  C 9.51786828547297 18  8.9923466554054 17.7799407155172  8.59483672297297 17.3742064396552  C 8.1973267652027 16.968472137931  7.98172816722973 16.4320776724138  7.98172816722973 15.8612989137931  L 7.98172816722973 12.9730208793103  L 7.03848420608108 12.9730208793103  L 7.03848420608108 15.8612989137931  Z " fill-rule="nonzero" fill="#ffffff" stroke="none" transform="matrix(1 0 0 1 738 2123 )" />
  </g>
</svg>