<?xml version="1.0" encoding="utf-8"?>
<svg version="1.1" xmlns:xlink="http://www.w3.org/1999/xlink" width="29px" height="25px" xmlns="http://www.w3.org/2000/svg">
  <g transform="matrix(1 0 0 1 -962 -2045 )">
    <path d="M 20.7743771238938 13.6426446198454  C 20.7743771238938 13.0782108247423  20.3187670099558 12.6206571198454  19.7567308097345 12.6206571198454  L 9.48103066261062 12.6206571198454  C 8.91899446238938 12.6206571198454  8.46338434845133 13.0782108247423  8.46338434845133 13.6426446198454  L 8.46338434845133 13.6592601481959  C 8.46338434845133 14.223693943299  8.91899446238938 14.6812476481959  9.48103066261062 14.6812476481959  L 19.7567308097345 14.6812476481959  C 20.3187670099558 14.6812476481959  20.7743771238938 14.223693943299  20.7743771238938 13.6592601481959  L 20.7743771238938 13.6426446198454  Z M 14.610624670354 18.8024287693299  C 14.0485884701327 18.8024287693299  13.5929783561947 19.2599824742268  13.5929783561947 19.8244162693299  L 13.5929783561947 23.9622128865979  C 13.5929783561947 24.526646681701  14.0485884701327 24.9842003865979  14.610624670354 24.9842004188144  L 14.627169619469 24.9842004188144  C 15.1892058196903 24.9842004188144  15.6448159336283 24.5266467139175  15.6448159336283 23.9622128865979  L 15.6448159336283 19.8244162693299  C 15.6448159336283 19.2599824742268  15.1892058196903 18.8024287693299  14.627169619469 18.8024287693299  L 14.610624670354 18.8024287693299  Z M 20.7743771238938 23.9455973582474  C 20.7743771238938 23.3811635631443  20.3187670099558 22.9236098582474  19.7567308097345 23  L 9.48103066261062 23  C 8.91899446238938 22.9236098582474  8.46338434845133 23.3811635631443  8.46338434845133 23.9455973582474  L 8.46338434845133 23.9622128865979  C 8.46338434845133 24.526646681701  8.91899446238938 24.9842003865979  9.48103066261062 25  L 19.7567308097345 25  C 20.3187670099558 24.9842004188144  20.7743771238938 24.5266467139175  20.7743771238938 23.9622128865979  L 20.7743771238938 23.9455973582474  Z M 22.8262147013274 7.46087297036082  C 22.8262147013274 6.89647213273196  22.3706045873894 6.43888547036082  21.8085683871681 6.43888547036082  L 7.42919308517699 6.43888547036082  C 6.86715688495575 6.43888547036082  6.4115467710177 6.89643917525773  6.4115467710177 7.46087297036082  L 6.4115467710177 7.47748849871134  C 6.4115467710177 8.04192229381443  6.86715688495575 8.49947599871134  7.42919308517699 8.49947603092783  L 21.8085683871681 8.49947603092783  C 22.3706045873894 8.49947603092783  22.8262147013274 8.04192232603093  22.8262147013274 7.47748849871134  L 22.8262147013274 7.46087297036082  Z M 29 2.31760547680412  C 28.9815961957965 1.17963888530928  28.0630226714602 0.257146810567011  26.929889920354 0.257146778350515  L 2.30774025 0.257146778350515  C 1.17460749889381 0.257146778350515  0.256033974557522 1.17963885309278  0.256033974557522 2.31760547680412  L 0.256033974557522 18.8025606314433  C 0.256033974557522 19.9405272229381  1.1746074988938 20.8630192976804  2.30774025 20.8630192976804  L 26.929889920354 20.8630192976804  C 28.0630226714602 20.8630192976804  28.9815961957965 19.9405272229381  29 18.8025606314433  L 29 2.31760547680412  Z M 26.929889920354 3.33959297680412  L 27 4.37819600515464  L 27 18.8023298646907  L 26.929889920354 17.7806060889175  C 26.929889920354 18.3450398840206  26.4742798064159 18.8025935889175  25.912243574115 18.8025935889175  L 3.32551789823009 18.8025935889175  C 2.76348169800885 18.8025935889175  2.3078715840708 18.3450398840206  2.30787155199115 17.7806060889175  L 2.30787155199115 18.8023298646907  L 2.30787155199115 3.33959297680412  C 2.30787155199115 2.77515918170103  2.7634816659292 2.31760547680412  3.32551789823009 2.31760547680412  L 25.912243574115 2.31760547680412  C 26.4742797743363 2.31760547680412  26.9298898882743 2.77515918170103  26.929889920354 3.33959297680412  Z " fill-rule="nonzero" fill="#5d5d5d" stroke="none" transform="matrix(1 0 0 1 962 2045 )" />
  </g>
</svg>