<?xml version="1.0" encoding="utf-8"?>
<svg version="1.1" xmlns:xlink="http://www.w3.org/1999/xlink" width="27px" height="23px" xmlns="http://www.w3.org/2000/svg">
  <g transform="matrix(1 0 0 1 -718 -1098 )">
    <path d="M 19.341661460177 12.5512330502577  C 19.341661460177 12.0319539587629  18.9174727334071 11.6110045502577  18.3941976504425 11.6110045502577  L 8.8271664789823 11.6110045502577  C 8.3038913960177 11.6110045502577  7.87970266924779 12.0319539587629  7.87970266924779 12.5512330502577  L 7.87970266924779 12.5665193363402  C 7.87970266924779 13.0857984278351  8.3038913960177 13.5067478363402  8.8271664789823 13.5067478363402  L 18.3941976504425 13.5067478363402  C 18.9174727334071 13.5067478363402  19.341661460177 13.0857984278351  19.341661460177 12.5665193363402  L 19.341661460177 12.5512330502577  Z M 13.6029953827434 17.2982344677835  C 13.0797202997788 17.2982344677835  12.6555315730089 17.7191838762887  12.6555315730088 18.2384629677835  L 12.6555315730088 22.0452358556701  C 12.6555315730088 22.564514947165  13.0797202997788 22.9854643556701  13.6029953827434 22.9854643853093  L 13.618399300885 22.9854643853093  C 14.1416743838496 22.9854643853093  14.5658631106195 22.5645149768041  14.5658631106195 22.0452358556701  L 14.5658631106195 18.2384629677835  C 14.5658631106195 17.7191838762887  14.1416743838496 17.2982344677835  13.618399300885 17.2982344677835  L 13.6029953827434 17.2982344677835  Z M 19.341661460177 22.0299495695876  C 19.341661460177 21.5106704780928  18.9174727334071 21.0897210695876  18.3941976504425 21.0897210695876  L 8.8271664789823 21.0897210695876  C 8.3038913960177 21.0897210695876  7.87970266924779 21.5106704780928  7.87970266924779 22.0299495695876  L 7.87970266924779 22.0452358556701  C 7.87970266924779 22.564514947165  8.3038913960177 22.9854643556701  8.8271664789823 22.9854643853093  L 18.3941976504425 22.9854643853093  C 18.9174727334071 22.9854643853093  19.341661460177 22.5645149768041  19.341661460177 22.0452358556701  L 19.341661460177 22.0299495695876  Z M 21.2519929977876 6.86400313273196  C 21.2519929977876 6.3447543621134  20.8278042710177 5.92377463273196  20.3045291880531 6  L 6.91683494137168 6  C 6.39355985840708 5.92377463273196  5.96937113163717 6.34472404123711  5.96937113163717 6.86400313273196  L 5.96937113163717 6.87928941881443  C 5.96937113163717 7.39856851030928  6.39355985840708 7.81951791881443  6.91683494137168 8  L 20.3045291880531 8  C 20.8278042710177 7.81951794845361  21.2519929977876 7.39856853994845  21.2519929977876 6.87928941881443  L 21.2519929977876 6.86400313273196  Z M 27 2.13219703865979  C 26.9828654236726 1.08526777448454  26.1276417975664 0.23657506572165  25.0726561327434 0.236575036082474  L 2.14858575 0.236575036082474  C 1.09360008517699 0.236575036082474  0.238376459070796 1.08526774484536  0.238376459070796 2.13219703865979  L 0.238376459070796 17.2983557809278  C 0.238376459070796 18.3452850451031  1.09360008517699 19.193977753866  2.14858575 19  L 25.0726561327434 19  C 26.1276417975664 19.193977753866  26.9828654236726 18.3452850451031  27 17.2983557809278  L 27 2.13219703865979  Z M 25.0726561327434 3.07242553865979  L 25 4.02794032474227  L 25 17.2981434755155  L 25.0726561327434 16.3581576018041  C 25.0726561327434 16.877436693299  24.6484674059735 17.2983861018041  24.1251922931416 17  L 3.09617183628319 17  C 2.57289675331858 17.2983861018041  2.14870802654867 16.877436693299  2.14870799668142 16.3581576018041  L 2.14870799668142 17.2981434755155  L 2.14870799668142 3.07242553865979  C 2.14870799668142 2.55314644716495  2.57289672345133 2.13219703865979  3.09617183628319 2.13219703865979  L 24.1251922931416 2.13219703865979  C 24.6484673761062 2.13219703865979  25.0726561028761 2.55314644716495  25.0726561327434 3.07242553865979  Z " fill-rule="nonzero" fill="#5d5d5d" stroke="none" transform="matrix(1 0 0 1 718 1098 )" />
  </g>
</svg>