<?xml version="1.0" encoding="utf-8"?>
<svg version="1.1" xmlns:xlink="http://www.w3.org/1999/xlink" width="22px" height="22px" preserveAspectRatio="xMinYMid meet" viewBox="381 718  22 20" xmlns="http://www.w3.org/2000/svg">
  <path d="M 391 728.5  L 619.5 728.5  " stroke-width="3" stroke="#1890ff" fill="none" />
  <path d="M 392 724.5  A 4 4 0 0 0 388 728.5 A 4 4 0 0 0 392 732.5 A 4 4 0 0 0 396 728.5 A 4 4 0 0 0 392 724.5 Z M 617.5 724.5  A 4 4 0 0 0 613.5 728.5 A 4 4 0 0 0 617.5 732.5 A 4 4 0 0 0 621.5 728.5 A 4 4 0 0 0 617.5 724.5 Z " fill-rule="nonzero" fill="#1890ff" stroke="none" />
</svg>