<?xml version="1.0" encoding="utf-8"?>
<svg version="1.1" xmlns:xlink="http://www.w3.org/1999/xlink" width="22px" height="22px" preserveAspectRatio="xMinYMid meet" viewBox="1243 299  22 20" xmlns="http://www.w3.org/2000/svg">
  <path d="M 1254 309.5  L 1479.5 309.5  L 1479.5 314  " stroke-width="3" stroke="#1890ff" fill="none" />
  <path d="M 1255 305.5  A 4 4 0 0 0 1251 309.5 A 4 4 0 0 0 1255 313.5 A 4 4 0 0 0 1259 309.5 A 4 4 0 0 0 1255 305.5 Z M 1479.5 309  A 4 4 0 0 0 1475.5 313 A 4 4 0 0 0 1479.5 317 A 4 4 0 0 0 1483.5 313 A 4 4 0 0 0 1479.5 309 Z " fill-rule="nonzero" fill="#1890ff" stroke="none" />
</svg>