<?xml version="1.0" encoding="utf-8"?>
<svg version="1.1" xmlns:xlink="http://www.w3.org/1999/xlink" width="24px" height="24px" xmlns="http://www.w3.org/2000/svg">
  <g transform="matrix(1 0 0 1 118 -1070 )">
    <path d="M 24 12  C 24 18.6274169979695  18.6274169979695 24  12 24  C 5.37258300203048 24  0 18.6274169979695  0 12  C 0 5.37258300203048  5.37258300203048 0  12 0  C 18.6274169979695 0  24 5.37258300203048  24 12  Z M 22.1538461538462 12  C 22.1538461538462 6.39218561710271  17.6078143828973 1.84615384615385  12 1.84615384615385  C 6.39218561710271 1.84615384615385  1.84615384615385 6.39218561710271  1.84615384615385 12  C 1.84615384615385 17.6078143828973  6.39218561710271 22.1538461538462  12 22.1538461538462  C 17.6078143828973 22.1538461538462  22.1538461538462 17.6078143828973  22.1538461538462 12  Z M 17.5384615384615 14.7692307692308  L 12 14.7692307692308  C 11.4901986924639 14.7692307692308  11.0769230769231 14.35595515369  11.0769230769231 13.8461538461538  L 11.0769230769231 6.46153846153846  C 11.0769230769231 5.95173715400234  11.4901986924639 5.53846153846154  12 5.53846153846154  C 12.5098013075361 5.53846153846154  12.9230769230769 5.95173715400234  12.9230769230769 6.46153846153846  L 12.9230769230769 12.9230769230769  L 17.5384615384615 12.9230769230769  C 18.0482628459977 12.9230769230769  18.4615384615385 13.3363525386177  18.4615384615385 13.8461538461538  C 18.4615384615385 14.35595515369  18.0482628459977 14.7692307692308  17.5384615384615 14.7692307692308  Z " fill-rule="nonzero" fill="#333333" stroke="none" transform="matrix(1 0 0 1 -118 1070 )" />
  </g>
</svg>