<?xml version="1.0" encoding="utf-8"?>
<svg version="1.1" xmlns:xlink="http://www.w3.org/1999/xlink" width="8px" height="8px" xmlns="http://www.w3.org/2000/svg">
  <defs>
    <mask fill="white" id="clip13">
      <path d="M 4 0  C 9.33333333333333 0  9.33333333333333 8  4 8  C -1.33333333333333 8  -1.33333333333333 0  4 0  Z " fill-rule="evenodd" />
    </mask>
  </defs>
  <g transform="matrix(1 0 0 1 -818 -686 )">
    <path d="M 4 0  C 9.33333333333333 0  9.33333333333333 8  4 8  C -1.33333333333333 8  -1.33333333333333 0  4 0  Z " fill-rule="nonzero" fill="#1890ff" stroke="none" transform="matrix(1 0 0 1 818 686 )" />
    <path d="M 4 0  C 9.33333333333333 0  9.33333333333333 8  4 8  C -1.33333333333333 8  -1.33333333333333 0  4 0  Z " stroke-width="2" stroke="#ffffff" fill="none" transform="matrix(1 0 0 1 818 686 )" mask="url(#clip13)" />
  </g>
</svg>