<?xml version="1.0" encoding="utf-8"?>
<svg version="1.1" xmlns:xlink="http://www.w3.org/1999/xlink" width="25px" height="22px" xmlns="http://www.w3.org/2000/svg">
  <g transform="matrix(1 0 0 1 -1426 -179 )">
    <path d="M 17.9089457964602 12.0055272654639  C 17.9089457964602 11.5088255257732  17.5161784568584 11.1061782654639  17.0316644911504 11.1061782654639  L 8.17330229535398 11.1061782654639  C 7.68878832964602 11.1061782654639  7.29602099004425 11.5088255257732  7.29602099004425 12.0055272654639  L 7.29602099004425 12.0201489304124  C 7.29602099004425 12.5168506701031  7.68878832964602 12.9194979304124  8.17330229535398 12.9194979304124  L 17.0316644911504 12.9194979304124  C 17.5161784568584 12.9194979304124  17.9089457964602 12.5168506701031  17.9089457964602 12.0201489304124  L 17.9089457964602 12.0055272654639  Z M 12.5953660951327 16.5461373170103  C 12.1108521294248 16.5461373170103  11.718084789823 16.9487845773196  11.718084789823 17.4454863170103  L 11.718084789823 21.0867473402062  C 11.718084789823 21.5834490798969  12.1108521294248 21.9860963402062  12.5953660951327 21.9860963685567  L 12.6096289823009 21.9860963685567  C 13.0941429480088 21.9860963685567  13.4869102876106 21.5834491082474  13.4869102876106 21.0867473402062  L 13.4869102876106 17.4454863170103  C 13.4869102876106 16.9487845773196  13.0941429480089 16.5461373170103  12.6096289823009 16.5461373170103  L 12.5953660951327 16.5461373170103  Z M 17.9089457964602 21.0721256752577  C 17.9089457964602 20.575423935567  17.5161784568584 20.1727766752577  17.0316644911504 20.1727766752577  L 8.17330229535398 20.1727766752577  C 7.68878832964602 20.1727766752577  7.29602099004425 20.575423935567  7.29602099004425 21.0721256752577  L 7.29602099004425 21.0867473402062  C 7.29602099004425 21.5834490798969  7.68878832964602 21.9860963402062  8.17330229535398 21.9860963685567  L 17.0316644911504 21.9860963685567  C 17.5161784568584 21.9860963685567  17.9089457964602 21.5834491082474  17.9089457964602 21.0867473402062  L 17.9089457964602 21.0721256752577  Z M 19.6777712942478 6.56556821391753  C 19.6777712942478 6.06889547680412  19.285003954646 5.66621921391752  18.8004899889381 6  L 6.40447679756637 6  C 5.91996283185841 5.66621921391752  5.52719549225664 6.0688664742268  5.52719549225664 6.56556821391753  L 5.52719549225664 6.58018987886598  C 5.52719549225664 7.0768916185567  5.91996283185841 7.47953887886598  6.40447679756637 7.47953890721649  L 18.8004899889381 7.47953890721649  C 19.285003954646 7.47953890721649  19.6777712942478 7.07689164690721  19.6777712942478 6.58018987886598  L 19.6777712942478 6.56556821391753  Z M 25 2.03949281958763  C 24.9841346515487 1.03808221907217  24.1922609236726 0.226289193298969  23.2154223451327 0.226289164948454  L 1.98943125 0.226289164948454  C 1.01259267146018 0.226289164948454  0.220718943584071 1.03808219072165  0.220718943584071 2.03949281958763  L 0.220718943584071 16.5462533556701  C 0.220718943584071 17.5476639561856  1.01259267146018 18.3594569819588  1.98943125 18  L 23.2154223451327 18  C 24.1922609236726 18.3594569819588  24.9841346515487 17.5476639561856  25 16.5462533556701  L 25 2.03949281958763  Z M 23.2154223451327 2.93884181958763  L 23 3.85281248453608  L 23 16.5460502809278  L 23.2154223451327 15.6469333582474  C 23.2154223451327 16.1436350979381  22.822655005531 16.5462823582474  22.3381410121681 16.5462823582474  L 2.86682577433628 16.5462823582474  C 2.38231180862832 16.5462823582474  1.98954446902655 16.1436350979381  1.98954444137168 15.6469333582474  L 2 16.5460502809278  L 2 2.93884181958763  C 1.98954444137168 2.44214007989691  2.38231178097345 2.03949281958763  2.86682577433628 2  L 22.3381410121681 2  C 22.8226549778761 2.03949281958763  23.2154223174779 2.44214007989691  23.2154223451327 2.93884181958763  Z " fill-rule="nonzero" fill="#5d5d5d" stroke="none" transform="matrix(1 0 0 1 1426 179 )" />
  </g>
</svg>