<?xml version="1.0" encoding="utf-8"?>
<svg version="1.1" xmlns:xlink="http://www.w3.org/1999/xlink" width="12px" height="15px" xmlns="http://www.w3.org/2000/svg">
  <g transform="matrix(1 0 0 1 -1540 -290 )">
    <path d="M 4 3.11074429096639  C 4.06162464705882 3.1797718855042  4.13725489705882 3.21428569327731  4.22689075 3.21428571428571  C 4.31652660294118 3.21428571428571  4.39355741666667 3.17977190651261  4.45798319117647 3.11074429096639  C 4.52240896568627 3.04171667542017  4.55462185294118 2.95918366596639  4.55462185294118 2.86314526260504  C 4.55462185294118 2.7671068592437  4.52240896568627 2.68457384453782  4.45798319117647 2.61554621848739  C 4.39355741666667 2.54651859243698  4.31652660294118 2.51200478466387  4.22689075 2.51200479516807  C 4.13725489705882 2.51200480567227  4.06162464705882 2.54651861344538  4 2.61554621848739  C 3.93837535294118 2.68457382352941  3.90756302941177 2.76710683823529  3.90756302941177 2.86314526260504  C 3.90756302941177 2.95918368697479  3.93837535294118 3.04171669642857  4 3.11074429096639  Z M 7.54201680882353 3.11074429096639  C 7.60644258333333 3.1797718855042  7.68347339705882 3.21428569327731  7.77310925 3.21428571428571  C 7.86274510294118 3.21428571428571  7.93837535294118 3.17977190651261  8 3.11074429096639  C 8.06162464705882 3.04171667542017  8.09243697058824 2.95918366596639  8.09243697058823 2.86314526260504  C 8.09243697058824 2.7671068592437  8.06162464705882 2.68457384453782  8 2.61554621848739  C 7.93837535294118 2.54651859243698  7.86274510294118 2.51200478466387  7.77310925 2.51200479516807  C 7.68347339705882 2.51200480567227  7.60644258333333 2.54651861344538  7.54201680882353 2.61554621848739  C 7.47759103431373 2.68457382352941  7.44537814705882 2.76710683823529  7.44537814705882 2.86314526260504  C 7.44537814705882 2.95918368697479  7.47759103431373 3.04171669642857  7.54201680882353 3.11074429096639  Z M 0.336134455882352 5.14105641806723  C 0.504201681372548 4.9609843907563  0.708683475490196 4.87094837710084  0.949579838235294 4.87094837710084  C 1.18487395588235 4.87094837710084  1.38655462745098 4.9609843907563  1.55462185294118 5.14105641806723  C 1.72268907843137 5.32112844537815  1.80672269117647 5.53721487920168  1.80672269117647 5.78931571953781  L 1.80672269117647 9.66086434348739  C 1.80672269117647 9.91896758928571  1.7240896372549 10.1380552258403  1.55882352941176 10.3181272531513  C 1.39355742156863 10.4981992804622  1.19047619117647 10.5882352941176  0.949579838235294 10.5882352941176  C 0.708683485294118 10.5882352941176  0.50420169117647 10.4981992804622  0.336134455882352 10.3181272531513  C 0.168067220588235 10.1380552258403  0.0840336078431367 9.91896758928571  0.0840336176470582 9.66086434348739  L 0.0840336176470582 5.78931571953781  C 0.0840336176470582 5.53721487920168  0.168067230392156 5.32112844537815  0.336134455882352 5.14105641806723  Z M 2.14285714705882 5.04201680672269  L 9.85714285294118 5.04201680672269  L 9.85714285294118 11.0384153728992  C 9.85714285294118 11.3145258140756  9.767507 11.5486194485294  9.58823529411765 11.7406962762605  C 9.4089635882353 11.9327731039916  9.19327731372549 12.0288115178571  8.94117647058824 12.0288115178571  L 8.31092436764706 12.0288115178571  L 8.31092436764706 14.0726290493697  C 8.31092436764706 14.3307322951681  8.22689075490196 14.5498199317227  8.05882352941176 14.7298919590336  C 7.89075630392157 14.9099639863445  7.68627450980392 15  7.44537814705882 15  C 7.20448178431373 15  6.99999999509804 14.9099639863445  6.83193277941176 14.7298919590336  C 6.66386556372549 14.5498199317227  6.57983194607843 14.3307322951681  6.57983192647059 14.0726290493697  L 6.57983192647059 12.0288115178571  L 5.42016807352941 12.0288115178571  L 5.42016807352941 14.0726290493697  C 5.42016807352941 14.3307322951681  5.33613445588235 14.5498199317227  5.16806722058824 14.7298919590336  C 4.99999998529412 14.9099639863445  4.79551819607843 15  4.55462185294118 15  C 4.31932773529412 15  4.11764706372549 14.9099639863445  3.94957983823529 14.7298919590336  C 3.7815126127451 14.5498199317227  3.69747899509804 14.3307322951681  3.69747898529412 14.0726290493697  L 3.68907563235294 12.0288115178571  L 3.06722689705882 12.0288115178571  C 2.80952381862745 12.0288115178571  2.59103642156863 11.9327731039916  2.41176470588235 11.7406962762605  C 2.23249299019608 11.5486194485294  2.1428571372549 11.3145258140756  2.14285714705882 11.0384153728992  L 2.14285714705882 5.04201680672269  Z M 8.50420167647059 0.21608643907563  L 7.90756302941177 1.39555823004202  C 8.50700280392157 1.72569027836134  8.98599439705882 2.18637454831933  9.34453780882353 2.77761103991597  C 9.70308122058823 3.36884753151261  9.88235293137255 4.0156062342437  9.88235294117647 4.71788714810924  L 2.10924369117647 4.71788714810924  C 2.10924369117647 4.0156062342437  2.28851540196078 3.36884753151261  2.64705882352941 2.77761103991597  C 3.00560224509804 2.18637454831933  3.48739496078431 1.72569027836134  4.09243697058823 1.39555823004202  L 3.49579832352941 0.21608643907563  C 3.4565826372549 0.138055231092437  3.47058824019608 0.078031218487395  3.53781513235294 0.0360144012605042  C 3.61064425980392 0  3.66666666666667 0.0180072058823528  3.70588235294118 0.090036018907563  L 4.31092436764706 1.27851140231092  C 4.84313725 1.02641056197479  5.40616246078431 0.900360141806723  6 0.900360141806723  C 6.59383753921569 0.900360141806723  7.15686275 1.02641056197479  7.68907563235294 1.27851140231092  L 8.29411764705882 0.0900360189075628  C 8.33333333333333 0.0180072058823528  8.38935574019608 0  8.46218486764706 0.036014401260504  C 8.52941175980392 0.0780312079831931  8.5434173627451 0.138055220588235  8.50420167647059 0.21608643907563  Z M 11.6638655441176 5.13655462184874  C 11.8319327696078 5.31362545168067  11.9159663823529 5.5312124842437  11.9159663823529 5.78931571953782  L 11.9159663823529 9.6608643434874  C 11.9159663823529 9.91896758928571  11.8319327696078 10.1380552258403  11.6638655441176 10.3181272531513  C 11.4957983186275 10.4981992804622  11.2913165245098 10.5882352941176  11.0504201617647 10.5882352941176  C 10.8151260441176 10.5882352941176  10.613445372549 10.4981992804622  10.4453781470588 10.3181272531513  C 10.2773109215686 10.1380552258403  10.1932773088235 9.91896758928571  10.1932773088235 9.6608643434874  L 10.1932773088235 5.78931571953781  C 10.1932773088235 5.5312124737395  10.2773109215686 5.31362544117647  10.4453781470588 5.13655462184874  C 10.613445372549 4.95948380252101  10.8151260441176 4.87094838760504  11.0504201617647 4.87094837710084  C 11.2913165245098 4.87094837710084  11.4957983186275 4.95948379201681  11.6638655441176 5.13655462184874  Z " fill-rule="nonzero" fill="#a4c439" stroke="none" transform="matrix(1 0 0 1 1540 290 )" />
  </g>
</svg>