<?xml version="1.0" encoding="utf-8"?>
<svg version="1.1" xmlns:xlink="http://www.w3.org/1999/xlink" width="23px" height="20px" xmlns="http://www.w3.org/2000/svg">
  <g transform="matrix(1 0 0 1 -245 -179 )">
    <path d="M 16.4762301327434 10.9141156958763  C 16.4762301327434 10.4625686597938  16.1148841803097 10.0965256958763  15.6691313318584 10.0965256958763  L 7.51943811172566 10.0965256958763  C 7.07368526327434 10.0965256958763  6.71233931084071 10.4625686597938  6.71233931084071 10.9141156958763  L 6.71233931084071 10.9274081185567  C 6.71233931084071 11.3789551546392  7.07368526327434 11.7449981185567  7.51943811172566 11.7449981185567  L 15.6691313318584 11.7449981185567  C 16.1148841803097 11.7449981185567  16.4762301327434 11.3789551546392  16.4762301327434 10.9274081185567  L 16.4762301327434 10.9141156958763  Z M 11.5877368075221 15.0419430154639  C 11.1419839590708 15.0419430154639  10.7806380066372 15.4079859793814  10.7806380066372 15.8595330154639  L 10.7806380066372 19.1697703092784  C 10.7806380066372 19.6213173453608  11.1419839590708 19.9873603092784  11.5877368075221 19.9873603350515  L 11.6008586637168 19.9873603350515  C 12.0466115121681 19.9873603350515  12.4079574646018 19.621317371134  12.4079574646018 19.1697703092784  L 12.4079574646018 15.8595330154639  C 12.4079574646018 15.4079859793814  12.0466115121681 15.0419430154639  11.6008586637168 15.0419430154639  L 11.5877368075221 15.0419430154639  Z M 16.4762301327434 19.1564778865979  C 16.4762301327434 18.7049308505155  16.1148841803097 18.3388878865979  15.6691313318584 18.3388878865979  L 7.51943811172566 18.3388878865979  C 7.07368526327434 18.3388878865979  6.71233931084071 18.7049308505155  6.71233931084071 19.1564778865979  L 6.71233931084071 19.1697703092784  C 6.71233931084071 19.6213173453608  7.07368526327434 19.9873603092784  7.51943811172566 19.9873603350515  L 15.6691313318584 19.9873603350515  C 16.1148841803097 19.9873603350515  16.4762301327434 19.621317371134  16.4762301327434 19.1697703092784  L 16.4762301327434 19.1564778865979  Z M 18.103549590708 5.96869837628866  C 18.103549590708 5.51717770618557  17.7422036382743 5.15110837628866  17.296450789823 5.15110837628866  L 5.89211865376106 5.15110837628866  C 5.44636580530973 5.15110837628866  5.08501985287611 5.51715134020619  5.08501985287611 5.96869837628866  L 5.08501985287611 5.98199079896907  C 5.08501985287611 6.43353783505154  5.44636580530973 6.79958079896907  5.89211865376106 7  L 17.296450789823 7  C 17.7422036382743 6.79958082474227  18.103549590708 6.43353786082474  18.103549590708 5.98199079896907  L 18.103549590708 5.96869837628866  Z M 23 1.8540843814433  C 22.9854038794248 0.943711108247423  22.2568800497788 0.205717448453609  21.3581885575221 0.205717422680412  L 1.83027675 0.205717422680412  C 0.931585257743363 0.205717422680412  0.203061428097345 0.943711082474227  0.203061428097345 1.8540843814433  L 0.203061428097345 15.0420485051546  C 0.203061428097345 15.9524217783505  0.931585257743363 16.6904154381443  1.83027675 16.6904154381443  L 21.3581885575221 16.6904154381443  C 22.2568800497788 16.6904154381443  22.9854038794248 15.9524217783505  23 15.0420485051546  L 23 1.8540843814433  Z M 21.3581885575221 2.6716743814433  L 21 3.50255680412371  L 21 15.0418638917526  L 21.3581885575221 14.224484871134  C 21.3581885575221 14.6760319072165  20.9968426050885 15.042074871134  20.5510897311947 15  L 2.63747971238938 15  C 2.19172686393805 15.042074871134  1.83038091150442 14.6760319072165  1.83038088606195 14.224484871134  L 2 15.0418638917526  L 2 2.6716743814433  C 1.83038088606195 2.22012734536082  2.19172683849558 1.8540843814433  2.63747971238938 2  L 20.5510897311947 2  C 20.996842579646 1.8540843814433  21.3581885320796 2.22012734536083  21.3581885575221 2.6716743814433  Z " fill-rule="nonzero" fill="#5d5d5d" stroke="none" transform="matrix(1 0 0 1 245 179 )" />
  </g>
</svg>