<?xml version="1.0" encoding="utf-8"?>
<svg version="1.1" xmlns:xlink="http://www.w3.org/1999/xlink" width="9px" height="11px" xmlns="http://www.w3.org/2000/svg">
  <g transform="matrix(1 0 0 1 -1591 -242 )">
    <path d="M 8.325 5.11450892857143  L 5.9953125 5.11450892857143  L 5.9953125 10.4303571428571  C 5.9953125 10.725  5.765625 10.965625  5.484375 10.965625  L 3.440625 10.965625  C 3.159375 10.965625  2.9296875 10.725  2.9296875 10.4303571428571  L 2.9296875 5.11450892857143  L 0.675 5.11450892857143  C 0.39375 5.11450892857143  0.1640625 4.87633928571429  0.1640625 4.57924107142857  C 0.1640625 4.43683035714286  0.21796875 4.29933035714286  0.314062499999999 4.19866071428571  L 4.14140625 0.191517857142857  C 4.340625 -0.0171874999999997  4.6640625 -0.0171874999999997  4.86328125 0.191517857142857  L 8.68828125 4.20111607142857  C 8.8875 4.40982142857143  8.8875 4.74866071428572  8.68828125 4.95736607142857  C 8.5921875 5.05803571428572  8.4609375 5.11450892857143  8.325 5.11450892857143  Z " fill-rule="nonzero" fill="#ea5858" stroke="none" transform="matrix(1 0 0 1 1591 242 )" />
  </g>
</svg>