<?xml version="1.0" encoding="utf-8"?>
<svg version="1.1" xmlns:xlink="http://www.w3.org/1999/xlink" width="10px" height="10px" xmlns="http://www.w3.org/2000/svg">
  <g transform="matrix(1 0 0 1 -1799 -130 )">
    <path d="M 9.6412109375 6.42919921875  C 9.85537109375 6.42919921875  9.9982421875 6.5720703125  9.9982421875 6.78623046875  L 9.9982421875 8.21455078125  C 9.9982421875 9.21435546875  9.2126953125 9.99990234375  8.212890625 9.99990234375  L 1.78544921875 9.99990234375  C 0.78564453125 10  0 9.214453125  0 8.2146484375  L 0 1.78720703125  C 0 0.78740234375  0.78564453125 0.00185546875  1.78544921875 0.00185546875  L 3.21376953125 0.00185546875  C 3.42802734375 0.00185546875  3.5708984375 0.14462890625  3.5708984375 0.358984375  C 3.5708984375 0.5732421875  3.428125 0.716015625  3.21376953125 0.716015625  L 1.78544921875 0.716015625  C 1.21416015625 0.716015625  0.71416015625 1.21591796875  0.71416015625 1.7873046875  L 0.71416015625 8.21474609375  C 0.71416015625 8.78603515625  1.2140625 9.28603515625  1.78544921875 9.28603515625  L 8.212890625 9.28603515625  C 8.7841796875 9.28603515625  9.2841796875 8.7861328125  9.2841796875 8.21474609375  L 9.2841796875 6.78623046875  C 9.2841796875 6.57197265625  9.426953125 6.42919921875  9.6412109375 6.42919921875  Z M 5.71328125 0.358984375  C 5.71328125 0.57314453125  5.8560546875 0.716015625  6.0703125 0.716015625  L 8.7841796875 0.716015625  L 3.28515625 6.1435546875  C 3.1423828125 6.286328125  3.1423828125 6.50068359375  3.28515625 6.64345703125  C 3.35654296875 6.71484375  3.42802734375 6.71484375  3.57080078125 6.71484375  C 3.71357421875 6.71484375  3.78505859375 6.71484375  3.8564453125 6.64345703125  L 9.28408203125 1.21591796875  L 9.28408203125 3.92978515625  C 9.28408203125 4.14404296875  9.42685546875 4.28681640625  9.64111328125 4.28681640625  C 9.85537109375 4.2154296875  9.9982421875 4.14404296875  9.9982421875 3.92978515625  L 9.9982421875 0.00185546875  L 6.0703125 0.00185546875  C 5.8560546875 0.00185546875  5.71328125 0.14462890625  5.71328125 0.358984375  Z " fill-rule="nonzero" fill="#2998ff" stroke="none" transform="matrix(1 0 0 1 1799 130 )" />
  </g>
</svg>