<?xml version="1.0" encoding="utf-8"?>
<svg version="1.1" xmlns:xlink="http://www.w3.org/1999/xlink" width="11px" height="12px" xmlns="http://www.w3.org/2000/svg">
  <g transform="matrix(1 0 0 1 -349 -276 )">
    <path d="M 0.00557907777777764 0.00220673529411767  L 1.00528527916667 10.7984783970588  L 5.49312110416667 11.9977932647059  L 9.99266667361111 10.7968381029412  L 10.9944052777778 0  L 0.00582922083333344 0  L 0.00557907777777764 0.00220673529411767  Z M 8.81775198333333 3.53323011764706  L 3.55378957083333 3.53323011764706  L 3.67917300972222 4.88920111764706  L 8.69286883055555 4.88920111764706  L 8.315030075 8.95425489705882  L 5.49337124722222 9.70686651470588  L 2.67518313333333 8.95425489705882  L 2.48257417222222 6.87473116176471  L 3.86383998611111 6.87473116176471  L 3.9618016625 7.93177636764706  L 5.49360576111111 8.32904489705883  L 5.49709210416667 8.32809683823529  L 7.02969353472222 7.92989529411765  L 7.18872100833334 6.21299817647059  L 2.4211957 6.21299817647059  L 2.05012639027778 2.20913208823529  L 8.94086850555556 2.20913208823529  L 8.81775198333333 3.53323011764706  Z " fill-rule="nonzero" fill="#cccccc" stroke="none" transform="matrix(1 0 0 1 349 276 )" />
  </g>
</svg>