<?xml version="1.0" encoding="utf-8"?>
<svg version="1.1" xmlns:xlink="http://www.w3.org/1999/xlink" width="10px" height="10px" xmlns="http://www.w3.org/2000/svg">
  <g transform="matrix(1 0 0 1 -1788 -399 )">
    <path d="M 9.98834745762712 6.34758771929825  C 9.98940677966102 6.09978070175439  9.79555084745763 5.89802631578947  9.55614406779661 5.89802631578947  C 9.31673728813559 5.89802631578947  9.12182203389831 6.09868421052632  9.12182203389831 6.34758771929825  L 9.12182203389831 8.59320175438597  C 9.12182203389831 8.84100877192983  8.92690677966102 9.04276315789474  8.6875 9.04276315789474  L 1.3114406779661 9.04276315789474  C 1.07203389830508 9.04276315789474  0.877118644067797 8.84100877192983  0.877118644067797 8.59320175438597  L 0.877118644067797 6.34758771929825  C 0.877118644067797 6.09978070175439  0.683262711864407 5.89802631578947  0.442796610169492 5.89802631578947  C 0.202330508474576 5.89802631578947  0.00847457627118656 6.09868421052632  0.00847457627118656 6.34758771929825  L 0.00847457627118656 8.59320175438597  C 0.00847457627118656 9.33662280701754  0.592161016949153 9.94078947368421  1.3103813559322 9.94078947368421  L 8.6864406779661 9.94078947368421  C 9.40466101694915 9.94078947368421  9.98834745762712 9.33662280701754  9.98834745762712 8.59320175438597  L 9.98834745762712 6.34758771929825  Z M 2.23940677966102 3.36622807017544  C 2.40783898305085 3.5405701754386  2.6843220338983 3.5405701754386  2.85275423728814 3.36622807017544  L 4.56567796610169 1.59320175438596  L 4.56567796610169 7.24561403508772  C 4.56567796610169 7.49232456140351  4.76059322033898 7.69517543859649  5 7.69517543859649  C 5.23834745762712 7.69517543859649  5.43432203389831 7.49342105263158  5.43432203389831 7.24561403508772  L 5.43432203389831 1.59320175438596  L 7.14724576271187 3.36622807017544  C 7.31567796610169 3.5405701754386  7.59216101694915 3.5405701754386  7.76059322033898 3.36622807017544  C 7.92902542372881 3.19188596491228  7.92902542372881 2.90570175438596  7.76059322033898 2.73135964912281  L 5.3125 0.196271929824561  C 5.3103813559322 0.194078947368421  5.30932203389831 0.191885964912281  5.30826271186441 0.190789473684211  C 5.2478813559322 0.128289473684211  5.17372881355932 0.0888157894736843  5.09533898305085 0.0712719298245615  C 5.09322033898305 0.0701754385964913  5.09004237288136 0.0690789473684211  5.08792372881356 0.0690789473684211  C 5.0593220338983 0.0635964912280702  5.03072033898305 0.0603070175438597  5.0021186440678 0.0603070175438597  C 4.97351694915254 0.0603070175438597  4.94385593220339 0.0635964912280702  4.91631355932203 0.0690789473684211  C 4.91313559322034 0.0701754385964913  4.91101694915254 0.0712719298245615  4.90889830508474 0.0712719298245615  C 4.83050847457627 0.0888157894736843  4.75635593220339 0.128289473684211  4.69597457627119 0.190789473684211  C 4.69385593220339 0.192982456140351  4.69279661016949 0.195175438596491  4.69173728813559 0.196271929824561  L 2.23940677966102 2.73135964912281  C 2.07097457627119 2.90570175438596  2.07097457627119 3.19188596491228  2.23940677966102 3.36622807017544  Z " fill-rule="nonzero" fill="#2998ff" stroke="none" transform="matrix(1 0 0 1 1788 399 )" />
  </g>
</svg>