<?xml version="1.0" encoding="utf-8"?>
<svg version="1.1" xmlns:xlink="http://www.w3.org/1999/xlink" width="20px" height="20px" xmlns="http://www.w3.org/2000/svg">
  <g transform="matrix(1 0 0 1 -338 -115 )">
    <path d="M 20 10  C 20 4.472727265625  15.527272734375 0  10 0  C 4.472727265625 0  0 4.472727265625  0 10  C 0 15.527272734375  4.472727265625 20  10 20  C 15.527272734375 20  20 15.527272734375  20 10  Z M 16.3050036174606 6.09545454101562  C 16.3050036174606 6.13676741711325  16.3002746589626 6.17794452399982  16.2909090820312 6.21818181640625  L 15.8181818164063 8.3  C 15.7696187140696 8.55163859766138  15.5471488124688 8.7319159322855  15.2909090820313 8.727272734375  C 15.2545454492187 8.727272734375  15.2090908984375 8.727272734375  15.172727265625 8.70909091796875  L 13.0909090820312 8.24545455078125  C 12.8 8.18181818359375  12.6090908984375 7.8909091015625  12.6818181835937 7.59090908203125  C 12.75454546875 7.2909090625  13.0363636328125 7.1090908984375  13.3363636328125 7.18181818359375  L 14.1454545507812 7.3636363671875  C 13.2454545507812 5.9636363671875  11.6909091015625 5.0909091015625  10 5.09090908203125  C 7.29090908203125 5.09090908203125  5.09090908203125 7.29090908203125  5.09090908203125 10  C 5.09090908203125 12.7090909179688  7.29090908203125 14.9090909179688  10 14.9090909179688  C 10.5818181835938 14.9090909179688  11.1454545507813 14.8090909179688  11.6818181835938 14.6090909179688  C 11.9636363671875 14.5  12.2818181835938 14.65454546875  12.3818181835938 14.9363636328125  C 12.4818181835938 15.2181818164063  12.3363636328125 15.5363636328125  12.0545454492188 15.6363636328125  C 11.4 15.872727265625  10.7 16  10 16  C 6.69090908203125 16  4 13.3090909179688  4 10  C 4 6.69090908203126  6.69090908203125 4  10 4  C 12.0636363671875 4  13.9636363671875 5.0636363671875  15.0545454492188 6.7636363671875  L 15.2363636328125 5.972727265625  C 15.2934256809507 5.72757180610843  15.5119276434915 5.55408728097693  15.7636363574219 5.55408728097693  C 16.0626252391989 5.55408728097693  16.3050036174606 5.79646565923857  16.3050036174606 6.09545454101562  Z " fill-rule="nonzero" fill="#b2b2b2" stroke="none" transform="matrix(1 0 0 1 338 115 )" />
  </g>
</svg>