<?xml version="1.0" encoding="utf-8"?>
<svg version="1.1" xmlns:xlink="http://www.w3.org/1999/xlink" width="13px" height="13px" xmlns="http://www.w3.org/2000/svg">
  <g transform="matrix(1 0 0 1 -490 -397 )">
    <path d="M 12.479588595825 13  C 12.479588595825 13  0.520411838093338 13  0.520411838093338 13  C 0.232126149072979 13  0 12.7678740213949  0 12.479588595825  C 0 12.479588595825  0 1.69040252744557  0 1.69040252744557  C 0 1.4021168539223  0.232126149072979 1.1699906273639  0.520411838093338 1.1699906273639  C 0.520411838093338 1.1699906273639  3.24976593205087 1.1699906273639  3.24976593205087 1.1699906273639  C 3.24976593205087 1.1699906273639  3.24976593205087 0.130102959523335  3.24976593205087 0.130102959523335  C 3.24976593205087 0.0580315372682447  3.30873369849866 0  3.37986903104795 0  C 3.37986903104795 0  4.28965370837102 0  4.28965370837102 0  C 4.36172531271684 0  4.4197568073681 0.0580315372682447  4.4197568073681 0.130102959523335  C 4.4197568073681 0.130102959523335  4.4197568073681 1.1699906273639  4.4197568073681 1.1699906273639  L 8.58024368853857 1.1699906273639  C 8.58024368853857 1.1699906273639  8.58024368853857 0.130102959523335  8.58024368853857 0.130102959523335  C 8.58024368853857 0.0580315372682447  8.63827468728316 0  8.71034678753565 0  C 8.71034678753565 0  9.62013121690538 0  9.62013121690538 0  C 9.69126704536135 0  9.75023431590247 0.0580315372682447  9.75023431590247 0.130102959523335  C 9.75023431590247 0.130102959523335  9.75023431590247 1.1699906273639  9.75023431590247 1.1699906273639  C 9.75023431590247 1.1699906273639  12.479588595825 1.1699906273639  12.479588595825 1.1699906273639  C 12.7678740213949 1.1699906273639  13 1.4021168539223  13 1.69040252744557  C 13 1.69040252744557  13 12.479588595825  13 12.479588595825  C 13 12.7678740213949  12.7678740213949 13  12.479588595825 13  Z " fill-rule="nonzero" fill="#000000" stroke="none" transform="matrix(1 0 0 1 490 397 )" />
  </g>
</svg>