<?xml version="1.0" encoding="utf-8"?>
<svg version="1.1" xmlns:xlink="http://www.w3.org/1999/xlink" width="12px" height="4px" xmlns="http://www.w3.org/2000/svg">
  <g transform="matrix(1 0 0 1 -367 -401 )">
    <path d="M 11.4764985430098 4  C 11.913449828975 4  12.1563812142257 3.54705877865062  11.8873625760785 3.23823524923886  C 11.8873625760785 3.23823524923886  9.21348035449407 0.179411761900958  9.21348035449407 0.179411761900958  C 9.11402537722982 0.0661764705882353  8.9640269072375 0  8.80424633936333 0  C 8.80424633936333 0  7.74773697766512 0  7.74773697766512 0  C 7.63849890739208 0  7.57817331678216 0.113235291312723  7.64502047183447 0.191176470588235  C 7.64502047183447 0.191176470588235  9.99771104216908 2.88235294117647  9.99771104216908 2.88235294117647  C 9.99771104216908 2.88235294117647  0.130433279101679 2.88235294117647  0.130433279101679 2.88235294117647  C 0.0586949740408697 2.88235294117647  0 2.93529420740464  0 3  C 0 3  0 3.88235294117647  0 3.88235294117647  C 0 3.94705873377183  0.0586949740408697 4  0.130433279101679 4  C 0.130433279101679 4  11.4764985430098 4  11.4764985430098 4  Z " fill-rule="nonzero" fill="#000000" stroke="none" fill-opacity="0.250980392156863" transform="matrix(1 0 0 1 367 401 )" />
  </g>
</svg>