<?xml version="1.0" encoding="utf-8"?>
<svg version="1.1" xmlns:xlink="http://www.w3.org/1999/xlink" width="12px" height="12px" viewBox="206 454  12 12" xmlns="http://www.w3.org/2000/svg">
  <path d="M 212 454  C 215.36 454  218 456.64  218 460  C 218 463.36  215.36 466  212 466  C 208.64 466  206 463.36  206 460  C 206 456.64  208.64 454  212 454  Z " fill-rule="nonzero" fill="#ffffff" stroke="none" />
  <path d="M 212 454.5  C 215.08 454.5  217.5 456.92  217.5 460  C 217.5 463.08  215.08 465.5  212 465.5  C 208.92 465.5  206.5 463.08  206.5 460  C 206.5 456.92  208.92 454.5  212 454.5  Z " stroke-width="1" stroke="#797979" fill="none" />
  <path d="M 212 463  C 210.32 463  209 461.68  209 460  C 209 458.32  210.32 457  212 457  C 213.68 457  215 458.32  215 460  C 215 461.68  213.68 463  212 463  " fill-rule="nonzero" fill="#797979" stroke="none" />
</svg>