<?xml version="1.0" encoding="utf-8"?>
<svg version="1.1" xmlns:xlink="http://www.w3.org/1999/xlink" width="40px" height="30px" xmlns="http://www.w3.org/2000/svg">
  <defs>
    <mask fill="white" id="clip12">
      <path d="M 26 30  C 16 30  10 21  0 15  C 10 9  16 0  26 0  C 31.2 0  40 3  40 15  C 40 27  31.2 30  26 30  Z " fill-rule="evenodd" />
    </mask>
  </defs>
  <g transform="matrix(1 0 0 1 -317 -182 )">
    <path d="M 26 30  C 16 30  10 21  0 15  C 10 9  16 0  26 0  C 31.2 0  40 3  40 15  C 40 27  31.2 30  26 30  Z " fill-rule="nonzero" fill="#ffbf60" stroke="none" transform="matrix(1 0 0 1 317 182 )" />
    <path d="M 26 30  C 16 30  10 21  0 15  C 10 9  16 0  26 0  C 31.2 0  40 3  40 15  C 40 27  31.2 30  26 30  Z " stroke-width="2" stroke="#ffffff" fill="none" transform="matrix(1 0 0 1 317 182 )" mask="url(#clip12)" />
  </g>
</svg>