<?xml version="1.0" encoding="utf-8"?>
<svg version="1.1" xmlns:xlink="http://www.w3.org/1999/xlink" width="12px" height="12px" viewBox="206 394  12 12" xmlns="http://www.w3.org/2000/svg">
  <path d="M 212 394  C 215.36 394  218 396.64  218 400  C 218 403.36  215.36 406  212 406  C 208.64 406  206 403.36  206 400  C 206 396.64  208.64 394  212 394  Z " fill-rule="nonzero" fill="#ffffff" stroke="none" />
  <path d="M 212 394.5  C 215.08 394.5  217.5 396.92  217.5 400  C 217.5 403.08  215.08 405.5  212 405.5  C 208.92 405.5  206.5 403.08  206.5 400  C 206.5 396.92  208.92 394.5  212 394.5  Z " stroke-width="1" stroke="#797979" fill="none" />
  <path d="M 212 403  C 210.32 403  209 401.68  209 400  C 209 398.32  210.32 397  212 397  C 213.68 397  215 398.32  215 400  C 215 401.68  213.68 403  212 403  " fill-rule="nonzero" fill="#797979" stroke="none" />
</svg>