<?xml version="1.0" encoding="utf-8"?>
<svg version="1.1" xmlns:xlink="http://www.w3.org/1999/xlink" width="30px" height="30px" xmlns="http://www.w3.org/2000/svg">
  <g transform="matrix(1 0 0 1 -1353 -128 )">
    <path d="M 1368 128  C 1376.4 128  1383 134.6  1383 143  C 1383 151.4  1376.4 158  1368 158  C 1359.6 158  1353 151.4  1353 143  C 1353 134.6  1359.6 128  1368 128  Z " fill-rule="nonzero" fill="#ffbf60" stroke="none" />
    <path d="M 1368 128.5  C 1376.12 128.5  1382.5 134.88  1382.5 143  C 1382.5 151.12  1376.12 157.5  1368 157.5  C 1359.88 157.5  1353.5 151.12  1353.5 143  C 1353.5 134.88  1359.88 128.5  1368 128.5  Z " stroke-width="1" stroke="#ffffff" fill="none" />
  </g>
</svg>