<?xml version="1.0" encoding="utf-8"?>
<svg version="1.1" xmlns:xlink="http://www.w3.org/1999/xlink" width="35px" height="35px" xmlns="http://www.w3.org/2000/svg">
  <g transform="matrix(1 0 0 1 -1190 -280 )">
    <path d="M 34.9100422617914 31.974255793457  C 34.9100422617914 31.1721435550724  34.5911845994658 30.4029307125297  34.02370453125 29.8360529345703  L 26.8955898681641 22.7056229394531  C 26.6257309629921 22.4440349476998  26.3099374670012 22.2344652778144  25.9640573486328 22.0874310986328  C 27.5020449410461 19.7796155001164  28.3224371689598 17.0681587303299  28.3218301953125 14.2948180908203  C 28.3218301953125 6.49757441894531  22.0025358300781 0.179051831054685  14.2052921582031 0.179051831054685  C 6.40882029785156 0.179051831054687  0.0895258984375 6.49834619628906  0.0895258984375 14.2948180908203  C 0.0895258984375 22.0912899853516  6.40882026367188 28.4105843505859  14.2052921582031 28.4105843505859  C 17.0886438720703 28.4105843505859  19.7643880957031 27.53539140625  22.0002204980469 26.0528114697266  C 22.1453142285156 26.3885336230469  22.3421168701172 26.7088202978516  22.6153252636719 26.9828004345703  L 29.7465270019531 34.1124586523437  C 30.31363710484 34.679796302424  31.08294005144 34.9985424109216  31.8851157666016 34.9985424109216  C 32.6872914817631 34.9985424109216  33.4565944283631 34.679796302424  34.02370453125 34.1124586523437  C 34.5911845994658 33.5455808743843  34.9100422617914 32.7763680318416  34.9100422617914 31.974255793457  Z M 24.2877618457031 14.2955898681641  C 24.2877618457031 19.8639470996094  19.7751929443359 24.3772877783203  14.2052921582031 24.3772877783203  C 8.63616314941406 24.3772877783203  4.12282247070312 19.8639470996094  4.12282250488281 14.2955898681641  C 4.12282250488281 8.726460859375  8.63616318359375 4.21312018066406  14.2052921582031 4.21312018066406  C 19.7751929443359 4.21312018066406  24.2877618457031 8.726460859375  24.2877618457031 14.2955898681641  Z " fill-rule="nonzero" fill="#ffffff" stroke="none" transform="matrix(1 0 0 1 1190 280 )" />
  </g>
</svg>