<?xml version="1.0" encoding="utf-8"?>
<svg version="1.1" xmlns:xlink="http://www.w3.org/1999/xlink" width="18px" height="21px" xmlns="http://www.w3.org/2000/svg">
  <g transform="matrix(1 0 0 1 -382 -587 )">
    <path d="M 17.84184 13.3814364444444  C 17.847888 13.7957368888889  17.770872 14.1568248888889  17.605488 14.4527288888889  C 17.43996 14.7486826666667  17.085288 15.1572088888889  16.535736 15.6661866666667  C 15.938712 16.2344248888889  15.572208 16.6547484444444  15.436344 16.9269582222222  C 15.300336 17.1991928888889  15.235248 17.6431608888889  15.235248 18.2706844444444  L 14.236512 18.2706844444444  C 14.2542 17.7024462222222  14.34876 17.2229866666667  14.508384 16.8322062222222  C 14.673912 16.4415751111111  15.028416 15.9621404444444  15.584184 15.3939022222222  C 16.133712 14.8256391111111  16.482504 14.4232106666667  16.624272 14.186368  C 16.766208 13.9496746666667  16.837032 13.6537208888889  16.837032 13.2926328888889  C 16.837032 12.7539626666667  16.659816 12.3219413333333  16.311072 11.9904213333333  C 15.962304 11.6649244444444  15.483552 11.4991893333333  14.886648 11.4991893333333  C 13.598136 11.4991893333333  12.894816 12.2628551111111  12.77652 13.7838897777778  L 11.836896 13.7838897777778  C 11.854584 13.1979555555556  11.93148 12.7362417777778  12.061464 12.4048711111111  C 12.191568 12.0733013333333  12.410208 11.7654008888889  12.717528 11.4932657777778  C 13.024824 11.2211057777778  13.367664 11.0138062222222  13.751832 10.8894364444444  C 14.1312358951736 10.759346636493  14.5283484778154 10.6933948573019  14.927952 10.6941084444444  C 15.784944 10.6941084444444  16.482504 10.9368497777778  17.026152 11.4221831111111  C 17.569944 11.9075413333333  17.84184 12.5647075555556  17.84184 13.3814364444444  Z M 16.704216 9.02996266666667  L 15.631608 9.02996266666667  L 15.631608 3.35310577777778  C 15.631608 2.235968  14.773872 1.33036088888889  13.715808 1.33036088888889  L 3.178968 1.33036088888889  C 2.120928 1.33036088888889  1.263192 2.235968  1.263192 3.35310577777778  L 1.263192 16.5006364444444  C 1.263192 17.6177493333333  2.120928 18.5233564444444  3.178968 18.5233564444444  L 10.105176 18.5233564444444  L 11.802312 18.5235306666667  L 11.210568 19.6695644444444  L 2.368464 19.6695644444444  C 1.147608 19.6695644444444  0.15792 18.6432213333333  0.15792 17.3771484444444  L 0.15792 2.47659377777778  C 0.15792 1.21052088888889  1.147608 0.184152888888889  2.368464 0.184152888888889  L 14.526336 0.184152888888889  C 15.747192 0.184152888888889  16.736856 1.21052088888889  16.736856 2.47659377777778  L 16.736856 8.96674488888889  L 16.704216 9.02996266666667  Z M 10.105176 11.6339626666667  C 10.105176 11.6408355435535  10.099803416998 11.6464071111111  10.093176 11.6464071111111  L 2.380176 11.6464071111111  C 2.37354858300203 11.6464071111111  2.368176 11.6408355435535  2.368176 11.6339626666667  L 2.368176 10.5124195555556  C 2.368176 10.5055466786688  2.37354858300203 10.4999751111111  2.380176 10.4999751111111  L 10.093176 10.4999751111111  C 10.099803416998 10.4999751111111  10.105176 10.5055466786688  10.105176 10.5124195555556  L 10.105176 11.6339626666667  Z M 13.42092 4.756864  C 13.42092 4.76373687688678  13.415547416998 4.76930844444444  13.40892 5  L 2.380176 5  C 2.37354858300203 4.76930844444444  2.368176 4.76373687688678  2.368176 4.756864  L 2.368176 3.635296  C 2.368176 3.62842312311322  2.37354858300203 3.62285155555556  2.380176 4  L 13.40892 4  C 13.415547416998 3.62285155555556  13.42092 3.62842312311322  13.42092 3.635296  L 13.42092 4.756864  Z M 13.42092 7.07387022222222  L 13.42092 8.19541333333333  C 13.42092 8.20228621022012  13.415547416998 8.20785777777778  13.40892 8.20785777777778  L 2.380176 8.20785777777778  C 2.37354858300203 8.20785777777778  2.368176 8.20228621022012  2.368176 8.19541333333333  L 2.368176 7.07387022222222  C 2.368176 7.06699734533544  2.37354858300203 7.06142577777778  2.380176 7  L 13.40892 7  C 13.415547416998 7.06142577777778  13.42092 7.06699734533544  13.42092 7.07387022222222  Z M 2.380176 16.2306417777778  C 2.37354858300203 16.2306417777778  2.368176 16.2250702102201  2.368176 16.2181973333333  L 2.368176 15.0974257777778  C 2.368176 15.090552900891  2.37354858300203 15.0849813333333  2.380176 15.0849813333333  L 12.304176 15.0849813333333  C 12.310803416998 15.0849813333333  12.316176 15.090552900891  12.316176 15.0974257777778  L 12.316176 16.2181973333333  C 12.316176 16.2250702102201  12.310803416998 16.2306417777778  12.304176 16.2306417777778  L 2.380176 16.2306417777778  Z M 15.33588 19.6319573333333  L 15.33588 20.8157226666667  L 14.22468 20.8157226666667  L 14.22468 19.6319573333333  L 15.33588 19.6319573333333  Z " fill-rule="nonzero" fill="#000000" stroke="none" transform="matrix(1 0 0 1 382 587 )" />
  </g>
</svg>