<?xml version="1.0" encoding="utf-8"?>
<svg version="1.1" xmlns:xlink="http://www.w3.org/1999/xlink" width="22px" height="19px" xmlns="http://www.w3.org/2000/svg">
  <g transform="matrix(1 0 0 1 -997 -978 )">
    <path d="M 22 16.8625  C 22 18.0405  21.0741666666667 19  19.9375 19  L 13.9241666666667 19  C 13.54375 19  13.2366666666667 18.68175  13.2366666666667 18.2875  C 13.2366666666667 17.89325  13.54375 17.575  13.9241666666667 17.575  L 19.9375 17.575  C 20.3179166666667 17.575  20.625 17.25675  20.625 16.8625  L 20.625 3.5625  C 20.625 3.16825  20.3179166666667 2.85  19.9375 2.85  L 17.8154166666667 2.85  C 17.435 2.85  17.1279166666667 2.53175  17.1279166666667 2.1375  C 17.1279166666667 1.74325  17.435 1.425  17.8154166666667 1.425  L 19.9375 1.425  C 21.0741666666667 1.425  22 2.3845  22 3.5625  L 22 16.8625  Z M 15.125 1.1875  C 15.125 1.58175  14.8179166666667 1.9  14.4375 2  L 0.6875 2  C 0.307083333333333 1.9  0 1.58175  0 1.1875  C 0 0.793250000000001  0.307083333333333 0.475  0.6875 0.475  L 14.4375 0.475  C 14.8179166666667 0.475  15.125 0.793250000000001  15.125 1.1875  Z M 15.125 4.5125  C 15.125 4.90675  14.8179166666667 5.225  14.4375 5.225  L 11.6875 5.225  C 11.3070833333333 5.225  11 4.90675  11 4.5125  C 11 4.11825  11.3070833333333 3.8  11.6875 3.8  L 14.4375 3.8  C 14.8179166666667 3.8  15.125 4.11825  15.125 4.5125  Z M 15.125 7.99425  C 15.125 8.3885  14.8179166666667 8.70675  14.4375 8.70675  L 11.6875 8.70675  C 11.3070833333333 8.70675  11 8.3885  11 7.99425  C 11 7.6  11.3070833333333 7.28175  11.6875 7.28175  L 14.4375 7.28175  C 14.8179166666667 7.28175  15.125 7.6  15.125 7.99425  Z " fill-rule="nonzero" fill="#4d4d4d" stroke="none" transform="matrix(1 0 0 1 997 978 )" />
  </g>
</svg>