<?xml version="1.0" encoding="utf-8"?>
<svg version="1.1" xmlns:xlink="http://www.w3.org/1999/xlink" width="9px" height="13px" xmlns="http://www.w3.org/2000/svg">
  <g transform="matrix(1 0 0 1 -998 -982 )">
    <path d="M 8.55 10.25  C 8.55 11.49  7.641 12.5  6.525 12.5  L 2.025 12.5  C 0.909 12.5  0 11.49  0 10.25  L 0 2.25  C 0 1.01  0.909 0  2.025 0  L 6.525 0  C 7.641 0  8.55 1.01  8.55 2.25  L 8.55 10.25  Z M 6.525 1.5  L 2.025 1.5  C 1.6515 1.5  1.35 1.835  1.35 2.25  L 1.35 10.25  C 1.35 10.665  1.6515 11  2.025 11  L 6.525 11  C 6.8985 11  7.2 10.665  7.2 10.25  L 7.2 2.25  C 7.2 1.835  6.8985 1.5  6.525 1.5  Z " fill-rule="nonzero" fill="#4d4d4d" stroke="none" transform="matrix(1 0 0 1 998 982 )" />
  </g>
</svg>