<?xml version="1.0" encoding="utf-8"?>
<svg version="1.1" xmlns:xlink="http://www.w3.org/1999/xlink" width="6px" height="6px" xmlns="http://www.w3.org/2000/svg">
  <g transform="matrix(1 0 0 1 -1008 -989 )">
    <path d="M 5.4 1.085  C 5.4 1.5  4.998 1.835  4.5 1.835  L 0.9 1.835  C 0.402000000000001 1.835  0 1.5  0 1.085  C 0 0.670000000000002  0.402000000000001 0.335000000000001  0.9 0.335000000000001  L 4.5 0.335000000000001  C 4.998 0.335000000000001  5.4 0.670000000000002  5.4 1.085  Z M 5.4 4.75  C 5.4 5.165  4.998 5.5  4.5 5.5  L 0.9 5.5  C 0.402000000000001 5.5  0 5.165  0 4.75  C 0 4.335  0.402000000000001 4  0.9 4  L 4.5 4  C 4.998 4  5.4 4.335  5.4 4.75  Z " fill-rule="nonzero" fill="#4d4d4d" stroke="none" transform="matrix(1 0 0 1 1008 989 )" />
  </g>
</svg>