<?xml version="1.0" encoding="utf-8"?>
<svg version="1.1" xmlns:xlink="http://www.w3.org/1999/xlink" width="22px" height="22px" xmlns="http://www.w3.org/2000/svg">
  <g transform="matrix(1 0 0 1 -993 -975 )">
    <path d="M 20.625 21.3125  C 20.625 21.6929166666667  20.3179166666667 22  19.9375 22  L 2.0625 22  C 0.925833333333333 22  0 21.0741666666667  0 19.9375  L 0 2.0625  C 0 0.925833333333333  0.925833333333333 0  2.0625 0  L 19.9375 0  C 21.0741666666667 0  22 0.925833333333333  22 2.0625  L 22 17.4166666666667  C 22 17.7970833333333  21.6929166666667 18.1041666666667  21.3125 18.1041666666667  C 20.9320833333333 18.1041666666667  20.625 17.7970833333333  20.625 17.4166666666667  L 20.625 2.0625  C 20.625 1.68208333333333  20.3179166666667 1.375  19.9375 1.375  L 2.0625 1.375  C 1.68208333333333 1.375  1.375 1.68208333333333  1.375 2.0625  L 1.375 19.9375  C 1.375 20.3179166666667  1.68208333333333 20.625  2.0625 20.625  L 19.9375 20.625  C 20.3179166666667 20.625  20.625 20.9320833333333  20.625 21.3125  Z " fill-rule="nonzero" fill="#4d4d4d" stroke="none" transform="matrix(1 0 0 1 993 975 )" />
  </g>
</svg>