<?xml version="1.0" encoding="utf-8"?>
<svg version="1.1" xmlns:xlink="http://www.w3.org/1999/xlink" width="92px" height="36px" xmlns="http://www.w3.org/2000/svg">
  <g transform="matrix(1 0 0 1 -848 -864 )">
    <path d="M 850 876  A 10 10 0 0 1 860 866 L 928 866  A 10 10 0 0 1 938 876 L 938 888  A 10 10 0 0 1 928 898 L 860 898  A 10 10 0 0 1 850 888 L 850 876  Z " fill-rule="nonzero" fill="#ffffff" stroke="none" />
    <path d="M 849 876  A 11 11 0 0 1 860 865 L 928 865  A 11 11 0 0 1 939 876 L 939 888  A 11 11 0 0 1 928 899 L 860 899  A 11 11 0 0 1 849 888 L 849 876  Z " stroke-width="2" stroke-dasharray="2,2" stroke="#4a90e2" fill="none" />
  </g>
</svg>