<?xml version="1.0" encoding="utf-8"?>
<svg version="1.1" xmlns:xlink="http://www.w3.org/1999/xlink" width="24px" height="34px" xmlns="http://www.w3.org/2000/svg">
  <defs>
    <linearGradient gradientUnits="userSpaceOnUse" x1="159.5" y1="198" x2="159.5" y2="227" id="LinearGradient401">
      <stop id="Stop402" stop-color="#337cb1" offset="0" />
      <stop id="Stop403" stop-color="#f2f2f2" offset="0" />
      <stop id="Stop404" stop-color="#e4e4e4" offset="1" />
      <stop id="Stop405" stop-color="#ffffff" offset="1" />
    </linearGradient>
  </defs>
  <g transform="matrix(1 0 0 1 -148 -196 )">
    <path d="M 159.5 201.5  C 159.668 201.5  159.8 201.632  159.8 201.8  C 159.8 201.968  159.668 202.1  159.5 202.1  C 159.332 202.1  159.2 201.968  159.2 201.8  C 159.2 201.632  159.332 201.5  159.5 201.5  Z " fill-rule="nonzero" fill="url(#LinearGradient401)" stroke="none" />
    <path d="M 159.5 200  C 160.508 200  161.3 200.792  161.3 201.8  C 161.3 202.808  160.508 203.6  159.5 203.6  C 158.492 203.6  157.7 202.808  157.7 201.8  C 157.7 200.792  158.492 200  159.5 200  Z " stroke-width="4" stroke="#2a76f9" fill="none" />
    <path d="M 150 209.4  L 169 209.4  M 159.5 205.6  L 159.5 217.5  M 151.9 227  L 159.5 217.5  M 159.5 217.5  L 167.1 227  " stroke-width="4" stroke="#2a76f9" fill="none" />
  </g>
</svg>