<?xml version="1.0" encoding="utf-8"?>
<svg version="1.1" xmlns:xlink="http://www.w3.org/1999/xlink" width="51px" height="51px" xmlns="http://www.w3.org/2000/svg">
  <g transform="matrix(1 0 0 1 -71 -374 )">
    <path d="M 96.5 375  C 110.22 375  121 385.78  121 399.5  C 121 413.22  110.22 424  96.5 424  C 82.78 424  72 413.22  72 399.5  C 72 385.78  82.78 375  96.5 375  Z " fill-rule="nonzero" fill="#ffffff" stroke="none" />
    <path d="M 96.5 375  C 110.22 375  121 385.78  121 399.5  C 121 413.22  110.22 424  96.5 424  C 82.78 424  72 413.22  72 399.5  C 72 385.78  82.78 375  96.5 375  Z " stroke-width="2" stroke="#4a90e2" fill="none" />
  </g>
</svg>