<?xml version="1.0" encoding="utf-8"?>
<svg version="1.1" xmlns:xlink="http://www.w3.org/1999/xlink" width="31px" height="46px" xmlns="http://www.w3.org/2000/svg">
  <defs>
    <linearGradient gradientUnits="userSpaceOnUse" x1="109" y1="187" x2="109" y2="228" id="LinearGradient140">
      <stop id="Stop141" stop-color="#337cb1" offset="0" />
      <stop id="Stop142" stop-color="#f2f2f2" offset="0" />
      <stop id="Stop143" stop-color="#e4e4e4" offset="1" />
      <stop id="Stop144" stop-color="#ffffff" offset="1" />
    </linearGradient>
  </defs>
  <g transform="matrix(1 0 0 1 -94 -185 )">
    <path d="M 109 190.5  C 109.952 190.5  110.7 191.248  110.7 192.2  C 110.7 193.152  109.952 193.9  109 193.9  C 108.048 193.9  107.3 193.152  107.3 192.2  C 107.3 191.248  108.048 190.5  109 190.5  Z " fill-rule="nonzero" fill="url(#LinearGradient140)" stroke="none" />
    <path d="M 109 189  C 110.792 189  112.2 190.408  112.2 192.2  C 112.2 193.992  110.792 195.4  109 195.4  C 107.208 195.4  105.8 193.992  105.8 192.2  C 105.8 190.408  107.208 189  109 189  Z " stroke-width="4" stroke="#2a76f9" fill="none" />
    <path d="M 96 202.6  L 122 202.6  M 109 197.4  L 109 215  M 98.6 228  L 109 215  M 109 215  L 119.4 228  " stroke-width="4" stroke="#2a76f9" fill="none" />
  </g>
</svg>