<?xml version="1.0" encoding="utf-8"?>
<svg version="1.1" xmlns:xlink="http://www.w3.org/1999/xlink" width="22px" height="12px" xmlns="http://www.w3.org/2000/svg">
  <g transform="matrix(1 0 0 1 -1596 -340 )">
    <path d="M 21.5878100099826 1.69546806328125  C 21.9427447087674 1.34345154609375  21.9680031436632 0.795125711718749  21.6422231165365 0.4756647  C 21.5002653546007 0.33547015546875  21.2990846573351 0.25919947265625  21.0782077439236 0.25919947265625  C 20.8258115384115 0.25919947265625  20.5805091942274 0.3583170609375  20.4030015377604 0.531014388281249  L 10.9994760342882 9.81543393515625  L 1.59605798133681 0.5322279375  C 1.41935644010417 0.3583170609375  1.17402723328993 0.2584343625  0.922410280381944 0.2584343625  C 0.699974861762153 0.2584343625  0.498821027126736 0.33549650390625  0.355251034722222 0.4764825328125  C 0.032238698784722 0.797077971093751  0.0578733155381941 1.3450608375  0.412834876953125 1.696259521875  L 10.3061858424479 11.4627594398438  C 10.483666610026 11.63777836875  10.7226543717448 11.7392176101562  10.9640335902778 11.7415656117188  L 11.0539697287326 11.7415656117188  C 11.2898136174045 11.733782896875  11.5217612430556 11.6331351398438  11.6952920223524 11.4627594398438  L 21.5878100099826 1.69546806328125  Z " fill-rule="nonzero" fill="#cecece" stroke="none" transform="matrix(1 0 0 1 1596 340 )" />
  </g>
</svg>