<?xml version="1.0" encoding="utf-8"?>
<svg version="1.1" xmlns:xlink="http://www.w3.org/1999/xlink" width="8px" height="8px" xmlns="http://www.w3.org/2000/svg">
  <defs>
    <mask fill="white" id="clip197">
      <path d="M 4 0  C 6.20913906097412 0  8 1.79086093902588  8 4  C 8 6.20913906097412  6.20913906097412 8  4 8  C 1.79086093902588 8  0 6.20913906097412  0 4  C 0 1.79086093902588  1.79086093902588 0  4 0  Z " fill-rule="evenodd" />
    </mask>
  </defs>
  <g transform="matrix(1 0 0 1 -1071 -1540 )">
    <path d="M 4 0  C 6.20913906097412 0  8 1.79086093902588  8 4  C 8 6.20913906097412  6.20913906097412 8  4 8  C 1.79086093902588 8  0 6.20913906097412  0 4  C 0 1.79086093902588  1.79086093902588 0  4 0  Z " fill-rule="nonzero" fill="#ff3f40" stroke="none" transform="matrix(1 0 0 1 1071 1540 )" />
    <path d="M 4 0  C 6.20913906097412 0  8 1.79086093902588  8 4  C 8 6.20913906097412  6.20913906097412 8  4 8  C 1.79086093902588 8  0 6.20913906097412  0 4  C 0 1.79086093902588  1.79086093902588 0  4 0  Z " stroke-width="2" stroke="#ffffff" fill="none" transform="matrix(1 0 0 1 1071 1540 )" mask="url(#clip197)" />
  </g>
</svg>