<?xml version="1.0" encoding="utf-8"?>
<svg version="1.1" xmlns:xlink="http://www.w3.org/1999/xlink" width="33px" height="30px" xmlns="http://www.w3.org/2000/svg">
  <g transform="matrix(1 0 0 1 -188 -468 )">
    <path d="M 22.6311904905042 11.2706453522795  L 22.6326525481623 11.2706453522795  C 22.6294027211858 11.6671563390641  22.9523135923941 11.9916122383644  23.3549090312884 11.9963576080521  L 31.4430119961743 11.9963576080521  C 31.8456074350686 11.9916122383644  32.168518306277 11.6671563390641  32.1652684793005 11.2706453522795  C 32.168518306277 10.8741343654948  31.8456074350686 10.5496784661945  31.4430119961743 10.5449330965068  L 23.3549090312884 10.5449330965068  C 22.9517404377607 10.5488910284947  22.6279449520094 10.8735785128293  22.6311904905042 11.2706453522795  Z M 32.1652684793004 14.265648312611  C 32.1652684793004 13.8682344582593  31.7822093728651 13.5413759621078  31.3114268069408 13.5413759621078  L 21.7554179532723 13.5413759621078  C 21.2831733296898 13.5413759621078  20.9015762809127 13.8682344582593  20.9015762809127 14.265648312611  C 20.9015762809127 14.6645020722321  21.2817112720317 14.9899206631143  21.7554179532723 14.9899206631143  L 31.3114268069408 14.9899206631143  C 31.7822093728651 14.9899206631143  32.1652684793004 14.6645020722321  32.1652684793004 14.265648312611  Z M 31.4430119961743 16.5349390171699  L 31.4430119961743 16.5363789224393  L 23.3549090312884 16.5363789224393  C 22.9523150863837 16.5403368040139  22.6287547489017 16.8641447389381  22.6311904905042 17.2606512729426  C 22.6287547489017 17.657157806947  22.9523150863837 17.9809657418713  23.3549090312884 17.9849236234458  L 31.4430119961743 17.9849236234458  C 31.8450330178173 17.9801794237176  32.1677096383505 17.6566021906072  32.1652684793005 17.2606512729426  C 32.168518306277 16.8641402861579  31.8456074350686 16.5396843868577  31.4430119961743 16.5349390171699  Z M 15.505121464681 29.3990526939017  L 15.5065835223391 29.3990526939017  L 9.75631075283509 29.3990526939017  C 4.30722186090996 29.3990526939017  0 29.3990526939017  0 26.576838365897  L 0 26.0109555950266  C 0 20.7193037300178  4.37740062850116 16.4154268798105  9.75777281049323 16.4154268798105  L 15.505121464681 16.4154268798105  C 20.885493646673 16.4154268798105  25.2643563328324 20.7193037300178  25.2643563328324 26.0109555950266  L 25.2643563328324 26.5753984606276  C 25.2628942751742 29.3990526939017  20.7407499385162 29.3990526939017  15.505121464681 29.3990526939017  Z M 9.70513873479983 18.0065222024867  L 9.70513873479983 18.0050822972173  C 5.18007028282552 18.0050822972173  1.49714704194562 21.6163647128478  1.49714704194562 26.0541527531084  L 1.49714704194562 26.6301148608644  C 1.49714704194562 27.7805991711072  6.24006208498429 27.7805991711072  9.70513873479983 27.7805991711072  L 15.5577555403744 27.7805991711072  C 18.4263126656647 27.7805991711072  23.7657472332286 27.7805991711072  23.7657472332286 26.628674955595  L 23.7657472332286 26.0555926583777  C 23.7657472332286 21.6163647128478  20.0828239923487 18.0065222024867  15.5577555403744 18.0065222024867  L 9.70513873479983 18.0065222024867  Z M 20.0886722229813 8.22380580224985  C 20.0822255312519 12.4328478438039  16.6179523086096 15.8426997858507  12.3441528077606 15.8466642984014  C 8.07001998141105 15.8434916797754  4.60527619632536 12.4331765674882  4.59963339253996 8.22380580224985  C 4.60447172855238 4.01410616365251  8.06968650426156 0.603327459671164  12.3441528077606 0.600947306098284  C 16.6186191112597 0.603327459671164  20.0838338869689 4.01410616365251  20.0886722229813 8.22380580224985  Z M 12.3441528077606 2.17332386027235  C 8.95217904085257 2.17332386027235  6.19473829758164 4.8760260509177  6.19473829758164 8.20076731793961  C 6.19473829758164 11.5240686796921  8.95364109851072 14.2282107756069  12.3441528077606 14.2282107756069  C 15.7361265746687 14.2282107756069  18.4950293755978 11.5240686796921  18.4950293755978 8.20076731793961  C 18.4950293755978 4.8760260509177  15.7361265746687 2.17332386027235  12.3441528077606 2.17332386027235  Z " fill-rule="nonzero" fill="#4d4d4d" stroke="none" transform="matrix(1 0 0 1 188 468 )" />
  </g>
</svg>