<?xml version="1.0" encoding="utf-8"?>
<svg version="1.1" xmlns:xlink="http://www.w3.org/1999/xlink" width="28px" height="29px" xmlns="http://www.w3.org/2000/svg">
  <g transform="matrix(1 0 0 1 -99 -469 )">
    <path d="M 20.5144202177419 17.6304918287402  C 21.0055294919355 17.9372361033465  21.6699714677419 17.7911673848425  21.9877480685484 17.2653200895669  C 22.3055246693548 16.7540796604331  22.1466363548387 16.0821636466535  21.6410826935484 15.7608125059055  C 20.6877529193548 15.161930851378  19.6766455685484 14.6799041545276  18.6222050282258 14.3293392814961  C 20.6588641169355 12.9124729232283  21.9877480685484 10.5461600088583  21.9877480685484 7.85849595374016  C 21.9877480685484 3.520255625  18.5066499032258 0  14.2166658629032 0  C 9.92668182258064 0  6.46002804435484 3.53486249114173  6.46002804435484 7.87310281988189  C 6.46002804435484 10.560766875  7.78891199596774 12.9270797608268  9.82557108467742 14.3439461476378  C 4.22114747983871 16.2136254704724  0.17671810483871 21.5597398198819  0.17671810483871 27.8406938307087  C 0.17671810483871 28.4395754852362  0.667827379032258 28.9362090767717  1.26004739112903 28.9362090482283  C 1.85226740322581 28.936209019685  2.34337670564516 28.4395754852362  2.34337670564516 27.8406938307087  C 2.34337670564516 21.2091749468504  7.67335687096774 15.8192399990157  14.23111025 15.8192399990157  C 16.4555464274194 15.8192399990157  18.6222050282258 16.4473354143701  20.5144202177419 17.6304918287402  Z M 14.23111025 13.5405683100394  C 11.1400106209677 13.5405683100394  8.62668664516129 10.9843661072835  8.62668664516129 7.87310281988189  C 8.62668664516129 4.74723269488189  11.1400106209677 2.20563732972441  14.23111025 2.20563732972441  C 17.3222098790323 2.20563732972441  19.8355338548387 4.74723266633858  19.8355338548387 7.87310281988189  C 19.8355338548387 10.9989729734252  17.3222098790323 13.5405683100394  14.23111025 13.5405683100394  Z M 27.8377263104839 24.0721214242126  C 27.8377263104839 23.473239769685  27.3466170362903 22.9766061781496  26.7543969959677 22.9766061781496  L 24.1255178951613 22.9766061781496  L 24.1255178951613 20.3181558838583  C 24.1255178951613 19.7192742293307  23.6344086209677 19.2226406377953  23.0421885806452 19.2226406377953  C 22.4499685403226 19.2226406377953  21.958859266129 19.7192742007874  21.958859266129 20.3181558838583  L 21.958859266129 22.9766061781496  L 19.3299801653226 22.9766061781496  C 18.7377601532258 22.9766061781496  18.2466508508064 23.4732397411417  18.2466508790323 24.0721214242126  C 18.2466509072581 24.6710031072835  18.7377601532258 25.1676366702756  19.3299801653226 25.1676366417323  L 21.958859266129 25.1676366417323  L 21.958859266129 27.8260869645669  C 21.958859266129 28.4249686190945  22.4499685403226 28.9216022106299  23.0421885806452 28.9216021820866  C 23.6344086209677 28.9216021535433  24.1255178951613 28.4249686190945  24.1255178951613 27.8260869645669  L 24.1255178951613 25.1676366417323  L 26.7543969959677 25.1676366417323  C 27.3466170080645 25.1676366417323  27.8377263104839 24.6710030787402  27.8377263104839 24.0721214242126  Z " fill-rule="nonzero" fill="#626262" stroke="none" transform="matrix(1 0 0 1 99 469 )" />
  </g>
</svg>