<?xml version="1.0" encoding="utf-8"?>
<svg version="1.1" xmlns:xlink="http://www.w3.org/1999/xlink" width="72.0229007633582px" height="10px" preserveAspectRatio="xMinYMid meet" viewBox="395 551  72.0229007633582 8" xmlns="http://www.w3.org/2000/svg">
  <path d="M 480 74  L 467.022900763358 74  A 5 5 0 0 0 462.022900763358 79 L 462.022900763358 550  A 5 5 0 0 1 457.022900763358 555 L 397 555  " stroke-width="2" stroke="#d7af1f" fill="none" />
  <path d="M 478.5 70.5  A 3.5 3.5 0 0 0 475 74 A 3.5 3.5 0 0 0 478.5 77.5 A 3.5 3.5 0 0 0 482 74 A 3.5 3.5 0 0 0 478.5 70.5 Z M 398.5 551.5  A 3.5 3.5 0 0 0 395 555 A 3.5 3.5 0 0 0 398.5 558.5 A 3.5 3.5 0 0 0 402 555 A 3.5 3.5 0 0 0 398.5 551.5 Z " fill-rule="nonzero" fill="#d7af1f" stroke="none" />
</svg>