<?xml version="1.0" encoding="utf-8"?>
<svg version="1.1" xmlns:xlink="http://www.w3.org/1999/xlink" width="14px" height="14px" xmlns="http://www.w3.org/2000/svg">
  <g transform="matrix(1 0 0 1 -1086 -1274 )">
    <path d="M 1.12933333333333 7  C 1.12933333333333 3.76288266666667  3.76288266666667 1.12933333333333  7 1.12933333333333  C 10.2371173333333 1.12933333333333  12.8706666666667 3.76288266666667  12.8706666666667 7  C 12.8706666666667 10.2371173333333  10.2371173333333 12.8706666666667  7 12.8706666666667  C 3.76288266666667 12.8706666666667  1.12933333333333 10.2371173333333  1.12933333333333 7  Z M 13.9813333333333 7  C 13.9813333333333 3.14432066666667  10.8556793333333 0.0186666666666659  7 0.0186666666666667  C 3.14432066666667 0.0186666666666667  0.0186666666666667 3.14432066666667  0.0186666666666667 7  C 0.0186666666666667 10.8556793333333  3.14432066666667 13.9813333333333  7 13.9813333333333  C 10.8556793333333 13.9813333333333  13.9813333333333 10.8556793333333  13.9813333333333 7  Z " fill-rule="nonzero" fill="#c1c1c1" stroke="none" transform="matrix(1 0 0 1 1086 1274 )" />
  </g>
</svg>