<?xml version="1.0" encoding="utf-8"?>
<svg version="1.1" xmlns:xlink="http://www.w3.org/1999/xlink" width="19px" height="19px" xmlns="http://www.w3.org/2000/svg">
  <g transform="matrix(1 0 0 1 -1227 -242 )">
    <path d="M 18.9893973214286 9.5  C 18.9893973214286 4.25909598214286  14.7409040178571 0.0106026785714286  9.5 0.0106026785714286  C 4.25909598214286 0.0106026785714286  0.0106026785714286 4.25909598214286  0.0106026785714286 9.5  C 0.0106026785714286 14.7409040178571  4.25909598214286 18.9893973214286  9.5 18.9893973214286  C 14.7409040178571 18.9893973214286  18.9893973214286 14.7409040178571  18.9893973214286 9.5  Z M 10.7479352678571 9.50021205357143  L 14.4877120535714 12.7145200892857  C 14.8282700892857 13.0073660714286  14.8670758928571 13.5209598214286  14.5742299107143 13.8615178571429  C 14.41328125 14.0487611607143  14.1859598214286 14.1448214285714  13.9571540178571 14.1448214285714  C 13.7694866071429 14.1448214285714  13.5809709821429 14.0801450892857  13.4274441964286 13.9484598214286  L 9.5 10.5727790178571  L 5.57255580357143 13.9484598214286  C 5.42525094350163 14.0753256579824  5.23725180590667 14.145016291054  5.04284598214286 14.1448214285714  C 4.81404017857143 14.1448214285714  4.58650669642857 14.0487611607143  4.42577008928571 13.8615178571429  C 4.13292410714286 13.5209598214286  4.17172991071429 13.0073660714286  4.51228794642857 12.7145200892857  L 8.25206473214286 9.5  L 4.51228794642857 6.28569196428571  C 4.17172991071429 5.99284598214286  4.13292410714286 5.47925223214286  4.42577008928571 5.13869419642857  C 4.71861607142857 4.79792410714286  5.23178571428572 4.75933035714286  5.57276785714286 5.05175223214286  L 9.5 8.42743303571429  L 13.4272321428571 5.05175223214286  C 13.7682142857143 4.75911830357143  14.2815959821429 4.79813616071429  14.5742299107143 5.13869419642857  C 14.8670758928571 5.47925223214286  14.8282700892857 5.99284598214286  14.4877120535714 6.28569196428572  L 10.7479352678571 9.50021205357143  Z " fill-rule="nonzero" fill="#939393" stroke="none" transform="matrix(1 0 0 1 1227 242 )" />
  </g>
</svg>