<?xml version="1.0" encoding="utf-8"?>
<svg version="1.1" xmlns:xlink="http://www.w3.org/1999/xlink" width="21px" height="20px" preserveAspectRatio="xMinYMid meet" viewBox="468 943  21 18" xmlns="http://www.w3.org/2000/svg">
  <path d="M 298 1681  L 375 1681  A 5 5 0 0 0 380 1676 L 380 957  A 5 5 0 0 1 385 952 L 480 952  " stroke-width="2" stroke="#d7af1f" fill="none" />
  <path d="M 299.5 1677.5  A 3.5 3.5 0 0 0 296 1681 A 3.5 3.5 0 0 0 299.5 1684.5 A 3.5 3.5 0 0 0 303 1681 A 3.5 3.5 0 0 0 299.5 1677.5 Z M 478.5 948.5  A 3.5 3.5 0 0 0 475 952 A 3.5 3.5 0 0 0 478.5 955.5 A 3.5 3.5 0 0 0 482 952 A 3.5 3.5 0 0 0 478.5 948.5 Z " fill-rule="nonzero" fill="#d7af1f" stroke="none" />
</svg>