<?xml version="1.0" encoding="utf-8"?>
<svg version="1.1" xmlns:xlink="http://www.w3.org/1999/xlink" width="45px" height="25px" xmlns="http://www.w3.org/2000/svg">
  <g transform="matrix(1 0 0 1 -1051 -1511 )">
    <path d="M 39.4615384615385 0  C 39.4615384615385 0  5.53846153846154 0  5.53846153846154 0  C 2.47965387197641 0  0 2.47827247753012  0 5.53538180576188  C 0 5.53538180576188  0 15.1443781231623  0 15.1443781231623  C 0 18.201487451394  2.47965354185838 20.6797645480105  5.53846120834351 20.6797645480105  C 5.53846120834351 20.6797645480105  19.5269226661095 20.6797645480105  19.5269226661095 20.6797645480105  C 19.5269226661095 20.6797645480105  21.5063407604511 24.6186297519841  21.5063407604511 24.6186297519841  C 21.7618772066556 25.1271225361793  22.4881236736591 25.1271225361793  22.7436587993915 24.6186297519841  C 22.7436587993915 24.6186297519841  24.723075573261 20.6797645480105  24.723075573261 20.6797645480105  C 24.723075573261 20.6797645480105  39.4615384615385 20.6797645480105  39.4615384615385 20.6797645480105  C 42.5203461280236 20.6797645480105  45 18.2014927303499  45 15.1443834021181  C 45 15.1443834021181  45 5.53538642484826  45 5.53538642484826  C 45 2.47827709661651  42.5203461280236 0  39.4615384615385 0  Z " fill-rule="nonzero" fill="#ff3f40" stroke="none" transform="matrix(1 0 0 1 1051 1511 )" />
  </g>
</svg>