<?xml version="1.0" encoding="utf-8"?>
<svg version="1.1" xmlns:xlink="http://www.w3.org/1999/xlink" width="321px" height="133px" xmlns="http://www.w3.org/2000/svg">
  <defs>
    <linearGradient gradientUnits="userSpaceOnUse" x1="160.498488500408" y1="0.394636266250754" x2="160.498488481142" y2="132.999994774461" id="LinearGradient194">
      <stop id="Stop195" stop-color="#fed576" stop-opacity="0.4" offset="0" />
      <stop id="Stop196" stop-color="#fed576" stop-opacity="0" offset="1" />
    </linearGradient>
  </defs>
  <g transform="matrix(1 0 0 1 -923 -1530 )">
    <path d="M 0 133  C 0 133  0 91.1706769989665  0 91.1706769989665  C 4.34231056277835 72.7335087001091  22.1791872356267 39.385263277772  58.7882041353496 53.4896977970278  C 104.549476582364 71.1202406167685  133.609555574355 23.0683650322467  154.653059592157 12.0060740645333  C 195.06994960462 -2.85890358784564  213.775292092634 44.1558913161662  244.171466032083 37.5876500026663  C 274.567639971531 31.0194086891665  309.406130662078 3.96006329064213  314.650488395257 1.63516121550108  C 321.343602258095 -1.33199610248805  320.99695328047 -0.439034395733117  320.99695328047 5.78352477433487  C 320.99695328047 5.78352477433487  320.99695328047 133  320.99695328047 133  L 0 133  Z " fill-rule="nonzero" fill="url(#LinearGradient194)" stroke="none" transform="matrix(1 0 0 1 923 1530 )" />
  </g>
</svg>