<?xml version="1.0" encoding="utf-8"?>
<svg version="1.1" xmlns:xlink="http://www.w3.org/1999/xlink" width="26px" height="8px" xmlns="http://www.w3.org/2000/svg">
  <g transform="matrix(1 0 0 1 -1386 -1233 )">
    <path d="M 7.88553821593392 0.138828383979032  L 7.22618281656182 0.138828383979032  C 7.22618281656182 0.138828383979032  7.22618281656182 7.12364441467038  7.22618281656182 7.12364441467038  C 7.22618281656182 7.27982662678428  7.15490079292019 7.33188679535077  6.98560680553519 7.34056358147079  C 6.81631281815019 7.34924037163126  6.24605981555759 7.35791778671383  5.62234498543125 7.33188742161968  C 5.72035712620465 7.50542319250549  5.82728007315207 7.79175603411851  5.86292099645787 7.95661506332918  C 6.69157073727503 7.95661506332918  7.19054171622599 7.94793819235981  7.48457866963627 7.8438167104342  C 7.76970552499261 7.73969522850858  7.88553821593392 7.55748386882118  7.88553821593392 7.12364441467038  C 7.88553821593392 7.12364441467038  7.88553821593392 0.138828383979032  7.88553821593392 0.138828383979032  Z M 6.12131649547228 1.01518414170096  L 5.47978129220804 1.01518414170096  L 5.47978129220804 5.83947897529325  L 6.12131649547228 5.83947897529325  L 6.12131649547228 1.01518414170096  Z M 3.87594275295738 3.17570447683849  L 1.30980132029535 3.17570447683849  L 1.30980132029535 3.75704994015401  L 3.87594275295738 3.75704994015401  L 3.87594275295738 3.17570447683849  Z M 1.67512003180222 3.17570447683849  L 1.02467446493901 3.17570447683849  C 1.02467446493901 3.17570447683849  1.02467446493901 6.90672386873154  1.02467446493901 6.90672386873154  C 1.02467446493901 7.67028135975464  1.29198085864245 7.86117040927484  2.15627169979543 7.86117040927484  C 2.34338614883333 7.86117040927484  3.60863627073893 7.86117040927484  3.81357118142974 7.86117040927484  C 4.60658026448612 7.86117040927484  4.802605165638 7.52277595396298  4.88279711030354 6.31670224556491  C 4.70459249377453 6.28199508492303  4.43728618858611 6.17787390468395  4.2947224953629 6.0650756810832  C 4.25017147400317 7.10629037104513  4.17888998145161 7.28850248494886  3.76902016007 7.28850248494886  C 3.49280366831263 7.28850248494886  2.42357827052889 7.28850248494886  2.20973299623912 7.28850248494886  C 1.75531215349778 7.28850248494886  1.67512003180222 7.22776570265465  1.67512003180222 6.89804770888043  C 1.67512003180222 6.89804770888043  1.67512003180222 3.17570447683849  1.67512003180222 3.17570447683849  Z M 4.27690265331508 3.17570447683849  C 4.27690265331508 3.17570447683849  3.6353670959908 3.17570447683849  3.6353670959908 3.17570447683849  C 3.6353670959908 3.17570447683849  3.6353670959908 3.27982632509775  3.6353670959908 3.27982632509775  C 3.5640852493792 4.69414278185668  3.47498338368975 5.21475004064149  3.35024041766448 5.36225536023699  C 3.27895857105288 5.43166968152073  3.20767672444128 5.449023164871  3.09184385646994 5.449023164871  C 2.96710089044467 5.449023164871  2.6552434753815 5.44034670333336  2.31665523506646 5.4056396073386  C 2.41466764138489 5.56182173325635  2.47703921291254 5.79609528846663  2.49485967456544 5.96963102702887  C 2.84235801293441 5.98698463967336  3.1898564398184 5.98698463967336  3.3769708888563 5.96963102702887  C 3.59972626120001 5.95227741438438  3.74228960036317 5.90021679194128  3.88485302804134 5.74403466602353  C 4.08978793873214 5.52711489585005  4.17889006996662 4.94576969112299  4.25908174908712 3.43600823552512  C 4.26799237823113 3.35791736650759  4.27690265331508 3.17570447683849  4.27690265331508 3.17570447683849  Z M 2.85126819950336 0.442516217374972  C 2.85126819950336 0.442516217374972  2.40575763184597 0.806941307143954  2.40575763184597 0.806941307143954  C 3.17203588965049 1.58785258320385  4.12542886203794 2.67245134787508  4.57093960672535 3.33188707683508  C 4.57093960672535 3.33188707683508  5.05209092065852 2.8893705146755  5.05209092065852 2.8893705146755  C 4.59767007791718 2.23861146274352  3.62645682090684 1.20607362220192  2.85126819950336 0.442516217374972  Z M 3.16312605714159 0.199566157528984  C 3.16312605714159 0.199566157528984  2.54832097100913 0.0173533540560375  2.54832097100913 0.0173533540560375  C 2.07607966661488 1.13665917162395  1.12268687125745 2.34273296621818  0 3.13232091930609  C 0.142563405549417 3.22776565955658  0.383139151031012 3.45336202056192  0.49006172178964 3.58351398610139  C 1.64838951635289 2.70715848696792  2.59287234642891 1.47505423030888  3.16312605714159 0.199566157528984  Z M 17.2234420649915 1.83947932007786  L 11.4585337403971 1.83947932007786  L 11.4585337403971 2.36876334208684  L 17.2234420649915 2.36876334208684  L 17.2234420649915 1.83947932007786  Z M 16.6353681581709 4.18221245868834  L 11.9842371378701 4.18221245868834  L 11.9842371378701 4.67678908301603  L 16.6353681581709 4.67678908301603  L 16.6353681581709 4.18221245868834  Z M 17.0274174293846 5.37093220965731  L 11.5832761753323 5.37093220965731  L 11.5832761753323 5.90889377065583  L 17.0274174293846 5.90889377065583  L 17.0274174293846 5.37093220965731  Z M 14.577109484299 0.0694144505779711  L 13.9266629437707 0.0694144505779711  L 13.9266629437707 6.82863291351785  L 14.577109484299 6.82863291351785  L 14.577109484299 0.0694144505779711  Z M 16.5551763905354 0.702819631276998  L 12.1000700058414 0.702819631276998  L 12.1000700058414 1.22342697625796  L 15.8958202830432 1.22342697625796  L 15.8958202830432 3.0108457169908  L 12.0376973721337 3.0108457169908  L 12.0376973721337 3.53145323436406  L 16.5551763905354 3.53145323436406  L 16.5551763905354 0.702819631276998  Z M 10.9595611681759 0.555314570269947  L 9.03495520432315 0.555314570269947  L 9.03495520432315 1.13665917162395  L 10.9595611681759 1.13665917162395  L 10.9595611681759 0.555314570269947  Z M 10.8169981830728 0.555314570269947  L 10.7189858652694 0.555314570269947  C 10.7189858652694 0.555314570269947  10.7189858652694 0.633405697875937  10.7189858652694 0.633405697875937  C 10.3893079885533 1.3622558774139  9.70322127709676 2.76789574334096  9.15078807229449 3.78308014363037  C 9.15078807229449 3.78308014363037  9.75668252928294 3.94793890347807  9.75668252928294 3.94793890347807  C 10.3002055475163 2.91540114913262  10.96847215138 1.5704987119709  11.3783419727616 0.659435728959993  C 11.3783419727616 0.659435728959993  10.9239207759602 0.520607344980962  10.9239207759602 0.520607344980962  L 10.8169981830728 0.555314570269947  Z M 11.3070597720899 3.02819941583144  L 9.84578457200241 3.02819941583144  L 9.7655928043669 3.60954418957775  L 11.3070597720899 3.60954418957775  L 11.3070597720899 3.02819941583144  Z M 11.1644960788667 3.02819941583144  L 11.0308433688476 3.02819941583144  C 11.0308433688476 3.02819941583144  11.0308433688476 3.15835146756706  11.0308433688476 3.15835146756706  C 10.8080879965038 5.39696293031058  10.095270858113 6.81127947326566  8.96367371177159 7.5488065884201  C 9.11514733708308 7.63557449002478  9.364633280198 7.86984816375476  9.47155585095663 8  C 10.6298836455199 7.18438184343572  11.4050725324684 5.63123596834395  11.6723789261718 3.10629037104513  C 11.6723789261718 3.10629037104513  11.289239221922 3.0108457169908  11.289239221922 3.0108457169908  L 11.1644960788667 3.02819941583144  Z M 14.5147368505912 7.13232057452149  C 12.2515427349384 7.13232057452149  10.5942426336991 6.69848103417453  9.87251539725428 4.30368731621903  C 9.87251539725428 4.30368731621903  9.33790243281738 4.50325347374801  9.33790243281738 4.50325347374801  C 10.2021930969403 7.22776522857582  11.9218645041623 7.7570495953694  14.4969163004233 7.7570495953694  C 14.4969163004233 7.7570495953694  17.0095968792167 7.7570495953694  17.0095968792167 7.7570495953694  C 17.0541479005765 7.56616024416267  17.1788905125417 7.27114983123655  17.2858132824591 7.12364441467038  C 16.8135717125198 7.13232120483085  14.888965748667 7.13232057452149  14.5147368505912 7.13232057452149  Z M 26 2.79392620540577  L 18.0610022579226 2.79392620540577  L 18.0610022579226 3.37527063436747  L 26 3.37527063436747  L 26 2.79392620540577  Z M 24.0041125435957 1.09327526930695  L 18.84510080035 1.09327526930695  L 18.84510080035 1.67462056023016  L 24.0041125435957 1.67462056023016  L 24.0041125435957 1.09327526930695  Z M 24.4852631494088 5.70065041892192  L 20.2885554502696 5.70065041892192  L 20.2885554502696 6.22125759151058  L 24.4852631494088 6.22125759151058  L 24.4852631494088 5.70065041892192  Z M 24.4852631494088 7.14099673437259  L 20.2885554502696 7.14099673437259  L 20.2885554502696 7.70498849884747  L 24.4852631494088 7.70498849884747  L 24.4852631494088 7.14099673437259  Z M 21.7854703344527 0  L 21.1350252101646 0  L 21.1350252101646 3.10629037104513  L 21.7854703344527 3.10629037104513  L 21.7854703344527 0  Z M 25.6079507287863 0.598698472586952  C 25.6079507287863 0.598698472586952  25.0376959558935 0.30368731621903  25.0376959558935 0.30368731621903  C 23.3893065723131 2.45553114672085  20.7340653098069 4.13882855637133  17.8560666391117 5.11062879575529  C 17.9897198580922 5.24078063200053  18.2035650659957 5.50976072293057  18.2837570106612 5.65726617182031  C 21.1350252101646 4.59002110598972  23.8169981830728 2.88069401003978  25.6079507287863 0.598698472586952  Z M 24.9129535209583 4.29501046679871  L 19.9232362961877 4.29501046679871  L 19.9232362961877 7.99132246101046  L 20.5915019706437 7.99132246101046  L 20.5915019706437 4.84164853243294  L 24.2179591456106 4.84164853243294  L 24.2179591456106 7.95661506332918  L 24.9129535209583 7.95661506332918  L 24.9129535209583 4.29501046679871  Z " fill-rule="nonzero" fill="#ffffff" stroke="none" transform="matrix(1 0 0 1 1386 1233 )" />
  </g>
</svg>