<?xml version="1.0" encoding="utf-8"?>
<svg version="1.1" xmlns:xlink="http://www.w3.org/1999/xlink" width="28px" height="10px" preserveAspectRatio="xMinYMid meet" viewBox="437 777  28 8" xmlns="http://www.w3.org/2000/svg">
  <path d="M 439 781  L 455 781  A 5 5 0 0 0 460 776 L 460 68  A 5 5 0 0 1 465 63 L 488 63  " stroke-width="2" stroke="#d7af1f" fill="none" />
  <path d="M 440.5 777.5  A 3.5 3.5 0 0 0 437 781 A 3.5 3.5 0 0 0 440.5 784.5 A 3.5 3.5 0 0 0 444 781 A 3.5 3.5 0 0 0 440.5 777.5 Z M 486.5 59.5  A 3.5 3.5 0 0 0 483 63 A 3.5 3.5 0 0 0 486.5 66.5 A 3.5 3.5 0 0 0 490 63 A 3.5 3.5 0 0 0 486.5 59.5 Z " fill-rule="nonzero" fill="#d7af1f" stroke="none" />
</svg>