<?xml version="1.0" encoding="utf-8"?>
<svg version="1.1" xmlns:xlink="http://www.w3.org/1999/xlink" width="22px" height="10px" preserveAspectRatio="xMinYMid meet" viewBox="55 973  22 8" xmlns="http://www.w3.org/2000/svg">
  <path d="M 118 566  L 65 566  A 5 5 0 0 0 60 571 L 60 972  A 5 5 0 0 0 65 977 L 75 977  " stroke-width="2" stroke="#d7af1f" fill="none" />
  <path d="M 116.5 562.5  A 3.5 3.5 0 0 0 113 566 A 3.5 3.5 0 0 0 116.5 569.5 A 3.5 3.5 0 0 0 120 566 A 3.5 3.5 0 0 0 116.5 562.5 Z M 73.5 973.5  A 3.5 3.5 0 0 0 70 977 A 3.5 3.5 0 0 0 73.5 980.5 A 3.5 3.5 0 0 0 77 977 A 3.5 3.5 0 0 0 73.5 973.5 Z " fill-rule="nonzero" fill="#d7af1f" stroke="none" />
</svg>