<?xml version="1.0" encoding="utf-8"?>
<svg version="1.1" xmlns:xlink="http://www.w3.org/1999/xlink" width="20px" height="20px" xmlns="http://www.w3.org/2000/svg">
  <g transform="matrix(1 0 0 1 -435 -234 )">
    <path d="M 19.43826 10.14246  C 19.43828 5.03662  15.2991 0.89754  10.19326 0.89754  C 5.08746 0.89754  0.9483 5.0366  0.9483 10.14246  C 0.9483 15.24836  5.08746 19.38746  10.19326 19.38746  C 15.2991 19.38746  19.43826 15.24834  19.43826 10.14246  Z M 14.53706 13.99218  C 14.67748 14.1334  14.67668 14.36248  14.53548 14.5037  C 14.46488 14.57352  14.37308 14.60882  14.28052 14.60882  C 14.18796 14.60882  14.09538 14.57352  14.02398 14.50212  L 10.19322 10.65518  L 6.371 14.49428  C 6.3004 14.56568  6.20704 14.60098  6.11446 14.60098  C 6.02188 14.60098  5.9301 14.56568  5.8595 14.49586  C 5.71828 14.35464  5.7175 14.12556  5.85794 13.98436  L 9.68274 10.1426  L 5.84928 6.29292  C 5.70886 6.1517  5.70964 5.92262  5.85084 5.78142  C 5.99206 5.64178  6.21956 5.6402  6.36234 5.78298  L 10.1931 9.62992  L 14.01532 5.79084  C 14.15654 5.64806  14.38562 5.64962  14.52682 5.78928  C 14.66804 5.9305  14.66882 6.15958  14.52838 6.30078  L 10.7036 10.1425  L 14.53706 13.99218  Z " fill-rule="nonzero" fill="#b3b3b3" stroke="none" transform="matrix(1 0 0 1 435 234 )" />
  </g>
</svg>