<?xml version="1.0" encoding="utf-8"?>
<svg version="1.1" xmlns:xlink="http://www.w3.org/1999/xlink" width="12px" height="12px" viewBox="385 2328  12 12" xmlns="http://www.w3.org/2000/svg">
  <path d="M 391 2328  C 394.36 2328  397 2330.64  397 2334  C 397 2337.36  394.36 2340  391 2340  C 387.64 2340  385 2337.36  385 2334  C 385 2330.64  387.64 2328  391 2328  Z " fill-rule="nonzero" fill="#ffffff" stroke="none" />
  <path d="M 391 2328.5  C 394.08 2328.5  396.5 2330.92  396.5 2334  C 396.5 2337.08  394.08 2339.5  391 2339.5  C 387.92 2339.5  385.5 2337.08  385.5 2334  C 385.5 2330.92  387.92 2328.5  391 2328.5  Z " stroke-width="1" stroke="#797979" fill="none" />
  <path d="M 391 2337  C 389.32 2337  388 2335.68  388 2334  C 388 2332.32  389.32 2331  391 2331  C 392.68 2331  394 2332.32  394 2334  C 394 2335.68  392.68 2337  391 2337  " fill-rule="nonzero" fill="#797979" stroke="none" />
</svg>