<?xml version="1.0" encoding="utf-8"?>
<svg version="1.1" xmlns:xlink="http://www.w3.org/1999/xlink" width="21px" height="21px" xmlns="http://www.w3.org/2000/svg">
  <g transform="matrix(1 0 0 1 -460 -157 )">
    <path d="M 20.676 20.664  C 21.048 20.292  21.048 19.692  20.676 19.308  L 16.488 15.12  C 19.428 11.496  19.212 6.144  15.84 2.772  C 12.24 -0.827999999999999  6.372 -0.827999999999999  2.772 2.772  C -0.827999999999998 6.372  -0.827999999999999 12.24  2.772 15.84  C 4.572 17.64  6.936 18.54  9.3 18.54  C 11.364 18.54  13.428 17.856  15.12 16.476  L 19.308 20.664  C 19.5 20.856  19.74 20.94  19.992 20.94  C 20.232 20.94  20.484 20.844  20.676 20.664  Z M 14.472 14.472  C 11.628 17.328  6.984 17.328  4.128 14.472  C 1.272 11.616  1.272 6.972  4.128 4.116  C 5.556 2.7  7.428 1.98  9.3 1.98  C 11.172 1.98  13.044 2.688  14.472 4.116  C 17.328 6.972  17.328 11.616  14.472 14.472  Z " fill-rule="nonzero" fill="#535353" stroke="none" transform="matrix(1 0 0 1 460 157 )" />
  </g>
</svg>