<?xml version="1.0" encoding="utf-8"?>
<svg version="1.1" xmlns:xlink="http://www.w3.org/1999/xlink" width="17px" height="17px" xmlns="http://www.w3.org/2000/svg">
  <g transform="matrix(1 0 0 1 -331 -684 )">
    <path d="M 14.9553337628866 15.2160403645833  L 14.9553337628866 15.1111184895833  C 14.9782487113402 15.1111184895833  14.9553337628866 15.1317044270833  14.9553337628866 15.2160403645833  Z M 2 15  L 14.9553337628866 15  L 14.9553337628866 8.77587369791667  C 14.9553337628866 8.25427473958333  15.3738054123711 7.831421875  15.8900270618557 7.831421875  C 16.4062487113402 7.831421875  16.8247422680412 8.25427473958333  16.8247422680412 8.77587369791667  L 16.8247422680412 15.2160403645833  C 16.8247422680412 16.2276953125  15.9648621134021 17  14.9553337628866 17  L 1.86940850515464 17  C 0.859880154639175 17  0 16.2276953125  0 15.2160403645833  L 0 1.78395963541667  C 0 0.7723046875  0.859880154639175 0  1.86940850515464 0  L 10.4150631443299 0  C 10.9312847938144 0  11.349756443299 0.422852864583333  11.349756443299 0.944451822916667  C 11.349756443299 1.46605078125  10.9312847938144 1.88888151041667  10.4150631443299 1.88888151041667  L 2 1.88888151041667  L 2 15  Z M 1.86940850515464 15.2160403645833  C 1.86940850515464 15.1317044270833  1.84649355670103 15.1111184895833  1.86940850515464 15.1111184895833  L 1.86940850515464 15.2160403645833  Z M 1.86940850515464 1.88888151041667  C 1.84649355670103 1.88888151041667  1.86940850515464 1.86829557291667  1.86940850515464 1.78395963541667  L 1.86940850515464 1.88888151041667  Z M 16.5509677835052 2.55670703125  L 9.0733118556701 10.11227734375  C 8.70829381443299 10.48109765625  8.11644845360825 10.48109765625  7.75143041237113 10.11227734375  C 7.38641237113402 9.74343489583333  7.38641237113402 9.14544661458333  7.75143041237113 8.77662630208333  L 15.2290863402062 1.22105598958333  C 15.5941262886598 0.852235677083332  16.185949742268 0.852235677083332  16.5509677835052 1.22105598958333  C 16.9160077319588 1.5898984375  16.9160077319588 2.18788671875  16.5509677835052 2.55670703125  Z " fill-rule="nonzero" fill="#8c8c8c" stroke="none" transform="matrix(1 0 0 1 331 684 )" />
  </g>
</svg>