<?xml version="1.0" encoding="utf-8"?>
<svg version="1.1" xmlns:xlink="http://www.w3.org/1999/xlink" width="12px" height="174px" preserveAspectRatio="xMidYMin meet" viewBox="25 736  10 174" xmlns="http://www.w3.org/2000/svg">
  <path d="M 54 742  L 35 742  A 5 5 0 0 0 30 747 L 30 899  A 5 5 0 0 0 35 904 L 42 904  " stroke-width="4" stroke="#d7af1f" fill="none" />
  <path d="M 53.5 737.5  A 4.5 4.5 0 0 0 49 742 A 4.5 4.5 0 0 0 53.5 746.5 A 4.5 4.5 0 0 0 58 742 A 4.5 4.5 0 0 0 53.5 737.5 Z M 41.5 899.5  A 4.5 4.5 0 0 0 37 904 A 4.5 4.5 0 0 0 41.5 908.5 A 4.5 4.5 0 0 0 46 904 A 4.5 4.5 0 0 0 41.5 899.5 Z " fill-rule="nonzero" fill="#d7af1f" stroke="none" />
</svg>