<?xml version="1.0" encoding="utf-8"?>
<svg version="1.1" xmlns:xlink="http://www.w3.org/1999/xlink" width="14px" height="10px" xmlns="http://www.w3.org/2000/svg">
  <g transform="matrix(1 0 0 1 -1661 -811 )">
    <path d="M 13.7812151755932 0.0481805234077752  L 12.5965447109257 0.0481805234077749  C 12.4306621795766 0.0479786866268881  12.2738723494008 0.116852867887827  12.171278392073 0.234990276923077  L 5.18150571222946 8.25896073846154  L 1.83036372943937 4.4106798478081  C 1.72756243796236 4.29277615247215  1.57090596386934 4.22396055148393  1.4050974105867 4.2238700942928  L 0.220426957601043 4.2238700942928  C 0.146060168353004 4.22453733811232  0.0861615249604427 4.27936344997233  0.0861615249604427 4.34676522533346  C 0.0861615249604427 4.373782198853  0.0959842827771003 4.40004638737691  0.114110377887875 4.4214951490488  L 4.75732426597132 9.75245554871795  C 4.97429688073012 10.0012074772539  5.39088428891786 10.0012074772539  5.60894176458931 9.75245554871795  L 13.8875317553064 0.244822370885029  C 13.9058294524712 0.223443268012914  13.915760338277 0.19715521278162  13.915760338277 0.170098467827584  C 13.915760338277 0.102765045481804  13.8555323298953 0.048180521756451  13.7812373164257 0.048180521756451  Z " fill-rule="nonzero" fill="#419fe3" stroke="none" transform="matrix(1 0 0 1 1661 811 )" />
  </g>
</svg>