<?xml version="1.0" encoding="utf-8"?>
<svg version="1.1" xmlns:xlink="http://www.w3.org/1999/xlink" width="25px" height="24px" preserveAspectRatio="xMinYMid meet" viewBox="1486 391  25 22" xmlns="http://www.w3.org/2000/svg">
  <path d="M 1498 402  L 1565 402  A 5 5 0 0 0 1570 397 L 1570 77  A 5 5 0 0 1 1575 72 L 1643 72  " stroke-width="4" stroke="#d7af1f" fill="none" />
  <path d="M 1498.5 397.5  A 4.5 4.5 0 0 0 1494 402 A 4.5 4.5 0 0 0 1498.5 406.5 A 4.5 4.5 0 0 0 1503 402 A 4.5 4.5 0 0 0 1498.5 397.5 Z M 1642.5 67.5  A 4.5 4.5 0 0 0 1638 72 A 4.5 4.5 0 0 0 1642.5 76.5 A 4.5 4.5 0 0 0 1647 72 A 4.5 4.5 0 0 0 1642.5 67.5 Z " fill-rule="nonzero" fill="#d7af1f" stroke="none" />
</svg>