<?xml version="1.0" encoding="utf-8"?>
<svg version="1.1" xmlns:xlink="http://www.w3.org/1999/xlink" width="10px" height="11px" xmlns="http://www.w3.org/2000/svg">
  <g transform="matrix(1 0 0 1 -1760 -300 )">
    <path d="M 9.97238372093023 10.5686842105263  C 9.97093023255814 10.7553947368421  9.81686046511628 10.9088157894737  9.62790697674419 10.9088157894737  C 9.4375 10.9088157894737  9.28488372093023 10.7553947368421  9.28488372093023 10.5672368421053  L 9.28488372093023 1.18105263157895  C 9.28488372093023 0.937894736842105  9.08720930232558 0.741052631578947  8.84302325581395 0.741052631578947  L 0.398255813953488 0.741052631578947  C 0.207848837209302 0.741052631578947  0.0552325581395346 0.587631578947368  0.0552325581395346 0.399473684210526  C 0.0552325581395346 0.211315789473684  0.209302325581395 0.0578947368421053  0.398255813953488 0.0578947368421053  L 8.84302325581395 0.0578947368421053  C 9.46511627906977 0.0578947368421053  9.97238372093023 0.561578947368421  9.97238372093023 1.1825  L 9.97238372093023 10.5686842105263  Z " fill-rule="nonzero" fill="#4aa1ff" stroke="none" transform="matrix(1 0 0 1 1760 300 )" />
  </g>
</svg>