<?xml version="1.0" encoding="utf-8"?>
<svg version="1.1" xmlns:xlink="http://www.w3.org/1999/xlink" width="11px" height="11px" xmlns="http://www.w3.org/2000/svg">
  <g transform="matrix(1 0 0 1 -1758 -301 )">
    <path d="M 10.8920698924731 9.90272277227723  C 10.8920698924731 10.4867574257426  10.3760752688172 10.9605198019802  9.74327956989247 10.9605198019802  L 1.15322580645161 10.9605198019802  C 0.520430107526882 10.9605198019802  0.0044354838709677 10.4867574257426  0.0044354838709677 9.90272277227723  L 0.0044354838709677 1.07413366336634  C 0.0044354838709677 0.491460396039604  0.518951612903226 0.0163366336633662  1.15322580645161 0.0163366336633662  L 9.74327956989247 0.0163366336633662  C 10.3760752688172 0.0163366336633662  10.8920698924731 0.49009900990099  10.8920698924731 1.07413366336634  L 10.8920698924731 9.90272277227723  Z M 9.74475806451613 0.660272277227723  L 1.15470430107527 0.660272277227723  C 0.906317204301075 0.660272277227723  0.705241935483871 0.845420792079208  0.705241935483871 1.07413366336634  L 0.705241935483871 9.90272277227723  C 0.705241935483871 10.1314356435644  0.906317204301075 10.3165841584158  1.15470430107527 10.3165841584158  L 9.74475806451613 10.3165841584158  C 9.99314516129032 10.3165841584158  10.1942204301075 10.1314356435644  10.1942204301075 9.90272277227723  L 10.1942204301075 1.07413366336634  C 10.1942204301075 0.845420792079208  9.99314516129032 0.660272277227723  9.74475806451613 0.660272277227723  Z " fill-rule="nonzero" fill="#4aa1ff" stroke="none" transform="matrix(1 0 0 1 1758 301 )" />
  </g>
</svg>