<?xml version="1.0" encoding="utf-8"?>
<svg version="1.1" xmlns:xlink="http://www.w3.org/1999/xlink" width="6px" height="6px" xmlns="http://www.w3.org/2000/svg">
  <g transform="matrix(1 0 0 1 -1760 -304 )">
    <path d="M 5.96971153846154 0.418055555555555  C 5.97115384615385 0.598611111111111  5.81826923076923 0.745833333333333  5.62932692307692 0.745833333333333  L 0.385096153846154 0.745833333333333  C 0.196153846153846 0.745833333333333  0.044711538461538 0.598611111111111  0.044711538461538 0.418055555555555  C 0.044711538461538 0.23611111111111  0.197596153846154 0.090277777777777  0.385096153846154 0.090277777777777  L 5.62932692307692 0.090277777777777  C 5.81826923076923 0.090277777777777  5.96971153846154 0.2375  5.96971153846154 0.418055555555555  Z M 5.96971153846154 3.04444444444444  C 5.96971153846154 3.225  5.81826923076923 3.37222222222222  5.62932692307692 3.37222222222222  L 0.385096153846154 3.37222222222222  C 0.196153846153846 3.37222222222222  0.044711538461538 3.225  0.044711538461538 3.04444444444444  C 0.044711538461538 2.86388888888889  0.197596153846154 2.71666666666667  0.385096153846154 2.71666666666667  L 5.62932692307692 2.71666666666667  C 5.81826923076923 2.71666666666667  5.96971153846154 2.86388888888889  5.96971153846154 3.04444444444444  Z M 4.22163461538462 5.67222222222222  C 4.22163461538462 5.85277777777778  4.07019230769231 6  3.88125 6  L 0.385096153846154 6  C 0.196153846153846 6  0.044711538461538 5.85277777777778  0.044711538461538 5.67222222222222  C 0.044711538461538 5.49166666666667  0.197596153846154 5.34444444444444  0.385096153846154 5.34444444444444  L 3.88125 5.34444444444444  C 4.07019230769231 5.34444444444444  4.22163461538462 5.49166666666667  4.22163461538462 5.67222222222222  Z " fill-rule="nonzero" fill="#4aa1ff" stroke="none" transform="matrix(1 0 0 1 1760 304 )" />
  </g>
</svg>