<?xml version="1.0" encoding="utf-8"?>
<svg version="1.1" xmlns:xlink="http://www.w3.org/1999/xlink" width="16px" height="15px" xmlns="http://www.w3.org/2000/svg">
  <g transform="matrix(1 0 0 1 -1788 -169 )">
    <path d="M 15.9813559322034 9.52138157894737  C 15.9830508474576 9.14967105263158  15.6728813559322 8.84703947368421  15.2898305084746 8.84703947368421  C 14.9067796610169 8.84703947368421  14.5949152542373 9.14802631578947  14.5949152542373 9.52138157894737  L 14.5949152542373 12.8898026315789  C 14.5949152542373 13.2615131578947  14.2830508474576 13.5641447368421  13.9 13.5641447368421  L 2.09830508474576 13.5641447368421  C 1.71525423728814 13.5641447368421  1.40338983050847 13.2615131578947  1.40338983050847 12.8898026315789  L 1.40338983050847 9.52138157894737  C 1.40338983050847 9.14967105263158  1.09322033898305 8.84703947368421  0.708474576271187 8.84703947368421  C 0.323728813559322 8.84703947368421  0.0135593220338985 9.14802631578947  0.0135593220338985 9.52138157894737  L 0.0135593220338985 12.8898026315789  C 0.0135593220338985 14.0049342105263  0.947457627118644 14.9111842105263  2.09661016949153 15  L 13.8983050847458 15  C 15.0474576271186 14.9111842105263  15.9813559322034 14.0049342105263  15.9813559322034 12.8898026315789  L 15.9813559322034 9.52138157894737  Z M 3.58305084745763 5.04934210526316  C 3.85254237288136 5.31085526315789  4.29491525423729 5.31085526315789  4.56440677966102 5.04934210526316  L 7.30508474576271 2.38980263157895  L 7.30508474576271 10.8684210526316  C 7.30508474576271 11.2384868421053  7.61694915254237 11.5427631578947  8 11.5427631578947  C 8.38135593220339 11.5427631578947  8.69491525423729 11.2401315789474  8.69491525423729 10.8684210526316  L 8.69491525423729 2.38980263157895  L 11.435593220339 5.04934210526316  C 11.7050847457627 5.31085526315789  12.1474576271186 5.31085526315789  12.4169491525424 5.04934210526316  C 12.6864406779661 4.78782894736842  12.6864406779661 4.35855263157895  12.4169491525424 4.09703947368421  L 8.5 0.294407894736842  C 8.49661016949153 0.291118421052632  8.49491525423729 0.287828947368421  8.49322033898305 0.286184210526316  C 8.39661016949153 0.192434210526316  8.27796610169491 0.133223684210526  8.15254237288136 0.106907894736842  C 8.14915254237288 0.105263157894737  8.14406779661017 0.103618421052632  8.14067796610169 0.103618421052632  C 8.09491525423729 0.0953947368421053  8.04915254237288 0.0904605263157896  8.00338983050847 0.0904605263157896  C 7.95762711864407 0.0904605263157896  7.91016949152542 0.0953947368421053  7.86610169491525 0.103618421052632  C 7.86101694915254 0.105263157894737  7.85762711864407 0.106907894736842  7.85423728813559 0.106907894736842  C 7.72881355932203 0.133223684210526  7.61016949152542 0.192434210526316  7.5135593220339 0.286184210526316  C 7.51016949152542 0.289473684210526  7.50847457627118 0.292763157894737  7.50677966101695 0.294407894736842  L 3.58305084745763 4.09703947368421  C 3.3135593220339 4.35855263157895  3.3135593220339 4.78782894736842  3.58305084745763 5.04934210526316  Z " fill-rule="nonzero" fill="#2998ff" stroke="none" transform="matrix(1 0 0 1 1788 169 )" />
  </g>
</svg>