<?xml version="1.0" encoding="utf-8"?>
<svg version="1.1" xmlns:xlink="http://www.w3.org/1999/xlink" width="12px" height="12px" viewBox="242 418  12 12" xmlns="http://www.w3.org/2000/svg">
  <path d="M 242.5 420  A 1.5 1.5 0 0 1 244 418.5 L 252 418.5  A 1.5 1.5 0 0 1 253.5 420 L 253.5 428  A 1.5 1.5 0 0 1 252 429.5 L 244 429.5  A 1.5 1.5 0 0 1 242.5 428 L 242.5 420  Z " fill-rule="nonzero" fill="#ffffff" stroke="none" />
  <path d="M 242.5 420  A 1.5 1.5 0 0 1 244 418.5 L 252 418.5  A 1.5 1.5 0 0 1 253.5 420 L 253.5 428  A 1.5 1.5 0 0 1 252 429.5 L 244 429.5  A 1.5 1.5 0 0 1 242.5 428 L 242.5 420  Z " stroke-width="1" stroke="#d9d9d9" fill="none" />
</svg>