<?xml version="1.0" encoding="utf-8"?>
<svg version="1.1" xmlns:xlink="http://www.w3.org/1999/xlink" width="12px" height="12px" viewBox="242 539  12 12" xmlns="http://www.w3.org/2000/svg">
  <path d="M 242.5 541  A 1.5 1.5 0 0 1 244 539.5 L 252 539.5  A 1.5 1.5 0 0 1 253.5 541 L 253.5 549  A 1.5 1.5 0 0 1 252 550.5 L 244 550.5  A 1.5 1.5 0 0 1 242.5 549 L 242.5 541  Z " fill-rule="nonzero" fill="#f0f0f0" stroke="none" />
  <path d="M 242.5 541  A 1.5 1.5 0 0 1 244 539.5 L 252 539.5  A 1.5 1.5 0 0 1 253.5 541 L 253.5 549  A 1.5 1.5 0 0 1 252 550.5 L 244 550.5  A 1.5 1.5 0 0 1 242.5 549 L 242.5 541  Z " stroke-width="1" stroke="#d9d9d9" fill="none" />
</svg>