<?xml version="1.0" encoding="utf-8"?>
<svg version="1.1" xmlns:xlink="http://www.w3.org/1999/xlink" width="12px" height="12px" viewBox="242 658  12 12" xmlns="http://www.w3.org/2000/svg">
  <path d="M 242.5 660  A 1.5 1.5 0 0 1 244 658.5 L 252 658.5  A 1.5 1.5 0 0 1 253.5 660 L 253.5 668  A 1.5 1.5 0 0 1 252 669.5 L 244 669.5  A 1.5 1.5 0 0 1 242.5 668 L 242.5 660  Z " fill-rule="nonzero" fill="#ffffff" stroke="none" />
  <path d="M 242.5 660  A 1.5 1.5 0 0 1 244 658.5 L 252 658.5  A 1.5 1.5 0 0 1 253.5 660 L 253.5 668  A 1.5 1.5 0 0 1 252 669.5 L 244 669.5  A 1.5 1.5 0 0 1 242.5 668 L 242.5 660  Z " stroke-width="1" stroke="#d9d9d9" fill="none" />
  <path d="M 244.571428571429 664  L 247.142857142857 666.571428571429  " stroke-width="2.57142857142857" stroke="#d9d9d9" fill="none" />
  <path d="M 247.142857142857 666.571428571429  L 251.428571428571 660.571428571429  " stroke-width="2.57142857142857" stroke="#d9d9d9" fill="none" />
</svg>