<?xml version="1.0" encoding="utf-8"?>
<svg version="1.1" xmlns:xlink="http://www.w3.org/1999/xlink" width="11px" height="11px" xmlns="http://www.w3.org/2000/svg">
  <g transform="matrix(1 0 0 1 -309 -172 )">
    <path d="M 3.830078125 7.9692578125  L 2.0573828125 6.1950390625  L 1.234375 8.7930859375  L 3.830078125 7.9692578125  Z M 8.9584375 2.77328125  L 9.528203125 2.2029296875  C 9.6801549607815 2.05205147005006  9.76561144611336 1.84677124865641  9.76561144611336 1.63263671875  C 9.76561144611336 1.41850218884359  9.6801549607815 1.21322196744994  9.528203125 1.06234375  L 8.9584375 0.492109375  C 8.80782877708401 0.340010034046716  8.60266280107382 0.254435087206823  8.38861328125 0.254435087206823  C 8.17456376142618 0.254435087206823  7.96939778541599 0.340010034046717  7.8187890625 0.492109375  L 7.2490234375 1.06234375  L 8.9584375 2.77328125  Z M 4.39800390625 7.334359375  L 2.68875390625 5.62331640625  L 6.68116796875 1.63507421875  L 8.39041796875 3.34612890625  L 4.39800390625 7.334359375  Z M 10.28125 9.8125  L 0.71875 9.8125  C 0.459866523516815 9.8125  0.25 10.0223665235168  0.25 10.28125  C 0.25 10.5401334764832  0.459866523516815 10.75  0.71875 10.75  L 10.28125 10.75  C 10.5401334764832 10.75  10.75 10.5401334764832  10.75 10.28125  C 10.75 10.0223665235168  10.5401334764832 9.8125  10.28125 9.8125  Z " fill-rule="nonzero" fill="#6ba6ae" stroke="none" transform="matrix(1 0 0 1 309 172 )" />
  </g>
</svg>