<?xml version="1.0" encoding="utf-8"?>
<svg version="1.1" xmlns:xlink="http://www.w3.org/1999/xlink" width="129px" height="50px" xmlns="http://www.w3.org/2000/svg">
  <g transform="matrix(1 0 0 1 -1076 -1120 )">
    <path d="M 1078 1132  A 10 10 0 0 1 1088 1122 L 1193 1122  A 10 10 0 0 1 1203 1132 L 1203 1158  A 10 10 0 0 1 1193 1168 L 1088 1168  A 10 10 0 0 1 1078 1158 L 1078 1132  Z " fill-rule="nonzero" fill="#ffffff" stroke="none" />
    <path d="M 1077 1132  A 11 11 0 0 1 1088 1121 L 1193 1121  A 11 11 0 0 1 1204 1132 L 1204 1158  A 11 11 0 0 1 1193 1169 L 1088 1169  A 11 11 0 0 1 1077 1158 L 1077 1132  Z " stroke-width="2" stroke-dasharray="2,2" stroke="#4a90e2" fill="none" />
  </g>
</svg>