<?xml version="1.0" encoding="utf-8"?>
<svg version="1.1" xmlns:xlink="http://www.w3.org/1999/xlink" width="36px" height="36px" xmlns="http://www.w3.org/2000/svg">
  <g transform="matrix(1 0 0 1 -130 -331 )">
    <path d="M 148 332  C 157.52 332  165 339.48  165 349  C 165 358.52  157.52 366  148 366  C 138.48 366  131 358.52  131 349  C 131 339.48  138.48 332  148 332  Z " fill-rule="nonzero" fill="#ffffff" stroke="none" />
    <path d="M 148 332  C 157.52 332  165 339.48  165 349  C 165 358.52  157.52 366  148 366  C 138.48 366  131 358.52  131 349  C 131 339.48  138.48 332  148 332  Z " stroke-width="2" stroke="#4a90e2" fill="none" />
  </g>
</svg>