<?xml version="1.0" encoding="utf-8"?>
<svg version="1.1" xmlns:xlink="http://www.w3.org/1999/xlink" width="20px" height="20px" preserveAspectRatio="xMinYMid meet" viewBox="937 1173  20 18" xmlns="http://www.w3.org/2000/svg">
  <defs>
    <mask fill="white" id="clip376">
      <path d="M 555 1227  L 675 1227  L 675 1293  L 555 1293  Z M 214 1172  L 962 1172  L 962 1293  L 214 1293  Z " fill-rule="evenodd" />
    </mask>
  </defs>
  <path d="M 217 1244  L 217 1255  A 5 5 0 0 0 222 1260 L 625 1260  A 3 3 0 0 1 628 1257 A 3 3 0 0 1 631 1260 L 882 1260  A 5 5 0 0 0 887 1255 L 887 1187  A 5 5 0 0 1 892 1182 L 946 1182  " stroke-width="2" stroke-dasharray="6,2" stroke="#266ab9" fill="none" mask="url(#clip376)" />
  <path d="M 945 1189.6  L 952 1182  L 945 1174.4  L 945 1189.6  Z " fill-rule="nonzero" fill="#266ab9" stroke="none" mask="url(#clip376)" />
</svg>