<?xml version="1.0" encoding="utf-8"?>
<svg version="1.1" xmlns:xlink="http://www.w3.org/1999/xlink" width="18px" height="10px" preserveAspectRatio="xMinYMid meet" viewBox="737 753  18 8" xmlns="http://www.w3.org/2000/svg">
  <path d="M 737 757  L 745 757  A 5 5 0 0 1 750 762 L 750 1021  A 3 3 0 0 1 753 1024 A 3 3 0 0 1 750 1027 L 750 1257  A 3 3 0 0 1 753 1260 A 3 3 0 0 1 750 1263 L 750 1391  A 3 3 0 0 1 753 1394 A 3 3 0 0 1 750 1397 L 750 1638  A 5 5 0 0 1 745 1643 L 224 1643  " stroke-width="2" stroke="#266ab9" fill="none" />
  <path d="M 225 1635.4  L 218 1643  L 225 1650.6  L 225 1635.4  Z " fill-rule="nonzero" fill="#266ab9" stroke="none" />
</svg>