<?xml version="1.0" encoding="utf-8"?>
<svg version="1.1" xmlns:xlink="http://www.w3.org/1999/xlink" width="19px" height="19px" viewBox="482 425  19 19" xmlns="http://www.w3.org/2000/svg">
  <path d="M 491.5 425  C 496.82 425  501 429.18  501 434.5  C 501 439.82  496.82 444  491.5 444  C 486.18 444  482 439.82  482 434.5  C 482 429.18  486.18 425  491.5 425  Z " fill-rule="nonzero" fill="#e0ebf6" stroke="none" />
  <path d="M 491.5 425.5  C 496.54 425.5  500.5 429.46  500.5 434.5  C 500.5 439.54  496.54 443.5  491.5 443.5  C 486.46 443.5  482.5 439.54  482.5 434.5  C 482.5 429.46  486.46 425.5  491.5 425.5  Z " stroke-width="1" stroke="#1a8af2" fill="none" />
  <path d="M 491.5 439.25  C 488.84 439.25  486.75 437.16  486.75 434.5  C 486.75 431.84  488.84 429.75  491.5 429.75  C 494.16 429.75  496.25 431.84  496.25 434.5  C 496.25 437.16  494.16 439.25  491.5 439.25  " fill-rule="nonzero" fill="#1a8af2" stroke="none" />
</svg>