<?xml version="1.0" encoding="utf-8"?>
<svg version="1.1" xmlns:xlink="http://www.w3.org/1999/xlink" width="19px" height="19px" viewBox="482 293  19 19" xmlns="http://www.w3.org/2000/svg">
  <path d="M 491.5 293  C 496.82 293  501 297.18  501 302.5  C 501 307.82  496.82 312  491.5 312  C 486.18 312  482 307.82  482 302.5  C 482 297.18  486.18 293  491.5 293  Z " fill-rule="nonzero" fill="#e1e0de" stroke="none" />
  <path d="M 491.5 293.5  C 496.54 293.5  500.5 297.46  500.5 302.5  C 500.5 307.54  496.54 311.5  491.5 311.5  C 486.46 311.5  482.5 307.54  482.5 302.5  C 482.5 297.46  486.46 293.5  491.5 293.5  Z " stroke-width="1" stroke="#776111" fill="none" />
  <path d="M 491.5 307.25  C 488.84 307.25  486.75 305.16  486.75 302.5  C 486.75 299.84  488.84 297.75  491.5 297.75  C 494.16 297.75  496.25 299.84  496.25 302.5  C 496.25 305.16  494.16 307.25  491.5 307.25  " fill-rule="nonzero" fill="#776111" stroke="none" />
</svg>