<?xml version="1.0" encoding="utf-8"?>
<svg version="1.1" xmlns:xlink="http://www.w3.org/1999/xlink" width="19px" height="19px" viewBox="482 354  19 19" xmlns="http://www.w3.org/2000/svg">
  <path d="M 491.5 354  C 496.82 354  501 358.18  501 363.5  C 501 368.82  496.82 373  491.5 373  C 486.18 373  482 368.82  482 363.5  C 482 358.18  486.18 354  491.5 354  Z " fill-rule="nonzero" fill="#e1e0de" stroke="none" />
  <path d="M 491.5 354.5  C 496.54 354.5  500.5 358.46  500.5 363.5  C 500.5 368.54  496.54 372.5  491.5 372.5  C 486.46 372.5  482.5 368.54  482.5 363.5  C 482.5 358.46  486.46 354.5  491.5 354.5  Z " stroke-width="1" stroke="#776111" fill="none" />
  <path d="M 491.5 368.25  C 488.84 368.25  486.75 366.16  486.75 363.5  C 486.75 360.84  488.84 358.75  491.5 358.75  C 494.16 358.75  496.25 360.84  496.25 363.5  C 496.25 366.16  494.16 368.25  491.5 368.25  " fill-rule="nonzero" fill="#776111" stroke="none" />
</svg>