<?xml version="1.0" encoding="utf-8"?>
<svg version="1.1" xmlns:xlink="http://www.w3.org/1999/xlink" width="8px" height="12px" xmlns="http://www.w3.org/2000/svg">
  <g transform="matrix(1 0 0 1 9 -5 )">
    <path d="M 0 10.7452592116136  C 0 11.6063560889317  0.377245479159885 12  1.14970058865017 12  C 1.14970058865017 12  6.85029983520508 12  6.85029983520508 12  C 7.62275494469537 12  8 11.6063560889317  8 10.7452592116136  C 8 10.7452592116136  8 6.23065126859225  8 6.23065126859225  C 8 5.45566408450787  7.68862311045329 5.05586873338773  7.04790454440647 4.98821111825796  C 7.04790454440647 4.98821111825796  7.04790454440647 3.43823697016789  7.04790454440647 3.43823697016789  C 7.04790454440647 1.11942606705886  5.56886238522 0  4 0  C 2.43113761478 0  0.952095879448785 1.11942606705886  0.952095879448785 3.43823697016789  C 0.952095879448785 3.43823697016789  0.952095879448785 5.01896491417518  0.952095879448785 5.01896491417518  C 0.365269502003988 5.11122529781782  0 5.5048696077787  0 6.23065126859225  C 0 6.23065126859225  0 10.7452592116136  0 10.7452592116136  Z M 1.91616778903537 4.98821111825796  C 1.91616778903537 4.98821111825796  1.91616778903537 3.30907234778771  1.91616778903537 3.30907234778771  C 1.91616778903537 1.76524862876305  2.88023948669434 0.947206570551946  4 0.947206570551946  C 5.11976051330566 0.947206570551946  6.08383263481988 1.76524862876305  6.08383263481988 3.30907234778771  C 6.08383263481988 3.30907234778771  6.08383263481988 4.9820607992319  6.08383263481988 4.9820607992319  L 1.91616778903537 4.98821111825796  Z " fill-rule="nonzero" fill="#000000" stroke="none" transform="matrix(1 0 0 1 -9 5 )" />
  </g>
</svg>