<?xml version="1.0" encoding="utf-8"?>
<svg version="1.1" xmlns:xlink="http://www.w3.org/1999/xlink" width="18px" height="10px" xmlns="http://www.w3.org/2000/svg">
  <g transform="matrix(1 0 0 1 -295 -8 )">
    <path d="M 18 0.9375  C 18 0.419733047485352  17.5522842407227 0  17 0  C 17 0  16 0  16 0  C 15.447714805603 0  15 0.419733047485352  15 0.9375  C 15 0.9375  15 9.0625  15 9.0625  C 15 9.58026695251465  15.447714805603 10  16 10  C 16 10  17 10  17 10  C 17.5522842407227 10  18 9.58026695251465  18 9.0625  C 18 9.0625  18 0.9375  18 0.9375  Z M 10.0001220703125 2.96000003814697  C 10.0001220703125 2.42980670928955  10.4478368759155 2  11.0001220703125 2  C 11.0001220703125 2  12.0001220703125 2  12.0001220703125 2  C 12.5524072647095 2  13.0001220703125 2.42980670928955  13.0001220703125 2.96000003814697  C 13.0001220703125 2.96000003814697  13.0001220703125 9.03999996185303  13.0001220703125 9.03999996185303  C 13.0001220703125 9.57019424438477  12.5524072647095 10  12.0001220703125 10  C 12.0001220703125 10  11.0001220703125 10  11.0001220703125 10  C 10.4478368759155 10  10.0001220703125 9.57019424438477  10.0001220703125 9.03999996185303  C 10.0001220703125 9.03999996185303  10.0001220703125 2.96000003814697  10.0001220703125 2.96000003814697  Z M 8 5  C 8 4.44771528244019  7.55228471755981 4  7 4  C 7 4  6 4  6 4  C 5.44771528244019 4  5 4.44771528244019  5 5  C 5 5  5 9  5 9  C 5 9.55228519439697  5.44771528244019 10  6 10  C 6 10  7 10  7 10  C 7.55228471755981 10  8 9.55228519439697  8 9  C 8 9  8 5  8 5  Z M 3 7  C 3 6.44771528244019  2.55228471755981 6  2 6  C 2 6  1 6  1 6  C 0.447715222835541 6  0 6.44771528244019  0 7  C 0 7  0 9  0 9  C 0 9.55228519439697  0.447715222835541 10  1 10  C 1 10  2 10  2 10  C 2.55228471755981 10  3 9.55228519439697  3 9  C 3 9  3 7  3 7  Z " fill-rule="nonzero" fill="#3d3e46" stroke="none" transform="matrix(1 0 0 1 295 8 )" />
  </g>
</svg>