<?xml version="1.0" encoding="utf-8"?>
<svg version="1.1" xmlns:xlink="http://www.w3.org/1999/xlink" width="21px" height="21px" xmlns="http://www.w3.org/2000/svg">
  <g transform="matrix(1 0 0 1 -968 -497 )">
    <path d="M 19.425 20.65546875  C 19.40859375 20.81953125  19.27734375 20.91796875  19.1296875 21  L 3.4125 21  C 3.29765625 20.91796875  3.1828125 20.85234375  3.13359375 20.75390625  L 0.13125 15.40546875  C 0.08203125 15.30703125  0.08203125 15.17578125  0.13125 15.07734375  C 0.196875 14.97890625  0.2953125 14.91328125  0.41015625 14.91328125  L 8.53125 14.91328125  C 8.64609375 14.91328125  8.74453125 14.97890625  8.81015625 15.0609375  L 10.1390625 17.19375  L 16.35703125 17.19375  L 17.27578125 15.09375  C 17.325 14.97890625  17.43984375 14.896875  17.57109375 14.896875  L 20.5734375 14.896875  C 20.671875 14.896875  20.7703125 14.94609375  20.8359375 15.028125  C 20.9015625 15.11015625  20.91796875 15.20859375  20.88515625 15.30703125  L 19.425 20.65546875  Z M 0.96796875 15.5859375  L 3.59296875 20  L 18.88359375 20  L 20.16328125 15.56953125  L 17.80078125 15.56953125  L 16.88203125 17.66953125  C 16.8328125 17.784375  16.71796875 17.86640625  16.58671875 17.86640625  L 9.95859375 17.86640625  C 9.84375 17.86640625  9.7453125 17.80078125  9.6796875 17.71875  L 8.35078125 15.5859375  L 0.96796875 15.5859375  Z M 15.5859375 17.53828125  C 15.5859375 17.71875  15.43828125 17.86640625  15.2578125 17.86640625  L 13.125 17.86640625  C 12.94453125 17.86640625  12.796875 17.71875  12.796875 17.53828125  L 12.796875 13.20703125  C 12.796875 13.0265625  12.94453125 12.87890625  13.125 12.87890625  L 15.2578125 12.87890625  C 15.43828125 12.87890625  15.5859375 13.0265625  15.5859375 13.20703125  L 15.5859375 17.53828125  Z M 13.453125 13.53515625  L 13.453125 17.21015625  L 14.9296875 17.21015625  L 14.9296875 13.53515625  L 13.453125 13.53515625  Z M 13.6828125 10.91015625  C 13.40390625 11.10703125  13.0921875 11.221875  12.7640625 11.221875  C 12.6984375 11.221875  12.61640625 11.221875  12.55078125 11.20546875  C 12.15703125 11.13984375  11.79609375 10.9265625  11.56640625 10.5984375  L 5.2171875 1.72265625  C 4.8890625 1.26328125  4.9875 0.63984375  5.43046875 0.31171875  C 5.8734375 -0.0328125  6.496875 0.0328125000000001  6.8578125 0.459375  L 13.89609375 8.81015625  C 14.15859375 9.121875  14.2734375 9.515625  14.240625 9.909375  C 14.19140625 10.303125  13.99453125 10.6640625  13.6828125 10.91015625  Z M 6.34921875 0.86953125  C 6.2671875 0.7875  6.16875 0.73828125  6.05390625 0.73828125  C 5.971875 0.73828125  5.88984375 0.77109375  5.82421875 0.8203125  C 5.66015625 0.9515625  5.62734375 1.16484375  5.7421875 1.3453125  L 12.09140625 10.22109375  C 12.22265625 10.4015625  12.41953125 10.51640625  12.6328125 10.54921875  C 12.84609375 10.58203125  13.07578125 10.51640625  13.25625 10.38515625  C 13.43671875 10.25390625  13.53515625 10.05703125  13.56796875 9.82734375  C 13.584375 9.59765625  13.51875 9.384375  13.3875 9.2203125  L 6.34921875 0.86953125  Z M 5.8078125 6.1359375  C 5.8078125 6.31640625  5.66015625 6.4640625  5.4796875 6.4640625  C 5.29921875 6.4640625  5.1515625 6.31640625  5.1515625 6.1359375  L 5.1515625 1.52578125  C 5.1515625 1.3453125  5.29921875 1.19765625  5.4796875 1.19765625  C 5.66015625 1.19765625  5.8078125 1.3453125  5.8078125 1.52578125  L 5.8078125 6.1359375  Z M 6.890625 7.809375  C 6.890625 8.21953125  6.5625 8.54765625  6.15234375 8.54765625  L 4.80703125 8.54765625  C 4.396875 8.54765625  4.06875 8.21953125  4.06875 7.809375  L 4.06875 6.54609375  C 4.06875 6.1359375  4.396875 5.8078125  4.80703125 5.8078125  L 6.15234375 5.8078125  C 6.5625 5.8078125  6.890625 6.1359375  6.890625 6.54609375  L 6.890625 7.809375  Z M 6.15234375 6.4640625  L 4.80703125 6.4640625  C 4.7578125 6.4640625  4.725 6.496875  4.725 6.54609375  L 4.725 7.809375  C 4.725 7.85859375  4.7578125 7.89140625  4.80703125 7.89140625  L 6.15234375 7.89140625  C 6.2015625 7.89140625  6.234375 7.85859375  6.234375 7.809375  L 6.234375 6.54609375  C 6.234375 6.496875  6.2015625 6.4640625  6.15234375 6.4640625  Z M 6.77578125 10.68046875  C 6.77578125 11.40234375  6.18515625 12.009375  5.446875 12.009375  C 4.70859375 12.009375  4.11796875 11.41875  4.11796875 10.68046875  C 4.11796875 10.5  4.265625 10.35234375  4.44609375 10.35234375  C 4.6265625 10.35234375  4.77421875 10.5  4.77421875 10.68046875  C 4.77421875 11.0578125  5.06953125 11.353125  5.446875 11.353125  C 5.82421875 11.353125  6.11953125 11.0578125  6.11953125 10.68046875  C 6.11953125 10.303125  5.82421875 10.0078125  5.446875 10.0078125  C 5.26640625 10.0078125  5.11875 9.86015625  5.11875 9.6796875  L 5.11875 8.2359375  C 5.11875 8.05546875  5.26640625 7.9078125  5.446875 7.9078125  C 5.62734375 7.9078125  5.775 8.05546875  5.775 8.2359375  L 5.775 9.384375  C 6.34921875 9.53203125  6.77578125 10.05703125  6.77578125 10.68046875  Z M 18.6703125 12.4359375  C 18.703125 13.04296875  18.2109375 13.53515625  17.60390625 13.53515625  L 12.25546875 13.53515625  C 11.6484375 13.53515625  11.15625 13.04296875  11.15625 12.4359375  L 11.15625 10.303125  C 11.15625 10.15546875  11.1890625 10.0078125  11.23828125 9.86015625  C 11.2875 9.7453125  11.3859375 9.6796875  11.50078125 9.66328125  C 11.615625 9.646875  11.73046875 9.69609375  11.79609375 9.79453125  L 12.05859375 10.171875  C 12.32109375 10.5328125  12.8296875 10.64765625  13.17421875 10.41796875  C 13.453125 10.2375  13.60078125 9.909375  13.53515625 9.58125  C 13.51875 9.4828125  13.5515625 9.384375  13.60078125 9.31875  C 13.66640625 9.23671875  13.7484375 9.20390625  13.846875 9.20390625  L 14.91328125 9.20390625  C 15.07734375 8.28515625  15.86484375 7.59609375  16.81640625 7.59609375  L 17.30859375 7.59609375  C 18.06328125 7.59609375  18.6703125 8.203125  18.6703125 8.9578125  L 18.6703125 12.4359375  Z M 13.53515625 10.97578125  C 13.01015625 11.33671875  12.3046875 11.27109375  11.8125 10.8609375  L 11.8125 12.45234375  C 11.8125 12.6984375  12.009375 12.8953125  12.25546875 12.8953125  L 17.60390625 12.8953125  C 17.85 12.8953125  18.046875 12.6984375  18.046875 12.45234375  L 18.046875 8.9578125  C 18.046875 8.5640625  17.73515625 8.25234375  17.34140625 8.25234375  L 16.84921875 8.25234375  C 16.14375 8.25234375  15.56953125 8.8265625  15.56953125 9.53203125  C 15.56953125 9.7125  15.421875 9.86015625  15.24140625 9.86015625  L 14.2078125 9.86015625  C 14.175 10.303125  13.92890625 10.7296875  13.53515625 10.97578125  Z M 20.91796875 20.58984375  C 20.91796875 20.7703125  20.7703125 20.91796875  20.58984375 21  L 0.41015625 21  C 0.2296875 20.91796875  0.08203125 20.7703125  0.08203125 20.58984375  C 0.08203125 20.409375  0.2296875 20.26171875  0.41015625 20  L 20.58984375 20  C 20.7703125 20.26171875  20.91796875 20.409375  20.91796875 20.58984375  Z M 3.9046875 17.24296875  C 3.9046875 17.34140625  3.8390625 17.40703125  3.740625 17.40703125  C 3.6421875 17.40703125  3.5765625 17.34140625  3.5765625 17.24296875  L 3.5765625 16.84921875  C 3.5765625 16.75078125  3.6421875 16.68515625  3.740625 16.68515625  C 3.8390625 16.68515625  3.9046875 16.75078125  3.9046875 16.84921875  L 3.9046875 17.24296875  Z M 5.5125 17.24296875  C 5.5125 17.34140625  5.446875 17.40703125  5.3484375 17.40703125  C 5.25 17.40703125  5.184375 17.34140625  5.184375 17.24296875  L 5.184375 16.84921875  C 5.184375 16.75078125  5.25 16.68515625  5.3484375 16.68515625  C 5.446875 16.68515625  5.5125 16.75078125  5.5125 16.84921875  L 5.5125 17.24296875  Z M 7.1203125 17.24296875  C 7.1203125 17.34140625  7.0546875 17.40703125  6.95625 17.40703125  C 6.8578125 17.40703125  6.7921875 17.34140625  6.7921875 17.24296875  L 6.7921875 16.84921875  C 6.7921875 16.75078125  6.8578125 16.68515625  6.95625 16.68515625  C 7.0546875 16.68515625  7.1203125 16.75078125  7.1203125 16.84921875  L 7.1203125 17.24296875  Z " fill-rule="nonzero" fill="#434343" stroke="none" transform="matrix(1 0 0 1 968 497 )" />
  </g>
</svg>