<?xml version="1.0" encoding="utf-8"?>
<svg version="1.1" xmlns:xlink="http://www.w3.org/1999/xlink" width="19px" height="19px" xmlns="http://www.w3.org/2000/svg">
  <g transform="matrix(1 0 0 1 -969 -458 )">
    <path d="M 18.8448140530973 18.4319708125  C 18.8448140530973 18.2017695416667  18.6564939767699 18.01512275  18.4242555475664 18.01512275  C 17.5042059159292 18.01512275  16.8998439955752 17.7309207708333  16.2599946360619 17.4299834791667  C 15.7203489015487 17.1762035416667  15.1639057798673 16.9153031041667  14.4484358949115 16.8610252291667  L 16.3228181570796 12.7160381875  C 16.5853607245575 12.1355037916667  16.3669731482301 11.4531077916667  15.8148315298673 11.1288476458333  L 15.1289560154867 10.7259421458333  L 15.1289560154867 4.6190639375  C 15.1289560154867 4.3888626875  14.9406790044248 4.20223720833333  14.7084405542035 4.20223720833333  L 12.2694853141593 4.20223720833333  L 12.2694853141593 1.90969022916667  C 12.2694853141593 1.67948897916667  12.0812083030973 1.4928635  11.8489698528761 1.4928635  L 9.87255580420354 1.4928635  L 9.87255582522124 0.575853229166667  C 9.87255582522124 0.345651979166667  9.68427881415929 0.1590265  9.45204036393805 0.1590265  C 9.21980191371681 0.1590265  9.03152490265487 0.345651958333333  9.03152490265487 0.575853229166667  L 9.03152490265487 1.4928635  L 7.0551108539823 1.4928635  C 6.82287242477876 1.4928635  6.63459539269912 1.67948895833333  6.63459539269912 1.90969022916667  L 6.63459539269912 4.20223720833333  L 4.19559715044248 4.20223720833333  C 3.96335872123894 4.20223720833333  3.77508168915929 4.38886266666667  3.77508168915929 4.6190639375  L 3.77508168915929 10.7046872083333  L 3.1237257909292 11.083502375  C 2.54695804977876 11.4188696666667  2.33442051880531 12.1435196875  2.63982761172566 12.7331785625  L 4.77640831858407 16.857976625  C 4.13948397123894 16.9065197083333  3.62958317809735 17.1323292708333  3.09363674778761 17.3702053333333  C 2.38322113606195 17.6855541875  1.64858802765487 18.011605125  0.436767102876106 18.011605125  C 0.204528673672566 18.011605125  0.0162516415929203 18.1982305833333  0.0162516415929203 18.4284318541667  C 0.0162516415929203 18.658633125  0.204528652654867 18.8452585833333  0.436767102876106 18.8452585833333  C 1.82828355420354 18.8452585833333  2.68312230641593 18.4658465  3.43734878650442 18.131076125  C 3.98060777876106 17.8899382916667  4.44979480862832 17.6816954791667  5.02899291039823 17.6816954791667  C 5.6846503119469 17.6816954791667  6.31972501769912 17.9409117291667  6.99211530309734 18.2153070208333  C 7.74771825331858 18.52372725  8.52908726327433 18.8426150416667  9.43406007964602 18.8426150416667  C 10.3205149159292 18.8426150416667  11.1598897488938 18.5329583125  11.9716058993363 18.2335346666667  C 12.7378550918142 17.9508676458333  13.4616053827434 17.6838913333333  14.1770967688053 17.6838913333333  C 14.8378084435841 17.6838913333333  15.3298149778761 17.915265125  15.8995712776549 18.183222125  C 16.5629498882743 18.4951812916667  17.3148965785398 18.8487975416667  18.4242985918142 18.8487975416667  C 18.6565155199115 18.8487975416667  18.8448140530973 18.6621720833333  18.8448140530973 18.4319708125  Z M 7.47560481415929 4.20223720833333  L 7.47560481415929 2.32651695833333  L 11.4284329115044 2.32651695833333  L 11.4284329115044 4.20223722916667  L 7.47560481415929 4.20223720833333  Z M 4.61611261172566 10.2155681875  L 4.61611261172566 5.03589066666667  L 7.05508935287611 5.03589066666667  L 11.8489698738938 5.03589066666667  L 14.2879466150442 5.03589066666667  L 14.2879466150442 10.231877125  L 9.67571880973451 7.52250341666667  C 9.54402812831858 7.445115875  9.38046328650442 7.44475345833333  9.24851450774336 7.52156539583333  L 4.61611261172566 10.2155681875  Z M 13.5057818329646 16.907500375  C 12.8790305564159 17.009639125  12.2711629048673 17.2334873541667  11.6782429988938 17.45219775  C 10.9021433573009 17.738531625  10.1690802920354 18.0089402708333  9.43403855752212 18.0089402708333  C 8.69542656747788 18.0089402708333  8.0235954789823 17.7347368541667  7.31231957079646 17.4444376666667  C 6.81145193252212 17.24003225  6.29862610619469 17.0310859166667  5.75547466150442 16.9230844791667  L 3.38798895132743 12.3524020625  C 3.28619376106195 12.155842  3.35701808960177 11.9143204166667  3.54929550442478 11.8025028958333  L 8.98945612831858 8.63878122916667  L 8.98945612831858 13.497460375  C 8.98945612831858 13.7276403125  9.17773313938053 13.9142871041667  9.40997158960177 13.9142871041667  C 9.64221003982301 13.9142871041667  9.83048705088495 13.7276403125  9.83048705088495 13.497460375  L 9.83048707190266 8.58249939583333  L 15.3860786858407 11.8460147291667  C 15.5700972168142 11.954080125  15.6429002356195 12.1815099375  15.5553860464602 12.3750640416667  L 13.5057818329646 16.907500375  Z M 7.55972081969027 6.4114060625  C 7.55972081969027 6.181226125  7.37142228650442 5.99457933333333  7.13920535840708 5.99457933333333  L 5.79356449115044 5.99457933333333  C 5.5613475630531 5.99457933333333  5.37304902986726 6.18120479166667  5.37304902986726 6.4114060625  C 5.37304902986726 6.6416073125  5.5613260409292 6.82823279166667  5.79356449115044 6.82823279166667  L 7.13920535840708 6.82823279166667  C 7.37142228650442 6.82823279166667  7.55972081969027 6.64160733333333  7.55972081969027 6.4114060625  Z M 13.1105162577434 6.82823279166667  C 13.342733164823 6.82823279166667  13.5310101969027 6.64160733333333  13.5310101969027 6.4114060625  C 13.5310101969027 6.181226125  13.3427331858407 5.99457933333333  13.1104947356195 5.99457933333333  L 9.11561940707965 5.99457933333333  C 8.8834024789823 5.99457933333333  8.69510394579646 6.18120479166667  8.69510394579646 6.4114060625  C 8.69510394579646 6.6416073125  8.88338095685841 6.82823279166667  9.11561940707965 6.82823279166667  L 13.1105162577434 6.82823279166667  Z " fill-rule="nonzero" fill="#434343" stroke="none" transform="matrix(1 0 0 1 969 458 )" />
  </g>
</svg>