<?xml version="1.0" encoding="utf-8"?>
<svg version="1.1" xmlns:xlink="http://www.w3.org/1999/xlink" width="18px" height="19px" xmlns="http://www.w3.org/2000/svg">
  <g transform="matrix(1 0 0 1 -971 -414 )">
    <path d="M 3.97752808146067 0  L 6.40449437359551 0  C 7.33403713330814 -6.28366223050529E-05  8.10198032681163 0.748996553836129  8.15460674157303 1.70707692667531  L 8.15730337921348 1.80952380440125  L 8.15730337921348 3.55947253068546  L 10.138786508427 4.10845422425255  L 9.85995505617978 5.18414653172102  L 6.28746067415731 4.19586813494864  C 6.24323596348315 4.18361905940174  6.21950561797753 4.18863004841169  6.2135730252809 4.18250549758879  L 6.2135730252809 4.17526741105183  L 5.93366291292135 5.2509597185203  C 5.93743818539326 5.23704031330342  5.94768539325843 5.24873262099329  5.9795056264045 5.26209523225425  L 6.00808987921349 5.27156044241712  L 9.58058426123596 6.25928204523356  L 9.30121349157304 7.33497435270204  L 8.17402247191012 7.02317949837131  L 8.15784269662921 15.0329670337925  L 17.8651685477528 15.0329670337925  L 17.8651685477528 19  L 0.0674157387640447 19  L 0.0674157387640447 9.46520147588514  L 1.14606740730337 9.46520147588514  L 1.14606740730337 15.0329670337925  L 2.22471910112359 15.0329670337925  L 2.22471910112359 1.80952380440125  C 2.22465824352965 0.849904274582459  2.95024031072843 0.0571131179091005  3.87829213483146 0.00278389543654255  L 3.97752808146067 0  Z M 16.7865168539326 17.8168498257956  L 16.7865168539326 16  L 1.14606740730337 16  L 1.14606740730337 17.8168498257956  L 16.7865168539326 17.8168498257956  Z M 6.47352808988764 1.1168937853146  L 6.40449437359551 1.11355312597464  L 3.97752808146067 1.11355312597464  C 3.63181211292112 1.11339014680651  3.34200803670262 1.38323036992169  3.30660675 1.73825642254794  L 3.30337079494382 1.80952380440125  L 3.30337079494382 10.8287472544476  L 6.13483146910112 10.8293040223046  L 6.13483146910112 11.9428571443256  L 3.30337079494382 11.9423003764686  L 3.30337079494382 15.0329670337925  L 7.07973034550562 15.0329670337925  L 7.09644943820225 6.72474725530154  L 5.72925842696629 6.34669598202856  C 5.15325842696629 6.18745789552323  4.7681797752809 5.62567033245332  4.8744269747191 5.04216850977254  L 4.89222472752809 4.96254945347043  L 5.17105617977528 3.88685714600195  C 5.32314606741573 3.30224176150822  5.90993259269663 2.98209523272868  6.48808988764045 3.10124543325334  L 6.56683146910113 3.12017582748017  L 7.07865168539326 3.26159708157162  L 7.07865168539326 1.80952380440125  C 7.07880955640298 1.45262166601374  6.81742677369771 1.15344053488828  6.47352808988764 1.1168937853146  Z M 5.08098875561798 12.9417142869749  C 5.42352941177266 12.9417142869749  5.70121347893258 13.2283832475791  5.70121347893258 13.5820073314845  C 5.70121347893258 13.9356314153899  5.42352941177266 14.2223003759942  5.08098875561798 14.2223003759942  C 4.7384480994633 14.2223003759942  4.46076403230337 13.9356314153899  4.46076403230337 13.5820073314845  C 4.46076403230337 13.2283832475791  4.7384480994633 12.9417142869749  5.08098875561798 12.9417142869749  Z M 12.0943820224719 7.23809523184308  L 15.0067415730337 7.23809523184308  C 15.9896843188 7.23809523184308  16.7865168539326 8.06071050451027  16.7865168539326 9.07545786882339  L 16.7865168539326 13.9194139117715  L 10.314606741573 13.9194139117715  L 10.314606741573 9.07545786882339  C 10.314606741573 8.06071050451027  11.1114392767056 7.23809523184308  12.0943820224719 7.23809523184308  Z M 15.0784719016854 8.3555457810611  L 15.0067415730337 8.35164835386411  L 12.0943820224719 8.35164835386411  C 11.7071621575817 8.35164835386411  11.3932584353933 8.67570891192895  11.3932584353933 9.07545786882339  L 11.3932584353933 12.8058608158493  L 15.7078651601124 12.8058608158493  L 15.7078651601124 9.07545786882338  C 15.7078157746383 8.70441846147267  15.4359961510066 8.39350595943463  15.0784719016854 8.3555457810611  Z M 11.9325842696629 10.0219780238462  L 15.1685393258427 10.0219780238462  L 15.1685393258427 11.1355311458672  L 11.9325842696629 11.1355311458672  L 11.9325842696629 10.0219780238462  Z M 9.66202248033708 4.03885714597032  C 8.76843816600411 4.03885714597032  8.04404495224719 4.78668921203141  8.04404495224719 5.70918681595243  C 8.04404495224719 6.63168441987344  8.76843816600411 7.37951648593453  9.66202248033708 7.37951648593453  C 10.55560679467 7.37951648593453  11.280000008427 6.63168441987344  11.280000008427 5.70918681595243  C 11.280000008427 4.78668921203141  10.55560679467 4.03885714597032  9.66202248033708 4.03885714597032  Z M 9.66202248033708 5.15241026799136  C 9.95988391379399 5.15241026799136  10.2013483146067 5.4016876194501  10.2013483146067 5.70918681595243  C 10.2013483146067 6.01668601245476  9.95988391379399 6.26596336391349  9.66202248033708 6.26596336391349  C 9.36416104688017 6.26596336391349  9.12269664606742 6.01668601245476  9.12269664606742 5.70918681595243  C 9.12269664606742 5.4016876194501  9.36416104688017 5.15241026799136  9.66202248033708 5.15241026799136  Z " fill-rule="nonzero" fill="#434343" stroke="none" transform="matrix(1 0 0 1 971 414 )" />
  </g>
</svg>