<?xml version="1.0" encoding="utf-8"?>
<svg version="1.1" xmlns:xlink="http://www.w3.org/1999/xlink" width="9px" height="9px" xmlns="http://www.w3.org/2000/svg">
  <g transform="matrix(1 0 0 1 -994 -925 )">
    <path d="M 4.02284482758621 8.93130530973451  C 4.17898706896552 8.93528761061947  4.30700431034483 8.80387168141593  4.30797413793103 8.64358407079646  L 4.31961206896552 3.70851769911504  C 4.32058189655172 3.47455752212389  4.0635775862069 3.33716814159292  3.87640086206897 3.47157079646018  C 3.78135775862069 3.54026548672566  3.67273706896552 3.61692477876106  3.55441810344828 3.69756637168142  C 2.19762931034483 4.62146017699115  0.415086206896552 3.51637168141593  0.0834051724137931 3.97234513274336  C -0.427693965517241 4.67323008849557  2.49924568965517 8.89845132743363  4.02284482758621 8.93130530973451  Z M 8.89331896551724 3.97234513274336  C 8.56163793103448 3.51637168141593  6.77909482758621 4.62146017699115  5.42230603448276 3.69756637168142  C 5.30398706896552 3.61692477876106  5.19536637931034 3.54026548672566  5.10032327586207 3.47157079646018  C 4.91314655172414 3.33716814159292  4.65711206896552 3.47455752212389  4.65711206896552 3.70851769911504  L 4.66875 8.64358407079646  C 4.66875 8.80387168141593  4.79676724137931 8.93528761061947  4.95290948275862 8.93130530973451  C 6.47747844827586 8.89845132743363  9.40441810344828 4.67323008849558  8.89331896551724 3.97234513274336  Z M 6.83631465517241 0.336504424778761  C 6.83631465517241 0.177212389380531  6.71023706896552 0.0477876106194691  6.55506465517241 0.047787610619469  L 2.26745689655172 0.047787610619469  C 2.11228448275862 0.047787610619469  1.98620689655172 0.177212389380531  1.98620689655172 0.336504424778761  L 1.98620689655172 1.27234513274336  C 1.98620689655172 1.43163716814159  2.11228448275862 1.56106194690265  2.26745689655172 1.56106194690265  L 6.55506465517241 1.56106194690265  C 6.71023706896552 1.56106194690265  6.83631465517241 1.43163716814159  6.83631465517241 1.27234513274336  L 6.83631465517241 0.336504424778761  Z M 4.05193965517241 0.784513274336283  C 4.05193965517241 0.943805309734513  3.92586206896552 1.07323008849558  3.77068965517241 1.07323008849558  L 2.84935344827586 1.07323008849558  C 2.69418103448276 1.07323008849558  2.56810344827586 0.943805309734513  2.56810344827586 0.784513274336283  C 2.56810344827586 0.625221238938053  2.69418103448276 0.495796460176991  2.84935344827586 0.495796460176991  L 3.77068965517241 0.495796460176991  C 3.92586206896552 0.495796460176991  4.05193965517241 0.625221238938053  4.05193965517241 0.784513274336283  Z M 6.25344827586207 0.784513274336283  C 6.25344827586207 0.943805309734513  6.12737068965517 1.07323008849558  5.97219827586207 1.07323008849558  L 5.05086206896552 1.07323008849558  C 4.89568965517241 1.07323008849558  4.76961206896552 0.943805309734513  4.76961206896552 0.784513274336283  C 4.76961206896552 0.625221238938053  4.89568965517241 0.495796460176991  5.05086206896552 0.495796460176991  L 5.97219827586207 0.495796460176991  C 6.12737068965517 0.495796460176991  6.25344827586207 0.625221238938053  6.25344827586207 0.784513274336283  Z M 1.2375 3.51637168141593  C 1.91056034482758 3.56814159292035  2.77952586206896 3.72046460176991  3.54471982758621 3.19977876106195  C 3.87252155172414 2.97676991150442  4.1207974137931 2.78860619469026  4.23717672413793 2.69800884955752  C 4.28566810344828 2.66017699115044  4.3457974137931 2.63926991150442  4.40689655172414 2.63926991150442  L 4.55043103448276 2.63926991150442  C 4.61153017241379 2.63926991150442  4.67165948275862 2.66017699115044  4.72015086206896 2.69800884955752  C 4.8375 2.78860619469027  5.08480603448276 2.97676991150442  5.41260775862069 3.19977876106195  C 6.14870689655172 3.70154867256637  6.98081896551724 3.56814159292035  7.64127155172414 3.51836283185841  C 7.78868534482759 3.50741150442478  7.90215517241379 3.38196902654867  7.90215517241379 3.23064159292035  L 7.90215517241379 2.23805309734513  C 7.90215517241379 2.0787610619469  7.7760775862069 1.94933628318584  7.62090517241379 1.94933628318584  L 1.25883620689655 1.94933628318584  C 1.10366379310345 1.94933628318584  0.97758620689655 2.0787610619469  0.97758620689655 2.23805309734513  L 0.97758620689655 3.22865044247788  C 0.97758620689655 3.37997787610619  1.09105603448276 3.5054203539823  1.2375 3.51637168141593  Z " fill-rule="nonzero" fill="#eeb7d8" stroke="none" transform="matrix(1 0 0 1 994 925 )" />
  </g>
</svg>