<?xml version="1.0" encoding="utf-8"?>
<svg version="1.1" xmlns:xlink="http://www.w3.org/1999/xlink" width="24px" height="24px" xmlns="http://www.w3.org/2000/svg">
  <g transform="matrix(1 0 0 1 -544 -390 )">
    <path d="M 556 390  C 562.72 390  568 395.28  568 402  C 568 408.72  562.72 414  556 414  C 549.28 414  544 408.72  544 402  C 544 395.28  549.28 390  556 390  Z " fill-rule="nonzero" fill="#2a76f9" stroke="none" />
    <path d="M 556 390.5  C 562.44 390.5  567.5 395.56  567.5 402  C 567.5 408.44  562.44 413.5  556 413.5  C 549.56 413.5  544.5 408.44  544.5 402  C 544.5 395.56  549.56 390.5  556 390.5  Z " stroke-width="1" stroke="#ffffff" fill="none" />
  </g>
</svg>