<?xml version="1.0" encoding="utf-8"?>
<svg version="1.1" xmlns:xlink="http://www.w3.org/1999/xlink" width="24px" height="24px" xmlns="http://www.w3.org/2000/svg">
  <g transform="matrix(1 0 0 1 -550 -1391 )">
    <path d="M 562 1391  C 568.72 1391  574 1396.28  574 1403  C 574 1409.72  568.72 1415  562 1415  C 555.28 1415  550 1409.72  550 1403  C 550 1396.28  555.28 1391  562 1391  Z " fill-rule="nonzero" fill="#ffbf60" stroke="none" />
    <path d="M 562 1391.5  C 568.44 1391.5  573.5 1396.56  573.5 1403  C 573.5 1409.44  568.44 1414.5  562 1414.5  C 555.56 1414.5  550.5 1409.44  550.5 1403  C 550.5 1396.56  555.56 1391.5  562 1391.5  Z " stroke-width="1" stroke="#ffffff" fill="none" />
  </g>
</svg>