<?xml version="1.0" encoding="utf-8"?>
<svg version="1.1" xmlns:xlink="http://www.w3.org/1999/xlink" width="10px" height="11px" xmlns="http://www.w3.org/2000/svg">
  <g transform="matrix(1 0 0 1 -270 -458 )">
    <path d="M 9.68861344537815 10.8300908203125  C 9.81188025210084 10.6711494140625  9.80115546218488 10.42451953125  9.6403781512605 10.282013671875  L 8.84182773109244 9.56402734375  C 8.63281512605042 9.361236328125  8.35947478991597 9.2461337890625  8.07008403361344 9.2461337890625  L 8.05935924369748 9.2461337890625  C 7.75923319327731 9.2461337890625  7.48053571428571 9.36671484375  7.2715231092437 9.5859521484375  L 6.81061974789916 10.0627763671875  C 6.74094537815126 10.134029296875  6.64983193277311 10.172400390625  6.55337184873949 10.172400390625  C 6.4569012605042 10.172400390625  6.36578781512605 10.134029296875  6.29612394957983 10.0627763671875  L 5.8191281512605 9.574984375  C 5.61011554621849 9.361236328125  5.33141806722689 9.2461337890625  5.0313025210084 9.2406552734375  C 4.73653361344538 9.2406552734375  4.45784663865546 9.3557578125  4.24346638655462 9.569505859375  L 3.75039915966387 10.068265625  C 3.61106092436975 10.2107607421875  3.38060924369748 10.2107607421875  3.24126050420168 10.068265625  L 2.74819327731092 9.569505859375  C 2.53918067226891 9.3557578125  2.26048319327731 9.2406552734375  1.96036764705882 9.2406552734375  C 1.6655987394958 9.2406552734375  1.39226890756303 9.3557578125  1.18325630252101 9.56402734375  L 0.406144957983193 10.27653515625  C 0.250714285714286 10.4190302734375  0.24 10.6656708984375  0.379348739495798 10.8246123046875  C 0.518686974789916 10.9835537109375  0.759863445378151 10.994521484375  0.915283613445378 10.852015625  L 1.70311974789916 10.134029296875  C 1.7084768907563 10.12855078125  1.71383403361345 10.123072265625  1.71919117647059 10.123072265625  C 1.85853991596639 9.98056640625  2.08899159663866 9.98056640625  2.22832983193277 10.123072265625  L 2.72139705882353 10.62183203125  C 2.93042016806723 10.835580078125  3.20910714285714 10.950671875  3.50923319327731 10.950671875  C 3.80400210084034 10.950671875  4.08268907563025 10.835580078125  4.29705882352941 10.6218212890625  L 4.79012605042017 10.1230615234375  C 4.92947478991597 9.98056640625  5.15992647058824 9.98056640625  5.29926470588235 10.1230615234375  L 5.77626050420168 10.6108642578125  C 5.9852731092437 10.8246123046875  6.26932773109244 10.945193359375  6.5640756302521 10.945193359375  L 6.56944327731092 10.945193359375  C 6.86956932773109 10.945193359375  7.14825630252101 10.8246123046875  7.36263655462185 10.6053857421875  L 7.82353991596639 10.1285400390625  C 7.96288865546218 9.986044921875  8.19334033613445 9.98056640625  8.33267857142857 10.1230615234375  L 8.34876050420168 10.1395078125  L 9.15266806722689 10.8629833984375  C 9.22234243697479 10.9287470703125  9.31345588235294 10.9616396484375  9.40455882352941 10.96162890625  C 9.51175420168067 10.96162890625  9.61358193277311 10.9177900390625  9.68861344537815 10.8300908203125  Z M 9.7797268907563 4.7135  L 8.43987394957983 4.1215732421875  L 8.43987394957983 2.3841533203125  C 8.43987394957983 2.2252119140625  8.34340336134454 2.0827060546875  8.1986974789916 2.0224208984375  L 5.82448529411765 1.07971875  L 5.82448529411765 0  L 4.28098739495798 0  L 4.28098739495798 1.07971875  L 1.82100840336134 2.04982421875  C 1.6763025210084 2.110109375  1.57983193277311 2.252615234375  1.57983193277311 2.411556640625  L 1.57983193277311 4.143498046875  L 0.288235294117647 4.7135  C 0.0899369747899159 4.80119921875  0.0149054621848739 5.053318359375  0.138172268907563 5.23965234375  L 2.13186974789916 8.5117119140625  C 2.17473739495798 8.5774755859375  2.23905462184874 8.6213251953125  2.31408613445378 8.6322822265625  C 2.66780462184874 8.70353515625  2.9947268907563 8.8789228515625  3.25734243697479 9.1419990234375  L 3.29485294117647 9.1803701171875  C 3.40740546218487 9.2899833984375  3.58426470588235 9.2899833984375  3.69680672268908 9.1803701171875  L 3.73432773109244 9.1419990234375  C 4.08268907563025 8.791234375  4.54359243697479 8.5994111328125  5.0313025210084 8.5994111328125  L 5.03665966386555 8.5994111328125  C 5.5297268907563 8.5994111328125  5.99063025210084 8.796712890625  6.33899159663866 9.1474775390625  L 6.35506302521009 9.163923828125  C 6.46761554621849 9.2790263671875  6.64983193277311 9.2790263671875  6.75702731092437 9.163923828125  C 7.03034663865546 8.884412109375  7.37335084033614 8.698056640625  7.75387605042017 8.63229296875  C 7.82889705882353 8.6213251953125  7.89857142857143 8.5774755859375  7.94144957983193 8.5117119140625  L 9.93514705882353 5.2396630859375  C 10.0476890756303 5.053318359375  9.97801470588235 4.80119921875  9.77971638655462 4.7135107421875  Z M 7.68420168067227 2.6527080078125  L 7.68420168067227 3.787244140625  L 5.3046218487395 2.7349287109375  C 5.13313025210084 2.658197265625  4.93483193277311 2.658197265625  4.76332983193277 2.7349287109375  L 2.33552521008403 3.8091689453125  L 2.33552521008403 2.6746435546875  L 5.04201680672269 1.6058818359375  L 7.68420168067227 2.6527080078125  Z " fill-rule="nonzero" fill="#d9d9d9" stroke="none" transform="matrix(1 0 0 1 270 458 )" />
  </g>
</svg>