<?xml version="1.0" encoding="utf-8"?>
<svg version="1.1" xmlns:xlink="http://www.w3.org/1999/xlink" width="8px" height="8px" xmlns="http://www.w3.org/2000/svg">
  <g transform="matrix(1 0 0 1 -164 -340 )">
    <path d="M 3.33257142857143 0.750933333333334  C 3.33257142857143 0.443733333333334  3.59771428571428 0.187733333333334  3.936 0.187733333333334  C 4.26514285714286 0.187733333333334  4.53942857142857 0.443733333333334  4.53942857142857 0.750933333333334  C 4.53942857142857 1.05813333333333  4.26514285714286 1.31413333333333  3.936 1.31413333333333  C 3.60685714285714 1.31413333333333  3.33257142857143 1.05813333333333  3.33257142857143 0.750933333333334  Z M 7.43771428571429 7.49226666666667  C 7.43771428571429 7.7312  7.23657142857143 7.91893333333333  6.98057142857143 7.91893333333333  L 0.58057142857143 7.91893333333333  C 0.324571428571429 7.91893333333333  0.123428571428572 7.7312  0.123428571428572 7.49226666666667  C 0.123428571428572 7.25333333333333  0.324571428571429 7.0656  0.58057142857143 7.0656  L 6.98057142857143 7.0656  C 7.23657142857143 7.0656  7.43771428571429 7.25333333333333  7.43771428571429 7.49226666666667  Z " fill-rule="nonzero" fill="#999999" stroke="none" transform="matrix(1 0 0 1 164 340 )" />
  </g>
</svg>