<?xml version="1.0" encoding="utf-8"?>
<svg version="1.1" xmlns:xlink="http://www.w3.org/1999/xlink" width="15px" height="17px" xmlns="http://www.w3.org/2000/svg">
  <g transform="matrix(1 0 0 1 -446 -236 )">
    <path d="M 7.43676189732143 3.18526315789474  C 3.99010298136079 3.22001340367283  1.21428572233549 6.02980189288514  1.21428572233549 9.48389174161231  C 1.21428572233549 12.9627043131781  4.02849586625622 15.7828391100334  7.50000000804978 15.7828391100334  C 10.9713799188641 15.7828391100334  13.7855386019451 12.9628986009084  13.7857142857143 9.48421052631579  C 13.7882536053719 8.00529617604915  13.2690343966853 6.57308517864094  12.31980953125 5.44066807763158  C 12.2335330315041 5.3375281898766  12.1862481742688 5.20724081390079  12.1862481742688 5.07265684210526  C 12.1862481742688 4.75627495673254  12.4421875480787 4.49979676318827  12.757904765625 4.49979676318827  C 12.9269808268802 4.49979676318827  13.0873837907538 4.57479954579745  13.196 4.70464560657895  C 14.317646777491 6.04338698946133  14.9312763683354 7.73617865031102  14.9285714285714 9.48421052631579  C 14.9285714285714 13.5957052631579  11.6028571428571 16.9284210526316  7.5 16.9284210526316  C 3.39714285714286 16.9284210526316  0.0714285714285712 13.5957052631579  0.0714285714285712 9.48421052631579  C 0.0714285714285712 5.51396491973684  3.17238095982143 2.27057965657895  7.07866667410714 2.05145263157895  L 6.07295238839286 1.04362105263158  C 5.96134874602029 0.93570421186213  5.89831078055212 0.786964240390189  5.89831078055212 0.631548937436768  C 5.89831078055212 0.315293249112609  6.15414806636309 0.0589173584893998  6.46973935198069 0.0589173584893998  C 6.6246411057343 0.0589173584893998  6.77290612054855 0.121936214090387  6.88057142857143 0.233538238157895  L 9.036 2.39274105263158  C 9.14324286405767 2.50014083576188  9.20349705719077 2.64584753406376  9.20349705719077 2.79778245986842  C 9.20349705719077 2.94971738567308  9.14324286405767 3.09542408397497  9.036 3.20282386710526  L 6.88057142857143 5.36202665921053  C 6.77248338757956 5.47826890220568  6.62105934164392 5.54428263955964  6.46250787018733 5.54428263955964  C 6.14691658456974 5.54428263955964  5.89107929875876 5.28790674893643  5.89107929875876 4.97165106061227  C 5.89107929875876 4.81276579658419  5.95695435179055 4.66102296318343  6.07295238839286 4.55270736842105  L 7.43676189732143 3.18602665921053  Z " fill-rule="nonzero" fill="#7f7f7f" stroke="none" transform="matrix(1 0 0 1 446 236 )" />
  </g>
</svg>