<?xml version="1.0" encoding="utf-8"?>
<svg version="1.1" xmlns:xlink="http://www.w3.org/1999/xlink" width="18px" height="21px" xmlns="http://www.w3.org/2000/svg">
  <g transform="matrix(1 0 0 1 -1002 -1912 )">
    <path d="M 8.62489154166667 5.03908930957031  C 9.82310527083333 5.07671404980469  11.0595409583333 4.34521922460937  11.7768692291667 3.39935092382813  C 12.4470866875 2.51823216503906  12.9555275416667 1.27224099023437  12.7715288333333 0  C 11.6755366041667 0.077874439453125  10.3946567708333 0.79186939453125  9.64710652083333 1.7228628046875  C 8.96622245833333 2.56635682324219  8.40622641666667 3.82109794335937  8.62489154166667 5.03908930957031  Z M 17.2870524166667 7.15307432519531  C 13.7937438333333 9.08156066015625  14.3590731666667 14.1066500654297  17.8888259166667 15.4506405498047  C 17.4034960208333 16.5338828730469  17.1697198958333 17.0177544550781  16.5448354375 17.9767476738281  C 15.6728416041667 19.3154881992187  14.4426281041667 20.9841013798828  12.9173055833333 20.9954762841797  C 11.5635373958333 21.0103511748047  11.2142065416667 20.1073575732422  9.37599733333333 20.1187324980469  C 7.537788125 20.1283574296875  7.15467972916667 21.0129761542969  5.79824489583333 20.9998512568359  C 4.274700125 20.9858513525391  3.1093750625 19.4817370166016  2.23649235416667 18.142121484375  C -0.203490354166667 14.4006479941406  -0.460377437500001 10.0081790976562  1.0453896875 7.67194564746093  C 2.1147154375 6.0129573984375  3.803592375 5.04258927539062  5.39024779166667 5.04258927539062  C 7.00445858333333 5.04258927539062  8.0195625 5.93508295898437  9.35644191666667 5.93508295898437  C 10.6542105 5.93508295898437  11.4426493541667 5.03996429589843  13.3101916875 5.03996429589843  C 14.723515 5.03996429589843  16.2212821875 5.81520880664062  17.2870524166667 7.15307432519531  Z " fill-rule="nonzero" fill="#ffffff" stroke="none" transform="matrix(1 0 0 1 1002 1912 )" />
  </g>
</svg>