<?xml version="1.0" encoding="utf-8"?>
<svg version="1.1" xmlns:xlink="http://www.w3.org/1999/xlink" width="18px" height="20px" xmlns="http://www.w3.org/2000/svg">
  <g transform="matrix(1 0 0 1 -1171 -1913 )">
    <path d="M 14.5633465738636 5.58129862745098  C 14.3323177755682 3.94651681372549  13.2166814573864 2.55627507352941  11.6559941420455 1.80133595588235  L 12.7376171590909 0.293464166666667  C 12.7839275795455 0.229256715686274  12.7669209289773 0.140219044117647  12.6999408835227 0.0958256127450979  L 12.6729918920455 0.0780180882352941  C 12.6060118465909 0.0333738480392158  12.5136526448864 0.0499273284313726  12.4673422244318 0.114134779411765  L 11.3545839375 1.66539674019608  C 10.6277458295455 1.36241784313726  9.81692102556818 1.19312085784314  8.96135563636364 1.19312085784314  C 8.14948427556818 1.19312085784314  7.37738230397727 1.34561355392157  6.67984794034091 1.62025088235294  L 5.61653976988636 0.137961764705883  C 5.57049098863636 0.0737543137254908  5.47787014772727 0.0574516421568634  5.41089010227273 0.101845073529412  L 5.38394111079545 0.119652598039216  C 5.31696106534091 0.164046029411765  5.29995441477273 0.253083700980393  5.34600319602273 0.317541960784314  L 6.37425150852273 1.75042144607843  C 4.75757307102273 2.49307088235294  3.59588797159091 3.90914605392157  3.35936469886364 5.58129862745098  L 14.5633465738636 5.58129862745098  Z M 7.16048209943182 3.42432968137255  C 7.16048209943182 3.7207875  6.91061515056818 3.96131463235294  6.60214066193182 3.96131463235294  C 6.2939278125 3.96131463235294  6.04379922443182 3.7207875245098  6.04379922443182 3.42432968137255  C 6.04379922443182 3.1278718627451  6.2939278125 2.88759553921569  6.60214066193182 2.88759553921569  C 6.91061515056818 2.88759553921569  7.16048209943182 3.12787183823529  7.16048209943182 3.42432968137255  Z M 11.9799054460227 3.42432968137255  C 11.9799054460227 3.7207875  11.7300384971591 3.96131463235294  11.4215640085227 3.96131463235294  C 11.1133511590909 3.96131463235294  10.8632225710227 3.7207875245098  10.8632225710227 3.42432968137255  C 10.8632225710227 3.1278718627451  11.1133511590909 2.88759553921569  11.4215640085227 2.88759553921569  C 11.7300384971591 2.88759553921569  11.9799054460227 3.12787183823529  11.9799054460227 3.42432968137255  Z M 1.46613196022727 6.36232203431373  C 2.07889468465909 6.36232203431373  2.57993680397727 6.97906465686274  2.57993680397727 7.73300056372549  L 2.57993680397727 12.1312107352941  C 2.57993680397727 12.8851466176471  2.07889468465909 13.5021400735294  1.46613196022727 13.5021400735294  L 1.21861976420455 13.5021400735294  C 0.606118678977273 13.5021400735294  0.104814920454547 12.8851466421569  0.104814920454547 12.1312107352941  L 0.104814920454547 7.73300056372549  C 0.104814920454547 6.97906468137255  0.606118678977274 6.36232203431373  1.21861976420455 6.36232203431373  L 1.46613196022727 6.36232203431373  Z M 16.7812755596591 6.38840629901961  C 17.3940382840909 6.38840629901961  17.8950804034091 7.00514894607843  17.8950804034091 7.75908482843137  L 17.8950804034091 12.157295  C 17.8950804034091 12.9114816911765  17.3940382840909 13.5282243382353  16.7812755596591 13.5282243382353  L 16.5337633636364 13.5282243382353  C 15.9212622784091 13.5282243382353  15.4199585198864 12.9114817156863  15.4199585198864 12.157295  L 15.4199585198864 7.75908482843137  C 15.4199585198864 7.00514894607843  15.9212622784091 6.38840629901961  16.5337633636364 6.38840629901961  L 16.7812755596591 6.38840629901961  Z M 3.36328926136364 6.29485404411765  L 14.6489031306818 6.29485404411765  L 14.6489031306818 14.9731427205882  C 14.6489031306818 15.5755891666667  14.1363488352273 16.068431495098  13.5097191306818 16.068431495098  L 12.5701670454545 16.068431495098  L 12.5701670454545 18.5762841176471  C 12.5701670454545 19.33022  12.0688632869318 19.9469626470588  11.4563622017045 19.9469626470588  L 11.2088500056818 19.9469626470588  C 10.5963489204545 19.9469626470588  10.0950451619318 19.3302200245098  10.0950451619318 18.5762841176471  L 10.0950451619318 16.068431495098  L 8.00191884375 16.068431495098  L 8.00191884375 18.5474409313725  C 8.00191884375 19.3013768137255  7.50087672443182 19.9183702696078  6.888114 19.9183702696078  L 6.64060180397727 19.9183702696078  C 6.02810071875 19.9183702696078  5.52679696022727 19.3013768382353  5.52679696022727 18.5474409313725  L 5.52679696022727 16.068431495098  L 4.50247326136364 16.068431495098  C 3.87584358238637 16.068431495098  3.36328926136364 15.5755891666667  3.36328926136364 14.9731427205882  L 3.36328926136364 6.29485404411765  Z " fill-rule="nonzero" fill="#fdfdfd" stroke="none" transform="matrix(1 0 0 1 1171 1913 )" />
  </g>
</svg>