<?xml version="1.0" encoding="utf-8"?>
<svg version="1.1" xmlns:xlink="http://www.w3.org/1999/xlink" width="24px" height="31px" xmlns="http://www.w3.org/2000/svg">
  <g transform="matrix(1 0 0 1 -1083 -1630 )">
    <path d="M 11.83138893 1.15507086816406  C 11.876313 1.15507086816406  11.93197365 1.13247574316406  12.00010653 1.08809972753906  C 12.13475766 0.995887169921875  12.31590699 0.837476958007812  12.54028521 0.611199965820313  C 12.81035439 0.362287130859375  13.07949519 0.179409048828125  13.34879748 0.06635198828125  C 13.61886666 -0.0486185654296875  13.9796316 -0.0133213115234375  14.42818614 0.1686203828125  C 14.65429998 0.2355508359375  14.83290648 0.331468166015625  14.96836491 0.456453838867187  C 15.10378293 0.581276670898437  15.23306577 0.700725543945313  15.35778762 0.814759709960937  C 15.48077379 0.926066178710938  15.61526352 1.02291989648438  15.76254828 1.10259316601563  C 15.90789561 1.18226646582031  16.09364637 1.22122777441406  16.31782278 1.22122777441406  C 16.54409802 1.22122777441406  16.73517669 1.18768114257812  16.89130098 1.12070997167969  C 17.04928194 1.05202892675781  17.20173321 0.98953610546875  17.34708054 0.933394318359375  C 17.4942039 0.876275456054687  17.63959161 0.836540600585937  17.78683596 0.814759709960937  C 17.93222367 0.790413962890625  18.10707642 0.814759709960937  18.30901275 0.88185300390625  C 18.53512659 0.972355657226563  18.68584221 1.10259316601563  18.76483269 1.27276911914062  C 18.84382317 1.44290432421875  18.86622468 1.61943137207031  18.83122992 1.80137303613281  C 18.79797078 1.98140126757812  18.7191417 2.16334296191406  18.59615553 2.34430758105469  C 18.47143368 2.52816273828125  18.31882098 2.67285296777344  18.14033559 2.78782355175781  C 17.71224504 3.06026786914062  17.38651524 3.33714981835938  17.16229851 3.62229629492187  C 16.93622505 3.90552933886719  16.71184686 4.20606492382812  16.48750899 4.52365886425781  C 16.37348343 4.68300540332031  16.25065863 4.8631964453125  16.11600753 5.06850681152344  C 15.98139672 5.27222942675781  15.85667487 5.47672552832031  15.74454636 5.68044811328125  C 15.60989523 5.92936094824219  15.4637406 6.16821794628906  15.30672834 6.39624553027344  L 8.32295184 6.39624553027344  C 8.16513234 6.12384190039062  8.00715132 5.86222693652344  7.85009874 5.61335484960938  C 7.71468072 5.38528648730469  7.56836463 5.1591723359375  7.41131199 4.93285462597656  C 7.25333103 4.70478626367187  7.11884136 4.50106367871094  7.00659171 4.3210761953125  C 6.7814466 3.97978790136719  6.52837023 3.67937443945312  6.24663621 3.41775950585938  C 5.96486172 3.15614454199219  5.69039295 2.9244528125  5.42028342 2.7199160234375  C 5.12862 2.51635627929687  4.92583605 2.23935220703125  4.81277919 1.8854839375  C 4.70052951 1.53532047070312  4.80111423 1.23474413769531  5.11695513 0.9841213984375  C 5.27396739 0.8727742421875  5.45338113 0.826525451171875  5.65709343 0.850056963867188  C 5.85907017 0.8727742421875  6.07351905 0.9171502578125  6.2976954 0.9841213984375  C 6.52300194 1.05280247363281  6.7420119 1.12168707714844  6.95549205 1.18959460546875  C 7.16897226 1.25827565039062  7.365621 1.26910503417969  7.54596312 1.22297839648438  C 7.86083526 1.15600725585938  8.09687838 1.0373726171875  8.25389067 0.865486790039062  C 8.41187169 0.695310836914063  8.68198122 0.48540005859375  9.06321021 0.236487193359375  C 9.3558423 0.054586216796875  9.6814107 -0.007906634765625  10.04217561 0.0491715400390625  C 10.40294058 0.10608684375  10.67204106 0.22569852734375  10.85165661 0.406663146484375  C 10.94215059 0.521633669921875  11.03736702 0.616573924804687  11.13875901 0.696247224609375  C 11.23918227 0.774047749023438  11.34594252 0.850056963867188  11.45819217 0.9171502578125  C 11.57201598 1.00667580566406  11.6967378 1.08732618066406  11.83138893 1.15507086816406  Z M 15.64319472 7.960154328125  C 15.9132639 8.32228709472656  16.25146587 8.72049066210938  16.65618621 9.15130447363281  C 16.99265259 9.53680588183594  17.40984507 9.97303440039063  17.90429247 10.4609264169922  C 18.39873981 10.94869625  18.97298493 11.4645573505859  19.62541329 12.0094052978516  C 20.16559197 12.4845951552734  20.72276352 13.0466236113281  21.29527305 13.6936992958984  C 21.8677422 14.3408156982422  22.36929348 15.0957373251953  22.79722257 15.9563879033203  C 23.22353709 16.8188297910156  23.52327312 17.8108577939453  23.6910219 18.9331641142578  C 23.8597395 20.0571802480469  23.83104138 21.3106603740234  23.60666313 22.6945409101562  C 23.40299121 23.8293864580078  23.00359884 24.9009656376953  22.40792094 25.9101740585938  C 21.81212193 26.9211331621094  21.01983561 27.7999412333984  20.02997217 28.5475347207031  C 19.03934184 29.2968788603516  17.86392939 29.8924539179688  16.50357348 30.3348706601562  C 15.14337909 30.7774502734375  13.59824109 30.9974168886719  11.86545534 30.9974168886719  C 10.08883533 30.9974168886719  8.51499927 30.7431300341797  7.14217119 30.23182871875  C 5.76922203 29.7204052197266  4.60640292 29.0578589912109  3.64887024 28.2415437714844  C 2.69420334 27.4252692089844  1.93517622 26.5111231357422  1.37247492 25.5019146542969  C 0.80993508 24.4928690439453  0.43843353 23.4882610048828  0.25982703 22.4898819375  C 0.0561147000000001 21.3776315146484  0.0283449600000002 20.3124441474609  0.17466102 19.2924063427734  C 0.32081565 18.2706178857422  0.58474959 17.3121364541016  0.96791604 16.4161479042969  C 1.35007338 15.5202001328125  1.82829486 14.6975337578125  2.40173268 13.9479861503906  C 2.97597783 13.2005554433594  3.60047493 12.5307218232422  4.27437645 11.9414977695312  C 4.85851047 11.4184714003906  5.38795266 10.9251240195312  5.85987738 10.4599900595703  C 6.33273057 9.99481532128906  6.72578595 9.56941615625  7.04081958 9.18391474804687  C 7.42297692 8.75387442285156  7.76134038 8.34390511425781  8.05381104 7.95840370605469  L 15.64319472 7.95840370605469  L 15.64319472 7.960154328125  Z M 12.06836043 18.40993415625  L 10.44689595 16.7744537451172  C 10.22255808 16.5483396542969  10.06457715 16.3781637011719  9.97577844 16.2641295048828  C 9.79636464 16.1065335576172  9.5593932 15.9745454267578  9.26785089 15.8730912666016  C 8.9753802 15.7708228417969  8.7277125 15.8323793056641  8.52492858 16.0604069501953  C 8.34628167 16.3092790371094  8.30059071 16.5537136132812  8.39027745 16.7926112988281  C 8.48093286 17.0316311679688  8.58139644 17.2189468515625  8.69441301 17.3528484150391  L 9.19959693 17.8297889248047  C 9.44730501 18.1022332421875  9.71737416 18.3973948681641  10.00907796 18.7159251054688  C 10.34727993 19.07785434375  10.7187411 19.4635185927734  11.12253306 19.8715744990234  L 11.08846665 20.5856620419922  L 8.79406935 20.5856620419922  C 8.5920927 20.5856620419922  8.41723998 20.66533528125  8.27189259 20.8246818505859  C 8.12460783 20.9840284804688  8.05288269 21.1532272978516  8.05288269 21.3351689921875  C 8.05288269 21.51706996875  8.11923954 21.6745437626953  8.2548594 21.8101959785156  C 8.39027745 21.9460110351562  8.57065992 22.0156692158203  8.79503811 22.0156692158203  L 11.08939497 22.0156692158203  L 11.08939497 23.2067786132813  L 8.79503811 23.2067786132813  C 8.5930614 23.2067786132813  8.41804719 23.2683351376953  8.27265948 23.3922215517578  C 8.1255765 23.5180214589844  8.05381104 23.6819684707031  8.05381104 23.8872788369141  C 8.03144991 24.0674699394531  8.09243847 24.2212389306641  8.23956183 24.3470388378906  C 8.38490916 24.4710881230469  8.57065992 24.5345580800781  8.79503811 24.5345580800781  L 11.08939497 24.5345580800781  L 11.08939497 25.2132669941406  C 11.11179648 25.5318379189453  11.21411679 25.752700234375  11.39353059 25.8775637841797  C 11.57298471 26.0023866464844  11.79829125 26.0648794980469  12.0691677 26.0648794980469  C 12.33923688 26.0857239707031  12.55824675 26.0033637216797  12.72696429 25.8105926435547  C 12.89471316 25.6159488203125  12.98000028 25.4178037832031  12.98000028 25.2132669941406  L 12.98000028 24.5345580800781  L 15.34075437 24.5345580800781  C 15.56513256 24.5345580800781  15.75088332 24.4828538945312  15.8979663 24.3805854697266  C 16.04335401 24.2783577929687  16.10434257 24.113596546875  16.08198141 23.8872788369141  C 16.08198141 23.4103383271484  15.76787619 23.1714813896484  15.13708245 23.1714813896484  L 12.98000028 23.1714813896484  L 13.01309802 22.0156692158203  L 15.20517489 21.9803311835938  C 15.52113684 22.0048398017578  15.74551503 21.9415327158203  15.88000476 21.7949289931641  C 16.01465589 21.6463710898438  16.08198141 21.4717575654297  16.08198141 21.2662843886719  C 16.08198141 21.0862561572266  16.01005452 20.9196221357422  15.86297154 20.7731405361328  C 15.71758383 20.6264961259766  15.48614208 20.5522375332031  15.17207721 20.5522375332031  L 12.98000028 20.5522375332031  L 12.98000028 19.9051618183594  C 13.36046238 19.5430290517578  13.70952207 19.1911149628906  14.02439421 18.8515773515625  C 14.29450377 18.5791329736328  14.56457292 18.3005411201172  14.83371372 18.0171452958984  C 15.10378293 17.7329351767578  15.30672834 17.5347900791016  15.44214636 17.4217330185547  C 15.95899524 16.9690975986328  16.07108346 16.5718711367188  15.77861277 16.2305828427734  C 15.62252886 16.0270231289063  15.41974485 15.9247547041016  15.17207721 15.9247547041016  C 14.92436913 15.9247547041016  14.69922405 16.0170079794922  14.49724734 16.1971990820313  C 14.38515918 16.289411609375  14.19404013 16.4514859365234  13.92207384 16.6903428740234  C 13.65200469 16.9293627431641  13.38189516 17.1728201835937  13.11275436 17.4225065957031  C 12.79776114 17.7167318339844  12.45055818 18.0452772207031  12.06836043 18.40993415625  Z " fill-rule="nonzero" fill="#dfcca7" stroke="none" transform="matrix(1 0 0 1 1083 1630 )" />
  </g>
</svg>