<?xml version="1.0" encoding="utf-8"?>
<svg version="1.1" xmlns:xlink="http://www.w3.org/1999/xlink" width="26px" height="28px" xmlns="http://www.w3.org/2000/svg">
  <g transform="matrix(1 0 0 1 -1174 -1633 )">
    <path d="M 16.5526450402542 8.51932106199285  C 16.7279960084746 8.51932106199285  16.8471163029661 8.47580821437909  16.9105696059322 8.38878249180783  C 16.9738115211864 8.30175676923657  17.005520559322 8.14722315610623  17.005520559322 7.92469198054229  L 17.005520559322 7.25751812572508  C 17.005520559322 7.04495571577641  16.9785678686441 6.90220974716581  16.9251909978814 6.82969997379912  C 16.8715674851695 6.75715522777622  16.7473737754237 6.72091781374911  16.5526802944915 6.72091781374911  L 13.090441220339 6.72091781374911  C 12.8955363516949 6.72091781374911  12.7713426419492 6.74767613403547  12.7179305169492 6.80070304804619  C 12.6643070042373 6.8539398526817  12.6376009555085 6.96751400491454  12.6376009555085 7.1415304500571  L 12.6376009555085 7.93920790240312  C 12.6376009555085 8.1617391053108  12.6764269152542 8.31399911297461  12.7544663559322 8.39605795273823  C 12.8322944088983 8.47832662843914  12.9685728029661 8.51932106199285  13.1634776716102 8.51932106199285  L 16.5526450402542 8.51932106199285  Z M 25.8293698771186 1.82225837322045  L 25.2963762394068 1.66020443587871  C 19.976516184322 0.0361324687147144  13.0795544364407 0.0174890898266708  13.0176161292373 0.0174890898266708  C 12.9550788580508 0.0174890898266708  6.0599844279661 0.0360974960584985  0.737622891949151 1.66016946322249  L 0.205897608050846 1.82225837322045  L 0.207165961864405 14.0391580683211  C 0.214036241525422 14.1434979900942  0.379804033898304 16.6221918900174  1.91998233898305 19.5243666762457  C 2.83330824576271 21.2472170378445  4.68937900423729 22.7893001652448  6.17071941949152 24.1071731561453  C 7.993636625 25.7300209162793  10.2269391800847 27.0150143876807  12.8074204512712 27.9260911016347  L 13.0176161292373 28  L 13.2278470338983 27.9260911016347  C 15.8020569618644 27.0168682392413  18.0290882012712 25.7375062404907  19.8495038983051 24.122108831912  C 21.328378059322 22.8091677785067  23.1844135911017 21.2714219440709  24.101544559322 19.5536084379359  C 25.6654694025424 16.6172250072097  25.8224995974576 14.1388808885362  25.82813675 14.0351355839501  L 25.8293698771186 1.82225837322045  Z M 9.73780971822034 7.46056652396429  C 9.59652833474576 7.91517788680158  9.44312706779661 8.35027149965794  9.2776411440678 8.76588228050207  L 9.2776411440678 17.5692611547175  C 9.2776411440678 18.1686472830384  9.03408052542373 18.4684452788394  8.54724112923729 18.4684452788394  C 8.2354356059322 18.4684452788394  8.0213291588983 18.3959355054727  7.90446375847458 18.2509159587393  C 7.78759835805085 18.1058614393497  7.72914801694915 17.8785382169155  7.72914801694915 17.5692611547175  L 7.72914804449152 11.9565570898862  C 7.47575763559322 12.3241078395272  7.23244363135593 12.5246727143314  6.9987128029661 12.5584616596109  C 6.76498197457627 12.5924604408277  6.55062891313559 12.527156183079  6.35593543220339 12.3626538043333  C 6.10258025 12.1886023591908  5.97613164618644 11.9807969961125  5.97613164618644 11.7389928244736  C 5.97613164618644 11.497433488772  6.11720161440678 11.1733956140885  6.39976435381356 10.7672639543288  C 6.97429684745762 9.95510552543447  7.42963859322034 9.12843117467927  7.76564865677966 8.28724087471949  C 8.10165872033898 7.44605057475972  8.3865115529661 6.54686642329408  8.62024238135593 5.58965350235385  C 8.69807043432203 5.20307461991887  8.80514129872881 4.92024104207008  8.94166630720339 4.7412227141199  C 9.07794470127118 4.56244922210698  9.31646710381356 4.4923879174879  9.65748015677966 4.53089890963779  C 9.9788688559322 4.57941364005917  10.173562309322 4.7194663039849  10.241807213983 4.95151154594579  C 10.3098054766949 5.18355681525043  10.2856361355932 5.51710875633095  10.1687355084746 5.95223734184352  C 10.0226625508475 6.50335357568032  9.87884445974576 7.00619994237676  9.73780971822034 7.46056652396429  Z M 20.0367985614407 16.3800378550976  C 20.070797720339 16.5055746245063  20.0660061461864 16.6288377337609  20.0222124237288 16.7498272922365  C 19.9783835021186 16.8706069600873  19.9076371165254 17.0036289716761  19.8103960699153 17.1486485184095  C 19.6154559745763 17.4097256587796  19.3915197097458 17.5062654477478  19.1384111419492 17.4387225845325  C 18.8850559597458 17.3709348580362  18.6026693813559 17.2066423425716  18.2911105 16.9456001748578  C 17.6579163050847 16.4329949058272  17.1272127605932 15.9423909375563  16.6987884512712 15.4735084067642  C 16.2701175275424 15.0046958212845  15.8903137415254 14.5140568530136  15.5593066673729 14.0014865839829  L 15.5593066673729 17.6562519319763  C 15.5593066673729 17.9655989668305  15.5008915805085 18.1856467283343  15.3839909258475 18.3161852985194  C 15.2671255254237 18.4466539233919  15.0674290550847 18.5119581811407  14.7850777309322 18.5119581811407  C 14.5122743283898 18.5119581811407  14.3004579745763 18.4466888960482  14.1495934427966 18.3161852985194  C 13.9984822690678 18.1856467283343  13.9231556970339 17.9655989668305  13.9231556970339 17.6562519319763  L 13.9231556970339 14.6106316419818  C 13.6503875211864 15.0072142626883  13.3410835063559 15.3745201763921  12.9954902669492 15.7128641369992  C 12.6496856122881 16.0512080976062  12.2139330211864 16.4379968433223  11.6880562775424 16.8731254288348  C 11.2593853538136 17.2017104871077  10.9087538983051 17.3854858345845  10.6362323644068 17.4242766353279  C 10.3634641885593 17.4627876274777  10.144354779661 17.3612459557019  9.97883360169491 17.1196866200003  C 9.90079413347457 16.9939050693419  9.84234381991525 16.8731254014911  9.80351786016949 16.7571027805106  C 9.76451573940678 16.6411151321864  9.76197903177966 16.5200906283983  9.79622477754237 16.3945539136772  C 9.8302239088983 16.2687723630188  9.90579712288135 16.1382337928338  10.0226625233051 16.0029731757784  C 10.1395279237288 15.8674676954419  10.3148084385593 15.717900992463  10.5485744936441 15.5533636137174  C 10.7140604173729 15.437340992737  10.9087538983051 15.287529426477  11.1329015508475 15.1037540516565  C 11.3568025614407 14.920188540117  11.5905686165254 14.7121733137577  11.8340940084746 14.480128044453  C 12.0774080127119 14.2480478024921  12.3209686313559 13.9967645371125  12.56452925 13.7259284670645  C 12.8078432542373 13.4553722329537  13.0367824809322 13.1748122332277  13.251100315678 12.884773139761  L 10.8845493305085 12.884773139761  C 10.5727438072034 12.884773139761  10.3513442775424 12.8147468077981  10.2198574851695 12.6744493352789  C 10.0883706927966 12.5344316713531  10.0226272966102 12.333621933268  10.0226272966102 12.0725797655541  C 10.0226272966102 11.7922646017654  10.0833324766949 11.5844592386871  10.2052360932203 11.4489537583506  C 10.3269283220339 11.3136581412953  10.5533308411017 11.2459054147989  10.8845493305085 11.2459054147989  L 13.923120470339 11.2459054147989  L 13.923120470339 10.1871857947391  L 12.3746273707627 10.1871857400516  C 11.8388856101695 10.1871857400516  11.4663749067797 10.0616490526742  11.2570952881356 9.81008595135734  C 11.0475338008475 9.55876771332152  10.9429996716102 9.17194399494927  10.9429996716102 8.64985963217787  L 10.9429996716102 6.5904142162203  C 10.9429996716102 6.06829488079268  11.0475338008475 5.68395463116801  11.2570952881356 5.43742838531501  C 11.4663749067797 5.19086716680579  11.8389208368644 5.06760405755117  12.3746273707627 5.06760405755117  L 17.3122878389831 5.06760405755117  C 17.8185754279661 5.06760405755117  18.1764647394068 5.18611014727919  18.3860262266949 5.42294740876665  C 18.5953410995763 5.65999456087891  18.7000865889831 6.05381390424432  18.7000865889831 6.60493013808112  L 18.7000865889831 8.64985960483412  C 18.7000865889831 9.17197894026174  18.602634154661 9.55880265863398  18.4079759004237 9.81008592401359  C 18.2130358050848 10.0616489979867  17.847818184322 10.1871857127078  17.3122878114407 10.1871857127078  L 15.5592714131356 10.1871857127078  L 15.5592714131356 11.2459053327677  L 19.1967909745763 11.2459053327677  C 19.5083498559322 11.2459053327677  19.7227029449153 11.313693059264  19.8395331186441 11.4489536763194  C 19.9563985190678 11.5844591566558  20.0148488601695 11.7922645470779  20.0148488601695 12.0725796835229  C 20.0148488601695 12.3336218512367  19.9539322923729 12.5344315893218  19.8322400635593 12.6744492532476  C 19.7103364470339 12.8147467531106  19.4985200932203 12.8847730577297  19.1967910021187 12.8847730577297  L 16.5818525699153 12.8847730577297  C 17.058897375 13.4746451196537  17.5362240487288 13.9942810136775  18.0135154957627 14.4438555757384  C 18.4905603008475 14.8934651377994  18.9046098326271 15.2440164694883  19.255241315678 15.4953696801803  C 19.4889369173729 15.6694211253228  19.6690442330509 15.8289216212608  19.7957394237288 15.9739411679942  C 19.922188 16.1189956873838  20.0025175614407 16.2542913044392  20.0367985614407 16.3800378550976  Z " fill-rule="nonzero" fill="#dfcca7" stroke="none" transform="matrix(1 0 0 1 1174 1633 )" />
  </g>
</svg>