<?xml version="1.0" encoding="utf-8"?>
<svg version="1.1" xmlns:xlink="http://www.w3.org/1999/xlink" width="22px" height="11px" xmlns="http://www.w3.org/2000/svg">
  <g transform="matrix(1 0 0 1 -6 -3 )">
    <path d="M 5.15893725194829 3.65476195742083  L 5.15893725194829 2.70238075754292  L 8.98801471383274 2.70238075754292  L 8.98801471383274 3.65476195742083  L 5.15893725194829 3.65476195742083  Z M 5.15893725194829 2.07142873467125  L 5.15893725194829 1.11904712931959  L 8.98801471383274 1.11904712931959  L 8.98801471383274 2.07142873467125  L 5.15893725194829 2.07142873467125  Z M 9.813445736228 0.440476066727709  L 4.36790016499922 0.440476066727709  L 4.36790016499922 4.34523793199542  L 9.813445736228 4.34523793199542  L 9.813445736228 0.440476066727709  Z M 10.4439820862856 5.20238105243292  L 3.84054210703317 5.20238105243292  L 3.84054210703317 5.95238097871042  L 10.4439820862856 5.95238097871042  L 10.4439820862856 5.20238105243292  Z M 7.46326259426258 5.57142866094875  L 6.66076086216477 5.57142866094875  L 6.66076086216477 10.0952372316317  L 7.46326259426258 10.4404754216558  L 7.46326259426258 5.57142866094875  Z M 8.56383572890204 10.0357136854025  C 6.97029739794502 10.0357136854025  5.70922401450397 9.73809494057229  5.12454448791777 7.76190448807833  C 5.12454448791777 7.76190448807833  4.59718642995172 7.9642861671525  4.59718642995172 7.9642861671525  C 5.29650889377823 10.3928575983569  6.6149042339293 10.8214277394175  8.52944296487152 10.8214277394175  C 8.52944296487152 10.8214277394175  10.547161159321 10.8214277394175  10.547161159321 10.8214277394175  C 10.5700894734387 10.5952372500623  10.6847318249712 10.2142851603796  10.7993747622115 10.0238089761567  C 10.3981244818704 10.0357137376706  8.8504430720028 10.0357136854025  8.56383572890204 10.0357136854025  Z M 9.87076700961221 7.34523804257917  L 7.2110474294845 7.34523804257917  L 7.2110474294845 8.08333325961083  L 9.87076700961221 8.08333325961083  L 9.87076700961221 7.34523804257917  Z M 5.37675887175206 6.60714242007375  C 5.37675887175206 6.60714242007375  4.59718642995172 6.51190474610708  4.59718642995172 6.51190474610708  C 4.41375752536949 8.27380962122854  3.89786396612521 9.61904678374537  2.87754061422364 10.4642848401475  C 3.0495050200841 10.5952372500623  3.3819698211731 10.8571428428262  3.51954141419405 11  C 4.55132882553652 10.047619002859  5.14747299727145 8.571427960585  5.37675887175206 6.60714242007375  Z M 3.50807715951721 5.27380930790792  C 2.22407497386856 5.70238086812667  0.894215867130509 6.13095217492432  0 6.38095213345542  C 0 6.38095213345542  0.217821815039713 7.2500003686125  0.217821815039713 7.2500003686125  C 1.19228766014406 6.92857169844844  2.44189688652624 6.49999947933485  3.63418474190625 6.09523748966042  C 3.63418474190625 6.09523748966042  3.50807715951721 5.27380930790792  3.50807715951721 5.27380930790792  Z M 3.62272009675751 2.45238105243292  L 0.126107338344105 2.45238105243292  L 0.126107338344105 3.285714348905  L 3.62272009675751 3.285714348905  L 3.62272009675751 2.45238105243292  Z M 2.35018255625759 0.0595235462291679  L 1.54768121463168 0.0595235462291679  C 1.54768121463168 0.0595235462291679  1.54768121463168 9.88095246520666  1.54768121463168 9.88095246520666  C 1.54768121463168 10.0595238894996  1.50182402509286 10.1071419408775  1.35278810418159 10.1071419408775  C 1.21521634032919 10.1071419408775  0.77957273465426 10.1071419947295  0.275143332468852 10.0952372316317  C 0.389786391731623 10.3452372155049  0.492965110901826 10.7142860657841  0.527358009157063 10.928571744525  C 1.24960927519117 10.928571744525  1.6967173063744 10.9047613503621  1.96039633535742 10.7619041931883  C 2.24700384928964 10.6190470360145  2.35018255625759 10.3809523822689  2.35018255625759 9.8928571744525  C 2.35018255625759 9.8928571744525  2.35018255625759 0.0595235462291679  2.35018255625759 0.0595235462291679  Z M 22 2  L 11.7509118051082 2  L 11.7509118051082 2.76190430377209  L 22 2.76190430377209  L 22 2  Z M 16.141740869933 5.76190481982958  L 12.9317355034294 5.76190481982958  L 12.9317355034294 6.46428509817625  L 16.141740869933 6.46428509817625  L 16.141740869933 5.76190481982958  Z M 16.141740869933 7.66666681411167  L 12.9317355034294 7.66666681411167  L 12.9317355034294 8.36904790340583  L 16.141740869933 8.36904790340583  L 16.141740869933 7.66666681411167  Z M 18.8702459781218 3.92857148649625  L 18.0562807722909 3.92857148649625  L 18.0562807722909 8.8214284766425  L 18.8702459781218 8.8214284766425  L 18.8702459781218 3.92857148649625  Z M 16.6690997088429 3.82142869781  L 15.8322044317708 3.82142869781  C 15.8322044317708 3.82142869781  15.8322044317708 9.9642854299275  15.8322044317708 9.9642854299275  C 15.8322044317708 10.1190473343603  15.7863480963892 10.1666670551497  15.6258478475876 10.1785718182475  C 15.4653472571231 10.1904765702581  14.9379889551121 10.1904766241101  14.3647735855848 10.1666671090017  C 14.4794165228251 10.3928575730148  14.6055242028321 10.7261906736615  14.6513815143934 10.9523811630167  C 15.4309541026207 10.9523811630167  15.9353828214803 10.9523801873455  16.2449191620246 10.8095230301717  C 16.5659196596278 10.6666658729979  16.6690997088429 10.4285710671995  16.6690997088429 9.97619013917333  C 16.6690997088429 9.97619013917333  16.6690997088429 3.82142869781  16.6690997088429 3.82142869781  Z M 21.2318933747641 3.57142858722625  L 20.3835338430151 3.57142858722625  C 20.3835338430151 3.57142858722625  20.3835338430151 9.8928571744525  20.3835338430151 9.8928571744525  C 20.3835338430151 10.0595238388153  20.326212179159 10.1071418925691  20.1427829329139 10.1190466501233  C 19.9478895296099 10.1309514132212  19.3288175318471 10.1309514607376  18.6294950680206 10.1071419408775  C 18.7556021623197 10.3452371648207  18.8931748779474 10.7261906229772  18.9390315061828 10.9642858722625  C 19.8332473733133 10.9642858722625  20.4064621571328 10.9404754020733  20.7618558092384 10.8095230301717  C 21.117249461344 10.6666658729979  21.2318933747641 10.416666662059  21.2318933747641 9.8928571744525  C 21.2318933747641 9.8928571744525  21.2318933747641 3.57142858722625  21.2318933747641 3.57142858722625  Z M 14.3189165668774 0.0357145332112489  C 14.3189165668774 0.0357145332112489  13.5278798704003 0.345237784550418  13.5278798704003 0.345237784550418  C 13.9635235004797 0.857143019069062  14.4335598457806 1.58333342548646  14.6169887503629 2.03571420146  C 14.6169887503629 2.03571420146  15.4653467202243 1.7142854299275  15.4653467202243 1.7142854299275  C 15.2475250028025 1.25000004607656  14.7660245004427 0.547619058150833  14.3189165668774 0.0357145332112489  Z M 20.3376768243077 0.309524062286666  C 20.3376768243077 0.309524062286666  19.4205333263853 0  19.4205333263853 0  C 19.1339252999587 0.642857340328124  18.6180305204898 1.55952329741573  18.2053160830899 2.13095228090042  C 18.2053160830899 2.13095228090042  18.9619600155365 2.4285712284675  18.9619600155365 2.4285712284675  C 19.3861392933211 1.86904756243927  19.9020333894643 1.04761897521302  20.3376768243077 0.309524062286666  Z M 16.1073481059025 3.82142869781  L 12.4731629735244 3.82142869781  L 12.4731629735244 10.9404764537708  L 13.287128960299 10.9404764537708  L 13.287128960299 4.59523763710542  L 16.1073481059025 4.59523763710542  L 16.1073481059025 3.82142869781  Z " fill-rule="nonzero" fill="#5ab6f9" stroke="none" transform="matrix(1 0 0 1 6 3 )" />
  </g>
</svg>