<?xml version="1.0" encoding="utf-8"?>
<svg version="1.1" xmlns:xlink="http://www.w3.org/1999/xlink" width="21px" height="11px" xmlns="http://www.w3.org/2000/svg">
  <g transform="matrix(1 0 0 1 -6 -3 )">
    <path d="M 9.72513478208287 0.883821940411405  L 0.426737967147414 0.883821940411405  L 0.426737967147414 1.75570059670841  L 9.72513478208287 1.75570059670841  L 9.72513478208287 0.883821940411405  Z M 9.2759365897656 4.94462498314576  L 5.28930464102067 4.94462498314576  L 5.28930464102067 5.82844712695444  L 9.2759365897656 5.82844712695444  L 9.2759365897656 4.94462498314576  Z M 10.0957229273794 9.59066277849986  L 0 9.59066277849986  L 0 10.4625406212078  L 10.0957229273794 10.4625406212078  L 10.0957229273794 9.59066277849986  Z M 5.76096224571721 1.20629773040454  L 4.8850268034207 1.20629773040454  L 4.8850268034207 10.020629956098  L 5.76096224571721 10.020629956098  L 5.76096224571721 1.20629773040454  Z M 2.40320876068968 3.95331226532116  L 1.53850283333795 3.95331226532116  L 1.53850283333795 10.056460418633  L 2.40320876068968 10.056460418633  L 2.40320876068968 3.95331226532116  Z M 16.8336896923034 5.81650363944277  L 15.9802128974068 5.81650363944277  L 15.9802128974068 11  L 16.8336896923034 11  L 16.8336896923034 5.81650363944277  Z M 14.172191760662 5.33876251179797  L 14.172191760662 4.18023934163189  L 18.4171113503999 4.18023934163189  L 18.4171113503999 5.33876251179797  L 14.172191760662 5.33876251179797  Z M 19.281818042731 3.49945648552155  L 13.3524061880276 3.49945648552155  L 13.3524061880276 6.03148722824184  L 19.281818042731 6.03148722824184  L 19.281818042731 3.49945648552155  Z M 19.8770056666759 7.02280157324458  L 12.3529414914621 7.02280157324458  L 12.3529414914621 10.4505971336961  L 13.1951860939861 10.4505971336961  L 13.1951860939861 7.83496197839418  L 19.8770056666759 7.83496197839418  L 19.8770056666759 7.02280157324458  Z M 20.3149731965793 7.02280157324458  L 19.4614964016827 7.02280157324458  C 19.4614964016827 7.02280157324458  19.4614964016827 9.51900103984079  19.4614964016827 9.51900103984079  C 19.4614964016827 9.65037997452394  19.4053474882448 9.69815411207746  19.2368984529931 9.71009765361653  C 19.0572189465724 9.72204119515559  18.4508009470809 9.72204124918299  17.7770041367171 9.69815416610486  C 17.9005339647206 9.93702495874919  18.0240631233671 10.2714445667745  18.0689829999723 10.5103153848435  C 18.9449189203809 10.5103153848435  19.5176473231914 10.5103152195833  19.8770056666759 10.3669927211145  C 20.2251342083483 10.2356137864313  20.3149731965793 9.98479908676846  20.3149731965793 9.51900103984079  C 20.3149731965793 9.51900103984079  20.3149731965793 7.02280157324458  20.3149731965793 7.02280157324458  Z M 16.7663103076966 0  L 15.9016036153654 0  L 15.9016036153654 2.17372388000035  L 16.7663103076966 2.17372388000035  L 16.7663103076966 0  Z M 21 1.85124809000721  L 11.6117644358896 1.85124809000721  L 11.6117644358896 4.43105339296596  L 12.4315507735034 4.43105339296596  L 12.4315507735034 2.65146582123422  L 20.1577531025378 2.65146582123422  L 20.1577531025378 4.43105339296596  L 21 4.43105339296596  L 21 1.85124809000721  Z M 13.2962567008552 0.119435281911201  C 13.2962567008552 0.119435281911201  12.5438497478482 0.441910868507069  12.5438497478482 0.441910868507069  C 12.8919781221814 0.883821838712772  13.2737961649124 1.50488593518254  13.4422453675034 1.91096674794915  C 13.4422453675034 1.91096674794915  14.2508010427033 1.51682921929694  14.2508010427033 1.51682921929694  C 14.0598917344706 1.12269250423381  13.6668448461517 0.54940286630387  13.2962567008552 0.119435281911201  Z M 20.090373717931 0.418023486689202  C 20.090373717931 0.418023486689202  19.2144386581242 0.0955485102851341  19.2144386581242 0.0955485102851341  C 19.0010697462673 0.525515382787369  18.585561150631 1.17046686107501  18.2711226837517 1.56460357613814  C 18.2711226837517 1.56460357613814  18.9561494871724 1.86319239110794  18.9561494871724 1.86319239110794  C 19.2930482270328 1.49294244767088  19.7197855726344 0.943539581367006  20.090373717931 0.418023486689202  Z " fill-rule="nonzero" fill="#189b4c" stroke="none" transform="matrix(1 0 0 1 6 3 )" />
  </g>
</svg>