<?xml version="1.0" encoding="utf-8"?>
<svg version="1.1" xmlns:xlink="http://www.w3.org/1999/xlink" width="24px" height="24px" xmlns="http://www.w3.org/2000/svg">
  <g transform="matrix(1 0 0 1 -1149 -1077 )">
    <path d="M 1161 1077  C 1167.72 1077  1173 1082.28  1173 1089  C 1173 1095.72  1167.72 1101  1161 1101  C 1154.28 1101  1149 1095.72  1149 1089  C 1149 1082.28  1154.28 1077  1161 1077  Z " fill-rule="nonzero" fill="#ffbf60" stroke="none" />
    <path d="M 1161 1077.5  C 1167.44 1077.5  1172.5 1082.56  1172.5 1089  C 1172.5 1095.44  1167.44 1100.5  1161 1100.5  C 1154.56 1100.5  1149.5 1095.44  1149.5 1089  C 1149.5 1082.56  1154.56 1077.5  1161 1077.5  Z " stroke-width="1" stroke="#ffffff" fill="none" />
  </g>
</svg>