<?xml version="1.0" encoding="utf-8"?>
<svg version="1.1" xmlns:xlink="http://www.w3.org/1999/xlink" width="24px" height="16px" xmlns="http://www.w3.org/2000/svg">
  <g transform="matrix(1 0 0 1 -945 -781 )">
    <path d="M 11.98644140625 1.844525390625  C 16.28893359375 1.844525390625  19.99230859375 4.368099609375  21.725396484375 8.010384765625  L 23.414228515625 8.010384765625  C 21.583818359375 3.493138671875  17.1606953125 0.30364453125  11.986416015625 0.30364453125  C 6.812974609375 0.30364453125  2.3898515625 3.493138671875  0.559466796875 8.010359375  L 2.24832421875 8.010359375  C 3.981361328125 4.368099609375  7.684736328125 1.8445  11.98644140625 1.8445  Z M 11.98644140625 14.17621875  C 7.68476171875 14.17621875  3.981361328125 11.65264453125  2.24832421875 8.010359375  L 0.559466796875 8.010359375  C 2.389826171875 12.52841796875  6.81294921875 15.71788671875  11.98644140625 15.71788671875  C 17.1606953125 15.71788671875  21.58384375 12.528392578125  23.414228515625 8.010359375  L 21.72537109375 8.010359375  C 19.992283203125 11.65264453125  16.28893359375 14.17621875  11.986416015625 14.17621875  Z M 11.986771484375 3.90037890625  C 9.716544921875 3.90037890625  7.87641015625 5.74048828125  7.87641015625 8.010765625  C 7.87641015625 10.2809921875  9.7165703125 12.12115234375  11.986771484375 12.12115234375  C 14.257048828125 12.12115234375  16.097158203125 10.2809921875  16.097158203125 8.010765625  C 16.097158203125 5.74048828125  14.257048828125 3.90037890625  11.986771484375 3.90037890625  Z M 11.986771484375 5.441234375  C 13.40557421875 5.441234375  14.55627734375 6.5919375  14.55627734375 8.010765625  C 14.55627734375 9.42959375  13.40557421875 10.580220703125  11.986771484375 10.580220703125  C 10.56796875 10.580220703125  9.418103515625 9.429568359375  9.418103515625 8.010765625  C 9.418103515625 6.5919375  10.56796875 5.441234375  11.986771484375 5.441234375  Z " fill-rule="nonzero" fill="#579afb" stroke="none" transform="matrix(1 0 0 1 945 781 )" />
  </g>
</svg>