<?xml version="1.0" encoding="utf-8"?>
<svg version="1.1" xmlns:xlink="http://www.w3.org/1999/xlink" width="11px" height="11px" xmlns="http://www.w3.org/2000/svg">
  <g transform="matrix(1 0 0 1 -22 -2 )">
    <path d="M 27.5 2  C 30.58 2  33 4.42  33 7.5  C 33 10.58  30.58 13  27.5 13  C 24.42 13  22 10.58  22 7.5  C 22 4.42  24.42 2  27.5 2  Z " fill-rule="nonzero" fill="#ffffff" stroke="none" />
    <path d="M 27.5 2.5  C 30.3 2.5  32.5 4.7  32.5 7.5  C 32.5 10.3  30.3 12.5  27.5 12.5  C 24.7 12.5  22.5 10.3  22.5 7.5  C 22.5 4.7  24.7 2.5  27.5 2.5  Z " stroke-width="1" stroke="#ffffff" fill="none" />
  </g>
</svg>