<?xml version="1.0" encoding="utf-8"?>
<svg version="1.1" xmlns:xlink="http://www.w3.org/1999/xlink" width="34px" height="20px" xmlns="http://www.w3.org/2000/svg">
  <g transform="matrix(1 0 0 1 -703 -870 )">
    <path d="M 17.5865234375 19.778125  C 17.4306640625 19.8724609375  17.254296875 19.917578125  17.0779296875 19.917578125  C 16.9015625 19.917578125  16.729296875 19.8724609375  16.5693359375 19.7822265625  L 0.749609374999999 10.77109375  C 0.257421874999999 10.4921875  0.0851562499999998 9.8646484375  0.3681640625 9.3724609375  C 0.647070312499999 8.8802734375  1.274609375 8.7080078125  1.766796875 8.991015625  L 17.073828125 17.7109375  L 32.233203125 8.991015625  C 32.725390625 8.7080078125  33.3529296875 8.876171875  33.6318359375 9.368359375  C 33.9107421875 9.860546875  33.7466796875 10.4880859375  33.2544921875 10.7669921875  L 17.5865234375 19.778125  Z M 17.590625 10.976171875  C 17.4306640625 11.06640625  17.254296875 11.115625  17.0779296875 11.115625  C 16.9015625 11.115625  16.729296875 11.0705078125  16.5693359375 10.9802734375  L 0.749609374999999 1.969140625  C 0.257421874999999 1.690234375  0.0851562499999998 1.0626953125  0.3681640625 0.570507812499999  C 0.647070312499999 0.0783203124999989  1.274609375 -0.0939453125000007  1.766796875 0.189062499999999  L 17.0779296875 8.908984375  L 32.2373046875 0.189062499999999  C 32.7294921875 -0.0939453125000007  33.35703125 0.0742187499999982  33.6359375 0.566406249999998  C 33.9189453125 1.05859375  33.75078125 1.6861328125  33.25859375 1.9650390625  L 17.590625 10.976171875  Z " fill-rule="nonzero" fill="#2a76f9" stroke="none" transform="matrix(1 0 0 1 703 870 )" />
  </g>
</svg>