<?xml version="1.0" encoding="utf-8"?>
<svg version="1.1" xmlns:xlink="http://www.w3.org/1999/xlink" width="18px" height="18px" xmlns="http://www.w3.org/2000/svg">
  <g>
    <path d="M 9.00001398711758 17.9999682110088  C 7.21998431676781 17.9999836259544  5.47992442435417 17.4721533382255  3.9998788489563 16.4832264328429  C 2.51983327355842 15.4942995274602  1.3662773809306 14.088693334004  0.68508742972798 12.4441566324127  C 0.00389747852535935 10.7996199308215  -0.17433134072244 8.99001682626624  0.172939463578499 7.24418593479838  C 0.520210267879439 5.49835504333051  1.37738331123534 3.89470931581331  2.63606208810853 2.63604248888304  C 4.32388708991166 0.948212837044545  6.61306897987219 0  9.00001398711758 0  C 11.386958994363 0  13.6761399306564 0.948212837044545  15.3639649324595 2.63604248888304  C 17.0517899342627 4.32387214072153  18 6.61306049642819  18 9.00001207981665  C 18 11.3869636632051  17.0517899342627 13.6761509062971  15.3639649324595 15.3639805581356  C 14.5301069438763 16.2022215259648  13.5383115097801 16.8667957382124  12.4459546606877 17.3192565558083  C 11.3535978115954 17.7717173734042  10.1823648249283 18.0030832915535  9.00001398711758 17.9999682110088  Z M 9.00001398711758 1.04805005798312  C 7.42722698753585 1.04788382431836  5.88971231960592 1.51412069637105  4.58190887845004 2.38779876000329  C 3.27410543729416 3.26147682363552  2.25475462657469 4.5033542154039  1.65276645052802 5.95637893438215  C 1.05077827448136 7.40940365336041  0.893191838068314 9.00831154963279  1.19993590297405 10.5509003207439  C 1.50667996787979 12.0934890918549  2.26397694513299 13.5104708963309  3.37605658368326 14.622651111442  C 4.86990919252441 16.100940607992  6.88822991472874 16.9277369423336  8.98987078375825 16.9223264963926  C 11.0915116527877 16.9169160504516  13.1055477076209 16.0797390992724  14.5917692312094 14.593777806537  C 16.0779907547978 13.1078165138016  16.915524206217 11.0939233647955  16.9213084058409 8.99227781826361  C 16.9270926054648 6.89063227173173  16.1006571967287 4.87215832909716  14.622637528157 3.37803870966648  C 13.8861202618021 2.63709263820652  13.0099195331015 2.04963375020239  12.0447786973091 1.64968397504239  C 11.0796378615167 1.24973419988239  10.0447377867562 1.0452418582389  9.00001398711758 1.04805005798312  Z M 9.00001398711758 15.3019805813062  C 7.57153351013144 15.2998600061568  6.18637646093854 14.8112568650093  5.07271047662657 13.9166544926604  C 4.01979046450158 13.0899360804626  3.2903147383141 11.9199886721696  3.01139271919668 10.610671253512  C 2.98998045133647 10.5225287553942  2.98831955066182 10.4307419971303  3.00652933483556 10.3418826175253  C 3.0247391190093 10.2530232379203  3.06236918148712 10.1692891377582  3.11672525126126 10.0966737836331  C 3.18288634396738 10.0298981516265  3.26256120754707 9.97804124467296  3.35040611737184 9.94458189847246  C 3.43825102719661 9.91112255227196  3.53223497034766 9.8968341104029  3.62605469400955 9.90267447140559  C 3.72694435923743 9.90343101128914  3.82740090065381 9.91595999481733  3.92538568593708 9.94000746264228  C 5.50711363254415 10.3975463728973  7.14544203989253 10.6298304865844  8.79201537622203 10.6300040463854  C 8.79201537622203 10.6300040463854  8.99668060268653 10.6300040463854  8.99668060268653 10.6300040463854  L 9.00001398711758 10.6300040463854  C 9.00001398711758 10.6300040463854  9.20001260253423 10.6300040463854  9.20001260253423 10.6300040463854  C 10.846442729853 10.6304578465744  12.4847348978513 10.3990763373063  14.0666419749301 9.9426739232221  C 14.1679448263665 9.91668696434225  14.2720584228568 9.90325328490678  14.3766397334592 9.90267447140559  C 14.4681820007272 9.89640859861317  14.5600171729397 9.90949552961572  14.6461651314863 9.94108320210367  C 14.732313090033 9.97267087459162  14.8108416755511 10.0220505722539  14.8766359541118 10.0860066697542  C 14.9296113920666 10.1503076231714  14.9680592489245 10.2253012259681  14.989346690701 10.3058485244681  C 15.0106341324774 10.3863958229681  15.0142576241811 10.4705934066215  14.9999679991704 10.5526716033322  C 14.7357340826955 11.8756309496629  14.0104524652401 13.0618354864606  12.9533170060815 13.8999881603668  C 11.8352427750357 14.806792498561  10.4395900630148 15.3019801386197  9.00001398711758 15.3026481501209  Z M 4.58671408911758 10.8940020814019  C 4.51359972508868 10.8690686096896  4.43724275878357 10.8549202774887  4.36004903403059 10.8520024662606  C 4.29147143827941 10.8444601742033  4.22250309729884 10.8622585758022  4.16613958309771 10.9020446961693  C 4.10977606889659 10.9418308165364  4.06990925099723 11.0008569953291  4.05405127324096 11.0680010319413  C 4.04071853148109 11.2308424439405  4.0764565345597 11.3939459263697  4.15665981415642 11.5362922903078  C 4.23686309375314 11.6786386542459  4.35785648381136 11.793704868242  4.50404799898389 11.8666638315596  C 5.87884941546917 12.4949768581442  7.37310971699893 12.8190268016507  8.88468130175984 12.8166600310091  C 8.88468130175984 12.8166600310091  9.00734705139906 12.8166600310091  9.00734705139906 12.8166600310091  C 10.5887869905396 12.8401059120442  12.1548032715444 12.503145238108  13.5866447893077 11.8313310036477  C 13.7181586524398 11.7516663711909  13.8240940759621 11.6359890039054  13.8919110874256 11.4979916421797  C 13.9597280988892 11.3599942804541  13.9865879156755 11.205455666181  13.9693094383445 11.0526685657175  C 13.9502598633595 10.9894412805102  13.9097241634671 10.9348538382915  13.8547053546571 10.8983368282386  C 13.7996865458472 10.8618198181856  13.7336407624219 10.8456662330065  13.6679786064917 10.8526687635156  C 13.5661548938699 10.8559670718939  13.4656235392557 10.8764799944329  13.3706468187113 10.9133361458349  C 13.3706468187113 10.9133361458349  13.3519803745199 10.9200016615046  13.3519803745199 10.9200016615046  C 11.9964485966718 11.2910087522863  10.5973993992462 11.4791191968168  9.19201260705531 11.4793327759193  C 9.19201260705531 11.4793327759193  9.00668075597969 11.4793327759193  9.00668075597969 11.4793327759193  C 7.51148125129319 11.522929936878  6.01902608265412 11.3252858678013  4.58671408911758 10.8940020814019  Z M 11.8526580079816 7.2046874774828  C 11.7132656227185 7.20470102510285  11.5752605548785 7.177011937062  11.4466615752617 7.12322945915482  C 11.3180625956449 7.06944698124764  11.2014343932572 6.99064358706729  11.1035537663034 6.89139806852915  C 11.0056731393496 6.79215254999101  10.9284925871235 6.67444392577369  10.8764958003679 6.545112322515  C 10.8244990136124 6.4157807192563  10.7987231824511 6.27740489965664  10.8006665497306 6.13802568041863  C 10.8002279119103 6.00134645914613  10.8267695410187 5.86592458188117  10.8787706143093 5.73952333749934  C 10.9307716875998 5.61312209311751  11.0072091891053 5.49822717211351  11.1037012668161 5.40142516405239  C 11.2001933445268 5.30462315599126  11.3148432737735 5.22781742671966  11.441076900678 5.17541147670178  C 11.5673105275824 5.12300552668389  11.7026461917812 5.09602984720583  11.8393257418135 5.09603055105722  C 11.8393257418135 5.09603055105722  11.8659915457058 5.09603055105722  11.8659915457058 5.09603055105722  C 12.0026149883232 5.09611753921402  12.1378790579507 5.1231579747647  12.2640356663021 5.17560316431857  C 12.3901922746536 5.22804835387244  12.5047622746758 5.30486778221242  12.6011836916143 5.40166103836691  C 12.6976051085528 5.4984542945214  12.7739832393138 5.6133200987963  12.8259426840417 5.73967783199645  C 12.8779021287695 5.86603556519661  12.9044229279195 6.00140253691338  12.9039844423693 6.13802568041863  C 12.9060169862156 6.27737299145674  12.8803238918847 6.41573397950521  12.8284006020677 6.54506209590894  C 12.7764773122507 6.67439021231267  12.6993597666249 6.7921045585484  12.6015320979977 6.89135928595992  C 12.5037044293705 6.99061401337144  12.3871189731241 7.06942820587473  12.2585565308784 7.12321865089782  C 12.1299940886326 7.17700909592091  11.9920197566888 7.20470230029197  11.8526580079816 7.2046874774828  Z M 6.15270223694276 7.18868744244427  C 5.8740970339858 7.18833505546232  5.60699406962109 7.07754881791224  5.40992780174857 6.88060697758466  C 5.21286153387606 6.68366513725709  5.10190586606924 6.41663137279204  5.10137675622213 6.13802568041863  C 5.10102599038962 6.00140246737496  5.12763303459682 5.86605226435103  5.17967346155658 5.73972805860251  C 5.23171388851635 5.61340385285399  5.30816498474521 5.49858815597643  5.40464830063939 5.40185685855255  C 5.50113161653356 5.30512556112868  5.61575127678365 5.22837913819374  5.74194128335195 5.17601483175429  C 5.86813128992024 5.12365052531485  6.00341234674305 5.09669671592313  6.14003563041599 5.09669716620217  C 6.14003563041599 5.09669716620217  6.16670207008634 5.09669716620217  6.16670207008634 5.09669716620217  C 6.44113493971023 5.09677154618908  6.7045316954089 5.20476455695612  6.90003011468801 5.39736253098014  C 6.99817635779944 5.49403363793604  7.07598754226865 5.60936527014037  7.12888288212046 5.73656632554018  C 7.18177822197227 5.86376738093998  7.20868834283587 6.00026645797312  7.20802771540285 6.13802568041863  C 7.20785292255259 6.27637560192455  7.18040779240423 6.41333449678098  7.12726164803708 6.54106939861728  C 7.07411550366992 6.66880430045358  6.99631053790498 6.78480969039183  6.89829698366397 6.8824520106325  C 6.80028342942295 6.98009433087317  6.68398355673927 7.05745820032437  6.55604811088083 7.11011904341416  C 6.42811266502238 7.16277988650394  6.29105144946628 7.18970496098143  6.15270223694276 7.18935437547913  Z " fill-rule="nonzero" fill="#000000" stroke="none" />
  </g>
</svg>