<?xml version="1.0" encoding="utf-8"?>
<svg version="1.1" xmlns:xlink="http://www.w3.org/1999/xlink" width="14px" height="2px" xmlns="http://www.w3.org/2000/svg">
  <g transform="matrix(1 0 0 1 -918 -1234 )">
    <path d="M 1.06218904713542 0.494195678385417  L 1.27810944388021 0.494195678385419  C 1.45698376513201 0.494195678385419  1.601990053125 0.597771598380409  1.601990053125 0.725538970703125  L 1.601990053125 1.49668324479167  C 1.601990053125 1.62445061711439  1.45698376513201 1.72802653710938  1.27810944388021 1.72802653710937  L 1.06218904713542 1.72802653710938  C 0.883314736917961 1.72802652596301  0.738308466145834 1.62445060923271  0.738308466145834 1.49668324479167  L 0.738308466145836 0.725538970703127  C 0.738308466145836 0.597771606262081  0.883314736917959 0.494195689531791  1.06218904713542 0.494195678385417  Z M 2.35771145585938 0.494195678385417  L 2.57363185260417 0.494195678385419  C 2.75250616282163 0.494195689531791  2.89751243359375 0.597771606262083  2.89751243359375 0.725538970703125  L 2.89751243359375 1.49668324479167  C 2.89751243359376 1.62445060923271  2.75250616282163 1.72802652596301  2.57363185260417 1.72802653710937  L 2.35771145585938 1.72802653710938  C 2.17883713460757 1.72802653710938  2.03383084661459 1.62445061711439  2.03383084661458 1.49668324479167  L 2.03383084661459 0.725538970703127  C 2.03383084661459 0.597771598380407  2.17883713460757 0.494195678385419  2.35771145585938 0.494195678385417  Z M 11.7142620191406 0.494195678385417  L 11.9301824158854 0.494195678385419  C 12.1090567371372 0.494195678385419  12.2540630251302 0.597771598380409  12.2540630251302 0.725538970703125  L 12.2540630251302 1.49668324479167  C 12.2540630251302 1.62445061711439  12.1090567371372 1.72802653710938  11.9301824158854 1.72802653710937  L 11.7142620191406 1.72802653710938  C 11.5353877089232 1.72802652596301  11.390381438151 1.62445060923271  11.390381438151 1.49668324479167  L 11.390381438151 0.725538970703127  C 11.390381438151 0.597771606262083  11.5353877089232 0.494195689531791  11.7142620191406 0.494195678385417  Z M 13.0097843996094 0.494195678385417  L 13.2257047963542 0.494195678385419  C 13.404579117606 0.494195678385419  13.549585405599 0.597771598380409  13.549585405599 0.725538970703125  L 13.549585405599 1.49668324479167  C 13.549585405599 1.62445061711439  13.404579117606 1.72802653710938  13.2257047963542 1.72802653710937  L 13.0097843996094 1.72802653710938  C 12.8309100893919 1.72802652596301  12.6859038186198 1.62445060923271  12.6859038186198 1.49668324479167  L 12.6859038186198 0.725538970703127  C 12.6859038186198 0.597771606262083  12.8309100893919 0.494195689531791  13.0097843996094 0.494195678385417  Z " fill-rule="nonzero" fill="#f5b196" stroke="none" transform="matrix(1 0 0 1 918 1234 )" />
  </g>
</svg>