<?xml version="1.0" encoding="utf-8"?>
<svg version="1.1" xmlns:xlink="http://www.w3.org/1999/xlink" width="10px" height="10px" xmlns="http://www.w3.org/2000/svg">
  <g transform="matrix(1 0 0 1 -1003 -1235 )">
    <path d="M 6.77826378088737 4.98541666992188  C 6.77826378088737 4.88820892949379  6.7378366227353 4.79537983036351  6.66666666992187 4.72916666992187  L 4.35 2.575  C 4.28463452526688 2.51335451204899  4.19818216061717 2.47901876985267  4.10833333496094 2.47901876985267  C 3.91380139813643 2.47901876985267  3.75610210481361 2.63671806317549  3.75610210481361 2.83125  C 3.75610210481361 2.92824664308965  3.79610112188309 3.02095037790756  3.86666666992187 3.0875  L 5.89583333007813 5  L 3.86666666992188 6.8875  C 3.79571625435362 6.95383575349178  3.75544487667464 7.04661919304036  3.75544487667464 7.14375  C 3.75544487667464 7.33749431977511  3.91250568022489 7.49455512332537  4.10625 7.49455512332537  C 4.1952114504219 7.49455512332537  4.28085032340331 7.46075646882982  4.34583333007813 7.4  L 6.66666666992187 5.24166666992187  C 6.7378366227353 5.17545350948024  6.77826378088737 5.08262441034996  6.77826378088737 4.98541666992188  Z M 10 5  C 10 2.23857625084603  7.76142374915397 0  5 0  C 2.23857625084603 0  0 2.23857625084603  0 5  C 0 7.76142374915397  2.23857625084603 10  5 10  C 7.76142374915397 10  10 7.76142374915397  10 5  Z M 4.99583333007813 0.708333330078125  L 5 0.704166669921875  C 7.36961429690651 0.705025758774072  9.29011075309778 2.62621860516465  9.29011075309778 4.9958330577998  C 9.29011075309778 6.72144750812861  8.2565775691757 8.27923285439916  6.66666666992187 8.95  C 6.13466630875237 9.1767357790333  5.56232913224245 9.29361320842255  4.9840268775535 9.29361320842255  C 2.61380482439854 9.29361320842255  0.692360207631626 7.37216859165563  0.692360207631626 5.00194653850067  C 0.692360207631626 3.85933429656566  1.14800252409267 2.76389321009371  1.95833333007813 1.95833333007813  C 2.76449848819289 1.15458250159227  3.85745500302366 0.704806158040512  4.99583333007813 0.708333330078125  Z " fill-rule="nonzero" fill="#bfbfbf" stroke="none" transform="matrix(1 0 0 1 1003 1235 )" />
  </g>
</svg>