<?xml version="1.0" encoding="utf-8"?>
<svg version="1.1" xmlns:xlink="http://www.w3.org/1999/xlink" width="14px" height="7px" xmlns="http://www.w3.org/2000/svg">
  <g transform="matrix(1 0 0 1 -918 -1226 )">
    <path d="M 3.96895023535156 5.19781923486328  L 4.0024179140625 5.22426950048828  L 4.02231343554688 5.24028359895833  C 4.039278609375 5.25197927734375  4.05547262792969 5.26475458723958  4.07089552148438 5.27878937304687  C 4.25566169726563 5.44576780029297  4.25998011230469 5.71278937304688  4.08045771972656 5.87508955013021  C 3.90571641113281 6.03307130712891  3.62116420214844 6.03343117252604  3.43578108398438 5.87922801985677  L 3.42082088964844 5.86645274527995  L 3.419278609375 5.86789220686849  C 2.68545771972656 5.26511441731771  1.57007463183594 5.2629552249349  0.872189069335938 5.87203067659505  L 0.84920895703125 5.89236319514974  C 0.669686564453125 6.05466337223307  0.374492545898438 6.05070481754558  0.189572126953125 5.88372635498047  C 0.00974127832031257 5.7210663125  0.000950235351561801 5.46358126106771  0.166283588867188 5.30038143815104  L 0.180164171875001 5.28742621321615  C 1.20393532714844 4.36184743180338  2.85572637011719 4.337016578125  3.96895023535156 5.19781923486328  Z M 12.7599950205078 5.19781923486328  L 12.7934626992188 5.22426950048828  L 12.8133582207031 5.24028359895833  C 12.8303233945312 5.25197927734375  12.8465174130859 5.26475458723958  12.8619403066406 5.27878937304687  C 13.0467064824219 5.44576780029297  13.0510248974609 5.71278937304688  12.8715024746094 5.87508955013021  C 12.6967611660156 6.03307130712891  12.4122089570313 6.03343117252604  12.2268258691406 5.87922801985677  L 12.2118656748047 5.86645274527995  L 12.2103233945313 5.86789220686849  C 11.4765025048828 5.26511441731771  10.3611194169922 5.2629552249349  9.66323382421875 5.87203067659505  L 9.6402537421875 5.89236319514974  C 9.46073134960938 6.05466337223307  9.16553733105469 6.05070481754558  8.98061691210938 5.88372635498047  C 8.80078606347656 5.7210663125  8.79199502050781 5.46358126106771  8.95732834375 5.30038143815104  L 8.97120895703125 5.28742621321615  C 9.99498011230469 4.36184743180338  11.6467711552734 4.337016578125  12.7599950205078 5.19781923486328  Z M 3.96895023535156 1.93562189160156  L 4.0024179140625 1.968549734375  L 4.02231343554688 1.98834243717448  C 4.039278609375 2.00309698909505  4.05547262792969 2.0191110875651  4.07089552148438 2.03674459798177  C 4.25566169726563 2.24546765852865  4.25998011230469 2.57924459798177  4.08045771972656 2.78202986181641  C 3.90571641113281 2.97959702441406  3.62116420214844 2.98013684016927  3.43578108398438 2.78742787809245  L 3.42082088964844 2.77123382926432  L 3.419278609375 2.77303315625  C 2.68545771972656 2.01947095296224  1.57007463183594 2.01677194482422  0.872189069335938 2.77825125748698  L 0.84920895703125 2.80362189160156  C 0.669686564453125 3.00640712011719  0.374492545898438 3.00154891959635  0.189572126953125 2.79282585904948  C 0.00974127832031257 2.58950081477864  0.000950235351561801 2.26777941910807  0.166283588867188 2.06373464404297  L 0.180164171875001 2.04754063053385  C 1.20393532714844 0.890567162597655  2.85572637011719 0.859618561848957  3.96895023535156 1.93562189160156  Z M 12.6057661757813 1.93562189160156  L 12.6392338242188 1.968549734375  L 12.6591293457031 1.98834243717448  C 12.6760945195313 2.00309698909505  12.6922885380859 2.0191110875651  12.7077114316406 2.03674459798177  C 12.8924776074219 2.24546765852865  12.8967960224609 2.57924459798177  12.7172736298828 2.78202986181641  C 12.5425323212891 2.97959702441406  12.2579801123047 2.98013684016927  12.0725970244141 2.78742787809245  L 12.0576368300781 2.77123382926432  L 12.0560945195313 2.77303315625  C 11.3222736298828 2.01947095296224  10.2068905419922 2.01677194482422  9.50900497949219 2.77825125748698  L 9.4860248671875 2.80362189160156  C 9.30650247460938 3.00640712011719  9.01130845605469 3.00154891959635  8.82638806738282 2.79282585904948  C 8.64655721875 2.58950081477864  8.63776617578125 2.26777941910807  8.80309949902344 2.06373464404297  L 8.81698011230469 2.04754063053385  C 9.84075126757813 0.890567162597655  11.4925423105469 0.859618561848957  12.6057661757813 1.93562189160156  Z " fill-rule="nonzero" fill="#4d4132" stroke="none" transform="matrix(1 0 0 1 918 1226 )" />
  </g>
</svg>