<?xml version="1.0" encoding="utf-8"?>
<svg version="1.1" xmlns:xlink="http://www.w3.org/1999/xlink" width="24px" height="19px" xmlns="http://www.w3.org/2000/svg">
  <g transform="matrix(1 0 0 1 -1878 -1717 )">
    <path d="M 16.2063442622951 5.73623086734694  C 16.4768360655738 5.73623086734694  16.7473278688525 5.76085331632653  17.0164180327869 5.78411862244898  C 16.2925573770492 2.47348979591837  12.6613770491803 0  8.52494262295082 0  C 3.89943442622951 0.0159948979591836  0.109278688524589 3.09702423469388  0.109278688524589 7.00930357142857  C 0.109278688524589 9.26477806122449  1.37269672131147 11.1250089285714  3.47136885245901 12.5652525510204  L 2.62426229508197 15.035931122449  L 5.57006557377049 13.5971658163265  C 6.6254262295082 13.8006160714286  7.47260655737705 14.0040663265306  8.51454098360656 14.0040663265306  C 8.78503278688525 14.0040663265306  9.04224590163934 13.9924336734694  9.29931147540984 13.9691198979592  C 9.13225424478638 13.4072993575893  9.04571988695428 12.8252184943118  9.04222131147541 12.2397806122449  C 9.05414754098361 8.65299744897959  12.2080573770492 5.73768494897959  16.207868852459 5.73768494897959  L 16.206393442623 5.73623086734694  Z M 10.4155327868852 4.53860076530612  C 10.4155327868852 3.91373341836735  11.0531557377049 3.50683290816326  11.6789754098361 3.50683290816326  C 12.3180737704918 3.50683290816326  12.7342131147541 3.91373341836735  12.7342131147541 4.538625  C 12.7342131147541 5.14904846938775  12.3180737704918 5.57051403061224  11.6789754098361 5.57051403061224  C 11.0531557377049 5.57051403061224  10.4155327868852 5.16215943877551  10.4155327868852 4.53860076530612  Z M 6.84390983606557 4.538625  C 6.84390983606557 5.14904846938775  6.42774590163934 5.57051403061224  5.78854918032787 5.57051403061224  C 5.16435245901639 5.57051403061224  4.52525409836065 5.16215943877551  4.52525409836065 4.53860076530612  C 4.52525409836065 3.91373341836735  5.16435245901639 3.50683290816326  5.78854918032787 3.50683290816326  C 6.41436885245902 3.50683290816326  6.84390983606557 3.91373341836735  6.84390983606557 4.538625  Z M 20.932868852459 16.9047895408163  C 22.6273032786885 15.6462818877551  23.8907213114754 14.0011096938775  23.8907213114754 12.1539897959184  C 23.8907213114754 8.8666262755102  20.528631147541 6.17948341836735  16.7354016393443 6.17948341836735  C 12.7356885245902 6.17948341836735  9.58168032786885 8.8666262755102  9.58168032786885 12.1539897959184  C 9.58168032786885 15.4530102040816  12.7356885245902 18.129950255102  16.7354016393443 18.129950255102  C 17.5707786885246 18.129950255102  18.4179344262295 17.9265  19.2637131147541 17.7215956632653  L 21.5704918032787 18.9569107142857  L 20.932868852459 16.9047895408163  Z M 14.4167459016393 11.1220765306122  C 14.000606557377 11.1220765306122  13.5695655737705 10.7151760204082  13.5695655737705 10.2937589285714  C 13.5695655737705 9.88685841836735  14.000606557377 9.46541709183673  14.4167459016393 9.46541709183673  C 15.0558442622951 9.46541709183673  15.472106557377 9.87377168367347  15.472106557377 10.2937589285714  C 15.472106557377 10.715200255102  15.0558442622951 11.1221007653061  14.4167459016393 11.1221007653061  Z M 19.0437540983607 11.1220765306122  C 18.6261147540984 11.1220765306122  18.2083770491803 10.7151760204082  18.2083770491803 10.2937589285714  C 18.2083770491803 9.88685841836735  18.6246147540984 9.46541709183673  19.0437540983607 9.46541709183673  C 19.6813770491803 9.46541709183673  20.0989918032787 9.87377168367347  20.0989918032787 10.2937589285714  C 20.0989918032787 10.715200255102  19.6813770491803 11.1221007653061  19.0437540983607 11.1221007653061  Z " fill-rule="nonzero" fill="#09bb07" stroke="none" transform="matrix(1 0 0 1 1878 1717 )" />
  </g>
</svg>