<?xml version="1.0" encoding="utf-8"?>
<svg version="1.1" xmlns:xlink="http://www.w3.org/1999/xlink" width="31px" height="31px" xmlns="http://www.w3.org/2000/svg">
  <g transform="matrix(1 0 0 1 -1869 -1805 )">
    <path d="M 26.2425742574257 26.474  C 32.2085396039604 20.448375  32.2123762376238 10.644625  26.2425742574257 4.619  C 20.2766089108911 -1.406625  10.5699257425743 -1.406625  4.6039603960396 4.619  C -1.36200495049505 10.644625  -1.36200495049505 20.448375  4.6039603960396 26.474  C 10.5699257425743 32.499625  20.2766089108911 32.499625  26.2425742574257 26.474  Z M 25.0839108910891 5.78925  C 30.4091584158416 11.171625  30.4129950495049 19.92525  25.0839108910891 25.30375  C 19.7586633663366 30.686125  11.0878712871287 30.686125  5.76262376237624 25.30375  C 0.433539603960395 19.921375  0.433539603960395 11.16775  5.76262376237624 5.78925  C 11.0917079207921 0.410749999999999  19.7586633663366 0.406874999999999  25.0839108910891 5.78925  Z M 22.4443069306931 21.4675  L 16.5819306930693 15.5465  L 22.4443069306931 9.6255  C 22.7627475247525 9.303875  22.7627475247525 8.776875  22.4443069306931 8.45525  C 22.1258663366337 8.133625  21.6040841584158 8.133625  21.2856435643564 8.45525  L 15.4232673267327 14.37625  L 9.56089108910891 8.45525  C 9.24245049504951 8.133625  8.72066831683168 8.133625  8.40222772277228 8.45525  C 8.08378712871287 8.776875  8.08378712871287 9.303875  8.40222772277228 9.6255  L 14.264603960396 15.5465  L 8.40222772277228 21.463625  C 8.08378712871287 21.78525  8.08378712871287 22.31225  8.40222772277228 22.633875  C 8.72066831683168 22.9555  9.24245049504951 22.9555  9.56089108910891 22.633875  L 15.4232673267327 16.71675  L 21.2856435643564 22.63775  C 21.6040841584158 22.959375  22.1258663366337 22.959375  22.4443069306931 22.63775  C 22.7627475247525 22.316125  22.7627475247525 21.789125  22.4443069306931 21.4675  Z " fill-rule="nonzero" fill="#ffffff" stroke="none" transform="matrix(1 0 0 1 1869 1805 )" />
  </g>
</svg>