<?xml version="1.0" encoding="utf-8"?>
<svg version="1.1" xmlns:xlink="http://www.w3.org/1999/xlink" width="29px" height="29px" xmlns="http://www.w3.org/2000/svg">
  <g transform="matrix(1 0 0 1 -1740 -853 )">
    <path d="M 25 25.418896484375  C 25.0294921875 27.06685546875  23.686826171875 28.409521484375  22.0388671875 28  L 3.5966796875 28  C 1.948720703125 28.409521484375  0.6060546875 27.06685546875  1 25.418896484375  L 1 6.976708984375  C 0.6060546875 5.32875  1.948720703125 3.986083984375  3.5966796875 4  L 22.0388671875 4  C 23.686826171875 3.986083984375  25.0294921875 5.32875  25 6.976708984375  L 25 25.418896484375  Z M 22.0388671875 6  L 3.5966796875 6  C 3.0483984375 5.979833984375  2.5998046875 6.428427734375  3 6.976708984375  L 3 25.418896484375  C 2.5998046875 25.967177734375  3.0483984375 26.415771484375  3.5966796875 26  L 22.0388671875 26  C 22.5871484375 26.415771484375  23.0357421875 25.967177734375  23 25.418896484375  L 23 6.976708984375  C 23.0357421875 6.428427734375  22.5871484375 5.979833984375  22.0388671875 6  Z M 14.571650390625 14.901865234375  C 15.5342578125 16.309951171875  15.356689453125 18.210244140625  14.15109375 19.41583984375  L 11.238349609375 22.328583984375  C 10.56857421875 22.998359375  9.6776171875 23.369072265625  8.727470703125 23.369072265625  C 7.77732421875 23.369072265625  6.889482421875 23.001474609375  6.216591796875 22.328583984375  C 5.54681640625 21.65880859375  5.176103515625 20.7678515625  5.176103515625 19.817705078125  C 5.176103515625 18.870673828125  5.543701171875 17.979716796875  6.216591796875 17.306826171875  L 8.609091796875 14.914326171875  C 8.99849609375 14.524921875  9.630888671875 14.524921875  10.02029296875 14.914326171875  C 10.409697265625 15.30373046875  10.409697265625 15.936123046875  10.02029296875 16.32552734375  L 7.62779296875 18.71802734375  C 7.3349609375 19.010859375  7.17296875 19.40337890625  7.17296875 19.817705078125  C 7.17296875 20.23203125  7.3349609375 20.62455078125  7.62779296875 20.9173828125  C 7.920625 21.21021484375  8.31314453125 21.37220703125  8.727470703125 21.37220703125  C 9.141796875 21.37220703125  9.53431640625 21.21021484375  9.8271484375 20.9173828125  L 12.739892578125 18.004638671875  C 13.269482421875 17.475048828125  13.34736328125 16.64328125  12.926806640625 16.029580078125  C 12.615283203125 15.574755859375  12.730546875 14.95482421875  13.18537109375 14.64330078125  C 13.6401953125 14.33177734375  14.260126953125 14.447041015625  14.571650390625 14.901865234375  Z M 20.456328125 12.577900390625  C 20.456328125 13.524931640625  20.085615234375 14.415888671875  19.41583984375 15.0856640625  L 17.02333984375 17.4781640625  C 16.633935546875 17.867568359375  16.00154296875 17.867568359375  15.612138671875 17.4781640625  C 15.222734375 17.088759765625  15.222734375 16.4563671875  15.612138671875 16.066962890625  L 18.004638671875 13.674462890625  C 18.297470703125 13.381630859375  18.459462890625 12.989111328125  18.459462890625 12.57478515625  C 18.459462890625 12.160458984375  18.297470703125 11.767939453125  18.004638671875 11.475107421875  C 17.39716796875 10.86763671875  16.41275390625 10.86763671875  15.805283203125 11.475107421875  L 12.8925390625 14.3878515625  C 12.36294921875 14.91744140625  12.285068359375 15.749208984375  12.705625 16.36291015625  C 13.0171484375 16.817734375  12.901884765625 17.437666015625  12.447060546875 17.749189453125  C 12.27572265625 17.867568359375  12.079462890625 17.923642578125  11.886318359375 17.923642578125  C 11.568564453125 17.923642578125  11.257041015625 17.77099609375  11.063896484375 17.490625  C 10.1012890625 16.0825390625  10.278857421875 14.185361328125  11.484453125 12.979765625  L 14.397197265625 10.067021484375  C 15.780361328125 8.683857421875  18.03267578125 8.683857421875  19.41583984375 10.067021484375  C 20.085615234375 10.736796875  20.456328125 11.62775390625  20.456328125 12.577900390625  Z M 28 3.612255859375  C 28.3939453125 1.964296875  27.051279296875 0.621630859375  25.4033203125 1  L 6.9611328125 1  C 5.313173828125 0.621630859375  3.9705078125 1.964296875  3.9705078125 3.612255859375  L 3.9705078125 3.755556640625  L 5.9642578125 3.755556640625  L 5.9642578125 3.612255859375  C 5.9642578125 3.063974609375  6.4128515625 2.615380859375  6.9611328125 3  L 25.4033203125 3  C 25.9516015625 2.615380859375  26.4001953125 3.063974609375  26 3.612255859375  L 26 22.054443359375  C 26.4001953125 22.602724609375  25.9516015625 23.051318359375  25.4033203125 23.051318359375  L 25.269365234375 23.051318359375  L 25.269365234375 25.045068359375  L 25.4033203125 25.045068359375  C 27.051279296875 25.045068359375  28.3939453125 23.70240234375  28 22.054443359375  L 28 3.612255859375  Z " fill-rule="nonzero" fill="#555555" stroke="none" transform="matrix(1 0 0 1 1740 853 )" />
  </g>
</svg>