<?xml version="1.0" encoding="utf-8"?>
<svg version="1.1" xmlns:xlink="http://www.w3.org/1999/xlink" width="21px" height="21px" xmlns="http://www.w3.org/2000/svg">
  <g transform="matrix(1 0 0 1 -2908 -862 )">
    <path d="M 14.1225 20.409375  L 6.995625 20.409375  C 6.39906838266888 20.4094182993184  5.91343742757203 19.9296383195841  5.90625 19.333125  L 5.90625 10.68375  L 0.931875 10.68375  C 0.655574012969596 10.6836324426604  0.40894231908475 10.5104655086561  0.315 10.250625  C 0.209177779814046 9.99847067602642  0.278108110791075 9.70684235266207  0.485625 9.52875  L 10.5 0.44625  C 10.7535082554665 0.204583196271917  11.1521167445335 0.204583196271915  11.405625 0.44625  L 20.488125 9.515625  C 20.6753098124228 9.71158723116804  20.7316515936923 9.99841811763077  20.6325 10.250625  C 20.5300319976663 10.5001360058128  20.2853269362306 10.661537216547  20.015625 10.6575  L 15.5925 10.6575  L 15.5925 18.913125  C 15.592656259566 18.9218741341783  15.592734394021 18.930624489222  15.592734394021 18.9393750186873  C 15.592734394021 19.7512336009385  14.9345929762722 20.4093750186873  14.122734394021 20.4093750186873  Z M 7.231875 10.014375  L 7.231875 19.096875  L 14.1225 19.096875  C 14.2022361107568 19.096875  14.266875 19.0322361107568  14.266875 18.9525  L 14.266875 10.014375  C 14.2668749868723 9.65180686953331  14.5606881197959 9.35799373660977  14.9231249868723 9.35799373660977  C 14.9275003194344 9.35799373660977  14.9318755425937 9.35803749326123  14.93625 9.358125  L 18.466875 9.358125  L 10.9725 1.86375  L 2.625 9.358125  L 6.5625 9.358125  C 6.56687445740626 9.35803749326123  6.57124968056564 9.35799373660977  6.57562501312768 9.35799373660977  C 6.93806188020414 9.35799373660977  7.23187501312768 9.65180686953331  7.23187501312768 10.0142437366098  Z " fill-rule="nonzero" fill="#323333" stroke="none" transform="matrix(1 0 0 1 2908 862 )" />
  </g>
</svg>