<?xml version="1.0" encoding="utf-8"?>
<svg version="1.1" xmlns:xlink="http://www.w3.org/1999/xlink" width="10px" height="11px" xmlns="http://www.w3.org/2000/svg">
  <g transform="matrix(1 0 0 1 -3 -3 )">
    <path d="M 4.95154639175258 10.97775  L 4.9465206185567 10.97775  C 4.10025773195876 10.97775  2.97564432989691 9.980375  2.53067010309278 9.551  C 1.85592783505155 8.8995  1.24201030927835 8.12625  0.802190721649485 7.37375  C 0.271778350515464 6.466375  0.00283505154639174 5.6265  0.00283505154639174 4.87775  C 0.00283505154639174 4.228625  0.134020618556701 3.598625  0.392654639175258 3.0055  C 0.642396907216495 2.43275  0.999871134020619 1.918375  1.45515463917526 1.47675  C 1.9104381443299 1.035125  2.44059278350515 0.688375000000001  3.03118556701031 0.446125  C 3.64265463917526 0.19525  4.29213917525773 0.068  4.96134020618557 0.068  C 5.6305412371134 0.068  6.28002577319588 0.19525  6.89149484536082 0.446125  C 7.4819587628866 0.688375  8.01224226804124 1.035125  8.46752577319588 1.47675  C 8.92280927835052 1.918375  9.28028350515464 2.432625  9.53002577319588 3.0055  C 9.78865979381443 3.59875  9.91984536082474 4.228625  9.91984536082474 4.87775  C 9.91984536082474 5.511875  9.72835051546392 6.215375  9.35051546391753 6.96875  C 9.02757731958763 7.612625  8.57177835051546 8.28  8.03208762886598 8.898625  C 7.52615979381443 9.478625  6.9791237113402 9.98175  6.45025773195876 10.353625  C 5.8639175257732 10.765875  5.35979381443299 10.97575  4.95154639175258 10.97775  Z M 9.14664948453608 4.87775  C 9.14664948453608 2.63925  7.26907216494845 0.817999999999999  4.96134020618557 0.818  C 2.65360824742268 0.818  0.776030927835052 2.63925  0.776030927835052 4.87775  C 0.776030927835052 6.29575  2.01507731958763 7.995  3.07615979381443 9.01925  C 3.93659793814433 9.849875  4.64806701030928 10.227625  4.94613402061856 10.227625  L 4.94780927835052 10.227625  C 5.39175257731959 10.2255  6.41675257731959 9.58925  7.44188144329897 8.414125  C 8.50927835051546 7.190375  9.14664948453608 5.868375  9.14664948453608 4.87775  Z " fill-rule="nonzero" fill="#ffffff" stroke="none" transform="matrix(1 0 0 1 3 3 )" />
  </g>
</svg>