<?xml version="1.0" encoding="utf-8"?>
<svg version="1.1" xmlns:xlink="http://www.w3.org/1999/xlink" width="4px" height="4px" xmlns="http://www.w3.org/2000/svg">
  <g transform="matrix(1 0 0 1 -6 -6 )">
    <path d="M 3.95729166666667 1.98946808510638  C 3.95729166666667 3.08223404255319  3.08677083333333 3.97127659574468  2.01677083333333 3.97127659574468  C 0.946770833333333 3.97127659574468  0.0763541666666671 3.08223404255319  0.0763541666666671 1.98957446808511  C 0.0763541666666671 0.896808510638297  0.946875 0.00787234042553201  2.01677083333333 0.00787234042553201  C 3.08666666666667 0.00787234042553201  3.95729166666667 0.896808510638298  3.95729166666667 1.98946808510638  Z M 3.33229166666667 1.98946808510638  C 3.33229166666667 1.24872340425532  2.7421875 0.646063829787234  2.01677083333333 0.646063829787234  C 1.29145833333333 0.646063829787234  0.701354166666667 1.24872340425532  0.701354166666667 1.98946808510638  C 0.701354166666667 2.73021276595745  1.29145833333333 3.33287234042553  2.01677083333333 3.33287234042553  C 2.74208333333333 3.33287234042553  3.33229166666667 2.73031914893617  3.33229166666667 1.98946808510638  Z " fill-rule="nonzero" fill="#ffffff" stroke="none" transform="matrix(1 0 0 1 6 6 )" />
  </g>
</svg>