<?xml version="1.0" encoding="utf-8"?>
<svg version="1.1" xmlns:xlink="http://www.w3.org/1999/xlink" width="9px" height="7px" xmlns="http://www.w3.org/2000/svg">
  <g transform="matrix(1 0 0 1 -4 -5 )">
    <path d="M 8.16379841709184 0.108650791666666  C 8.24912528306655 0.00135237767033944  8.4004594882942 -0.0124057890941549  8.50181758163265 0.0779206336805555  L 8.86886463903061 0.40503175173611  C 8.92299594017588 0.453287051126572  8.95424043139699 0.52438171702896  8.95424043139699 0.599298427147323  C 8.95424043139699 0.659268030584002  8.93419463705908 0.717303052796436  8.89765264285714 0.763126984375  L 4.16826322576531 6.70649206597222  C 3.91221239446355 7.0283090178792  3.45821639943568 7.06946921431426  3.15420574362245 6.79842857118055  L 3.13141524107143 6.77734920138889  L 3.10982424107143 6.75525396875  L 0.119950025510204 3.59995238020833  C 0.0260983278148327 3.50098829666954  0.0257761410942275 3.34022605679411  0.119230323979592 3.24084127256944  L 0.457969178571429 2.88096825868055  C 0.502986038839975 2.83312331730886  0.564148803538935 2.80622843148486  0.627938089922319 2.80622843148486  C 0.691492364651897 2.80622843148486  0.752449616153766 2.83292606233858  0.797427734693878 2.88046032118056  L 3.6025789247449 5.84071428645833  L 8.16379841709184 0.108650791666666  Z " fill-rule="nonzero" fill="#ffffff" stroke="none" transform="matrix(1 0 0 1 4 5 )" />
  </g>
</svg>