<?xml version="1.0" encoding="utf-8"?>
<svg version="1.1" xmlns:xlink="http://www.w3.org/1999/xlink" width="11px" height="10px" xmlns="http://www.w3.org/2000/svg">
  <g transform="matrix(1 0 0 1 -3 -3 )">
    <path d="M 9.55039305426357 3.49066666666667  C 8.79688827930062 3.49066666666667  8.18605196899225 4.08762033355894  8.18605196899225 4.824  C 8.18605196899225 5.56037966644106  8.79688827930062 6.15733333333333  9.55039305426357 6.15733333333333  C 10.3038978292265 6.15733333333333  10.9147341395349 5.56037966644106  10.9147341395349 4.824  C 10.9147341395349 4.08762033355894  10.3038978292265 3.49066666666667  9.55039305426357 3.49066666666667  Z M 4.60329227906977 0  C 4.03816369784756 0  3.58003646511628 0.447715250169207  3.58003646511628 1  C 3.58003646511628 1.55228474983079  4.03816369784756 2  4.60329227906977 2  C 5.16842086029197 2  5.62654809302325 1.55228474983079  5.62654809302325 1  C 5.62654809302325 0.447715250169207  5.16842086029197 0  4.60329227906977 0  Z M 0 5.33333333332236  C 0 5.33422222392709  0 5.33511111396099  0 5.336  C 0.0015090526090294 5.79445750241634  0.382228207262207 6.16533333332236  0.851349921674283 6.16533333332236  C 1.32153690125116 6.16533333332236  1.70269875888358 5.79283424518158  1.70269875888358 5.33333333332236  C 1.70269875888358 4.87383242146314  1.32153690125116 4.50133333332236  0.851349921674283 4.50133333332236  C 0.381162942097406 4.50133333332236  0 4.87383242146314  0 5.33333333332236  Z M 4.43411398449612 9.33066666666667  C 4.43261122715489 8.96351865962348  4.1276327801635 8.66666372944741  3.75194344186047 8.66666666666667  C 3.37519651176508 8.66666666664533  3.06977835661089 8.96514350009147  3.06977835661089 9.333333333312  C 3.06977835661089 9.70152316653253  3.37519651176508 9.99999999997867  3.75194889924655 9.99999999997867  C 4.12870128672802 9.99999999997867  4.43411944188221 9.70152316653253  4.43411944188221 9.333333333312  C 4.43411944188221 9.33244444176353  4.43411762274988 9.33155555110398  4.43411398449612 9.33066666666667  Z M 9.5533445091973 8.16  C 9.5533445091973 8.56134001993016  9.38804135232991 8.94578716318457  9.09470313178294 9.22666666666666  C 8.80703447943763 9.50512182807271  8.41851161715456 9.66133333333333  8.01361798897854 9.66133333333333  C 7.16517161237026 9.66133333333333  6.47736992696303 8.98916350441263  6.47736992696303 8.16  C 6.47736992696303 7.33083649558737  7.16517161237026 6.65866666666667  8.01361798897854 6.65866666666667  C 8.41851161715456 6.65866666666667  8.80703447943763 6.81487817192729  9.09470313178294 7.09333333333333  C 9.38804135232991 7.37421283681543  9.5533445091973 7.75865998006984  9.5533445091973 8.16  Z M 9.1972746345598 1.85733333333333  C 9.1972746345598 2.1720620155911  9.06905299062869 2.47383991645925  8.84093568992248 2.696  C 8.61317416734682 2.91728874352481  8.30529522750949 3.04185759657133  7.98412948837209 3.04266666666667  C 7.66254609239684 3.04391424573908  7.35389265807866 2.91903202962453  7.1273232868217 2.696  C 6.89920598611549 2.47383991645925  6.77098434218439 2.1720620155911  6.77098434218439 1.85733333333333  C 6.77098434218439 1.54260465107557  6.89920598611549 1.24082675020742  7.1273232868217 1.01866666666667  C 7.35454003641411 0.796550847105995  7.66275082958545 0.671762174293418  7.98412948837209 0.671762174293418  C 8.30550814715874 0.671762174293418  8.61371894033007 0.796550847105995  8.84093568992248 1.01866666666667  C 9.06905299062869 1.24082675020742  9.1972746345598 1.54260465107557  9.1972746345598 1.85733333333333  Z M 2.90335276398185 2.42266666666667  C 2.90335276398185 2.66629237353759  2.80418703006682 2.89991158444199  2.6277263875969 3.072  C 2.45174924083542 3.24361689959144  2.21329446892072 3.34  1.96468609731518 3.34  C 1.44627481214068 3.34  1.02601943064851 2.92929587717811  1.02601943064851 2.42266666666667  C 1.02601943064851 1.91603745615522  1.44627481214068 1.50533333333333  1.96468609731518 1.50533333333333  C 2.21329446892072 1.50533333333333  2.45174924083542 1.60171643374189  2.6277263875969 1.77333333333333  C 2.80418703006682 1.94542174889135  2.90335276398185 2.17904095979574  2.90335276398185 2.42266666666667  Z M 2.55460508657607 7.7519969944182  C 2.55460508657607 7.94961337563006  2.47500823761578 8.13928781989233  2.33302871317829 8.28  C 2.18772110332776 8.42033916201094  1.99158621680298 8.49892684495257  1.78729227906977 8.49866666666667  C 1.3638226278571 8.49866666666667  1.02053262146379 8.16317870587321  1.02053262146379 7.74933333333333  C 1.02053262146379 7.33548796079346  1.3638226278571 7  1.78729231138627 7  C 2.21141791358352 7.00117187680039  2.55460508657607 7.33750892225125  2.55460508657607 7.7519969944182  Z " fill-rule="nonzero" fill="#ffffff" stroke="none" transform="matrix(1 0 0 1 3 3 )" />
  </g>
</svg>