<?xml version="1.0" encoding="utf-8"?>
<svg version="1.1" xmlns:xlink="http://www.w3.org/1999/xlink" width="19px" height="19px" xmlns="http://www.w3.org/2000/svg">
  <g transform="matrix(1 0 0 1 -2513 -364 )">
    <path d="M 19 9.5  C 19 14.7465333333333  14.7465333333333 19  9.5 19  C 4.25346666666667 19  0 14.7465333333333  0 9.5  C 0 4.25346666666667  4.25346666666667 0  9.5 0  C 14.7465333333333 0  19 4.25346666666667  19 9.5  Z M 1.26666666666667 9.5  C 1.26666666666667 14.0473333333333  4.95266666666667 17.7333333333333  9.5 17.7333333333333  C 14.0473333333333 17.7333333333333  17.7333333333333 14.0473333333333  17.7333333333333 9.5  C 17.7333333333333 4.95266666666667  14.0473333333333 1.26666666666667  9.5 1.26666666666667  C 4.95266666666667 1.26666666666667  1.26666666666667 4.95266666666667  1.26666666666667 9.5  Z " fill-rule="nonzero" fill="#94ccf4" stroke="none" transform="matrix(1 0 0 1 2513 364 )" />
  </g>
</svg>