<?xml version="1.0" encoding="utf-8"?>
<svg version="1.1" xmlns:xlink="http://www.w3.org/1999/xlink" width="19px" height="9px" xmlns="http://www.w3.org/2000/svg">
  <g transform="matrix(1 0 0 1 -1645 -582 )">
    <path d="M 7.27428582186158 3.6875673822385  L 1.62857136133651 3.6875673822385  L 1.62857136133651 4.39783782981276  L 7.27428582186158 4.39783782981276  L 7.27428582186158 3.6875673822385  Z M 7.79740286023 3.6875673822385  C 7.79740286023 3.6875673822385  7.02753212891298 3.6875673822385  7.02753212891298 3.6875673822385  C 7.02753212891298 3.6875673822385  7.02753212891298 3.82378345450495  7.02753212891298 3.82378345450495  C 6.89922034036014 6.71351314611557  6.75116843050985 7.82270229401951  6.484674851586 8.08540498007646  C 6.38597365679321 8.19243200273828  6.26753222304186 8.21189156487011  6.07012983345628 8.21189156487011  C 5.83324684829248 8.21189156487011  5.22129861694944 8.20216213539102  4.56987026067261 8.14378376071169  C 4.70805205104362 8.35783780603535  4.80675289285309 8.65945955836223  4.81662348297679 8.88324336662876  C 5.43844124549358 8.91243253947  6.06025994929921 8.9221616354853  6.38597412743763 8.89297239015194  C 6.73142889751792 8.8637832173107  6.94857105541764 8.79567568862238  7.14597403330874 8.55243244146064  C 7.50129880520721 8.18270275448951  7.63948036025601 7.05405402270611  7.77766215062702 4.03783797827664  C 7.7875321524452 3.9405404938321  7.79740286023 3.6875673822385  7.79740286023 3.6875673822385  Z M 3.76051928676067 0.428107887669343  C 3.76051928676067 0.428107887669343  2.98077890660879 0.204323992412259  2.98077890660879 0.204323992412259  C 2.35896084993924 1.7027026431416  1.26337658761987 3.04540514477857  0 3.88216177119056  C 0.187532446597959 4.01837795944441  0.503376622918204 4.30053999740601  0.641558413289215 4.45621568254876  C 1.88519476195053 3.52216186166074  3.04987003711651 2.07243233011273  3.76051928676067 0.428107887669343  Z M 9.41610292547618 3.7167563086065  C 8.34025860796261 2.96756727321034  7.06701295981341 1.48864846733212  6.42545460535474 0.184864785491862  C 6.42545460535474 0.184864785491862  5.71480506155781 0.467026765459755  5.71480506155781 0.467026765459755  C 6.45506519911479 1.91675681895108  7.69870037116505 3.49297235535572  8.79428469231497 4.36864797554552  C 8.94233648450416 4.16432369316475  9.21869994758507 3.87243199374926  9.41610292547618 3.7167563086065  Z M 4.50077918899544 3.88216177119056  C 4.50077918899544 3.88216177119056  3.71116868936428 3.88216177119056  3.71116868936428 3.88216177119056  C 3.51376600562593 5.72108060258601  3.11896110879367 7.52108067217846  0.532986981356041 8.36756707603175  C 0.700779144872527 8.52324274667608  0.917921935200685 8.81513514201601  1.0067531281753 9  C 3.76051928676067 8.02702712734046  4.27376620564981 6.01297241798892  4.50077918899544 3.88216177119056  Z M 19 6.4410812335575  L 10.1859727155044 6.4410812335575  L 10.1859727155044 7.08324318104892  L 19 7.08324318104892  L 19 6.4410812335575  Z M 14.9433754816055 0  L 14.1735047502885 0  L 14.1735047502885 1.23567529774482  L 14.9433754816055 1.23567529774482  L 14.9433754816055 0  Z M 17.3418180449034 4.67026997434565  L 11.113764417201 4.67026997434565  L 11.113764417201 5.26378309262424  L 17.3418180449034 5.26378309262424  L 17.3418180449034 4.67026997434565  Z M 14.9532448951181 5.86702616232525  L 14.1833751050899 5.86702616232525  C 14.1833751050899 5.86702616232525  14.1833751050899 8.19243258992452  14.1833751050899 8.19243258992452  C 14.1833751050899 8.33837852662282  14.1241543293837 8.37729724855516  13.9464922375872 8.38702697887658  C 13.7786998534562 8.38702697887658  13.097661079911 8.39675648809701  12.426492425845 8.37729702745417  C 12.5251936206378 8.5524321369937  12.6436344660836 8.79567523917118  12.6831150616619 8.98054009715517  C 13.5714266972553 8.98054009715517  14.1438940976979 8.98053998116777  14.4893485736254 8.89297239015194  C 14.8348033437057 8.79567512318378  14.9532448951181 8.6205402166222  14.9532448951181 8.21189156487011  C 14.9532448951181 8.21189156487011  14.9532448951181 5.86702616232525  14.9532448951181 5.86702616232525  Z M 17.3714272267302 4.67026997434565  L 17.1740257784335 4.67026997434565  C 17.1740257784335 4.67026997434565  17.1740257784335 4.81621553408488  17.1740257784335 4.81621553408488  C 16.5522080159167 5.22486438881494  15.3480506155781 5.68216186977986  14.3215572484443 5.9351348943829  C 14.430128739208 6.03243208885893  14.6077910663267 6.22702708674487  14.6966222593013 6.35351352655426  C 15.861297181484 6.07135140160211  17.1444145963679 5.58486482028808  18.0327259378086 5.03999977730418  C 18.0327259378086 5.03999977730418  17.5392194932002 4.64108104797765  17.5392194932002 4.64108104797765  L 17.3714272267302 4.67026997434565  Z M 12.2587001593751 3.53189140712724  L 12.2587001593751 2.65621619289334  L 16.9272725561293 2.65621619289334  L 16.9272725561293 3.53189140712724  L 12.2587001593751 3.53189140712724  Z M 17.6971432874463 2.11135120790314  L 11.528310847264 2.11135120790314  L 11.528310847264 4.07675592816781  L 17.6971432874463 4.07675592816781  L 17.6971432874463 2.11135120790314  Z M 18.8716872701583 0.856216007313496  L 10.2748040261401 0.856216007313496  L 10.2748040261401 1.48864846733212  L 18.8716872701583 1.48864846733212  L 18.8716872701583 0.856216007313496  Z " fill-rule="nonzero" fill="#ffffff" stroke="none" transform="matrix(1 0 0 1 1645 582 )" />
  </g>
</svg>