<?xml version="1.0" encoding="utf-8"?>
<svg version="1.1" xmlns:xlink="http://www.w3.org/1999/xlink" width="24px" height="8px" xmlns="http://www.w3.org/2000/svg">
  <g transform="matrix(1 0 0 1 -21 -4 )">
    <path d="M 1.0802514259639 2.030237791197  L 0.435450176892286 2.030237791197  C 0.435450176892286 2.030237791197  0.435450176892286 6.36717094740141  0.435450176892286 6.36717094740141  C 0.435450176892286 7.44708459490771  0.862526337517758 7.69762414780166  2.22749514843956 7.69762414780166  C 2.53733466538652 7.69762414780166  5.03279816798689 7.69762414780166  5.37613391637835 7.69762414780166  C 6.75785084302241 7.69762414780166  7.02582019544668 7.23110148778165  7.19330085353745 5.63282939589386  C 7.00069789708037 5.59827209188779  6.72435511070964 5.48596132589905  6.54850051954067 5.36501101934924  C 6.43963789212898 6.76457908523309  6.29727853414105 7.05831565434182  5.37613391637835 7.05831565434182  C 4.81507341229523 7.05831565434182  2.62944884432148 7.05831565434182  2.18562465116238 7.05831565434182  C 1.26448028296554 7.05831565434182  1.0802514259639 6.92872615052622  1.0802514259639 6.38444968522827  C 1.0802514259639 6.38444968522827  1.0802514259639 2.030237791197  1.0802514259639 2.030237791197  Z M 5.72784409697974 3.44708416578862  L 0.787159775173321 3.44708416578862  L 0.787159775173321 4.09503271475244  L 5.72784409697974 4.09503271475244  L 5.72784409697974 3.44708416578862  Z M 6.12142410934934 0.535637439679802  L 0 0.535637439679802  L 0 1.17494627643492  L 5.47662310984359 1.17494627643492  L 5.47662310984359 4.51835904514822  L 6.12142410934934 4.51835904514822  L 6.12142410934934 0.535637439679802  Z M 14.0516417219113 2.5053996484828  L 9.49616223156695 2.5053996484828  L 9.49616223156695 3.09287278670026  L 14.0516417219113 3.09287278670026  L 14.0516417219113 2.5053996484828  Z M 15.4919761801027 4.09503271475244  L 8.06420120732202 4.09503271475244  L 8.06420120732202 4.70842378806254  L 15.4919761801027 4.70842378806254  L 15.4919761801027 4.09503271475244  Z M 10.9364973552673 4.51835904514822  C 10.9364973552673 4.51835904514822  10.2665740573953 4.51835904514822  10.2665740573953 4.51835904514822  C 10.1242154481049 5.92656639412169  9.76413158399123 6.9200863524937  7.87997235032038 7.40388766451675  C 8.01395699533678 7.53347727561212  8.18143772621759 7.79265696983387  8.24843006432366 7.95680384202341  C 10.2916961893843 7.36933083254168  10.7606425145325 6.20302431122738  10.9364973552673 4.51835904514822  Z M 13.013260044527 4.46652283166765  L 12.3852072439321 4.46652283166765  C 12.3852072439321 4.46652283166765  12.3852072439321 6.90280770049066  12.3852072439321 6.90280770049066  C 12.3852072439321 7.59395240743107  12.5861842998446 7.79265651925882  13.3565961256729 7.79265651925882  C 13.5240767837637 7.79265651925882  14.4870917324263 7.79265651925882  14.6545728896489 7.79265651925882  C 15.3244960211437 7.79265651925882  15.5087247117681 7.49028135365104  15.5757171746571 6.30669605159797  C 15.4082360174346 6.25486022432458  15.1402668313875 6.15118814065872  15.0062824047413 6.04751635737622  C 14.981160106375 7.04103691651497  14.9225422420731 7.19654487036613  14.6043282929162 7.19654487036613  C 14.3866035372246 7.19654487036613  13.5910695794072 7.19654487036613  13.4235889213164 7.19654487036613  C 13.0718792398468 7.19654487036613  13.013260044527 7.15334828327044  13.013260044527 6.89416901816779  C 13.013260044527 6.89416901816779  13.013260044527 4.46652283166765  13.013260044527 4.46652283166765  Z M 12.0921157595188 0  L 11.4305665611022 0  L 11.4305665611022 1.37365038826267  L 12.0921157595188 1.37365038826267  L 12.0921157595188 0  Z M 15.2993738891546 0.924405951126596  L 8.2568041637791 0.924405951126596  L 8.2568041637791 2.75593928720057  L 8.89323106382941 2.75593928720057  L 8.89323106382941 1.53779719608434  L 14.637824690738 1.53779719608434  L 14.637824690738 2.75593928720057  L 15.2993738891546 2.75593928720057  L 15.2993738891546 0.924405951126596  Z M 19.4780195695133 3.23110131613401  L 17.3928841118162 3.23110131613401  L 17.3928841118162 3.83585302053069  L 19.4780195695133 3.83585302053069  L 19.4780195695133 3.23110131613401  Z M 19.8381038495701 3.23110131613401  C 19.8381038495701 3.23110131613401  19.2267992478861 3.23110131613401  19.2267992478861 3.23110131613401  C 19.2267992478861 3.23110131613401  19.2267992478861 3.34341242541803  19.2267992478861 3.34341242541803  C 19.2016769495198 5.20950306549808  19.1598061194881 5.85745195775717  19.0341956259201 6.01295956831306  C 18.9755773456751 6.090713373591  18.8918370998184 6.09935257085679  18.7746005393285 6.09935257085679  C 18.6322419300381 6.09935257085679  18.263784507195 6.09935239920915  17.886952652142 6.06479509520307  C 17.9790670390485 6.22894196739261  18.0460587532399 6.47948201377352  18.0628067441792 6.66954679959975  C 18.4731349554597 6.68682538723493  18.8499670184843 6.69546471323644  19.0676920237418 6.66954679959975  C 19.3021653942874 6.64362888596306  19.4361495713679 6.58315338939288  19.5701339980141 6.42764584320486  C 19.7459890883148 6.18574523010524  19.7962336850474 5.46004356245404  19.8381038495701 3.50755974818262  C 19.8381038495701 3.42116674563888  19.8381038495701 3.23110131613401  19.8381038495701 3.23110131613401  Z M 21.9651091390355 0.0259181067402852  C 21.9651091390355 0.0259181067402852  21.5882793221037 0.431965527661575  21.5882793221037 0.431965527661575  C 22.115844093874 0.717062642033056  22.7606422649666 1.15766736696042  23.0788557149918 1.4600433908064  C 23.0788557149918 1.4600433908064  23.4724350618524 1.01943866587903  23.4724350618524 1.01943866587903  C 23.1458476787491 0.717062642033056  22.4842999777276 0.302376023845976  21.9651091390355 0.0259181067402852  Z M 23.4138170311733 2.92872615052622  C 23.4138170311733 2.92872615052622  22.7857655615964 2.7732183683227  22.7857655615964 2.7732183683227  C 22.1577125946243 4.85529168640972  20.9769730566472 6.43628555541356  19.2770425136008 7.36933087545359  C 19.4110271898129 7.49892050800492  19.6455001444154 7.76673862707808  19.7376146561049 7.89632825962941  C 21.4542930653077 6.85097183030537  22.7020232360241 5.18358564534834  23.4138170311733 2.92872615052622  Z M 23.924635101428 1.4600433908064  L 17.4431273775308 1.4600433908064  L 17.4431273775308 2.09935205591387  L 23.924635101428 2.09935205591387  L 23.924635101428 1.4600433908064  Z M 17.694349030176 1.4600433908064  L 17.0411732657058 1.4600433908064  C 17.0411732657058 1.4600433908064  17.0411732657058 3.88768923401126  17.0411732657058 3.88768923401126  C 17.0411732657058 5.01943875170285  16.9658068281443 6.50539999177808  16.2707614398775 7.56803498728134  C 16.4214941694204 7.64578879255928  16.6894638130048 7.87041036744867  16.7983263780251 8  C 17.5603641043979 6.86825048230841  17.694349030176 5.12311040624962  17.694349030176 3.89632860292469  C 17.694349030176 3.89632860292469  17.694349030176 1.4600433908064  17.694349030176 1.4600433908064  Z M 21.1695756803498 0.00863919726579044  C 21.1695756803498 0.00863919726579044  20.5164012468976 0.00863919726579044  20.5164012468976 0.00863919726579044  C 20.5498974783421 4.14686806999482  21.3035586096009 7.87905020839311  23.0118629193483 7.87905020839311  C 23.6482903185303 7.87905020839311  23.8827634395101 7.45572387799732  24 5.97840209265934  C 23.8325193419092 5.91792681064871  23.5980470528157 5.7710583115348  23.4556881939595 5.62419002698043  C 23.4054440963586 6.77321811085125  23.2965819680786 7.22246229051586  23.0621088470989 7.22246229051586  C 21.9734830721137 7.22246229051586  21.1528273150617 3.98272143382078  21.1695756803498 0.00863919726579044  Z " fill-rule="nonzero" fill="#6bc48e" stroke="none" transform="matrix(1 0 0 1 21 4 )" />
  </g>
</svg>