<?xml version="1.0" encoding="utf-8"?>
<svg version="1.1" xmlns:xlink="http://www.w3.org/1999/xlink" width="12px" height="12px" viewBox="165 2929  12 12" xmlns="http://www.w3.org/2000/svg">
  <path d="M 171 2929  C 174.36 2929  177 2931.64  177 2935  C 177 2938.36  174.36 2941  171 2941  C 167.64 2941  165 2938.36  165 2935  C 165 2931.64  167.64 2929  171 2929  Z " fill-rule="nonzero" fill="#ffffff" stroke="none" />
  <path d="M 171 2929.5  C 174.08 2929.5  176.5 2931.92  176.5 2935  C 176.5 2938.08  174.08 2940.5  171 2940.5  C 167.92 2940.5  165.5 2938.08  165.5 2935  C 165.5 2931.92  167.92 2929.5  171 2929.5  Z " stroke-width="1" stroke="#797979" fill="none" />
  <path d="M 171 2938  C 169.32 2938  168 2936.68  168 2935  C 168 2933.32  169.32 2932  171 2932  C 172.68 2932  174 2933.32  174 2935  C 174 2936.68  172.68 2938  171 2938  " fill-rule="nonzero" fill="#797979" stroke="none" />
</svg>