<?xml version="1.0" encoding="utf-8"?>
<svg version="1.1" xmlns:xlink="http://www.w3.org/1999/xlink" width="12px" height="12px" viewBox="1221 2261  12 12" xmlns="http://www.w3.org/2000/svg">
  <path d="M 1227 2261  C 1230.36 2261  1233 2263.64  1233 2267  C 1233 2270.36  1230.36 2273  1227 2273  C 1223.64 2273  1221 2270.36  1221 2267  C 1221 2263.64  1223.64 2261  1227 2261  Z " fill-rule="nonzero" fill="#ffffff" stroke="none" />
  <path d="M 1227 2261.5  C 1230.08 2261.5  1232.5 2263.92  1232.5 2267  C 1232.5 2270.08  1230.08 2272.5  1227 2272.5  C 1223.92 2272.5  1221.5 2270.08  1221.5 2267  C 1221.5 2263.92  1223.92 2261.5  1227 2261.5  Z " stroke-width="1" stroke="#797979" fill="none" />
  <path d="M 1227 2270  C 1225.32 2270  1224 2268.68  1224 2267  C 1224 2265.32  1225.32 2264  1227 2264  C 1228.68 2264  1230 2265.32  1230 2267  C 1230 2268.68  1228.68 2270  1227 2270  " fill-rule="nonzero" fill="#797979" stroke="none" />
</svg>