<?xml version="1.0" encoding="utf-8"?>
<svg version="1.1" xmlns:xlink="http://www.w3.org/1999/xlink" width="12px" height="12px" viewBox="1285 2173  12 12" xmlns="http://www.w3.org/2000/svg">
  <path d="M 1291 2173  C 1294.36 2173  1297 2175.64  1297 2179  C 1297 2182.36  1294.36 2185  1291 2185  C 1287.64 2185  1285 2182.36  1285 2179  C 1285 2175.64  1287.64 2173  1291 2173  Z " fill-rule="nonzero" fill="#ffffff" stroke="none" />
  <path d="M 1291 2173.5  C 1294.08 2173.5  1296.5 2175.92  1296.5 2179  C 1296.5 2182.08  1294.08 2184.5  1291 2184.5  C 1287.92 2184.5  1285.5 2182.08  1285.5 2179  C 1285.5 2175.92  1287.92 2173.5  1291 2173.5  Z " stroke-width="1" stroke="#797979" fill="none" />
  <path d="M 1291 2182  C 1289.32 2182  1288 2180.68  1288 2179  C 1288 2177.32  1289.32 2176  1291 2176  C 1292.68 2176  1294 2177.32  1294 2179  C 1294 2180.68  1292.68 2182  1291 2182  " fill-rule="nonzero" fill="#797979" stroke="none" />
</svg>