<?xml version="1.0" encoding="utf-8"?>
<svg version="1.1" xmlns:xlink="http://www.w3.org/1999/xlink" width="12px" height="12px" viewBox="229 2929  12 12" xmlns="http://www.w3.org/2000/svg">
  <path d="M 235 2929  C 238.36 2929  241 2931.64  241 2935  C 241 2938.36  238.36 2941  235 2941  C 231.64 2941  229 2938.36  229 2935  C 229 2931.64  231.64 2929  235 2929  Z " fill-rule="nonzero" fill="#ffffff" stroke="none" />
  <path d="M 235 2929.5  C 238.08 2929.5  240.5 2931.92  240.5 2935  C 240.5 2938.08  238.08 2940.5  235 2940.5  C 231.92 2940.5  229.5 2938.08  229.5 2935  C 229.5 2931.92  231.92 2929.5  235 2929.5  Z " stroke-width="1" stroke="#797979" fill="none" />
  <path d="M 235 2938  C 233.32 2938  232 2936.68  232 2935  C 232 2933.32  233.32 2932  235 2932  C 236.68 2932  238 2933.32  238 2935  C 238 2936.68  236.68 2938  235 2938  " fill-rule="nonzero" fill="#797979" stroke="none" />
</svg>