<?xml version="1.0" encoding="utf-8"?>
<svg version="1.1" xmlns:xlink="http://www.w3.org/1999/xlink" width="12px" height="12px" viewBox="229 2885  12 12" xmlns="http://www.w3.org/2000/svg">
  <path d="M 235 2885  C 238.36 2885  241 2887.64  241 2891  C 241 2894.36  238.36 2897  235 2897  C 231.64 2897  229 2894.36  229 2891  C 229 2887.64  231.64 2885  235 2885  Z " fill-rule="nonzero" fill="#ffffff" stroke="none" />
  <path d="M 235 2885.5  C 238.08 2885.5  240.5 2887.92  240.5 2891  C 240.5 2894.08  238.08 2896.5  235 2896.5  C 231.92 2896.5  229.5 2894.08  229.5 2891  C 229.5 2887.92  231.92 2885.5  235 2885.5  Z " stroke-width="1" stroke="#797979" fill="none" />
  <path d="M 235 2894  C 233.32 2894  232 2892.68  232 2891  C 232 2889.32  233.32 2888  235 2888  C 236.68 2888  238 2889.32  238 2891  C 238 2892.68  236.68 2894  235 2894  " fill-rule="nonzero" fill="#797979" stroke="none" />
</svg>