<?xml version="1.0" encoding="utf-8"?>
<svg version="1.1" xmlns:xlink="http://www.w3.org/1999/xlink" width="12px" height="12px" viewBox="165 2885  12 12" xmlns="http://www.w3.org/2000/svg">
  <path d="M 171 2885  C 174.36 2885  177 2887.64  177 2891  C 177 2894.36  174.36 2897  171 2897  C 167.64 2897  165 2894.36  165 2891  C 165 2887.64  167.64 2885  171 2885  Z " fill-rule="nonzero" fill="#ffffff" stroke="none" />
  <path d="M 171 2885.5  C 174.08 2885.5  176.5 2887.92  176.5 2891  C 176.5 2894.08  174.08 2896.5  171 2896.5  C 167.92 2896.5  165.5 2894.08  165.5 2891  C 165.5 2887.92  167.92 2885.5  171 2885.5  Z " stroke-width="1" stroke="#797979" fill="none" />
  <path d="M 171 2894  C 169.32 2894  168 2892.68  168 2891  C 168 2889.32  169.32 2888  171 2888  C 172.68 2888  174 2889.32  174 2891  C 174 2892.68  172.68 2894  171 2894  " fill-rule="nonzero" fill="#797979" stroke="none" />
</svg>