<?xml version="1.0" encoding="utf-8"?>
<svg version="1.1" xmlns:xlink="http://www.w3.org/1999/xlink" width="12px" height="12px" viewBox="-301 968  12 12" xmlns="http://www.w3.org/2000/svg">
  <path d="M -295 968  C -291.64 968  -289 970.64  -289 974  C -289 977.36  -291.64 980  -295 980  C -298.36 980  -301 977.36  -301 974  C -301 970.64  -298.36 968  -295 968  Z " fill-rule="nonzero" fill="#ffffff" stroke="none" />
  <path d="M -295 968.5  C -291.92 968.5  -289.5 970.92  -289.5 974  C -289.5 977.08  -291.92 979.5  -295 979.5  C -298.08 979.5  -300.5 977.08  -300.5 974  C -300.5 970.92  -298.08 968.5  -295 968.5  Z " stroke-width="1" stroke="#797979" fill="none" />
  <path d="M -295 977  C -296.68 977  -298 975.68  -298 974  C -298 972.32  -296.68 971  -295 971  C -293.32 971  -292 972.32  -292 974  C -292 975.68  -293.32 977  -295 977  " fill-rule="nonzero" fill="#797979" stroke="none" />
</svg>