<?xml version="1.0" encoding="utf-8"?>
<svg version="1.1" xmlns:xlink="http://www.w3.org/1999/xlink" width="14px" height="7px" xmlns="http://www.w3.org/2000/svg">
  <g transform="matrix(1 0 0 1 -920 -592 )">
    <path d="M 10.4350972466264 2.62169156210937  C 10.4350972466264 1.61982091386719  11.2261510578835 0.807960212500001  12.2017186745384 0.807960212500001  C 13.1772862911932 0.807960212500001  13.9683401024503 1.61982091386719  13.9683401024503 2.62169156210938  L 13.9683401024503 4.17631842714844  C 13.9683401024503 5.17818907539063  13.1772862911932 5.99004977675782  12.2017186745384 5.990049734375  C 11.2261510578835 5.99004969199219  10.4350972466264 5.17818903300781  10.4350972466264 4.17631842714844  L 10.4350972466264 2.62169156210937  Z M 0.424242411399146 2.62169156210937  C 0.424242411399146 1.61982091386719  1.21529626118608 0.807960212500001  2.19086387784091 0.807960212500001  C 3.16643149449574 0.807960212500001  3.95748530575284 1.61982091386719  3.95748530575284 2.62169156210938  L 3.95748530575284 4.17631842714844  C 3.95748530575284 5.17818907539063  3.16643149449574 5.99004977675782  2.19086387784091 5.990049734375  C 1.21529626118608 5.99004969199219  0.424242449928975 5.17818903300781  0.424242411399146 4.17631842714844  L 0.424242411399146 2.62169156210937  Z " fill-rule="nonzero" fill="#514141" stroke="none" transform="matrix(1 0 0 1 920 592 )" />
  </g>
</svg>