<?xml version="1.0" encoding="utf-8"?>
<svg version="1.1" xmlns:xlink="http://www.w3.org/1999/xlink" width="19px" height="8px" xmlns="http://www.w3.org/2000/svg">
  <g transform="matrix(1 0 0 1 -919 -585 )">
    <path d="M 5.38643246226283 5.94036483984375  L 5.43185288337054 5.97059371484375  L 5.45885394824219 5.98889554166667  C 5.48187811272322 6.00226203125  5.50385570933315 6.01686238541667  5.52478677915737 6.032902140625  C 5.77554087486049 6.22373462890625  5.78140158098494 6.528902140625  5.53776404820034 6.71438805729167  C 5.30061512939453 6.89493863671875  4.91443713148717 6.89534991145833  4.66284575683594 6.71911773697917  L 4.64254263595145 6.70451742317708  L 4.64044954129464 6.70616252213541  C 3.64454976248605 6.01727361979166  2.13081557177735 6.01480597135417  1.18368516552735 6.71089220182292  L 1.1524978702567 6.73412936588542  C 0.908860337472098 6.91961528255208  0.508239883719308 6.91509122005209  0.257276458007813 6.72425869140625  C 0.0132203062918528 6.5383615  0.00128960511997673 6.24409286979166  0.225670584891184 6.05757878645833  L 0.244508518973215 6.04277281510417  C 1.63391222970145 4.98496849348958  3.87562864515904 4.956590375  5.38643246226283 5.94036483984375  Z M 17.3171360992606 5.94036483984375  L 17.3625565203683 5.97059371484375  L 17.38955758524 5.98889554166667  C 17.412581749721 6.00226203125  17.4345593463309 6.01686238541667  17.4554904161551 6.032902140625  C 17.7062445118583 6.22373462890625  17.7121052179827 6.528902140625  17.4684676441127 6.71438805729167  C 17.2313187253069 6.89493863671875  16.8451407273996 6.89534991145833  16.5935493938337 6.71911773697917  L 16.5732462729492 6.70451742317708  L 16.5711531782924 6.70616252213541  C 15.5752533994838 6.01727361979166  14.0615192087751 6.01480597135417  13.1143887614397 6.71089220182292  L 13.0832015072545 6.73412936588542  C 12.8395639744699 6.91961528255208  12.4389435207171 6.91509122005209  12.1879800950056 6.72425869140625  C 11.9439239432896 6.5383615  11.9319932421177 6.24409286979166  12.1563741808036 6.05757878645833  L 12.175212155971 6.04277281510417  C 13.5646158666992 4.98496849348958  15.8063322821568 4.956590375  17.3171360992606 5.94036483984375  Z M 5.38643246226283 2.2121393046875  L 5.43185288337054 2.249771125  L 5.45885394824219 2.27239135677083  C 5.48187811272322 2.28925370182292  5.50385570933315 2.30755552864583  5.52478677915737 2.32770811197917  C 5.77554087486049 2.56624875260417  5.78140158098494 2.94770811197917  5.53776404820034 3.17946269921875  C 5.30061512939453 3.4052537421875  4.91443713148717 3.40587067447917  4.66284575683594 3.18563186067708  L 4.64254263595145 3.16712437630208  L 4.64044954129464 3.16918075  C 3.64454976248605 2.30796680338542  2.13081557177735 2.30488222265625  1.18368516552735 3.17514429427083  L 1.1524978702567 3.2041393046875  C 0.908860337472098 3.4358938515625  0.508239883719308 3.43034162239583  0.257276458007813 3.19180098177083  C 0.0132203062918528 2.95942950260416  0.00128960511997673 2.59174790755208  0.225670584891184 2.35855387890625  L 0.244508518973215 2.34004643489583  C 1.63391222970145 1.01779104296875  3.87562864515904 0.982421213541665  5.38643246226283 2.2121393046875  Z M 17.1078255242746 2.2121393046875  L 17.1532459042969 2.249771125  L 17.1802469691685 2.27239135677083  C 17.2032711336496 2.28925370182292  17.2252487302595 2.30755552864583  17.2461798000837 2.32770811197917  C 17.4969338957868 2.56624875260417  17.5027946019113 2.94770811197917  17.2591570691267 3.17946269921875  C 17.0220081503209 3.4052537421875  16.6358301524135 3.40587067447917  16.3842388188477 3.18563186067708  L 16.3639356979632 3.16712437630208  L 16.361842562221 3.16918075  C 15.3659427834124 2.30796680338542  13.8522085927037 2.30488222265625  12.9050781864537 3.17514429427083  L 12.873890891183 3.2041393046875  C 12.6302533583984 3.4358938515625  12.2296329046456 3.43034162239583  11.9786695200195 3.19180098177083  C 11.7346133683036 2.95942950260416  11.7226826671317 2.59174790755208  11.9470636058175 2.35855387890625  L 11.9659015809849 2.34004643489583  C 13.3553052917132 1.01779104296875  15.5970217071708 0.982421213541665  17.1078255242746 2.2121393046875  Z " fill-rule="nonzero" fill="#4d4132" stroke="none" transform="matrix(1 0 0 1 919 585 )" />
  </g>
</svg>