<?xml version="1.0" encoding="utf-8"?>
<svg version="1.1" xmlns:xlink="http://www.w3.org/1999/xlink" width="46px" height="46px" xmlns="http://www.w3.org/2000/svg">
  <g transform="matrix(1 0 0 1 -486 -1226 )">
    <path d="M 509 1226  C 521.88 1226  532 1236.12  532 1249  C 532 1261.88  521.88 1272  509 1272  C 496.12 1272  486 1261.88  486 1249  C 486 1236.12  496.12 1226  509 1226  Z " fill-rule="nonzero" fill="#fdfdfd" stroke="none" />
    <path d="M 509 1226.5  C 521.6 1226.5  531.5 1236.4  531.5 1249  C 531.5 1261.6  521.6 1271.5  509 1271.5  C 496.4 1271.5  486.5 1261.6  486.5 1249  C 486.5 1236.4  496.4 1226.5  509 1226.5  Z " stroke-width="1" stroke="#f1f1f4" fill="none" />
  </g>
</svg>