<?xml version="1.0" encoding="utf-8"?>
<svg version="1.1" xmlns:xlink="http://www.w3.org/1999/xlink" width="19px" height="4px" xmlns="http://www.w3.org/2000/svg">
  <g transform="matrix(1 0 0 1 -919 -595 )">
    <path d="M 1.44154227825521 0.988391356770833  L 1.73457710240886 0.988391356770838  C 1.97733510982202 0.988391356770838  2.1741293578125 1.19554319676082  2.1741293578125 1.45107794140625  L 2.1741293578125 2.99336648958334  C 2.1741293578125 3.24890123422878  1.97733510982202 3.45605307421875  1.73457710240886 3.45605307421875  L 1.44154227825521 3.45605307421875  C 1.19878428581723 3.45605305192601  1.00199006119792 3.24890121846542  1.00199006119792 2.99336648958334  L 1.00199006119792 1.45107794140625  C 1.00199006119792 1.19554321252416  1.19878428581723 0.988391379063581  1.44154227825521 0.988391356770833  Z M 3.19975126152344 0.988391356770833  L 3.49278608567709 0.988391356770838  C 3.73554407811507 0.988391379063581  3.93233830273438 1.19554321252417  3.93233830273438 1.45107794140625  L 3.93233830273438 2.99336648958334  C 3.93233830273438 3.24890121846542  3.73554407811507 3.45605305192601  3.49278608567708 3.45605307421875  L 3.19975126152344 3.45605307421875  C 2.95699325411028 3.45605307421875  2.76019900611979 3.24890123422878  2.76019900611979 2.99336648958334  L 2.76019900611979 1.45107794140625  C 2.76019900611979 1.19554319676081  2.95699325411028 0.988391356770838  3.19975126152344 0.988391356770833  Z M 15.8979270259766 0.988391356770833  L 16.1909618501302 0.988391356770838  C 16.4337198575434 0.988391356770838  16.6305141055339 1.19554319676082  16.6305141055339 1.45107794140625  L 16.6305141055339 2.99336648958334  C 16.6305141055339 3.24890123422878  16.4337198575434 3.45605307421875  16.1909618501302 3.45605307421875  L 15.8979270259766 3.45605307421875  C 15.6551690335386 3.45605305192601  15.4583748089193 3.24890121846542  15.4583748089193 2.99336648958334  L 15.4583748089193 1.45107794140625  C 15.4583748089193 1.19554321252417  15.6551690335386 0.988391379063581  15.8979270259766 0.988391356770833  Z M 17.6561359708984 0.988391356770833  L 17.9491707950521 0.988391356770838  C 18.1919288024652 0.988391356770838  18.3887230504557 1.19554319676082  18.3887230504557 1.45107794140625  L 18.3887230504557 2.99336648958334  C 18.3887230504557 3.24890123422878  18.1919288024652 3.45605307421875  17.9491707950521 3.45605307421875  L 17.6561359708984 3.45605307421875  C 17.4133779784605 3.45605305192601  17.2165837538411 3.24890121846542  17.2165837538411 2.99336648958334  L 17.2165837538411 1.45107794140625  C 17.2165837538411 1.19554321252417  17.4133779784605 0.988391379063581  17.6561359708984 0.988391356770833  Z " fill-rule="nonzero" fill="#f5b196" stroke="none" transform="matrix(1 0 0 1 919 595 )" />
  </g>
</svg>