<?xml version="1.0" encoding="utf-8"?>
<svg version="1.1" xmlns:xlink="http://www.w3.org/1999/xlink" width="4px" height="7px" xmlns="http://www.w3.org/2000/svg">
  <g transform="matrix(1 0 0 1 -917 -2480 )">
    <path d="M 3.56992 0.633919999999995  C 3.56992 0.486080000000001  3.42848 0.365120000000005  3.24544 0.365120000000005  L 0.7744 0.365120000000005  C 0.59136 0.365120000000005  0.4416 0.486080000000001  0.4416 0.633919999999995  C 0.4416 0.781760000000008  0.59136 0.902720000000005  0.7744 0.902720000000005  L 3.23712 0.902720000000005  C 3.42016 0.902720000000005  3.56992 0.781760000000008  3.56992 0.633919999999995  Z M 3.56992 3.46975999999999  C 3.56992 3.32192  3.42848 3.20096  3.24544 3.20096  L 0.7744 3.20096  C 0.59136 3.20096  0.4416 3.32192  0.4416 3.46975999999999  C 0.4416 3.6176  0.59136 3.73856  0.7744 3.73856  L 3.23712 3.73856  C 3.42016 3.73856  3.56992 3.6176  3.56992 3.46975999999999  Z M 3.56992 6.29888  C 3.57824 6.15104000000001  3.42848 6.03007999999999  3.24544 6.03007999999999  L 0.7744 6.03007999999999  C 0.59136 6.03007999999999  0.4416 6.15104000000001  0.4416 6.29888  C 0.4416 6.44672  0.59136 6.56767999999999  0.7744 6.56767999999999  L 3.23712 6.56767999999999  C 3.42016 6.56767999999999  3.56992 6.44672  3.56992 6.29888  Z " fill-rule="nonzero" fill="#6e6e6e" stroke="none" transform="matrix(1 0 0 1 917 2480 )" />
  </g>
</svg>