<?xml version="1.0" encoding="utf-8"?>
<svg version="1.1" xmlns:xlink="http://www.w3.org/1999/xlink" width="13px" height="14px" xmlns="http://www.w3.org/2000/svg">
  <g transform="matrix(1 0 0 1 -913 -2259 )">
    <path d="M 3.587701771875 1.31343206640625  C 3.57347117396921 0.577532103322323  2.97344626659776 -0.00872051428476731  2.24448008958333 0.00104116796875  L 1.37788546458333 0.00104116796875  C 1.36048364586353 0.000348528715094656  1.34306999947952 0  1.32565466286696 0  C 0.603118500196114 0  0.0136065430097854 0.584077800774345  0 1.31343206640625  L 0 2.18835934570313  C 0.0142305979057926 2.92425930878705  0.614255505277238 3.51051192639414  1.34322168229167 3.50075024414062  L 2.20981630729167 3.50075024414062  C 2.22721812601147 3.50144288339428  2.24463177239548 3.50178930385625  2.26204710900804 3.50178930385625  C 2.98458327167889 3.50178930385625  3.57409522886522 2.91771361133503  3.587701771875 2.18835934570312  L 3.587701771875 1.31343206640625  Z M 2.66044551770833 1.31343206640625  L 2.68644335104167 2.18835934570312  C 2.6817700250424 2.43137402224576  2.48530898236098 2.62591042058197  2.24456336800368 2.62591042058197  C 2.24164674905649 2.62591042058197  2.23873020155892 2.62588127179849  2.23581415416667 2.62582297851563  L 1.369219515625 2.62582297851563  C 1.34911154468713 2.62863713084148  1.3288354222455 2.63004922242282  1.30853518037159 2.63004922242282  C 1.06619334146894 2.63004922242282  0.869051119975736 2.43301882444459  0.866594625 2.18835934570312  L 0.866594625 1.31343206640625  C 0.87057915361195 1.0699020752225  1.06725403317359 0.874589087821508  1.30849759882746 0.874589087821508  C 1.32008572812761 0.874589087821508  1.33166937453963 0.875049225343123  1.34322168229167 0.87596843359375  L 2.20981630729167 0.87596843359375  C 2.21273235919442 0.875910140130494  2.2156489112048 0.875880991256801  2.21856553466514 0.875880991256801  C 2.45931114912671 0.875880991256801  2.65577219185304 1.0704173897555  2.66044551770833 1.31343206640625  Z M 3.587701771875 6.56299570117188  C 3.57347118131199 5.82709573271437  2.97344627177729 5.24084310688638  2.24448008958333 5.2506047890625  L 1.37788546458333 5.2506047890625  C 1.36048364594837 5.24991214981561  1.34306999964935 5.24956572935702  1.32565466312183 5.24956572935702  C 0.603118495186057 5.24956572935702  0.0136065357349533 5.83364143008514  0 6.56299570117188  L 0 7.43792296679687  C 0.0142305905630135 8.17382293525438  0.614255500097708 8.76007556108237  1.34322168229167 8.75031387890625  L 2.20981630729167 8.75031387890625  C 2.22721812592664 8.75100651815314  2.24463177222564 8.75135293861173  2.26204710875317 8.75135293861173  C 2.98458327668894 8.75135293861173  3.57409523614005 8.16727723788361  3.587701771875 7.43792296679687  L 3.587701771875 6.56299570117188  Z M 2.66044551770833 6.56299570117188  L 2.68644335104167 7.43792296679687  C 2.68177003231374 7.68093764879993  2.4853089873644 7.87547405534234  2.24456336774086 7.87547405534234  C 2.24164674888129 7.87547405534234  2.23873020147136 7.87544490656061  2.23581415416667 7.87538661328125  L 1.369219515625 7.87538661328125  C 1.349111544732 7.87820076559434  1.32883542233639 7.87961285716926  1.30853518050867 7.87961285716926  C 1.06619333633586 7.87961285716926  0.869051112614271 7.6825824509348  0.866594625 7.43792296679687  L 0.866594625 6.56299570117188  C 0.87057915361195 6.31946570998812  1.06725403317359 6.12415272258713  1.30849759882746 6.12415272258713  C 1.32008572812761 6.12415272258713  1.33166937453963 6.12461286010875  1.34322168229167 6.12553206835937  L 2.20981630729167 6.12553206835937  C 2.2127323591944 6.12547377489612  2.21564891120483 6.12544462602242  2.21856553466514 6.12544462602242  C 2.45931114912671 6.12544462602242  2.65577219185304 6.31998102452112  2.66044551770833 6.56299570117188  Z M 3.55303798958333 11.8125593359375  C 3.53906708453311 11.0902728196304  2.95996472330166 10.5094741587066  2.24448008958333 10.5001684238281  L 1.37788546458333 10.5001684238281  C 1.36048364594835 10.4994757845812  1.34306999964937 10.4991293641226  1.32565466312183 10.4991293641226  C 0.603118495186059 10.4991293641226  0.0136065357349546 11.0832050648508  0 11.8125593359375  L 0 12.6874866015625  C 0.0142305905630147 13.42338657002  0.614255500097709 14.009639195848  1.34322168229167 13.9998775136719  L 2.20981630729167 13.9998775136719  C 2.93878248948563 14.009639195848  3.53880739902032 13.42338657002  3.55303798958333 12.6874866015625  L 3.55303798958333 11.8125593359375  Z M 2.634447684375 11.8125593359375  L 2.6951093 12.6874866015625  C 2.69043597414471 12.9305012782133  2.49397493141838 13.1250376767119  2.25322931695681 13.1250376767119  C 2.2503126934965 13.1250376767119  2.24739614148606 13.1250085278383  2.24448008958333 13.124950234375  L 1.37788546458333 13.124950234375  C 1.35495209796864 13.1286283691465  1.33176728219977 13.1304760168452  1.30854635375759 13.1304760168452  C 1.06570272781379 13.1304760168452  0.868348955039777 12.9326588646174  0.866594625 12.6874866015625  L 0.866594625 11.8125593359375  C 0.871267943583956 11.5695446538263  1.06772898857819 11.3750082471214  1.30847460830601 11.3750082471214  C 1.3113912316787 11.3750082471214  1.3143077836015 11.3750373959934  1.31722383541667 11.3750956894531  L 2.18381847395833 11.3750956894531  C 2.18673452577353 11.3750373959934  2.18965107769626 11.3750082471214  2.19256770106899 11.3750082471214  C 2.43331332079681 11.3750082471214  2.62977436579104 11.5695446538263  2.634447684375 11.8125593359375  Z M 5.51145857991299 1.3135195084726  C 5.51437519886017 1.3135195084726  5.51729174635774 1.31349035968911  5.52020779375 1.31343206640625  L 12.548290259375 1.31343206640625  C 12.5512063112778 1.31349035986951  12.5541228632881 1.3135195087432  12.5570394867485 1.3135195087432  C 12.79778510121 1.3135195087432  12.9942461439364 1.1189831102445  12.9989194697917 0.87596843359375  C 12.9942461439364 0.632953756942994  12.79778510121 0.4384173584443  12.5570394867485 0.4384173584443  C 12.5541228632881 0.4384173584443  12.5512063112778 0.438446507317994  12.548290259375 0.43850480078125  L 5.52020779375 0.43850480078125  C 5.51729174635774 0.438446507498386  5.51437519886017 0.438417358714902  5.51145857991299 0.438417358714902  C 5.27071296555569 0.438417358714902  5.07425192287427 0.632953757051112  5.069578596875 0.87596843359375  C 5.07425192287426 1.11898311013639  5.27071296555569 1.3135195084726  5.51145857991299 1.3135195084726  Z M 12.548290259375 4.5244151640625  L 5.52020779375 4.5244151640625  C 5.28090429591358 4.5244151640625  5.08691048125 4.72027430386708  5.08691048125 4.961878796875  C 5.08691048125 5.20348328988292  5.28090429591358 5.3993424296875  5.52020779375 5.3993424296875  L 12.548290259375 5.3993424296875  C 12.7875937572114 5.3993424296875  12.981587571875 5.20348328988292  12.981587571875 4.961878796875  C 12.981587571875 4.72027430386708  12.7875937572114 4.5244151640625  12.548290259375 4.5244151640625  Z M 12.548290259375 8.60157623828125  L 5.52020779375 8.60157623828125  C 5.28090429217415 8.60157623828125  5.08691047447917 8.79743538114638  5.08691047447917 9.03903987792969  C 5.08691047447917 9.28064437471299  5.28090429217415 9.47650351757813  5.52020779375 9.47650351757813  L 12.548290259375 9.47650351757813  C 12.7875937609508 9.47650351757813  12.9815875786458 9.28064437471299  12.9815875786458 9.03903987792969  C 12.9815875786458 8.79743538114638  12.7875937609508 8.60157623828125  12.548290259375 8.60157623828125  Z M 12.548290259375 12.6874866015625  L 5.52020779375 12.6874866015625  C 5.28090429217415 12.6874866015625  5.08691047447917 12.8833457444276  5.08691047447917 13.1249502412109  C 5.08691047447917 13.3665547379942  5.28090429217415 13.5624138808594  5.52020779375 13.5624138808594  L 12.548290259375 13.5624138808594  C 12.7875937609508 13.5624138808594  12.9815875786458 13.3665547379942  12.9815875786458 13.1249502412109  C 12.9815875786458 12.8833457444276  12.7875937609508 12.6874866015625  12.548290259375 12.6874866015625  Z " fill-rule="nonzero" fill="#5b5b5b" stroke="none" transform="matrix(1 0 0 1 913 2259 )" />
  </g>
</svg>