<?xml version="1.0" encoding="utf-8"?>
<svg version="1.1" xmlns:xlink="http://www.w3.org/1999/xlink" width="15px" height="10px" xmlns="http://www.w3.org/2000/svg">
  <g transform="matrix(1 0 0 1 -911 -2352 )">
    <path d="M 15 5  C 15 5.42857142857143  14.7 5.71428571428571  14.25 5.71428571428571  L 0.75 5.71428571428571  C 0.3 5.71428571428571  0 5.42857142857143  0 5  C 0 4.57142857142857  0.3 4.28571428571429  0.75 4.28571428571429  L 14.25 4.28571428571429  C 14.7 4.28571428571429  15 4.57142857142857  15 5  Z M 15 0.714285714285714  C 15 1.14285714285714  14.7 1.42857142857143  14.25 1.42857142857143  L 0.75 1.42857142857143  C 0.3 1.42857142857143  0 1.14285714285714  0 0.714285714285714  C 0 0.285714285714286  0.3 0  0.75 0  L 14.25 0  C 14.7 0  15 0.285714285714286  15 0.714285714285714  Z M 15 9.28571428571429  C 15 9.71428571428572  14.7 10  14.25 10  L 0.75 10  C 0.3 10  0 9.71428571428572  0 9.28571428571429  C 0 8.85714285714286  0.3 8.57142857142857  0.75 8.57142857142857  L 14.25 8.57142857142857  C 14.7 8.57142857142857  15 8.85714285714286  15 9.28571428571429  Z " fill-rule="nonzero" fill="#8e8e8e" stroke="none" transform="matrix(1 0 0 1 911 2352 )" />
  </g>
</svg>