<?xml version="1.0" encoding="utf-8"?>
<svg version="1.1" xmlns:xlink="http://www.w3.org/1999/xlink" width="18px" height="18px" xmlns="http://www.w3.org/2000/svg">
  <g transform="matrix(1 0 0 1 -1235 -2611 )">
    <path d="M 1244 2611  C 1249.04 2611  1253 2614.96  1253 2620  C 1253 2625.04  1249.04 2629  1244 2629  C 1238.96 2629  1235 2625.04  1235 2620  C 1235 2614.96  1238.96 2611  1244 2611  Z " fill-rule="nonzero" fill="#ffffff" stroke="none" />
    <path d="M 1244 2611.5  C 1248.76 2611.5  1252.5 2615.24  1252.5 2620  C 1252.5 2624.76  1248.76 2628.5  1244 2628.5  C 1239.24 2628.5  1235.5 2624.76  1235.5 2620  C 1235.5 2615.24  1239.24 2611.5  1244 2611.5  Z " stroke-width="1" stroke="#e3e3e3" fill="none" />
  </g>
</svg>