<?xml version="1.0" encoding="utf-8"?>
<svg version="1.1" xmlns:xlink="http://www.w3.org/1999/xlink" width="18px" height="18px" xmlns="http://www.w3.org/2000/svg">
  <g transform="matrix(1 0 0 1 -486 -264 )">
    <path d="M 495 264  C 500.04 264  504 267.96  504 273  C 504 278.04  500.04 282  495 282  C 489.96 282  486 278.04  486 273  C 486 267.96  489.96 264  495 264  Z " fill-rule="nonzero" fill="#eaeaea" stroke="none" />
    <path d="M 495 264.5  C 499.76 264.5  503.5 268.24  503.5 273  C 503.5 277.76  499.76 281.5  495 281.5  C 490.24 281.5  486.5 277.76  486.5 273  C 486.5 268.24  490.24 264.5  495 264.5  Z " stroke-width="1" stroke="#d4d4d4" fill="none" />
  </g>
</svg>