<?xml version="1.0" encoding="utf-8"?>
<svg version="1.1" xmlns:xlink="http://www.w3.org/1999/xlink" width="10px" height="732px" preserveAspectRatio="xMidYMin meet" viewBox="46 1127  8 732" xmlns="http://www.w3.org/2000/svg">
  <path d="M 79 1132  L 55 1132  A 5 5 0 0 0 50 1137 L 50 1849  A 5 5 0 0 0 55 1854 L 67 1854  " stroke-width="2" stroke="#d7af1f" fill="none" />
  <path d="M 77.5 1128.5  A 3.5 3.5 0 0 0 74 1132 A 3.5 3.5 0 0 0 77.5 1135.5 A 3.5 3.5 0 0 0 81 1132 A 3.5 3.5 0 0 0 77.5 1128.5 Z M 65.5 1850.5  A 3.5 3.5 0 0 0 62 1854 A 3.5 3.5 0 0 0 65.5 1857.5 A 3.5 3.5 0 0 0 69 1854 A 3.5 3.5 0 0 0 65.5 1850.5 Z " fill-rule="nonzero" fill="#d7af1f" stroke="none" />
</svg>