<?xml version="1.0" encoding="utf-8"?>
<svg version="1.1" xmlns:xlink="http://www.w3.org/1999/xlink" width="38px" height="38px" xmlns="http://www.w3.org/2000/svg">
  <g transform="matrix(1 0 0 1 -85 -1097 )">
    <path d="M 37 5.33295454545455  C 37.6653409090909 2.58551136363637  35.4306818181818 0.345454545454546  32.6778409090909 1  L 5.10625 1  C 2.35340909090909 0.345454545454546  0.118749999999999 2.58551136363636  0.118749999999999 5.33295454545455  L 0.118749999999999 32.9045454545455  C 0.118749999999999 35.6573863636364  2.35880681818182 37.8920454545455  5.10625 37.8920454545455  L 32.6778409090909 37.8920454545455  C 35.4306818181818 37.8920454545455  37.6653409090909 35.6519886363636  37 32.9045454545455  L 37 5.33295454545455  Z M 1.73806818181818 5.33295454545455  C 1.73806818181818 3.47613636363637  3.24943181818182 1.96477272727273  5.10625 2  L 32.6778409090909 2  C 34.5346590909091 1.96477272727273  36.0460227272727 3.47613636363636  36.0460227272727 5.33295454545454  L 36.0460227272727 11.1894886363636  L 1.73806818181818 11.1894886363636  L 1.73806818181818 5.33295454545455  Z M 36 32.9045454545455  C 36.0460227272727 34.7613636363636  34.5346590909091 36.2727272727273  32.6778409090909 36  L 5.10625 36  C 3.24943181818182 36.2727272727273  1.73806818181818 34.7613636363636  2 32.9045454545455  L 2 13  L 36 13  L 36 32.9045454545455  Z " fill-rule="nonzero" fill="#1890ff" stroke="none" transform="matrix(1 0 0 1 85 1097 )" />
  </g>
</svg>