<?xml version="1.0" encoding="utf-8"?>
<svg version="1.1" xmlns:xlink="http://www.w3.org/1999/xlink" width="31px" height="20px" xmlns="http://www.w3.org/2000/svg">
  <g transform="matrix(1 0 0 1 -224 -600 )">
    <path d="M 10.0337688073781 3.71339901471206  L 5.77086044812 9.35734873353968  L 9.54456578185872 9.35734873353968  L 0.529582693665756 19.8971443475868  L 3.53457706309922 12.4755424461004  L 0.180206969332117 12.4755424461004  L 3.53457706309922 3.71339901471206  L 10.0337688073781 3.71339901471206  Z M 30.781601975717 0.256858067393236  C 30.7494548446721 0.256858067393236  30.7233930265995 0.28221300811367  30.7233879632715 0.313493135236349  C 30.7233879625494 0.344785668532521  30.7494512640181 0.37014604648196  30.781601975717 0.37014604648196  C 30.813749106762 0.37014604648196  30.8398109248345 0.344791105761526  30.8398159881626 0.313510978638846  C 30.8398159888846 0.282218445342675  30.8137526874159 0.256858067393236  30.781601975717 0.256858067393236  Z M 30.7116883150704 0.313493135236349  C 30.7116883150704 0.35105908966569  30.7429856220415 0.381512312736443  30.7815928067295 0.381512312736443  C 30.8201999914175 0.381512312736443  30.8514972983886 0.351059089665685  30.8514972983886 0.313493135236349  C 30.8514972983886 0.275927180807016  30.8201999914175 0.245473957736254  30.7815928067295 0.245473957736254  C 30.7429856220415 0.245473957736254  30.7116883150704 0.275927180807011  30.7116883150704 0.313493135236349  Z M 30.8026448322692 0.146585654782376  L 30.7816111547583 0.313493135236349  L 30.8026448322692 0.146585654782376  Z M 30.7816294927334 0.177508330008788  C 30.7044264769433 0.177508330008788  30.6418755434479 0.238390136726661  30.6418755233404 0.313493135236349  C 30.6418755221344 0.388603478874335  30.7044372863097 0.449477961202591  30.7816111334448 0.449477961202591  C 30.8588216790495 0.449477961200021  30.9213834432249 0.388603478871768  30.9213834432249 0.31351099937496  C 30.9213834432223 0.238382811166065  30.8588216790469 0.177508328837809  30.7816478319119 0.177508328837809  Z M 30.7116883150704 0.313493135236349  C 30.7116883150704 0.35105908966569  30.7429856220415 0.381512312736443  30.7815928067295 0.381512312736443  C 30.8201999914175 0.381512312736443  30.8514972983886 0.351059089665685  30.8514972983886 0.313493135236349  C 30.8514972983886 0.275927180807016  30.8201999914175 0.245473957736254  30.7815928067295 0.245473957736254  C 30.7429856220415 0.245473957736254  30.7116883150704 0.275927180807011  30.7116883150704 0.313493135236349  Z M 30.781601975717 0.256858067393236  C 30.7494548446721 0.256858067393236  30.7233930265995 0.28221300811367  30.7233879632715 0.313493135236349  C 30.7233879625494 0.344785668532521  30.7494512640181 0.37014604648196  30.781601975717 0.37014604648196  C 30.813749106762 0.37014604648196  30.8398109248345 0.344791105761526  30.8398159881626 0.313510978638846  C 30.8398159888846 0.282218445342675  30.8137526874159 0.256858067393236  30.781601975717 0.256858067393236  Z M 30.8026448322692 0.146585654782376  L 30.7816111547583 0.313493135236349  L 30.8026448322692 0.146585654782376  Z " fill-rule="nonzero" fill="#0085ff" stroke="none" transform="matrix(1 0 0 1 224 600 )" />
  </g>
</svg>