<?xml version="1.0" encoding="utf-8"?>
<svg version="1.1" xmlns:xlink="http://www.w3.org/1999/xlink" width="89px" height="89px" xmlns="http://www.w3.org/2000/svg">
  <g transform="matrix(1 0 0 1 -59 -868 )">
    <path d="M 103.5 871  C 126.74 871  145 889.26  145 912.5  C 145 935.74  126.74 954  103.5 954  C 80.26 954  62 935.74  62 912.5  C 62 889.26  80.26 871  103.5 871  Z " fill-rule="nonzero" fill="#ffffff" stroke="none" fill-opacity="0" />
    <path d="M 103.5 870  C 127.3 870  146 888.7  146 912.5  C 146 936.3  127.3 955  103.5 955  C 79.7 955  61 936.3  61 912.5  C 61 888.7  79.7 870  103.5 870  Z " stroke-width="4" stroke="#1890ff" fill="none" />
  </g>
</svg>