<?xml version="1.0" encoding="utf-8"?>
<svg version="1.1" xmlns:xlink="http://www.w3.org/1999/xlink" width="12px" height="12px" xmlns="http://www.w3.org/2000/svg">
  <g transform="matrix(1 0 0 1 -48 -604 )">
    <path d="M 3.992578125 1.24921875  C 4.62890625 0.9796875  5.30390625 0.84375  6 0.84375  C 6.69609375 0.84375  7.37109375 0.9796875  8.00625 1.248046875  C 8.6203125 1.508203125  9.17109375 1.8796875  9.645703125 2.353125  C 10.119140625 2.8265625  10.491796875 3.378515625  10.75078125 3.992578125  C 11.0203125 4.62890625  11.15625 5.30390625  11.15625 6  C 11.15625 6.69609375  11.0203125 7.37109375  10.751953125 8.00625  C 10.491796875 8.6203125  10.1203125 9.17109375  9.646875 9.645703125  C 9.1734375 10.119140625  8.621484375 10.491796875  8.007421875 10.75078125  C 7.37109375 11.0203125  6.69609375 11.15625  6 11.15625  C 5.30390625 11.15625  4.62890625 11.0203125  3.99375 10.751953125  C 3.3796875 10.491796875  2.82890625 10.1203125  2.354296875 9.646875  C 1.880859375 9.1734375  1.508203125 8.621484375  1.24921875 8.007421875  C 0.9796875 7.37109375  0.84375 6.69609375  0.84375 6  C 0.84375 5.30390625  0.9796875 4.62890625  1.248046875 3.99375  C 1.508203125 3.3796875  1.8796875 2.82890625  2.353125 2.354296875  C 2.8265625 1.880859375  3.378515625 1.508203125  3.992578125 1.24921875  Z M 12 6  C 12 2.6859375  9.3140625 0  6 0  C 2.6859375 0  0 2.6859375  0 6  C 0 9.3140625  2.6859375 12  6 12  C 9.3140625 12  12 9.3140625  12 6  Z " fill-rule="nonzero" fill="#dd4d4d" stroke="none" transform="matrix(1 0 0 1 48 604 )" />
  </g>
</svg>