<?xml version="1.0" encoding="utf-8"?>
<svg version="1.1" xmlns:xlink="http://www.w3.org/1999/xlink" width="88px" height="88px" xmlns="http://www.w3.org/2000/svg">
  <g transform="matrix(1 0 0 1 -229 -871 )">
    <path d="M 273 874  C 295.96 874  314 892.04  314 915  C 314 937.96  295.96 956  273 956  C 250.04 956  232 937.96  232 915  C 232 892.04  250.04 874  273 874  Z " fill-rule="nonzero" fill="#ffffff" stroke="none" fill-opacity="0" />
    <path d="M 273 873  C 296.52 873  315 891.48  315 915  C 315 938.52  296.52 957  273 957  C 249.48 957  231 938.52  231 915  C 231 891.48  249.48 873  273 873  Z " stroke-width="4" stroke="#1890ff" fill="none" />
  </g>
</svg>