<?xml version="1.0" encoding="utf-8"?>
<svg version="1.1" xmlns:xlink="http://www.w3.org/1999/xlink" width="51px" height="51px" xmlns="http://www.w3.org/2000/svg">
  <g transform="matrix(1 0 0 1 -247 -895 )">
    <path d="M 45.5513093144531 12.6567714521484  C 48.6270545683594 12.2041747412109  50.9984063496094 9.57783889746094  50.9984063496094 6.3746015625  C 50.9984063496094 2.85263419921875  48.1457721503906 0  44.6238047871094 0  C 41.8062308964844 0  39.4412537167969 1.8422598515625  38.5998063105469 4.3793512734375  C 34.9344104121094 1.721142421875  30.4403162607422 0.1338666328125  25.5669333662109 0.1338666328125  C 20.6457409599609 0.1338666328125  16.1102118984375 1.7530154296875  12.4256921953125 4.45903379296875  C 11.6065558447266 1.8805074609375  9.22564216113281 0  6.37619526269531 0  C 2.85422784960938 0  0.001593650390625 2.85263419921875  0.001593650390625 6.3746015625  C 0.001593650390625 9.62246105859375  2.43669144726563 12.2711080078125  5.57618271679688 12.6695206054687  C 4.14508466601563 15.6050246748047  3.32276106445312 18.8911317802734  3.32276106445312 22.3780388847656  C 3.32276106445312 32.4562840048828  10.0288419580078 40.9568151884766  19.2210174111328 43.6915193085938  C 19.1732079492187 43.9975001337891  19.1253984375 44.3034810087891  19.1253984375 44.6222110869141  C 19.1253984375 48.1441784501953  21.9780326367187 50.9968126494141  25.5 50.9968126494141  C 29.0219673632813 50.9968126494141  31.8746015625 48.1441784501953  31.8746015625 44.6222110869141  C 31.8746015625 44.3162302119141  31.8267920507813 44.0198112392578  31.785357140625 43.7233922666016  C 41.0412786591797 41.0333104072266  47.8111055683594 32.5040935166016  47.8111055683594 22.3780388847656  C 47.8111055683594 18.8879445292969  46.9855946660156 15.5954627724609  45.5513093144531 12.6567714521484  Z M 11.8105430947266 9.66708331933594  C 11.9922192392578 9.36747704589844  12.1579588798828 9.06149617089844  12.2886382119141 8.73639149121094  C 15.7245484541016 5.39291297167969  20.4066933515625 3.32116746386719  25.5669333164063 3.32116746386719  C 30.637928859375 3.32116746386719  35.2435785380859 5.32597965527344  38.6603649755859 8.56746454980469  C 38.7464220966797 8.79695020605469  38.8452284208984 9.01687395996094  38.9535966474609 9.23361041308594  L 31.6865508164063 15.0759327451172  C 30.0164052070312 13.6448346943359  27.87135178125 12.7492031748047  25.5 12.7492031748047  C 22.9405974726563 12.7492031748047  20.6266171054688 13.7691394248047  18.9118492353516 15.4074120263672  L 11.8105430947266 9.66708331933594  Z M 19.1253984375 22.3111055683594  C 19.1253984375 18.7955128066406  21.9844072382813 15.9365039560547  25.5 15.9365039560547  C 29.0155927617188 15.9365039560547  31.8746015625 18.7955127568359  31.8746015625 22.3111055185547  C 31.8746015625 25.8266982802734  29.0155927617188 28.6857071308594  25.5 28.6857071308594  C 21.9844072382813 28.6857071308594  19.1253984375 25.8266983300781  19.1253984375 22.3111055683594  Z M 6.37619526269531 9.56190239355469  C 4.61999248242187 9.56190239355469  3.18889443164062 8.13080434277344  3.18889443164062 6.3746015625  C 3.18889443164062 4.61839883203125  4.61999248242187 3.18730078125  6.37619521289063 3.18730078125  C 8.13239794335938 3.18730078125  9.56349599414063 4.61839883203125  9.56349599414063 6.3746015625  C 9.56349599414063 6.6359602265625  9.47425157226563 6.86863318359375  9.41369285742188 7.11405534375  C 9.17145804785156 8.10530593652344  8.51487408691406 8.93400413964844  7.58736955957031 9.31648023339844  C 7.21445536816406 9.47265797167969  6.80648086816406 9.56190239355469  6.37619526269531 9.56190239355469  Z M 23.43462909375 38.6173364648438  C 22.2521405039063 39.0253109150391  21.2385788554687 39.7615773955078  20.4863758710937 40.7273295322266  C 12.4384413486328 38.4962189853516  6.50687459472656 31.1271795292969  6.50687459472656 22.3780388847656  C 6.50687459472656 18.5437160449219  7.65430287597656 14.9803137216797  9.61130555566406 11.9874382880859  L 9.50293732910156 11.8981938662109  C 9.58261984863281 11.8535716552734  9.66867696972656 11.8153240458984  9.74517218847656 11.7675145341797  C 9.69736267675781 11.8376351513672  9.65911506738281 11.9141303701172  9.61130555566406 11.9874382880859  L 17.0217798720703 17.9763764560547  C 16.3524467080078 19.2831698261719  15.9380976064453 20.7429535839844  15.9380976064453 22.3111055683594  C 15.9380976064453 27.0442472285156  19.3867570517578 30.9486907353516  23.9031623085938 31.7104556220703  L 23.43462909375 38.6173364648438  Z M 28.68730078125 44.6222110869141  C 28.68730078125 46.3784138671875  27.2562027304688 47.8095119179688  25.5 47.8095119179688  C 23.7437972695313 47.8095119179688  22.31269921875 46.3784138671875  22.31269921875 44.6222111367188  C 22.31269921875 44.5297794140625  22.3573214296875 44.4532841953125  22.36369603125 44.3672270742188  C 22.5007499648437 42.7353290244141  23.8330416914063 41.4349103056641  25.5 41.4349103056641  C 27.1733329101562 41.4349103056641  28.5119992382813 42.7448909267578  28.6394912695313 44.3863508291016  C 28.6458658710937 44.4692206494141  28.68730078125 44.5393412666016  28.68730078125 44.6222110869141  Z M 44.6238047373047 22.3780388847656  C 44.6238047373047 31.1654271386719  38.6380538701172 38.5599650009766  30.535935234375 40.7560152392578  C 29.592494203125 39.5289044384766  28.22832946875 38.6523967236328  26.64742828125 38.3655396533203  L 27.1000249921875 31.7136428730469  C 31.6132428984375 30.9486906855469  35.0619023935547 27.0442472285156  35.0619023935547 22.3111055683594  C 35.0619023935547 20.5580901386719  34.5551215693359 18.9357540410156  33.7327979677734 17.5237797949219  L 41.0412787089844 11.6463971542969  L 41.2038310488281 11.5157178222656  C 41.2867008691406 11.6336479511719  41.3727579902344 11.7547653808594  41.4524405097656 11.8758828105469  C 43.4508780498047 14.8878819990234  44.6238047373047 18.4959064833984  44.6238047373047 22.3780388847656  Z M 47.8111055185547 6.3746015625  C 47.8111055185547 8.13080429296875  46.3800075175781 9.56190239355469  44.6238047373047 9.56190239355469  C 44.2508905458984 9.56190239355469  43.9034747607422 9.46628337011719  43.5688081787109 9.34835324121094  C 42.5074370185547 8.97225174902344  41.7520467333984 8.05430912402344  41.5480594833984 6.92600464746094  C 41.5129991748047 6.74114120214844  41.4365039560547 6.56902695996094  41.4365039560547 6.3746015625  C 41.4365039560547 4.61839883203125  42.8676020068359 3.18730078125  44.6238047373047 3.18730078125  C 46.3800074677734 3.18730078125  47.8111055185547 4.61839883203125  47.8111055185547 6.3746015625  Z " fill-rule="nonzero" fill="#1890ff" stroke="none" transform="matrix(1 0 0 1 247 895 )" />
  </g>
</svg>