<?xml version="1.0" encoding="utf-8"?>
<svg version="1.1" xmlns:xlink="http://www.w3.org/1999/xlink" width="53px" height="53px" xmlns="http://www.w3.org/2000/svg">
  <g transform="matrix(1 0 0 1 -249 -1085 )">
    <path d="M 13.4454375 35.5199375  L 11.1531875 37.8155  L 13.4454375 40.1110625  L 15.7376875 37.8155  L 13.4454375 35.5199375  Z M 13.7104375 16.1285625  L 16.052375 13.786625  L 13.7104375 11.4446875  L 11.3685 13.786625  L 13.7104375 16.1285625  Z M 28 8.28125  C 28.15625 7.36652838309275  27.4147216169073 6.625  26.5 6.625  C 25.5852783830927 6.625  24.84375 7.36652838309275  25 8.28125  L 25 25  L 11.59375 25  L 11.59375 24.8835  C 10.6790283830927 24.8835  9.9375 25.6250283830928  9.9375 26.53975  C 9.9375 27.4544716169073  10.6790283830927 28.196  11.59375 28.196  C 11.59375 28.196  11.59375 28.196  11.59375 28  L 26.5 28  C 27.4147216169073 28.196  28.15625 27.4544716169073  28 26.53975  L 28 8.28125  Z M 24.84375 43.0625  L 24.84375 46.375  L 28.15625 46.375  L 28.15625 43.0625  L 24.84375 43.0625  Z M 46.375 24.84375  L 43.0625 24.84375  L 43.0625 28.15625  L 46.375 28.15625  L 46.375 24.84375  Z M 26.5 0  C 11.864454129484 0  0 11.864454129484  0 26.5  C 0 41.135545870516  11.864454129484 53  26.5 53  C 41.135545870516 53  53 41.135545870516  53 26.5  C 53 11.864454129484  41.135545870516 0  26.5 0  Z M 26.5 49.6875  C 13.6938973632985 49.6875  3.3125 39.3061026367015  3.3125 26.5  C 3.3125 13.6938973632985  13.6938973632985 3.3125  26.5 3.3125  C 39.3061026367015 3.3125  49.6875 13.6938973632985  49.6875 26.5  C 49.6875 39.3061026367015  39.3061026367015 49.6875  26.5 49.6875  Z M 38.855625 11.4049375  L 36.563375 13.7038125  L 38.855625 15.999375  L 41.1445625 13.7038125  L 38.855625 11.4049375  Z M 38.4216875 35.384125  L 36.07975 37.7260625  L 38.4216875 40.068  L 40.763625 37.7260625  L 38.4216875 35.384125  Z " fill-rule="nonzero" fill="#1890ff" stroke="none" transform="matrix(1 0 0 1 249 1085 )" />
  </g>
</svg>