<?xml version="1.0" encoding="utf-8"?>
<svg version="1.1" xmlns:xlink="http://www.w3.org/1999/xlink" width="39px" height="39px" xmlns="http://www.w3.org/2000/svg">
  <g transform="matrix(1 0 0 1 -90 -1088 )">
    <path d="M 39 4.71941489361702  C 38.9947010869565 2.14707446808511  36.8539402173913 0.0518617021276596  34.2256793478261 0  L 6.11494565217391 0  C 3.48668478260869 0.0518617021276596  1.34592391304348 2.14707446808511  1.34592391304348 4.71941489361702  L 1.34592391304348 5.52327127659574  C 1.34592391304348 5.95372340425532  1.70095108695652 6.30119680851064  2.14076086956522 6.30119680851064  C 2.58057065217391 6.30119680851064  2.93559782608696 5.95372340425532  2.93559782608696 5.52327127659574  L 2.93559782608696 4.71941489361702  C 2.93559782608696 3.00279255319149  4.36100543478261 1.60771276595745  6.11494565217391 2  L 34.2203804347826 2  C 35.9743206521739 1.60771276595745  37.3997282608696 3.00279255319149  37 4.71941489361702  L 37 34.3843085106383  C 37.3997282608696 35.411170212766  36.5466032608696 36.251329787234  35.4921195652174 36.251329787234  C 35.0523097826087 36.251329787234  34.6972826086957 36.5988031914894  34.6972826086957 37.0292553191489  C 34.6972826086957 37.4597074468085  35.0523097826087 37.8071808510638  35.4921195652174 37.8071808510638  C 37.4209239130435 37.8071808510638  38.989402173913 36.2720744680851  39 34.3843085106383  L 39 4.71941489361702  Z M 6.703125 37.3767287234043  L 2.40570652173913 33.1707446808511  C 1.67445652173913 32.4550531914894  1.65326086956522 31.3140957446809  2.3633152173913 30.5724734042553  L 6.72432065217391 26.0242021276596  C 7.02635869565217 25.7130319148936  7.01046195652174 25.2203457446808  6.68722826086957 24.9247340425532  C 6.36929347826087 24.6291223404255  5.86589673913043 24.6446808510638  5.56385869565217 24.9610372340426  L 1.20285326086956 29.5093085106383  C 0.577581521739129 30.1627659574468  0.24375 31.0132978723404  0.259646739130434 31.9053191489362  C 0.275543478260869 32.7973404255319  0.63586956521739 33.6375  1.28233695652174 34.2702127659575  L 5.57975543478261 38.4761968085106  C 5.73342391304347 38.6265957446809  5.94008152173913 38.7043882978723  6.1414402173913 38.7043882978723  C 6.34279891304348 38.7043882978723  6.54945652173913 38.6265957446809  6.703125 38.4761968085106  C 7.01576086956522 38.1702127659575  7.01576086956522 37.6775265957447  6.703125 37.3767287234043  Z M 25.4029891304348 29.5093085106383  L 21.0419836956522 24.9610372340426  C 20.7399456521739 24.6498670212766  20.2365489130435 24.6291223404255  19.9186141304348 24.9247340425532  C 19.6006793478261 25.2203457446808  19.5794836956522 25.7130319148936  19.8815217391304 26.0242021276596  L 24.242527173913 30.5724734042553  C 24.9525815217391 31.3140957446808  24.9313858695652 32.4498670212766  24.2001358695652 33.1707446808511  L 19.9027173913043 37.3767287234043  C 19.5900815217391 37.6827127659574  19.5900815217391 38.1753989361702  19.9027173913043 38.4761968085106  C 20.0563858695652 38.6265957446809  20.2630434782609 38.7043882978723  20.464402173913 38.7043882978723  C 20.6657608695652 38.7043882978723  20.8724184782609 38.6265957446809  21.0260869565217 38.4761968085106  L 25.3235054347826 34.2702127659575  C 25.969972826087 33.6375  26.3302989130435 32.7973404255319  26.3461956521739 31.9053191489362  C 26.3620923913043 31.0132978723404  26.0229619565217 30.1627659574468  25.4029891304348 29.5093085106383  Z M 16.7180706521739 25.5107712765957  C 16.8770380434783 25.10625  16.6809782608696 24.6550531914894  16.2729619565217 24.4994680851064  C 15.8649456521739 24.3438829787234  15.4039402173913 24.5357712765957  15.2396739130435 24.9351063829787  L 10.1103260869565 37.6412234042553  C 9.95135869565217 38.0405585106383  10.1474184782609 38.4917553191489  10.5554347826087 38.6525265957447  C 10.6508152173913 38.688829787234  10.7514945652174 38.7095744680851  10.846875 38.7095744680851  C 11.1648097826087 38.7095744680851  11.4615489130435 38.5228723404255  11.588722826087 38.2168882978723  L 16.7180706521739 25.5107712765957  Z " fill-rule="nonzero" fill="#1890ff" stroke="none" transform="matrix(1 0 0 1 90 1088 )" />
  </g>
</svg>