<?xml version="1.0" encoding="utf-8"?>
<svg version="1.1" xmlns:xlink="http://www.w3.org/1999/xlink" width="22px" height="20px" xmlns="http://www.w3.org/2000/svg">
  <g transform="matrix(1 0 0 1 -9 -4 )">
    <path d="M 21.6913261272321 7.92439392156863  L 12.4335411897321 0.620495784313725  C 11.6366003727679 -0.00946455882352953  10.3861887299107 -0.00868703431372562  9.58992630357143 0.620495784313725  L 0.332945397321428 7.92439392156863  C 0.0167369174107141 8.17452708333333  -0.0373338281250002 8.63310870098039  0.212441944196429 8.94875352941176  C 0.462217741071428 9.26449867647059  0.911492558035714 9.31847306372549  1.22782665401786 9.06916757352941  L 1.51627108482143 8.83285406862745  L 1.51627108482143 17.6643376960784  C 1.51627108482143 18.9162324509804  2.83773855357143 19.8517048529412  3.99975756026786 19.8517048529412  L 18.60873953125 19.8517048529412  C 19.7570649620536 19.8517048529412  20.5079752723214 18.9724139460784  20.5079752723214 17.6643376960784  L 20.507975296875 8.86711475490196  L 20.7745602723214 9.06916757352941  C 20.9090085334821 9.17485904411765  21.0740600714286 9.22592404411765  21.2325537433036 9.22592404411765  C 21.4480076741071 9.22592404411765  21.6642404933036 9.13114281862745  21.8081109419643 8.94875352941176  C 22.0586907700893 8.63310870098039  22.0083134955357 8.17452708333333  21.6913261272321 7.92439392156863  Z M 10.2816150691964 18.3933932107843  L 10.2816150691964 14.3510578186275  C 10.2816150691964 14.1498577696078  10.6468691361607 14.049257745098  11.012123203125 14.049257745098  C 11.3773772700893 14.049257745098  11.74260621875 14.1498577696078  11.74260621875 14.3510578186275  L 11.74260621875 18.3934182843137  L 10.2816150691964 18.3934182843137  Z M 19.0470846450893 17.664312622549  C 19.0470846450893 18.1477244852941  18.9133398928571 18.3933932107843  18.6087395558036 18.3933932107843  L 13.2180698571429 18.3933932107843  C 13.2180698571429 18.3824829656863  13.2034717522321 18.373754754902  13.2034717522321 18.3628445098039  L 13.2034717522321 14.3510578186275  C 13.2034717522321 13.5030680392157  12.5183408526786 12.5901434803922  11.012123203125 12.5901434803922  C 9.50598093303571 12.5901434803922  8.82074953571428 13.5030680392157  8.82074953571428 14.3510578186275  L 8.82074953571428 18.3628695833333  C 8.82074953571428 18.3737798284314  8.84049843973214 18.3825080392157  8.84049843973214 18.3934182843137  L 3.999757609375 18.3934182843137  C 3.541814375 18.3934182843137  2.97713666741071 17.9982415196078  2.97713666741071 17.6643376960784  L 2.97713666741071 7.68007958333333  L 10.485486 1.76459225490196  C 10.7549855580357 1.55162919117647  11.2414717299107 1.55162919117647  11.5117753191964 1.76459225490196  L 19.0470846696429 7.71434029411765  L 19.0470846450893 17.664312622549  Z " fill-rule="nonzero" fill="#5c5c66" stroke="none" transform="matrix(1 0 0 1 9 4 )" />
  </g>
</svg>