<?xml version="1.0" encoding="utf-8"?>
<svg version="1.1" xmlns:xlink="http://www.w3.org/1999/xlink" width="14px" height="15px" xmlns="http://www.w3.org/2000/svg">
  <g transform="matrix(1 0 0 1 -1788 -368 )">
    <path d="M 11.266666671875 0.0689655226293105  L 2.733333328125 0.0689655226293101  C 1.26057400457029 0.0689655315563265  0.0666666805044489 1.3040420736934  0.0666666718750002 2.82758620150862  L 0.066666671875 10.551724137931  C 0.066666671875 12.0752682720586  1.26057399846834 13.3103448240471  2.733333328125 13.3103448329741  L 3.8 13.3103448329741  L 3.8 14.4137930980603  C 3.80018629494911 14.718365536683  4.03891313841705 14.9651681259562  4.33333322135824 14.9651681259562  C 4.40110814685878 14.9651681259562  4.46826198246574 14.9518046728043  4.5312 14.9257931088362  L 7 13.9051034482759  L 9.4688 14.9263448275862  C 9.5317379973105 14.9523563724011  9.59889180797718 14.9657198154398  9.66666670782829 14.9657198154398  C 9.96121857152823 14.9657198154398  10.2000000359533 14.7187045074139  10.2000000359533 14.4139956828967  L 10.2 13.3103448329741  L 11.266666671875 13.3103448329741  C 12.7394260015317 13.3103448240471  13.933333328125 12.0752682720586  13.933333328125 10.551724137931  L 13.933333328125 2.82758620150862  C 13.9333333194955 1.3040420736934  12.7394259954297 0.0689655315563271  11.266666671875 0.0689655226293105  Z M 3.266666671875 8.34617861171303  C 3.266666671875 9.0470468590344  3.45103106949679 9.7347040576463  3.8 10.3354482704741  L 3.8 12.2068965517241  L 2.733333328125 12.2068965517241  C 1.84967772839573 12.2068965517241  1.133333328125 11.4658506204096  1.133333328125 10.551724137931  L 1.133333328125 2.82758620150862  C 1.133333328125 1.91345971903007  1.84967772839573 1.17241378771552  2.733333328125 1.17241378771552  L 11.266666671875 1.17241378771552  C 12.1503222716043 1.17241378771552  12.866666671875 1.91345971903007  12.866666671875 2.82758620150862  L 12.866666671875 10.551724137931  C 12.866666671875 11.4658506204096  12.1503222716043 12.2068965517241  11.266666671875 12.2068965517241  L 10.2 12.2068965517241  L 10.2 10.3354482704741  C 10.5489689305032 9.7347040576463  10.733333328125 9.0470468590344  10.733333328125 8.34617861171303  C 10.733333328125 6.21321682223874  9.06186306315848 4.48410965158372  7 4.48410965158372  C 4.93813693684152 4.48410965158372  3.266666671875 6.21321682223874  3.266666671875 8.34617861171303  Z M 7 11.1034482704741  C 6.16048850572081 11.1041442925413  5.36983531531483 10.6951857487749  4.866666671875 10.0000000053879  C 4.52047432359438 9.52249332393325  4.333333328125 8.9417109298724  4.333333328125 8.34482757543103  C 4.333333328125 6.8212834349911  5.5272406642414 5.58620688038793  7 5.58620688038793  C 8.4727593357586 5.58620688038793  9.666666671875 6.8212834349911  9.666666671875 8.34482757543103  C 9.666666671875 8.9417109298724  9.47952567640562 9.52249332393325  9.133333328125 10.0000000053879  C 8.63016468468517 10.6951857487749  7.83951149427919 11.1041442925413  7 11.1034482704741  Z M 4.866666671875 13.5988965517241  L 4.866666671875 11.5144827640086  C 5.49221003183432 11.9663563520937  6.23704056604974 12.2081052267787  7 12.2068965517241  C 7.76295943395026 12.2081052267787  8.50778996816568 11.9663563520937  9.133333328125 11.5144827640086  L 9.133333328125 13.5988965517241  L 7.297066671875 12.8391724137931  C 7.10636485054244 12.7602754465499  6.89363514945756 12.7602754465499  6.702933328125 12.8391724137931  L 4.866666671875 13.5988965517241  Z M 10.2 2.27586206896552  L 3.8 2.27586206896552  C 3.50544813198534 2.27586206896552  3.2666666640625 2.52287738060983  3.2666666640625 2.82758620959052  C 3.2666666640625 3.13229503857121  3.50544813198534 3.37931035021552  3.8 3.37931035021552  L 10.2 3.37931035021552  C 10.4945518680147 3.37931035021552  10.7333333359375 3.13229503857121  10.7333333359375 2.82758620959052  C 10.7333333359375 2.52287738060983  10.4945518680147 2.27586206896552  10.2 2.27586206896552  Z " fill-rule="nonzero" fill="#cecece" stroke="none" transform="matrix(1 0 0 1 1788 368 )" />
  </g>
</svg>