<?xml version="1.0" encoding="utf-8"?>
<svg version="1.1" xmlns:xlink="http://www.w3.org/1999/xlink" width="22px" height="22px" xmlns="http://www.w3.org/2000/svg">
  <g transform="matrix(1 0 0 1 -1801 -474 )">
    <path d="M 21.9639344262295 16.5396721311475  C 21.9639344262295 16.031868852459  21.5484590163934 15.616393442623  21.0406557377049 15.616393442623  C 20.5328524590164 15.616393442623  20.1173770491803 16.031868852459  20.1173770491803 16.5396721311475  L 20.1173770491803 18.6170491803279  C 20.1173770491803 19.3787540983607  19.4941639344262 20.0019672131148  18.7324590163934 20  L 3.38295081967213 20  C 2.62124590163934 20.0019672131148  1.99803278688525 19.3787540983607  2 18.6170491803279  L 2 3.26754098360656  C 1.99803278688525 2.50583606557377  2.62124590163934 1.88262295081967  3.38295081967213 2  L 18.7324590163934 2  C 19.4941639344262 1.88262295081967  20.1173770491803 2.50583606557377  20.1173770491803 3.26754098360656  L 20.1173770491803 4.19081967213115  C 20.1173770491803 4.69862295081967  20.5328524590164 5.11409836065574  21.0406557377049 5.11409836065574  C 21.5484590163934 5.11409836065574  21.9639344262295 4.69862295081967  21.9639344262295 4.19081967213115  L 21.9639344262295 3.26754098360656  C 21.9639344262295 1.49022950819672  20.5097704918033 0.0360655737704917  18.7324590163934 0  L 3.38295081967213 0  C 1.6056393442623 0.0360655737704918  0.151475409836066 1.49022950819672  0.151475409836066 3.26754098360656  L 0.151475409836066 18.6170491803279  C 0.151475409836066 20.3943606557377  1.6056393442623 21.8485245901639  3.38295081967213 21.8485245901639  L 18.7324590163934 21.8485245901639  C 20.5097704918033 21.8485245901639  21.9639344262295 20.3943606557377  21.9639344262295 18.6170491803279  L 21.9639344262295 16.5396721311475  Z " fill-rule="nonzero" fill="#c2c2c2" stroke="none" transform="matrix(1 0 0 1 1801 474 )" />
  </g>
</svg>