<?xml version="1.0" encoding="utf-8"?>
<svg version="1.1" xmlns:xlink="http://www.w3.org/1999/xlink" width="12px" height="11px" xmlns="http://www.w3.org/2000/svg">
  <g transform="matrix(1 0 0 1 -43 -5 )">
    <path d="M 7.08717016655282 10.2297453653971  C 6.75394601926052 10.6058241420239  6.27398084979002 10.8214737954365  5.76954204240271 10.821759258016  C 5.26516453550224 10.8213019167965  4.78532599736569 10.605540767873  4.45223442604571 10.2294270833333  L 0.441978268455002 5.70497684936523  C -0.0904135547116549 5.10266378930459  -0.147781150893736 4.21990232491218  0.30223468466291 3.55462963460286  L 1.96793971458477 1.0917245320638  C 2.29329159591782 0.608521740080468  2.83997758629044 0.318391606056496  3.42531141125894 0.318287032063802  L 8.11249061983799 0.318287032063802  C 8.69742648062901 0.318287032063802  9.24229824754011 0.607291666666667  9.5698623277802 1.0917245320638  L 11.2368494001425 3.55462963460286  C 11.6868652388084 4.21990232243061  11.6294976472612 5.10266378668293  11.0971058276184 5.70497684936523  L 7.08717016655282 10.2297453653971  Z M 4.72370877485391 8.04311342468262  C 4.98848629913821 8.34117509726858  5.36929894106179 8.51212146649476  5.76954204240271 8.51258680928548  C 6.16983555332374 8.51204087724978  6.55065632376325 8.34097496263666  6.81537530995151 8.04279514261882  L 9.6919777012507 4.79658565063477  C 9.8662896931883 4.59938896499498  9.84768117678533 4.29945586257154  9.65031103460117 4.125  C 9.56350580940704 4.04806168350048  9.45122335291333 4.00553878714913  9.33487159877859 4.00553878714913  C 9.19818064097515 4.00553878714913  9.06815226736319 4.06417345243893  8.97819569065365 4.16637731730143  L 6.10159331062249 7.4122685160319  C 6.01817678562947 7.50779962271631  5.89686824014582 7.56233496764377  5.76954204240271 7.56154514261882  C 5.64216449211267 7.56225511978685  5.52084745866385 7.50759967079637  5.43749078545096 7.4119502339681  L 2.56088839415177 4.16637731730143  C 2.47092920665299 4.06407747470535  2.34083747656135 4.00537912108021  2.20407201695308 4.00537912108021  C 2.08763706719095 4.00537912108021  1.97528030645334 4.0479627227787  1.88845253114312 4.125  C 1.69096976265696 4.29957678221323  1.67249853753363 4.59974716146291  1.84710638355472 4.79690393269857  L 4.72370877485391 8.04311342468262  Z " fill-rule="nonzero" fill="#f48d16" stroke="none" transform="matrix(1 0 0 1 43 5 )" />
  </g>
</svg>