<?xml version="1.0" encoding="utf-8"?>
<svg version="1.1" xmlns:xlink="http://www.w3.org/1999/xlink" width="17px" height="14px" xmlns="http://www.w3.org/2000/svg">
  <defs>
    <mask fill="white" id="clip350">
      <path d="M 17 4.77993220338983  C 17 3.84520677966102  16.1148213333333 3.08474576271186  15.0265493333333 3.08474576271186  L 12.7346773333333 3.08474576271186  C 12.5780053333333 1.36366644067797  10.74128 0  8.5 0  C 6.25908266666667 0  4.42226666666667 1.36374237288136  4.26532266666667 3.08474576271186  L 1.97345066666667 3.08474576271186  C 0.885450666666667 3.08474576271186  0 3.84528271186441  0 4.77993220338983  L 0 12.304813559322  C 0 13.2396908474576  0.885450666666667 14  1.97345066666667 14  L 15.0265493333333 14  C 16.1148213333333 14  17 13.2396908474576  17 12.304813559322  L 17 4.77993220338983  Z M 4.83226133333333 3.08474576271186  C 4.98893333333333 1.62563254237288  6.57242666666667 0.474576271186441  8.5 0.474576271186441  C 10.4272106666667 0.474576271186441  12.0110666666667 1.62570847457627  12.1677386666667 3.08474576271186  L 4.83226133333333 3.08474576271186  Z M 16.4333333333333 8.53979118644068  L 16.4333333333333 12.304813559322  C 16.4333333333333 12.9777247457627  15.8020213333333 13.5254237288136  15.0265493333333 13.5254237288136  L 1.97345066666667 13.5254237288136  C 1.197616 13.5254237288136  0.566666666666667 12.9778006779661  0.566666666666667 12.304813559322  L 0.566666666666667 8.53979118644068  C 1.0812 9.11634440677966  1.897744 9.49152542372881  2.81828266666667 9.49152542372881  L 14.1817173333333 9.49152542372881  C 15.102528 9.49152542372881  15.9188 9.11611661016949  16.4333333333333 8.53979118644068  Z M 16.4333333333333 7.11864406779661  C 16.4333333333333 8.16529355932203  15.4233066666667 9.01694915254237  14.1817173333333 9  L 2.81828266666667 9  C 1.576784 9.01694915254237  0.566666666666667 8.16529355932203  0.566666666666667 7.11864406779661  L 0.566666666666667 4.77993220338983  C 0.566666666666667 4.10702101694915  1.19770666666667 3.5593220338983  1.97345066666667 3.5593220338983  L 15.0265493333333 3.5593220338983  C 15.8020213333333 3.5593220338983  16.4333333333333 4.10702101694915  16.4333333333333 4.77993220338983  L 16.4333333333333 7.11864406779661  Z M 10.2 6.34535050847458  C 10.2 5.56021152542373  9.43749333333333 4.92162169491525  8.5 4.92162169491525  C 7.56250666666667 4.92162169491525  6.8 5.56013559322034  6.8 6.34535050847458  C 6.8 7.13056542372881  7.56250666666667 7.7690793220339  8.5 7.7690793220339  C 9.43749333333334 7.7690793220339  10.2 7.13048949152542  10.2 6.34535050847458  Z M 9.63333333333333 6.34535050847458  C 9.63333333333333 6.86882711864407  9.125056 7.29450305084746  8.5 7.29450305084746  C 7.874944 7.29450305084746  7.36666666666667 6.86875118644068  7.36666666666667 6.34535050847458  C 7.36666666666667 5.82194983050847  7.874944 5.39619796610169  8.5 5.39619796610169  C 9.125056 5.39619796610169  9.63333333333333 5.82187389830508  9.63333333333333 6.34535050847458  Z " fill-rule="evenodd" />
    </mask>
  </defs>
  <g transform="matrix(1 0 0 1 -1648 -322 )">
    <path d="M 17 4.77993220338983  C 17 3.84520677966102  16.1148213333333 3.08474576271186  15.0265493333333 3.08474576271186  L 12.7346773333333 3.08474576271186  C 12.5780053333333 1.36366644067797  10.74128 0  8.5 0  C 6.25908266666667 0  4.42226666666667 1.36374237288136  4.26532266666667 3.08474576271186  L 1.97345066666667 3.08474576271186  C 0.885450666666667 3.08474576271186  0 3.84528271186441  0 4.77993220338983  L 0 12.304813559322  C 0 13.2396908474576  0.885450666666667 14  1.97345066666667 14  L 15.0265493333333 14  C 16.1148213333333 14  17 13.2396908474576  17 12.304813559322  L 17 4.77993220338983  Z M 4.83226133333333 3.08474576271186  C 4.98893333333333 1.62563254237288  6.57242666666667 0.474576271186441  8.5 0.474576271186441  C 10.4272106666667 0.474576271186441  12.0110666666667 1.62570847457627  12.1677386666667 3.08474576271186  L 4.83226133333333 3.08474576271186  Z M 16.4333333333333 8.53979118644068  L 16.4333333333333 12.304813559322  C 16.4333333333333 12.9777247457627  15.8020213333333 13.5254237288136  15.0265493333333 13.5254237288136  L 1.97345066666667 13.5254237288136  C 1.197616 13.5254237288136  0.566666666666667 12.9778006779661  0.566666666666667 12.304813559322  L 0.566666666666667 8.53979118644068  C 1.0812 9.11634440677966  1.897744 9.49152542372881  2.81828266666667 9.49152542372881  L 14.1817173333333 9.49152542372881  C 15.102528 9.49152542372881  15.9188 9.11611661016949  16.4333333333333 8.53979118644068  Z M 16.4333333333333 7.11864406779661  C 16.4333333333333 8.16529355932203  15.4233066666667 9.01694915254237  14.1817173333333 9  L 2.81828266666667 9  C 1.576784 9.01694915254237  0.566666666666667 8.16529355932203  0.566666666666667 7.11864406779661  L 0.566666666666667 4.77993220338983  C 0.566666666666667 4.10702101694915  1.19770666666667 3.5593220338983  1.97345066666667 3.5593220338983  L 15.0265493333333 3.5593220338983  C 15.8020213333333 3.5593220338983  16.4333333333333 4.10702101694915  16.4333333333333 4.77993220338983  L 16.4333333333333 7.11864406779661  Z M 10.2 6.34535050847458  C 10.2 5.56021152542373  9.43749333333333 4.92162169491525  8.5 4.92162169491525  C 7.56250666666667 4.92162169491525  6.8 5.56013559322034  6.8 6.34535050847458  C 6.8 7.13056542372881  7.56250666666667 7.7690793220339  8.5 7.7690793220339  C 9.43749333333334 7.7690793220339  10.2 7.13048949152542  10.2 6.34535050847458  Z M 9.63333333333333 6.34535050847458  C 9.63333333333333 6.86882711864407  9.125056 7.29450305084746  8.5 7.29450305084746  C 7.874944 7.29450305084746  7.36666666666667 6.86875118644068  7.36666666666667 6.34535050847458  C 7.36666666666667 5.82194983050847  7.874944 5.39619796610169  8.5 5.39619796610169  C 9.125056 5.39619796610169  9.63333333333333 5.82187389830508  9.63333333333333 6.34535050847458  Z " fill-rule="nonzero" fill="#acacac" stroke="none" transform="matrix(1 0 0 1 1648 322 )" />
    <path d="M 17 4.77993220338983  C 17 3.84520677966102  16.1148213333333 3.08474576271186  15.0265493333333 3.08474576271186  L 12.7346773333333 3.08474576271186  C 12.5780053333333 1.36366644067797  10.74128 0  8.5 0  C 6.25908266666667 0  4.42226666666667 1.36374237288136  4.26532266666667 3.08474576271186  L 1.97345066666667 3.08474576271186  C 0.885450666666667 3.08474576271186  0 3.84528271186441  0 4.77993220338983  L 0 12.304813559322  C 0 13.2396908474576  0.885450666666667 14  1.97345066666667 14  L 15.0265493333333 14  C 16.1148213333333 14  17 13.2396908474576  17 12.304813559322  L 17 4.77993220338983  Z " stroke-width="4" stroke="#b6b6b6" fill="none" transform="matrix(1 0 0 1 1648 322 )" mask="url(#clip350)" />
    <path d="M 4.83226133333333 3.08474576271186  C 4.98893333333333 1.62563254237288  6.57242666666667 0.474576271186441  8.5 0.474576271186441  C 10.4272106666667 0.474576271186441  12.0110666666667 1.62570847457627  12.1677386666667 3.08474576271186  L 4.83226133333333 3.08474576271186  Z " stroke-width="4" stroke="#b6b6b6" fill="none" transform="matrix(1 0 0 1 1648 322 )" mask="url(#clip350)" />
    <path d="M 16.4333333333333 8.53979118644068  L 16.4333333333333 12.304813559322  C 16.4333333333333 12.9777247457627  15.8020213333333 13.5254237288136  15.0265493333333 13.5254237288136  L 1.97345066666667 13.5254237288136  C 1.197616 13.5254237288136  0.566666666666667 12.9778006779661  0.566666666666667 12.304813559322  L 0.566666666666667 8.53979118644068  C 1.0812 9.11634440677966  1.897744 9.49152542372881  2.81828266666667 9.49152542372881  L 14.1817173333333 9.49152542372881  C 15.102528 9.49152542372881  15.9188 9.11611661016949  16.4333333333333 8.53979118644068  Z " stroke-width="4" stroke="#b6b6b6" fill="none" transform="matrix(1 0 0 1 1648 322 )" mask="url(#clip350)" />
    <path d="M 16.4333333333333 7.11864406779661  C 16.4333333333333 8.16529355932203  15.4233066666667 9.01694915254237  14.1817173333333 9  L 2.81828266666667 9  C 1.576784 9.01694915254237  0.566666666666667 8.16529355932203  0.566666666666667 7.11864406779661  L 0.566666666666667 4.77993220338983  C 0.566666666666667 4.10702101694915  1.19770666666667 3.5593220338983  1.97345066666667 3.5593220338983  L 15.0265493333333 3.5593220338983  C 15.8020213333333 3.5593220338983  16.4333333333333 4.10702101694915  16.4333333333333 4.77993220338983  L 16.4333333333333 7.11864406779661  Z " stroke-width="4" stroke="#b6b6b6" fill="none" transform="matrix(1 0 0 1 1648 322 )" mask="url(#clip350)" />
    <path d="M 10.2 6.34535050847458  C 10.2 5.56021152542373  9.43749333333333 4.92162169491525  8.5 4.92162169491525  C 7.56250666666667 4.92162169491525  6.8 5.56013559322034  6.8 6.34535050847458  C 6.8 7.13056542372881  7.56250666666667 7.7690793220339  8.5 7.7690793220339  C 9.43749333333334 7.7690793220339  10.2 7.13048949152542  10.2 6.34535050847458  Z " stroke-width="4" stroke="#b6b6b6" fill="none" transform="matrix(1 0 0 1 1648 322 )" mask="url(#clip350)" />
    <path d="M 9.63333333333333 6.34535050847458  C 9.63333333333333 6.86882711864407  9.125056 7.29450305084746  8.5 7.29450305084746  C 7.874944 7.29450305084746  7.36666666666667 6.86875118644068  7.36666666666667 6.34535050847458  C 7.36666666666667 5.82194983050847  7.874944 5.39619796610169  8.5 5.39619796610169  C 9.125056 5.39619796610169  9.63333333333333 5.82187389830508  9.63333333333333 6.34535050847458  Z " stroke-width="4" stroke="#b6b6b6" fill="none" transform="matrix(1 0 0 1 1648 322 )" mask="url(#clip350)" />
  </g>
</svg>