<?xml version="1.0" encoding="utf-8"?>
<svg version="1.1" xmlns:xlink="http://www.w3.org/1999/xlink" width="14px" height="14px" xmlns="http://www.w3.org/2000/svg">
  <g transform="matrix(1 0 0 1 -1647 -416 )">
    <path d="M 6.95172413793104 13.9026086956522  C 7.28965517241379 13.9026086956522  7.57931034482759 13.5617391304348  8.11034482758621 12.9286956521739  C 8.49655172413793 12.4417391304348  8.68965517241379 12.2469565217391  8.73793103448276 12.2469565217391  C 11.8758620689655 11.6626086956522  13.951724137931 9.22782608695652  13.951724137931 6.20869565217391  C 14 2.75130434782609  10.8620689655172 0.0243478260869577  7 0.0243478260869577  C 3.13793103448276 0.0243478260869577  0 2.75130434782609  0 6.20869565217391  C 0 9.22782608695652  2.12413793103448 11.6626086956522  5.21379310344828 12.2469565217391  C 5.26206896551724 12.2469565217391  5.4551724137931 12.4417391304348  5.84137931034483 12.9286956521739  C 6.32413793103448 13.5617391304348  6.61379310344828 13.9026086956522  6.95172413793104 13.9026086956522  Z M 13.3241379310345 6.11130434782609  C 13.2758620689655 8.7895652173913  11.4413793103448 10.8834782608696  8.64137931034483 11.3704347826087  C 8.35172413793103 11.4191304347826  8.15862068965517 11.6626086956522  7.62758620689655 12.344347826087  C 7.28965517241379 12.7339130434783  7 13.0260869565217  7 13.0260869565217  L 6.8551724137931 12.88  C 6.75862068965517 12.7826086956522  6.61379310344827 12.5878260869565  6.46896551724138 12.3930434782609  C 5.88965517241379 11.6626086956522  5.69655172413793 11.4191304347826  5.40689655172414 11.3704347826087  C 2.60689655172414 10.8834782608696  0.772413793103446 8.74086956521739  0.772413793103446 6.11130434782609  C 0.772413793103446 3.1895652173913  3.57241379310345 0.754782608695651  7.04827586206896 0.754782608695651  C 10.5241379310345 0.754782608695651  13.3241379310345 3.1895652173913  13.3241379310345 6.11130434782609  Z M 3.52413793103448 6.30608695652174  C 3.52413793103448 6.70949494770249  3.82673168632126 7.03652173913043  4.2 7.03652173913043  C 4.57326831367874 7.03652173913043  4.87586206896552 6.70949494770249  4.87586206896552 6.30608695652174  C 4.87586206896552 5.90267896534099  4.57326831367874 5.57565217391304  4.2 5.57565217391304  C 3.82673168632126 5.57565217391304  3.52413793103448 5.90267896534099  3.52413793103448 6.30608695652174  Z M 6.32413793103448 6.30608695652174  C 6.32413793103448 6.70949494770249  6.62673168632126 7.03652173913043  7 7.03652173913043  C 7.37326831367874 7.03652173913043  7.67586206896552 6.70949494770249  7.67586206896552 6.30608695652174  C 7.67586206896552 5.90267896534099  7.37326831367874 5.57565217391304  7 5.57565217391304  C 6.62673168632126 5.57565217391304  6.32413793103448 5.90267896534099  6.32413793103448 6.30608695652174  Z M 9.12413793103448 6.30608695652174  C 9.12413793103448 6.70949494770249  9.42673168632126 7.03652173913044  9.8 7.03652173913044  C 10.1732683136787 7.03652173913044  10.4758620689655 6.70949494770249  10.4758620689655 6.30608695652174  C 10.4758620689655 5.90267896534099  10.1732683136787 5.57565217391304  9.8 5.57565217391304  C 9.42673168632126 5.57565217391304  9.12413793103448 5.90267896534098  9.12413793103448 6.30608695652174  Z " fill-rule="nonzero" fill="#bbbbbb" stroke="none" transform="matrix(1 0 0 1 1647 416 )" />
  </g>
</svg>