<?xml version="1.0" encoding="utf-8"?>
<svg version="1.1" xmlns:xlink="http://www.w3.org/1999/xlink" width="12px" height="7px" xmlns="http://www.w3.org/2000/svg">
  <g transform="matrix(1 0 0 1 -1811 -480 )">
    <path d="M 7.64654545454546 5.40878048780488  C 7.27418181818182 5.79121951219512  7.27418181818182 6.33756097560976  7.63490909090909 6.68721951219512  C 7.82109090909091 6.86204878048781  8.05381818181818 6.93853658536585  8.29818181818182 6.93853658536585  C 8.54254545454545 6.93853658536585  8.77527272727273 6.85112195121951  8.96145454545455 6.68721951219512  L 11.696 4.11941463414634  L 11.7076363636364 4.10848780487805  L 11.7658181818182 4.05385365853659  C 11.7774545454545 4.0429268292683  11.7890909090909 4.032  11.7890909090909 4.02107317073171  C 11.8007272727273 4.01014634146342  11.8123636363636 3.99921951219513  11.8123636363636 3.98829268292683  C 11.824 3.97736585365854  11.8356363636364 3.96643902439025  11.8356363636364 3.94458536585366  C 11.8472727272727 3.93365853658537  11.8472727272727 3.92273170731708  11.8589090909091 3.91180487804878  C 11.8705454545455 3.90087804878049  11.8705454545455 3.87902439024391  11.8821818181818 3.86809756097561  C 11.8938181818182 3.85717073170732  11.8938181818182 3.84624390243903  11.9054545454545 3.83531707317074  C 11.9170909090909 3.82439024390244  11.9170909090909 3.80253658536586  11.9170909090909 3.79160975609756  C 11.9170909090909 3.78068292682927  11.9287272727273 3.76975609756098  11.9287272727273 3.74790243902439  C 11.9287272727273 3.7369756097561  11.9403636363636 3.71512195121952  11.9403636363636 3.70419512195122  C 11.9403636363636 3.69326829268293  11.952 3.68234146341464  11.952 3.66048780487805  C 11.952 3.63863414634147  11.952 3.62770731707317  11.9636363636364 3.60585365853659  L 11.9636363636364 3.57307317073171  C 11.9752727272727 3.51843902439025  11.9752727272727 3.45287804878049  11.9636363636364 3.39824390243903  L 11.9636363636364 3.36546341463415  C 11.9636363636364 3.34360975609756  11.9636363636364 3.33268292682927  11.952 3.31082926829269  C 11.952 3.29990243902439  11.9403636363636 3.2889756097561  11.9403636363636 3.26712195121952  C 11.9403636363636 3.25619512195122  11.9287272727273 3.23434146341464  11.9287272727273 3.22341463414634  C 11.9287272727273 3.21248780487805  11.9170909090909 3.20156097560976  11.9170909090909 3.17970731707317  C 11.9170909090909 3.16878048780488  11.9054545454545 3.1469268292683  11.9054545454545 3.136  C 11.9054545454545 3.12507317073171  11.8938181818182 3.11414634146342  11.8821818181818 3.10321951219512  C 11.8705454545455 3.09229268292683  11.8705454545455 3.07043902439025  11.8589090909091 3.05951219512195  C 11.8472727272727 3.04858536585366  11.8472727272727 3.03765853658537  11.8356363636364 3.02673170731708  C 11.824 3.01580487804878  11.824 3.00487804878049  11.8123636363636 2.98302439024391  C 11.8007272727273 2.97209756097561  11.7890909090909 2.96117073170732  11.7890909090909 2.95024390243903  C 11.7774545454545 2.93931707317073  11.7774545454545 2.92839024390244  11.7658181818182 2.91746341463415  C 11.7541818181818 2.89560975609756  11.7309090909091 2.87375609756098  11.7076363636364 2.86282926829269  L 11.696 2.85190243902439  L 8.96145454545455 0.284097560975612  C 8.60072727272728 -0.054634146341461  8.00727272727273 -0.054634146341461  7.64654545454546 0.284097560975612  C 7.28581818181819 0.622829268292686  7.28581818181819 1.18009756097561  7.64654545454546 1.51882926829269  L 8.78690909090909 2.58965853658537  L 0.967272727272731 2.58965853658537  C 0.455272727272731 2.58965853658537  0.0363636363636408 2.98302439024391  0.0363636363636408 3.46380487804878  C 0.0363636363636408 3.94458536585366  0.455272727272732 4.3379512195122  0.967272727272731 4.3379512195122  L 8.7869090909091 4.3379512195122  L 7.64654545454546 5.40878048780488  Z " fill-rule="nonzero" fill="#c2c2c2" stroke="none" transform="matrix(1 0 0 1 1811 480 )" />
  </g>
</svg>