<?xml version="1.0" encoding="utf-8"?>
<svg version="1.1" xmlns:xlink="http://www.w3.org/1999/xlink" width="13px" height="15px" xmlns="http://www.w3.org/2000/svg">
  <g transform="matrix(1 0 0 1 -1514 -415 )">
    <path d="M 3.09636363636364 7.68679245283019  L 3.09636363636364 6.95094176886792  L 9.91545624431818 6.95094176886792  L 9.91545624431818 7.68679245283019  L 3.09636363636364 7.68679245283019  Z M 3.09636363636364 10.9471698113208  L 3.09636363636364 10.2113191273585  L 7.26818351704546 10.2113191273585  L 7.26818351704546 10.9471698113208  L 3.09636363636364 10.9471698113208  Z M 12.00551178125 14.8298568396226  C 11.8187022798295 14.9055421698113  11.6204856661932 14.9439192275943  11.41635909375 14.9439192275943  L 1.58363636363636 14.9439192275943  C 1.37951433380682 14.9439192275943  1.18129317755682 14.9055421698113  0.994488237215909 14.8298568573113  C 0.814241833806818 14.7568261733491  0.65244641903409 14.6523569752359  0.513592274147727 14.5193472169811  C 0.374738129261364 14.3863417924528  0.265678617897727 14.2313519929245  0.189439028409091 14.058696509434  C 0.110428149147727 13.8797498349057  0.0703648267045451 13.6898718042453  0.0703648267045451 13.4943412676887  L 0.0703648082386366 3.69056441037736  C 0.0703648082386366 3.49503387382075  0.110428130681818 3.30515584316038  0.189439009943182 3.12620916863207  C 0.265674075284091 2.95355366745283  0.374738129261364 2.79856388561321  0.513592255681819 2.66555846108491  C 0.652446400568182 2.53254868514151  0.81424181534091 2.42807515330189  0.994483676136364 2.35504882075472  C 1.18129315909091 2.27935915683962  1.37951431534091 2.2409864504717  1.58363634517046 2.2409864504717  L 3.07332257670455 2.24098643278302  L 3.07332257670455 2.96655746462264  L 1.58363636363636 2.96655746462264  C 1.16687436789773 2.96655746462264  0.827817009943182 3.29134392099057  0.827817009943182 3.69056439268868  L 0.827817009943182 13.4943412323113  C 0.827817009943182 13.8935617216981  1.16687438636364 14.2183481603774  1.58363636363636 14.2183481603774  L 11.41635909375 14.2183481603774  C 11.8331210894886 14.2183481603774  12.1721829900568 13.8935617040094  12.1721829900568 13.4943412323113  L 12.1721829900568 3.69056441037736  C 12.1721829900568 3.29134392099057  11.8331210894886 2.96655748231132  11.41635909375 2.96655748231132  L 9.93121307528409 2.96655748231132  L 9.93121307528409 2.2409864504717  L 11.4163591122159 2.2409864504717  C 11.6204856661932 2.2409864504717  11.8187022982955 2.27936350825472  12.00551178125 2.35504882075472  C 12.1857536605114 2.42807515330189  12.3475535994318 2.53254870283019  12.4864077443182 2.66555846108491  C 12.6252573465909 2.7985682370283  12.7343168579545 2.95355368514151  12.8105609900568 3.12620916863208  C 12.8895718693182 3.30515584316038  12.9296351917614 3.49503387382076  12.9296351917614 3.69056441037736  L 12.9296351917614 13.49434125  C 12.9296351917614 13.6898717865566  12.8895718693182 13.879749817217  12.8105609900568 14.0586964917453  C 12.7343168579545 14.2313519929245  12.6252618707386 14.3863417747642  12.4864077443182 14.5193471992925  C 12.3475490752841 14.6523569752359  12.1857536605114 14.7568261733491  12.00551178125 14.8298568396226  Z M 10.2823624644886 4.41561408608491  L 2.71763753551136 4.41561408608491  L 2.71763753551136 2.06037573113208  C 2.71763753551136 1.56070492924528  3.14201032954545 1.15419397995283  3.66363636363636 1.15419397995283  L 4.640436734375 1.15419397995283  C 4.98969022869318 0.48802852004717  5.70612207528409 0.0560834964622644  6.5 0.0560834964622644  C 7.29388246732954 0.0560834964622644  8.01030977130682 0.488028537735849  8.35955874147727 1.15419397995283  L 9.33635911221591 1.15419397995283  C 9.85798514630682 1.15419397995283  10.2823579403409 1.56070492924528  10.2823579403409 2.06037573113208  L 10.282357921875 4.41561408608491  Z M 3.47508973721591 2.06037573113208  L 3.47508973721591 3.6900430365566  L 9.52491028125 3.6900430365566  L 9.52491028125 2.06037573113208  C 9.52491028125 1.96078567216981  9.440329640625 1.87976502948113  9.33636365482955 1.87976502948113  L 7.839134671875 1.87976502948113  L 7.75106611647727 1.63533882665094  C 7.56709140909091 1.12472363207547  7.06432458948864 0.781654528301886  6.50000001846591 0.781654528301886  C 5.93567546590909 0.781654528301886  5.43290862784091 1.12472363207547  5.24892939630682 1.63533882665094  L 5.16086084090909 1.87976502948113  L 3.66363636363636 1.87976502948113  C 3.55967037784091 1.87976502948113  3.47508973721591 1.96078567216981  3.47508973721591 2.06037573113208  Z " fill-rule="nonzero" fill="#b8b8b8" stroke="none" transform="matrix(1 0 0 1 1514 415 )" />
  </g>
</svg>