<?xml version="1.0" encoding="utf-8"?>
<svg version="1.1" xmlns:xlink="http://www.w3.org/1999/xlink" width="21px" height="14px" xmlns="http://www.w3.org/2000/svg">
  <g transform="matrix(1 0 0 1 -1785 -322 )">
    <path d="M 20.8480263157895 4.91627906976744  C 20.8457236842105 4.68837209302326  20.7052631578947 4.48488372093023  20.4796052631579 4.38110465116279  L 11.2921052631579 0.217732558139535  C 10.7463815789474 -0.0284883720930228  10.0970394736842 -0.0284883720930228  9.55361842105263 0.221802325581395  L 0.488157894736842 4.38313953488372  C 0.2625 4.48691860465116  0.124342105263158 4.69040697674419  0.124342105263158 4.91424418604651  C 0.124342105263158 5.13808139534884  0.264802631578947 5.34156976744186  0.488157894736842 5.4453488372093  L 1.35164473684211 5.8421511627907  L 1.35164473684211 9.7796511627907  C 1.01085526315789 9.94854651162791  0.775986842105263 10.268023255814  0.775986842105263 10.6383720930233  C 0.775986842105263 11.1837209302326  1.27565789473684 11.6252906976744  1.89276315789474 11.6252906976744  C 2.50986842105263 11.6252906976744  3.00953947368421 11.1837209302326  3.00953947368421 10.6383720930233  C 3.00953947368421 10.268023255814  2.77697368421053 9.94854651162791  2.43388157894737 9.7796511627907  L 2.43388157894737 6.3406976744186  L 4.84013157894737 7.44563953488372  L 4.84013157894737 11.7616279069767  C 4.84013157894737 12.2845930232558  5.22006578947368 12.7424418604651  5.78421052631579 12.9011627906977  L 8.65789473684211 13.709011627907  C 9.24736842105263 13.8738372093023  9.85526315789474 13.9572674418605  10.4608552631579 13.9572674418605  C 11.0434210526316 13.9572674418605  11.6259868421053 13.881976744186  12.1924342105263 13.7293604651163  L 15.2802631578947 12.8991279069767  C 15.8513157894737 12.744476744186  16.2381578947368 12.2866279069767  16.2404605263158 11.7595930232558  L 16.2588815789474 7.36017441860465  L 20.4796052631579 5.44738372093023  C 20.7075657894737 5.34360465116279  20.8480263157895 5.14011627906977  20.8480263157895 4.91627906976744  Z M 15.1720394736842 7.85058139534884  L 15.1559210526316 11.755523255814  C 15.1559210526316 11.8613372093023  15.0776315789474 11.9529069767442  14.9648026315789 11.9834302325581  L 11.8769736842105 12.8136627906977  C 10.9282894736842 13.068023255814  9.92894736842105 13.0619186046512  8.98256578947369 12.7973837209302  L 6.11118421052632 11.9915697674419  C 5.9983552631579 11.959011627907  5.92236842105263 11.8674418604651  5.92236842105263 11.7636627906977  L 5.92236842105263 7.93808139534884  L 9.55361842105263 9.6046511627907  C 9.82763157894737 9.73081395348837  10.1269736842105 9.79389534883721  10.4263157894737 9.79389534883721  C 10.7233552631579 9.79389534883721  11.0203947368421 9.7328488372093  11.2921052631579 9.60872093023256  L 15.1720394736842 7.85058139534884  Z M 19.2799342105263 4.91220930232558  L 10.7993421052632 8.75813953488372  C 10.5667763157895 8.86395348837209  10.2881578947368 8.86395348837209  10.0555921052632 8.75610465116279  L 1.68092105263158 4.91220930232558  L 10.0532894736842 1.0703488372093  C 10.2858552631579 0.962499999999999  10.5644736842105 0.962499999999999  10.7970394736842 1.06831395348837  L 19.2799342105263 4.91220930232558  Z " fill-rule="nonzero" fill="#cbcbcb" stroke="none" transform="matrix(1 0 0 1 1785 322 )" />
  </g>
</svg>