<?xml version="1.0" encoding="utf-8"?>
<svg version="1.1" xmlns:xlink="http://www.w3.org/1999/xlink" width="15px" height="10px" xmlns="http://www.w3.org/2000/svg">
  <g transform="matrix(1 0 0 1 -636 -147 )">
    <path d="M 14.4828063841105 10  C 14.4828063841105 10  12.9312265230086 10  12.9312265230086 10  C 12.6453975231133 10  12.4140338936855 9.76457774092449  12.4140338936855 9.47373366447755  C 12.4140338936855 9.47373366447755  12.4140338936855 0.526265927699063  12.4140338936855 0.526265927699063  C 12.4140338936855 0.235422290446543  12.6453975231133 0  12.9312265230086 0  C 12.9312265230086 0  14.4828063841105 0  14.4828063841105 0  C 14.7686353840058 0  15 0.235422290446543  15 0.526265927699063  C 15 0.526265927699063  15 9.47373366447755  15 9.47373366447755  C 15 9.76457774092449  14.7686353840058 10  14.4828063841105 10  Z M 10.3447947573599 10  C 10.3447947573599 10  8.79321588282433 10  8.79321588282433 10  C 8.50738589636265 10  8.27602226693487 9.76457774092449  8.27602226693487 9.47373366447755  C 8.27602226693487 9.47373366447755  8.27602226693487 3.15806908051262  8.27602226693487 3.15806908051262  C 8.27602226693487 2.86722550600216  8.50738589636265 2.63180324692664  8.79321588282433 2.63180324692664  C 8.79321588282433 2.63180324692664  10.3447947573599 2.63180324692664  10.3447947573599 2.63180324692664  C 10.6306247438216 2.63180324692664  10.8619883732494 2.86722550600216  10.8619883732494 3.15806908051262  C 10.8619883732494 3.15806908051262  10.8619883732494 9.47373366447755  10.8619883732494 9.47373366447755  C 10.8619883732494 9.76457774092449  10.6306247438216 10  10.3447947573599 10  Z M 6.20678411717567 10  C 6.20678411717567 10  4.6552042560737 10  4.6552042560737 10  C 4.36937476289521 10  4.13801113346744 9.76457774092449  4.13801113346744 9.47373366447755  C 4.13801113346744 9.47373366447755  4.13801113346744 5.26313266582475  4.13801113346744 5.26313266582475  C 4.13801113346744 4.97228909131429  4.36937476289521 4.73686683223878  4.6552042560737 4.73686683223878  C 4.6552042560737 4.73686683223878  6.20678411717567 4.73686683223878  6.20678411717567 4.73686683223878  C 6.49261361035416 4.73686683223878  6.72397723978194 4.97228909131429  6.72397723978194 5.26313266582475  C 6.72397723978194 5.26313266582475  6.72397723978194 9.47373366447755  6.72397723978194 9.47373366447755  C 6.72397723978194 9.76457774092449  6.49261361035416 10  6.20678411717567 10  Z M 2.06877286038744 10  C 2.06877286038744 10  0.51719321509686 10  0.51719321509686 10  C 0.231363660257975 10  0 9.76457774092449  0 9.47373366447755  C 0 9.47373366447755  0 7.36867033013366  0 7.36867033013366  C 0 7.07782675562319  0.231363660257975 6.84193066851915  0.51719321509686 6.84193066851915  C 0.51719321509686 6.84193066851915  2.06877286038744 6.84193066851915  2.06877286038744 6.84193066851915  C 2.35460247688672 6.84193066851915  2.58643151900706 7.07782675562319  2.58643151900706 7.36867033013366  C 2.58643151900706 7.36867033013366  2.58643151900706 9.47373366447755  2.58643151900706 9.47373366447755  C 2.58643151900706 9.76457774092449  2.35460247688672 10  2.06877286038744 10  Z " fill-rule="nonzero" fill="#000000" stroke="none" transform="matrix(1 0 0 1 636 147 )" />
  </g>
</svg>