<?xml version="1.0" encoding="utf-8"?>
<svg version="1.1" xmlns:xlink="http://www.w3.org/1999/xlink" width="22px" height="11px" xmlns="http://www.w3.org/2000/svg">
  <defs>
    <mask fill="white" id="clip13">
      <path d="M 0 8.38095238095238  C 0 8.38095238095238  0 2.61904761904762  0 2.61904761904762  C 0 1.17258751960028  1.11928808689117 0  2.5 0  C 2.5 0  19.5 0  19.5 0  C 20.8807125091553 0  22 1.17258751960028  22 2.61904761904762  C 22 2.61904761904762  22 9.1502556573777  22 9.1502556573777  C 22 10.1718414851597  21.2094841003418 11  20.2343349456787 11  C 20.2343349456787 11  18.4686698913574 11  18.4686698913574 11  L 0 11  C 0 11  2.5 11  2.5 11  C 1.11928808689117 11  0 9.82741210574195  0 8.38095238095238  Z " fill-rule="evenodd" />
    </mask>
  </defs>
  <g transform="matrix(1 0 0 1 -975 -147 )">
    <path d="M 0 8.38095238095238  C 0 8.38095238095238  0 2.61904761904762  0 2.61904761904762  C 0 1.17258751960028  1.11928808689117 0  2.5 0  C 2.5 0  19.5 0  19.5 0  C 20.8807125091553 0  22 1.17258751960028  22 2.61904761904762  C 22 2.61904761904762  22 9.1502556573777  22 9.1502556573777  C 22 10.1718414851597  21.2094841003418 11  20.2343349456787 11  C 20.2343349456787 11  18.4686698913574 11  18.4686698913574 11  L 0 11  C 0 11  2.5 11  2.5 11  C 1.11928808689117 11  0 9.82741210574195  0 8.38095238095238  Z " fill-rule="nonzero" fill="#ffffff" stroke="none" fill-opacity="0" transform="matrix(1 0 0 1 975 147 )" />
    <path d="M 0 8.38095238095238  C 0 8.38095238095238  0 2.61904761904762  0 2.61904761904762  C 0 1.17258751960028  1.11928808689117 0  2.5 0  C 2.5 0  19.5 0  19.5 0  C 20.8807125091553 0  22 1.17258751960028  22 2.61904761904762  C 22 2.61904761904762  22 9.1502556573777  22 9.1502556573777  C 22 10.1718414851597  21.2094841003418 11  20.2343349456787 11  C 20.2343349456787 11  18.4686698913574 11  18.4686698913574 11  L 0 11  C 0 11  2.5 11  2.5 11  C 1.11928808689117 11  0 9.82741210574195  0 8.38095238095238  Z " stroke-width="2" stroke="#000000" fill="none" transform="matrix(1 0 0 1 975 147 )" mask="url(#clip13)" />
  </g>
</svg>