<?xml version="1.0" encoding="utf-8"?>
<svg version="1.1" xmlns:xlink="http://www.w3.org/1999/xlink" width="5px" height="5px" xmlns="http://www.w3.org/2000/svg">
  <g transform="matrix(1 0 0 1 -69 -267 )">
    <path d="M 2.6 4.87272727272727  C 1.36656405871123 4.87272727272727  0.366666666666668 3.78193011776957  0.366666666666668 2.43636363636364  C 0.366666666666668 1.0907971549577  1.36656405871123 0  2.6 0  C 3.83343594128877 0  4.83333333333333 1.0907971549577  4.83333333333333 2.43636363636364  C 4.83333333333333 3.78193011776957  3.83343594128877 4.87272727272727  2.6 4.87272727272727  Z M 2.6 3.45454545454545  C 3.1 3.45454545454545  3.53333333333334 3.01818181818182  3.53333333333334 2.43636363636364  C 3.53333333333334 1.85454545454545  3.1 1.41818181818182  2.6 1.41818181818182  C 2.1 1.41818181818182  1.66666666666667 1.8909090909091  1.66666666666667 2.43636363636364  C 1.66666666666667 2.98181818181818  2.1 3.45454545454545  2.6 3.45454545454545  Z " fill-rule="nonzero" fill="#1890ff" stroke="none" transform="matrix(1 0 0 1 69 267 )" />
  </g>
</svg>