<?xml version="1.0" encoding="utf-8"?>
<svg version="1.1" xmlns:xlink="http://www.w3.org/1999/xlink" width="18px" height="16px" xmlns="http://www.w3.org/2000/svg">
  <g transform="matrix(1 0 0 1 -65 -242 )">
    <path d="M 16.3914893617021 9.58511627906976  C 17.188085106383 9.22790697674419  17.8008510638298 8.36465116279069  17.8008510638298 7.38232558139535  C 17.8008510638298 6.4893023255814  17.28 5.68558139534884  16.5446808510638 5.26883720930233  L 16.3608510638298 5.26883720930233  C 16.4834042553191 4.97116279069768  16.5446808510638 4.67348837209302  16.5446808510638 4.31627906976744  C 16.5446808510638 2.97674418604651  15.4110638297872 1.8753488372093  14.0323404255319 1.8753488372093  L 13.9404255319149 1.8753488372093  C 13.6646808510638 0.833488372093024  12.6842553191489 0.0297674418604645  11.52 0.0297674418604645  C 10.1412765957447 0.0297674418604645  9.00765957446809 1.13116279069767  9.00765957446809 2.4706976744186  C 9.00765957446809 1.13116279069767  7.87404255319149 0.0297674418604645  6.49531914893617 0.0297674418604645  C 5.33106382978724 0.0297674418604645  4.35063829787234 0.803720930232557  4.07489361702128 1.8753488372093  L 3.98297872340425 1.8753488372093  C 2.60425531914894 1.8753488372093  1.47063829787234 2.97674418604651  1.47063829787234 4.31627906976744  C 1.47063829787234 4.64372093023256  1.53191489361702 4.97116279069767  1.65446808510638 5.23906976744186  L 1.47063829787234 5.23906976744186  C 0.704680851063828 5.65581395348837  0.214468085106381 6.45953488372093  0.214468085106381 7.35255813953488  C 0.214468085106381 8.33488372093023  0.82723404255319 9.19813953488372  1.68510638297872 9.58511627906976  C 1.56255319148936 9.82325581395349  1.47063829787234 10.1209302325581  1.47063829787234 10.4186046511628  C 1.47063829787234 11.2223255813953  1.99148936170212 11.906976744186  2.72680851063829 12.1451162790698  L 2.81872340425532 12.1451162790698  C 2.75744680851064 12.3832558139535  2.72680851063829 12.6213953488372  2.72680851063829 12.8595348837209  C 2.72680851063829 14.5562790697674  4.13617021276595 15.9255813953488  5.88255319148936 15.9255813953488  C 7.62893617021276 15.9255813953488  9.03829787234042 14.5562790697674  9.03829787234042 12.8595348837209  C 9.03829787234042 14.5562790697674  10.4476595744681 15.9255813953488  12.1940425531915 15.9255813953488  C 13.9404255319149 15.9255813953488  15.3497872340425 14.5562790697674  15.3497872340425 12.8595348837209  C 15.3497872340425 12.6213953488372  15.3191489361702 12.3832558139535  15.2578723404255 12.1451162790698  L 15.3497872340425 12.1451162790698  C 16.0851063829787 11.906976744186  16.6059574468085 11.2223255813953  16.6059574468085 10.4186046511628  C 16.6059574468085 10.1209302325581  16.5140425531915 9.82325581395349  16.3914893617021 9.58511627906976  Z M 11.52 5.03069767441861  L 11.52 4.94139534883721  L 11.52 5.03069767441861  Z " fill-rule="nonzero" fill="#1890ff" stroke="none" transform="matrix(1 0 0 1 65 242 )" />
  </g>
</svg>