<?xml version="1.0" encoding="utf-8"?>
<svg version="1.1" xmlns:xlink="http://www.w3.org/1999/xlink" width="28px" height="27px" xmlns="http://www.w3.org/2000/svg">
  <g transform="matrix(1 0 0 1 -60 -236 )">
    <path d="M 28 24.8554285714286  C 27.9386301369863 25.8428571428571  27.1408219178082 26.676  26.0975342465753 26.676  L 1.85643835616438 26.676  C 0.843835616438357 26.676  0.0153424657534257 25.8428571428571  0 24.8245714285714  L 0 5.81657142857143  C 0.0153424657534257 4.95257142857143  0.475616438356165 3.87257142857143  1.0586301369863 3.28628571428571  L 3.2372602739726 1.09542857142857  C 3.82027397260274 0.509142857142856  4.92493150684931 0.0462857142857133  5.75342465753425 0  L 26.0668493150685 0  C 27.0794520547945 0.0462857142857133  27.9079452054795 0.87942857142857  28 1.89771428571428  L 28 24.8554285714286  Z M 26.158904109589 1.24971428571429  L 5.81479452054794 1.24971428571429  C 5.29315068493151 1.24971428571429  4.52602739726027 1.58914285714286  4.15780821917808 1.92857142857143  L 1.97917808219178 4.11942857142857  C 1.61095890410959 4.48971428571429  1.3041095890411 5.292  1.3041095890411 5.78571428571429  L 1.3041095890411 24.7937142857143  C 1.3041095890411 25.1331428571429  1.58027397260274 25.4108571428571  1.91780821917808 25  L 26.158904109589 25  C 26.4964383561644 25.4108571428571  26.772602739726 25.1331428571429  26.772602739726 24.7937142857143  L 26.772602739726 1.86685714285714  C 26.772602739726 1.52742857142857  26.4964383561644 1.24971428571429  26.158904109589 1.24971428571429  Z " fill-rule="nonzero" fill="#1890ff" stroke="none" transform="matrix(1 0 0 1 60 236 )" />
  </g>
</svg>