<?xml version="1.0" encoding="utf-8"?>
<svg version="1.1" xmlns:xlink="http://www.w3.org/1999/xlink" width="41px" height="19px" xmlns="http://www.w3.org/2000/svg">
  <g transform="matrix(1 0 0 1 -55 -240 )">
    <path d="M 38.9838531260349 18.7317647058823  C 37.870366001055 18.7317647058823  36.9677063370441 17.8377388024072  36.9677063370441 16.7349019607843  C 36.9677063370441 15.6320651191614  37.870366001055 14.7380392156863  38.9838531260349 14.7380392156863  C 40.0973402510149 14.7380392156863  40.9999999150258 15.6320651191614  40.9999999150258 16.7349019607843  C 40.9999999150258 17.8377388024072  40.0973402510149 18.7317647058823  38.9838531260349 18.7317647058823  Z M 39.8264220183486 16.7349019607843  C 39.8264220183486 16.2878431372549  39.4653211009174 15.9003921568627  38.9838532110092 15.9003921568627  C 38.5023853211009 15.9003921568627  38.1412844036697 16.2878431372549  38.1412844036697 16.7349019607843  C 38.1412844036697 17.1819607843137  38.5324770642202 17.5694117647059  38.9838532110092 17.5694117647059  C 39.4352293577982 17.5694117647059  39.8264220183486 17.1819607843137  39.8264220183486 16.7349019607843  Z M 3.2348623853211 1.35607843137255  C 3.56587155963303 1.38588235294118  3.83669724770642 1.11764705882353  3.83669724770642 0.789803921568626  C 3.83669724770642 0.461960784313724  3.56587155963303 0.223529411764704  3.26495412844037 0.223529411764704  L 0.64697247706422 0.223529411764704  C 0.315963302752293 0.223529411764704  0.0752293577981649 0.49176470588235  0.0752293577981649 0.789803921568626  C 0.0752293577981649 1.11764705882353  0.34605504587156 1.35607843137255  0.64697247706422 1.35607843137255  L 3.2348623853211 1.35607843137255  Z " fill-rule="nonzero" fill="#1890ff" stroke="none" transform="matrix(1 0 0 1 55 240 )" />
  </g>
</svg>