<?xml version="1.0" encoding="utf-8"?>
<svg version="1.1" xmlns:xlink="http://www.w3.org/1999/xlink" width="5px" height="5px" xmlns="http://www.w3.org/2000/svg">
  <g transform="matrix(1 0 0 1 -75 -228 )">
    <path d="M 2.45454545454546 0.0181818181818178  C 3.80011193595139 0.0181818181818178  4.89090909090909 1.10897897313952  4.89090909090909 2.45454545454546  C 4.89090909090909 3.80011193595139  3.80011193595139 4.89090909090909  2.45454545454546 4.89090909090909  C 1.10897900944417 4.89090909090909  0.018181854486466 3.80011193595139  0.018181854486466 2.45454545454546  C 0.018181854486466 1.10897897313952  1.10897900944417 0.0181818181818178  2.4545454908501 0.0181818181818178  Z M 3.47272727272727 2.45454545454546  C 3.47272727272727 1.90909090909091  3.03636363636364 1.43636363636364  2.45454545454546 1.43636363636364  C 1.87272727272727 1.43636363636364  1.43636363636364 1.90909090909091  1.43636363636364 2.45454545454546  C 1.43636363636364 3  1.90909090909092 3.47272727272727  2.45454545454546 3.47272727272727  C 3 3.47272727272727  3.47272727272727 3  3.47272727272727 2.45454545454546  Z " fill-rule="nonzero" fill="#1890ff" stroke="none" transform="matrix(1 0 0 1 75 228 )" />
  </g>
</svg>