<?xml version="1.0" encoding="utf-8"?>
<svg version="1.1" xmlns:xlink="http://www.w3.org/1999/xlink" width="5px" height="5px" xmlns="http://www.w3.org/2000/svg">
  <g transform="matrix(1 0 0 1 -75 -267 )">
    <path d="M 2.45454545454545 4.8166665725387  C 1.10897901324053 4.8166665725387  0.0181818748932017 3.81676923786285  0.018181818181821 2.58333333333333  C 0.0181818181818146 1.3498972979166  1.10897897313952 0.349999905872037  2.45454545454545 0.349999905872037  C 3.80011193595138 0.349999905872037  4.89090909090909 1.3498972979166  4.89090909090909 2.58333323920537  C 4.89090909090909 3.81676918049414  3.80011193595138 4.8166665725387  2.45454545454545 4.8166665725387  Z M 2.49090909090909 3.51666666666667  C 3.03636363636363 3.51666666666667  3.50909090909091 3.08333333333333  3.50909090909091 2.58333333333333  C 3.50909090909091 2.05  3.03636363636363 1.65  2.49090909090909 1.65  C 1.94545454545455 1.65  1.47272727272728 2.08333333333334  1.47272727272728 2.58333333333333  C 1.47272727272728 3.08333333333333  1.94545454545455 3.51666666666667  2.49090909090909 3.51666666666667  Z " fill-rule="nonzero" fill="#1890ff" stroke="none" transform="matrix(1 0 0 1 75 267 )" />
  </g>
</svg>