<?xml version="1.0" encoding="utf-8"?>
<svg version="1.1" xmlns:xlink="http://www.w3.org/1999/xlink" width="18px" height="17px" xmlns="http://www.w3.org/2000/svg">
  <g transform="matrix(1 0 0 1 -65 -241 )">
    <path d="M 3.81 2.00977777777778  C 2.28 2.19111111111111  1.17 3.43022222222222  1.17 4.94133333333333  C 1.17 5.12266666666666  1.2 5.304  1.23 5.48533333333333  C 0.450000000000001 6.02933333333333  0 6.936  0 7.90311111111111  C 0 8.87022222222222  0.48 9.77688888888889  1.23 10.3208888888889  C 1.2 10.5022222222222  1.17 10.6835555555556  1.17 10.8648888888889  C 1.17 11.7111111111111  1.65 12.4968888888889  2.37 12.92  C 2.37 13.0106666666667  2.34 13.1315555555556  2.34 13.2222222222222  C 2.34 15.1866666666667  3.93 16.7884444444444  5.88 16.7884444444444  C 7.11 16.7884444444444  8.19 16.1537777777778  8.82 15.1866666666667  C 9.45 16.1537777777778  10.53 16.7884444444444  11.76 16.7884444444444  C 13.71 16.7884444444444  15.3 15.1866666666667  15.3 13.2222222222222  C 15.3 13.1315555555556  15.3 13.0106666666667  15.27 12.92  C 15.99 12.4968888888889  16.47 11.7111111111111  16.47 10.8648888888889  C 16.47 10.6835555555556  16.44 10.5022222222222  16.41 10.3208888888889  C 17.19 9.77688888888889  17.64 8.87022222222222  17.64 7.90311111111111  C 17.64 6.936  17.16 6.05955555555555  16.41 5.48533333333333  C 16.44 5.304  16.47 5.12266666666666  16.47 4.94133333333333  C 16.47 3.43022222222222  15.33 2.19111111111111  13.89 2.00977777777778  C 13.44 0.952000000000001  12.39 0.196444444444446  11.19 0.196444444444446  C 10.23 0.196444444444446  9.36 0.680000000000002  8.85 1.40533333333334  C 8.31 0.680000000000002  7.47 0.196444444444446  6.51 0.196444444444446  C 5.28 0.196444444444446  4.26 0.952000000000001  3.81 2.00977777777778  Z M 9.45 3.15822222222222  C 9.39 2.19111111111111  10.2 1.37511111111111  11.16 1.37511111111111  C 12.12 1.37511111111111  12.93 2.16088888888889  12.93 3.15822222222222  C 12.93 4.12533333333333  12.15 4.94133333333333  11.19 4.94133333333333  L 11.19 6.12  C 12.78 6.12  14.04 4.85066666666667  14.1 3.27911111111111  C 14.79 3.52088888888889  15.3 4.18577777777777  15.3 4.94133333333333  C 15.3 5.90844444444444  14.52 6.69422222222222  13.56 6.69422222222222  L 13.56 7.87288888888888  C 14.55 7.87288888888888  15.42 7.38933333333333  15.96 6.63377777777777  C 16.29 6.96622222222222  16.5 7.41955555555555  16.5 7.90311111111111  C 16.5 8.59822222222222  16.08 9.23288888888888  15.45 9.50488888888888  L 14.88 9.77688888888888  L 15.15 10.3208888888889  C 15.24 10.5022222222222  15.3 10.6835555555555  15.3 10.8648888888889  C 15.3 11.1973333333333  15.15 11.4693333333333  14.94 11.6808888888889  C 14.37 10.5022222222222  13.17 9.59555555555556  11.79 9.59555555555556  L 11.79 10.8044444444444  C 13.08 10.8044444444444  14.13 11.9528888888889  14.13 13.2524444444444  C 14.13 14.552  13.08 15.6097777777778  11.79 15.6097777777778  C 10.5 15.6097777777778  9.45 14.552  9.45 13.2524444444444  L 9.45 3.15822222222222  Z M 2.34 4.94133333333333  C 2.34 4.15555555555556  2.84999999999999 3.49066666666667  3.54 3.24888888888889  C 3.6 4.82044444444445  4.95 6.12  6.54 6.12  L 6.57 4.94133333333334  C 5.61 4.94133333333334  4.71 4.12533333333333  4.71 3.15822222222222  C 4.71 2.19111111111112  5.49 1.37511111111111  6.48 1.37511111111111  C 7.47 1.37511111111111  8.25 2.16088888888889  8.25 3.15822222222222  L 8.25 13.2222222222222  C 8.25 14.5217777777778  7.2 15.5795555555556  5.91 15.5795555555556  C 4.62 15.5795555555556  3.57 14.5217777777778  3.57 13.2222222222222  C 3.57 11.9226666666667  4.74 10.8044444444444  6.03 10.8044444444444  L 6.03 9.59555555555555  C 4.62 9.59555555555555  3.3 10.472  2.73 11.6506666666667  C 2.52 11.4391111111111  2.37 11.1368888888889  2.37 10.8346666666667  C 2.37 10.6533333333333  2.43 10.472  2.52 10.2906666666667  L 2.79 9.74666666666667  L 2.21999999999999 9.47466666666667  C 1.59 9.17244444444444  1.17 8.53777777777778  1.17 7.87288888888889  C 1.17 7.38933333333333  1.38 6.936  1.71 6.60355555555555  C 2.24999999999999 7.35911111111111  2.96999999999999 7.87288888888889  3.96 7.87288888888889  L 3.98999999999999 6.69422222222222  C 3.02999999999999 6.69422222222222  2.34 5.90844444444444  2.34 4.94133333333333  Z " fill-rule="nonzero" fill="#1890ff" stroke="none" transform="matrix(1 0 0 1 65 241 )" />
  </g>
</svg>