<?xml version="1.0" encoding="utf-8"?>
<svg version="1.1" xmlns:xlink="http://www.w3.org/1999/xlink" width="5px" height="5px" xmlns="http://www.w3.org/2000/svg">
  <g transform="matrix(1 0 0 1 -80 -228 )">
    <path d="M 2.56363636363636 0.0181818181818178  C 3.9092028450423 0.0181818181818178  4.99999999999999 1.10897897313952  4.99999999999999 2.45454545454546  C 4.99999999999999 3.80011193595138  3.90920284504229 4.89090909090909  2.56363636363636 4.89090909090909  C 1.21806991853507 4.89090909090909  0.127272763577373 3.80011193595139  0.127272763577373 2.45454545454546  C 0.127272763577373 1.10897897313952  1.21806991853507 0.0181818181818178  2.56363639994101 0.0181818181818178  Z M 3.58181818181818 2.45454545454546  C 3.58181818181818 1.90909090909091  3.1090909090909 1.43636363636364  2.56363636363636 1.43636363636364  C 1.98181818181818 1.43636363636364  1.54545454545455 1.90909090909091  1.54545454545455 2.45454545454546  C 1.54545454545455 3  2.01818181818182 3.47272727272727  2.56363636363636 3.47272727272727  C 3.1090909090909 3.47272727272727  3.58181818181818 3  3.58181818181818 2.45454545454546  Z " fill-rule="nonzero" fill="#1890ff" stroke="none" transform="matrix(1 0 0 1 80 228 )" />
  </g>
</svg>