<?xml version="1.0" encoding="utf-8"?>
<svg version="1.1" xmlns:xlink="http://www.w3.org/1999/xlink" width="64px" height="64px" xmlns="http://www.w3.org/2000/svg">
  <g transform="matrix(1 0 0 1 -42 -217 )">
    <path d="M 74 218  C 91.36 218  105 231.64  105 249  C 105 266.36  91.36 280  74 280  C 56.64 280  43 266.36  43 249  C 43 231.64  56.64 218  74 218  Z " fill-rule="nonzero" fill="#ffffff" stroke="none" fill-opacity="0" />
    <path d="M 74 218  C 91.36 218  105 231.64  105 249  C 105 266.36  91.36 280  74 280  C 56.64 280  43 266.36  43 249  C 43 231.64  56.64 218  74 218  Z " stroke-width="2" stroke="#1890ff" fill="none" />
  </g>
</svg>