<?xml version="1.0" encoding="utf-8"?>
<svg version="1.1" xmlns:xlink="http://www.w3.org/1999/xlink" width="5px" height="5px" xmlns="http://www.w3.org/2000/svg">
  <g transform="matrix(1 0 0 1 -69 -228 )">
    <path d="M 2.6 0.366666666666667  C 3.83343594128877 0.366666666666667  4.83333333333333 1.36656405871123  4.83333333333333 2.6  C 4.83333333333333 3.83343594128877  3.83343594128877 4.83333333333333  2.6 4.83333333333333  C 1.36656405871123 4.83333333333333  0.366666666666668 3.83343594128877  0.366666666666668 2.6  C 0.366666666666668 1.36656405871123  1.36656405871123 0.366666666666667  2.6 0.366666666666667  Z M 3.53333333333334 2.6  C 3.53333333333334 2.1  3.13333333333333 1.66666666666667  2.6 1.66666666666667  C 2.06666666666667 1.66666666666667  1.66666666666667 2.1  1.66666666666667 2.6  C 1.66666666666667 3.1  2.1 3.53333333333333  2.6 3.53333333333333  C 3.1 3.53333333333333  3.53333333333334 3.1  3.53333333333334 2.6  Z " fill-rule="nonzero" fill="#1890ff" stroke="none" transform="matrix(1 0 0 1 69 228 )" />
  </g>
</svg>