<?xml version="1.0" encoding="utf-8"?>
<svg version="1.1" xmlns:xlink="http://www.w3.org/1999/xlink" width="5px" height="5px" xmlns="http://www.w3.org/2000/svg">
  <g transform="matrix(1 0 0 1 -80 -267 )">
    <path d="M 2.52727272727273 4.81666666666667  C 1.21818181818182 4.81666666666667  0.0909090909090922 3.81666666666667  0.0909090909090922 2.58333333333333  C 0.0909090909090922 1.34989739204456  1.18170624586679 0.350000000000001  2.52727272727273 0.350000000000001  C 3.87283920867866 0.350000000000001  4.96363636363636 1.34989739204456  4.96363636363636 2.58333333333333  C 4.96363636363636 3.8167692746221  3.87283920867866 4.81666666666667  2.52727272727273 4.81666666666667  Z M 2.56363636363636 3.51666666666667  C 3.1090909090909 3.51666666666667  3.58181818181818 3.08333333333333  3.58181818181818 2.58333333333333  C 3.58181818181818 2.05  3.1090909090909 1.65  2.56363636363636 1.65  C 2.01818181818182 1.65  1.54545454545455 2.08333333333334  1.54545454545455 2.58333333333333  C 1.54545454545455 3.08333333333333  2.01818181818182 3.51666666666667  2.56363636363636 3.51666666666667  Z " fill-rule="nonzero" fill="#1890ff" stroke="none" transform="matrix(1 0 0 1 80 267 )" />
  </g>
</svg>