<?xml version="1.0" encoding="utf-8"?>
<svg version="1.1" xmlns:xlink="http://www.w3.org/1999/xlink" width="7px" height="8px" xmlns="http://www.w3.org/2000/svg">
  <g transform="matrix(1 0 0 1 -89 -239 )">
    <path d="M 5.02526309904299 4.08380952380952  C 3.93464605621924 4.08380952380952  3.05052625693773 3.16961762251164  3.05052625693773 2.04190476190476  C 3.05052625693773 0.914191901297886  3.93464605621924 0  5.02526309904299 0  C 6.11588014186675 0  6.99999994114826 0.914191901297886  6.99999994114826 2.04190476190476  C 6.99999994114826 3.16961762251164  6.11588014186675 4.08380952380952  5.02526309904299 4.08380952380952  Z M 5.85052631578947 2.04190476190476  C 5.85052631578947 1.58476190476191  5.49684210526316 1.18857142857143  5.02526315789474 1.18857142857143  C 4.55368421052632 1.18857142857143  4.2 1.58476190476191  4.2 2.04190476190476  C 4.2 2.52952380952381  4.58315789473685 2.8952380952381  5.02526315789474 2.8952380952381  C 5.46736842105263 2.8952380952381  5.85052631578947 2.49904761904762  5.85052631578947 2.04190476190476  Z M 0.751578947368418 7.95428571428572  C 0.42736842105263 7.95428571428572  0.19157894736842 7.68  0.19157894736842 7.3752380952381  C 0.19157894736842 7.04  0.456842105263156 6.79619047619047  0.751578947368418 6.79619047619047  L 3.31578947368421 6.79619047619047  C 3.63999999999999 6.79619047619047  3.8757894736842 7.07047619047619  3.8757894736842 7.3752380952381  C 3.8757894736842 7.71047619047619  3.61052631578947 7.95428571428572  3.31578947368421 7.95428571428572  L 0.751578947368418 7.95428571428572  Z " fill-rule="nonzero" fill="#1890ff" stroke="none" transform="matrix(1 0 0 1 89 239 )" />
  </g>
</svg>