<?xml version="1.0" encoding="utf-8"?>
<svg version="1.1" xmlns:xlink="http://www.w3.org/1999/xlink" width="5px" height="5px" xmlns="http://www.w3.org/2000/svg">
  <g transform="matrix(1 0 0 1 -52 -244 )">
    <path d="M 2.5 4.94545454545455  C 1.26656405871123 4.94545454545455  0.266666666666666 3.85465739049684  0.266666666666667 2.50909090909091  C 0.266666666666667 1.16352442768498  1.26656405871123 0.0727272727272712  2.5 0.0727272727272712  C 3.73343594128877 0.0727272727272712  4.73333333333333 1.16352442768498  4.73333333333333 2.50909090909091  C 4.73333333333333 3.85465739049684  3.73343594128877 4.94545454545455  2.5 4.94545454545455  Z M 2.5 1.49090909090909  C 2 1.49090909090909  1.56666666666667 1.96363636363636  1.56666666666667 2.50909090909091  C 1.56666666666667 3.09090909090909  2 3.52727272727273  2.5 3.52727272727273  C 3 3.52727272727273  3.43333333333333 3.05454545454546  3.43333333333333 2.50909090909091  C 3.43333333333333 1.96363636363636  3 1.49090909090909  2.5 1.49090909090909  Z " fill-rule="nonzero" fill="#1890ff" stroke="none" transform="matrix(1 0 0 1 52 244 )" />
  </g>
</svg>