<?xml version="1.0" encoding="utf-8"?>
<svg version="1.1" xmlns:xlink="http://www.w3.org/1999/xlink" width="5px" height="5px" xmlns="http://www.w3.org/2000/svg">
  <g transform="matrix(1 0 0 1 -52 -255 )">
    <path d="M 2.5 4.69999999999999  C 1.26656405871123 4.69999999999999  0.266666666666666 3.70010260795543  0.266666666666667 2.46666666666667  C 0.266666666666667 1.23323072537789  1.26656405871123 0.233333333333334  2.5 0.233333333333334  C 3.73343594128877 0.233333333333334  4.73333333333333 1.23323072537789  4.73333333333333 2.46666666666667  C 4.73333333333333 3.70010260795544  3.73343594128877 4.69999999999999  2.5 4.69999999999999  Z M 2.5 1.53333333333334  C 2 1.53333333333334  1.56666666666667 1.93333333333333  1.56666666666667 2.46666666666667  C 1.56666666666667 3  2 3.4  2.5 3.4  C 3 3.4  3.43333333333333 2.96666666666666  3.43333333333333 2.46666666666667  C 3.43333333333333 1.96666666666667  3 1.53333333333334  2.5 1.53333333333334  Z " fill-rule="nonzero" fill="#1890ff" stroke="none" transform="matrix(1 0 0 1 52 255 )" />
  </g>
</svg>