<?xml version="1.0" encoding="utf-8"?>
<svg version="1.1" xmlns:xlink="http://www.w3.org/1999/xlink" width="5px" height="5px" xmlns="http://www.w3.org/2000/svg">
  <g transform="matrix(1 0 0 1 -64 -228 )">
    <path d="M 2.53333333333333 0.0181818181818178  C 3.76676927462211 0.0181818181818178  4.76666666666667 1.10897897313952  4.76666666666667 2.45454545454546  C 4.76666666666667 3.80011193595139  3.76676927462211 4.89090909090909  2.53333333333333 4.89090909090909  C 1.29989742532382 4.89090909090909  0.30000003327926 3.80011193595139  0.30000003327926 2.45454545454546  C 0.30000003327926 1.10897897313952  1.29989742532382 0.0181818181818178  2.53333336661259 0.0181818181818178  Z M 3.46666666666667 2.45454545454546  C 3.46666666666667 1.90909090909091  3.03333333333333 1.43636363636364  2.53333333333333 1.43636363636364  C 2 1.43636363636364  1.6 1.90909090909091  1.6 2.45454545454546  C 1.6 3  2.03333333333333 3.47272727272727  2.53333333333333 3.47272727272727  C 3.06666666666667 3.47272727272727  3.46666666666667 3  3.46666666666667 2.45454545454546  Z " fill-rule="nonzero" fill="#1890ff" stroke="none" transform="matrix(1 0 0 1 64 228 )" />
  </g>
</svg>