<?xml version="1.0" encoding="utf-8"?>
<svg version="1.1" xmlns:xlink="http://www.w3.org/1999/xlink" width="7px" height="8px" xmlns="http://www.w3.org/2000/svg">
  <g transform="matrix(1 0 0 1 -89 -244 )">
    <path d="M 5.02526315789474 3.98545454545455  C 3.93464611507098 3.98545454545455  3.05052631578947 3.11281682148838  3.05052631578947 2.03636363636364  C 3.05052631578947 0.95991045123889  3.93464611507098 0.087272727272728  5.02526315789474 0.087272727272728  C 6.11588020071849 0.087272727272728  7 0.95991045123889  7 2.03636363636364  C 7 3.11281682148838  6.11588020071849 3.98545454545455  5.02526315789474 3.98545454545455  Z M 5.85052631578947 2.00727272727273  C 5.85052631578947 1.57090909090909  5.49684210526316 1.19272727272727  5.02526315789474 1.19272727272727  C 4.55368421052632 1.19272727272727  4.2 1.57090909090909  4.2 2.00727272727273  C 4.2 2.44363636363637  4.58315789473685 2.82181818181818  5.02526315789474 2.82181818181818  C 5.46736842105263 2.82181818181818  5.85052631578947 2.44363636363637  5.85052631578947 2.00727272727273  Z M 0.751578947368418 7.65090909090909  C 0.42736842105263 7.65090909090909  0.19157894736842 7.41818181818182  0.19157894736842 7.09818181818182  C 0.19157894736842 6.77818181818182  0.456842105263156 6.54545454545455  0.751578947368418 6.54545454545455  L 3.31578947368421 6.54545454545455  C 3.63999999999999 6.54545454545455  3.8757894736842 6.80727272727273  3.8757894736842 7.09818181818182  C 3.8757894736842 7.41818181818182  3.61052631578947 7.65090909090909  3.31578947368421 7.65090909090909  L 0.751578947368418 7.65090909090909  Z " fill-rule="nonzero" fill="#1890ff" stroke="none" transform="matrix(1 0 0 1 89 244 )" />
  </g>
</svg>