<?xml version="1.0" encoding="utf-8"?>
<svg version="1.1" xmlns:xlink="http://www.w3.org/1999/xlink" width="7px" height="8px" xmlns="http://www.w3.org/2000/svg">
  <g transform="matrix(1 0 0 1 -89 -250 )">
    <path d="M 4.82999999999999 4.04363636363637  C 3.79391380931742 4.04363636363637  2.95399999999999 3.1709986396702  2.95399999999999 2.09454545454546  C 2.95399999999999 1.01809226942071  3.79391380931742 0.145454545454548  4.82999999999999 0.145454545454548  C 5.86608619068256 0.145454545454548  6.70599999999999 1.01809226942071  6.70599999999999 2.09454545454546  C 6.70599999999999 3.1709986396702  5.86608619068256 4.04363636363637  4.82999999999999 4.04363636363637  Z M 5.614 2.06545454545454  C 5.614 1.62909090909091  5.278 1.25090909090909  4.83 1.25090909090909  C 4.382 1.25090909090909  4.046 1.62909090909091  4.046 2.06545454545454  C 4.046 2.50181818181817  4.41 2.88  4.83 2.88  C 5.25 2.88  5.614 2.50181818181817  5.614 2.06545454545454  Z M 0.713999999999997 7.70909090909091  C 0.405999999999999 7.73818181818182  0.181999999999999 7.47636363636364  0.181999999999999 7.15636363636364  C 0.181999999999999 6.83636363636364  0.433999999999998 6.60363636363637  0.713999999999997 6.60363636363637  L 3.15 6.60363636363637  C 3.45799999999999 6.60363636363637  3.68199999999999 6.86545454545455  3.68199999999999 7.15636363636364  C 3.68199999999999 7.47636363636364  3.42999999999999 7.70909090909091  3.15 7.70909090909091  L 0.713999999999997 7.70909090909091  Z " fill-rule="nonzero" fill="#1890ff" stroke="none" transform="matrix(1 0 0 1 89 250 )" />
  </g>
</svg>