<?xml version="1.0" encoding="utf-8"?>
<svg version="1.1" xmlns:xlink="http://www.w3.org/1999/xlink" width="5px" height="5px" xmlns="http://www.w3.org/2000/svg">
  <g transform="matrix(1 0 0 1 -64 -267 )">
    <path d="M 2.53333333333333 4.81666666666667  C 1.29989739204456 4.81666666666667  0.3 3.8167692746221  0.3 2.58333333333333  C 0.3 1.34989739204456  1.29989739204456 0.350000000000001  2.53333333333333 0.350000000000001  C 3.76676927462211 0.350000000000001  4.76666666666667 1.34989739204456  4.76666666666667 2.58333333333333  C 4.76666666666667 3.8167692746221  3.76676927462211 4.81666666666667  2.53333333333333 4.81666666666667  Z M 2.53333333333333 3.51666666666667  C 3.03333333333333 3.51666666666667  3.46666666666667 3.08333333333333  3.46666666666667 2.58333333333333  C 3.46666666666667 2.05  3.03333333333333 1.65  2.53333333333333 1.65  C 2 1.65  1.6 2.08333333333334  1.6 2.58333333333333  C 1.6 3.08333333333333  2.03333333333333 3.51666666666667  2.53333333333333 3.51666666666667  Z " fill-rule="nonzero" fill="#1890ff" stroke="none" transform="matrix(1 0 0 1 64 267 )" />
  </g>
</svg>