<?xml version="1.0" encoding="utf-8"?>
<svg version="1.1" xmlns:xlink="http://www.w3.org/1999/xlink" width="5px" height="5px" xmlns="http://www.w3.org/2000/svg">
  <g transform="matrix(1 0 0 1 -52 -239 )">
    <path d="M 2.5 4.87272727272727  C 1.26656405871123 4.87272727272727  0.266666666666666 3.78193011776957  0.266666666666667 2.43636363636364  C 0.266666666666667 1.0907971549577  1.26656405871123 0  2.5 0  C 3.73343594128877 0  4.73333333333333 1.0907971549577  4.73333333333333 2.43636363636364  C 4.73333333333333 3.78193011776957  3.73343594128877 4.87272727272727  2.5 4.87272727272727  Z M 2.5 1.41818181818182  C 2 1.41818181818182  1.56666666666667 1.89090909090909  1.56666666666667 2.43636363636364  C 1.56666666666667 3.01818181818182  2 3.45454545454546  2.5 3.45454545454546  C 3 3.45454545454546  3.43333333333333 2.98181818181818  3.43333333333333 2.43636363636364  C 3.43333333333333 1.85454545454545  3 1.41818181818182  2.5 1.41818181818182  Z " fill-rule="nonzero" fill="#1890ff" stroke="none" transform="matrix(1 0 0 1 52 239 )" />
  </g>
</svg>