<?xml version="1.0" encoding="utf-8"?>
<svg version="1.1" xmlns:xlink="http://www.w3.org/1999/xlink" width="5px" height="5px" xmlns="http://www.w3.org/2000/svg">
  <g transform="matrix(1 0 0 1 -52 -250 )">
    <path d="M 2.43333333333333 4.63333330005408  C 1.19989740504092 4.63333330005408  0.200000018379628 3.63343592829241  0.2 2.4  C 0.199999999999999 1.16656402543197  1.19989739204456 0.166666633387411  2.43333333333333 0.166666633387411  C 3.6667692746221 0.166666633387411  4.66666666666667 1.16656402543197  4.66666666666667 2.39999996672074  C 4.66666666666667 3.63343590800952  3.6667692746221 4.63333330005408  2.43333333333333 4.63333330005408  Z M 2.4 1.46666666666667  C 1.9 1.46666666666667  1.46666666666667 1.86666666666667  1.46666666666667 2.4  C 1.46666666666667 2.93333333333334  1.9 3.33333333333333  2.4 3.33333333333333  C 2.9 3.33333333333333  3.33333333333333 2.9  3.33333333333333 2.4  C 3.33333333333333 1.90000000000001  2.9 1.46666666666667  2.4 1.46666666666667  Z " fill-rule="nonzero" fill="#1890ff" stroke="none" transform="matrix(1 0 0 1 52 250 )" />
  </g>
</svg>