<?xml version="1.0" encoding="utf-8"?>
<svg version="1.1" xmlns:xlink="http://www.w3.org/1999/xlink" width="18px" height="34px" xmlns="http://www.w3.org/2000/svg">
  <g transform="matrix(1 0 0 1 -234 -371 )">
    <path d="M 16.6802353558111 32.6315003945572  C 16.6802353558111 33.1944805083464  16.2256906922243 33.6510048201804  15.6646588235294 33.6515  C 15.3951648899335 33.6512619292258  15.136795290285 33.5436417828313  14.9463529411765 33.3523  L 8.28169411764706 26.6645  C 8.10637004712431 26.4756923157509  8.00888464299743 26.2272143920973  8.00888464299743 25.96914327023  C 8.00888464299743 25.4058128254026  8.46397402669883 24.94914327023  9.02535523123272 24.94914327023  C 9.28253337343948 24.94914327023  9.53015151189014 25.0469671653435  9.71830588235294 25.2229  L 16.3829647058824 31.9107  C 16.5733166390497 32.1019505212669  16.6802353558111 32.3611993009417  16.6802353558111 32.6315003945572  Z M 16.6099764705882 2.4429  C 16.6099764705882 2.4429  16.6099764705882 2.4429  16.6099764705882 3  L 1.39002352941176 3  C 1.39002352941176 2.4429  1.39002352941176 2.4429  1.39002352941176 2.4429  C 0.828642324877872 2.4429  0.373552941176469 1.98623044482741  0.373552941176469 1.4229  C 0.373552941176469 0.859569555172591  0.828642324877872 0.402900000000001  1.39002352941176 0.402900000000001  C 1.39002352941176 0.402900000000001  1.39002352941176 0.402900000000001  1.39002352941176 1  L 16.6099764705882 1  C 16.6099764705882 0.402900000000001  16.6099764705882 0.402900000000001  16.6099764705882 0.402900000000001  C 17.1713576751221 0.402900000000001  17.6264470588235 0.859569555172591  17.6264470588235 1.4229  C 17.6264470588235 1.98623044482741  17.1713576751221 2.4429  16.6099764705882 2.4429  Z " fill-rule="nonzero" fill="#099dfd" stroke="none" transform="matrix(1 0 0 1 234 371 )" />
  </g>
</svg>