<?xml version="1.0" encoding="utf-8"?>
<svg version="1.1" xmlns:xlink="http://www.w3.org/1999/xlink" width="36px" height="41px" xmlns="http://www.w3.org/2000/svg">
  <g transform="matrix(1 0 0 1 -112 -374 )">
    <path d="M 36 4.44513671875  C 35.9046818181818 3.740048828125  35.3912727272727 3.135859375  34.6831363636364 3.007333984375  L 18.2998636363636 0.038037109375  C 18.1206818181818 0.00560546875  17.937 0.00560546875  17.7574090909091 0.038037109375  L 1.28127272727273 3.007333984375  C 0.572727272727273 3.13505859375  0.0580909090909092 3.7396484375  0 4.44513671875  L 0 23.448876953125  C 0.0580909090909092 26.445400390625  1.02190909090909 29.246533203125  2.92336363636364 31.773798828125  C 4.401 33.738515625  6.44318181818182 35.532265625  8.99345454545455 37.105400390625  C 13.2561818181818 39.735166015625  17.4665454545455 40.849853515625  17.6436818181818 40.8958984375  C 17.8989545454545 40.96236328125  18.1673181818182 40.9615625  18.4221818181818 40.893095703125  C 18.5980909090909 40.845849609375  22.7843181818182 39.70833984375  27.0216818181818 37.06736328125  C 29.5568181818182 35.487421875  31.5867272727273 33.69287109375  33.0553636363636 31.732958984375  C 34.9457727272727 29.210498046875  35.9042727272727 26.42337890625  36 23.4484765625  L 36 4.44513671875  Z M 33 23.448876953125  L 32.9175 23.448876953125  C 32.9175 27.73025390625  30.4138636363636 31.46990234375  25.4757272727273 34.564921875  C 23.4032727272727 35.864189453125  20.9589545454545 36.982080078125  18.1431818181818 37.918994140625  C 18.0650640696614 37.9450170054372  17.9803450212477 37.9450170054372  17.9022272727273 37.918994140625  C 7.99731818181818 34.61056640625  3.04486363636364 29.787060546875  3 23.44927734375  L 3 5.96662109375  C 3.04486363636364 5.790048828125  3.17372727272727 5.6391015625  3.35086363636364 5.6070703125  L 17.9590909090909 2.9741015625  C 18.0040909090909 2.96609375  18.0499090909091 2.96609375  18.0945 2.9741015625  L 32.6119090909091 5.60546875  C 32.7890454545455 5.6375  32.9170909090909 5.788447265625  33 5.96501953125  L 33 23.448876953125  Z M 31.3138636363636 25.542919921875  C 31.3179545454545 23.727548828125  29.8845 22.25771484375  28.1229545454545 22.25771484375  C 27.8128248885747 22.2576777417317  27.5045515223859 22.3045425001026  27.2090454545455 22.396650390625  L 20.9937272727273 12.159462890625  C 21.1422272727273 11.777490234375  21.2297727272727 11.36388671875  21.2297727272727 10.932666015625  C 21.2297727272727 9.12169921875  19.7959090909091 7.6474609375  18.0343636363636 7.6474609375  C 16.2728181818182 7.6474609375  14.8389545454545 9.12169921875  14.8389545454545 10.932666015625  C 14.8389545454545 11.453974609375  14.9612727272727 11.94365234375  15.1711363636364 12.38408203125  L 9.08672727272727 22.392646484375  C 8.80240909090909 22.30736328125  8.50090909090909 22.258115234375  8.18631818181818 22.258115234375  C 6.42477272727273 22.258115234375  4.99090909090909 23.731953125  4.99090909090909 25.542919921875  C 4.99090909090909 27.354287109375  6.42477272727273 28.828125  8.18631818181818 28.828125  C 9.33586363636364 28.828125  10.3414090909091 28.199111328125  10.9051363636364 27  L 25.3996363636364 27  C 25.9633636363636 28.199111328125  26.9689090909091 28.828125  28.1184545454545 28.828125  C 29.88 28.828125  31.3138636363636 27.354287109375  31.3138636363636 25.542919921875  Z M 9.56331818181818 25.542919921875  C 9.56290909090909 26.320478515625  8.94681818181818 26.958701171875  8.18631818181818 26.958701171875  C 7.42581818181818 26.958701171875  6.80522727272727 26.320478515625  6.80522727272727 25.542919921875  C 6.80522727272727 24.765361328125  7.42581818181818 24.127138671875  8.18631818181818 24.127138671875  C 8.94681818181818 24.127138671875  9.56331818181818 24.765361328125  9.56331818181818 25.542919921875  Z M 16.6573636363636 10.92826171875  C 16.6573636363636 10.150703125  17.2738636363636 9.51248046875  18.0343636363636 9.51248046875  C 18.7948636363636 9.51248046875  19.4154545454545 10.150703125  19.4154545454545 10.92826171875  C 19.4154545454545 11.7058203125  18.7948636363636 12.34404296875  18.0343636363636 12.34404296875  C 17.2738636363636 12.34404296875  16.6573636363636 11.7058203125  16.6573636363636 10.92826171875  Z M 25.6884545454546 23.417646484375  C 25.2425454545455 23.95216796875  24.9668181818182 24.639638671875  24.9365454545455 25  L 11.3727272727273 25  C 11.3379545454545 24.635234375  11.0581363636364 23.943359375  10.6122272727273 23.4084375  L 16.4560909090909 13.78224609375  C 16.9195909090909 14.056513671875  17.4571363636364 14.2138671875  18.0298636363636 14.2138671875  C 18.6725454545455 14.2138671875  19.2714545454545 14.01607421875  19.7742272727273 13.6789453125  L 25.6884545454546 23.417646484375  Z M 29.4999545454545 25.542919921875  C 29.4999545454545 26.320478515625  28.8834545454545 26.958701171875  28.1229545454545 26.958701171875  C 27.3624545454545 26.958701171875  26.7414545454545 26.320478515625  26.7414545454545 25.542919921875  C 26.7414545454545 24.765361328125  27.3620454545455 24.127138671875  28.1229545454545 24.127138671875  C 28.8834545454545 24.127138671875  29.4999545454545 24.765361328125  29.4999545454545 25.542919921875  Z " fill-rule="nonzero" fill="#1890ff" stroke="none" transform="matrix(1 0 0 1 112 374 )" />
  </g>
</svg>