<?xml version="1.0" encoding="utf-8"?>
<svg version="1.1" xmlns:xlink="http://www.w3.org/1999/xlink" width="36px" height="36px" xmlns="http://www.w3.org/2000/svg">
  <g transform="matrix(1 0 0 1 -281 -229 )">
    <path d="M 15.7756181102362 2.3155157480315  L 20.248688976378 2.3155157480315  L 20.248688976378 6.78858661417323  L 15.7756181102362 6.78858661417323  L 15.7756181102362 2.3155157480315  Z M 22.4851181102362 9.02494488188976  L 22.4851181102362 0.0789803149606299  L 13.5391535433071 0.0789803149606299  L 13.5391535433071 9.02494488188976  L 22.4851181102362 9.02494488188976  Z M 29.1945472440945 29.1535157480315  L 33.6676181102362 29.1535157480315  L 33.6676181102362 33.6265866141732  L 29.1945472440945 33.6265866141732  L 29.1945472440945 29.1535157480315  Z M 15.7756181102362 29.1535157480315  L 20.248688976378 29.1535157480315  L 20.248688976378 33.6265866141732  L 15.7756181102362 33.6265866141732  L 15.7756181102362 29.1535157480315  Z M 2.35658267716535 29.1535157480315  L 6.82965354330709 29.1535157480315  L 6.82965354330709 33.6265866141732  L 2.35658267716535 33.6265866141732  L 2.35658267716535 29.1535157480315  Z M 19.1303858267717 9.02498031496063  L 16.8939566929134 9.02498031496063  L 16.8939566929134 16  L 4 16  L 4 26.9170866141732  L 0.120224409448819 26.9170866141732  L 0.120224409448819 35.8630511811024  L 9.06618897637795 35.8630511811024  L 9.06618897637795 26.9170866141732  L 5.71142125984252 26.9170866141732  L 5.71142125984252 18  L 16.8939921259842 18  L 16.8939921259842 26.9170866141732  L 13.5392244094488 26.9170866141732  L 13.5392244094488 35.8630511811024  L 22.485188976378 35.8630511811024  L 22.485188976378 26.9170866141732  L 19.1304212598425 26.9170866141732  L 19.1304212598425 18  L 30.3129921259843 18  L 30.3129921259843 26.9170866141732  L 26.9582244094488 26.9170866141732  L 26.9582244094488 35.8630511811024  L 35.904188976378 35.8630511811024  L 35.904188976378 26.9170866141732  L 32 26.9170866141732  L 32 16  L 19.1304566929134 16  L 19.1304566929134 9.02498031496063  Z " fill-rule="nonzero" fill="#1890ff" stroke="none" transform="matrix(1 0 0 1 281 229 )" />
  </g>
</svg>