<?xml version="1.0" encoding="utf-8"?>
<svg version="1.1" xmlns:xlink="http://www.w3.org/1999/xlink" width="37px" height="37px" xmlns="http://www.w3.org/2000/svg">
  <g transform="matrix(1 0 0 1 -224 -378 )">
    <path d="M 36.68624 18.4128914285714  C 36.6731944027428 28.4514658084977  28.5385743799262 36.5860858313142  18.5 36.5991314285714  C 8.45601699123723 36.5991314285714  0.313759999999995 28.4568744373342  0.313759999999995 18.4128914285714  C 0.313759999999995 8.36890841980867  8.45601699123723 0.226651428571434  18.5 0.226651428571434  C 28.5439830087628 0.226651428571434  36.68624 8.36890841980867  36.68624 18.4128914285714  Z M 34.6565257142857 18.4128914285714  C 34.645342796353 9.49452488968591  27.4183665388855 2.26754863221844  18.5 2.25636571428571  C 9.57699723775093 2.25636571428571  2.34347428571428 9.48988866632236  2.34347428571428 18.4128914285714  C 2.34347428571428 27.3358941908205  9.57699723775093 34.5694171428571  18.5 34.5694171428571  C 27.4230027622491 34.5694171428571  34.6565257142857 27.3358941908205  34.6565257142857 18.4128914285714  Z " fill-rule="nonzero" fill="#099dfd" stroke="none" transform="matrix(1 0 0 1 224 378 )" />
  </g>
</svg>