<?xml version="1.0" encoding="utf-8"?>
<svg version="1.1" xmlns:xlink="http://www.w3.org/1999/xlink" width="43px" height="43px" xmlns="http://www.w3.org/2000/svg">
  <g transform="matrix(1 0 0 1 -165 -229 )">
    <path d="M 38.4060058925781 10.6713955380859  C 40.9992813027344 10.2897943896484  42.9986563339844 8.07543279589844  42.9986563339844 5.3746640625  C 42.9986563339844 2.40516216796875  40.5934941660156 0  37.6239922714844 0  C 35.2483907558594 0  33.2543903886719 1.5532779140625  32.5449347324219 3.6923942109375  C 29.4545028964844 1.451159296875  25.6653646904297 0.1128679453125  21.5564340146484 0.1128679453125  C 17.4071933583984 0.1128679453125  13.5831198359375 1.4780326171875  10.4765640078125 3.75957751171875  C 9.78591963378906 1.5855258984375  7.77848260644531 0  5.37600777050781 0  C 2.40650583398438 0  0.001343666015625 2.40516216796875  0.001343666015625 5.3746640625  C 0.001343666015625 8.11305540234375  2.05446533789063 10.3462283203125  4.70148738867188 10.6821448242187  C 3.49487530664063 13.1571776669922  2.80154364257813 15.9278169912109  2.80154364257813 18.8677582753906  C 2.80154364257813 27.3651022001953  8.45569027832031 34.5322167275391  16.2059558564453 36.8379476523438  C 16.1656459179688 37.0959314853516  16.1253359375 37.3539153603516  16.1253359375 37.6226485634766  C 16.1253359375 40.5921504580078  18.5304981054687 42.9973126259766  21.5 42.9973126259766  C 24.4695018945313 42.9973126259766  26.8746640625 40.5921504580078  26.8746640625 37.6226485634766  C 26.8746640625 37.3646646884766  26.8343540820313 37.1147428095703  26.799418765625 36.8648209306641  C 34.6034310263672 34.5967126962891  40.3113243027344 27.4054121806641  40.3113243027344 18.8677582753906  C 40.3113243027344 15.9251297011719  39.6153053066406 13.1491156708984  38.4060058925781 10.6713955380859  Z M 9.95790888378906 8.15067809277344  C 10.1110868095703 7.89806888183594  10.2508280751953 7.64008500683594  10.3610086884766 7.36597713964844  C 13.2579526181641 4.54696583886719  17.2056434140625 2.80020001855469  21.5564339726563 2.80020001855469  C 25.831979234375 2.80020001855469  29.7151740615234 4.49053186621094  32.5959939990234 7.22354854199219  C 32.6685519638672 7.41703644824219  32.7518592568359 7.60246235839844  32.8432285458984 7.78520093652344  L 26.7161114726562 12.7110805498047  C 25.3079494882812 11.5044684677734  23.49937503125 10.7493281669922  21.5 10.7493281669922  C 19.3420723789063 10.7493281669922  17.3910693242188 11.6092744169922  15.9452846494141 12.9905630810547  L 9.95790888378906 8.15067809277344  Z M 16.1253359375 18.8113243027344  C 16.1253359375 15.8471970722656  18.5358727695313 13.4366601982422  21.5 13.4366601982422  C 24.4641272304687 13.4366601982422  26.8746640625 15.8471970302734  26.8746640625 18.8113242607422  C 26.8746640625 21.7754514912109  24.4641272304687 24.1859883652344  21.5 24.1859883652344  C 18.5358727695313 24.1859883652344  16.1253359375 21.7754515332031  16.1253359375 18.8113243027344  Z M 5.37600777050781 8.06199613574219  C 3.89528777929688 8.06199613574219  2.68867569726562 6.85538405371094  2.68867569726562 5.3746640625  C 2.68867569726562 3.89394411328125  3.89528777929688 2.68733203125  5.37600772851563 2.68733203125  C 6.85672767773438 2.68733203125  8.06333975976563 3.89394411328125  8.06333975976563 5.3746640625  C 8.06333975976563 5.5950252890625  7.98809446289063 5.79120052734375  7.93703515429688 5.99812509375  C 7.73279796191406 6.83388539746094  7.17920756347656 7.53259172558594  6.39719394238281 7.85507156933594  C 6.08277609472656 7.98675083886719  5.73879759472656 8.06199613574219  5.37600777050781 8.06199613574219  Z M 19.75860884375 32.5597150585938  C 18.7616086601562 32.9036935166016  17.9070370742187 33.5244672158203  17.2728267148437 34.3387288212891  C 10.4873132939453 32.4575963994141  5.48618838378906 26.2444847011719  5.48618838378906 18.8677582753906  C 5.48618838378906 15.6348978417969  6.45362791503906 12.6304605888672  8.10364978222656 10.1070558115234  L 8.01228049316406 10.0318105146484  C 8.07946379394531 9.99418786621094  8.15202175878906 9.96193988183594  8.21651772753906 9.92162990136719  C 8.17620774707031 9.98075120605469  8.14395976269531 10.0452471748047  8.10364978222656 10.1070558115234  L 14.3516967548828 15.1565526982422  C 13.7873570283203 16.2583588730469  13.4380038642578 17.4891569433594  13.4380038642578 18.8113243027344  C 13.4380038642578 22.8020123691406  16.3456971220703 26.0939941494141  20.1536466523437 26.7362665048828  L 19.75860884375 32.5597150585938  Z M 24.18733203125 37.6226485634766  C 24.18733203125 39.1033685546875  22.9807199492187 40.3099806367188  21.5 40.3099806367188  C 20.0192800507813 40.3099806367188  18.81266796875 39.1033685546875  18.81266796875 37.6226486054688  C 18.81266796875 37.5447159765625  18.8502906171875 37.4802200078125  18.85566528125 37.4076620429688  C 18.9712205585938 36.0317480009766  20.0945253476563 34.9353165322266  21.5 34.9353165322266  C 22.9108493164062 34.9353165322266  24.0395287695313 36.0398099970703  24.1470220507812 37.4237859931641  C 24.1523967148438 37.4936566259766  24.18733203125 37.5527779306641  24.18733203125 37.6226485634766  Z M 37.6239922294922 18.8677582753906  C 37.6239922294922 26.2767326855469  32.5771826748047 32.5113430400391  25.745984609375 34.3629148095703  C 24.950534328125 33.3282919775391  23.80035621875 32.5892756689453  22.46743953125 32.3474157861328  L 22.8490406796875 26.7389537949219  C 26.6543028359375 26.0939941074219  29.5619961357422 22.8020123691406  29.5619961357422 18.8113243027344  C 29.5619961357422 17.3332916855469  29.1347103427734 15.9654396816406  28.4413786787109 14.7749515917969  L 34.6034310683594 9.81951132617188  L 34.7404850019531 9.70933071289062  C 34.8103556347656 9.80876199804687  34.8829135996094 9.91088061523437  34.9500969003906 10.0129992324219  C 36.6350540419922 12.5525279599609  37.6239922294922 15.5945878193359  37.6239922294922 18.8677582753906  Z M 40.3113242607422 5.3746640625  C 40.3113242607422 6.85538401171875  39.1047122207031 8.06199613574219  37.6239922294922 8.06199613574219  C 37.3095743818359 8.06199613574219  37.0166551904297 7.98137617480469  36.7344853271484 7.88194488964844  C 35.8396037607422 7.56483970996094  35.2027060693359 6.79088808496094  35.0307168193359 5.83957254589844  C 35.0011561669922 5.68370728808594  34.9366601982422 5.53859135839844  34.9366601982422 5.3746640625  C 34.9366601982422 3.89394411328125  36.1432722802734 2.68733203125  37.6239922294922 2.68733203125  C 39.1047121787109 2.68733203125  40.3113242607422 3.89394411328125  40.3113242607422 5.3746640625  Z " fill-rule="nonzero" fill="#1890ff" stroke="none" transform="matrix(1 0 0 1 165 229 )" />
  </g>
</svg>