<?xml version="1.0" encoding="utf-8"?>
<svg version="1.1" xmlns:xlink="http://www.w3.org/1999/xlink" width="16px" height="16px" xmlns="http://www.w3.org/2000/svg">
  <defs>
    <mask fill="white" id="clip15">
      <path d="M 15.5228070263158 13.9508771842105  L 9.57192981578947 8  L 15.5228070263158 2.04912281578947  C 15.9719298421053 1.6  15.9719298421053 0.926315789473685  15.5228070263158 0.47719297368421  C 15.0736842105263 0.028070157894736  14.4 0.0280701578947368  13.9508771842105 0.47719297368421  L 8 6.42807018421053  L 2.04912281578947 0.47719297368421  C 1.6 0.0280701578947368  0.926315789473685 0.0280701578947368  0.47719297368421 0.47719297368421  C 0.028070157894736 0.926315789473684  0.0280701578947368 1.6  0.47719297368421 2.04912281578947  L 6.42807018421053 8  L 0.47719297368421 13.9508771842105  C 0.0280701578947368 14.4  0.0280701578947368 15.0736842105263  0.47719297368421 15.5228070263158  C 0.701754368421052 15.7473684210526  0.926315789473684 15.8596491315789  1.26315789473684 15.8596491315789  C 1.6 15.8596491315789  1.82456139473684 15.7473684210526  2.04912281578947 15.5228070263158  L 8 9.57192981578947  L 13.9508771842105 15.5228070263158  C 14.1754385789474 15.7473684210526  14.5122806842105 15.8596491315789  14.7368421052632 15.8596491315789  C 14.9614035263158 15.8596491315789  15.2982456052632 15.7473684210526  15.5228070263158 15.5228070263158  C 15.9719298421053 15.0736842105263  15.9719298421053 14.4  15.5228070263158 13.9508771842105  Z " fill-rule="evenodd" />
    </mask>
  </defs>
  <g transform="matrix(1 0 0 1 -7 -6 )">
    <path d="M 15.5228070263158 13.9508771842105  L 9.57192981578947 8  L 15.5228070263158 2.04912281578947  C 15.9719298421053 1.6  15.9719298421053 0.926315789473685  15.5228070263158 0.47719297368421  C 15.0736842105263 0.028070157894736  14.4 0.0280701578947368  13.9508771842105 0.47719297368421  L 8 6.42807018421053  L 2.04912281578947 0.47719297368421  C 1.6 0.0280701578947368  0.926315789473685 0.0280701578947368  0.47719297368421 0.47719297368421  C 0.028070157894736 0.926315789473684  0.0280701578947368 1.6  0.47719297368421 2.04912281578947  L 6.42807018421053 8  L 0.47719297368421 13.9508771842105  C 0.0280701578947368 14.4  0.0280701578947368 15.0736842105263  0.47719297368421 15.5228070263158  C 0.701754368421052 15.7473684210526  0.926315789473684 15.8596491315789  1.26315789473684 15.8596491315789  C 1.6 15.8596491315789  1.82456139473684 15.7473684210526  2.04912281578947 15.5228070263158  L 8 9.57192981578947  L 13.9508771842105 15.5228070263158  C 14.1754385789474 15.7473684210526  14.5122806842105 15.8596491315789  14.7368421052632 15.8596491315789  C 14.9614035263158 15.8596491315789  15.2982456052632 15.7473684210526  15.5228070263158 15.5228070263158  C 15.9719298421053 15.0736842105263  15.9719298421053 14.4  15.5228070263158 13.9508771842105  Z " fill-rule="nonzero" fill="#ffffff" stroke="none" transform="matrix(1 0 0 1 7 6 )" />
    <path d="M 15.5228070263158 13.9508771842105  L 9.57192981578947 8  L 15.5228070263158 2.04912281578947  C 15.9719298421053 1.6  15.9719298421053 0.926315789473685  15.5228070263158 0.47719297368421  C 15.0736842105263 0.028070157894736  14.4 0.0280701578947368  13.9508771842105 0.47719297368421  L 8 6.42807018421053  L 2.04912281578947 0.47719297368421  C 1.6 0.0280701578947368  0.926315789473685 0.0280701578947368  0.47719297368421 0.47719297368421  C 0.028070157894736 0.926315789473684  0.0280701578947368 1.6  0.47719297368421 2.04912281578947  L 6.42807018421053 8  L 0.47719297368421 13.9508771842105  C 0.0280701578947368 14.4  0.0280701578947368 15.0736842105263  0.47719297368421 15.5228070263158  C 0.701754368421052 15.7473684210526  0.926315789473684 15.8596491315789  1.26315789473684 15.8596491315789  C 1.6 15.8596491315789  1.82456139473684 15.7473684210526  2.04912281578947 15.5228070263158  L 8 9.57192981578947  L 13.9508771842105 15.5228070263158  C 14.1754385789474 15.7473684210526  14.5122806842105 15.8596491315789  14.7368421052632 15.8596491315789  C 14.9614035263158 15.8596491315789  15.2982456052632 15.7473684210526  15.5228070263158 15.5228070263158  C 15.9719298421053 15.0736842105263  15.9719298421053 14.4  15.5228070263158 13.9508771842105  Z " stroke-width="8" stroke="#fdfdfd" fill="none" transform="matrix(1 0 0 1 7 6 )" mask="url(#clip15)" />
  </g>
</svg>