<?xml version="1.0" encoding="utf-8"?>
<svg version="1.1" xmlns:xlink="http://www.w3.org/1999/xlink" width="17px" height="21px" xmlns="http://www.w3.org/2000/svg">
  <g transform="matrix(1 0 0 1 -22 -308 )">
    <path d="M 16.8666833958333 12.7957071210937  C 16.8666833958333 11.652188296875  16.6286545625 10.5416192519531  16.1550367291667 9.49419665332031  C 15.6908507708333 8.46794978613281  15.0267206041667 7.55885773535156  14.1817777708333 6.79494979980469  L 13.4890841458333 6.16934310644531  C 13.38667225 6.08033472949219  13.2249018958333 6.12016738183594  13.1796764375 6.24669455566406  L 12.8701794583333 7.12066945898437  C 12.6773463541667 7.66892468261719  12.3227429166667 8.22895397460938  11.8205616041667 8.77958158300781  C 11.7951772464724 8.80675378670998  11.760294326268 8.82347284039528  11.7229102708333 8.82638494335938  C 11.6852344687031 8.82976626476052  11.6479110599432 8.81696430203626  11.620528125 8.79126777539062  C 11.5872933541667 8.7632384765625  11.5705420625 8.72100417480469  11.572981875 8.67879915820312  C 11.6609632708333 7.26825522363281  11.2325708958333 5.67729288574219  10.2947373333333 3.94580334667969  C 9.51870385416667 2.50711297265625  8.44049279166667 1.38476987988281  7.09321989583333 0.6022050234375  L 6.11019060416667 0.032803353515625  C 5.98162529166667 -0.0421464462890625  5.81741514583333 0.0562636142578125  5.82449652083333 0.20384937890625  L 5.87692235416667 1.32847698046875  C 5.91259691666667 2.09707111523438  5.82217572916667 2.77656903808594  5.60797954166667 3.34128450878906  C 5.34611808333333 4.03241003320313  4.97000279166667 4.67447697363281  4.4891845625 5.25087865722656  C 4.15121339583333 5.65394978613281  3.7727773125 6.01707112207031  3.35854764583333 6.33101673339844  C 2.35647604166667 7.0878368203125  1.53057554166667 8.07425103515625  0.9711780625 9.17784937207031  C 0.40702 10.2932217568359  0.109483958333333 11.5421213291016  0.109483958333333 12.7933054306641  C 0.109483958333333 13.8992761318359  0.330880520833333 14.9700418300781  0.7688238125 15.9799163261719  C 1.19245560416667 16.9523012695313  1.79707858333333 17.8286485371094  2.56591166666667 18.5783807548828  C 3.3371548125 19.3282301337891  4.2321134375 19.9186903740234  5.22942445833333 20.3287322109375  C 6.2625588125 20.7551171542969  7.35752116666667 20.9706820107422  8.4881580625 20.9706820107422  C 9.61879495833333 20.9706820107422  10.7136085416667 20.7551171542969  11.7467429166667 20.3310167402344  C 12.7440836875 19.9209749033203  13.6414523541667 19.3329163125  14.4102854583333 18.5807824248047  C 15.1814393333333 17.8309623310547  15.7860325625 16.9547029189453  16.2073435625 15.9822008349609  C 16.6454058541667 14.9724435205078  16.8666833958333 13.9015606611328  16.8666833958333 12.7957071210937  Z " fill-rule="nonzero" fill="#ffffff" stroke="none" transform="matrix(1 0 0 1 22 308 )" />
  </g>
</svg>