<?xml version="1.0" encoding="utf-8"?>
<svg version="1.1" xmlns:xlink="http://www.w3.org/1999/xlink" width="18px" height="18px" xmlns="http://www.w3.org/2000/svg">
  <g transform="matrix(1 0 0 1 -22 -365 )">
    <path d="M 12.7993333333333 0.776666666666667  C 12.9400274639055 1.00168872372629  13.0146425634456 1.26172503829312  13 1.52711110416667  L 13 16.4731111041667  C 13.0146666714051 16.4731583923259  13.0146666737743 16.4732056804832  13.0146666737743 16.4732529686427  C 13.0146666737743 17.2551654406234  12.3808013749216 17.889030739476  11.5988889029409 17.889030739476  C 11.333510663473 17.889030739476  11.0734749225142 17.8144436543921  10.8484444375 17.6737777708333  L 5.1255555625 14.0968888958333  L 2.09333333333333 14.0968888958333  C 0.998582225388984 14.0968888958333  0.111111104166667 13.209417774611  0.111111104166667 12.1146666666667  L 0.111111104166667 5.8855555625  C 0.111111104166667 4.79080445455565  0.998582225388983 3.90333333333333  2.09333333333333 3.90333333333333  L 5.1255555625 3.90333333333333  L 10.8484444375 0.326666666666667  C 11.0734834392866 0.185985491088411  11.3335335715409 0.111389796121077  11.5989271386958 0.111389796121077  C 12.0871076103661 0.111389796121077  12.5408487208631 0.362895003353623  12.7995555625 0.776888895833334  Z M 15.1386666666667 4.48622222916667  C 14.9287463807098 4.18375225714934  15.00376226872 3.76837914819596  15.3062222291667 3.5584444375  C 15.6086921972714 3.34852416576373  16.024065290371 3.42354005259529  16.234 3.726  C 18.4395452441784 6.89453940286907  18.4405203684312 11.1008827860502  16.2364444375 14.2704444375  C 16.1111348768945 14.4442143758283  15.9099490266528 14.5471746766794  15.6957097271633 14.5471746766794  C 15.3275198939428 14.5471746766794  15.0290430604967 14.2486978432332  15.0290430604967 13.8805080100127  C 15.0290430604967 13.7489654522956  15.0679579303429 13.6203627226752  15.1408888958333 13.5108888958333  C 17.0280610008437 10.7983850139312  17.0271743937973 7.19779638965563  15.1386666666667 4.48622222916667  Z " fill-rule="nonzero" fill="#ffffff" stroke="none" transform="matrix(1 0 0 1 22 365 )" />
  </g>
</svg>