<?xml version="1.0" encoding="utf-8"?>
<svg version="1.1" xmlns:xlink="http://www.w3.org/1999/xlink" width="15px" height="14px" xmlns="http://www.w3.org/2000/svg">
  <g transform="matrix(1 0 0 1 -7 -7 )">
    <path d="M 14.4787525357143 1.72142114285714  C 14.478716 1.03419796428571  14.0412160714286 0.476971178571432  13.5010200357143 0.476971178571432  L 1.76468467857143 0.476971178571432  C 1.22478103571429 0.476971178571432  0.786659785714285 1.03419796428571  0.786659785714285 1.72142114285714  C 0.786659785714285 2.40926564285714  1.22478103571429 2.96649242857143  1.76468467857143 3  L 13.5010565714286 3  C 14.0412160714286 2.96649242857143  14.4787525357143 2.40926564285714  14.4787525357143 1.72142114285714  Z M 14.4787525357143 7.32299928571429  C 14.478716 6.63544717857143  14.0412160714286 6.07825692857143  13.5010200357143 6  L 1.76468467857143 6  C 1.22478103571429 6.07825692857143  0.786659785714285 6.63544714285715  0.786659785714285 7.32299928571429  C 0.786659785714285 8.01055142857143  1.22478103571429 8.56777817857143  1.76468467857143 8.56777817857143  L 13.5010565714286 8.56777817857143  C 14.0412160714286 8.56777817857143  14.4787525357143 8.01058796428572  14.4787525357143 7.32299928571429  Z M 14.4787525357143 12.3017859642857  C 14.478716 11.6145262142857  14.0412160714286 11.0572994285714  13.5010200357143 11  L 1.76468467857143 11  C 1.22478103571429 11.0572994285714  0.786659785714285 11.6145262142857  0.786659785714285 12.3017859642857  C 0.786659785714285 12.9893381071429  1.22478103571429 13.54685725  1.76468467857143 13.54685725  L 13.5010565714286 13.54685725  C 14.0412160714286 13.54685725  14.4787525357143 12.9893015714286  14.4787525357143 12.3017859642857  Z " fill-rule="nonzero" fill="#fdfdfd" stroke="none" transform="matrix(1 0 0 1 7 7 )" />
  </g>
</svg>