<?xml version="1.0" encoding="utf-8"?>
<svg version="1.1" xmlns:xlink="http://www.w3.org/1999/xlink" width="93px" height="78px" xmlns="http://www.w3.org/2000/svg">
  <g>
    <path d="M 79.1173264728682 76.455474537037  C 77.8962760852713 70.054849537037  66.6460667829457 63.9377164351852  56.5483536046512 60.5956134259259  C 56.0544776356589 60.4310972222222  52.9812140697674 59.0503553240741  54.9065280232558 53.216625  C 59.9371094186046 48.064130787037  63.7511869379845 39.7662222222222  63.7511869379845 31.5962905092593  C 63.7511869379845 19.0463599537037  55.3867644573644 12.4584039351852  45.6640047674419 12.4584039351852  C 35.9412450775194 12.4584039351852  27.5996443023256 19.0372696759259  27.5996443023256 31.5962905092593  C 27.5996443023256 39.7935821759259  31.4137218217054 48.1236631944444  36.4534853875969 53.2669780092593  C 38.4199853875969 58.4102928240741  34.9076714341085 60.3259351851852  34.1668574806202 60.5819780092593  C 24.5630202713178 64.0428784722222  13.4041869379845 70.1829155092593  12.1740435271318 76.4418391203704  C 4.42783068347917 68.0296360895351  0.128115544365844 57.0136283572626  0.128115544365844 45.5797862849558  C 0.128115544365844 20.4133470363522  20.535707221188 0.0119170719928164  45.7097473273116 0.0119170719928164  C 70.8719960225478 0.0119170719928164  91.2747002040655 20.3949536586609  91.2913691085271 45.549599537037  C 91.2979211606101 57.0216268144397  86.9466554104714 68.068134877249  79.1174156201551 76.4554745370371  Z " fill-rule="nonzero" fill="#a3c8ff" stroke="none" />
  </g>
</svg>