<?xml version="1.0" encoding="utf-8"?>
<svg version="1.1" xmlns:xlink="http://www.w3.org/1999/xlink" width="19px" height="16px" xmlns="http://www.w3.org/2000/svg">
  <g transform="matrix(1 0 0 1 -21 -257 )">
    <path d="M 18.9859811946903 3.45865957446809  C 18.9859811946903 1.5603829787234  17.4604325221239 0.0160425531914898  15.5852544247788 0.0160425531914898  L 13.1309336283186 0.0160425531914898  C 12.6020652654867 0.0160425531914898  12.1221681415929 0.319744680851064  11.9083340707965 0.789659574468086  C 11.6741969026549 1.30404255319149  11.164328539823 1.63640425531915  10.6094402654867 1.63640425531915  L 8.50762831858407 1.63640425531915  C 8.01196792035398 1.63640425531915  7.52156194690266 1.29236170212766  7.25818915929203 0.759787234042554  C 7.03466592920354 0.307978723404256  6.55773230088495 0.0160638297872352  6.04324004424779 0.0160638297872352  L 3.53181415929204 0.0160638297872352  C 1.6566360619469 0.0160638297872352  0.131087389380531 1.56040425531915  0.131087389380531 3.45868085106383  L 0.131087389380531 7.42723404255319  C 0.131087389380531 7.4433829787234  0.131633849557522 7.45944680851064  0.132474557522124 7.47131914893617  C 0.131633849557522 7.48663829787234  0.131087389380531 7.50204255319149  0.131087389380531 7.51755319148936  L 0.131171460176991 12.8081063829787  C 0.131171460176991 13.6193617021277  0.444734513274336 14.3824255319149  1.01410398230089 14.9567446808511  C 1.58467146017699 15.5321914893617  2.34160287610619 15.8487659574468  3.14676991150442 15.8486808510638  L 3.15801438053097 15.8486808510638  C 4.82349889380531 15.8425106382979  5.56889159292035 15.165829787234  6.10589380530973 13.1686595744681  L 6.72877433628319 11.2523617021277  L 12.3884413716814 11.2523617021277  L 13.0176902654867 13.1885531914894  C 13.5976736725664 14.9137872340426  14.2424966814159 15.8486808510638  15.9867765486726 15.8486808510638  C 17.6405542035398 15.8486808510638  18.9860232300885 14.4866382978723  18.9860232300885 12.8124893617021  L 18.9860232300885 7.51753191489362  C 18.9860232300885 7.50146808510638  18.9854767699115 7.48551063829787  18.9846360619469 7.47327659574468  C 18.9854557522124 7.45806382978724  18.9860232300885 7.44274468085106  18.9860232300885 7.42723404255319  L 18.9860232300885 3.45865957446809  Z M 8.30831747787611 6.20797872340425  C 8.30831747787611 7.71953191489362  7.09347345132744 8.94925531914894  5.60029203539823 8.94925531914894  C 4.10713163716814 8.94925531914894  2.89237168141593 7.71953191489362  2.89237168141593 6.20797872340425  C 2.89237168141593 4.69642553191489  4.10713163716814 3.4666170212766  5.60029203539823 3.4666170212766  C 7.09347345132743 3.4666170212766  8.30831747787611 4.69642553191489  8.30831747787611 6.20797872340425  Z M 16.2246548672566 6.20791489361702  C 16.2246548672566 6.52476595744681  15.9708661504425 6.78168085106383  15.6578705752212 6.78168085106383  L 14.0834347345133 6.78168085106383  L 14.0834347345133 8.37551063829787  C 14.0834347345133 8.69236170212766  13.8296460176991 8.94927659574468  13.5166504424779 8.94927659574468  C 13.2036548672566 8.94927659574468  12.9498661504425 8.69236170212766  12.9498661504425 8.37551063829787  L 12.9498661504425 6.78168085106383  L 11.3754303097345 6.78168085106383  C 11.0624137168142 6.78168085106383  10.8086460176991 6.52476595744681  10.8086460176991 6.20791489361702  C 10.8086460176991 5.89106382978724  11.0624347345133 5.63414893617021  11.3754303097345 5.63414893617021  L 12.9498661504425 5.63414893617021  L 12.9498661504425 4.04040425531915  C 12.9498661504425 3.72355319148936  13.2036548672566 3.46663829787234  13.5166504424779 3.46663829787234  C 13.8296670353982 3.46663829787234  14.0834347345133 3.72355319148936  14.0834347345133 4.04040425531915  L 14.0834347345133 5.63414893617021  L 15.6578705752212 5.63414893617021  C 15.9708661504425 5.63414893617021  16.2246548672566 5.89106382978724  16.2246548672566 6.20791489361702  Z " fill-rule="nonzero" fill="#ffffff" stroke="none" transform="matrix(1 0 0 1 21 257 )" />
  </g>
</svg>