<?xml version="1.0" encoding="utf-8"?>
<svg version="1.1" xmlns:xlink="http://www.w3.org/1999/xlink" width="19px" height="19px" xmlns="http://www.w3.org/2000/svg">
  <g transform="matrix(1 0 0 1 -20 -201 )">
    <path d="M 2.44646990740739 10.6897196261682  C 2.44646990740739 10.6897196261682  -0.216608796296276 10.5210280373832  0.058275462962979 8.49894859813083  L 8.15196759259261 0.381775700934573  C 8.15196759259261 0.381775700934573  9.62644675925925 -0.37622663551403  10.656712962963 0.381775700934573  C 11.6869791666666 1.13977803738317  18.8317708333333 8.58329439252337  18.8317708333333 8.58329439252337  C 18.8317708333333 8.58329439252337  19.0824652777778 10.6619742990654  16.3336226851852 10.6342289719626  L 16.3336226851852 17.7126168224299  C 16.3336226851852 17.7126168224299  15.6310185185185 19.0011098130841  14.1356481481482 18.9766939252337  C 14.1356481481482 18.9766939252337  12.8766782407407 19.0011098130841  12.0212384259259 17.6560163551402  L 12.0212384259259 10.6897196261682  L 6.75995370370372 10.6897196261682  L 6.75995370370372 17.4307242990654  C 6.75995370370372 17.4307242990654  6.09253472222223 19.2286214953271  4.3662615740741 18.9755841121495  C 4.3662615740741 18.9755841121495  2.86319444444447 18.722546728972  2.44646990740739 17.5994158878505  L 2.44646990740739 10.6897196261682  Z " fill-rule="nonzero" fill="#ffffff" stroke="none" transform="matrix(1 0 0 1 20 201 )" />
  </g>
</svg>