<?xml version="1.0" encoding="utf-8"?>
<svg version="1.1" xmlns:xlink="http://www.w3.org/1999/xlink" width="14px" height="19px" xmlns="http://www.w3.org/2000/svg">
  <g transform="matrix(1 0 0 1 -24 -418 )">
    <path d="M 14 0  L 1.8565961372549 0  C 0.890818301470588 0.0064366396484375  0.100713049019608 0.860914306640625  0.100713049019608 1.90545311132813  L 0.100713049019608 17.0946228515625  C 0.100713049019608 18.1390857119141  0.890818301470588 18.9935633789062  1.8565961372549 19  L 14 19  L 14 0  Z M 3.8807283872549 0.982298998046875  L 6.80720603431373 0.982298998046875  L 6.80720603431373 8.20885639160156  L 5.34395842647059 7.1011284296875  L 3.88071081862745 8.20885639160156  L 3.88071083578431 0.982298998046875  Z M 12.7709969436275 15  L 12.7709969436275 18  L 2.44188463235294 18  C 1.71752931617647 17.9674041054688  1.12495476470588 17.3264556748047  1.12495476470588 16.5432177099609  C 1.12495476470588 15.7598088564453  1.71752931617647 15.1189553515625  2.44188463235294 15  L 12.7709969436275 15  Z " fill-rule="nonzero" fill="#ffffff" stroke="none" transform="matrix(1 0 0 1 24 418 )" />
  </g>
</svg>