<?xml version="1.0" encoding="utf-8"?>
<svg version="1.1" xmlns:xlink="http://www.w3.org/1999/xlink" width="17px" height="14px" xmlns="http://www.w3.org/2000/svg">
  <g transform="matrix(1 0 0 1 -15 -16 )">
    <path d="M 0.0408653846153846 7.02541666666666  C 0.0408653846153846 7.50291666666666  0.420709134615385 7.89  0.888822115384615 7.89  L 14.1048918269231 7.89  L 9.61685096153846 12.46625  C 9.28584134615384 12.80375  9.28584134615384 13.3510416666667  9.61685096153846 13.68875  C 9.94806490384615 14.0264583333333  10.4848317307692 14.0264583333333  10.8160456730769 13.68875  L 16.7515384615385 7.636875  C 17.0825480769231 7.299375  17.0825480769231 6.751875  16.7515384615385 6.414375  L 10.8160456730769 0.362291666666665  C 10.6505408653846 0.193333333333332  10.4335456730769 0.108958333333332  10.2163461538462 0.108958333333332  C 9.99935096153846 0.108958333333332  9.78235576923077 0.193333333333332  9.61685096153846 0.362291666666665  C 9.28584134615384 0.699791666666665  9.28584134615384 1.24729166666666  9.61685096153846 1.58479166666667  L 14.1048918269231 6.16083333333333  L 0.888822115384615 6.16083333333333  C 0.420504807692308 6.16083333333333  0.0408653846153846 6.54791666666666  0.0408653846153846 7.02541666666666  Z " fill-rule="nonzero" fill="#ffffff" stroke="none" transform="matrix(1 0 0 1 15 16 )" />
  </g>
</svg>