<?xml version="1.0" encoding="utf-8"?>
<svg version="1.1" xmlns:xlink="http://www.w3.org/1999/xlink" width="13px" height="9px" xmlns="http://www.w3.org/2000/svg">
  <g transform="matrix(1 0 0 1 -655 -148 )">
    <path d="M 6.52272501692949 9  C 6.52272501692949 9  4.36003324935897 6.90525007247925  4.36003324935897 6.90525007247925  C 4.87798129353094 6.33150005340576  5.63892842342623 5.96880006790161  6.48762517018435 5.96880006790161  C 7.35252144273344 5.96880006790161  8.12651907807048 6.345449924469  8.64446616857185 6.93854999542237  C 8.64446616857185 6.93854999542237  6.52272501692949 9  6.52272501692949 9  Z M 9.73436194777978 5.87925004959107  C 8.93561512964675 5.01840019226074  7.77687005453015 4.4766001701355  6.48762517018435 4.4766001701355  C 5.21368002341041 4.4766001701355  4.06708423501055 5.00535011291504  3.26923744351427 5.8486499786377  C 3.26923744351427 5.8486499786377  2.17934166430633 4.79250001907349  2.17934166430633 4.79250001907349  C 3.25663730901737 3.67965006828308  4.7884316233946 2.98440003395081  6.48762517018435 2.98440003395081  C 8.20121818949156 2.98440003395081  9.74471213489363 3.69180011749268  10.8233584156039 4.82130002975464  C 10.8233584156039 4.82130002975464  9.73436194777978 5.87925004959107  9.73436194777978 5.87925004959107  Z M 11.9119037972303 3.76425004005432  C 10.5538091401405 2.36564993858337  8.62601645698018 1.4922000169754  6.48762517018435 1.4922000169754  C 4.36273309085158 1.4922000169754  2.44619062144185 2.35440015792847  1.08944576588956 3.73725008964539  C 1.08944576588956 3.73725008964539  0 2.68155002593994  0 2.68155002593994  C 1.63574369544867 1.02915000915527  3.93748469083576 0  6.48762517018435 0  C 9.05036459194159 0  11.3629061453874 1.03949999809265  13 2.70675015449524  C 13 2.70675015449524  11.9119037972303 3.76425004005432  11.9119037972303 3.76425004005432  Z " fill-rule="nonzero" fill="#030303" stroke="none" transform="matrix(1 0 0 1 655 148 )" />
  </g>
</svg>