<?xml version="1.0" encoding="utf-8"?>
<svg version="1.1" xmlns:xlink="http://www.w3.org/1999/xlink" width="24px" height="24px" xmlns="http://www.w3.org/2000/svg">
  <g transform="matrix(1 0 0 1 -72 -40 )">
    <path d="M 84 40  C 90.72 40  96 45.28  96 52  C 96 58.72  90.72 64  84 64  C 77.28 64  72 58.72  72 52  C 72 45.28  77.28 40  84 40  Z " fill-rule="nonzero" fill="#ffbf60" stroke="none" />
    <path d="M 84 40.5  C 90.44 40.5  95.5 45.56  95.5 52  C 95.5 58.44  90.44 63.5  84 63.5  C 77.56 63.5  72.5 58.44  72.5 52  C 72.5 45.56  77.56 40.5  84 40.5  Z " stroke-width="1" stroke="#ffffff" fill="none" />
  </g>
</svg>