<?xml version="1.0" encoding="utf-8"?>
<svg version="1.1" xmlns:xlink="http://www.w3.org/1999/xlink" width="23px" height="17px" xmlns="http://www.w3.org/2000/svg">
  <g transform="matrix(1 0 0 1 -829 -664 )">
    <path d="M 23 13.0000783179638  C 23 15.2056418735278  21.1795811656192 17.0000001192054  18.9419824506542 17.0000001192054  C 18.9419824506542 17.0000001192054  9.25231708690854 17.0000001192054  9.25231708690854 17.0000001192054  C 8.15708686984225 17.0000001192054  7.09282422580016 16.5542137925444  6.33240718843576 15.7769381609941  C 6.33240718843576 15.7769381609941  0.594390760227114 9.91407875663974  0.594390760227114 9.91407875663974  C 0.211095449438765 9.53648556183901  0 9.03428646017108  0 8.49999916556203  C 0 7.96571187095298  0.211090385208258 7.46351324610675  0.594390760227114 7.08592052812771  C 0.594390760227114 7.08592052812771  6.33240718843576 1.22306052774625  6.33240718843576 1.22306052774625  C 7.09236273078852 0.445785641229818  8.15663021230453 0  9.25231708690854 0  C 9.25231708690854 0  18.9419824506542 0  18.9419824506542 0  C 21.1795811656192 0  23 1.79455696111996  23 4.00037060966422  C 23 4.00037060966422  23 13.0000783179638  23 13.0000783179638  Z M 18.9419824506542 1.43635360143428  C 18.9419824506542 1.43635360143428  9.25231708690854 1.43635360143428  9.25231708690854 1.43635360143428  C 8.55067439013546 1.43635360143428  7.86878890433235 1.72189934770792  7.38149274181207 2.21977796797666  C 7.38149274181207 2.21977796797666  1.64393315254642 8.08263808756354  1.64393315254642 8.08263808756354  L 1.63480278333947 8.09208773996052  C 1.63480278333947 8.09208773996052  1.62475934093078 8.10108727267526  1.62475934093078 8.10108727267526  C 1.4793826072958 8.24483280247184  1.45767250810571 8.41229735077865  1.45767250810571 8.49932398603866  C 1.45767250810571 8.58618182641783  1.47937752794819 8.75336123534965  1.62475934093078 8.89711153336321  C 1.62475934093078 8.89711153336321  1.63480278333947 8.90611106607795  1.63480278333947 8.90611106607795  L 1.64393315254642 8.91556071847493  C 1.64393315254642 8.91556071847493  7.38149274181207 14.7784201228293  7.38149274181207 14.7784201228293  C 7.86834772671116 15.2762992199197  8.55023321251427 15.5618448469879  9.25231708690854 15.5618448469879  C 9.25231708690854 15.5618448469879  18.9419824506542 15.5618448469879  18.9419824506542 15.5618448469879  C 20.3753124272013 15.5618448469879  21.5414145396294 14.4124375363577  21.5414145396294 12.9996281982815  C 21.5414145396294 12.9996281982815  21.5414145396294 3.99902025061748  21.5414145396294 3.99902025061748  C 21.5414145396294 2.58596105797198  20.3753124272013 1.43635360143428  18.9419824506542 1.43635360143428  Z M 10.8695088045811 12.4996939996758  L 9.81155616151577 11.4561782979373  L 12.8109012516774 8.49977410572091  L 9.81155616151577 5.54337039032624  L 10.8702286206999 4.49985421176605  L 13.8695737108616 7.45625840398241  L 16.868919768518 4.49985421176605  L 17.9271346026697 5.54337039032624  L 14.9277904800028 8.49977410572091  L 17.9271346026697 11.4561782979373  L 16.8692796765774 12.499339244333  L 13.8695737108616 9.54329076110279  L 10.8702286206999 12.4996939996758  Z " fill-rule="nonzero" fill="#000000" stroke="none" transform="matrix(1 0 0 1 829 664 )" />
  </g>
</svg>