<?xml version="1.0" encoding="utf-8"?>
<svg version="1.1" xmlns:xlink="http://www.w3.org/1999/xlink" width="17px" height="16px" xmlns="http://www.w3.org/2000/svg">
  <g transform="matrix(1 0 0 1 -418 -184 )">
    <path d="M 13 3.23809523809524  L 13 13.752380952381  C 13.26796875 14.2984126984127  12.803125 14.7428571428571  12.2325625 14.7428571428571  L 4.76796875 14.7428571428571  C 4.19620018372163 14.7420180363122  3.73290887022421 14.2990579009048  4 13.752380952381  L 4 3.23809523809524  L 13 3.23809523809524  Z M 5.80390625 2.05714285714286  L 5.80390625 1.46031746031746  C 5.80390625 1.34603174603175  5.896875 1.25714285714286  6.01640625 1.25714285714286  L 10.996875 1.25714285714286  C 11.11640625 1.25714285714286  11.20884375 1.34603174603175  11.20884375 1.46031746031746  L 11.20884375 2.05714285714286  L 5.80390625 2.05714285714286  Z M 17 2.64126984126984  C 17 2.31111111111111  16.72109375 2.05714285714286  16.37578125 2.05714285714286  L 12.44453125 2.05714285714286  L 12.44453125 1.46031746031746  C 12.44453125 0.698412698412698  11.79375 0.0761904761904761  10.996875 0.0761904761904761  L 6.01640625 0.0761904761904761  C 5.21761503279722 0.0778665690452281  4.57050302289789 0.69658057290789  4.56875 1.46031746031746  L 4.56875 2.05714285714286  L 0.62421875 2.05714285714286  C 0.27890625 2.05714285714286  0 2.32380952380952  0 2.65396825396825  C 0 2.98412698412698  0.27890625 3.25079365079365  0.62421875 3.25079365079365  L 2.48359375 3.25079365079365  L 2.48359375 13.752380952381  C 2.48359375 14.9586409774082  3.50634327460528 15.9365079365079  4.76796875 15.9365079365079  L 12.23203125 15.9365079365079  C 13.4936567253947 15.9365079365079  14.51640625 14.9586409774082  14.51640625 13.752380952381  L 14.51640625 3.23809523809524  L 16.37578125 3.23809523809524  C 16.72109375 3.23809523809524  17 2.97142857142857  17 2.64126984126984  Z M 7.87578125 12.3555555555556  C 7.87578125 12.6857142857143  8.1546875 12.952380952381  8.5 12.952380952381  C 8.8453125 12.952380952381  9.12421875 12.6857142857143  9.12421875 12.3555555555556  L 9.12421875 6.00634920634921  C 9.12421875 5.67619047619048  8.84584375 5.40952380952381  8.5 5.40952380952381  C 8.1546875 5.40952380952381  7.87578125 5.67619047619048  7.87578125 6.00634920634921  L 7.87578125 12.3555555555556  Z M 4.9671875 12.3555555555556  C 4.98046875 12.6857142857143  5.259375 12.952380952381  5.59140625 12.952380952381  C 5.93671875 12.952380952381  6.215625 12.6857142857143  6.215625 12.3555555555556  L 6.215625 6.00634920634921  C 6.215625 5.67619047619048  5.93671875 5.40952380952381  5.59140625 5.40952380952381  C 5.24609375 5.40952380952381  4.9671875 5.67619047619048  4.9671875 6.00634920634921  L 4.9671875 12.3555555555556  Z M 10.784375 12.3555555555556  C 10.784375 12.6857142857143  11.06328125 12.952380952381  11.40859375 12.952380952381  C 11.75390625 12.952380952381  12.03334375 12.6857142857143  12.03334375 12.3555555555556  L 12.03334375 6.00634920634921  C 12.03334375 5.67619047619048  11.7544375 5.40952380952381  11.40859375 5.40952380952381  C 11.0638125 5.40952380952381  10.784375 5.67619047619048  10.784375 6.00634920634921  L 10.784375 12.3555555555556  Z " fill-rule="nonzero" fill="#7b7b7b" stroke="none" transform="matrix(1 0 0 1 418 184 )" />
  </g>
</svg>