<?xml version="1.0" encoding="utf-8"?>
<svg version="1.1" xmlns:xlink="http://www.w3.org/1999/xlink" width="21px" height="12px" preserveAspectRatio="xMinYMid meet" viewBox="834 174  21 10" xmlns="http://www.w3.org/2000/svg">
  <path d="M 818 292.5  L 835 292.5  A 5 5 0 0 0 840.5 287.5 L 840.5 184  A 5 5 0 0 1 845.5 179.5 L 852 179.5  " stroke-width="3" stroke="#d7af1f" fill="none" />
  <path d="M 819 288.5  A 4 4 0 0 0 815 292.5 A 4 4 0 0 0 819 296.5 A 4 4 0 0 0 823 292.5 A 4 4 0 0 0 819 288.5 Z M 851 175.5  A 4 4 0 0 0 847 179.5 A 4 4 0 0 0 851 183.5 A 4 4 0 0 0 855 179.5 A 4 4 0 0 0 851 175.5 Z " fill-rule="nonzero" fill="#d7af1f" stroke="none" />
</svg>