<?xml version="1.0" encoding="utf-8"?>
<svg version="1.1" xmlns:xlink="http://www.w3.org/1999/xlink" width="22px" height="22px" preserveAspectRatio="xMinYMid meet" viewBox="437 168  22 20" xmlns="http://www.w3.org/2000/svg">
  <path d="M 415 304.5  L 435 304.5  A 5 5 0 0 0 440.5 299.5 L 440.5 183  A 5 5 0 0 1 445.5 178.5 L 449 178.5  " stroke-width="3" stroke="#d7af1f" fill="none" />
  <path d="M 416 300.5  A 4 4 0 0 0 412 304.5 A 4 4 0 0 0 416 308.5 A 4 4 0 0 0 420 304.5 A 4 4 0 0 0 416 300.5 Z M 448 174.5  A 4 4 0 0 0 444 178.5 A 4 4 0 0 0 448 182.5 A 4 4 0 0 0 452 178.5 A 4 4 0 0 0 448 174.5 Z " fill-rule="nonzero" fill="#d7af1f" stroke="none" />
</svg>