<?xml version="1.0" encoding="utf-8"?>
<svg version="1.1" xmlns:xlink="http://www.w3.org/1999/xlink" width="16px" height="12px" preserveAspectRatio="xMinYMid meet" viewBox="1230 440  16 10" xmlns="http://www.w3.org/2000/svg">
  <path d="M 1233 445.5  L 1235 445.5  A 5 5 0 0 0 1240.5 440.5 L 1240.5 45  A 5 5 0 0 1 1245.5 40.5 L 2128 40.5  A 5 5 0 0 1 2133.5 45.5 L 2133.5 50  " stroke-width="3" stroke="#d7af1f" fill="none" />
  <path d="M 1234 441.5  A 4 4 0 0 0 1230 445.5 A 4 4 0 0 0 1234 449.5 A 4 4 0 0 0 1238 445.5 A 4 4 0 0 0 1234 441.5 Z M 2133.5 45  A 4 4 0 0 0 2129.5 49 A 4 4 0 0 0 2133.5 53 A 4 4 0 0 0 2137.5 49 A 4 4 0 0 0 2133.5 45 Z " fill-rule="nonzero" fill="#d7af1f" stroke="none" />
</svg>