<?xml version="1.0" encoding="utf-8"?>
<svg version="1.1" xmlns:xlink="http://www.w3.org/1999/xlink" width="32px" height="12px" preserveAspectRatio="xMinYMid meet" viewBox="411 782  32 10" xmlns="http://www.w3.org/2000/svg">
  <path d="M 414 787.5  L 432 787.5  A 5 5 0 0 1 437.5 792.5 L 437.5 923  A 5 5 0 0 0 442.5 928.5 L 451 928.5  " stroke-width="3" stroke="#d7af1f" fill="none" />
  <path d="M 415 783.5  A 4 4 0 0 0 411 787.5 A 4 4 0 0 0 415 791.5 A 4 4 0 0 0 419 787.5 A 4 4 0 0 0 415 783.5 Z M 450 924.5  A 4 4 0 0 0 446 928.5 A 4 4 0 0 0 450 932.5 A 4 4 0 0 0 454 928.5 A 4 4 0 0 0 450 924.5 Z " fill-rule="nonzero" fill="#d7af1f" stroke="none" />
</svg>