<?xml version="1.0" encoding="utf-8"?>
<svg version="1.1" xmlns:xlink="http://www.w3.org/1999/xlink" width="12px" height="117px" preserveAspectRatio="xMidYMin meet" viewBox="1635 67  10 117" xmlns="http://www.w3.org/2000/svg">
  <path d="M 1623 178.5  L 1635 178.5  A 5 5 0 0 0 1640.5 173.5 L 1640.5 78  A 5 5 0 0 1 1645.5 73.5 L 1653 73.5  " stroke-width="3" stroke="#d7af1f" fill="none" />
  <path d="M 1624 174.5  A 4 4 0 0 0 1620 178.5 A 4 4 0 0 0 1624 182.5 A 4 4 0 0 0 1628 178.5 A 4 4 0 0 0 1624 174.5 Z M 1652 69.5  A 4 4 0 0 0 1648 73.5 A 4 4 0 0 0 1652 77.5 A 4 4 0 0 0 1656 73.5 A 4 4 0 0 0 1652 69.5 Z " fill-rule="nonzero" fill="#d7af1f" stroke="none" />
</svg>