<?xml version="1.0" encoding="utf-8"?>
<svg version="1.1" xmlns:xlink="http://www.w3.org/1999/xlink" width="21px" height="21px" xmlns="http://www.w3.org/2000/svg">
  <g transform="matrix(1 0 0 1 -867 -434 )">
    <path d="M 5.24964131835937 9.75079827832031  L 9.74936301855469 9.75079827832031  L 9.74936301855469 5.251076578125  C 9.74936301855469 4.83705214453125  10.0850529609375 4.50115714453125  10.4992824521484 4.50115714453125  C 10.9135119433594 4.50115714453125  11.2492018857422 4.83684708691406  11.24920190625 5.251076578125  L 11.24920190625 9.75079827832031  L 15.7489235859375 9.75079827832031  C 16.1629480195312 9.75079827832031  16.4988430195313 10.0864882207031  16.4988430400391 10.5007177324219  C 16.4988430605469 10.9149472441406  16.1631530976562 11.2506371660156  15.7489235859375 11.2506371660156  L 11.24920190625 11.2506371660156  L 11.24920190625 15.7503588662109  C 11.24920190625 16.1643832998047  10.9135119638672 16.5002782998047  10.4992824521484 16.5002782998047  C 10.0852580185547 16.5002782998047  9.74936301855469 16.1645883574219  9.74936301855469 15.7503588662109  L 9.74936301855469 11.2506371660156  L 5.24964131835937 11.2506371660156  C 4.83889790917969 11.2426396728516  4.50771937792969 10.9116661992188  4.49972188476563 10.5007177324219  C 4.49972188476563 10.0866932988281  4.83541182714844 9.75079829882812  5.24964131835937 9.75079827832031  Z M 0 10.5007177324219  C 0 4.70211998730469  4.70068470703125 0.0014354648437489  10.4992824521484 0.0014354443359375  C 16.2978801972656 0.0014354443359375  20.9985647197266 4.70211996679688  20.9985647402344 10.5007177324219  C 20.9985647607422 16.2993154980469  16.2978802177734 21  10.4992824521484 21  C 4.70068468652344 21  0 16.2993154775391  0 10.5007177324219  Z M 1.49983905175781 10.5007177324219  C 1.49983905175781 15.4706514375  5.52934874707031 19.5001611328125  10.4992824521484 19.5001611123047  C 15.4696262724609 19.5001611123047  19.4987258525391 15.4710615322266  19.4987258525391 10.5007177324219  C 19.4987258525391 5.53098910546875  15.4692161572266 1.50127433203125  10.4992824521484 1.50127433203125  C 5.52955382519531 1.50127433203125  1.49983905175781 5.53078402734375  1.49983905175781 10.5007177324219  Z " fill-rule="nonzero" fill="#419fe3" stroke="none" transform="matrix(1 0 0 1 867 434 )" />
  </g>
</svg>