<?xml version="1.0" encoding="utf-8"?>
<svg version="1.1" xmlns:xlink="http://www.w3.org/1999/xlink" width="22px" height="22px" preserveAspectRatio="xMinYMid meet" viewBox="801 1025  22 20" xmlns="http://www.w3.org/2000/svg">
  <path d="M 811 1035.5  L 835.460829493089 1035.5  A 5 5 0 0 0 840.960829493089 1030.5 L 840.960829493089 934  A 5 5 0 0 1 845.960829493089 929.5 L 852 929.5  " stroke-width="3" stroke="#d7af1f" fill="none" />
  <path d="M 812 1031.5  A 4 4 0 0 0 808 1035.5 A 4 4 0 0 0 812 1039.5 A 4 4 0 0 0 816 1035.5 A 4 4 0 0 0 812 1031.5 Z M 851 925.5  A 4 4 0 0 0 847 929.5 A 4 4 0 0 0 851 933.5 A 4 4 0 0 0 855 929.5 A 4 4 0 0 0 851 925.5 Z " fill-rule="nonzero" fill="#d7af1f" stroke="none" />
</svg>