<?xml version="1.0" encoding="utf-8"?>
<svg version="1.1" xmlns:xlink="http://www.w3.org/1999/xlink" width="22px" height="22px" xmlns="http://www.w3.org/2000/svg">
  <g transform="matrix(1 0 0 1 -1284 -922 )">
    <path d="M 21.9166794354839 11.0148366935484  C 21.9166794354839 4.99464314516129  17.0362278225806 0.114191532258065  11.0160342741935 0.114191532258065  C 4.99584072580645 0.114191532258065  0.115389112903225 4.99464314516129  0.115389112903225 11.0148366935484  C 0.115389112903225 17.0350302419355  4.99584072580645 21.9154818548387  11.0160342741935 21.9154818548387  C 17.0362278225806 21.9154818548387  21.9166794354839 17.0350302419355  21.9166794354839 11.0148366935484  Z M 17.3578004032258 7.59809475806452  C 17.3578004032258 7.59809475806452  9.38277822580645 15.0798689516129  9.38033870967742 15.081997983871  C 9.20138911290323 15.2564233870968  8.91252822580645 15.2527641129032  8.73810282258064 15.073814516129  L 4.66550806451613 11.0548225806452  C 4.49108266129032 10.875872983871  4.49474193548387 10.5870120967742  4.67369153225806 10.4125866935484  C 4.85264112903226 10.2381612903226  5.14150201612903 10.2418205645161  5.31592741935484 10.4207701612903  L 9.0660625 14.1139758064516  L 16.7234596774194 6.94769758064516  C 16.9024092741935 6.77327217741936  17.1912701612903 6.7769314516129  17.3656955645161 6.9558810483871  C 17.5404092741936 7.13483064516129  17.5367721774194 7.42369153225806  17.3578225806452 7.59811693548387  Z " fill-rule="nonzero" fill="#63afe6" stroke="none" transform="matrix(1 0 0 1 1284 922 )" />
  </g>
</svg>