<?xml version="1.0" encoding="utf-8"?>
<svg version="1.1" xmlns:xlink="http://www.w3.org/1999/xlink" width="218px" height="50px" xmlns="http://www.w3.org/2000/svg">
  <defs>
    <filter x="674px" y="368px" width="218px" height="50px" filterUnits="userSpaceOnUse" id="filter335">
      <feOffset dx="1" dy="0" in="SourceAlpha" result="shadowOffsetInner" />
      <feGaussianBlur stdDeviation="0" in="shadowOffsetInner" result="shadowGaussian" />
      <feComposite in2="shadowGaussian" operator="atop" in="SourceAlpha" result="shadowComposite" />
      <feColorMatrix type="matrix" values="0 0 0 0 0.996078431372549  0 0 0 0 0.996078431372549  0 0 0 0 0.996078431372549  0 0 0 1 0  " in="shadowComposite" />
    </filter>
    <g id="widget336">
      <path d="M 871 368  C 871 368  875 368.460829493088  875 368.460829493088  C 875 368.460829493088  891 393  891 393  C 891 393  875 417.539170506912  875 417.539170506912  C 875 417.539170506912  871 418  871 418  C 871 418  679 418  679 418  C 676.2 418  674 415.8  674 413  C 674 413  674 373  674 373  C 674 370.2  676.2 368  679 368  C 679 368  871 368  871 368  Z " fill-rule="nonzero" fill="#0079fe" stroke="none" />
    </g>
  </defs>
  <g transform="matrix(1 0 0 1 -674 -368 )">
    <use xlink:href="#widget336" filter="url(#filter335)" />
    <use xlink:href="#widget336" />
  </g>
</svg>