<?xml version="1.0" encoding="utf-8"?>
<svg version="1.1" xmlns:xlink="http://www.w3.org/1999/xlink" width="79px" height="79px" xmlns="http://www.w3.org/2000/svg">
  <g transform="matrix(1 0 0 1 -926 -543 )">
    <path d="M 79 39.5  C 79 17.6230769052734  61.3769230947266 0  39.5 0  C 17.6230769052734 0  0 17.6230769052734  0 39.5  C 0 61.3769230947266  17.6230769052734 79  39.5 79  C 61.3769230947266 79  79 61.3769230947266  79 39.5  Z M 42 66.8461538105469  L 42.5384615087891 66.8461538105469  C 42.5384615087891 68.6692307158203  41.3230769052734 69.8846153193359  39.5 69.8846153964844  C 37.6769230947266 69.8846154736328  36.4615384912109 68.3653846035156  37 66.8461538105469  L 37 38.2846153964844  L 16.7115384912109 27.65  C 15.1923076982422 27.0423076982422  14.5846153964844 25.2192307929687  15.4961538105469 23.7  C 16.4076923017578 22.1807692070312  18.2307692070313 21.5730769052734  19.4461538105469 22.4846153964844  L 41.0192307929687 34.0307692070312  L 41.3230769052734 34.3346153964844  C 41.6269230947265 34.3346153964844  41.6269230947265 34.6384615859375  41.6269230947265 34.6384615087891  C 41.9307692841797 34.9423076982422  41.9307692841797 34.9423076982422  41.9307692070312 35.2461538105469  L 42 35.55  L 42 66.8461538105469  Z " fill-rule="nonzero" fill="#73e08b" stroke="none" transform="matrix(1 0 0 1 926 543 )" />
  </g>
</svg>