<?xml version="1.0" encoding="utf-8"?>
<svg version="1.1" xmlns:xlink="http://www.w3.org/1999/xlink" width="11px" height="7px" xmlns="http://www.w3.org/2000/svg">
  <defs>
    <mask fill="white" id="clip148">
      <path d="M 6.10112804358304 6.51713863404502  C 7.55637319504722 6.28473744608725  8.7052818924052 5.46250654727322  9.45415813766967 4.14862980928938  C 9.56481902565801 3.95204412169522  9.49673465059783 3.71964293373745  9.31800668101515 3.61243253888634  C 9.13927871143247 3.50522214403524  8.92655178798433 3.56775397352403  8.81590819346184 3.74652272102859  C 8.81590819346184 3.74652272102859  7.33034880738094 5.44746055331514  6.10486464322934 5.65301827801865  C 5.2197850609128 5.80496172428739  4.39908784094185 5.72171487444838  4.31396940201724 5.70386161032189  C 2.90126617654951 5.24803127151569  1.89705190797704 4.34530630697575  1.30985227496497 3.00465875381141  C 0.858804098607409 1.98576951932945  1.0005159647643 1.5096200096204  0.841770034742974 1.07410884171705  C 0.738754494073846 0.841329966330359  0.610598647940156 0.707671957672346  0.458806233445598 0.707671957672346  C 0.254553108265046 0.707671957672346  0.092859202546804 0.877486830086005  0.0843508173475129 1.09198026786197  C 0.0843508173475129 1.09198026786197  0.118401651610531 2.14659419261533  0.611991753964548 3.30850932231199  C 1.08005670072069 4.38998487233806  2.06723690542873 5.81105384315456  4.10120789163739 6.46350619359181  C 4.12673304723527 6.47244190666427  4.59481528745726 6.58862433862472  5.23308252513094 6.58862433862472  C 5.49689434670653 6.58862433862472  5.78624861734585 6.57071658844291  6.10112804358304 6.51713863404502  Z M 9.90040596824172 1.91059403559438  C 10.1938721687874 1.91059403559438  10.4239289096228 1.63721443835972  10.4239289096228 1.30913299663334  C 10.4239289096228 0.981070072796096  10.1859580750615 0.707690475561435  9.90040596824172 0.707690475561435  C 9.61485386142195 0.707690475561435  9.3768830268607 0.981070072796096  9.3768830268607 1.30915151452247  C 9.3768830268607 1.63723295624885  9.61483774310479 1.91059403559438  9.90040596824172 1.91059403559438  Z " fill-rule="evenodd" />
    </mask>
  </defs>
  <g transform="matrix(1 0 0 1 -5 -7 )">
    <path d="M 6.10112804358304 6.51713863404502  C 7.55637319504722 6.28473744608725  8.7052818924052 5.46250654727322  9.45415813766967 4.14862980928938  C 9.56481902565801 3.95204412169522  9.49673465059783 3.71964293373745  9.31800668101515 3.61243253888634  C 9.13927871143247 3.50522214403524  8.92655178798433 3.56775397352403  8.81590819346184 3.74652272102859  C 8.81590819346184 3.74652272102859  7.33034880738094 5.44746055331514  6.10486464322934 5.65301827801865  C 5.2197850609128 5.80496172428739  4.39908784094185 5.72171487444838  4.31396940201724 5.70386161032189  C 2.90126617654951 5.24803127151569  1.89705190797704 4.34530630697575  1.30985227496497 3.00465875381141  C 0.858804098607409 1.98576951932945  1.0005159647643 1.5096200096204  0.841770034742974 1.07410884171705  C 0.738754494073846 0.841329966330359  0.610598647940156 0.707671957672346  0.458806233445598 0.707671957672346  C 0.254553108265046 0.707671957672346  0.092859202546804 0.877486830086005  0.0843508173475129 1.09198026786197  C 0.0843508173475129 1.09198026786197  0.118401651610531 2.14659419261533  0.611991753964548 3.30850932231199  C 1.08005670072069 4.38998487233806  2.06723690542873 5.81105384315456  4.10120789163739 6.46350619359181  C 4.12673304723527 6.47244190666427  4.59481528745726 6.58862433862472  5.23308252513094 6.58862433862472  C 5.49689434670653 6.58862433862472  5.78624861734585 6.57071658844291  6.10112804358304 6.51713863404502  Z M 9.90040596824172 1.91059403559438  C 10.1938721687874 1.91059403559438  10.4239289096228 1.63721443835972  10.4239289096228 1.30913299663334  C 10.4239289096228 0.981070072796096  10.1859580750615 0.707690475561435  9.90040596824172 0.707690475561435  C 9.61485386142195 0.707690475561435  9.3768830268607 0.981070072796096  9.3768830268607 1.30915151452247  C 9.3768830268607 1.63723295624885  9.61483774310479 1.91059403559438  9.90040596824172 1.91059403559438  Z " fill-rule="nonzero" fill="#ffffff" stroke="none" transform="matrix(1 0 0 1 5 7 )" />
    <path d="M 6.10112804358304 6.51713863404502  C 7.55637319504722 6.28473744608725  8.7052818924052 5.46250654727322  9.45415813766967 4.14862980928938  C 9.56481902565801 3.95204412169522  9.49673465059783 3.71964293373745  9.31800668101515 3.61243253888634  C 9.13927871143247 3.50522214403524  8.92655178798433 3.56775397352403  8.81590819346184 3.74652272102859  C 8.81590819346184 3.74652272102859  7.33034880738094 5.44746055331514  6.10486464322934 5.65301827801865  C 5.2197850609128 5.80496172428739  4.39908784094185 5.72171487444838  4.31396940201724 5.70386161032189  C 2.90126617654951 5.24803127151569  1.89705190797704 4.34530630697575  1.30985227496497 3.00465875381141  C 0.858804098607409 1.98576951932945  1.0005159647643 1.5096200096204  0.841770034742974 1.07410884171705  C 0.738754494073846 0.841329966330359  0.610598647940156 0.707671957672346  0.458806233445598 0.707671957672346  C 0.254553108265046 0.707671957672346  0.092859202546804 0.877486830086005  0.0843508173475129 1.09198026786197  C 0.0843508173475129 1.09198026786197  0.118401651610531 2.14659419261533  0.611991753964548 3.30850932231199  C 1.08005670072069 4.38998487233806  2.06723690542873 5.81105384315456  4.10120789163739 6.46350619359181  C 4.12673304723527 6.47244190666427  4.59481528745726 6.58862433862472  5.23308252513094 6.58862433862472  C 5.49689434670653 6.58862433862472  5.78624861734585 6.57071658844291  6.10112804358304 6.51713863404502  Z " stroke-width="1.79504761904762" stroke="#ffffff" fill="none" transform="matrix(1 0 0 1 5 7 )" mask="url(#clip148)" />
    <path d="M 9.90040596824172 1.91059403559438  C 10.1938721687874 1.91059403559438  10.4239289096228 1.63721443835972  10.4239289096228 1.30913299663334  C 10.4239289096228 0.981070072796096  10.1859580750615 0.707690475561435  9.90040596824172 0.707690475561435  C 9.61485386142195 0.707690475561435  9.3768830268607 0.981070072796096  9.3768830268607 1.30915151452247  C 9.3768830268607 1.63723295624885  9.61483774310479 1.91059403559438  9.90040596824172 1.91059403559438  Z " stroke-width="1.79504761904762" stroke="#ffffff" fill="none" transform="matrix(1 0 0 1 5 7 )" mask="url(#clip148)" />
  </g>
</svg>