<?xml version="1.0" encoding="utf-8"?>
<svg version="1.1" xmlns:xlink="http://www.w3.org/1999/xlink" width="21px" height="11px" xmlns="http://www.w3.org/2000/svg">
  <g transform="matrix(1 0 0 1 115 -119 )">
    <path d="M 19.6268495449851 11  C 19.6268495449851 11  1.24985824653576 11  1.24985824653576 11  C 0.890524543728779 11  0.4798815168613 10.7821651705493  0.274538949129628 10.5098995526876  C 0.0178870573374535 10.1831584760922  -0.0334433210209815 9.7475111523522  0.0178870573374535 9.36633928734591  C 0.993185300445649 4.24754465509434  4.89446249007016 0.381216535329149  9.668377166086 0  C 11.2596610037933 0  13.0049780851719 0.217834829450739  14.698943733894 0.980200894624738  C 15.2122475174784 1.19801338891404  15.3662597068516 1.30694197122013  15.6742630313001 1.47030134193711  C 18.4462087341453 3.15839284300209  20.3454958963012 5.99008927973165  20.9615025451983 9.36631695218448  C 21.0641633019151 9.74748881719077  20.9615025451983 10.1831361409308  20.6534992207497 10.5098772175262  C 20.3454958963012 10.7821428353878  19.9861832477921 10.9999776648386  19.6268495449851 10.9999776648386  Z " fill-rule="nonzero" fill="#cccccc" stroke="none" transform="matrix(1 0 0 1 -115 119 )" />
  </g>
</svg>