<?xml version="1.0" encoding="utf-8"?>
<svg version="1.1" xmlns:xlink="http://www.w3.org/1999/xlink" width="20px" height="9px" xmlns="http://www.w3.org/2000/svg">
  <g transform="matrix(1 0 0 1 114 -120 )">
    <path d="M 0.49512598654318 8.94797885203537  C 0.49512598654318 8.94797885203537  0.49512598654318 9  0.49512598654318 9  C 0.336984495309526 9  0.178821382324268 8.94797885203537  0.12610755191305 8.84393655610612  C 0.12610755191305 8.84393655610612  0.12610755191305 8.79191540814149  0.12610755191305 8.79191540814149  C 0.020679891090614 8.68787311221224  -0.0320339393206041 8.47976718272126  0.020679891090614 8.32370373882738  C 0.916858251584529 3.74567201688044  4.71238377170185 0.312126887787763  9.24596778283104 0  C 9.24596778283104 0  9.61496459570957 0  9.61496459570957 0  C 11.7763181295759 0  13.8849578330311 0.676296261172623  14.9392776847586 1.30057137438062  C 17.6277911444888 2.91329097418147  19.420126243725 5.35837027904882  20 8.32370373882738  C 20 8.47976718272126  20 8.63583062661514  19.8418585087663 8.79191540814149  C 19.7364308479439 8.89595770407074  19.6310031871215 8.94797885203537  19.4728400741362 8.94797885203537  C 19.4728400741362 8.94797885203537  0.49512598654318 8.94797885203537  0.49512598654318 8.94797885203537  Z " fill-rule="nonzero" fill="#cccccc" stroke="none" transform="matrix(1 0 0 1 -114 120 )" />
  </g>
</svg>