<?xml version="1.0" encoding="utf-8"?>
<svg version="1.1" xmlns:xlink="http://www.w3.org/1999/xlink" width="22px" height="22px" xmlns="http://www.w3.org/2000/svg">
  <g transform="matrix(1 0 0 1 115 -108 )">
    <path d="M 21.2473196460001 20.2892657968  C 20.6711080380001 17.1987778256  18.8377797328 14.6321224952  16.1139660164001 13.0083100588  C 15.0663437036001 12.3797194836  12.9711205624001 11.6464139428  10.6663600680001 11.6463924584  C 10.6663600680001 11.6463924584  10.2996858132 11.6463924584  10.2996858132 11.6463924584  C 5.63778585720007 11.960687746  1.76157040920003 15.5226079064  0.818706030800058 20.2892657968  C 0.766327063600045 20.5511606328  0.818706030800058 20.8130554688  1.02824338400006 21.022592822  C 1.18538028560005 21.2321301752  1.39489615440004 21.3368881096  1.65681247480006 21.3368881096  C 1.65681247480006 21.3368881096  20.409213202 21.3368881096  20.409213202 21.3368881096  C 20.6711080380001 21.3368881096  20.8806453912001 21.2321301752  21.0377822928 21.022592822  C 21.1949191944 20.8130554688  21.2996771288001 20.6035396  21.2473196460001 20.2892657968  Z M 1.44729660600001 20.3940237312  C 2.33776053280002 15.941639644  5.95203817600003 12.5892568368  10.352043296 12.222582582  C 10.4044222632 12.2749615492  10.5615591648 12.222582582  10.666360068 12.222582582  C 12.7615832092 12.222582582  14.8044488676 12.8511516728  15.7996922132 13.4797207636  C 18.4187265108 14.9987752656  20.0949179144 17.460694146  20.6711295224 20.3416232796  C 20.6711295224 20.3940237312  20.6711295224 20.4987816656  20.5663501036 20.6035396  C 20.5663501036 20.6035396  20.5139711364 20.6559185672  20.409213202 20.6559185672  C 20.409213202 20.6559185672  1.65681247480001 20.6559185672  1.65681247480001 20.6559185672  C 1.60443350760005 20.6559185672  1.49967557320002 20.6559185672  1.49967557320002 20.6035396  C 1.49967557320002 20.6035396  1.44729660600001 20.5511606328  1.44729660600001 20.5511606328  C 1.44729660600001 20.5511606328  1.39489615440004 20.4464026984  1.44729660600001 20.3940237312  Z M 11.0330128384001 0.489242756799996  C 14.0711218424 0.489242756799996  16.5853982056 3.00351911999999  16.5853982056 6.041628124  C 16.5853982056 9.079737128  14.0711218424 11.5940134912  11.0330128384001 11.5940134912  C 7.99490383440002 11.5940134912  5.48062747120002 9.0797156436  5.48062747120002 6.041628124  C 5.48062747120002 3.0035406044  7.99490383440002 0.489242756799996  11.0330128384001 0.489242756799996  Z " fill-rule="nonzero" fill="#cccccc" stroke="none" transform="matrix(1 0 0 1 -115 108 )" />
  </g>
</svg>