<?xml version="1.0" encoding="utf-8"?>
<svg version="1.1" xmlns:xlink="http://www.w3.org/1999/xlink" width="63px" height="53px" xmlns="http://www.w3.org/2000/svg">
  <g transform="matrix(1 0 0 1 298 -187 )">
    <path d="M 3.14553977866785 0  C 1.40964950377196 0  0 1.42931153827388  0 3.18376498803531  C 0 3.18376498803531  0 49.8162350119647  0 49.8162350119647  C 0 51.5648203205132  1.40481489970887 53  3.14553977866785 53  C 3.14553977866785 53  59.8544602213321 53  59.8544602213321 53  C 61.590350496228 53  63 51.5706884617261  63 49.8162350119647  C 63 49.8162350119647  63 3.18376498803531  63 3.18376498803531  C 63 1.43517967948674  61.5951921375605 0  59.8544602213321 0  C 59.8544602213321 0  3.14553977866785 0  3.14553977866785 0  Z M 4.19999718509223 48.7600406324113  C 4.19999718509223 42.5151497695968  4.19999718509223 10.4849218188943  4.19999717810072 4.24003040634912  C 11.2713456833268 4.24003040634912  51.7286566285524 4.24003040634912  58.8000028149077 4.24003041046052  C 58.8000028149077 10.4849212732745  58.8000028149077 42.5151492239729  58.8000028282819 48.7600406365227  C 51.7286543396762 48.7600406365227  11.2713433582204 48.7600406365227  4.19999718509223 48.7600406324113  Z M 4.19999718509223 3.18380050947121  C 4.19999718509223 3.18380050947121  4.19999718509223 3.55824625960244  4.19999718509223 4.24003055585487  C 3.51707405521171 4.24003040634912  3.1455397786678 4.24003040634912  3.1455397786678 4.24003040634912  C 3.73336711222635 4.24003040634915  4.19999718509223 3.76689198427297  4.19999718509223 3.18380050947121  Z M 59.8544602213321 4.24003040634912  C 59.8544602213321 4.24003040634912  59.4829261469555 4.24003040634912  58.8000033793098 4.24003040634912  C 58.8000028149077 3.55824620636733  58.8000028149077 3.18380050947121  58.8000028149077 3.18380050947121  C 58.8000028149077 3.76567004687757  59.2643239596905 4.24003040634912  59.8544602213321 4.24003040634912  Z M 58.8000028149077 49.8162705334006  C 58.8000028149077 49.8162705334006  58.8000028149077 49.4418247832689  58.8000028149077 48.7600404870156  C 59.4829259471032 48.7600406365227  59.8544602213321 48.7600406365227  59.8544602213321 48.7600406365227  C 59.2666335915006 48.7600406365227  58.8000028149077 49.2331790585989  58.8000028149077 49.8162705334006  Z M 3.1455397786678 48.7600406365227  C 3.1455397786678 48.7600406365227  3.51707385158431 48.7600406365227  4.19999661666452 48.7600406365227  C 4.19999718509223 49.4418248365045  4.19999718509223 49.8162705334006  4.19999718509223 49.8162705334006  C 4.19999718509223 49.2344009959943  3.73567604030944 48.7600406365227  3.1455397786678 48.7600406365227  Z M 54.2607177612637 42.7897184611203  C 54.2607177612637 42.7897184611203  39.1400185381783 21.9191698332128  39.1400185381783 21.9191698332128  C 38.4430755279963 20.9572067229613  37.3251208399685 20.9635295385538  36.6327661294214 21.9191698332128  C 36.6327661294214 21.9191698332128  25.9328091572971 36.687846199957  25.9327810082195 36.6878675128186  C 25.9327810082195 36.6878675128186  20.757115684666 29.458758004387  20.757115684666 29.458758004387  C 20.0714168234973 28.5010006321475  18.9596985635928 28.5010148407219  18.2740081471474 29.458758004387  C 18.2740081471474 29.458758004387  8.73252646013293 42.7859034589032  8.73252646013293 42.7859034589032  C 8.04682759896417 43.7436608311426  8.45596529218744 44.5200528558966  9.6463440380254 44.5200528558966  C 9.6463440380254 44.5200528558966  26.9754791375123 44.5200528558966  26.9754791375123 44.5200528558966  C 26.9754791375123 44.5200528558966  53.3620021634577 44.5200528558966  53.3620021634577 44.5200528558966  C 54.5530529685213 44.5200528558966  54.9530795090801 43.7453516514921  54.2607177612637 42.7897184611203  Z M 18.9000295565314 19.0800486652033  C 21.2196261400376 19.0800483116187  23.1000267416237 17.1817333999936  23.1000267416237 14.8400537802901  C 23.1000267416237 12.4983670562995  21.2196261400376 10.6000588953769  18.9000295565314 10.6000588953769  C 16.5804329730252 10.6000588953769  14.7000323714391 12.4983670562995  14.7000323714391 14.8400537802901  C 14.7000327216882 17.1817405042808  16.5804400102945 19.0800486652033  18.9000295565314 19.0800486652033  Z " fill-rule="nonzero" fill="#a0a0a0" stroke="none" transform="matrix(1 0 0 1 -298 187 )" />
  </g>
</svg>