<?xml version="1.0" encoding="utf-8"?>
<svg version="1.1" xmlns:xlink="http://www.w3.org/1999/xlink" width="22px" height="10px" xmlns="http://www.w3.org/2000/svg">
  <g transform="matrix(1 0 0 1 133 -818 )">
    <path d="M 21.6636541490133 9.54337931963425  C 21.9626232578771 9.22410085719201  22.0622796274983 8.85880431289945  21.9626365397851 8.49316291192116  C 21.3148690304214 5.43416239585326  19.3217283560886 2.83140727493435  16.4316958507241 1.32420098734497  C 16.1323371392248 1.1872145803784  15.9583264347847 1.06164333542142  15.4351299408604 0.867937335077386  C 13.6284672553078 0.194065057010903  11.8221853177854 0  10.1533357099809 0  C 5.17051722891902 0.36565357239067  1.03477456916075 3.83598291458264  0.0381887364349628 8.49315074050872  C -0.0614678545514054 8.85844728480129  0.0381887364349628 9.22410085719201  0.287330767313716 9.54337931963425  C 0.53647279819247 9.8177087559518  0.935098276677432 10  1.33372375516239 10  C 1.33372375516239 10  20.6172611611647 10  20.6172611611647 10  C 21.0158866396496 10  21.4145143317859 9.81735152499681  21.6636541490133 9.54337931963425  Z M 20.4344878856495 8.06866364515957  C 20.5976369603308 8.34936694510458  20.5829760446008 8.57110888588301  20.2059316782183 8.5711081093196  C 20.1393938569379 8.5711081093196  20.0623304199216 8.55188198320008  19.9815074832415 8.52464474342781  C 19.9337656639194 8.52464474342781  19.7999384206981 8.52208124172364  19.7446782346935 8.50734119605295  C 19.6890099783706 8.52391382412952  19.6303357469369 8.53194213894523  19.5713793446066 8.53105347293172  C 19.5040897088998 8.53105347293172  19.4266502577874 8.5118273468122  19.3450761544791 8.48426976858877  C 19.2783835667373 8.51745325359769  19.2019486012632 8.53368594004729  19.1247883283256 8.53105346969721  C 19.0443416195075 8.57527376020931  18.8526225277926 8.5701467021363  18.7263140701331 8.55027972336774  C 18.6552653622941 8.57911900365485  18.4849738581724 8.57142857142861  18.3958805352699 8.57142857142861  C 18.3143059979292 8.57142857142861  18.2022820143719 8.54707544190074  18.1135644917997 8.51567256880162  C 18.0786039452585 8.51791562595969  18.0451472413361 8.52240174027582  18.008307051846 8.52240174027582  C 17.7777050243632 8.56783868507796  17.4700698711159 8.57441084416934  17.2350407532801 8.55060017080763  C 17.1895545910031 8.55348409883629  17.1459478579093 8.56245632746857  17.0997096674401 8.56245632746857  C 16.9726489678224 8.56245632746857  16.8346857619328 8.54835711364956  16.7143911711994 8.52688782165382  C 16.5110891779502 8.54417630236532  16.3059124583661 8.53597136586274  16.1054022468653 8.50253469212595  C 16.028338809849 8.50253469212595  15.8227108305964 8.49708726239305  15.7475278915925 8.4890762580697  C 15.6197153775484 8.50573897359288  15.4911499802487 8.51919724365501  15.3622107065112 8.52240168911612  C 15.2577050809839 8.53842353376871  15.1268850954683 8.5489979322889  15.0174927830522 8.5489979322889  C 14.9753898925771 8.5489979322889  14.8723876821368 8.54162788994404  14.8310366060881 8.53906438823986  C 14.7434473395702 8.54803661687214  14.6543544441994 8.55284317573432  14.563382547177 8.5489979322889  C 14.3705358407054 8.54098701907338  14.1626528457052 8.52720821335737  13.9705585949575 8.48042451224887  C 13.8513920537003 8.52368343267955  13.7423763966778 8.5489979322889  13.6517781623274 8.5489979322889  C 13.5265968918929 8.5489979322889  13.4495334548767 8.52336291524716  13.4089337657227 8.48010399481649  C 13.3172094129765 8.5089432751036  13.2299961605546 8.52881043608789  13.1581949969918 8.52881043608789  C 13.0815073603058 8.52881043608789  13.0277510255722 8.51663383488085  12.9841442924784 8.49965063836839  C 12.8927959538283 8.5281695834388  12.8063343020671 8.54867741485651  12.7352866630573 8.54867741485651  C 12.6277737798243 8.54867741485651  12.559732329691 8.52816940122312  12.5157491309714 8.495805347432  C 12.450265389002 8.51538059885024  12.3817177413817 8.52650505010951  12.312376828437 8.52881026062499  C 12.2574486294197 8.52998564670122  12.202748304778 8.52237751766648  12.1511073613428 8.50637970082386  C 12.0749802186649 8.53173866106624  11.9944394528813 8.54614062628599  11.9127734237651 8.54899776860543  C 11.7909754251324 8.54899776860543  11.7135361877859 8.52528549172666  11.6721844527108 8.48426942901773  C 11.5305590319869 8.50987438046741  11.3861572206545 8.52265590138569  11.2413821741817 8.52240152825573  C 11.0301154798479 8.52240152825573  10.8387734710583 8.49676651121405  10.6643448285563 8.45222588548518  C 10.4835275804393 8.5012526619733  10.2884247893909 8.53553946310114  10.0666321118648 8.53553946272558  C 9.8601693770435 8.53683008748271  9.65472459510775 8.51077780557785  9.45764320203916 8.45831425472107  C 9.26446793748581 8.50995400447835  9.06313408623951 8.53599937129707  8.86068279239596 8.53553945893429  C 8.67767636840708 8.53571931440337  8.49551731217099 8.51436909119815  8.319359304099 8.47209304230262  C 8.21447787824144 8.50734103129622  8.11711459664824 8.52913075022775  8.03629272879732 8.52913075022775  C 7.96148473506033 8.52913075022775  7.90547274328164 8.51919720617877  7.86374565313684 8.50189369267122  C 7.79908747480544 8.51791553732374  7.73743676794559 8.52913075022775  7.68368021944618 8.52913075022775  C 7.60624076833379 8.52913075022775  7.55248421983443 8.51695414902071  7.50887770050641 8.49933009985921  C 7.45850442380891 8.49933009985921  7.33633062484593 8.50253447243398  7.30024246354805 8.49516441186762  C 7.23069738456196 8.49516441186762  7.15739312656078 8.49196005022571  7.0916071197068 8.48715349136347  C 6.97920712205328 8.52624677846728  6.87620598044227 8.5489978674803  6.79049657063911 8.5489978674803  C 6.69689257494389 8.5489978674803  6.63636948284075 8.53169428108646  6.59163513499021 8.50670013491538  C 6.50554949732512 8.51631323441831  6.41645660195428 8.5224015350218  6.32285239249324 8.5224015350218  C 6.28526038857671 8.5224015350218  6.25142767055811 8.51791542070572  6.21533950408844 8.51567236510391  C 6.15082647275611 8.53508562675671  6.08331708577533 8.54631394097026  6.01497465335254 8.54899779615033  C 5.9067097419273 8.54899779615033  5.83791647736762 8.52816944730023  5.79393437147518 8.49516435147058  C 5.67551964464436 8.53842327190125  5.5642472617476 8.56886477491889  5.4744036207795 8.56886477491889  C 5.37215343853157 8.56886477491889  5.3067434457737 8.54931813136699  5.26238511201927 8.51983799843077  C 5.19471967598218 8.53714158482467  5.13043729798106 8.54899779615033  5.07517712062883 8.54899779615033  C 4.96804003772616 8.54899779615033  4.8999985875929 8.52848978251694  4.8560158000418 8.49612573371684  C 4.79046023275332 8.51588411192279  4.72175589477921 8.52701348300621  4.65226746373822 8.52913064733082  C 4.55678382509396 8.52913064733082  4.49550913233028 8.51118619006633  4.45039879069111 8.48523086981214  C 4.1618897373408 8.54829481567026  3.85999894299119 8.55246664433128  3.56924321076071 8.49740756212708  C 3.44669339770161 8.54226870528828  3.33429318628228 8.56918542762816  3.24219431580072 8.56918542762816  C 3.13505723289805 8.56918542762816  3.06701578276479 8.54867741399477  3.02303303187223 8.51631335413617  C 2.95742808467681 8.53591520904797  2.88875175002652 8.54704002473864  2.81928470271955 8.54931826761594  C 2.76337938009034 8.55036731625239  2.70775238057268 8.54231948977855  2.65538381587153 8.52560599015749  C 2.60225958669921 8.53923428569777  2.5473014604657 8.54698827476335  2.49185894085987 8.54867741438716  C 2.42344169039631 8.54867741438716  2.37231659927234 8.53970518575494  2.33021346435663 8.5259263332253  C 2.27589043640597 8.53983013891781  2.2196309037954 8.54748154053914  2.16292929905983 8.5486774223495  C 2.10348593816741 8.55018407111845  2.04440042127548 8.54033008427024  1.99000642306905 8.51983814206238  C 1.89828207032281 8.54835708713284  1.81182063232743 8.56854458333379  1.740020110062 8.56854458333379  C 1.46371922330072 8.56854458333379  1.41898444791848 8.44645823604645  1.50807776522729 8.27342254171435  C 1.49185033073705 8.23684237367115  1.48935452915777 8.19686843804504  1.5009352930338 8.15902660843165  C 1.47386911861892 8.08917148309354  1.51070920122615 7.99047689525253  1.5904042025007 7.8770423320513  C 1.51334076548448 7.7918061964881  1.58250989450422 7.63671438893965  1.7343812471755 7.45887156748569  C 1.73176099112962 7.40453502523292  1.74493266444714 7.35048838817346  1.77272506551849 7.30153723120469  C 1.77610833732035 7.21181494488224  1.8490366881083 7.09261234340789  1.96294031163813 6.9618743804586  C 1.95481479451917 6.92422588171263  1.95791713526637 6.88544053915729  1.97196238402749 6.84908066990641  C 1.99314399127938 6.79729259656187  2.0210455008879 6.7300533621318  2.05165698160421 6.6818130286444  C 2.06556599740148 6.66130501501101  2.08736934257181 6.64336059418963  2.1072929592868 6.62445480328682  C 2.12345750386964 6.59593585821642  2.14450894910721 6.56613539006349  2.16706423696347 6.53569388704585  C 2.02195934981393 6.52672165841358  2.14112589107117 6.37964125606305  2.30389895165642 6.2607595364525  C 2.36742930146525 6.08227633388907  2.45577038240962 5.91148299868314  2.58583887190325 5.76312137500844  C 2.64111615052196 5.6471884522191  2.71255262957777 5.53734517842952  2.79860898132407 5.43595489138733  C 2.88845369112132 5.26836654828969  3.00686841795209 5.11231428173829  3.16212205167801 4.98253660936774  C 3.20121768444746 4.92069223325092  3.24332057492255 4.85980940943131  3.29031057981824 4.80213066664135  C 3.38617001879281 4.65088452163445  3.51097463383367 4.51437926306642  3.66434947967393 4.39902031976084  C 3.77920992203829 4.22166958782975  4.02625657887575 3.97475209845743  4.21620035003495 3.85299555686129  C 4.27662489609014 3.79160854217446  4.3431590833514 3.73478675986468  4.41506072922303 3.68316488379929  C 4.53050069075434 3.56923250728067  4.66700299958057 3.47214269319022  4.8191743437942 3.39573235771536  C 4.90864325326115 3.30857348198924  5.0063823351847 3.22686212710386  5.12178989733981 3.15956977973366  C 5.28155270749769 3.01191200868709  5.47702167941398 2.89558477110313  5.69469084786275 2.81862598973134  C 5.87215881294503 2.66068523957028  6.09086092416667 2.54068507993696  6.33300203118848 2.46838917517476  C 6.4266060268837 2.41551710057649  6.5269765661827 2.36905373468471  6.63674402277991 2.3318831966065  C 6.76911765835281 2.25288995345448  6.91439804724931 2.19091693304705  7.06792466682929 2.14795283763374  C 7.17618957825454 2.09379905773733  7.29197263394409 2.04637432176406  7.42053778474331 2.01240805633245  C 7.63614627686363 1.89211161395605  7.88055543934873 1.81438331225695  8.13591162096978 1.78489714016541  C 8.28847629431182 1.72890771921499  8.44938852334115 1.69116610824165  8.61408010913841 1.67274428969472  C 8.8148816834664 1.60818745053149  9.0269538474501 1.5727692720655  9.24148934611272 1.56796147715067  C 9.44001345928086 1.50818014729288  9.6486020952881 1.47625559061839  9.85912489128958 1.47343273957438  C 10.0630775877273 1.43922283347581  10.2718596818113 1.43101565571999  10.4786395339113 1.44907944220483  C 10.580796728023 1.43587600081196  10.6839451542913 1.42902186580449  10.7872682272434 1.42857142857144  C 10.8677149360614 1.42857142857144  10.9451543871738 1.43273709834148  11.0203392500703 1.43946626981563  C 11.1098081595372 1.43946626981563  11.2082990772638 1.44427281592277  11.2910005880637 1.45260417368439  C 11.4608674677394 1.45253016932514  11.7255660244358 1.46634070534537  11.8902149911246 1.50195143424799  C 12.0283387137764 1.50580704576731  12.1656373003219 1.52169796843282  12.2999655796611 1.54937598795851  C 12.5102724654152 1.54969478345248  12.719164648902 1.5786866602852  12.918727877773 1.63525297617082  C 13.1318742150557 1.64807044824852  13.3179548054553 1.69421342425892  13.4901260807855 1.75381454278039  C 13.660793513497 1.77752681965916  13.811161742929 1.82399018555094  13.9521318471743 1.88006671615301  C 14.2055833042964 1.90990271636917  14.4478334318918 1.98822850337854  14.6607399239126 2.10917928236648  C 14.8584735310389 2.1521178675805  15.0479361106453 2.22325469821681  15.2231149074322 2.31906622099285  C 15.3600274328874 2.35928760555197  15.4914765312427 2.41192753733679  15.6151999187122 2.47608022205713  C 15.7035409996566 2.52318444059802  15.7708306353634 2.56868643640831  15.8478944999113 2.62572414433345  C 16.1693063899168 2.71063994467994  16.4527485517829 2.88079217213476  16.647474259906 3.07561720835758  C 16.7508520569107 3.1342571390133  16.8500947676871 3.1993057783755  16.9410666647094 3.27621119393206  C 17.093689909889 3.34222120337574  17.2196222465696 3.43803171741547  17.4579561841474 3.59664721234748  C 17.5677247244254 3.66970678314669  17.6586972627452 3.76711948347383  17.7353857544946 3.87606771370008  C 17.761700114483 3.89593487468437  17.7842551885734 3.91868578148166  17.809065919709 3.93951413033176  C 17.988003524877 4.04557861474501  18.131604355642 4.18048347273958  18.2473885116251 4.33076772503972  C 18.3981197154376 4.44584550950606  18.5270797244606 4.5800916577121  18.629698011469 4.72875052186475  C 18.8409647058028 4.90178638580318  18.9965949949223 5.11840241646746  19.0958379194645 5.35680616169054  C 19.2007193453221 5.46190945823798  19.2856771544646 5.58014977855231  19.3537186045978 5.70544130016361  C 19.4210082403046 5.77497609028512  19.4849146042096 5.8467539557862  19.5375433241865 5.92365918912708  C 19.6375378493893 6.06945799550891  19.6969331129698 6.22551044427604  19.7356529454089 6.38412739693371  C 19.8040701958724 6.47064523779505  19.8792542272198 6.57959304345871  19.9258682180193 6.6923882117365  C 20.0480420169823 6.84876136015174  20.1326240257945 7.01859259641333  20.1480371834826 7.19579372924716  C 20.281864426704 7.37555881932445  20.3574242348674 7.54218579234066  20.3408838899543 7.66299116319271  C 20.3562965987341 7.71041571695025  20.3668222358465 7.75591789497628  20.3656946210898 7.79597236994584  C 20.4190751554931 7.89947344376276  20.4461413299079 7.99368188084446  20.4344878856495 8.06866364515957  Z " fill-rule="nonzero" fill="#b3b3b3" stroke="none" transform="matrix(1 0 0 1 -133 818 )" />
  </g>
</svg>