<?xml version="1.0" encoding="utf-8"?>
<svg version="1.1" xmlns:xlink="http://www.w3.org/1999/xlink" width="36px" height="30px" xmlns="http://www.w3.org/2000/svg">
  <g transform="matrix(1 0 0 1 286 -479 )">
    <path d="M 1.79745130209591 0  C 0.805514002155405 0  0 0.809044266947467  0 1.80213112530299  C 0 1.80213112530299  0 28.197868874697  0 28.197868874697  C 0 29.1876341436867  0.802751371262218 30  1.79745130209591 30  C 1.79745130209591 30  34.2025486979041 30  34.2025486979041 30  C 35.1944859978446 30  36 29.1909557330525  36 28.197868874697  C 36 28.197868874697  36 1.80213112530299  36 1.80213112530299  C 36 0.812365856313249  35.1972526500346 0  34.2025486979041 0  C 34.2025486979041 0  1.79745130209591 0  1.79745130209591 0  Z M 2.39999839148129 27.6000229994781  C 2.39999839148129 24.0651791148661  2.39999839148129 5.93486140692087  2.39999838748611 2.40001721114103  C 6.44076896190097 2.40001721114103  29.5592323591727 2.40001721114103  33.6000016085187 2.40001721346826  C 33.6000016085187 5.93486109808379  33.6000016085187 24.0651788060618  33.6000016161612 27.6000230018053  C 29.5592310512436 27.6000230018053  6.44076763326893 27.6000230018053  2.39999839148129 27.6000229994781  Z M 2.39999839148129 1.80215123177618  C 2.39999839148129 1.80215123177618  2.39999839148129 2.01410165637873  2.39999839148129 2.40001729576682  C 2.00975660297814 2.40001721114103  1.79745130209591 2.40001721114103  1.79745130209591 2.40001721114103  C 2.13335263555791 2.40001721114103  2.39999839148129 2.13220300996585  2.39999839148129 1.80215123177618  Z M 34.2025486979041 2.40001721114103  C 34.2025486979041 2.40001721114103  33.990243512546 2.40001721114103  33.6000019310342 2.40001721114103  C 33.6000016085187 2.01410162624569  33.6000016085187 1.80215123177618  33.6000016085187 1.80215123177618  C 33.6000016085187 2.13151134728921  33.865327976966 2.40001721114103  34.2025486979041 2.40001721114103  Z M 33.6000016085187 28.1978889811702  C 33.6000016085187 28.1978889811702  33.6000016085187 27.9859385565715  33.6000016085187 27.6000229171902  C 33.9902433983447 27.6000230018053  34.2025486979041 27.6000230018053  34.2025486979041 27.6000230018053  C 33.8666477665718 27.6000230018053  33.6000016085187 27.8678372029805  33.6000016085187 28.1978889811702  Z M 1.79745130209591 27.6000230018053  C 1.79745130209591 27.6000230018053  2.00975648661961 27.6000230018053  2.39999806666543 27.6000230018053  C 2.39999839148129 27.9859385867007  2.39999839148129 28.1978889811702  2.39999839148129 28.1978889811702  C 2.39999839148129 27.8685288656571  2.134672023034 27.6000230018053  1.79745130209591 27.6000230018053  Z M 31.0061244350078 24.2205953553511  C 31.0061244350078 24.2205953553511  22.3657248789589 12.4070772640828  22.3657248789589 12.4070772640828  C 21.9674717302835 11.8625698431857  21.328640479982 11.8661487954079  20.9330092168122 12.4070772640828  C 20.9330092168122 12.4070772640828  14.818748089884 20.7667053962021  14.8187320046968 20.766717460086  C 14.8187320046968 20.766717460086  11.8612089626662 16.6747686817285  11.8612089626662 16.6747686817285  C 11.4693810419984 16.1326418672534  10.8341134649101 16.1326499098426  10.4422903697984 16.6747686817285  C 10.4422903697984 16.6747686817285  4.9900151200759 24.2184359201339  4.9900151200759 24.2184359201339  C 4.59818719940802 24.7605627346091  4.83198016696423 25.2000299184321  5.51219659315734 25.2000299184321  C 5.51219659315734 25.2000299184321  15.4145595071498 25.2000299184321  15.4145595071498 25.2000299184321  C 15.4145595071498 25.2000299184321  30.4925726648329 25.2000299184321  30.4925726648329 25.2000299184321  C 31.1731731248693 25.2000299184321  31.4017597194743 24.7615198027314  31.0061244350078 24.2205953553511  Z M 10.8000168894465 10.8000275463415  C 12.1255006514501 10.8000273461993  13.2000152809278 9.72550947169449  13.2000152809278 8.40003044167366  C 13.2000152809278 7.07454739035819  12.1255006514501 6.00003333700579  10.8000168894465 6.00003333700579  C 9.47453312744295 6.00003333700579  8.40001849796522 7.07454739035819  8.40001849796522 8.40003044167366  C 8.4000186981076 9.72551349298911  9.47453714873973 10.8000275463415  10.8000168894465 10.8000275463415  Z " fill-rule="nonzero" fill="#a0a0a0" stroke="none" transform="matrix(1 0 0 1 -286 479 )" />
  </g>
</svg>