<?xml version="1.0" encoding="utf-8"?>
<svg version="1.1" xmlns:xlink="http://www.w3.org/1999/xlink" width="12px" height="12px" xmlns="http://www.w3.org/2000/svg">
  <g transform="matrix(1 0 0 1 110 -108 )">
    <path d="M 11.1139660164 6.041628124  C 11.1139660164 3.2130564732  8.86158448919997 0.960674946000012  6.03301283839994 0.960653461600003  C 3.20444118759997 0.960653461600003  0.952059660399982 3.26543544040001  0.952059660399982 6.041628124  C 0.952059660399982 8.8701997748  3.25682015479998 11.122581302  6.03301283839994 11.122581302  C 8.80920552199996 11.122581302  11.1139660164 8.81784229200002  11.1139660164 6.041628124  Z M 1.52824978400002 6.041628124  C 1.52824978400002 3.57973072799999  3.57111544240001 1.5368650696  6.0330128384 1.5368650696  C 8.49491023440004 1.5368650696  10.5377758928 3.52733027639999  10.5377758928 6.041628124  C 10.5377758928 8.50352552000001  8.547310686 10.5463911784  6.03301283840005 10.5463911784  C 3.51871499080005 10.5463911784  1.52824978400002 8.5559044872  1.52824978400002 6.041628124  Z " fill-rule="nonzero" fill="#cccccc" stroke="none" transform="matrix(1 0 0 1 -110 108 )" />
  </g>
</svg>