<?xml version="1.0" encoding="utf-8"?>
<svg version="1.1" xmlns:xlink="http://www.w3.org/1999/xlink" width="22px" height="22px" xmlns="http://www.w3.org/2000/svg">
  <g transform="matrix(1 0 0 1 161 -108 )">
    <path d="M 21.42023468684 20.11504664876  L 16.8367506424 15.5374965956  C 18.17471098836 13.89990406504  19.0113156728 11.8380762752  19.0113156728 9.55969862399999  C 19.0113156728 4.317612446  14.7601115072 0.0664082803999975  9.51802532919999 0.0664082803999975  C 4.27593915119996 0.0664082803999975  0.0247349855999914 4.317612446  0.0247349855999914 9.55969862399999  C 0.0247349855999914 14.801784802  4.27593915119996 19.0529889676  9.51802532919999 19.0529889676  C 11.7964244648 19.0529889676  13.858239364 18.21639287692  15.4958233008 16.8784239372  C 15.4958233008 16.8784239372  20.0763403496 21.458940986  20.0763403496 21.458940986  L 21.42023468684 20.11504664876  Z M 9.51802532919999 1.96506634912001  C 13.7128759136 1.96506634912001  17.1126533072 5.36484374272001  17.1126533072 9.55969432712001  C 17.1126533072 13.75454491152  13.7128759136 17.15432230512  9.51802532919999 17.15432230512  C 5.32317474479999 17.15432230512  1.92339735119998 13.75454491152  1.92339735119998 9.55969432712001  C 1.92339735119998 5.36484374272001  5.32317474479999 1.96506634912001  9.51802532919999 1.96506634912001  Z " fill-rule="nonzero" fill="#b3b3b3" stroke="none" transform="matrix(1 0 0 1 -161 108 )" />
  </g>
</svg>