<?xml version="1.0" encoding="utf-8"?>
<svg version="1.1" xmlns:xlink="http://www.w3.org/1999/xlink" width="23px" height="22px" xmlns="http://www.w3.org/2000/svg">
  <g transform="matrix(1 0 0 1 278 -808 )">
    <path d="M 22.0055081237678 9.67259750629546  C 22.0055081237678 15.020492097298  17.0668916668181 19.2224290327854  10.995934491927 19.2224290310892  C 10.0776431074968 19.2187360304165  9.16257512695359 19.1135034793362  8.26742416541113 18.9086502505382  C 8.26742416541113 18.9086502505382  4.02457454494245 21.7872383710441  4.02457454494245 21.7872383710441  L 4.02457400820421 17.0668967253171  C 1.55499982231296 15.4081857849277  0.0521914833978916 12.6470448565251  0 9.67259750629546  C 0 4.32470291529287  4.9386164569497 0  10.9959349137269 0  C 17.0532533705042 0  22.0055081237678 4.32470291529287  22.0055081237678 9.67259750629546  Z M 20.5048089648365 9.65896920143466  C 20.5048089648365 5.15690455171231  16.2892562550507 1.40520174077666  10.9959354504652 1.40519210578766  C 5.71625520270103 1.40519210578766  1.44610675447301 5.10234171529846  1.44610666723601 9.59073487861608  C 1.46551653735853 12.2408204676439  2.83321076405327 14.69856559611  5.07502114618347 16.1119062790455  C 5.07502114618347 16.1119062790455  5.38880196139211 16.3301871698636  5.38880196139211 16.3301871698636  L 5.38880196139211 19.140570660426  L 7.92633358632655 17.4216022622537  L 8.22646994232834 17.5034578641489  C 9.11889324460809 17.726770670777  10.0350548420476 17.8412919682299  10.9549802688442 17.8445238837121  C 16.2482988129224 17.8445238837121  20.5048089648365 14.1610125745575  20.5048089648365 9.65896920143466  Z M 4.58392159798842 9.59074664160635  C 4.58392166632078 10.2462573992886  5.11531735027999 10.7776532902391  5.77082791367384 10.7776532407495  C 6.42633840873538 10.7776532407495  6.95773399371522 10.2462573992886  6.95773409269459 9.59074664160635  C 6.95773409269459 8.93523588392408  6.42633840873538 8.40384014144255  5.77082784534153 8.40384004246316  C 5.11531728194763 8.40384004246316  4.58392169696778 8.93523588392408  4.58392159798842 9.59074664160635  Z M 16.3029160336726 8.40376179161372  C 15.6474054702788 8.40376179161372  15.1160096873402 8.93515763307464  15.1160097863196 9.59066839075692  C 15.116052342096 10.2409041851381  15.6391586653004 10.7700227070353  16.2892734846299 10.7774957722262  C 16.9447393671778 10.7850298161515  17.4822089866132 10.2597765290007  17.4897435602203 9.60431045217765  C 17.4972776019126 8.94884437535459  16.9583819162206 8.41129636745404  16.3029160336726 8.40376179161372  Z M 11.0368631572442 8.37670828925905  C 10.3738611053447 8.38420190764506  9.84246514478979 8.92774455982885  9.84995690989117 9.59074680823726  C 9.84995685800986 10.2462575457474  10.4084845056436 10.7776533787272  11.0639950690375 10.7776534073805  C 11.726997120937 10.7701597889944  12.2583930814919 10.2266171368106  12.2509013163906 9.56361488840225  C 12.2434077002256 8.90061263999389  11.6998652091437 8.36921652193717  11.0368631572442 8.37670828925905  Z " fill-rule="nonzero" fill="#b3b3b3" stroke="none" transform="matrix(1 0 0 1 -278 808 )" />
  </g>
</svg>