<?xml version="1.0" encoding="utf-8"?>
<svg version="1.1" xmlns:xlink="http://www.w3.org/1999/xlink" width="21px" height="21px" xmlns="http://www.w3.org/2000/svg">
  <g transform="matrix(1 0 0 1 204 -807 )">
    <path d="M 21 10.5  C 21 4.71054840087891  16.2894195556641 0  10.5 0  C 4.71058044433595 0  0 4.71058044433596  0 10.5  C 0 16.289419555664  4.71054840087889 21  10.5 21  C 16.2894195556641 21  21 16.2894515991211  21 10.5  Z M 10.5 1.3125  C 15.5662307739258 1.3125  19.6875 5.43376922607422  19.6875 10.5  C 19.6875 15.5662307739258  15.5662307739258 19.6875  10.5 19.6875  C 5.4337692260742 19.6875  1.3125 15.5662628173828  1.3125 10.5  C 1.3125 5.43373718261716  5.43373718261721 1.3125  10.5 1.3125  Z M 5.31623384053835 14.8056793531146  C 5.19292036397586 15.0573826307025  5.2433013301624 15.3596402295794  5.44158784444464 15.5577392896381  C 5.56825563008913 15.6837341626849  5.73558656270636 15.7500000318256  5.90624999999998 15.75  C 6.00334167480467 15.75  6.10245208740234 15.7283706665039  6.1936798095703 15.6830932617188  C 6.1936798095703 15.6830932617188  12.3643844604492 12.6682846069336  12.3643844604492 12.6682846069336  C 12.4956344604492 12.6039733886719  12.6019546508789 12.4982940673828  12.6655929565429 12.3670761108398  C 12.6655929565429 12.3670761108398  15.682388305664 6.19438476562499  15.6823883395163 6.19438469653357  C 15.8057098269431 5.94268814807162  15.755341998574 5.64043022876012  15.5570663995039 5.44232478043489  C 15.3588644799482 5.24423917862828  15.0567430657636 5.19388096329624  14.8050064629804 5.31697077652865  C 14.8050064629804 5.31697077652865  8.63231511776562 8.33373408219273  8.63231511776562 8.33373408219273  C 8.5010651177656 8.39804530045444  8.3947449273359 8.50372462174352  8.33110662167187 8.63494257828648  C 8.33110662167187 8.63494257828648  5.31623387997267 14.8056792726224  5.31623384053835 14.8056793531146  Z M 7.3342346191407 13.6657974243165  L 9.41125946044926 9.41391906738284  L 13.6644195556641 7.33558044433596  L 11.5860809326172 11.5887405395508  L 7.3342346191407 13.6657974243165  Z " fill-rule="nonzero" fill="#b3b3b3" stroke="none" transform="matrix(1 0 0 1 -204 807 )" />
  </g>
</svg>