<?xml version="1.0" encoding="utf-8"?>
<svg version="1.1" xmlns:xlink="http://www.w3.org/1999/xlink" width="21px" height="19px" xmlns="http://www.w3.org/2000/svg">
  <g transform="matrix(1 0 0 1 350 -809 )">
    <path d="M 20.2632877107371 1.57355831096289  C 20.2632877107371 0.703442518213273  19.5570250462221 0  18.6897514111853 0  C 18.6897514111853 0  13.3023774552853 0  13.3023774552853 0  C 12.1271554756503 0  11.0253782418853 0.525460062389812  10.2823932044353 1.44642746670081  C 10.2823932044353 1.44642746670081  10.2089418082408 1.51987885587739  10.2089418082408 1.51987885587739  C 10.2089418082408 1.51987885587739  10.1354904120463 1.44642746670081  10.1354904120463 1.44642746670081  C 9.39532726904628 0.522634573439758  8.29354823789629 0  7.11832805564629 0  C 7.11832805564629 0  1.7309540997463 0  1.7309540997463 0  C 0.863661915696298 0  0.157399251181289 0.703438905469764  0.157399251181289 1.57355469821938  C 0.157399251181289 1.57355469821938  0.157399251181289 15.7835713074205  0.157399251181289 15.7835713074205  C 0.157399251181289 16.6508634086049  0.863661915696298 17.3571260056399  1.7309540997463 17.3571260056399  C 1.7309540997463 17.3571260056399  7.37258613774628 17.3571260056399  7.37258613774628 17.3571260056399  C 8.07884880226129 18.0266644358637  9.07044371134418 18.4052198326463  10.1919831931842 18.4052198326463  C 11.3135298645642 18.4052198326463  12.2881654755842 18.0605641022865  12.9944299374842 17.3938511610128  C 12.9944299374842 17.3938511610128  18.6897328621721 17.3769008514944  18.6897328621721 17.3769008514944  C 19.5570250462221 17.3769008514944  20.2632877107371 16.6706382544594  20.2632877107371 15.803346153275  C 20.2632877107371 15.803346153275  20.2632877107371 1.57355831096289  20.2632877107371 1.57355831096289  Z M 13.3023774552852 0.875766770649667  C 13.3023774552852 0.875766770649667  18.6897514111852 0.875766770649667  18.6897484455 0.875768586008365  C 19.0739556657149 0.875768586008365  19.38753643974 1.18934933007219  19.38753643974 1.57355651357808  C 19.38753643974 1.57355651357808  19.38753643974 15.8033443558901  19.38753643974 15.8033443558901  C 19.38753643974 16.187551539396  19.0739556657149 16.5011322834598  18.6897484455 16.5011322834598  C 18.6897484455 16.5011322834598  12.6497799438 16.5011322834598  12.6497799438 16.5011322834598  L 12.39269996725 16.7582122354471  C 11.8615906736 17.2582464920562  11.0931757299022 17.5322762682679  10.1919902569072 17.5322762682679  C 9.30209775386717 17.5322762682679  8.54498347293216 17.2610706689153  7.99975572010715 16.7497362538909  L 7.7342005879882 16.4841811291706  C 7.7342005879882 16.4841811291706  1.73097063568821 16.4841811291706  1.73097063568821 16.4841811291706  C 1.34676341547322 16.4841811291706  1.03318264144821 16.1706003851067  1.03318264144821 15.7863932016009  C 1.03318264144821 15.7863932016009  1.03318264144821 1.57355469821938  1.03318264144821 1.57355469821938  C 1.03318264144821 1.18934751471355  1.34676341547322 0.875766770649667  1.73097063568821 0.875766770649667  C 1.73097063568821 0.875766770649667  7.1183445915882 0.875766770649667  7.1183445915882 0.875766770649667  C 8.0308374136182 0.875766770649667  8.88400215156821 1.28257427098614  9.45465750998821 1.99448784592125  L 9.59308509288672 2.13856549480132  L 10.2117719706617 2.75725231346373  L 10.8304588484367 2.13856549480132  L 10.9039102446312 2.06511410562474  C 11.4717455059862 1.35320053068962  12.3898882280252 0.875766770649667  13.3023774552852 0.875766770649667  Z " fill-rule="nonzero" fill="#b3b3b3" stroke="none" transform="matrix(1 0 0 1 -350 809 )" />
  </g>
</svg>