<?xml version="1.0" encoding="utf-8"?>
<svg version="1.1" xmlns:xlink="http://www.w3.org/1999/xlink" width="18px" height="20px" xmlns="http://www.w3.org/2000/svg">
  <g transform="matrix(1 0 0 1 -329 -10 )">
    <path d="M 17.9082725625 18.4012542578125  C 17.9059962160183 15.219869310271  15.4508261568999 12.5869430788444  12.2977804461207 12.3845582617187  L 11.9001649267241 12.3845582617187  C 13.649239261712 11.3984038424343  14.7773911354819 9.58145055774755  14.8918789396552 7.5662312890625  L 14.8918789396552 7.41436423828125  L 14.8918789396552 7.31496037109375  C 14.8939992595013 7.29107742593934  14.8939992595013 7.26705161702941  14.8918789396552 7.243168671875  L 14.8918789396552 7.1078689453125  C 14.8895311724911 7.07791052861064  14.8840156037912 7.04828986661187  14.8754258922414 7.01950994140625  L 14.2063349547414 4.96240185546875  C 13.9457619385658 4.15546243640403  14.0681131003244 3.27269289215441  14.5381382456897 2.568425078125  L 14.8918789396552 2.0575995703125  C 14.9132403145413 2.02518652112109  14.9298633871909 1.9898496777204  14.9412381206897 1.95267326171875  C 14.9691368129317 1.86602697816897  14.983345918276 1.77550571578004  14.983345918276 1.68441914567301  C 14.983345918276 1.29619185045241  14.727832532997 0.954972097289545  14.3571546271552 0.848185703125  C 10.880786285202 -0.282728018465924  7.13903652514284 -0.282728018465924  3.66266818318966 0.848185703125  C 3.29199027734785 0.954972097289545  3.0364768920688 1.29619185045241  3.0364768920688 1.68441914567301  C 3.0364768920688 1.77550571578004  3.0506859974131 1.86602697816897  3.07858468965517 1.95267326171875  C 3.08995941709753 1.98984967663748  3.10658248319001 2.02518651998558  3.1279438512931 2.0575995703125  L 3.45700497413793 2.568425078125  C 3.92364270801723 3.26874046285962  4.04686075772504 4.14539254306242  3.79155045258621 4.94859576171875  L 3.11971732758621 7.077495546875  C 3.11397153352189 7.09839013708006  3.10939405242111 7.11959277393021  3.10600644827586 7.14100357421875  C 3.10289837498049 7.17037343667788  3.10289837498049 7.19999271566587  3.10600644827586 7.229362578125  L 3.10600644827586 7.339811328125  C 3.10600644827586 7.43921521484375  3.10600644827586 7.5413803125  3.11971732758621 7.632500546875  L 3.11971732758621 7.65182908203125  C 3.27571192206715 9.61847302100863  4.39308883217749 11.3781160787591  6.1004626487069 12.3459012109375  L 6.06755653448276 12.3459012109375  C 5.74142373201346 12.3454097960439  5.41581376551357 12.3721936377527  5.09408406465517 12.4259765625  C 2.18742357615643 12.8979187595423  0.0587781087386332 15.4367132840018  0.0841284892241379 18.4012542578125  L 0.0841284892241379 19.4284276953125  C 0.0841284892241379 19.744098362617  0.338265287728589 20  0.651758915948276 20  L 17.3406421357759 20  C 17.6541357639956 20  17.9082725625 19.744098362617  17.9082725625 19.4284276953125  L 17.9082725625 18.4012542578125  Z M 4.13980681034483 2.11558517578125  L 3.84913613793103 1.67931259765625  C 3.86142438613599 1.6629968193497  3.87881221731583 1.65132443497149  3.89849531896552 1.64617796875  C 7.21254532973713 0.567479068710128  10.779855721987 0.567479068710129  14.0939057327586 1.64617796875  C 14.1135888273309 1.65132443895495  14.1309766511395 1.66299682297176  14.1432648943966 1.67931259765625  L 13.8553364094828 2.11282396484375  C 13.2471976331607 3.02518564500016  13.087551859149 4.16776299896137  13.4220726077586 5.2136727734375  L 13.9321173491379 6.8207021875  C 13.0391791338827 6.32070666961195  12.2150208641824 5.70525756818392  11.4806119849138 4.99001404296875  C 11.4033815563447 4.91162733670986  11.2982644057306 4.86753765249741  11.1886078707132 4.86753765249741  C 11.0515927278539 4.86753765249741  10.9235727042607 4.93623592891503  10.8471693297414 5.050760859375  C 9.91482947844828 6.4617437109375  6.62421826939655 6.8372694921875  4.44693051077586 7.08577919921875  L 3.96704971551724 7.14100357421875  L 4.57581279956897 5.2081503515625  C 4.90686286845723 4.16431905936142  4.74629150988812 3.02539573259164  4.13980681034483 2.11558517578125  Z M 3.98624495043103 7.9748916796875  L 3.98350276293103 7.97213046875  L 4.53193797413793 7.908622421875  C 6.81068624353448 7.6490678515625  9.8627281487069 7.298393046875  11.2201052586207 5.884648984375  C 12.0587932604877 6.65481214713575  13.005941288986 7.29590173933711  14.0308356724138 7.78712880859375  C 13.7479643864796 10.3719293599155  11.5790238654537 12.3284832046912  8.99651085874443 12.3284832046912  C 6.48558655759269 12.3284832046912  4.35371822098583 10.4760298434285  3.98624495043103 7.9748916796875  Z M 17.0856197650862 18.4012542578125  L 17.0856197650862 19  L 0.906781286637931 19  L 0.906781286637931 18.4012542578125  C 0.897559947780832 15.8524081080179  2.73207981484178 13.6759919249229  5.23119285775862 13.27090953125  C 5.50851843529355 13.2245789086276  5.78918246883057 13.2014896053318  6.07029872198276 13.2018790625  L 12.2429369288793 13.2018790625  C 14.9674123330597 13.3754144924885  17.0881685556534 15.6523770093431  17.0856197650862 18.4012542578125  Z M 7.76222131034483 4.03739353515625  L 8.58487412715517 4.03739353515625  L 8.58487412715517 4.86575919921875  C 8.58487414069552 5.09450605135038  8.7690312382279 5.27994200656278  8.99620052586207 5.27994200656278  C 9.22336982307071 5.27994200656278  9.40752692456897 5.09450603630412  9.40752692456897 4.86575917453153  L 9.40752692456896 4.03739353515625  L 10.2301797219828 4.03739353515625  C 10.4573490245476 4.03739353515625  10.6415061303879 3.85195756052537  10.6415061303879 3.62321069335938  C 10.6415061303879 3.39446382619338  10.4573490245476 3.2090278515625  10.2301797219828 3.2090278515625  L 9.40752692456896 3.2090278515625  L 9.40752692456896 2.3806621875  C 9.40752692456896 2.15191532572741  9.22336982307071 1.96647935546875  8.99620052586207 1.96647935546875  C 8.76903122865343 1.96647935546875  8.58487412715517 2.15191532572741  8.58487412715517 2.3806621875  L 8.58487412715517 3.2090278515625  L 7.76222131034483 3.2090278515625  C 7.53505200777998 3.2090278515625  7.35089490193965 3.39446382619338  7.35089490193965 3.62321069335938  C 7.35089490193965 3.85195756052537  7.53505200777998 4.03739353515625  7.76222131034483 4.03739353515625  Z " fill-rule="nonzero" fill="#555555" stroke="none" transform="matrix(1 0 0 1 329 10 )" />
  </g>
</svg>