<?xml version="1.0" encoding="utf-8"?>
<svg version="1.1" xmlns:xlink="http://www.w3.org/1999/xlink" width="30px" height="30px" xmlns="http://www.w3.org/2000/svg">
  <defs>
    <filter x="-244px" y="326px" width="30px" height="30px" filterUnits="userSpaceOnUse" id="filter259">
      <feOffset dx="1" dy="1" in="SourceAlpha" result="shadowOffsetInner" />
      <feGaussianBlur stdDeviation="2.5" in="shadowOffsetInner" result="shadowGaussian" />
      <feComposite in2="shadowGaussian" operator="atop" in="SourceAlpha" result="shadowComposite" />
      <feColorMatrix type="matrix" values="0 0 0 0 0  0 0 0 0 0  0 0 0 0 0  0 0 0 0.698039215686274 0  " in="shadowComposite" />
    </filter>
    <g id="widget260">
      <path d="M -230 330  C -224.4 330  -220 334.4  -220 340  C -220 345.6  -224.4 350  -230 350  C -235.6 350  -240 345.6  -240 340  C -240 334.4  -235.6 330  -230 330  Z " fill-rule="nonzero" fill="#009dd9" stroke="none" />
      <path d="M -230 330.5  C -224.68 330.5  -220.5 334.68  -220.5 340  C -220.5 345.32  -224.68 349.5  -230 349.5  C -235.32 349.5  -239.5 345.32  -239.5 340  C -239.5 334.68  -235.32 330.5  -230 330.5  Z " stroke-width="1" stroke="#ffffff" fill="none" />
    </g>
  </defs>
  <g transform="matrix(1 0 0 1 244 -326 )">
    <use xlink:href="#widget260" filter="url(#filter259)" />
    <use xlink:href="#widget260" />
  </g>
</svg>