<?xml version="1.0" encoding="utf-8"?>
<svg version="1.1" xmlns:xlink="http://www.w3.org/1999/xlink" width="13px" height="9px" xmlns="http://www.w3.org/2000/svg">
  <g transform="matrix(1 0 0 1 -182 -16 )">
    <path d="M 3.9624 0.4056  C 3.9624 0.1944  3.7856 0.0216000000000003  3.5568 0.0215999999999998  L 0.468 0.0215999999999998  C 0.2392 0.0215999999999998  0.052 0.1944  0.052 0.4056  C 0.052 0.6168  0.2392 0.789600000000001  0.468 0.789600000000001  L 3.5464 0.789600000000001  C 3.7752 0.789600000000001  3.9624 0.6168  3.9624 0.4056  Z M 3.9624 4.4568  C 3.9624 4.2456  3.7856 4.0728  3.5568 4.0728  L 0.468 4.0728  C 0.2392 4.0728  0.052 4.2456  0.052 4.4568  C 0.052 4.668  0.2392 4.8408  0.468 4.8408  L 3.5464 4.8408  C 3.7752 4.8408  3.9624 4.668  3.9624 4.4568  Z M 3.9624 8.4984  C 3.9728 8.2872  3.7856 8.1144  3.5568 8.1144  L 0.468 8.1144  C 0.2392 8.1144  0.052 8.2872  0.052 8.4984  C 0.052 8.7096  0.2392 8.8824  0.468 8.8824  L 3.5464 8.8824  C 3.7752 8.8824  3.9624 8.7096  3.9624 8.4984  Z M 12.9272 0.4056  C 12.9272 0.1944  12.74 0.0216000000000003  12.5112 0.0215999999999998  L 9.4328 0.0215999999999998  C 9.204 0.0215999999999998  9.0168 0.1944  9.0168 0.4056  C 9.0168 0.6168  9.204 0.789600000000001  9.4328 0.789600000000001  L 12.5112 0.789600000000001  C 12.74 0.789600000000001  12.9272 0.6168  12.9272 0.4056  Z M 12.9272 4.4568  C 12.9272 4.2456  12.74 4.0728  12.5112 4.0728  L 9.4328 4.0728  C 9.204 4.0728  9.0168 4.2456  9.0168 4.4568  C 9.0168 4.668  9.204 4.8408  9.4328 4.8408  L 12.5112 4.8408  C 12.74 4.8408  12.9272 4.668  12.9272 4.4568  Z M 12.9272 8.4984  C 12.9272 8.2872  12.74 8.1144  12.5112 8.1144  L 9.4328 8.1144  C 9.204 8.1144  9.0168 8.2872  9.0168 8.4984  C 9.0168 8.7096  9.204 8.8824  9.4328 8.8824  L 12.5112 8.8824  C 12.74 8.8824  12.9272 8.7096  12.9272 8.4984  Z " fill-rule="nonzero" fill="#262435" stroke="none" transform="matrix(1 0 0 1 182 16 )" />
  </g>
</svg>