<?xml version="1.0" encoding="utf-8"?>
<svg version="1.1" xmlns:xlink="http://www.w3.org/1999/xlink" width="22px" height="20px" xmlns="http://www.w3.org/2000/svg">
  <g transform="matrix(1 0 0 1 -35 -9 )">
    <path d="M 18.9601328125 19.3303418803419  C 18.36858203125 19.874358974359  17.6191640625 19.9360683760684  17.309853515625 19.9360897435897  C 17.2676796875 19.9360897435897  17.23377734375 19.9349358974359  17.209478515625 20  L 4.3670859375 20  C 3.50680859375 19.9337179487179  3.011615234375 19.5733547008547  2.747701171875 19.271047008547  C 2.16936328125 18.6085897435897  2.2158125 17.7104273504273  2.24189453125 17.4612179487179  L 2.24189453125 9.77895299145299  L 3.61689453125 9.77895299145299  L 3.61689453125 17.5548717948718  L 3.61040625 17.5951068376068  C 3.594056640625 17.7318803418803  3.592509765625 18.1565811965812  3.788490234375 18.3773504273504  C 3.829955078125 18.4240598290598  3.9561328125 18.5661965811966  4.367107421875 18.5661965811966  L 17.264349609375 18.5661965811966  L 17.280462890625 18.5679487179487  C 17.32671875 18.5695726495726  17.75988671875 18.5772222222222  18.032330078125 18.3210042735043  C 18.213958984375 18.1501923076923  18.306041015625 17.8677564102564  18.306041015625 17.4815170940171  L 18.306041015625 9.77305555555556  L 19.681041015625 9.77305555555556  L 19.681041015625 17.4815170940171  C 19.681041015625 18.4616666666667  19.289015625 19.027905982906  18.9601328125 19.3303418803419  Z M 3.616873046875 9.73692307692308  C 3.616873046875 10.1145512820513  3.30906640625 10.4206837606838  2.929373046875 10.4206837606838  L 0.81640625 10.4206837606838  C 0.530857421875 10.4206837606838  0.275064453125 10.2451709401709  0.1736796875 9.97967948717949  C 0.07231640625 9.71418803418803  0.14648046875 9.41403846153846  0.36003515625 9.22553418803419  L 10.505365234375 0.270619658119659  C 10.763607421875 0.0426709401709406  11.151765625 0.0405769230769236  11.4125 0.265769230769231  L 21.698810546875 9.15019230769231  C 21.9126875 9.3349358974359  21.990740234375 9.63123931623932  21.8954140625 9.89653846153846  C 21.800087890625 10.1618376068376  21.550912109375 10.3418376068376  21.2677265625 10.3499358974359  L 19.01319921875 10.4142948717949  C 19.006474609375 10.4145085470085  18.99979296875 10.414594017094  18.99308984375 10.414594017094  C 18.622548828125 10.414594017094  18.316955078125 10.1212393162393  18.306234375 9.75044871794872  C 18.295341796875 9.37297008547009  18.594189453125 9.05818376068376  18.973732421875 9.04735042735043  L 19.466390625 9.0332905982906  L 10.96665625 1.69185897435897  L 2.62680859375 9.05316239316239  L 2.929373046875 9.05316239316239  C 3.30906640625 9.05316239316239  3.616873046875 9.35929487179487  3.616873046875 9.73692307692308  Z M 9.238259765625 18.6795085470085  C 9.23828125 18.998141025641  8.978578125 19.2564316239316  8.658203125 19.2564316239316  C 8.337828125 19.2564316239316  8.078125 18.998141025641  8.078125 18.6795085470085  L 8.078125 13.8537393162393  C 8.07816796875 13.749764957265  8.10463671875 13.321688034188  8.508263671875 12.9136752136752  C 8.998107421875 12.4185256410256  9.828650390625 12.1674572649573  10.97683984375 12.1674572649573  C 12.107734375 12.1674572649573  12.92925390625 12.4219658119658  13.41858203125 12.9239316239316  C 13.831619140625 13.3476068376068  13.85823828125 13.7937179487179  13.857421875 13.9120512820513  L 13.857421875 18.6609829059829  C 13.857421875 18.9796153846154  13.59771875 19.237905982906  13.27734375 19.237905982906  C 12.95696875 19.237905982906  12.697265625 18.9796153846154  12.697265625 18.6609829059829  L 12.697265625 13.9188461538462  C 12.693419921875 13.8939102564103  12.6691640625 13.7884188034188  12.525025390625 13.6722435897436  C 12.36241015625 13.5411752136752  11.94501171875 13.3213034188034  10.976818359375 13.3213034188034  C 9.853787109375 13.3213034188034  9.454693359375 13.6021794871795  9.335240234375 13.722905982906  C 9.276587890625 13.7822008547009  9.251966796875 13.8326495726496  9.2416328125 13.8645085470085  C 9.240064453125 13.8693162393162  9.238990234375 13.8732905982906  9.238259765625 13.8762393162393  L 9.238259765625 18.6795085470085  Z M 9.001953125 13.3119658119658  L 8.80859375 14.6581196581197  L 8.615234375 19.0598290598291  L 3.501953125 18.7820512820513  L 3.13671875 13.3547008547009  L 3.244140625 9.80769230769231  L 1.71875 9.31623931623932  L 10.935546875 1.0042735042735  L 20.0234375 8.88888888888889  L 19.099609375 9.76495726495726  L 18.712890625 17.6709401709402  L 18.34765625 18.8888888888889  L 13.53515625 19.0598290598291  L 13.44921875 15.8760683760684  L 13.1484375 13.7393162393162  L 12.546875 13.2478632478632  L 11.365234375 13.0555555555556  L 9.904296875 13.1837606837607  L 9.001953125 13.3119658119658  Z " fill-rule="nonzero" fill="#d9001b" stroke="none" transform="matrix(1 0 0 1 35 9 )" />
  </g>
</svg>