<?xml version="1.0" encoding="utf-8"?>
<svg version="1.1" xmlns:xlink="http://www.w3.org/1999/xlink" width="19px" height="19px" xmlns="http://www.w3.org/2000/svg">
  <g transform="matrix(1 0 0 1 -355 -144 )">
    <path d="M 18.7068571428571 18.696  C 19.0434285714286 18.3594285714286  19.0434285714286 17.8165714285714  18.7068571428571 17.4691428571429  L 14.9177142857143 13.68  C 17.5777142857143 10.4011428571429  17.3822857142857 5.55885714285714  14.3314285714286 2.508  C 11.0742857142857 -0.749142857142856  5.76514285714286 -0.749142857142856  2.508 2.508  C -0.749142857142855 5.76514285714286  -0.749142857142856 11.0742857142857  2.508 14.3314285714286  C 4.13657142857143 15.96  6.27542857142857 16.7742857142857  8.41428571428572 16.7742857142857  C 10.2817142857143 16.7742857142857  12.1491428571429 16.1554285714286  13.68 14.9068571428571  L 17.4691428571429 18.696  C 17.6428571428571 18.8697142857143  17.86 18.9457142857143  18.088 18.9457142857143  C 18.3051428571429 18.9457142857143  18.5331428571429 18.8588571428571  18.7068571428571 18.696  Z M 13.0937142857143 13.0937142857143  C 10.5205714285714 15.6777142857143  6.31885714285714 15.6777142857143  3.73485714285714 13.0937142857143  C 1.15085714285714 10.5097142857143  1.15085714285714 6.308  3.73485714285714 3.724  C 5.02685714285714 2.44285714285714  6.72057142857143 1.79142857142857  8.41428571428571 1.79142857142857  C 10.108 1.79142857142857  11.8017142857143 2.432  13.0937142857143 3.724  C 15.6777142857143 6.308  15.6777142857143 10.5097142857143  13.0937142857143 13.0937142857143  Z " fill-rule="nonzero" fill="#f0f0f0" stroke="none" transform="matrix(1 0 0 1 355 144 )" />
  </g>
</svg>