<?xml version="1.0" encoding="utf-8"?>
<svg version="1.1" xmlns:xlink="http://www.w3.org/1999/xlink" width="18px" height="18px" xmlns="http://www.w3.org/2000/svg">
  <g transform="matrix(1 0 0 1 -811 -144 )">
    <path d="M 17.6666666666664 8.5904761904762  C 17.6666666666664 4.13891296003334  13.8610870399664 0.333333333333339  9.40952380952352 0.333333333333339  C 4.47224629336637 0.333333333333339  0.666666666666373 4.13891296003334  0.666666666666373 8.5904761904762  C 0.666666666666373 13.5277537066333  4.47224629336637 17.3333333333333  9.40952380952352 17.3333333333333  C 13.8610870399664 17.3333333333333  17.6666666666664 13.5277537066333  17.6666666666664 8.5904761904762  Z M 15.6666666666664 9.07407407407413  C 15.6666666666664 12.4231842070334  12.7565175403664 15.3333333333334  9.40740740740716 15.3333333333334  C 5.57681579296643 15.3333333333334  2.66666666666643 12.4231842070334  2.66666666666643 9.07407407407413  C 2.66666666666643 5.24348245963339  5.57681579296643 2.33333333333339  9.40740740740716 2.33333333333339  C 12.7565175403664 2.33333333333339  15.6666666666664 5.24348245963339  15.6666666666664 9.07407407407413  Z M 12.1666666666664 8.83333333333337  C 12.1666666666664 7.17613333333337  10.8232666666664 5.83333333333337  9.1666666666664 5.83333333333337  C 7.51006666666639 5.83333333333337  6.1666666666664 7.17613333333337  6.1666666666664 8.83333333333337  C 6.1666666666664 10.4899333333334  7.51006666666639 11.8333333333334  9.1666666666664 11.8333333333334  C 10.8232666666664 11.8333333333334  12.1666666666664 10.4899333333334  12.1666666666664 8.83333333333337  Z " fill-rule="nonzero" fill="#000000" stroke="none" transform="matrix(1 0 0 1 811 144 )" />
  </g>
</svg>