<?xml version="1.0" encoding="utf-8"?>
<svg version="1.1" xmlns:xlink="http://www.w3.org/1999/xlink" width="19px" height="7px" xmlns="http://www.w3.org/2000/svg">
  <g transform="matrix(1 0 0 1 -768 -150 )">
    <path d="M 2.5 5.5  C 1.39559999999999 5.5  0.5 4.6044  0.5 3.5  C 0.5 2.3952  1.39559999999999 1.5  2.5 1.5  C 3.60439999999999 1.5  4.5 2.3952  4.5 3.5  C 4.5 4.6044  3.60439999999999 5.5  2.5 5.5  Z M 17 5.5  C 15.8956 5.5  15 4.6044  15 3.5  C 15 2.3952  15.8956 1.5  17 1.5  C 18.1044 1.5  19 2.3952  19 3.5  C 19 4.6044  18.1044 5.5  17 5.5  Z M 9.75 0  C 7.95507456315 0  6.5 1.45507456315  6.5 3.25  C 6.5 5.04492543685  7.95507456315 6.5  9.75 6.5  C 11.54492543685 6.5  13 5.04492543685  13 3.25  C 13 1.45507456315  11.54492543685 0  9.75 0  Z " fill-rule="nonzero" fill="#000000" stroke="none" transform="matrix(1 0 0 1 768 150 )" />
  </g>
</svg>