<?xml version="1.0" encoding="utf-8"?>
<svg version="1.1" xmlns:xlink="http://www.w3.org/1999/xlink" width="87px" height="87px" xmlns="http://www.w3.org/2000/svg">
  <defs>
    <linearGradient gradientUnits="userSpaceOnUse" x1="334" y1="491" x2="420" y2="629" id="LinearGradient153">
      <stop id="Stop154" stop-color="#ccdfff" offset="0" />
      <stop id="Stop155" stop-color="#1f78f7" offset="1" />
    </linearGradient>
    <filter x="338px" y="543px" width="87px" height="87px" filterUnits="userSpaceOnUse" id="filter156">
      <feOffset dx="0" dy="5" in="SourceAlpha" result="shadowOffsetInner" />
      <feGaussianBlur stdDeviation="2.5" in="shadowOffsetInner" result="shadowGaussian" />
      <feComposite in2="shadowGaussian" operator="atop" in="SourceAlpha" result="shadowComposite" />
      <feColorMatrix type="matrix" values="0 0 0 0 0.964705882352941  0 0 0 0 0.27843137254902  0 0 0 0 0.231372549019608  0 0 0 0.349019607843137 0  " in="shadowComposite" />
    </filter>
    <g id="widget157">
      <path d="M 381.5 546  C 401.38 546  417 561.62  417 581.5  C 417 601.38  401.38 617  381.5 617  C 361.62 617  346 601.38  346 581.5  C 346 561.62  361.62 546  381.5 546  Z " fill-rule="nonzero" fill="url(#LinearGradient153)" stroke="none" />
      <path d="M 381.5 545  C 401.94 545  418 561.06  418 581.5  C 418 601.94  401.94 618  381.5 618  C 361.06 618  345 601.94  345 581.5  C 345 561.06  361.06 545  381.5 545  Z " stroke-width="4" stroke="#fffed5" fill="none" />
    </g>
  </defs>
  <g transform="matrix(1 0 0 1 -338 -543 )">
    <use xlink:href="#widget157" filter="url(#filter156)" />
    <use xlink:href="#widget157" />
  </g>
</svg>