<?xml version="1.0" encoding="utf-8"?>
<svg version="1.1" xmlns:xlink="http://www.w3.org/1999/xlink" width="87px" height="32px" xmlns="http://www.w3.org/2000/svg">
  <g transform="matrix(1 0 0 1 -755 -137 )">
    <path d="M 755.5 153  A 15.5 15.5 0 0 1 771 137.5 L 826 137.5  A 15.5 15.5 0 0 1 841.5 153 A 15.5 15.5 0 0 1 826 168.5 L 771 168.5  A 15.5 15.5 0 0 1 755.5 153 Z " fill-rule="nonzero" fill="#ffffff" stroke="none" fill-opacity="0.596078431372549" />
    <path d="M 755.25 153  A 15.75 15.75 0 0 1 771 137.25 L 826 137.25  A 15.75 15.75 0 0 1 841.75 153 A 15.75 15.75 0 0 1 826 168.75 L 771 168.75  A 15.75 15.75 0 0 1 755.25 153 Z " stroke-width="0.5" stroke="#979797" fill="none" stroke-opacity="0.2" />
  </g>
</svg>