<?xml version="1.0" encoding="utf-8"?>
<svg version="1.1" xmlns:xlink="http://www.w3.org/1999/xlink" width="16px" height="16px" xmlns="http://www.w3.org/2000/svg">
  <g transform="matrix(1 0 0 1 -322 -530 )">
    <path d="M 16 8  C 16 12.4114193571429  12.4114193571429 16  8 16  C 3.58858064285714 16  0 12.4114193571429  0 8  C 0 3.58858064285714  3.58858064285714 0  8 0  C 12.4114193571429 0  16 3.58858064285714  16 8  Z M 14.8520129821429 8  C 14.8520129821429 4.221706  11.777710375 1.14798701785714  8 1.14798701785714  C 4.221706 1.14798701785714  1.14798701785714 4.22170598214286  1.14798701785714 8  C 1.14798701785714 11.777710375  4.22170598214286 14.8520129821429  8 14.8520129821429  C 11.777710375 14.8520129821429  14.8520129821429 11.7777410892857  14.8520129821429 8  Z M 11.2776547142857 10.5057154642857  L 8.80456160714286 8.02457426785714  L 11.2754123035714 5.58057096428571  C 11.4999904107143 5.35884960714286  11.5017106071429 4.99714707142857  11.2799892678571 4.77256896428571  C 11.0582679285714 4.54799085714286  10.69598175 4.54627066071429  10.4719872678571 4.767992  L 7.99769617857143 7.21485205357143  L 5.56112658928571 4.77084875  C 5.33768503571428 4.54740719642857  4.97656614285714 4.54627064285714  4.75312458928571 4.76971219642857  C 4.52968303571428 4.99257010714286  4.529130125 5.35427264285714  4.75198803571428 5.57771419642857  L 7.18511723214286 8.01827710714286  L 4.73196001785714 10.4451398571429  C 4.50738191071428 10.667414125  4.50566171428571 11.02856375  4.72738305357143 11.2531418571429  C 4.83938028571428 11.3662756607143  4.98624226785714 11.4228579107143  5.13365717857143 11.4228579107143  C 5.27879896428571 11.4228579107143  5.42394075 11.3674429285714  5.53538505357143 11.2577188214286  L 7.99195194642857 8.82799932142857  L 10.4685161607143 11.3125808928571  C 10.5799604821429 11.424578125  10.7262388214286 11.48057675  10.8731008035714 11.48057675  C 11.0193791428571 11.48057675  11.1651045714286 11.424578125  11.2765181607143 11.3137174642857  C 11.4999597142857 11.0908595535714  11.500512625 10.7297099464286  11.2776547142857 10.5057154642857  Z " fill-rule="nonzero" fill="#ffffff" stroke="none" transform="matrix(1 0 0 1 322 530 )" />
  </g>
</svg>