<?xml version="1.0" encoding="utf-8"?>
<svg version="1.1" xmlns:xlink="http://www.w3.org/1999/xlink" width="18px" height="21px" xmlns="http://www.w3.org/2000/svg">
  <g transform="matrix(1 0 0 1 -113 -376 )">
    <path d="M 18 1.321875  C 17.9908163265306 0.59765625  17.4145408163265 0.01171875  16.7051020408163 0  L 1.29489795918367 0  C 0.585459183673469 0.01171875  0.0114795918367347 0.59765625  0 1.321875  L 0 19.67578125  C 0.0114795918367347 20.4  0.585459183673469 20.9859375  1.29489795918367 21  L 16.7051020408163 21  C 17.4145408163265 20.9859375  17.9885204081633 20.4  18 19.67578125  L 18 1.321875  Z M 4.03852040816327 14.7609375  C 4.03852040816327 15.3046875  3.60688775510204 15.7453125  3.07423469387755 15.7453125  C 2.54158163265306 15.7453125  2.10994897959184 15.3046875  2.10994897959184 14.7609375  C 2.10994897959184 14.2171875  2.54158163265306 13.7765625  3.07423469387755 13.7765625  C 3.60688775510204 13.7765625  4.03852040816327 14.2171875  4.03852040816327 14.7609375  Z M 4.03852040816327 10.5  C 4.03852040816327 11.04375  3.60688775510204 11.484375  3.07423469387755 11.484375  C 2.54158163265306 11.484375  2.10994897959184 11.04375  2.10994897959184 10.5  C 2.10994897959184 9.95625  2.54158163265306 9.515625  3.07423469387755 9.515625  C 3.60688775510204 9.515625  4.03852040816327 9.95625  4.03852040816327 10.5  Z M 4.03852040816327 6.2390625  C 4.03852040816327 6.7828125  3.60688775510204 7.2234375  3.07423469387755 7.2234375  C 2.54158163265306 7.2234375  2.10994897959184 6.7828125  2.10994897959184 6.2390625  C 2.10994897959184 5.6953125  2.54158163265306 5.2546875  3.07423469387755 5.2546875  C 3.60688775510204 5.2546875  4.03852040816327 5.6953125  4.03852040816327 6.2390625  Z M 16.3698979591837 14.7609375  C 16.3698979591837 15.0328125  16.1540816326531 15.253125  15.8877551020408 15.253125  L 5.93494897959184 15.253125  C 5.66862244897959 15.253125  5.45280612244898 15.0328125  5.45280612244898 14.7609375  C 5.45280612244898 14.4890625  5.66862244897959 14.26875  5.93494897959184 14.26875  L 15.8877551020408 14.26875  C 16.1540816326531 14.26875  16.3698979591837 14.4890625  16.3698979591837 14.7609375  Z M 16.3698979591837 10.5  C 16.3698979591837 10.771875  16.1540816326531 10.9921875  15.8877551020408 10.9921875  L 5.93494897959184 10.9921875  C 5.66862244897959 10.9921875  5.45280612244898 10.771875  5.45280612244898 10.5  C 5.45280612244898 10.228125  5.66862244897959 10.0078125  5.93494897959184 10.0078125  L 15.8877551020408 10.0078125  C 16.1540816326531 10.0078125  16.3698979591837 10.228125  16.3698979591837 10.5  Z M 16.3698979591837 6.2390625  C 16.3698979591837 6.5109375  16.1540816326531 6.73125  15.8877551020408 6.73125  L 5.93494897959184 6.73125  C 5.66862244897959 6.73125  5.45280612244898 6.5109375  5.45280612244898 6.2390625  C 5.45280612244898 5.9671875  5.66862244897959 5.746875  5.93494897959184 5.746875  L 15.8877551020408 5.746875  C 16.1540816326531 5.746875  16.3698979591837 5.9671875  16.3698979591837 6.2390625  Z " fill-rule="nonzero" fill="#30a3f6" stroke="none" transform="matrix(1 0 0 1 113 376 )" />
  </g>
</svg>