<?xml version="1.0" encoding="utf-8"?>
<svg version="1.1" xmlns:xlink="http://www.w3.org/1999/xlink" width="20px" height="22px" xmlns="http://www.w3.org/2000/svg">
  <g transform="matrix(1 0 0 1 -228 -376 )">
    <path d="M 2.41758241758242 0  L 16.4835164835165 0  C 17.7782499579157 0  18.8278388186813 1.03003769571211  18.8278388186813 2.30065358578431  L 18.8278388186813 10.8533333333333  C 17.9095785585919 9.91153618294497  16.6395765426006 9.37810047342819  15.3113553021978 9.37631372549019  C 12.5544322252747 9.37631372549019  10.3367032967033 11.6447581789216  10.3367032967033 14.4227973946078  C 10.3367032967033 15.2360784313725  10.5265934065934 16.0217516519608  10.8829304120879 16.725751625  L 11.0235897527473 16.9845751544118  L 9.80454211538462 19.144888879902  C 9.52311843932658 19.6457484469045  9.58165501637982 20.2644347965316  9.95223442307692 20.7058823529412  L 2.41758241758242 20.7058823529412  C 1.12284894318317 20.7058823529412  0.0732600824175829 19.6758446572291  0 18.4052287671569  L 0 2.30065358578431  C 0.0732600824175829 1.03003769571211  1.12284894318317 0  2.41758241758242 0  Z M 15.3113552323316 12.1175424926471  C 14.0166217579323 12.1175424926471  12.9670328971667 13.1475801883592  12.9670328971667 14.4181960784314  C 12.9670328971667 15.6888119685036  14.0166217579323 16.7188496642157  15.3113552323316 16.7188496642157  C 16.6060887067308 16.7188496642157  17.6556775674964 15.6888119685036  17.6556775674964 14.4181960784314  C 17.6556775674964 13.1475801883592  16.6060887067308 12.1175424926471  15.3113552323316 12.1175424926471  Z M 7.55399266483517 12.9986928014706  L 3.64483516483517 12.9986928014706  C 3.19167844196773 12.9986928014706  2.82432233516484 13.3592060004017  2.82432233516484 13.8039215686275  C 2.82432233516484 14.2486371368532  3.19167844196773 14.6091503357843  3.64483516483517 14.6091503357843  L 7.55399266483516 14.6091503357843  C 8.0071493877026 14.6091503357843  8.37450549450549 14.2486371368532  8.37450549450549 13.8039215686275  C 8.37450549450549 13.3592060004017  8.0071493877026 12.9986928014706  7.55399266483516 12.9986928014706  Z M 11.4430733230678 9.20261438357844  C 11.4430733230678 8.75795635480453  11.0758087155409 8.39746699398792  10.6227106318681 8.39738562990197  L 3.64483516483517 8.39738562990197  C 3.19173708116239 8.39746699398792  2.82447247363549 8.75795635480453  2.82447247363549 9.20261438357844  C 2.82447247363549 9.64727241235234  3.19173708116239 10.0077617731689  3.64483516483517 10.0078431372549  L 10.6227106318681 10.0078431372549  C 11.0758087155409 10.0077617731689  11.4430733230678 9.64727241235234  11.4430733230678 9.20261438357844  Z M 16.1317179933975 4.77155556004902  C 16.1317179933975 4.32689753127512  15.7644533858706 3.96640817045851  15.3113553021978 4  L 3.64483516483517 4  C 3.64478511867862 3.96632679738563  3.64473507252189 3.96632679289216  3.64468502636451 3.96632679289216  C 3.19152830349708 3.96632679289216  2.82417219669418 4.32683999182324  2.82417219669418 4.77155556004902  C 2.82417219669418 5.21627112827481  3.19152830349708 5.57678432720589  3.64468502636451 5.57678432720589  C 3.64473507252189 5.57678432720589  3.64478511867862 5.57678432271242  3.64483516483517 6  L 15.3113553021978 6  C 15.7644533858706 5.57670294963953  16.1317179933975 5.21621358882293  16.1317179933975 4.77155556004902  Z M 15.5071062362637 10.3575424926471  L 15.3113553021978 10.3529411764706  L 15.4848351648352 10.3563921568627  L 15.5071062362637 10.3575424926471  Z M 15.5164835164835 10.3586928014706  L 15.5176556868132 10.3586928014706  L 15.6559706868132 10.3678954338235  C 16.0193016382801 10.4001537606391  16.3760971753339 10.4830430901262  16.7156043956044 10.6140653504902  L 16.7566300274725 10.6290196078431  C 16.9936874492272 10.7237909114643  17.2206257102538 10.8413114049425  17.4341392032967 10.9798692720588  L 17.5501831593407 11.0569411764706  C 17.9099816737513 11.306558309528  18.2252470568574 11.6128416298372  18.4832234340659 11.9633986838235  C 18.6133368782351 12.1388931363924  18.7289666907275 12.3243012571036  18.829010989011 12.5178562181373  C 19.1243956043956 13.0884183186275  19.2920146428571 13.7360522965686  19.2920146428571 14.4227973946078  C 19.2920146428571 15.1106928284314  19.1243956043956 15.7571764705882  18.8313553021978 16.3254378995098  L 18.8301831593407 16.3277385710784  C 18.7180544189945 16.5438503086775  18.5866501354371 16.7497958388425  18.4375091483517 16.9431633897059  L 19.9460805769231 19.6176731936275  C 20.0560598212413 19.8113187232872  19.9921621162182 20.055574400157  19.8007326098901 20.1732810367647  C 19.7474176505345 20.2049382779921  19.6870984630261 20.2234862371956  19.6249084340659 20.2273464142157  L 18.2464468956044 20.3124705882353  C 18.119914708922 20.320973855458  18.0052380555382 20.388583742029  17.938168489011 20.4942222132353  L 17.1762637362637 21.6733071985294  C 17.1060442304649 21.7875793015277  16.9799919590355 21.8574367891136  16.8440165580075 21.8574367891136  C 16.6993812540523 21.8574367891136  16.5667529618557 21.7784836297744  16.4999267307692 21.6526013161765  L 15.3113553021978 19.5475032769608  L 14.7229304120879 20.5896993553922  L 14.1227838736264 21.6526013161765  C 14.0554180884609 21.7778627516815  13.9229453110256 21.8562491853682  13.7786197423886 21.8562491853682  C 13.6429739672672 21.8562491853682  13.5171155665155 21.7869335079528  13.4464468956044 21.6733071985294  L 12.6845421153846 20.4942222132353  C 12.6174725544209 20.3885837494123  12.5027959130095 20.3209738638747  12.3762637362637 20.3124705882353  L 10.9966300274725 20.2273464142157  C 10.7732340126392 20.2084257991474  10.6069902987901 20.0165484815722  10.6238827747253 19.7971241740196  C 10.6275137374203 19.7341794383743  10.6455421308416 19.6728451942983  10.6766300274725 19.6176731936274  L 12.185201456044 16.9431633897059  C 11.627740255722 16.217502559849  11.3276265490648 15.3327204696947  11.3306959615385 14.4239477034314  C 11.3306959615385 12.2498300563725  12.996336978022 10.4748757990196  15.0933333241758 10.3586928014706  L 15.3113553021978 10.3529411764706  L 15.5164835164835 10.3586928014706  Z " fill-rule="nonzero" fill="#30a3f6" stroke="none" transform="matrix(1 0 0 1 228 376 )" />
  </g>
</svg>