<?xml version="1.0" encoding="utf-8"?>
<svg version="1.1" xmlns:xlink="http://www.w3.org/1999/xlink" width="20px" height="21px" xmlns="http://www.w3.org/2000/svg">
  <g transform="matrix(1 0 0 1 -352 -377 )">
    <path d="M 4.04137931034483 16.1  L 4.04137931034483 16.137333340625  L 4.04137931034483 9.678666659375  C 4.48275862068965 9.678666659375  4.85057471982759 9.30533331875  4.85057471982759 8.857333340625  L 4.85057471982759 8.036  L 0.878160926724138 8.036  L 0.878160926724138 8.857333340625  C 0.878160926724138 9.305333340625  1.24597702586207 9.67866668125  1.68735631465517 9.678666659375  L 1.68735631465517 16.1  L 4.04137931034483 16.1  Z M 8.82298851293104 16.1  L 8.82298851293103 16.137333340625  L 8.82298851293103 9.678666659375  C 9.26436782327586 9.678666659375  9.63218392241379 9.30533331875  9.63218390086207 8.857333340625  L 9.63218390086207 8.036  L 5.65977010775862 8.036  L 5.65977010775862 8.857333340625  C 5.65977010775862 9.305333340625  6.02758620689655 9.67866668125  6.46896551724138 9.678666659375  L 6.46896551724138 16.1  L 8.82298851293104 16.1  Z M 13.5678160991379 16.1  L 13.5678160991379 16.137333340625  L 13.5678160991379 9.678666659375  C 14.0091954094828 9.678666659375  14.3770115086207 9.30533331875  14.377011487069 8.857333340625  L 14.377011487069 8.036  L 10.4045976939655 8.036  L 10.4045976939655 8.857333340625  C 10.4045976939655 9.305333340625  10.7724137931034 9.67866668125  11.2137931034483 9.678666659375  L 11.2137931034483 16.1  L 13.5678160991379 16.1  Z M 18.3126436853448 16.1  L 18.3126436853448 16.137333340625  L 18.3126436853448 9.678666659375  C 18.7540229956897 9.678666659375  19.1218390948276 9.30533331875  19.1218390732759 8.857333340625  L 19.1218390732759 8.036  L 15.1494252801724 8.036  L 15.1494252801724 8.857333340625  C 15.1494252801724 9.305333340625  15.5172413793103 9.67866668125  15.9586206896552 9.678666659375  L 15.9586206896552 16.1  L 18.3126436853448 16.1  Z M 19.8942528663793 19.310666659375  C 19.8942528663793 18.9  19.5632183836207 18.526666659375  19.1218390732759 18.526666659375  L 18.3126436853448 18.526666659375  L 18.3126436853448 17  L 1.68735631465517 17  L 1.68735631465517 18.526666659375  L 0.878160926724138 18.526666659375  C 0.43678161637931 18.526666659375  0.0689655172413794 18.9  0.0689655172413794 19.348  L 0.0689655172413794 20.169333340625  C 0.10574713362069 20.58  0.43678161637931 20.953333340625  0.878160926724138 21  L 19.0850574784483 21  C 19.5264367887931 20.953333340625  19.894252887931 20.58  19.8942528663793 20.132  L 19.8942528663793 19.310666659375  Z M 0.10574713362069 6.692  C 0.216091961206896 7.028  0.510344827586207 7.289333340625  0.841379310344828 7.289333340625  L 19.1218390732759 7.289333340625  C 19.5264367672414 7.289333340625  19.8942528663793 6.916  19.8942528663793 6.468  C 19.8942528663793 6.132  19.7103448275862 5.833333340625  19.4160919612069 5.721333340625  L 10.3678160991379 0.158666659375  C 10.1471264439655 0.00933331874999994  9.85287357758621 0.00933331874999994  9.59540230603448 0.158666659375  L 0.473563211206896 5.796  C 0.179310344827586 5.982666659375  0.0321839008620688 6.356  0.10574713362069 6.692  Z M 8.30804596982759 4.452  C 8.30804596982759 3.518666659375  9.04367814655173 2.734666659375  10 2.734666659375  C 10.9563218318966 2.734666659375  11.6919540301724 3.518666659375  11.6919540301724 4.452  C 11.6919540301724 5.422666659375  10.919540237069 6.169333340625  10 6.169333340625  C 9.04367816810345 6.169333340625  8.30804596982759 5.385333340625  8.30804596982759 4.452  Z " fill-rule="nonzero" fill="#30a3f6" stroke="none" transform="matrix(1 0 0 1 352 377 )" />
  </g>
</svg>