<?xml version="1.0" encoding="utf-8"?>
<svg version="1.1" xmlns:xlink="http://www.w3.org/1999/xlink" width="94px" height="94px" xmlns="http://www.w3.org/2000/svg">
  <g transform="matrix(1 0 0 1 -264 -240 )">
    <path d="M 94 47  C 94 72.9574285714286  72.9574285714286 94  47 94  C 21.0425714285714 94  0 72.9574285714286  0 47  C 0 21.0425714285714  21.0425714285714 0  47 0  C 72.9574285714286 0  94 21.0425714285714  94 47  Z M 6.29464285714286 47  C 6.29464285714286 69.4808973214286  24.5191026785714 87.7053571428571  47 87.7053571428571  C 69.4808973214286 87.7053571428571  87.7053571428571 69.4808973214286  87.7053571428571 47  C 87.7053571428571 24.5191026785714  69.4808973214286 6.29464285714286  47 6.29464285714286  C 24.5191026785714 6.29464285714286  6.29464285714286 24.5191026785714  6.29464285714286 47  Z " fill-rule="nonzero" fill="#cc4556" stroke="none" transform="matrix(1 0 0 1 264 240 )" />
  </g>
</svg>