<?xml version="1.0" encoding="utf-8"?>
<svg version="1.1" xmlns:xlink="http://www.w3.org/1999/xlink" width="8px" height="57px" xmlns="http://www.w3.org/2000/svg">
  <g transform="matrix(1 0 0 1 -307 -260 )">
    <path d="M 1 53.2279411764706  L 1 16.5551470588235  C 1.05 14.8190569852941  2.3931 13.4117647058824  4.05 13.4117647058824  C 5.7069 13.4117647058824  7.05 14.8190569852941  7 16.5551470588235  L 7 53.2279411764706  C 7.05 54.96403125  5.7069 56.3713235294118  4.05 56.3713235294118  C 2.3931 56.3713235294118  1.05 54.96403125  1 53.2279411764706  Z M 0 4.50551470588235  C 0 6.82023755443787  1.79086100067682 8.69669117647059  4 8.69669117647059  C 6.20913899932317 8.69669117647059  7.99999999999999 6.82023755443788  7.99999999999999 4.50551470588235  C 7.99999999999999 2.19079185732682  6.20913899932317 0.314338235294118  4 0.314338235294118  C 1.79086100067682 0.314338235294118  0 2.19079185732682  0 4.50551470588235  Z " fill-rule="nonzero" fill="#cc4556" stroke="none" transform="matrix(1 0 0 1 307 260 )" />
  </g>
</svg>