<?xml version="1.0" encoding="utf-8"?>
<svg version="1.1" xmlns:xlink="http://www.w3.org/1999/xlink" width="57px" height="57px" xmlns="http://www.w3.org/2000/svg">
  <g transform="matrix(1 0 0 1 -768 -467 )">
    <path d="M 57 28.5  C 57 44.175  44.175 57  28.5 57  C 12.825 57  0 44.175  0 28.5  C 0 12.825  12.825 0  28.5 0  C 44.175 0  57 12.825  57 28.5  Z M 4.07142857142857 28.5  C 4.07142857142857 41.9357142857143  15.0642857142857 52.9285714285714  28.5 52.9285714285714  C 41.9357142857143 52.9285714285714  52.9285714285714 41.9357142857143  52.9285714285714 28.5  C 52.9285714285714 15.0642857142857  41.9357142857143 4.07142857142857  28.5 4.07142857142857  C 15.0642857142857 4.07142857142857  4.07142857142857 15.0642857142857  4.07142857142857 28.5  Z M 30 40.7142857142857  L 30 20.7642857142857  L 35.625 25.8535714285714  C 36.4392857142857 26.6678571428571  37.6607142857143 26.6678571428571  38.475 25.8535714285714  C 39.2892857142857 25.0392857142857  39.2892857142857 23.8178571428571  38.475 23.0035714285714  L 31.35 15.8785714285714  C 29.7214285714286 14.25  27.2785714285714 14.25  25.65 15.8785714285714  L 18.525 23.0035714285714  C 17.7107142857143 23.8178571428571  17.7107142857143 25.0392857142857  18.525 25.8535714285714  C 19.3392857142857 26.6678571428571  20.5607142857143 26.6678571428571  21.375 25.8535714285714  L 27 20.7642857142857  L 27 40.7142857142857  C 26.4642857142857 41.9357142857143  27.2785714285714 42.75  28.5 42.75  C 29.7214285714286 42.75  30.5357142857143 41.9357142857143  30 40.7142857142857  Z " fill-rule="nonzero" fill="#1890ff" stroke="none" transform="matrix(1 0 0 1 768 467 )" />
  </g>
</svg>