<?xml version="1.0" encoding="utf-8"?>
<svg version="1.1" xmlns:xlink="http://www.w3.org/1999/xlink" width="60px" height="60px" xmlns="http://www.w3.org/2000/svg">
  <g transform="matrix(1 0 0 1 -768 -762 )">
    <path d="M 60 30  C 59.9831776563974 46.561569447322  46.561569447322 59.9831776563974  30 60  C 13.4314575050762 60  0 46.5685424949238  0 30  C 0 13.4314575050762  13.4314575050762 0  30 0  C 46.5685424949238 0  60 13.4314575050762  60 30  Z M 56.9481179882813 30  C 56.9312993446689 15.1239374780485  44.8760625219515 3.06870065533113  30 3.05188201171875  C 15.1169653984314 3.05188201171875  3.05188201171875 15.1169653984314  3.05188201171875 30  C 3.05188201171875 44.8830346015686  15.1169653984314 56.9481179882813  30 56.9481179882813  C 44.8830346015686 56.9481179882813  56.9481179882813 44.8830346015686  56.9481179882813 30  Z M 25.7578840429688 41.2004068945312  C 25.4699102426464 41.4860424847903  25.0800655987486 41.6452748091771  24.6744659179687 41.6429298046875  C 24.2662314736548 41.6291148860585  23.8786868884999 41.4599052846548  23.5910477929687 41.1698881054688  L 14.1607324804687 31.251271640625  C 13.8904980385454 30.9673296611391  13.7397831347126 30.5903540954428  13.7397831347126 30.1983723339844  C 13.7397831347126 29.3548918254074  14.4235591886886 28.6711157714314  15.2670396972656 28.6711157714314  C 15.6851973758403 28.6711157714314  16.0850666469266 28.84256985514  16.3733469140625 29.1454730273437  L 24.7202441601562 37.9196337890625  L 43.672431328125 18.8148525  C 43.9589520771331 18.5259725672833  44.3489762800368 18.3634817137255  44.7558494238281 18.3634817137255  C 45.1627225676194 18.3634817137255  45.5527467705231 18.5259725672833  45.8392675195313 18.8148525  C 46.430910853483 19.4100266362519  46.430910853483 20.3712551606231  45.8392675195313 20.966429296875  L 25.7578840429688 41.2004068945312  Z " fill-rule="nonzero" fill="#1890ff" stroke="none" transform="matrix(1 0 0 1 768 762 )" />
  </g>
</svg>