<?xml version="1.0" encoding="utf-8"?>
<svg version="1.1" xmlns:xlink="http://www.w3.org/1999/xlink" width="23px" height="22px" xmlns="http://www.w3.org/2000/svg">
  <g transform="matrix(1 0 0 1 -1429 -336 )">
    <path d="M 18 4.45238095238095  L 18 18.9095238095238  C 17.95078125 19.6603174603175  17.321875 20.2714285714286  16.5499375 20  L 6.45078125 20  C 5.67721201327043 20.2702747999293  5.05040611853863 19.6612046137441  5 18.9095238095238  L 5 4.45238095238095  L 18 4.45238095238095  Z M 7.85234375 2.82857142857143  L 7.85234375 2.00793650793651  C 7.85234375 1.85079365079365  7.978125 1.72857142857143  8.13984375 1.72857142857143  L 14.878125 1.72857142857143  C 15.03984375 1.72857142857143  15.16490625 1.85079365079365  15.16490625 2.00793650793651  L 15.16490625 2.82857142857143  L 7.85234375 2.82857142857143  Z M 23 3.63174603174603  C 23 3.17777777777778  22.62265625 2.82857142857143  22.15546875 2.82857142857143  L 16.83671875 2.82857142857143  L 16.83671875 2.00793650793651  C 16.83671875 0.96031746031746  15.95625 0.104761904761905  14.878125 0.104761904761905  L 8.13984375 0.104761904761905  C 7.05912622084329 0.107066532437189  6.18362173686185 0.957798287748349  6.18125 2.00793650793651  L 6.18125 2.82857142857143  L 0.84453125 2.82857142857143  C 0.37734375 2.82857142857143  0 3.1952380952381  0 3.64920634920635  C 0 4.1031746031746  0.37734375 4.46984126984127  0.84453125 4.46984126984127  L 3.36015625 4.46984126984127  L 3.36015625 18.9095238095238  C 3.36015625 20.5681313439363  4.7438761950542 21.9126984126984  6.45078125 22  L 16.54921875 22  C 18.2561238049458 21.9126984126984  19.63984375 20.5681313439363  19.63984375 18.9095238095238  L 19.63984375 4.45238095238095  L 22.15546875 4.45238095238095  C 22.62265625 4.45238095238095  23 4.08571428571429  23 3.63174603174603  Z M 10.65546875 16.9888888888889  C 10.65546875 17.4428571428571  11.0328125 17.8095238095238  11.5 17.8095238095238  C 11.9671875 17.8095238095238  12.34453125 17.4428571428571  12.34453125 16.9888888888889  L 12.34453125 8.25873015873016  C 12.34453125 7.8047619047619  11.96790625 7.43809523809524  11.5 7.43809523809524  C 11.0328125 7.43809523809524  10.65546875 7.8047619047619  10.65546875 8.25873015873016  L 10.65546875 16.9888888888889  Z M 6.7203125 16.9888888888889  C 6.73828125 17.4428571428571  7.115625 17.8095238095238  7.56484375 17.8095238095238  C 8.03203125 17.8095238095238  8.409375 17.4428571428571  8.409375 16.9888888888889  L 8.409375 8.25873015873016  C 8.409375 7.8047619047619  8.03203125 7.43809523809524  7.56484375 7.43809523809524  C 7.09765625 7.43809523809524  6.7203125 7.8047619047619  6.7203125 8.25873015873016  L 6.7203125 16.9888888888889  Z M 14.590625 16.9888888888889  C 14.590625 17.4428571428571  14.96796875 17.8095238095238  15.43515625 17.8095238095238  C 15.90234375 17.8095238095238  16.28040625 17.4428571428571  16.28040625 16.9888888888889  L 16.28040625 8.25873015873016  C 16.28040625 7.8047619047619  15.9030625 7.43809523809524  15.43515625 7.43809523809524  C 14.9686875 7.43809523809524  14.590625 7.8047619047619  14.590625 8.25873015873016  L 14.590625 16.9888888888889  Z " fill-rule="nonzero" fill="#7b7b7b" stroke="none" transform="matrix(1 0 0 1 1429 336 )" />
  </g>
</svg>